<?xml version="1.0" encoding="UTF-8"?>
<svg id="Layer_2" data-name="Layer 2" xmlns="http://www.w3.org/2000/svg" xmlns:xlink="http://www.w3.org/1999/xlink" viewBox="0 0 912.17 927.74">
  <defs>
    <style>
      .cls-1 {
        fill: #1a1a1a;
      }

      .cls-1, .cls-2, .cls-3, .cls-4, .cls-5, .cls-6, .cls-7, .cls-8, .cls-9, .cls-10, .cls-11, .cls-12 {
        stroke-miterlimit: 10;
      }

      .cls-1, .cls-3, .cls-6, .cls-7, .cls-8, .cls-10, .cls-11, .cls-12 {
        stroke: #000;
      }

      .cls-1, .cls-6, .cls-7, .cls-10, .cls-11, .cls-12 {
        stroke-width: 12.17px;
      }

      .cls-2 {
        stroke-width: .62px;
      }

      .cls-2, .cls-5, .cls-9 {
        stroke: #5b5b5b;
      }

      .cls-2, .cls-5, .cls-9, .cls-12 {
        fill: #fff;
      }

      .cls-3 {
        stroke-width: 6.09px;
      }

      .cls-3, .cls-4, .cls-7, .cls-8 {
        fill: none;
      }

      .cls-4 {
        stroke: #ff0;
        stroke-width: .41px;
      }

      .cls-13 {
        fill: #490d1d;
      }

      .cls-5 {
        stroke-width: .77px;
      }

      .cls-14, .cls-11 {
        fill: #ffd200;
      }

      .cls-15 {
        fill: #303030;
      }

      .cls-6 {
        fill: #1e1ed6;
      }

      .cls-8 {
        stroke-width: 2.03px;
      }

      .cls-9 {
        stroke-width: .76px;
      }

      .cls-10 {
        fill: #e6e6e6;
      }

      .cls-16 {
        fill: url(#linear-gradient);
      }

      .cls-17 {
        clip-path: url(#clippath);
      }
    </style>
    <clipPath id="clippath">
      <path class="cls-7" d="M637.68,526.99c32.92,11.3,91.77,43.28,136.87,69.05,42.59,24.33,76.84,60.93,98.39,104.99,16.86,34.47,33.15,195.06,33.15,216.53l-900,4.06c0-21.47,16.3-186.12,33.15-220.59,21.55-44.06,55.8-80.66,98.39-104.99,45.1-25.77,103.95-57.75,136.87-69.05l19.71,11.26,54.3,98.54,107.59,87.28,121.07-99.95,42.23-97.13h18.3Z"/>
    </clipPath>
    <linearGradient id="linear-gradient" x1="456.12" y1="495.6" x2="456.12" y2="253" gradientUnits="userSpaceOnUse">
      <stop offset="0" stop-color="#939598"/>
      <stop offset=".03" stop-color="#8b8d90"/>
      <stop offset=".27" stop-color="#5a5b5d"/>
      <stop offset=".49" stop-color="#333334"/>
      <stop offset=".7" stop-color="#171717"/>
      <stop offset=".87" stop-color="#060606"/>
      <stop offset="1" stop-color="#000"/>
    </linearGradient>
  </defs>
  <g id="Layer_1-2" data-name="Layer 1">
    <g id="GAH_goalie">
      <g>
        <path class="cls-6" d="M637.68,526.99c32.92,11.3,91.77,43.28,136.87,69.05,42.59,24.33,76.84,60.93,98.39,104.99,16.86,34.47,33.15,195.06,33.15,216.53l-900,4.06c0-21.47,16.3-186.12,33.15-220.59,21.55-44.06,55.8-80.66,98.39-104.99,45.1-25.77,103.95-57.75,136.87-69.05l19.71,11.26,54.3,98.54,107.59,87.28,121.07-99.95,42.23-97.13h18.3Z"/>
        <g>
          <g class="cls-17">
            <path class="cls-14" d="M788.82,780.51c-4.09,0-7.96-.35-11.5-1.05-30.08-5.89-65.64-12.88-103.3-23.45-58.93-16.54-125.67-33.29-179.7-38.02h-76.47c-54.03,4.73-120.77,21.47-179.7,38.02-37.65,10.57-73.22,17.56-103.3,23.45-3.54.7-7.41,1.05-11.5,1.05-43,0-121.3-42.26-130.09-47.08l-22.12-12.13,99.93-147.94,221.33-126.27h327.37l221.33,126.27,99.93,147.94-22.12,12.13c-8.79,4.82-87.09,47.08-130.09,47.08Z"/>
          </g>
          <path class="cls-7" d="M637.68,526.99c32.92,11.3,91.77,43.28,136.87,69.05,42.59,24.33,76.84,60.93,98.39,104.99,16.86,34.47,33.15,195.06,33.15,216.53l-900,4.06c0-21.47,16.3-186.12,33.15-220.59,21.55-44.06,55.8-80.66,98.39-104.99,45.1-25.77,103.95-57.75,136.87-69.05l19.71,11.26,54.3,98.54,107.59,87.28,121.07-99.95,42.23-97.13h18.3Z"/>
        </g>
        <g>
          <path class="cls-7" d="M843.95,655.35c-21.77,0-109.27,200.15-109.27,263.04"/>
          <path class="cls-7" d="M495.3,724.99c110.95,9.41,160.22,41.32,274.28,54.3"/>
          <path class="cls-7" d="M68.23,655.35c21.77,0,109.27,200.15,109.27,263.04"/>
          <path class="cls-7" d="M416.88,724.99c-110.95,9.41-160.22,41.32-274.28,54.3"/>
        </g>
        <polygon class="cls-12" points="356.14 618.49 456.09 712.11 556.04 618.49 356.14 618.49"/>
        <path class="cls-11" d="M520.55,706.34c-35.63,28.35-64.46,42.13-64.46,42.13,0,0-28.84-13.79-64.47-42.13l30.88-38.72c19.39,15.74,33.58,25.48,33.58,25.48,0,0,14.2-9.74,33.58-25.48l30.88,38.72Z"/>
        <path class="cls-4" d="M335.02,485h0"/>
        <path class="cls-4" d="M577.16,485h0"/>
        <path class="cls-12" d="M562.89,477.44l10.2,6.94c4.22,2.87,7.8,6.6,10.5,10.93l22.66,36.37-29.09,60.06-21.12,26.75s-43.35,23.7-99.95,23.7c-56.6,0-99.95-23.7-99.95-23.7l-21.12-26.75-29.09-60.06,22.66-36.37c2.7-4.34,6.28-8.06,10.5-10.93l10.2-6.94"/>
        <path class="cls-1" d="M422.5,667.62l-30.88,38.72c-33.51-26.66-73.04-66.21-100.24-119.29-16.89-32.97-16.89-60.06-16.89-60.06,35.96-33.17,60.15-41.86,60.53-41.99-.31.48-21.79,33.31-18.52,49.17,10.07,48.72,68.01,102.6,106,133.45Z"/>
        <path class="cls-1" d="M637.68,526.99s0,27.1-16.89,60.06c-27.2,53.08-66.72,92.62-100.24,119.29l-30.88-38.72c37.99-30.84,95.93-84.73,106-133.45,3.28-15.86-18.2-48.69-18.51-49.17.38.13,24.56,8.82,60.53,41.99Z"/>
        <path class="cls-10" d="M559.46,436.18l4.22,48.82c13.47,14.54,13.48,32.61,13.48,32.61,0,0,12.2,89.62-121.06,89.62-133.26,0-121.06-89.62-121.06-89.62,0,0,0-18.07,13.48-32.61l4.22-48.82"/>
        <path class="cls-10" d="M456.08,501.64c56.86,0,101.86-56.86,101.86-56.86,0,0,16.76-11.11,22.09-46.2,6.28-41.34,27.36-123.48,25.77-165.26-1.1-28.97-6.01-92.49-26.66-112.84-22.81-22.48-99.96-35.54-123.06-35.54-23.1,0-100.25,13.06-123.06,35.54-20.65,20.35-25.55,83.88-26.66,112.84-1.59,41.78,19.49,123.92,25.77,165.26,5.33,35.1,22.09,46.2,22.09,46.2,0,0,45,56.86,101.86,56.86Z"/>
      </g>
      <g id="Line_Art" data-name="Line Art">
        <path d="M456.12,480.03c-25.11,0-50.98-6.83-76.99-20.33-2.03.9-4.27,1.4-6.57,1.4-2.61,0-5.21-.64-7.53-1.86l-.05-.03c-3.78-2.01-6.64-5.51-7.85-9.6-.32-1.09-.52-2.19-.61-3.29-11.22-7.47-22.31-16.07-33.12-25.7-1.5.46-3.1.71-4.76.71-.25,0-.59,0-1-.03-4.2-.26-8.05-2.09-10.89-5.19-2.89-3.16-4.37-7.24-4.17-11.51l.18-3.98c-8.19-8.62-13.96-15.59-16.86-19.22-2.61-3.28-4.47-6.98-5.55-11.01l-35.3-131.42c-.05-.18-.09-.36-.13-.54-.04-.15-.07-.31-.1-.46-.24-1.21-.27-2.24-.25-3.02-.02-.79,0-1.77.21-2.92.23-1.29.59-2.27.9-2.99.28-.75.68-1.7,1.36-2.77.71-1.1,1.42-1.87,1.97-2.43.53-.58,1.24-1.29,2.26-2,.95-.67,1.82-1.11,2.53-1.42.68-.35,1.6-.76,2.76-1.06.18-.05.36-.09.54-.13.16-.04.33-.07.49-.1.48-.09,11.97-2.26,31.64-5.01,1.56-.82,3.25-1.38,5.02-1.64l.12-.02.12-.02c.67-.09,1.36-.13,2.03-.13,1.14,0,2.28.12,3.4.37,14.16-1.84,28.77-3.46,43.51-4.84,1.75-.65,3.64-.99,5.53-.99.95,0,1.89.08,2.82.25,35.34-3.07,70.44-4.62,104.34-4.62s68.99,1.55,104.34,4.62c.93-.16,1.87-.25,2.82-.25,1.89,0,3.76.34,5.52.99,14.73,1.38,29.35,3,43.52,4.84,1.12-.24,2.26-.37,3.4-.37.67,0,1.34.04,2.01.13l.14.02.14.02c1.78.27,3.46.82,5.02,1.64,19.67,2.75,31.15,4.92,31.65,5.01.17.03.33.07.5.1.17.04.34.08.52.12h0c1.16.3,2.08.71,2.77,1.06.72.32,1.58.75,2.52,1.41,1.02.73,1.74,1.44,2.26,2.01.57.57,1.27,1.33,1.95,2.4.71,1.11,1.11,2.07,1.38,2.8.31.74.66,1.71.89,2.97.21,1.17.23,2.16.21,2.94.03.78,0,1.8-.24,3-.03.15-.06.31-.1.46-.04.2-.09.39-.14.58l-35.29,131.4c-1.09,4.03-2.95,7.71-5.53,10.97l-.03.04c-2.9,3.63-8.67,10.58-16.86,19.21l.18,4c.2,4.25-1.28,8.34-4.17,11.49-2.84,3.1-6.69,4.94-10.89,5.19-.41.03-.75.03-1,.03-1.66,0-3.26-.25-4.76-.71-10.81,9.63-21.9,18.24-33.12,25.71-.09,1.1-.29,2.2-.61,3.29-1.21,4.09-4.07,7.59-7.85,9.6l-.05.03c-2.32,1.22-4.92,1.86-7.53,1.86-2.3,0-4.54-.49-6.57-1.4-26.02,13.5-51.88,20.33-76.99,20.33ZM423.81,423.66c11.47,6.14,22.29,9.24,32.31,9.24s20.83-3.1,32.31-9.23c-9.84-3.66-20.65-5.5-32.31-5.5s-22.46,1.84-32.31,5.5ZM499.48,393.6c6.42,2.38,12.57,5.32,18.43,8.83,9.5-8.55,18.7-18.4,26.97-27.97-9.4,5.69-19.43,10.49-29.96,14.31-5.34,1.94-10.52,3.53-15.44,4.82ZM367.36,374.47c8.26,9.57,17.46,19.41,26.97,27.96,5.86-3.51,12.01-6.45,18.42-8.83-4.92-1.29-10.09-2.88-15.43-4.82-10.53-3.82-20.56-8.62-29.96-14.31ZM335.52,388.14c2.17,2.1,4.35,4.16,6.54,6.16-2.26-2.67-4.42-5.28-6.46-7.8l-.07,1.64ZM576.64,386.51c-2.03,2.51-4.18,5.1-6.43,7.76,2.18-1.99,4.34-4.04,6.5-6.13l-.07-1.63ZM457.41,367.28c.41.02,1.38.06,2.84.06,16.33,0,70.98-4.24,107.95-57.12-4.56-7.61-10.38-15.53-16.05-21.76-9.14-10.04-15.24-13.01-17.4-13.18-18.32-1.41-56.62-2.47-78.63-2.47s-60.32,1.06-78.63,2.47c-2.16.17-8.24,3.13-17.37,13.17-5.66,6.23-11.48,14.17-16.05,21.79,36.98,52.86,91.64,57.09,107.97,57.09,1.39,0,2.33-.03,2.77-.06l.34-.04h.77c.07,0,.15,0,.22,0,.07,0,.92,0,.92,0l.37.04ZM315.86,242.91c2.96,13.19,6.8,25.44,11.5,36.66,4.04-5.21,8.51-10.55,13.2-15.42,4.03-4.2,7.93-7.75,11.71-10.66-3.76-3.48-7.5-7.92-11.22-13.31-8.46.83-16.88,1.74-25.18,2.73ZM559.97,253.48c3.78,2.91,7.68,6.46,11.72,10.66,4.68,4.87,9.15,10.2,13.2,15.4,4.69-11.21,8.53-23.45,11.49-36.63-8.3-.99-16.72-1.9-25.18-2.73-3.72,5.39-7.46,9.83-11.22,13.3ZM281.01,247.63c2.02,5.64,4.48,11.35,7.25,17.02-1.62-5.66-3.07-11.49-4.36-17.46-1,.15-1.96.3-2.88.44ZM628.34,247.2c-1.29,5.96-2.74,11.77-4.35,17.43,2.77-5.67,5.22-11.36,7.24-16.99-.93-.14-1.89-.29-2.88-.44Z"/>
        <polygon id="BG" class="cls-16" points="456.12 253 287.76 265.8 293.59 303.23 327.65 396.25 456.1 495.59 456.1 495.6 456.12 495.6 456.13 495.6 456.13 495.59 584.58 396.25 618.64 303.23 624.47 265.8 456.12 253"/>
        <g id="Straps">
          <path d="M489.38,7.83l-3.82-5.25c-1.18-1.62-3.07-2.58-5.07-2.58h-48.75c-2.01,0-3.89.96-5.07,2.58l-3.82,5.25c-1.18,1.62-3.07,2.58-5.07,2.58h0c-3.47,0-6.27,2.81-6.27,6.27v9.86c0,3.47,2.81,6.27,6.27,6.27h76.68c3.47,0,6.27-2.81,6.27-6.27v-9.86c0-3.47-2.81-6.27-6.27-6.27h0c-2.01,0-3.89-.96-5.07-2.58Z"/>
          <path d="M628.83,159.77l2.74-5.88c.85-1.82.77-3.94-.2-5.69l-11.82-21.32-11.82-21.32c-.97-1.76-2.73-2.94-4.72-3.19l-6.44-.79c-1.99-.25-3.75-1.43-4.72-3.19h0c-1.68-3.03-5.5-4.13-8.53-2.45l-8.63,4.78c-3.03,1.68-4.13,5.5-2.45,8.53l18.58,33.52v.02s18.59,33.52,18.59,33.52c1.68,3.03,5.5,4.13,8.53,2.45l8.63-4.78c3.03-1.68,4.13-5.5,2.45-8.53h0c-.97-1.76-1.05-3.87-.2-5.69Z"/>
          <path d="M283.4,159.77l-2.74-5.88c-.85-1.82-.77-3.94.2-5.69l11.82-21.32,11.82-21.32c.97-1.76,2.73-2.94,4.72-3.19l6.44-.79c1.99-.25,3.75-1.43,4.72-3.19h0c1.68-3.03,5.5-4.13,8.53-2.45l8.63,4.78c3.03,1.68,4.13,5.5,2.45,8.53l-18.58,33.52v.02s-18.59,33.52-18.59,33.52c-1.68,3.03-5.5,4.13-8.53,2.45l-8.63-4.78c-3.03-1.68-4.13-5.5-2.45-8.53h0c.97-1.76,1.05-3.87.2-5.69Z"/>
          <path d="M614.17,390.19l3,5.76c.93,1.78.95,3.9.05,5.69l-10.86,21.82-10.86,21.82c-.89,1.8-2.6,3.06-4.57,3.39l-6.4,1.08c-1.98.33-3.68,1.59-4.57,3.39h0c-1.54,3.1-5.31,4.37-8.41,2.82l-8.83-4.39c-3.1-1.54-4.37-5.31-2.82-8.41l17.08-34.31v-.02s17.09-34.31,17.09-34.31c1.54-3.1,5.31-4.37,8.41-2.82l8.83,4.39c3.1,1.54,4.37,5.31,2.82,8.41h0c-.89,1.8-.88,3.91.05,5.69Z"/>
          <path d="M298.06,390.19l-3,5.76c-.93,1.78-.95,3.9-.05,5.69l10.86,21.82,10.86,21.82c.89,1.8,2.6,3.06,4.57,3.39l6.4,1.08c1.98.33,3.68,1.59,4.57,3.39h0c1.54,3.1,5.31,4.37,8.41,2.82l8.83-4.39c3.1-1.54,4.37-5.31,2.82-8.41l-17.08-34.31v-.02s-17.09-34.31-17.09-34.31c-1.54-3.1-5.31-4.37-8.41-2.82l-8.83,4.39c-3.1,1.54-4.37,5.31-2.82,8.41h0c.89,1.8.88,3.91-.05,5.69Z"/>
        </g>
        <g id="Shell">
          <g id="Base">
            <path id="Shell-2" data-name="Shell" class="cls-6" d="M647.28,200.79c-.2-2.79-1.24-5.46-2.98-7.65l-39.04-49.16c-4.8-5.62-8.09-12.36-9.56-19.61-2.98-14.69-7.85-27.3-14.03-38.13l-1.55-12.97c-.13-1.05-.6-2.02-1.34-2.77l-5.24-5.28c-.74-.75-1.72-1.23-2.76-1.36l-6.63-.84c-27.15-27.69-64.02-37.28-87.29-40.55-2.32-.33-10.88-6.65-14.03-9.55-.76-.7-1.76-1.09-2.8-1.09h-7.83c-1.04,0-2.03.39-2.8,1.09-3.15,2.9-11.71,9.22-14.03,9.55-23.27,3.27-60.14,12.86-87.29,40.55l-6.63.84c-1.05.13-2.02.61-2.76,1.36l-5.24,5.28c-.74.75-1.22,1.72-1.34,2.77l-1.55,12.97c-6.17,10.83-11.05,23.43-14.02,38.13-1.47,7.24-4.76,13.99-9.56,19.61l-39.04,49.16c-1.74,2.19-2.78,4.86-2.98,7.65l-1.92,26.81,39.88,151.84s44.68,88.43,55.56,119.53c4.72,13.49,11.38,41.42,13.47,55.56,4.48,30.33,21.04,85.86,84.18,85.86s79.7-55.53,84.18-85.86c2.09-14.14,8.75-42.07,13.47-55.56,10.88-31.11,55.56-119.53,55.56-119.53l39.88-151.84-1.92-26.81ZM608.45,280.77l-35.75,102.46s-47.35,65.66-116.59,65.66-116.59-65.66-116.59-65.66l-35.75-102.46c-2.42-6.64,2.06-13.76,9.1-14.43,19.68-1.87,62.72-4.69,143.24-4.69s123.56,2.82,143.24,4.69c7.04.67,11.51,7.79,9.1,14.43Z"/>
            <g id="Lines">
              <path class="cls-3" d="M402.48,620.8l20.05-14.53c1.8-1.3,2.86-3.39,2.86-5.6v-98.99c0-1.48-.48-2.92-1.36-4.11l-47.6-64.4"/>
              <path class="cls-3" d="M509.75,620.8l-20.05-14.53c-1.8-1.3-2.86-3.39-2.86-5.6v-98.99c0-1.48.48-2.92,1.36-4.11l47.12-63.76"/>
              <path class="cls-3" d="M623.24,195.79l-78.4-12.83c-10.77-.81-16.9-12.69-11.33-21.94l38.53-77.82"/>
              <path class="cls-3" d="M289,195.79l78.39-12.83c10.77-.81,16.9-12.69,11.33-21.94l-39.22-76.4"/>
              <path class="cls-3" d="M446.7,28.39l-12.94,111.22c-.43,7.43-9.64,10.63-14.58,5.06l-69.96-71.02"/>
              <path class="cls-3" d="M465.54,28.52l12.93,111.09c.43,7.43,9.64,10.63,14.58,5.06l69.96-71.02"/>
            </g>
            <g id="Holes">
              <g>
                <path class="cls-8" d="M520.85,76.54c-2.79,0-5.88-1.39-8.5-3.82-2.7-2.49-4.38-5.67-4.5-8.5-.07-1.84.52-3.53,1.67-4.77,1.21-1.31,2.96-2.03,4.94-2.03,2.78,0,5.88,1.39,8.5,3.81,2.7,2.5,4.38,5.68,4.5,8.5.07,1.84-.52,3.53-1.67,4.77-1.21,1.31-2.96,2.03-4.94,2.03Z"/>
                <ellipse cx="516.63" cy="68.08" rx="4" ry="7.26" transform="translate(116 401.31) rotate(-47.26)"/>
              </g>
              <g>
                <path class="cls-8" d="M391.39,76.54c2.79,0,5.88-1.39,8.5-3.82,2.7-2.49,4.38-5.67,4.5-8.5.07-1.84-.52-3.53-1.67-4.77-1.21-1.31-2.96-2.03-4.94-2.03-2.78,0-5.88,1.39-8.5,3.81-2.7,2.5-4.38,5.68-4.5,8.5-.07,1.84.52,3.53,1.67,4.77,1.21,1.31,2.96,2.03,4.94,2.03Z"/>
                <ellipse cx="395.6" cy="68.08" rx="7.26" ry="4" transform="translate(58.85 286.57) rotate(-42.74)"/>
              </g>
              <g>
                <path class="cls-8" d="M320.23,162.04c2.08-.71,4.12-2.85,5.59-5.86,1.52-3.1,2.15-6.61,1.68-9.36-.31-1.79-1.09-3.28-2.18-4.19-1.16-.95-2.61-1.21-4.08-.7-2.07.71-4.11,2.85-5.59,5.86-1.52,3.11-2.15,6.61-1.67,9.37.31,1.79,1.09,3.28,2.18,4.19,1.16.95,2.61,1.21,4.08.7Z"/>
                <path d="M318.69,158.91c1.44,1.18,3.95-.6,5.61-3.98,1.66-3.38,1.84-7.08.4-8.27-1.44-1.18-3.95.6-5.61,3.98-1.66,3.38-1.84,7.08-.4,8.27Z"/>
              </g>
              <g>
                <path class="cls-8" d="M592.01,162.04c-2.08-.71-4.12-2.85-5.59-5.86-1.52-3.1-2.15-6.61-1.68-9.36.31-1.79,1.09-3.28,2.18-4.19,1.16-.95,2.61-1.21,4.08-.7,2.07.71,4.11,2.85,5.59,5.86,1.52,3.11,2.15,6.61,1.67,9.37-.31,1.79-1.09,3.28-2.18,4.19-1.16.95-2.61,1.21-4.08.7Z"/>
                <path d="M593.54,158.91c-1.44,1.18-3.95-.6-5.61-3.98-1.66-3.38-1.84-7.08-.4-8.27,1.44-1.18,3.95.6,5.61,3.98,1.66,3.38,1.84,7.08.4,8.27Z"/>
              </g>
              <g>
                <path class="cls-8" d="M525.18,514.63c-.83-4.07-.28-10.27,1.51-17.02,1.84-6.95,4.71-13.22,7.67-16.77,1.93-2.3,3.9-3.47,5.56-3.29,1.75.2,3.04,1.9,3.63,4.78.83,4.06.28,10.26-1.5,17.01-1.85,6.95-4.72,13.23-7.68,16.78-1.93,2.3-3.9,3.47-5.56,3.29-1.75-.2-3.04-1.9-3.63-4.78Z"/>
                <path d="M529.26,512.02c-2.17-.25-2.3-6.58-.29-14.15,2.01-7.57,5.39-13.5,7.55-13.26,2.17.25,2.3,6.58.29,14.15-2.01,7.57-5.39,13.5-7.55,13.26Z"/>
              </g>
              <g>
                <path class="cls-8" d="M387.06,514.63c.83-4.07.28-10.27-1.51-17.02-1.84-6.95-4.71-13.22-7.67-16.77-1.93-2.3-3.9-3.47-5.56-3.29-1.75.2-3.04,1.9-3.63,4.78-.83,4.06-.28,10.26,1.5,17.01,1.85,6.95,4.72,13.23,7.68,16.78,1.93,2.3,3.9,3.47,5.56,3.29,1.75-.2,3.04-1.9,3.63-4.78Z"/>
                <path d="M382.98,512.02c2.17-.25,2.3-6.58.29-14.15-2.01-7.57-5.39-13.5-7.55-13.26-2.17.25-2.3,6.58-.29,14.15,2.01,7.57,5.39,13.5,7.55,13.26Z"/>
              </g>
            </g>
            <g id="Logos">
              <g id="White">
                <polygon class="cls-13" points="431.35 190.13 441.41 171.41 436.75 171.41 426.7 190.13 431.35 190.13"/>
                <polygon class="cls-13" points="480.88 174.19 471.7 191.34 467.68 191.34 465.8 194.84 474.49 194.84 485.53 174.19 480.88 174.19"/>
                <polygon class="cls-13" points="478.08 169.48 473.42 169.48 467.51 180.41 441.95 180.41 434.15 194.84 438.81 194.84 444.73 183.91 470.28 183.91 470.28 183.91 478.08 169.48"/>
                <polygon class="cls-13" points="448.18 189.85 449 188.45 466.07 188.45 465.25 189.85 467.57 189.85 469.34 186.7 447.61 186.7 445.85 189.85 448.18 189.85"/>
                <polygon class="cls-13" points="463.91 174.23 463.09 175.63 446.02 175.63 446.84 174.23 444.52 174.23 442.75 177.38 464.48 177.38 466.24 174.23 463.91 174.23"/>
              </g>
            </g>
          </g>
        </g>
        <g id="Cage">
          <g>
            <path class="cls-5" d="M655.48,234.94c0-.27.04-.53,0-.78-.04-.24-.15-.46-.24-.68-.09-.23-.16-.46-.29-.67-.14-.21-.32-.37-.5-.56-.17-.17-.31-.36-.51-.5-.21-.15-.47-.23-.71-.34-.2-.09-.36-.22-.58-.28-.04-.01-.08,0-.13,0-.04,0-.07-.04-.11-.04-.32-.06-12.75-2.41-33.94-5.31-.58-.64-1.35-1.12-2.28-1.26-.96-.12-1.88.13-2.65.6-13.3-1.76-29.59-3.67-48.17-5.37-.13-.09-.21-.21-.35-.29-1.12-.61-2.4-.55-3.49-.05-30.3-2.68-66.36-4.76-105.42-4.76s-75.12,2.08-105.42,4.76c-1.09-.5-2.37-.55-3.49.05-.14.07-.22.2-.35.29-18.59,1.7-34.88,3.61-48.18,5.37-.77-.47-1.69-.72-2.64-.6-.93.14-1.7.63-2.28,1.26-21.19,2.9-33.61,5.25-33.94,5.31-.04,0-.07.04-.11.04-.04,0-.08,0-.13,0-.22.06-.38.19-.58.28-.24.11-.5.19-.71.34-.2.14-.35.33-.51.5-.18.18-.36.34-.5.56-.13.21-.2.44-.29.67-.09.23-.2.44-.24.68-.05.26-.01.52,0,.78,0,.21-.04.41,0,.62,0,.04.04.08.05.12,0,.04,0,.08,0,.11l35.31,131.43c.65,2.42,1.76,4.63,3.31,6.57,3.22,4.04,10.04,12.22,19.75,22.14l-.42,9.23c-.1,2.11,1.57,3.9,3.73,3.99.06,0,.12,0,.18,0,2.08,0,3.81-1.6,3.9-3.65l.1-2.16c12.7,12.19,29.02,25.89,47.95,37.55-.86,1.32-1.35,2.18-1.47,2.41-1.03,1.85-.32,4.17,1.57,5.17.6.31,1.23.46,1.86.46,1.39,0,2.73-.72,3.44-2,.11-.2.55-.96,1.28-2.08,23.31,13.28,50.15,23.02,78.83,23.02s55.53-9.74,78.83-23.02c.74,1.12,1.17,1.88,1.28,2.08.71,1.28,2.05,2,3.44,2,.63,0,1.26-.15,1.86-.46,1.89-1.01,2.6-3.32,1.57-5.17-.12-.23-.61-1.09-1.47-2.41,18.93-11.66,35.26-25.36,47.96-37.55l.1,2.17c.09,2.05,1.82,3.65,3.9,3.65.05,0,.11,0,.18,0,2.15-.09,3.83-1.87,3.73-3.99l-.42-9.23c9.7-9.91,16.52-18.09,19.74-22.13,1.55-1.96,2.67-4.17,3.31-6.57l35.3-131.43s0-.08,0-.11c.01-.04.04-.07.05-.12.04-.21,0-.41,0-.62ZM456.12,445.06c-19.78,0-39.24-9.65-56.44-22.51,12.8-8.78,31.23-16.57,56.44-16.57s43.65,7.79,56.45,16.57c-17.19,12.85-36.66,22.5-56.45,22.5ZM456.12,398.34c-28.39,0-48.81,9.21-62.76,19.29-30.86-25.22-59.59-66.08-67.89-76.04l.88-19.31c.07-.89.28-1.75.43-2.62,44.21,63.89,112.69,67.43,126.94,67.43,1.35,0,2.09-.03,2.4-.04.31.01,1.04.04,2.4.04,14.27,0,82.76-3.55,126.96-67.45.15.84.35,1.66.42,2.51l.89,19.43c-8.44,10.14-37.08,50.88-67.89,76.05-13.95-10.08-34.37-19.29-62.77-19.29ZM265.43,237.84c5.09-.89,14.8-2.49,28.18-4.34,5.59,32.01,15.37,57.4,27.52,77.46-1.39,3.43-2.29,7.05-2.59,10.85l-.49,10.65c-17.54-22.1-40.83-55.34-50.47-86.62l-2.15-8.01ZM347.26,227.36c4.38,7.25,15.23,23.32,25.3,23.32h167.11c10.07,0,20.92-16.07,25.3-23.32,17.59,1.61,33.06,3.41,45.88,5.09-5.05,28.85-13.49,52.08-23.95,70.74-12.93-19.37-34.17-46.39-50.61-47.66-18.63-1.45-57.05-2.54-80.18-2.54s-61.55,1.09-80.18,2.54c-16.42,1.27-37.65,28.29-50.59,47.7-10.47-18.66-18.92-41.9-23.97-70.78,12.82-1.68,28.29-3.48,45.88-5.09ZM456.12,222.27c36.85,0,71.02,1.86,100.13,4.33-5.69,8.66-12.69,16.44-16.58,16.44h-167.11c-3.88,0-10.89-7.78-16.58-16.44,29.11-2.46,63.28-4.33,100.13-4.33ZM456.36,379.41c-.09-.01-.15.03-.24.02-.09,0-.16-.03-.25-.02-4.12.27-80.45,3.65-126.06-68.62,9.87-19.07,31.33-46.45,46.73-47.64,18.46-1.43,56.62-2.51,79.57-2.51s61.11,1.08,79.57,2.51c15.41,1.19,36.91,28.59,46.76,47.61-45.61,72.33-121.98,68.93-126.08,68.65ZM593.69,321.68c-.3-3.77-1.2-7.35-2.57-10.76,12.14-20.06,21.92-45.44,27.5-77.43,13.38,1.85,23.09,3.45,28.19,4.34l-2.15,8c-9.62,31.21-32.85,64.39-50.47,86.61l-.49-10.77ZM301.58,369.09c-.9-1.13-1.54-2.38-1.92-3.81l-20.02-74.54c12.36,21.17,26.95,40.29,37.88,53.49l-1.87,41.02c-6.71-7.19-11.54-13-14.07-16.17ZM323.12,393l1.83-40.01c4.9,5.62,31.44,44.26,62.08,69.61-5.09,4.36-9.03,8.6-11.88,12.12-21.12-12.94-38.98-28.63-52.03-41.71ZM456.12,460.21c-26.86,0-52.13-9.05-74.23-21.52,2.73-3.29,6.47-7.21,11.29-11.22,18.72,14.27,40.41,25.23,62.93,25.23s44.23-10.97,62.94-25.22c4.83,4.01,8.56,7.92,11.29,11.21-22.09,12.47-47.37,21.52-74.23,21.52ZM537.09,434.71c-2.85-3.52-6.79-7.76-11.88-12.11,30.59-25.29,57.01-63.75,62.08-69.6l1.83,39.99c-13.05,13.09-30.91,28.78-52.03,41.72ZM612.57,365.28c-.38,1.42-1.02,2.67-1.92,3.81-2.53,3.17-7.35,8.98-14.06,16.16l-1.87-41.02c11-13.3,25.55-32.39,37.88-53.51l-20.02,74.55Z"/>
            <rect class="cls-5" x="450.72" y="212.45" width="10.8" height="257.59"/>
          </g>
          <g id="Screws">
            <g id="Bottom">
              <g>
                <path class="cls-9" d="M432.45,486.87h0c-6.51,0-11.79-5.28-11.79-11.79v-21.89s23.57,3.89,23.57,3.89v17.99c0,6.51-5.28,11.79-11.79,11.79Z"/>
                <circle class="cls-2" cx="432.45" cy="475.09" r="9.56"/>
                <polygon class="cls-15" points="436.45 474.12 433.42 474.12 433.42 471.09 431.49 471.09 431.49 474.12 428.45 474.12 428.45 476.05 431.49 476.05 431.49 479.08 433.42 479.08 433.42 476.05 436.45 476.05 436.45 474.12"/>
              </g>
              <g>
                <path class="cls-9" d="M479.78,486.87h0c6.51,0,11.79-5.28,11.79-11.79v-21.89s-23.57,3.89-23.57,3.89v17.99c0,6.51,5.28,11.79,11.79,11.79Z"/>
                <circle class="cls-2" cx="479.78" cy="475.09" r="9.56"/>
                <polygon class="cls-15" points="483.78 474.12 480.75 474.12 480.75 471.09 478.82 471.09 478.82 474.12 475.78 474.12 475.78 476.05 478.82 476.05 478.82 479.08 480.75 479.08 480.75 476.05 483.78 476.05 483.78 474.12"/>
              </g>
            </g>
          </g>
        </g>
      </g>
    </g>
  </g>
</svg>