<?xml version="1.0" encoding="UTF-8"?>
<svg id="Layer_2" xmlns="http://www.w3.org/2000/svg" viewBox="0 0 1123.16 974.62">
  <defs>
    <style>
      .cls-1 {
        fill: #003087;
      }

      .cls-2 {
        fill: #fdffff;
      }

      .cls-3 {
        fill: #fff;
      }

      .cls-4 {
        fill: #041c3f;
      }

      .cls-5 {
        fill: #bcbec0;
      }

      .cls-6 {
        fill: #a4a7a9;
      }
    </style>
  </defs>
  <g id="Logos">
    <g id="Logos-2" data-name="Logos">
      <g>
        <path class="cls-2" d="M1117.21,318.55c-5.94-22.12-25.25-61.43-87.83-76.22-17.79-4.2-38.5-6.33-61.56-6.33-8.29,0-16.77.28-25.31.82h0c-2.12-1.75-4.38-3.6-6.74-5.53l-.17-3.21c-.12-2.19-.26-4.38-.43-6.54-1.16-15.03-4.19-30.14-9-44.89l-12.26-37.56c-5.16-21.3,3.38-47.64,3.43-47.8L948.65,0l-88.75,52.82c-8.52,5.07-43.73,27.22-66.35,59.08l-32.46-23.26-3.53,47.56c-6.8-1.92-13.78-3.75-20.98-5.45-41.36-9.77-83.33-14.73-124.75-14.73-93.43,0-186.79,25-277.5,74.32l-70.64,38.4,111.75,147.19-9.2,10.62c-33.41-23.48-49.85-40.39-51.35-41.96l-7.9-8.83-11.09-5.03c-10.31-4.67-21.46-7.04-33.15-7.04-31.82,0-65.67,17.4-106.52,54.75-24.16,22.08-42.88,44.11-43.67,45.05l-1.22,1.44L0,583.35l132.09-54.29c9.75-4.01,51.83-16.12,72.81-21.18,4.05,3.24,9.77,8.12,17.11,14.6,3.98,3.51,8,7.06,12.08,10.55l-15.94,10.74,33.25,16.45c14.15,7,86.35,41.9,118.81,41.9,11.17,0,21.59-1.79,31.67-3.41,0,0,0,0,0,0-85.06,45.41-176.28,105.97-181.38,109.37l-48.68,32.41,203.52,24.27c51.01,6.08,98.69,26.84,137.9,60.02l70.71,59.85c45.89,38.83,101.7,63.04,161.4,70.01l171.17,19.98-22.19-37.43c-1.5-2.53-31.25-52.29-77.64-100.23,20.4-9.09,36.48-25.75,46.2-48.62l5.94-13.99-5.96-25.34,12.68-25.38c.89.06,1.78.08,2.67.08,16.06,0,30.69-8.83,38.18-23.04l11.49-21.81c1.37-2.59,1.97-5.52,1.74-8.44l-5.44-70.12c10.76-8.3,17.65-16.91,21.34-26.68l35.74-33.52,8.6-62.25c9.37-5.86,20.03-9.63,34.2-13.67,19.36-5.52,48.63-13.86,70.59-34.82,27.62-26.37,35.21-63.65,22.55-110.81Z"/>
        <path class="cls-4" d="M1096.41,324.14c-1.43-5.34-3.58-11.08-6.76-16.88-.4-.72-.81-1.45-1.24-2.18-.86-1.45-1.79-2.9-2.79-4.35-1-1.45-2.07-2.89-3.22-4.32-3.45-4.29-7.59-8.49-12.57-12.44-1.66-1.32-3.41-2.61-5.26-3.86-5.54-3.77-11.96-7.24-19.39-10.27-1.24-.5-2.5-1-3.8-1.47-5.18-1.91-10.82-3.62-16.96-5.07-5.93-1.4-12.02-2.49-18.14-3.33-2.04-.28-4.08-.53-6.12-.76-4.08-.45-8.16-.79-12.19-1.05-2.02-.13-4.02-.23-6.01-.32-17.91-.77-34.54.09-46.43,1.1-.18-.14-.37-.3-.55-.45-.87-.71-1.77-1.43-2.69-2.19-3.79-3.1-8.01-6.6-12.68-10.38,0,0,0,0,0,0l-.91-17.12c-.11-2.08-.25-4.17-.4-6.22-1.07-13.94-3.89-27.96-8.36-41.67l-8.28-25.36-.39.24c-1.47-4.77-2.64-8.9-3.29-11.18-7.36-25.97,3.1-57.5,3.19-57.78l17.39-50.71-49.3,29.35c-5.67,3.37-51.75,31.66-70.47,69.61l-22.96-16.45-2.69,36.21c-.21,2.83-.32,5.72-.38,8.62-3.22-1.08-6.49-2.14-9.81-3.17,0,0-.01,0-.02,0-3.11-.96-6.27-1.91-9.47-2.82-.25-.07-.5-.15-.75-.22-2.92-.83-5.88-1.64-8.87-2.43-.54-.14-1.06-.29-1.59-.43-3.4-.89-6.86-1.75-10.36-2.58-.09-.02-.17-.04-.25-.06-24.38-5.76-48.77-9.76-73.14-12-4.06-.37-8.12-.7-12.18-.97-28.42-1.93-56.82-1.48-85.14,1.37-12.14,1.22-24.27,2.88-36.38,4.97-8.07,1.4-16.14,2.99-24.2,4.77-4.03.89-8.06,1.83-12.08,2.82-8.05,1.98-16.1,4.15-24.13,6.52-4.02,1.18-8.03,2.42-12.05,3.7-8.03,2.56-16.04,5.32-24.05,8.27-4,1.48-8,3-12,4.57-23.99,9.43-47.87,20.61-71.64,33.53l-17.11,9.3-31.48,17.11h0s0,0,0,0l111.35,146.66-3.11,8.6-10.65-3.07-23.62,27.26c-47.71-31.33-69.91-54.84-70.95-55.96l-5.07-5.66-6.96-3.15c-7.49-3.4-15.65-5.12-24.25-5.12-26.11,0-55.34,15.6-91.98,49.1-23.18,21.2-41.01,42.18-41.76,43.06l-.59.7-68.36,97.26,63.84-26.24c13.17-5.41,70.2-21.5,85.65-24.33,6.51,3.67,19.93,15.53,26.71,21.52,11.7,10.34,23.02,20.34,34.87,27.72l-10.18,6.86s80.2,39.67,109.25,39.67c18.15,0,35.98-5.97,56.26-5.97,7.97,0,14.82-1.25,20.93-3.81,13.16-5.53-7.04-19.87,6.18-43.65l15.62-4.26c1.79-.45,4.23-1.06,7.21-1.79l20.99,59.48c-92.85,35.34-264.96,145.44-264.96,145.44l145.45,17.35c55.05,6.57,106.95,29.16,149.27,64.97l70.71,59.85c42.5,35.97,94.67,58.6,149.98,65.06l127.95,14.93s-42.89-72.36-105.44-125.21c2.55.21,5.07.36,7.55.36,30.12,0,53.27-15.42,65.16-43.41l3.18-7.49-7.73-32.85,5.46-.93,20.09-40.22,6.83,2.47c10.14,3.66,21.42-.71,26.44-10.25l8.59-16.3c1.37-2.59,1.97-5.52,1.74-8.44l-5.91-76.28c17.96-11.1,23.18-19.92,24.83-27.75l34.39-32.26,7.33-53.05-3.1-6.97h0c4.81-4.32,9.7-7.89,14.8-10.95.04-.02.07-.04.11-.06.97-.58,1.94-1.14,2.92-1.68.07-.04.14-.08.2-.11.97-.54,1.96-1.05,2.95-1.56.05-.03.11-.05.16-.08,4.18-2.11,8.51-3.96,13.08-5.66.18-.07.37-.13.55-.2.92-.34,1.84-.67,2.78-1,.29-.1.59-.2.88-.3.84-.29,1.68-.57,2.53-.85.35-.12.71-.23,1.06-.35.81-.26,1.64-.52,2.47-.78.38-.12.76-.24,1.14-.36.86-.26,1.73-.53,2.61-.79.35-.1.69-.21,1.03-.31,1.22-.36,2.45-.72,3.7-1.07,11.19-3.19,25.38-7.23,38.88-14.04,5.4-2.72,10.68-5.89,15.62-9.62,1.23-.93,2.45-1.9,3.63-2.9,2.37-2.01,4.64-4.17,6.78-6.49,1.07-1.16,2.11-2.36,3.11-3.61,1.39-1.73,2.68-3.57,3.92-5.48,1.12-1.72,2.18-3.52,3.16-5.39,3.39-6.46,5.93-13.79,7.25-22.22,2.13-13.56,1.18-29.87-4.12-49.59Z"/>
        <g>
          <path class="cls-2" d="M792.32,161.54c-.29,4.39-.41,8.62-.4,12.7,5.4,3.25,10.84,6.57,16.31,9.98-.69-2.67-4.02-13.17-15.91-22.68Z"/>
          <path class="cls-2" d="M810.38,176.54c6.37,3.55,12.79,7.21,19.25,10.95.69-3.09,1.61-6.34,2.82-9.78.85-18.89,23.08-51.22,23.08-51.22,0,0-7.09,25.88-8.28,36.54-.93,8.39-2.04,20.18-2.84,33.16,17.46,10.44,35.21,21.59,53.17,33.5-.1-1.94-.23-3.89-.38-5.82-.98-12.77-3.56-25.38-7.56-37.65l-22.66,14.23,17.38-28.95c-2.99-8.58-5.51-17.39-6.88-22.24-8.98-31.7,3.48-68.02,3.48-68.02,0,0-54.31,32.33-66.51,70.48l-4.07,24.8Z"/>
        </g>
        <path class="cls-1" d="M985.98,387.44s-256.96-286.61-592.91-104.9l-29.98-37.86c325.16-176.8,556.43,51.54,560.9,55.69l.04.07s36.94,35.53,61.95,87Z"/>
        <path class="cls-1" d="M1040.04,393.81c18.94-77.33-31.58-92.7-35.86-93.89,25.88,3.84,49.41,13.31,55.03,34.27,9.5,35.45.18,50.27-19.16,59.62Z"/>
        <path class="cls-6" d="M901.54,554.03c-44.25-37.27-108.74-52.09-131.91-56.41-7.23,11.63-21.67,33.15-41.44,54.45,2.37,2.89,17.03,20.3,33.57,30.16-20.8,32.32-13.14,69.74-13.14,69.74,0,0-20.8-18.71-13.14-57.83-9.39-5.07-18.47-15.5-22.48-20.48-.23.31-.47.64-.7.93-11.81,15.44-56.51,39.34-82.16,52.24,17.28,23.43,29.51,53.38,33.38,75.41,4.32,24.59,5.44,45.09,4.81,61.92l44.62-14.39c-22.01-39.87-48.81-56.7-40.01-88.07,9.85-35.15,46.53-38.55,46.53-38.55,0,0-21.17,15.94-22.99,41.39-2.12,29.61,22.91,40.14,64.33,131.81,18.38,4.32,46.24,4.74,59.37-26.16l-11.93-50.69,19.12-3.25,3.27-6.54-45.27-21.99-31.49,6.75,46.33-35.92-4.39,16.87,41.54,20.84,3.44-6.88.81-9.43-17.29-14.87,5.44-5.47,13.2,4.76,33.72,12.17,6.01-11.4-6.94-89.53s32.24-16.15,25.81-21.57ZM854.7,589.35s-2.82-3.32-7.26-8.26c-.05.1-3.9,5.67-6.58,7.29l-2.21,28.4-8.16-26.1c-3.28-.07-14.86-.66-20.31-5.63-4.49-4.09-5.77-8.53-7.88-15.87-1.03-3.61-2.02-8.85-3.04-16.07-.57-4.02.63-8.15,3.28-11.32.41-.49.85-.93,1.3-1.35-2.06-1.25-5.65-7.19-7.37-7.78-7.46-2.54-29.24,3.91-29.24,3.91l2.2-5.49c1.21-2.26,3.02-4.03,5.18-5.06l19.43-6.92c3.02-1.44,6.54-1.14,9.28.81,8.77,6.24,27.64,24.71,49.46,45.12,6.2,2.25,26.06,0,26.06,0l-24.15,24.33Z"/>
        <g>
          <path class="cls-3" d="M606.91,572.22c-5.8-1.55-9.66-8-8.81-14.84.73-5.92,2.76-11.88,5.28-17.36,6.65-14.48,17.08-26.14,29.49-34.01,10.7-6.79,24.39-13.72,29.55-8.76,10.03,9.64,0,27.78,0,27.78,0,0-5.61-19.28-33.95,4.54-4.89,4.11-11.78,19.12-9.66,25.68,3.8,11.74,68.79-21.71,68.79-55.16,0-12.48-4.46-25.47-17.9-34.63-4.42-.1-8.88-.17-13.42-.17-26.4,0-101.75,16.43-149.83,27.58,2.19,14.46,13.05,23.67,13.05,23.67,0,0,4.89-27.71,24.43-27.71-21.01,39.62,4.89,58.33,4.89,58.33,0,0,3.42-27.79,23.94-31.19,0,0-28.34,62.37,23.94,75.98,89.86,23.39,165.65-112.26,165.65-112.26-25.1,30.75-100.62,107.16-155.45,92.56Z"/>
          <path class="cls-6" d="M478.85,425.61c43.24-19.19,117.4-39.38,184.89-31.36,183.87,21.85,264.96,83.52,264.96,83.52l1.98,4.46-3.94,28.53-9.35,8.77s-87.06-71.37-261.1-71.43c-42.42-.01-131.24,24.16-131.24,24.16,43.68-29.82,87.25-40.31,113.27-44,1.47-.21,1.39-2.71-.08-2.7-37.3.27-111.11,6.2-174.16,44.12h0c-7.2-7.96,9.17-41.58,14.76-44.07Z"/>
          <polygon class="cls-6" points="441.68 422.16 450.04 434.39 444.77 455.42 444.92 471.42 410.16 466.26 395.08 442.73 405.63 430.56 419.16 434.46 422.9 447.04 429.13 429.85 432.41 420.79 441.68 422.16"/>
          <path class="cls-6" d="M403.33,489.98l-56.02,37.77s42.01,12.75,53.24,8.03c10.93-4.59,28.86-41.93,28.86-41.93l-31.53,21.97,5.45-25.83Z"/>
          <path class="cls-6" d="M371.91,460.59c-69.82-42.44-99.53-75.63-99.53-75.63-36.46-16.53-115.95,77.34-115.95,77.34,0,0,43.7-17.96,58.3-15.4,25.83,4.52,63.45,55.62,89.15,60.9,21.88,4.49,86.35-30.07,86.35-30.07,0,0-58.22,11.28-76.4,5.16-17.43-5.86-58.25-49.17-58.25-49.17,0,0,30.62,21.88,66.95,33.28-22.23-19.22-28.43-33.92-28.43-33.92,25.77,24.54,44.2,28.6,44.2,28.6,3.73,2.41,32.31,4.95,33.6-1.09Z"/>
        </g>
        <line class="cls-4" x1="968.31" y1="476.55" x2="960.97" y2="529.6"/>
        <path class="cls-1" d="M781.66,889.53s-69.59-11.79-98.17-27.9c-38.87-21.9-51.96-59.97-50.88-69.81,1.87-17.06,1.76-40.28-3.58-70.68-4.29-24.41-21.75-64.07-45.96-84.48-38.55,5.67-64.25-35.72-64.25-35.72,0,0,11.52,31.73,17.61,78.68-112-41.24-189.42,21.05-189.42,21.05,0,0,164.47-8.58,246.42,81.72,6.55,12.11,31.73,71.13,79.32,89,55.11,20.69,123.56,32.85,123.56,32.85l-14.65-14.71Z"/>
        <path class="cls-3" d="M822.19,557.4c4.38,2.17,9.08,5.26,13.64,13.57.7,1.28-.53,3.3-2.09,3.41-2.88.21-8.5-.98-9.55-1.94-1.11-1.02-1.52-2-2.89-6.28-.63-1.98,0-3.78-.63-7.35-.15-.85.82-1.75,1.52-1.41Z"/>
        <g>
          <path class="cls-5" d="M868.38,415.65l-2.95.7-1.66-4.2-8.81-7.22-.72-.19c-.16.04-.27.09-.27.09l-3.81,1.35-1.27-3.83-.36-1.04-5.61-2.09.81-3.46c.05-.24.13-1.2-.21-1.96l-.33-.78c-.08-.19-.14-.36-.22-.51-.04-.04-.1-.08-.14-.1l-3.06.37-.79-2.8-2.37-.98,18.13-47.4,1.65-3.95,17.02,6.31,19.96,11.8,4.35,3.6,4.29-2.02.64,2.09c.81-.22,1.54-.36,2.1-.47.23-.04.44-.08.6-.12.49-.12,1.99-.48,7-.48,1.07,0,1.83.02,1.83.02l5.53.13-8.04,23.08-.45.55c-.19.23-.66.81-1.99,1.63.07.73.02,1.52-.17,2.32-.64,2.63-3.82,7.14-5.16,8.96l-.32.44-.43.34s-1,.78-1.41,1.21c-.03.07-.51.99-.86,1.75l-.56,1.2-1.16.63s-2.49,1.35-3.18,1.68c-1.04.49-3.78,1.58-3.78,1.58l-5.78,2.31.05-1.11-.56.37-.28-.18-1.43,4.49-9.21,3.22.13-.7-.26.79s-2,.66-2.08.69c-.18.21-2.23,2.82-2.23,2.82l-2.17-.9Z"/>
          <path class="cls-2" d="M858.61,342.77l13.06,4.84,19.38,11.46,6.08,5.02,2.39-1.13s.56,1.84,2.65.89c1.58-.71,3.25-.89,4.14-1.11,2.01-.49,7.79-.35,7.79-.35l-5.98,17.19c-.5.62-2.69,1.64-2.69,1.64l-.64,1.53s.71,1.01.38,2.36c-.52,2.13-4.49,7.53-4.49,7.53,0,0-1.54,1.22-1.97,1.74-.49.61-1.46,2.67-1.46,2.67,0,0-2.31,1.26-2.96,1.56-.98.46-3.57,1.49-3.57,1.49,0,0,.03-.82-2.23-.75-.78.02-2.6,1.24-2.6,1.24l-2.13-1.4-.36,1.01-1.51,3.52-.91,2.85-.71.25s.49-2.57.48-2.86c-.02-.55-.59-2.12-.59-2.12l-5.06,2.89s-1.13.5-1.41.8c-.91.96-2.01,4.3-2.01,4.3,0,0-.96.32-1.27.54-.33.24-1.13,1.27-1.13,1.27l-.55-.23-.82.2-.76-1.92-10.31-8.44-2.31-.6c-.44-.11-1.84.35-1.84.35l-.99-2.82-4.05-1.51s.54-2.29-.46-4.52c-.37-.84-.57-1.51-.98-2.02-1.61-2-3.51-1.77-3.51-1.77l-.38-1.37-.55-.23,16.74-43.74.11-.27Z"/>
        </g>
      </g>
    </g>
  </g>
</svg>