<?xml version="1.0" encoding="UTF-8"?>
<svg id="Layer_2" data-name="Layer 2" xmlns="http://www.w3.org/2000/svg" xmlns:xlink="http://www.w3.org/1999/xlink" viewBox="0 0 912.17 929.99">
  <defs>
    <style>
      .cls-1 {
        stroke: #ff0;
        stroke-width: .41px;
      }

      .cls-1, .cls-2, .cls-3, .cls-4, .cls-5, .cls-6, .cls-7, .cls-8, .cls-9, .cls-10, .cls-11 {
        stroke-miterlimit: 10;
      }

      .cls-1, .cls-2, .cls-12, .cls-5, .cls-6, .cls-8 {
        fill: none;
      }

      .cls-2 {
        stroke-width: 4.06px;
      }

      .cls-2, .cls-3, .cls-4, .cls-5, .cls-6, .cls-7, .cls-8, .cls-9, .cls-10, .cls-11 {
        stroke: #000;
      }

      .cls-3, .cls-4, .cls-5, .cls-9, .cls-10 {
        stroke-width: 12.17px;
      }

      .cls-3, .cls-13 {
        fill: #00a5f7;
      }

      .cls-4, .cls-7, .cls-11 {
        fill: #003087;
      }

      .cls-6 {
        stroke-width: 5.76px;
      }

      .cls-7, .cls-8 {
        stroke-width: 7.68px;
      }

      .cls-9 {
        fill: #e6e6e6;
      }

      .cls-10 {
        fill: #fff;
      }

      .cls-14 {
        clip-path: url(#clippath);
      }

      .cls-11 {
        stroke-width: 10.14px;
      }
    </style>
    <clipPath id="clippath">
      <path class="cls-5" d="M637.68,529.24c32.92,11.3,91.77,43.28,136.87,69.05,42.59,24.33,76.84,60.93,98.39,104.99,16.86,34.47,33.15,195.06,33.15,216.53l-900,4.06c0-21.47,16.3-186.12,33.15-220.59,21.55-44.06,55.8-80.66,98.39-104.99,45.1-25.77,103.95-57.75,136.87-69.05l19.71,11.26,54.3,98.54,107.59,87.28,121.07-99.95,42.23-97.13h18.3Z"/>
    </clipPath>
  </defs>
  <g id="Layer_2-2" data-name="Layer 2">
    <g id="OBHS">
      <g>
        <path class="cls-3" d="M637.68,529.24c32.92,11.3,91.77,43.28,136.87,69.05,42.59,24.33,76.84,60.93,98.39,104.99,16.86,34.47,33.15,195.06,33.15,216.53l-900,4.06c0-21.47,16.3-186.12,33.15-220.59,21.55-44.06,55.8-80.66,98.39-104.99,45.1-25.77,103.95-57.75,136.87-69.05l19.71,11.26,54.3,98.54,107.59,87.28,121.07-99.95,42.23-97.13h18.3Z"/>
        <g>
          <g class="cls-14">
            <path class="cls-13" d="M788.82,782.76c-4.09,0-7.96-.35-11.5-1.05-30.08-5.89-65.64-12.88-103.3-23.45-58.93-16.54-125.67-33.29-179.7-38.02h-76.47c-54.03,4.73-120.77,21.47-179.7,38.02-37.65,10.57-73.22,17.56-103.3,23.45-3.54.7-7.41,1.05-11.5,1.05-43,0-121.3-42.26-130.09-47.08l-22.12-12.13,99.93-147.94,221.33-126.27h327.37l221.33,126.27,99.93,147.94-22.12,12.13c-8.79,4.82-87.09,47.08-130.09,47.08Z"/>
          </g>
          <path class="cls-5" d="M637.68,529.24c32.92,11.3,91.77,43.28,136.87,69.05,42.59,24.33,76.84,60.93,98.39,104.99,16.86,34.47,33.15,195.06,33.15,216.53l-900,4.06c0-21.47,16.3-186.12,33.15-220.59,21.55-44.06,55.8-80.66,98.39-104.99,45.1-25.77,103.95-57.75,136.87-69.05l19.71,11.26,54.3,98.54,107.59,87.28,121.07-99.95,42.23-97.13h18.3Z"/>
        </g>
        <g>
          <path class="cls-5" d="M843.95,657.59c-21.77,0-109.27,200.15-109.27,263.04"/>
          <path class="cls-5" d="M495.3,727.24c110.95,9.41,160.22,41.32,274.28,54.3"/>
          <path class="cls-5" d="M68.23,657.59c21.77,0,109.27,200.15,109.27,263.04"/>
          <path class="cls-5" d="M416.88,727.24c-110.95,9.41-160.22,41.32-274.28,54.3"/>
        </g>
        <polygon class="cls-10" points="356.14 620.74 456.09 714.35 556.04 620.74 356.14 620.74"/>
        <path class="cls-10" d="M520.55,708.59c-35.63,28.35-64.46,42.13-64.46,42.13,0,0-28.84-13.79-64.47-42.13l30.88-38.72c19.39,15.74,33.58,25.48,33.58,25.48,0,0,14.2-9.74,33.58-25.48l30.88,38.72Z"/>
        <path class="cls-1" d="M335.02,487.25h0"/>
        <path class="cls-1" d="M577.16,487.25h0"/>
        <path class="cls-10" d="M562.89,479.69l10.2,6.94c4.22,2.87,7.8,6.6,10.5,10.93l22.66,36.37-29.09,60.06-21.12,26.75s-43.35,23.7-99.95,23.7c-56.6,0-99.95-23.7-99.95-23.7l-21.12-26.75-29.09-60.06,22.66-36.37c2.7-4.34,6.28-8.06,10.5-10.93l10.2-6.94"/>
        <path class="cls-4" d="M422.5,669.87l-30.88,38.72c-33.51-26.66-73.04-66.21-100.24-119.29-16.89-32.97-16.89-60.06-16.89-60.06,35.96-33.17,60.15-41.86,60.53-41.99-.31.48-21.79,33.31-18.52,49.17,10.07,48.72,68.01,102.6,106,133.45Z"/>
        <path class="cls-4" d="M637.68,529.24s0,27.1-16.89,60.06c-27.2,53.08-66.72,92.62-100.24,119.29l-30.88-38.72c37.99-30.84,95.93-84.73,106-133.45,3.28-15.86-18.2-48.69-18.51-49.17.38.13,24.56,8.82,60.53,41.99Z"/>
        <path class="cls-9" d="M559.46,438.43l4.22,48.82c13.47,14.54,13.48,32.61,13.48,32.61,0,0,12.2,89.62-121.06,89.62-133.26,0-121.06-89.62-121.06-89.62,0,0,0-18.07,13.48-32.61l4.22-48.82"/>
        <path class="cls-9" d="M456.08,503.89c56.86,0,101.86-56.86,101.86-56.86,0,0,16.76-11.11,22.09-46.2,6.28-41.34,27.36-123.48,25.77-165.26-1.1-28.97-6.01-92.49-26.66-112.84-22.81-22.48-99.96-35.54-123.06-35.54-23.1,0-100.25,13.06-123.06,35.54-20.65,20.35-25.55,83.88-26.66,112.84-1.59,41.78,19.49,123.92,25.77,165.26,5.33,35.1,22.09,46.2,22.09,46.2,0,0,45,56.86,101.86,56.86Z"/>
      </g>
      <g>
        <path class="cls-11" d="M406.11,11.34c-.47,1.18-1.63,2.24-3.91,3.07-.11.05-.25.1-.36.13-1.69.48-3.51.11-5.35-.78-.21-.1-.4-.21-.61-.32-.19-.08-.36-.19-.55-.3-.19-.11-.38-.22-.57-.35-.19-.11-.36-.24-.55-.37-.17-.11-.32-.22-.49-.35-.21-.14-.42-.3-.61-.46-.19-.14-.38-.29-.55-.43-.36-.29-.72-.59-1.08-.91v-.03c-.7-.62-3.05-.72-6.41-.45-14.92,1.25-49.85,18.79-49.85,18.79-1.97-2.26-6.05-1.95-7.53.54l-20.23,30.12c-1.67,2.82-12.61,31.85-13.35,32.54,0,0-3.84,3.84-3.84,3.86.13.16.87,1.15.97,1.65.8,4.43-4.36,4.56-4.97,4.56,0,0-7.04,18.16-5.18,18.16h1.78s2.55,51.7,2.43,53l-.53,32,3.96,3c-.31,3.72.18,32.58,1.44,36.11,2.59,7.24,11.87,43.45,15.12,53.19,1.45,4.32,4.53,17.45,5.12,17.04l.19-.14c1.76-1.25,2.77-3.07,2.73-4.99l-8.23-67.75c.13-3.62,5.7-15.19,20.51-15.19,0,0,62.53-2.8,129.4-2.8h.31s0,0,0,0h.31s.08,0,.08,0h-1.31s.08,0,.08,0h.62-.15s.08,0,.08,0h.23s0,0,0,0h.08s0,0,0,0h.31s-1.31,0-1.31,0h.08s.23,0,.23,0h.08s0,0,0,0h.23s.08,0,.08,0h1.08s.08,0,.08,0h.23s0,0,0,0h.31s.08,0,.08,0h-1.31s.08,0,.08,0h.62-.15s.08,0,.08,0h.23s0,0,0,0h.08s0,0,0,0h.31s-1.31,0-1.31,0h.08s.23,0,.23,0h.08s0,0,0,0h.23s.08,0,.08,0c66.87,0,129.4,2.8,129.4,2.8,14.81,0,20.38,11.58,20.51,15.19l-8.23,67.75c-.04,1.92.97,3.75,2.73,4.99l.19.14c.58.42,3.67-12.71,5.12-17.04,3.26-9.73,12.54-45.95,15.12-53.19,1.26-3.53,1.75-32.39,1.44-36.11l3.96-3-.53-32c-.11-1.3,2.43-53,2.43-53h1.78c1.86,0-5.18-18.16-5.18-18.16-.61,0-5.76-.13-4.97-4.56.09-.5.83-1.49.97-1.65,0-.02-3.84-3.86-3.84-3.86-.74-.69-11.68-29.72-13.35-32.54l-20.23-30.12c-1.48-2.5-5.56-2.8-7.53-.54,0,0-34.93-17.54-49.85-18.79-3.36-.27-5.71-.18-6.41.45v.03c-.36.32-.72.62-1.08.91-.17.14-.36.29-.55.43-.19.16-.4.32-.61.46-.17.13-.32.24-.49.35-.19.13-.36.26-.55.37-.19.13-.38.24-.57.35-.19.11-.36.22-.55.3-.21.11-.4.22-.61.32-1.84.9-3.66,1.26-5.35.78-.11-.03-.25-.08-.36-.13-2.28-.83-3.43-1.89-3.91-3.07-.17-.43-32.97-6.27-49.46-6.27-15.4,0-49.29,5.84-49.46,6.27Z"/>
        <path class="cls-7" d="M401.75,212.79c-1.84,0-11.22,12.26-11.22,12.26h-20.65l-18.41-14.83s-66.36-5.07-66.68-5.23c-.12-.05-5.9-6.31-5.9-6.31l-3.43-17.63c.09-.86,7.73.64,8.23-.13.18-.29-1.84-53.92-1.84-53.92-1.86,0-5.62-1.15-5.62-2.58l3.15-19.53c0-1.5,1.59-2.72,3.55-2.72l76.91,3.84c5.92,0,59.07,30.65,61.29,31.17l3.4.41h62.11s3.4-.41,3.4-.41c2.22-.52,55.37-31.17,61.29-31.17l76.91-3.84c1.96,0,3.55,1.22,3.55,2.72l3.15,19.53c0,1.43-3.76,2.58-5.62,2.58,0,0-2.02,53.63-1.84,53.92.5.77,8.14-.73,8.23.13l-3.43,17.63s-5.78,6.27-5.9,6.31c-.33.16-66.68,5.23-66.68,5.23l-18.41,14.83h-20.65s-9.37-12.26-11.22-12.26h-107.65Z"/>
        <g id="Logos">
          <g id="White">
            <polygon class="cls-13" points="433.91 166.11 442.87 149.43 438.72 149.43 429.76 166.11 433.91 166.11"/>
            <polygon class="cls-13" points="478.04 151.91 469.86 167.19 466.28 167.19 464.6 170.3 472.35 170.3 482.19 151.91 478.04 151.91"/>
            <polygon class="cls-13" points="475.54 147.71 471.4 147.71 466.13 157.45 443.36 157.45 436.4 170.3 440.55 170.3 445.83 160.57 468.59 160.57 468.59 160.57 475.54 147.71"/>
            <polygon class="cls-13" points="448.9 165.86 449.63 164.61 464.84 164.61 464.11 165.86 466.18 165.86 467.75 163.06 448.4 163.06 446.83 165.86 448.9 165.86"/>
            <polygon class="cls-13" points="462.92 151.95 462.19 153.2 446.98 153.2 447.71 151.95 445.64 151.95 444.07 154.75 463.43 154.75 465 151.95 462.92 151.95"/>
          </g>
        </g>
        <path d="M456.12,57.71h15.95c4.02,0,7.75-1.24,9.83-3.29,7.48-7.34,32.03-31.2,36.75-43.26,0,0-7.62,1.19-9.1,3.49-7.89,12.28-32.89,36.49-32.89,36.49-.8.71-2.24.65-3.18.49l-14.83-4.01c-.8-.25-1.65-.38-2.49-.38h-.31c-.84,0-1.69.13-2.49.38l-14.83,4.01c-.94.16-2.38.22-3.18-.49,0,0-24.85-24.19-32.66-36.44-1.46-2.28-9.07-3.45-9.07-3.45,4.72,12.06,29,35.83,36.48,43.17,2.09,2.05,5.81,3.29,9.83,3.29h15.95"/>
        <path d="M440.17,57.71h31.89s-.96-2.12-.96-2.12c-.16-.27-11.47-3.28-14.22-3.88-.41-.09-.82-.09-1.23,0-2.78.6-14.38,3.54-14.52,3.88l-.96,2.12Z"/>
        <path class="cls-12" d="M580.33,27.1s2.12.22,3.18,2.01l-63.23,43.19c9.86-18.35,40.47-41.03,45.74-46.21.43-.42,1.07-.61,1.71-.53l12.6,1.55Z"/>
        <path class="cls-12" d="M331.96,27.1s-2.12.22-3.18,2.01l63.23,43.19c-9.86-18.35-40.47-41.03-45.74-46.21-.43-.42-1.07-.61-1.71-.53l-12.6,1.55Z"/>
        <path d="M485.87,110.57l-5.22,4.4c-.48.35-1.07.54-1.68.54h-46c-.6,0-1.2-.19-1.68-.55l-5.22-4.4h-16.19l15.38,11.88c2.2,1.62,4.93,2.51,7.7,2.51h46c2.77,0,5.51-.89,7.7-2.5l15.38-11.88h-16.19Z"/>
        <polygon points="421.62 192.01 416.24 192.01 416.24 186.87 413.01 186.87 413.01 192.01 407.63 192.01 407.63 195.09 413.01 195.09 413.01 200.23 416.24 200.23 416.24 195.09 421.62 195.09 421.62 192.01"/>
        <polygon points="504.25 192.01 498.87 192.01 498.87 186.87 495.65 186.87 495.65 192.01 490.27 192.01 490.27 195.09 495.65 195.09 495.65 200.23 498.87 200.23 498.87 195.09 504.25 195.09 504.25 192.01"/>
        <path d="M523.99,198.88l-13.68-21.9h-25.27l-5.89,9.89h-45.94l-5.89-9.89h-25.27l-13.68,21.9-4.7-2.68,15.27-24.45h31.57l5.89,9.89h39.57l5.89-9.89h31.57l15.27,24.45-4.7,2.68Z"/>
        <g>
          <polyline class="cls-8" points="336.32 28.56 379.49 76.6 390.12 98.75"/>
          <polyline class="cls-8" points="574.52 28.56 531.35 76.6 520.72 98.75"/>
          <path class="cls-8" d="M375.83,23.78l54.07,57.91c1.45,1.55,3.48,2.43,5.6,2.43h42.61c2.12,0,4.15-.88,5.6-2.43l54.07-57.91"/>
        </g>
        <line class="cls-8" x1="303.41" y1="59.22" x2="318.47" y2="70.2"/>
        <line class="cls-8" x1="607.74" y1="59.22" x2="592.68" y2="70.2"/>
        <polyline class="cls-6" points="281.84 125.84 368.03 130.14 377.06 136.6"/>
        <polyline class="cls-6" points="275.45 182.2 363.51 186.47 368.03 194.7 360.4 204.54"/>
        <polyline class="cls-6" points="631.16 125.84 544.97 130.14 535.93 136.6"/>
        <polyline class="cls-6" points="637.55 182.2 549.49 186.47 544.97 194.7 552.6 204.54"/>
        <polygon points="360.65 173.11 283.1 170.52 283.51 159.01 354.19 161.35 360.65 173.11"/>
        <polygon points="350 153.72 283.07 151.09 283.55 139.58 343.52 141.91 350 153.72"/>
        <polygon points="378.56 171.75 366.28 142.8 354.51 142.34 371.4 173.11 371.8 181.69 378.56 171.75"/>
        <polygon points="552.82 173.11 630.36 170.52 629.96 159.01 559.28 161.35 552.82 173.11"/>
        <polygon points="563.47 153.72 630.4 151.09 629.92 139.58 569.95 141.91 563.47 153.72"/>
        <polygon points="534.91 171.75 547.18 142.8 558.96 142.34 542.06 173.11 541.66 181.69 534.91 171.75"/>
        <g>
          <path class="cls-2" d="M402.57,193.55c0,6.65,5.39,12.05,12.05,12.05s12.05-5.39,12.05-12.05"/>
          <path class="cls-2" d="M509.31,193.55c0,6.65-5.39,12.05-12.05,12.05-6.65,0-12.05-5.39-12.05-12.05"/>
        </g>
      </g>
    </g>
  </g>
</svg>