<?xml version="1.0" encoding="UTF-8"?>
<svg id="Layer_2" data-name="Layer 2" xmlns="http://www.w3.org/2000/svg" viewBox="0 0 2248.41 2292.33">
  <defs>
    <style>
      .cls-1 {
        fill: #e6e6e6;
      }

      .cls-1, .cls-2, .cls-3, .cls-4, .cls-5, .cls-6, .cls-7, .cls-8, .cls-9, .cls-10, .cls-11 {
        stroke-miterlimit: 10;
      }

      .cls-1, .cls-3, .cls-4, .cls-5, .cls-6, .cls-7, .cls-8, .cls-9, .cls-10, .cls-11 {
        stroke: #000;
      }

      .cls-1, .cls-3, .cls-4, .cls-7, .cls-10 {
        stroke-width: 30px;
      }

      .cls-12, .cls-10 {
        fill: #fff;
      }

      .cls-2 {
        stroke: #ff0;
      }

      .cls-2, .cls-13, .cls-6, .cls-7, .cls-8, .cls-9 {
        fill: none;
      }

      .cls-3, .cls-5, .cls-11 {
        fill: red;
      }

      .cls-4 {
        fill: #1a1a1a;
      }

      .cls-5 {
        stroke-width: 25px;
      }

      .cls-6 {
        stroke-width: 10px;
      }

      .cls-8 {
        stroke-width: 14.2px;
      }

      .cls-9, .cls-11 {
        stroke-width: 18.94px;
      }
    </style>
  </defs>
  <g id="Layer_1-2" data-name="Layer 1">
    <g id="ST.C">
      <g>
        <path class="cls-4" d="M1571.82,1304.53c81.15,27.86,226.2,106.69,337.37,170.21,104.97,59.97,189.4,150.19,242.51,258.8,41.55,84.97,81.71,480.8,81.71,533.73l-2218.41,10c0-52.93,40.17-458.76,81.72-543.73,53.11-108.61,137.53-198.83,242.51-258.8,111.17-63.52,256.22-142.35,337.36-170.21l48.58,27.76,133.84,242.89,265.2,215.13,298.42-246.36,104.09-239.42h45.11Z"/>
        <g>
          <path class="cls-7" d="M2080.24,1620.91c-53.67,0-269.35,493.35-269.35,648.36"/>
          <path class="cls-7" d="M1220.86,1792.57c273.48,23.19,394.92,101.84,676.07,133.84"/>
          <path class="cls-7" d="M168.18,1620.91c53.67,0,269.35,493.35,269.35,648.36"/>
          <path class="cls-7" d="M1027.56,1792.57c-273.48,23.19-394.92,101.84-676.07,133.84"/>
        </g>
        <polygon class="cls-10" points="877.85 1530.07 1124.21 1760.81 1370.57 1530.07 877.85 1530.07"/>
        <path class="cls-10" d="M1283.1,1746.61c-87.82,69.88-158.89,103.85-158.89,103.85,0,0-71.08-33.98-158.9-103.85l76.12-95.45c47.79,38.8,82.78,62.81,82.78,62.81,0,0,34.99-24.01,82.77-62.81l76.12,95.45Z"/>
        <path class="cls-2" d="M825.8,1201.02h0"/>
        <path class="cls-2" d="M1422.63,1201.03h-.01"/>
        <path class="cls-10" d="M1387.46,1182.39l25.15,17.1c10.41,7.08,19.23,16.26,25.88,26.94l55.85,89.65-71.7,148.05-52.06,65.93s-106.85,58.41-246.36,58.41c-139.52,0-246.36-58.41-246.36-58.41l-52.06-65.93-71.7-148.05,55.85-89.65c6.66-10.69,15.47-19.86,25.88-26.94l25.15-17.1"/>
        <path class="cls-3" d="M1041.43,1651.16l-76.12,95.45c-82.61-65.72-180.03-163.2-247.08-294.03-41.64-81.26-41.64-148.05-41.64-148.05,88.65-81.77,148.27-103.18,149.2-103.5-.77,1.18-53.72,82.1-45.64,121.19,24.83,120.09,167.63,252.9,261.28,328.94Z"/>
        <path class="cls-3" d="M1571.82,1304.53s0,66.79-41.64,148.05c-67.05,130.84-164.47,228.31-247.08,294.03l-76.12-95.45c93.65-76.03,236.45-208.84,261.28-328.94,8.08-39.09-44.86-120.01-45.63-121.19.93.32,60.54,21.73,149.19,103.5Z"/>
        <path class="cls-1" d="M1379.01,1080.69l10.39,120.33c33.21,35.84,33.21,80.37,33.21,80.37,0,0,30.07,220.92-298.41,220.92-328.48,0-298.41-220.92-298.41-220.92,0,0,0-44.53,33.21-80.37l10.39-120.33"/>
        <path class="cls-1" d="M1124.19,1242.05c140.16,0,251.08-140.17,251.08-140.17,0,0,41.3-27.38,54.44-113.88,15.48-101.9,67.43-304.36,63.51-407.36-2.71-71.4-14.81-227.99-65.7-278.14-56.22-55.4-246.39-87.6-303.33-87.6-56.94,0-247.11,32.2-303.33,87.6-50.89,50.15-62.99,206.74-65.7,278.14-3.92,103,48.03,305.46,63.51,407.36,13.14,86.51,54.44,113.88,54.44,113.88,0,0,110.91,140.17,251.08,140.17Z"/>
      </g>
      <g>
        <path class="cls-5" d="M1001.03,27.96c-1.17,2.92-4.02,5.52-9.63,7.58-.28.12-.61.24-.89.32-4.16,1.18-8.65.28-13.18-1.93-.51-.24-.98-.51-1.5-.79-.47-.2-.89-.47-1.35-.75-.47-.28-.94-.55-1.4-.87-.47-.28-.89-.59-1.36-.91-.42-.28-.79-.55-1.21-.87-.51-.36-1.03-.75-1.5-1.14-.47-.36-.93-.71-1.36-1.07-.89-.71-1.78-1.46-2.66-2.25v-.08c-1.73-1.54-7.52-1.78-15.8-1.1-36.78,3.08-122.88,46.32-122.88,46.32-4.86-5.56-14.91-4.81-18.55,1.34l-49.87,74.23c-4.11,6.95-31.08,78.5-32.9,80.2,0,0-9.47,9.47-9.47,9.51.33.39,2.15,2.84,2.38,4.06,1.96,10.93-10.75,11.25-12.24,11.25,0,0-17.35,44.76-12.77,44.76h4.38s6.28,127.44,6,130.64l-1.32,78.88,9.77,7.38c-.75,9.17.45,80.31,3.56,89.01,6.38,17.85,29.25,107.11,37.28,131.1,3.56,10.65,11.18,43.02,12.61,41.99l.47-.36c4.35-3.08,6.82-7.58,6.73-12.31l-20.29-166.99c.33-8.92,14.05-37.45,50.55-37.45,0,0,154.13-6.91,318.96-6.91h.76s0,0,0,0h.76s.19,0,.19,0h-3.23s.19,0,.19,0h1.52-.37s.19,0,.19,0h.57s0,0,0,0h.19s0,0,0,0h.76s-3.23,0-3.23,0h.19s.57,0,.57,0h.19s0,0,0,0h.57s.19,0,.19,0h2.67s.19,0,.19,0h.57s0,0,0,0h.76s.19,0,.19,0h-3.23s.19,0,.19,0h1.52-.37s.19,0,.19,0h.57s0,0,0,0h.19s0,0,0,0h.76s-3.23,0-3.23,0h.19s.57,0,.57,0h.19s0,0,0,0h.57s.19,0,.19,0c164.83,0,318.96,6.91,318.96,6.91,36.5,0,50.23,28.53,50.55,37.45l-20.29,166.99c-.09,4.74,2.38,9.23,6.73,12.31l.47.36c1.43,1.03,9.05-31.34,12.61-41.99,8.03-23.99,30.9-113.25,37.28-131.1,3.11-8.71,4.31-79.84,3.56-89.01l9.77-7.38-1.32-78.88c-.28-3.2,6-130.65,6-130.65h4.38c4.58,0-12.77-44.76-12.77-44.76-1.5,0-14.21-.32-12.24-11.25.23-1.22,2.06-3.67,2.38-4.06,0-.04-9.47-9.51-9.47-9.51-1.82-1.7-28.79-73.26-32.9-80.2l-49.87-74.23c-3.65-6.16-13.69-6.91-18.55-1.34,0,0-86.1-43.24-122.88-46.32-8.27-.67-14.07-.43-15.8,1.1v.08c-.89.79-1.78,1.54-2.66,2.25-.42.36-.89.71-1.36,1.07-.47.39-.98.79-1.5,1.14-.42.32-.79.59-1.21.87-.47.32-.89.63-1.36.91-.47.32-.93.59-1.4.87-.47.28-.89.55-1.35.75-.51.28-.98.55-1.5.79-4.53,2.21-9.02,3.12-13.18,1.93-.28-.08-.61-.2-.89-.32-5.61-2.05-8.46-4.66-9.63-7.58-.42-1.07-81.27-15.46-121.91-15.46-37.96,0-121.49,14.39-121.91,15.46Z"/>
        <path class="cls-11" d="M990.27,524.5c-4.55,0-27.65,30.22-27.65,30.22h-50.9l-45.38-36.55s-163.57-12.49-164.37-12.88c-.29-.11-14.54-15.56-14.54-15.56l-8.47-43.46c.22-2.12,19.05,1.57,20.29-.32.44-.73-4.54-132.91-4.54-132.91-4.6,0-13.86-2.85-13.86-6.36l7.76-48.13c0-3.7,3.92-6.7,8.76-6.7l189.56,9.47c14.6,0,145.6,75.55,151.08,76.84l8.39,1h153.1s8.39-1,8.39-1c5.47-1.28,136.48-76.84,151.08-76.84l189.56-9.47c4.84,0,8.76,3,8.76,6.7l7.76,48.13c0,3.52-9.27,6.36-13.86,6.36,0,0-4.98,132.18-4.54,132.91,1.24,1.9,20.07-1.8,20.29.32l-8.47,43.46s-14.25,15.45-14.54,15.56c-.8.39-164.37,12.88-164.37,12.88l-45.38,36.55h-50.9s-23.11-30.22-27.65-30.22h-265.34Z"/>
        <g id="Logos">
          <g id="White">
            <polygon class="cls-12" points="1069.55 409.45 1091.62 368.32 1081.4 368.32 1059.32 409.45 1069.55 409.45"/>
            <polygon class="cls-12" points="1178.31 374.44 1158.16 412.11 1149.34 412.11 1145.2 419.78 1164.28 419.78 1188.54 374.44 1178.31 374.44"/>
            <polygon class="cls-12" points="1172.17 364.1 1161.94 364.1 1148.96 388.1 1092.83 388.1 1075.69 419.78 1085.92 419.78 1098.92 395.78 1155.03 395.78 1155.04 395.78 1172.17 364.1"/>
            <polygon class="cls-12" points="1106.5 408.84 1108.3 405.76 1145.79 405.76 1143.98 408.84 1149.1 408.84 1152.97 401.92 1105.25 401.92 1101.38 408.84 1106.5 408.84"/>
            <polygon class="cls-12" points="1141.06 374.53 1139.25 377.61 1101.77 377.61 1103.57 374.53 1098.45 374.53 1094.59 381.45 1142.3 381.45 1146.17 374.53 1141.06 374.53"/>
          </g>
        </g>
        <path d="M1124.28,142.25h39.3c9.91,0,19.1-3.06,24.24-8.11,18.44-18.09,78.95-76.9,90.59-106.62,0,0-18.79,2.92-22.44,8.59-19.45,30.27-81.07,89.95-81.07,89.95-1.96,1.76-5.52,1.6-7.83,1.2l-36.55-9.89c-1.98-.62-4.06-.93-6.14-.95h-.76c-2.08.02-4.16.33-6.14.95l-36.55,9.89c-2.32.4-5.87.55-7.83-1.2,0,0-61.25-59.62-80.51-89.83-3.59-5.63-22.35-8.51-22.35-8.51,11.63,29.72,71.49,88.33,89.93,106.42,5.14,5.04,14.32,8.11,24.24,8.11h39.3"/>
        <path d="M1084.98,142.25h78.61s-2.37-5.23-2.37-5.23c-.39-.67-28.27-8.09-35.04-9.57-1.01-.22-2.02-.22-3.04,0-6.86,1.47-35.43,8.74-35.78,9.57l-2.37,5.23Z"/>
        <path class="cls-13" d="M1430.47,66.79s5.23.54,7.84,4.95l-155.87,106.45c24.31-45.24,99.76-101.14,112.75-113.9,1.05-1.03,2.63-1.52,4.22-1.31l31.06,3.82Z"/>
        <path class="cls-13" d="M818.26,66.79s-5.23.54-7.84,4.95l155.87,106.45c-24.31-45.24-99.76-101.14-112.75-113.9-1.05-1.03-2.63-1.52-4.22-1.31l-31.06,3.82Z"/>
        <path d="M1197.62,272.54l-12.86,10.85c-1.18.86-2.64,1.34-4.13,1.34h-113.38c-1.49,0-2.96-.48-4.14-1.34l-12.86-10.85h-39.91l37.92,29.27c5.41,3.98,12.15,6.18,18.98,6.18h113.38c6.83,0,13.57-2.19,18.98-6.17l37.92-29.28h-39.91Z"/>
        <polygon points="1039.24 473.28 1025.99 473.28 1025.99 460.61 1018.03 460.61 1018.03 473.28 1004.78 473.28 1004.78 480.88 1018.03 480.88 1018.03 493.55 1025.99 493.55 1025.99 480.88 1039.24 480.88 1039.24 473.28"/>
        <polygon points="1242.93 473.28 1229.67 473.28 1229.67 460.61 1221.72 460.61 1221.72 473.28 1208.46 473.28 1208.46 480.88 1221.72 480.88 1221.72 493.55 1229.67 493.55 1229.67 480.88 1242.93 480.88 1242.93 473.28"/>
        <path d="M1291.59,490.23l-33.71-53.98h-62.3l-14.51,24.37h-113.25l-14.51-24.37h-62.3l-33.71,53.98-11.59-6.61,37.64-60.28h77.81l14.51,24.37h97.55l14.51-24.37h77.81l37.64,60.28-11.59,6.61Z"/>
        <g>
          <polyline class="cls-9" points="828.99 70.41 935.4 188.82 961.6 243.42"/>
          <polyline class="cls-9" points="1416.14 70.41 1309.73 188.82 1283.53 243.42"/>
          <path class="cls-9" d="M926.37,58.61l133.29,142.75c3.58,3.82,8.58,5.98,13.81,5.98h105.03c5.23,0,10.23-2.17,13.81-5.98l133.29-142.75"/>
        </g>
        <line class="cls-9" x1="747.87" y1="145.98" x2="784.99" y2="173.03"/>
        <line class="cls-9" x1="1498.01" y1="145.98" x2="1460.89" y2="173.03"/>
        <polyline class="cls-8" points="694.7 310.19 907.16 320.78 929.43 336.71"/>
        <polyline class="cls-8" points="678.96 449.1 896.02 459.63 907.16 479.92 888.35 504.18"/>
        <polyline class="cls-8" points="1555.75 310.19 1343.29 320.78 1321.02 336.71"/>
        <polyline class="cls-8" points="1571.49 449.1 1354.43 459.63 1343.29 479.92 1362.1 504.18"/>
        <polygon points="888.95 426.69 697.82 420.32 698.82 391.94 873.04 397.71 888.95 426.69"/>
        <polygon points="862.71 378.89 697.73 372.43 698.91 344.04 846.74 349.8 862.71 378.89"/>
        <polygon points="933.11 423.34 902.85 351.99 873.83 350.86 915.46 426.69 916.45 447.84 933.11 423.34"/>
        <polygon points="1362.64 426.69 1553.78 420.32 1552.78 391.94 1378.56 397.71 1362.64 426.69"/>
        <polygon points="1388.89 378.89 1553.87 372.43 1552.69 344.04 1404.86 349.8 1388.89 378.89"/>
        <polygon points="1318.49 423.34 1348.75 351.99 1377.77 350.86 1336.13 426.69 1335.15 447.84 1318.49 423.34"/>
        <g>
          <path class="cls-6" d="M992.31,477.08c0,16.4,13.3,29.7,29.7,29.7s29.7-13.3,29.7-29.7"/>
          <path class="cls-6" d="M1255.4,477.08c0,16.4-13.3,29.7-29.7,29.7-16.4,0-29.7-13.3-29.7-29.7"/>
        </g>
      </g>
    </g>
  </g>
</svg>