<?xml version="1.0" encoding="UTF-8"?>
<svg id="Layer_2" xmlns="http://www.w3.org/2000/svg" viewBox="0 0 886.06 919.78">
  <defs>
    <style>
      .cls-1 {
        fill: #c9b27f;
      }

      .cls-2 {
        fill: #1d252c;
      }

      .cls-3 {
        fill: #fff;
      }

      .cls-4 {
        fill: #830a2c;
      }

      .cls-5 {
        fill: #5eb3e4;
      }
    </style>
  </defs>
  <g id="Logos">
    <g>
      <g>
        <path class="cls-5" d="M116.41,919.78l20.75-40.54c.31-.61,31.11-60.86,40.27-85.65,5.1-13.79,9.2-26.92,12.4-39.94-1.81,1.52-3.65,3.05-5.55,4.58l-62.22,50.07,24.14-74.39c33.33-102.7,36.55-138.1,36.58-138.44l.06-.94.13-.77c5.28-34.16,5.77-64.2,5.25-83.39l-.02-.83.04-.83c.38-8.98-1.16-19.83-3.39-25.79-8.36,3.88-19.09,10.76-21.91,15.35l5.98,32.88-35.54-8.34c-9.47-2.22-18.31-5.29-26.11-8l-.8-.28C39.47,491.28,1.66,428.63.1,381.5c-1.57-47.77,14.6-87.21,45.74-112.16,2.29-18.21,8.03-53.02,20.04-71.65l.62-.96.71-.9c1.78-2.23,30.64-38.35,67.57-74.11l64.2-52.31c65.03-30.7,126.07-47.93,128.63-48.65l44.53-12.47-5.26,14.37c16.08-3.64,32.49-6.9,49.1-9.73,48.18-8.23,80.93-10.03,82.3-10.1l53.38-2.83s-33.91,40.48-34.19,40.81c105.66,18.92,166.24,61.13,184.26,75.41,27.38,17.89,161.7,105.58,161.7,105.58l-66.39,5.01c2.93,3.4,5.81,6.91,8.63,10.52,32.43,41.44,56.59,94.77,71.81,158.51l8.58,35.9-32.35,1.1c14.33,74.9-4.52,142.02-17.21,187.23-2.26,8.05-4.39,15.65-6.07,22.32-13.37,53.33-43.83,105.13-45.12,107.31l-32.84,55.47-15.27-83.97c-.06-.32-4.86-25.35-18.06-60.73-23.55,49.44-51.93,75.36-60.59,82.51l-42.41,35.98-11.73-58.56c-9.3,9.13-20.47,18.97-34.01,28.88-52.99,38.79-103.91,69.66-193.92,103.71l-61.42,23.23,5.67-17.83c-72.69,38.53-153.71,52.75-158.05,53.49l-46.27,7.9Z"/>
        <path class="cls-1" d="M116.41,919.78l20.75-40.54c.31-.61,31.11-60.86,40.27-85.65,5.1-13.79,9.2-26.92,12.4-39.94-1.81,1.52-3.65,3.05-5.55,4.58l-62.22,50.07,24.14-74.39c33.33-102.7,36.55-138.1,36.58-138.44l.06-.94.13-.77c5.28-34.16,5.77-64.2,5.25-83.39l-.02-.83.04-.83c.38-8.98-1.16-19.83-3.39-25.79-8.36,3.88-19.09,10.76-21.91,15.35l5.98,32.88-35.54-8.34c-9.47-2.22-18.31-5.29-26.11-8l-.8-.28C39.47,491.28,1.66,428.63.1,381.5c-1.57-47.77,14.6-87.21,45.74-112.16,2.29-18.21,8.03-53.02,20.04-71.65l.62-.96.71-.9c1.78-2.23,30.64-38.35,67.57-74.11l64.2-52.31c65.03-30.7,126.07-47.93,128.63-48.65l44.53-12.47-5.26,14.37c16.08-3.64,32.49-6.9,49.1-9.73,48.18-8.23,80.93-10.03,82.3-10.1l53.38-2.83-27.64,33c74.35,4.88,132.56,28.71,135.63,29.99l53.65,22.31-13.88,5.11c7.26,2.83,11.49,4.61,11.94,4.79l62.77,26.4-46.25,11.69c33.72,22.02,135.55,88.5,135.55,88.5l-66.39,5.01c2.93,3.4,5.81,6.91,8.63,10.52,32.43,41.44,56.59,94.77,71.81,158.51l8.58,35.9-32.35,1.1c14.33,74.9-4.52,142.02-17.21,187.23-2.26,8.05-4.39,15.65-6.07,22.32-13.37,53.33-43.83,105.13-45.12,107.31l-32.84,55.47-15.27-83.97c-.06-.32-4.86-25.35-18.06-60.73-23.55,49.44-51.93,75.36-60.59,82.51l-42.41,35.98-11.73-58.56c-9.3,9.13-20.47,18.97-34.01,28.88-52.99,38.79-103.91,69.66-193.92,103.71l-61.42,23.23,5.67-17.83c-72.69,38.53-153.71,52.75-158.05,53.49l-46.27,7.9Z"/>
        <path class="cls-4" d="M854.22,401.02c-14.48-60.6-37.23-111.03-67.64-149.89-16.62-21.24-32.19-34.78-43.46-43.25l50.64-3.82s-79.75-52.07-106.33-69.43c-.47-.31-6.09-5.07-16.83-12.12,13.8-1.92,31.14-6.3,31.14-6.3,0,0-29.18-12.27-71.18-25.68,10.19-3.05,19.56-6.5,19.56-6.5,0,0-89.66-37.29-186.39-27.25,18.3-10.16,35.81-31.06,35.81-31.06,0,0-79.08,4.19-171.8,30.62,4.3-7.55,6.51-13.57,6.51-13.57,0,0-60.86,17.04-124.78,47.21l3.02-.35c-2.02.82-4.27,1.29-6.09,2.52-57.7,38.93-120.22,117.55-120.22,117.55-12.85,19.93-17.67,71.76-17.67,71.76-1.13,1.65-46.99,24.61-44.53,99.24,1.28,38.89,33.85,92.54,90.68,112.26,7.76,2.69,15.94,5.57,24.47,7.57-4.18-22.99,44.14-43.87,50.2-42.88,25.08,4.09,22.76,52.05,22.76,52.05.58,21.38-.08,52.32-5.5,87.35,0,0-2.38,35.1-37.6,143.62,35.99-28.96,53.92-58.1,53.92-58.1-1.1,45.61-9.29,81.56-22.99,118.63-9.74,26.35-41.35,88.1-41.35,88.1,0,0,129.97-22.19,204.2-86.91-1.36,5.52-3.3,12.58-5.93,20.83l-4.54,14.28,15.49-5.86c84.7-32.04,133.73-60.74,188.18-100.6,33.07-24.21,51.02-48.16,62.63-61.23l13.1,65.39,11.15-9.46c1.29-1.09,35.14-27.97,59.99-86.79,3.37-7.98,8.72-28.73,12.66-44.93,34.43,65.65,45.1,122.53,45.22,123.15l3.86,21.23s29.92-50.54,42.65-101.32c11.7-46.67,41.42-124.09,20.55-211.46-.86-3.61-2.09-6.97-3.28-10.22-.39-1.06-.77-2.11-1.12-3.11-2.47-7.3-5.18-14.51-8.11-21.61l23.66,16.67c2.75,1.94,4.13,2.91,7.14,2.81l10.25-.35-2.1-8.79Z"/>
        <g>
          <path class="cls-1" d="M111.51,410.12c5.65-22.58,32.05-32.43,50.33-42.87,43.59-21.59,88.67-40.14,134.12-57.66-3.16-1.62-6.82-2.36-10.56-1.97-23.68,2.48-73.63,6.73-92.37.78-17.41-5.53-57.86-43.23-57.86-43.23,0,0-75.61,55.02-69.05,115.51,4.34,39.95,48.5,75.83,48.5,75.83,0,0,.25-2.24.75-5.59-5.31-12.88-6.7-27.37-3.86-40.82Z"/>
          <path class="cls-1" d="M167.21,376.44c-11.89,6.95-24.11,14.2-33.65,22.64-6.27,5.47-8.87,13.41-8.92,21.93,13.36-16.32,56.44-38.65,76.07-45.7,34.23-12.29,103.36,2.07,103.36,2.07,0,0-18.23-23.37-40.16-31.17,18.64-21.86,39.89-28.76,39.89-28.76-1.11-2.25-2.71-4.14-4.6-5.69-44.91,19.91-89.32,40.8-132,64.68Z"/>
        </g>
        <path class="cls-1" d="M286.31,217.31s-33.67,10.5-49.64,35.22l8.39-2.98c1.02-.36,2.14-.37,3.17-.04,5,1.63,20.46,6.28,25.15,3.17,17.45-11.55,12.92-35.38,12.92-35.38Z"/>
      </g>
      <path class="cls-3" d="M676.59,321.66c21.49,10,41.05,1.23,88.2,23.84-70.38-101.23-152.32-120.35-152.32-120.35,0,0,65.79-5.41,103.14,13.3-60.5-75.73-195.54-105.33-195.54-105.33,0,0,25.38-6.83,54.18-7.38-57.45-33.2-129.67-35.12-168.61-30.57-114.93,13.43-168.31,57.25-168.31,57.25l4.03-18.6s-60.74,23.24-95.2,79.64c-2.68-5.78-2.15-11.79-2.15-11.79,0,0-13.5,20.31-18.84,42.7-4.82-5.8-7.76-11.64-7.76-11.64,0,0-6.86,13.81-4.62,26.13,0,0,1.67,10.99,6.82,9.41,8.58-4.96,5.87-10.53,13.93-19.8,1.8,4.39.81,5.43,3.22,9.68,5.95-10.12,19.46-18.85,19.46-18.85,0,0-6.25,16.2.99,29.65,27.19,50.53,56.43-55.77,128.48-68.07.99-5.04-8.09-12.78-8.09-12.78,0,0,23.84,8.07,31.74,31.21,2.27,5.97,2.94,11.69,2.5,17.05,0,.04,0,.07,0,.1h0c-1.86,22.21-22.27,38.02-22.27,38.02l-26.47,4.21s17.56,3.89,33.65,4.78c-8.09,3.47-19.84,3.39-19.84,3.39,0,0,38.65,16.33,76.21,17.12,0,0-7.72,7.55-21.31,14.9,5.94.5,10.21,2.58,10.21,2.58,0,0-24.88,9.18-40.95,21.95,38.34,13.96,42.12,58.89,58.28,112.5-4.25-2.26-8.5-4.53-12.74-6.8-12.6-6.75-43.55-24.79-46.2-21.56,14.92,29.37,20.24,40.68,26.23,58.55,1.58,4.69,2.51,9.64,3.45,14.51.44,2.21.88,5.03-1.71,6.11-2.27.96-3.5-1.35-4.77-2.86-5.94-7.09-12.04-14.04-17.69-21.38-11.74-15.24-46.41-43.33-49.58-41.54,12.89,46.28,21.39,105.34,21.86,140.13.29,21.05-3.68,119.25-3.68,119.25,0,0,39.62-55.57,55.37-134.93,17.67,35.89-3.01,128.78,6.45,146.7,0,0,44.73-77.83,47.28-122.84,21.13,13.65,22.39,48.7,30.4,57.84,52.22-82.88,23.77-174.85,20.29-196.05.03-1.52.05-3.04.04-4.53,56.87,57.15,27.53,227.67,27.53,227.67,0,0,43.38-67.25,65.69-140.88,13.54,35.09,13.21,72.55,13.21,72.55,0,0,27.23-67.97,34.17-135.71,24.49,33.14,63.49,138.48,63.49,138.48,0,0,37.07-141.73-63.56-279.14,148.4,98.18,183.87,274.35,183.87,274.35,0,0,19.26-139.47-33.92-224.74-15.67-25.12-32.44-41.86-48.21-57.43Z"/>
      <polygon class="cls-2" points="132.12 281.16 112.33 304.59 144.46 287.32 132.12 281.16"/>
    </g>
  </g>
</svg>