<?xml version="1.0" encoding="UTF-8"?>
<svg id="Layer_2" xmlns="http://www.w3.org/2000/svg" viewBox="0 0 811.25 914.67">
  <defs>
    <style>
      .cls-1 {
        fill: #113525;
      }

      .cls-2 {
        fill: #fff;
      }

      .cls-3 {
        fill: #ba9f6c;
      }
    </style>
  </defs>
  <g id="Logos">
    <g>
      <path class="cls-2" d="M260.82,865.07c-12.55-33.48-33.05-66.17-64.52-102.87l-8.6-10.03c-3.44-2.29-6.62-5.08-9.47-8.33-7.63-8.69-15.6-17.44-23.31-25.9-3.52-3.86-7.02-7.71-10.52-11.57-1.51-1.67-2.72-3.19-3.69-4.4-.28-.35-.56-.71-.86-1.07l-7.94-9.71c-8.1-7.03-24.84-22.7-39.54-43.54h-8.62s-.09,0-.09,0c-.59.02-1.03.02-1.36.02-15.01,0-28.06-8.69-33.26-22.15-1.8-4.67-3.75-8.56-6-13.07-5.04-10.07-10.73-21.44-13.17-38.74-3.11-21.96-1.93-42.24,3.59-61.71-18.48-26.99-27.37-57.62-26.45-91.18.36-13.28,1.54-28.62,7-44.24-15.43-29.49-18.08-61.77-8.14-98.38,7.62-28.05,22.53-52.6,44.39-73.1-1.21-3.6-2.35-7.33-3.31-11.19-6.13-24.65-3.32-49.53,8.36-73.95,6.82-14.26,14.17-28.28,21.27-41.85,3.01-5.75,6.11-11.66,9.13-17.54l14.97-29.07,29.71,12.61c8.31,3.03,15.1,8.73,19.18,16.13.02.04.04.07.06.1.73.3,2.96,1.01,7.99,1.23,4.35.19,9.12.28,14.58.28,2.43,0,4.91-.02,7.35-.05,16.15-18.63,39.22-30.97,68.74-36.7,10.51-2.04,21.29-3.08,32.04-3.08s22.51,1.14,33.6,3.4l2.79-1.55C344.87,8.26,376.02,0,406.79,0s59.29,7.59,86.71,22.57l3.89,2.13c2.1-.4,4.21-.75,6.31-1.06,9.46-1.38,18.71-2.09,27.51-2.09,30.06,0,56.77,8.07,79.39,23.99,7.22,5.08,12.95,10.9,17.73,16.2,13.62-.04,25.06-.57,35.74-2.75,2.67-4.11,5.56-6.66,6.67-7.64l.08-.07,34.89-33.48,21.63,42.7c3.1,6.13,6.46,12.39,9.7,18.45,7.88,14.73,16.02,29.95,22.47,46.37,10.53,26.78,11.44,54.41,2.78,80.56,1.65,1.62,3.31,3.28,4.97,4.98,21.97,22.44,35.87,50.25,41.32,82.65,2.76,16.42,5.43,41.27-3.22,67.39-1.89,5.71-4.35,10.83-6.55,14.88,5.72,18.95,8.15,35.34,7.63,51.34-.98,30.19-9.58,58.19-25.56,83.2,12.16,40.65,4.76,71.33-10.09,104.83-1.74,3.93-3.35,7.5-4.9,10.91-3.12,6.84-8.4,12.42-15.3,16.17l-51.99,31.33c-.73.7-1.46,1.41-2.21,2.12-3.08,2.93-6.14,5.78-9.25,8.66l-25.98,27.81c-6.16,6.59-12.61,13.49-19.04,20.4-1.16,1.25-2.33,2.49-3.5,3.72-2.96,3.13-5.76,6.09-8.06,8.86-3.1,3.74-6.63,6.87-10.53,9.36l-5.03,7.02c-3.89,5.42-7.84,10.85-11.66,16.1l-.27.38c-8.64,11.89-17.58,24.18-25.77,36.27-10.15,14.99-17.73,31.21-23.16,49.58l-13.78,46.62-40.8-28.41c-1.41-.98-2.75-1.94-4.05-2.89-1.88-1.36-3.5-2.53-4.65-3.22l-1.69-1.02c-13.21-7.95-26.87-16.17-40.37-23.84-3.33-1.89-6.32-4.07-8.93-6.5-11.24-6.48-26.08-12.71-34.2-12.71-4.09,0-10.18,1.75-17.08,4.79l1.05,4.45-27.86,10.47-7.47,3.02c-13.7,5.96-25.37,13.57-35.69,23.26l-39.2,36.83-18.59-49.6ZM328.93,444.19c.56.03,1.33.05,2.37.05,1.37,0,2.97-.07,4.74-.2,6.07-.46,11.67-2.15,17.3-5.31-1.05-.8-2.24-1.53-3.62-2.22-9.37-4.69-16.96-10.67-22.61-17.73-2.51,7.72-2.7,16.18.21,22.33.69,1.47,1.23,2.44,1.61,3.07ZM467,437.13c5.83,3.09,12.16,5.42,18.94,6.96,3.35-3.97,5-7.84,5.33-12.44.44-6.08.14-10.65-.78-14.26-2.06,2.84-4.44,5.49-7.14,7.92-3.71,3.34-7.33,5.72-9.98,7.46l-.1.06c-.47.31-.93.61-1.39.93-1.48,1.01-3.19,2.17-4.89,3.38ZM405.19,350.1c-.1-.67-.2-1.32-.28-1.97-.08.63-.17,1.28-.27,1.94.18.01.37.02.55.03ZM369.32,231.17c1.65,1.48,3.42,2.92,5.31,4.33,5.51,4.1,10.28,8.21,14.9,12.19,2.07,1.78,4.02,3.47,5.96,5.08,4.18,3.47,7.59,7.39,10.18,11.67,3.01-5.46,7.13-10.42,12.28-14.71,2.28-1.9,4.42-3.56,6.49-5.16l.15-.11c1.13-.88,2.26-1.75,3.38-2.65,8.29-6.66,14.69-12.81,19.57-18.84l-30.08-2.26c-3.87.95-7.84,1.43-11.89,1.43-4.47,0-8.87-.59-13.17-1.75l10.02,13.96-33.11-3.15Z"/>
      <path class="cls-1" d="M781.1,371.65c2.19-3.75,5.35-9.48,7.47-15.91,7.5-22.66,5.08-44.82,2.61-59.52-4.88-28.99-17.24-53.8-36.75-73.72-3.01-3.08-6.08-6.07-9.05-8.96-1.19-1.16-2.36-2.3-3.5-3.42,11.13-25.23,11.56-52.28,1.15-78.78-6.09-15.51-14-30.3-21.65-44.6-3.29-6.15-6.69-12.51-9.87-18.79l-10.81-21.35-17.48,16.77c-.23.22-.4.37-.53.48-.94.83-3.14,2.78-4.72,6.02-.76,1.57-1.91,3.94-8.8,5.43-13.1,2.84-26.54,3.42-42.69,3.42-2.11,0-4.21,0-6.32-.02-.36-.42-.72-.83-1.09-1.25-5.21-5.98-11.11-12.75-18.87-18.21-19.53-13.75-42.74-20.72-68.98-20.72-7.92,0-16.28.64-24.86,1.89-3.97.58-7.89,1.34-11.77,2.26l-9.79-5.34c-24.73-13.51-50.98-20.36-78.01-20.36s-55.79,7.48-81.28,21.63l-8.84,4.9c-11.84-2.95-24.09-4.49-36.36-4.49-9.57,0-19.18.92-28.55,2.74-28.87,5.61-49.68,17.71-63.39,36.91-5.37.1-10.85.18-16.19.18-5.72,0-10.75-.1-15.37-.3-15.42-.67-20.08-5.36-22.82-10.33-1.52-2.76-4.51-6.39-10.22-8.35l-14.79-6.28-7.49,14.53c-3.02,5.87-6.14,11.83-9.16,17.59-7.04,13.45-14.33,27.36-21.02,41.35-9.99,20.87-12.42,42.03-7.23,62.9,1.75,7.03,4.2,13.68,6.64,20.13-24.04,19.71-40.11,44.04-47.81,72.4-9.52,35.07-6.12,65.47,10.43,92.85-6.94,15.52-8.32,31.2-8.73,45.92-.9,32.7,8.59,62.22,28.19,87.8-6.87,19.48-8.66,39.93-5.49,62.36,2.07,14.65,6.9,24.3,11.58,33.64,2.35,4.69,4.57,9.13,6.66,14.54,2.6,6.74,9.16,11.09,16.73,11.09.21,0,.49,0,.84-.01.14,0,.35-.01.62-.01h17.63v-.93c12.17,19.47,29.31,37.72,43.42,49.79l8.9,10.88c.34.42.67.83.99,1.23.86,1.08,1.83,2.3,2.99,3.58,3.48,3.85,6.98,7.69,10.48,11.53,7.78,8.54,15.83,17.38,23.52,26.13,2.53,2.88,5.2,4.96,7.85,6.43l10.36,12.08c32.8,38.25,54.25,72.54,67.51,107.91l9.29,24.8,19.6-18.42c11.84-11.12,25.3-19.89,40.97-26.68l7.89-3.19,13.93-5.24-.67-2.84c10.09-5.81,25.18-12.87,37.25-12.87,14.98,0,35.86,10.66,45.29,16.31,1.74,1.86,3.97,3.65,6.81,5.26,13.67,7.77,27.44,16.06,40.75,24.07l1.69,1.02c1.79,1.08,3.69,2.45,5.89,4.03,1.23.89,2.49,1.79,3.81,2.72l20.4,14.21,6.89-23.31c5.92-20.03,14.21-37.76,25.34-54.2,8.34-12.31,17.36-24.73,26.09-36.73,3.89-5.35,7.92-10.89,11.87-16.39l7.24-10.09c3.06-1.48,6.18-3.76,9.05-7.22,2.65-3.2,5.64-6.36,8.8-9.7,1.14-1.21,2.28-2.41,3.41-3.63,6.44-6.91,12.89-13.82,19.06-20.42l19.72-21.11-.59-.44c.44-.41.88-.81,1.32-1.21,5.36-4.94,10.42-9.61,15.52-14.45,14.51-13.77,24.37-26.37,30.93-40.33v20.42l26.68-16.07c3.75-1.97,6.49-4.79,8.13-8.38,1.54-3.37,3.12-6.88,4.83-10.74,13.84-31.21,20.21-57.84,9.17-94.14-1.57-5.17-1.16-7.79,2.02-12.76,14.41-22.51,22.17-47.74,23.06-75,.49-14.93-1.99-30.46-7.8-48.85-1.22-3.88-.45-5.21.06-6.08ZM513.57,210.94c2.28.2,4.33.87,6.23,2.06-2.24,3.37-4.43,5.86-6.56,7.43-.32.24-.64.47-.97.71-1.22-3.57-2.99-7.19-5.47-10.77,2.26.18,4.52.37,6.77.57ZM375.64,562.32l3.05-34.8.83-1.39,4.16-2.06,5.58,19.23-1.28-.08c-.5,1.63-.94,3.16-1.36,4.63-.72,2.52-1.35,4.7-2.04,6.52-1.31,3.44-2.42,4.33-8.94,7.95ZM421.23,545.21l.55-1.58.36,1.63-.9-.05ZM423.54,538.54l4.87-14.04,9.51,4.82,4.18,15.9-18.56-6.68ZM482.48,383.61c1.18.97,2.28,1.9,3.35,2.79,2.47,2.07,4.8,4.03,7.42,6,12.32,9.24,16.99,21.33,15.62,40.42-.61,8.44-3.87,15.9-9.98,22.83-4.4,4.98-8.23,5.66-11.4,5.66-1.64,0-3.46-.22-5.41-.66-14.81-3.33-27.93-9.74-38.99-19.06-.69-.58-1.17-1.04-1.51-1.38.17-.53.45-1.3.93-2.37,2.93-6.54,9.51-11.35,19.22-17.94.56-.38,1.14-.76,1.71-1.14,2.3-1.51,5.16-3.39,7.89-5.85,8.68-7.81,12.3-19.21,10.28-30.01l.87.72ZM481.2,354.89l-5.87.57c.48-.89.94-1.8,1.37-2.74.29-.63.55-1.25.79-1.88l3.72,4.04ZM405.7,69.82c5.65,2.82,11.35,5.79,16.88,8.68,1.22.64,2.46,1.28,3.7,1.93-9.21,8.65-16.34,18.29-22.16,27.87-2.29-3.74-4.7-7.46-7.28-11.13-4.21-5.97-8.97-11.59-14.2-16.82,7.58-3.55,15.33-7.17,23.05-10.53ZM344.64,183.69c-.22-.3-.43-.6-.65-.89,17.92,5.12,32.46,10.9,45.22,17.96,5.27,2.91,10.78,4.39,16.37,4.39,5.98,0,11.77-1.68,17.22-4.98,13.05-7.93,27.24-13.57,41.14-17.75l-16.41,23.52,29.66,2.23c-1.17,1.21-2.88,3.2-4.09,6.1-5.88,13.96-16.3,26.47-33.82,40.56-1.24,1-2.51,1.98-3.77,2.96-1.95,1.51-3.97,3.08-6.02,4.78-9.01,7.5-13.15,17.66-11.97,29.37,1.45,14.4,2.79,29.62,4.1,46.53.54,7.04,1.63,15.91,5.06,25-6.77,2.45-13.28,3.65-19.84,3.65s-13.69-1.31-20.82-4c-.67-.25-1.35-.5-2.05-.74,2.18-7.04,3.18-13.69,3.84-19.57.53-4.73,1.05-9.46,1.58-14.2,1.4-12.71,2.85-25.85,4.47-38.7,1.2-9.54-2.21-17.94-9.86-24.28-2.05-1.7-4.07-3.44-6.21-5.29-4.38-3.78-8.92-7.68-13.91-11.4-12.15-9.03-20.61-19.71-25.89-32.68-.67-1.64-1.4-2.99-1.98-4.08-.18-.34-.37-.69-.57-1.07l-.11-.22,30.97,2.94-21.65-30.14ZM334.91,354.25c.13.28.26.57.4.85l-1.01-.1.61-.75ZM325.37,390.62c1.2-1,2.86-2.12,4.79-3.41.94-.63,1.91-1.29,2.92-1.98-.08,2.23.09,4.52.52,6.83,2.36,12.63,10.52,22.53,24.26,29.41,8.93,4.48,14.6,10.84,17.85,20.04.32.9.4,1.44.42,1.69-.16.23-.57.74-1.47,1.5-12.04,10.1-23.87,15.27-37.23,16.28-2.22.17-4.28.25-6.11.25-10.56,0-14.7-1.8-20.03-13.07-8.43-17.83-1.98-44.17,14.09-57.53ZM304.39,210c-2.42,3.52-4.25,6.84-5.55,10.06-.62-.42-1.25-.85-1.87-1.27-1.62-1.12-2.79-2.48-3.14-5.22,3.3-1.66,6.79-2.84,10.56-3.57ZM268.73,356.84c-2.32,1.82-4.5,2.86-5.99,2.86-1.68,0-4.08-1.66-6.43-4.45-6.25-7.41-8.95-16.5-8.48-28.59.19-4.92.98-9.87,2.36-14.81.57.87,1.17,1.72,1.78,2.58,10.47,14.52,23.26,21.58,39.12,21.58.65,0,1.3-.01,1.95-.04-9.07,8.36-16.74,14.95-24.3,20.88ZM565.02,338.61c-1.45,6.76-3.86,12.84-6.98,17.6-2.05,3.13-3.69,3.13-4.31,3.13-1.7,0-4-.91-6.3-2.49-9.13-6.3-17.87-12.6-24.4-19.84.33,0,.67.01,1,.01,15.55,0,28.73-7.62,36.16-20.91.79-1.41,1.55-2.83,2.29-4.26,3.52,9.97,4.29,18.55,2.53,26.75Z"/>
      <path class="cls-3" d="M298.88,71.29l25.55-14.18c25.79-14.32,54.27-21.88,82.36-21.88s54.05,6.93,79.09,20.61l24.31,13.28-23.05,14.99-6.24,4.06c-7.62,4.96-14.81,9.65-22.27,14.35-3.56,2.24-7.88,3.43-12.49,3.43-2.87,0-7.2-.46-11.52-2.65-4.41-2.24-8.83-4.55-13.09-6.77-5.22-2.72-10.57-5.52-15.9-8.18-8.03,3.53-16.12,7.32-23.98,11l-3.06,1.43c-.11.08-.22.17-.32.25-.67.51-1.34,1.02-2.02,1.49l-10.5,7.29-66.87-38.5Z"/>
      <path class="cls-3" d="M263.34,350.12c-.06-.07-.13-.15-.19-.22-4-4.74-6.07-10.33-6.48-17.7,5.19,4.29,10.84,7.47,16.93,9.51-3.53,3.01-6.9,5.78-10.25,8.41ZM412.08,82.67c-2.84,3.21-5.46,6.49-7.89,9.8-.02-.02-.03-.04-.05-.06-2.25-3.19-4.66-6.29-7.19-9.29,2.84-1.31,5.67-2.6,8.49-3.86,2.2,1.12,4.41,2.25,6.64,3.41ZM336.73,452.51c-2,.15-3.82.23-5.42.23-4.15,0-6.46-.52-7.25-1-.33-.21-2.12-1.52-4.76-7.09-6.06-12.81-2.39-31.77,7.69-43.5,4.31,11.75,13.29,21.1,26.8,27.86,5.67,2.84,9.51,6.53,12.08,11.7-9.5,7.27-18.84,11.04-29.14,11.82ZM406.35,683.44l-13.28-12.91c.16-.11.32-.22.47-.33,5.02-3.63,9.14-7.53,12.79-11.04,2.88-.01,5.49-.4,7.88-1.03,4.32,3.19,8.54,6.53,12.66,10.01l-20.51,15.3ZM433.63,248.31c-1.2.97-2.42,1.91-3.65,2.86-2.01,1.56-4.09,3.17-6.25,4.97-11.11,9.25-16.43,22.25-14.98,36.61,1.44,14.33,2.78,29.49,4.08,46.34.42,5.4,1.14,11.81,2.87,18.65-2.98.59-5.92.88-8.86.88-4.08,0-8.16-.56-12.35-1.71,1.02-4.69,1.63-9.12,2.08-13.21.53-4.74,1.05-9.47,1.58-14.21,1.4-12.68,2.84-25.79,4.45-38.58,1.55-12.3-3.02-23.57-12.86-31.73-1.99-1.65-3.98-3.37-6.09-5.18-4.5-3.88-9.15-7.89-14.41-11.79-8.35-6.2-14.74-13.26-19.37-21.42l34.48,3.28-17.63-24.55c6.51,2.65,12.49,5.5,18.1,8.59,6.62,3.66,13.61,5.51,20.76,5.51,7.67,0,15.05-2.12,21.92-6.29,4.35-2.64,8.84-5.02,13.42-7.16l-9.13,13.08,31.02,2.33c-5.62,10.88-14.81,21.16-29.19,32.72ZM500.07,432.24c-.47,6.56-3.06,12.43-7.91,17.92-2.35,2.66-3.53,2.66-4.68,2.66-.96,0-2.11-.15-3.41-.44-11.96-2.69-22.31-7.37-31.51-14.26,2.82-3.41,7.71-6.87,14.24-11.3.53-.36,1.06-.71,1.6-1.06,2.54-1.67,5.71-3.76,8.94-6.66,5.85-5.26,9.87-11.82,11.96-18.86,6.59,5.38,12.11,13.39,10.77,32ZM556.39,336.9c-1,4.67-2.57,9.04-4.49,12.59-3.42-2.36-6.76-4.72-9.92-7.12,5.48-2.01,10.52-4.96,14.93-8.72-.12,1.1-.29,2.18-.52,3.25Z"/>
      <path class="cls-3" d="M383.63,118.94c-7.13-9.55-13.86-18.57-20.6-27.85-6.13-8.44-3.46-20.88,5.7-26.62l2.21-1.39c7.54-4.74,15.35-9.64,23.81-14,3.45-1.78,7.37-2.68,11.64-2.68,5.54,0,11.68,1.61,16.43,4.31,5.68,3.22,11.02,6.74,16.19,10.14,1.96,1.29,3.96,2.61,6,3.93l15.33,9.89-56.7,71.13-20.01-26.86Z"/>
      <polygon class="cls-3" points="585.98 742.21 457.57 742.21 457.57 627.38 585.98 627.38 603 723.96 585.98 742.21"/>
      <polygon class="cls-3" points="221.74 742.21 350.15 742.21 350.15 627.38 221.74 627.38 204.72 723.96 221.74 742.21"/>
      <path class="cls-3" d="M340.12,823.5l8.42-3.4s30.48-22.19,57.13-22.19,57.59,20.72,57.59,20.72l10.85,4.86v-117.17l29.82,4.11-29.82-46.33v-77.78h-133.98v74.05l-24.64,49.32,24.64-2.24v116.05Z"/>
      <polygon class="cls-3" points="82.09 613.7 103.37 585.41 291.38 627.38 291.38 399.05 78.99 399.05 82.09 613.7"/>
      <polygon class="cls-3" points="733.16 613.7 707.44 584.4 523.88 627.38 523.88 399.05 736.27 399.05 733.16 613.7"/>
      <path class="cls-1" d="M373.17,615.64c-.78,1.07-1.51,1.96-2.13,2.91-3.75,5.77-3.51,7.2,2,11.54,6.26,4.93,12.55,1.35,19.27,6.61-4.9,4.52-9.34,9.3-14.64,13.13-1.81,1.3-5.75.21-8.72.21-.25-.57-.5-1.13-.75-1.7-1.92,2.03-3.86,4.04-5.74,6.1-11.48,12.55-22.94,25.11-34.43,37.66-5.15,5.63-5.17,6.78.26,13.01,11.38-9.25,22.75-18.48,34.41-27.94,10.01,9.73,19.8,19.25,29.8,28.98-.81.96-1.48,1.86-2.26,2.67-12.17,12.63-23.39,25.85-31.8,40.85-12.58,22.44-15.82,45.19-9.88,70.43-20.34,7.64-38.56,18.42-54.56,33.45-15.66-41.78-40.77-78.29-70.5-112.96,2.43-1.04,4.45-2.09,6.62-2.8,26.7-8.68,47.16-24.83,65.15-43.96,16.4-17.45,29.75-36.71,41.85-56.73,2.02-3.34,1.86,2.49-1.52-.1-2.49-1.91-4.55-4.28-7.2-6.82-1.83,2.6-3.54-3.46-5.25-1.03-15.09,21.34-30.27,42.62-49.06,61.58-15.76,15.91-34.05,28.27-57.11,34.39-5.08,1.35-8.43.65-11.81-3.2-11.2-12.75-22.76-25.24-34.17-37.85-1.17-1.29-2.2-2.67-3.42-4.16,2.76-1.45,5.19-2.71,7.62-3.99,17.76-9.33,28.94-23.53,36.42-40.33,3.95-8.87-.37-8.17-5.46-15.39-.79-1.12-5.24-.16-8.13-.16.65,4.52,1.5,8.52,1.75,12.55.56,8.77-2.66,7.92-9.51,14.21-7.25,6.65-14.55,13.26-21.99,19.74-1.99,1.74-4.57,2.93-6.83,4.34-24.76-19.41-58.02-58.95-58.09-85.48,7.81,0,15.63.25,23.43-.04,40.73-1.54,68.64-11.38,84.45-44.78,4.84-10.22,8.33-20.97,12.32-31.51,7.09-18.73,19.56-34.02,36.7-46.23,3.39-2.42,4.15-4.75,2.54-8.28-1.42-3.11-2.27-6.43-3.55-10.17-11.76,4.83-22.51,10.61-31.68,18.58-13.42,11.66-22.67,25.92-30.55,40.93-6.69,12.75-13.45,25.5-19.43,38.53-7.84,17.06-21.98,25.51-42.01,26.55-11.73.61-23.47.93-35.94,1.41,2.14-10,4.16-19.46,6.25-29.26,3.75,1.51,7.18,2.83,10.56,4.26,12.15,5.12,23.61,2.32,34.71-2.71,1.63-.74,2.81-3.01,3.39-4.78,2.96-9.06,5.74-18.17,8.35-27.32.51-1.8.42-3.97-.17-5.76-3.86-11.72-8.05-23.36-11.87-35.08-1.85-5.68-3.35-11.46-4.65-17.26-.77-3.42-2.61-5.13-6.48-5.49-4.8-.44-9.57-1.19-15.92-2.01,2.7,10.71,5.14,20.66,7.73,30.58,5.28,20.16,10.64,40.3,15.99,60.45,1.04,3.91-.27,6.84-4.59,8.06-10.58,2.97-20.99,2.92-30.99-2.01-3.64-1.79-5.05-4.06-3.82-7.98,3.43-10.95,8.11-21.32,15.25-30.78,1.11-1.48,1.55-3.95,1.08-5.7-1.48-5.58-3.54-11.03-5.37-16.53-.46-.17-.92-.34-1.38-.51-3.79,4.89-8.2,9.48-11.25,14.72-12.95,22.23-21.78,45.69-22.6,71-.61,18.63-.12,28.81-.12,47.46-1.21,0-1.65.06-1.67,0-6.73-17.42-14.67-26.02-17.29-44.56-2.78-19.65-1.4-38.9,5.84-57.67,1.42-3.67,1.14-6.5-1.51-9.78-19.24-23.81-27.68-50.64-26.87-79.97.4-14.62,1.83-29.04,8.69-42.59,1.75-3.45,1.34-6.51-.87-9.95-16.75-26.09-17.86-53.77-10.09-82.4,7.42-27.32,23.31-49.72,47.17-67.7,1.8-1.35,3.46-2.85,4.33-3.57-3.61-10.23-7.8-19.69-10.24-29.51-4.41-17.75-1.82-35.3,6.09-51.85,9.41-19.68,19.89-38.95,29.97-58.5.4.17.98.24,1.13.5,7.72,14.03,21.63,18.63,37.59,19.33,12.54.55,25.13.27,37.69.04,2.13-.04,5.27-1.14,6.16-2.62,12.01-20.01,31.76-29.93,55.39-34.52,48.92-9.51,99.76,9.66,127,48.31,8.36,11.86,14.91,24.77,22.49,37.53,1.68-3.2,3.59-6.65,5.32-10.17,7.97-16.24,17.13-31.83,31.6-44.26,19.1-16.4,40.9-28.74,67.33-32.61,29.04-4.25,56.89-1.07,80.78,15.75,7.5,5.28,13.24,12.68,19.32,19.46,1.99,2.22,3.63,3.22,6.8,3.24,19.16.13,38.26.3,57.12-3.78,9.71-2.1,16.87-6.49,20.9-14.8.17-.34.59-.59,1.72-1.68,10.6,20.92,22.59,40.85,30.88,61.95,9.65,24.56,8.61,49.72-4.64,73.72-.62,1.12.03,3.5,1.04,4.55,6.08,6.29,12.55,12.27,18.67,18.53,18.19,18.58,28.1,40.54,32.18,64.8,2.91,17.31,3.63,34.63-2,51.65-1.46,4.4-3.66,8.67-6.05,12.75-3.69,6.32-3.64,12.75-1.56,19.33,4.48,14.19,7.53,28.53,7.04,43.39-.77,23.74-7.32,46.14-20.44,66.63-5.62,8.77-7,16.34-3.93,26.43,9.45,31.07,4.68,53.08-8.46,82.7-1.57,3.53-3.15,7.06-4.76,10.58-.09.2-.46.29-1.04.64,0-5.64.16-11.07-.03-16.49-.61-17.08-.11-25.8-2.33-42.71-3.42-26.07-12.47-50.64-30.55-71.87-.45-.53-.98-1.02-1.88-1.95-1.66,6.66-3.3,12.77-4.62,18.94-.26,1.23.51,2.71,1.06,3.99,5.05,11.69,10.15,23.36,15.34,35.27-10.48,6.04-21.33,9.68-33.88,7.15-7.95-1.6-9.87-4.42-7.7-11.51,2.4-7.88,5.43-15.67,7.02-23.69,4.01-20.27,7.38-40.63,10.96-60.97.21-1.21.03-2.48.03-4.37-6.2.98-11.88,1.76-17.48,2.87-.88.17-1.85,1.75-2.02,2.78-2.97,18.32-6.67,36.46-14.13,53.83-.61,1.43-.35,3.34.04,4.92,2.42,9.91,4.86,19.83,7.65,29.66.48,1.7,2.36,3.6,4.14,4.41,12.73,5.8,25.62,5.56,38.49.23,2.12-.88,4.28-1.68,6.96-2.73,2.25,9.58,4.43,18.89,6.8,29.02-3.85,0-7.24.18-10.6-.03-10-.64-20.05-1.03-29.97-2.25-17.95-2.2-31.8-10.81-40.65-24.75-8.84-13.94-16.35-28.57-24.3-42.97-10.42-18.9-23.85-35.54-43.62-47.43-4.53-2.73-9.39-5.01-14.58-7.76-2.19,5.23-4.25,9.91-6.06,14.67-.29.76.25,2.29.97,2.77,25.99,17.19,37.92,42.43,49.21,68.29,4.66,10.67,10.54,21.22,17.79,30.62,16.48,21.33,40.41,22.46,68.87,23.38,7.81.25,15.64.04,23.91.04-3.51,28.78-13.58,46.03-35.79,67.11-7.33,6.96-14.83,13.78-22.79,21.17-13.75-10.71-28.76-21.28-31.76-39.54-.82-4.99.13-1.95,1.43-6.95.97-3.74.49-5.82-3.47-7.17-1.28-.44-2.43-1.19-3.94-1.94-8.8,12.56-12.81,17.06-5.09,30.86,3.33,5.96,7.8,11.71,13,16.45,6.94,6.33,15.09,11.59,22.99,17.5-8.2,8.78-17.18,18.38-26.14,27.99-4.34,4.66-8.84,9.21-12.87,14.08-2.83,3.41-5.85,3.98-10.18,2.69-11.97-3.57-22.49-9.26-31.82-16.81-19.3-15.6-35.3-33.69-49.33-53.25-6.73-9.37-13.38-10.3-20.11-19.67-1.26-1.75-2.72-3.38-4.29-5.31-3.83,3.02-7.63-2.93-10.71.19-1.2,1.21-1.77,4.21-.95,5.57,18.71,30.89,39.49,60.45,69.3,83.9,11.1,8.73,23.75,15.17,37.6,19.71,1.31.43,2.59.92,3.48,1.23-12.84,17.9-26,35.45-38.22,53.5-12.28,18.13-21.28,37.68-27.53,58.82-3.84-2.67-7.11-5.24-10.69-7.39-14.19-8.54-28.38-17.1-42.82-25.31-3.37-1.92-4.4-3.75-3.74-7.11,1.35-6.95,2.86-13.91,3.47-20.93,1.22-13.89-3.53-26.52-11.71-38.11-11.6-16.42-23.45-32.7-35.6-49.61,11.05-8.24,23.08-17.21,35.5-26.47,10.08,8.14,20.08,16.22,30.38,24.54,1.82-1.84,3.55-3.58,5.49-5.53-18.76-25.2-40.7-47.48-67.88-66.14,4.81-3.81,9.06.94,13.74-2.31,6.81-4.73,7.01-4.8,3.04-11.61-.57-.98-1.13-1.95-1.98-3.43-8.31,5.21-16.41,10.22-24.43,15.33-6.72,4.28-6.81,4.28-13.62.2-8.23-4.93-16.52-9.77-24.8-14.64-.25-.15-.59-.17-1.43-.39ZM319.61,218.61c.76,1.48,1.45,2.62,1.95,3.84,6.47,15.89,17,29.12,31.53,39.91,6.77,5.03,12.92,10.74,19.39,16.11,3.08,2.56,4.37,5.39,3.87,9.39-2.23,17.68-4.08,35.4-6.07,53.11-.92,8.18-2.4,16.24-6.22,24.31-2.47-3.07-4.47-5.76-6.69-8.3-6.37-7.28-9.76-15.31-8.69-24.76.57-5.05.51-10.16.69-15.25.07-2.05.01-4.1.01-6.15-.36-.08-.72-.16-1.08-.24-15.77,19.2-31.55,38.4-47.64,57.99,7.95.82,15.02,1.55,22.84,2.36-3.63,2.55-6.84,4.5-9.65,6.83-21.98,18.27-30.35,52.59-18.61,77.41,9.2,19.44,21.3,24.37,43.56,22.7,18.65-1.4,33.95-9.09,47.44-20.4,7.3-6.12,9.15-12.95,6.16-21.43-4.59-13.01-13.16-23-26.4-29.64-7.79-3.9-13.51-9.11-15.05-17.36-1.69-9.03,5.13-15.32,15.13-13.6,4.58.79,9.21,1.82,13.5,3.44,18.51,7,36.73,6.9,55.24-.28,5.32-2.06,11.48-2.57,17.34-3.22,4.13-.46,7.57,1.31,9.79,4.73,4.22,6.5,3.27,15.05-2.66,20.38-2.31,2.08-5.1,3.74-7.73,5.52-10.18,6.92-20.2,13.84-25.24,25.08-4.46,9.94-3.52,15.95,5.15,23.25,13.32,11.22,28.87,18.83,46.59,22.82,13.95,3.14,25.32-.4,34.26-10.54,8.45-9.58,13.25-20.5,14.13-32.64,1.53-21.22-3.1-40.53-22.37-54.98-3.32-2.49-6.4-5.23-10.16-8.31,8.1-.79,15.31-1.49,23.26-2.27-18.84-20.5-37.17-40.45-55.5-60.4-.35,7.16.54,14,.6,20.84.05,5.7.58,11.96-1.72,16.99-2.96,6.46-8.54,11.95-13.02,17.83-.12.16-.58.1-1.18.18-.39-.61-.92-1.27-1.28-2-3.87-7.86-5.22-16.18-5.88-24.69-1.21-15.65-2.56-31.29-4.13-46.91-.6-5.96,1.13-10.88,5.96-14.9,3.11-2.59,6.4-5.01,9.56-7.55,16.56-13.32,30.84-28.17,38.85-47.21.29-.69,1.05-1.22,1.8-2.08,7.98,10.37,6.18,21.18,3.73,32.46,10.02-5.41,20.14-10.58,29.01-17.13,5.38-3.97,9.6-9.7,12.91-15.33,3.28-5.56,2.29-11.72-3-16.44-5.14-4.58-11.45-7.45-18.71-8.09-11.81-1.04-23.65-1.82-36.18-2.76,4.51-6.46,10.47-10.64,17.17-14.04,12.4-6.3,25.9-4.82,39.14-3.93,19.97,1.34,39.15,6.25,58.15,11.67,16.73,4.76,32.54,10.78,41.25,26.54,3.33-3.63,6.57-6.71,9.23-10.16,5.32-6.88,5.47-15.29-.77-20.63-5.58-4.78-11.89-9.78-18.93-12.12-40.06-13.27-81.17-19.15-123.78-11.85-30.86,5.29-60.67,13.03-87.07,29.06-5.13,3.12-10.18,3.11-15.4.23-18.32-10.12-38.2-16.87-58.77-22.16-48.26-12.41-96.25-12.35-143.95,2.31-11.47,3.53-21.38,8.96-26.84,19.23-2.66,5-3.9,10.36-.29,15.39,2.6,3.63,5.92,6.85,9.01,10.36,9.11-12.07,11.27-13.56,22.16-18.68,19.4-9.12,40.29-14.02,61.54-17.76,14.57-2.57,29.31-3.23,43.83.65,10.78,2.88,18.93,8.86,25.47,17.96-3.04-.29-5.19-.48-7.34-.7-13.45-1.39-26.27.13-38.15,6.4-5.82,3.08-8.71,7.45-8.54,13.58.23,8.13,3.56,15.1,10.62,19.96,11.03,7.58,22.56,14.57,34.76,22.37-9.45-19.79-9.72-25.27-1.87-36.35ZM360.01,498.93c-1.3.8-1.68,1.01-2.04,1.25-10.68,7.17-16.25,17.42-20.67,28.24-2.91,7.11-7.92,12.1-15.03,16.15-8.59,4.89-16.79,10.44-24.66,16.24-6.91,5.1-11.21,11.93-13.51,21.18,18.7-14.88,37.58-27.14,61.42-33.13-3.25,5.42-6.38,10.13-8.98,15.07-6.61,12.6-14.9,15.73-24.75,26.42-10.94,11.88-22.19,23.49-36.7,32.08-17.15,10.16-40.06,8.09-50.7-9.02-.13-.22-.46-.33-1.66-1.16,4.41,10.17,9.2,10.32,17.48,17,5.93,4.78,12.92,6.76,20.82,6.27,14.97-.93,26.86,1.01,36.65-8.65,6.55-6.46,12.46-13.46,18.34-20.44,13.17-15.63,26.15-22.91,39.19-38.63.89-1.08,1.66-2.24,2.54-3.44-1.49,17-2.33,25.34-4.71,41.97-1.12,7.78,3.75,10.73,9.47,15.01,1.33-8.84,3.02-17,3.63-25.23.46-6.14,3.44-10.13,8.8-13.59,12.14-7.84,21.27-9.46,26.18-22.32,1.41-3.7,2.35-7.55,3.77-12.23,3.3,19.49,13.62,25.61,31.43,35.44,5.06,2.79,7.09,6.14,7.72,11.1,1.12,8.77,2.71,17.49,4.24,27.08,1.81-1.55,2.91-2.68,4.21-3.57,3.98-2.72,4.97-6,3.59-10.39-1.78-5.69-2.97-11.53-4.27-17.34-2.58-11.56-5.06-14.65-7.58-26.22,2.11.76,3.31,1.93,4.26,3.24,7.3,10.09,14.76,11.57,25.6,18.98,12.36,8.45,22.92,18.39,31.53,30.07,8.17,11.09,18.89,11.09,32.84,15.97,7.13,2.49,14.4,3.94,22.07,2.35,14.74-3.06,26.96-8.43,29.12-24.85-.63.83-1.22,1.34-1.47,1.96-7.69,18.77-33.84,21.48-49.05,9.75-10.12-7.81-19.73-16.16-29.92-23.9-7.14-5.42-15-10.07-22.29-15.35-3.09-2.24-6.36,3.66-8.12.58-6.06-10.67-11.51-21.63-17.14-32.49-.41-.78-.47-1.7-.86-3.17,13.29,3.37,25.29,7.84,36.18,14.26,10.74,6.32,20.89,13.45,31.3,20.22.26-1.88-.27-3.25-1.02-4.52-8.93-15.09-22.36-26.1-38.92-34.04-5.76-2.77-9.53-6.57-11.84-11.98-2.42-5.65-5.07-11.25-8.08-16.66-4.19-7.52-10.26-13.62-19.1-18.45,3.75,8.65,7.19,16.56,11.05,25.45-14.62-7.42-28.25-14.33-42.12-21.37-4.22,12.17-8.22,23.73-12.63,36.44-3.79-13.05-7.25-24.98-10.77-37.13-14.23,7.03-28.04,13.85-43.03,21.27,2.9-7.74,5.38-14.32,8.19-21.81ZM112.93,249.75c-5.05-5.01-9.64-9.57-14.8-14.69-5.6,5.99-11.63,11.29-16.13,17.48-16.69,22.94-24.62,47.95-20.74,75.6,3.33,23.75,13.45,43.93,35.79,58.15,12.65,8.05,26.46,13.72,41.89,17.56-.75-28.35,7.13-55.09,13.98-82.4-5.09.42-9.42.91-13.77,1.11-5.03.23-7.37,2.46-8.39,6.92-2.49,10.91-5.44,21.73-8.29,32.57-1.75,6.65-3.65,13.26-5.79,20.97-7.17-5.93-14.22-10.63-19.63-16.55-5.09-5.56-8.69-12.28-12.46-18.73-2.02-3.46-.79-6.85,2.57-9.52,18.21-14.52,38.96-23.51,63.74-23.71,9.15-.08,10.88-1.51,11.97-10.03-30.9-3.39-59.36,2.27-85.29,19.03,0-7.79-.04-14.7.02-21.6.02-3.13,1.53-5.25,5.03-6.38,10.32-3.32,20.51-6.96,30.86-10.19,15.76-4.92,31.81-6.24,48.11-2.18,13.79,3.44,23.36,11.91,23.87,22.79.52,10.96-.17,21.98-.78,32.96-.26,4.66-2.9,8.51-7.47,11.22-1.4.83-2.76,2.49-3.04,3.94-1.98,10.13-4.83,20.28-5.21,30.49-.91,24.05,1.25,48,6.49,71.66,1.58,7.12,3.51,14.18,5.57,22.39,1.5-1.9,2.34-2.82,3.02-3.82,3.68-5.42,7.08-11.02,11.05-16.26,2.98-3.94,3.25-7.85,2.51-12.39-2-12.29-4.17-24.59-5.15-36.96-1.9-24.02,1.95-47.68,8.14-70.96,5.13-19.29,3.6-37.01-9.82-53.56-11.99-14.79-27.66-22.23-47.71-20.21-14.41,1.45-28.59,4.69-42.85,7.27-4.47.81-8.84,2.03-13.62,3.15,4.17-16.34,11.29-23.18,26.38-25.12ZM630.89,477.99c7.81-34.78,11.22-65.03,8.15-95.28-1.33-13.09-.63-26.83-11.89-37.42-.2-.19-.24-.51-.33-.78-4.35-12.29-7.82-24.71-6.76-37.79,1.12-13.81,9.92-22.69,24.92-25.39,16.25-2.92,32.2-.86,48.07,2.15,12.29,2.34,24.48,5.14,34.87,11.94,2.14,1.4,4.71,3.63,5.01,5.72,1.04,7.22,1.16,14.54,1.69,22.85-27.23-17.68-56.46-24.34-88.92-20.26,1.37,2.73,2.9,5.07,3.72,7.59,1.02,3.13,3,4.06,6.51,4.2,8.28.32,16.73.28,24.77,1.83,18.07,3.49,34.47,10.28,47.47,22.66,2.06,1.96,2.56,3.72,1.77,6.42-5.12,17.61-19.84,26.63-36.89,34.17-4.22-13.92-8.17-27.55-12.5-41.09-5.97-18.68-.68-15.63-23.76-16.67-.42-.02-.86.21-1.54.39,8.38,26.54,15.58,53.22,15.58,81.61,19.11-7.46,38.41-12.97,53.6-25.4,11.76-9.63,20.01-21.31,23.05-35.59,6.5-30.52-.02-59.2-15.56-86.47-4.66-8.18-10.89-15.46-19.18-21.71-3.94,4.76-7.74,9.35-11.59,13.99,15.17,6.79,21.54,15.1,19.31,25.02-.45,0-.95.1-1.38-.02-2.24-.62-4.49-1.24-6.7-1.97-18.44-6.07-37.41-9.42-57.1-9-12.89.27-24.25,3.87-33.37,12.49-11.22,10.6-17.04,23.3-15.69,37.73,1.43,15.29,4.67,30.44,6.9,45.67,1.89,12.87,4.89,25.77,4.86,38.65-.04,17.74-2.5,35.48-3.81,53.23-.15,2.03-.26,4.52.85,6.08,4.84,6.72,10.15,13.17,15.85,20.44ZM603.7,128.11c-.4-.58-.76-.9-.87-1.28-5.74-19.92-20.69-33.16-39.4-43.48-12.36-6.81-25.82-9.99-40.45-8.38-21.43,2.37-39.4,11.54-56.14,23.1-.48.33-.65,1.05-1.32,2.21,19.32-6.64,37.99-9.48,57.42-2.56,1.09-6.72,5.31-9.91,12.24-10.8,8.06-1.03,15.11,1.04,20.87,5.78,13.95,11.49,25.42,24.64,30.76,41.33,1.21,3.77,3.65,5.26,7.59,5.76,6.36.8,12.81,1.32,19.02,2.71,16.04,3.59,31.57,2.55,47.22-2.06,5.48-1.61,11.7-1.57,17.58-1.55,4.91.02,8.34,2.95,8.98,7.32.62,4.28,1.24,8.89.12,12.98-6.78,24.84-17.44,47.98-38.01,66.49-1.54,1.39-2.97,2.94-4.16,4.58-2.96,4.07-3.4,8.35-.93,12.83,15.91-3.87,29.78-9.84,39.66-22.54,16.12-20.73,24.54-43.72,26.71-68.63,1.42-16.28-8.64-28.69-25.39-32.04-6.36-1.27-13.08-1.28-19.65-1.42-19.72-.41-39.22.61-57.47,8.44-1.36.58-2.9.82-4.36,1.21ZM206.79,130.05c-8.09-3.18-15.35-6.55-23-8.92-15.66-4.84-31.93-3.67-48.03-2.57-16.59,1.13-28.72,10.67-31.6,25.21-1.22,6.13-1.25,12.7-.31,18.89,2.98,19.73,9.23,38.61,21.49,55.45,9.98,13.69,23.99,22.34,41.89,25.94,2.17-6.91.43-12.74-4.84-17.71-17.67-16.7-27.83-36.99-34.71-58.83-2.07-6.57-2.89-13.26-1.28-20.09,2.01-8.55,6.61-11.52,16.16-9.67,5.95,1.15,11.85,2.62,17.64,4.33,9.1,2.69,18.33,3.8,27.82,2.61,9.47-1.19,18.88-2.76,28.36-3.81,4.27-.47,6.27-2.21,7.26-5.9,3.46-12.91,9.66-24.77,18.48-35.38,3.33-4.01,7.49-7.62,11.86-10.75,10.02-7.16,25.13-3.49,28.18,8.07.05.18.51.27,1.69.84,18.28-6.16,37.3-6.53,56.29,1.23-11.89-7.27-23.71-14.23-36.31-19.77-14.63-6.44-30.32-7.88-45.44-1.36-9.11,3.93-17.85,8.88-25.93,14.36-12,8.12-19.75,19.15-23.37,32.4-.48,1.74-1.4,3.39-2.28,5.44ZM255.99,275.45c-7.41,3.1-12.36,7.74-15.6,13.9-6.09,11.61-9.7,23.85-10.19,36.67-.55,14.42,2.44,28.1,12.42,39.92,10.58,12.54,24.14,14.34,37.25,4.04,10.97-8.61,21.32-17.91,31.37-27.39,7.81-7.36,10.78-16.82,11.93-27.68-6.42.58-12.6.21-18.08,1.81-17.55,5.11-28.6,1.96-38.65-11.98-6.33-8.78-9.87-18.39-10.45-29.29ZM554.04,276.43c0,4.05.96,7.97-.2,11.29-2.43,6.97-5.51,13.82-9.16,20.35-6.13,10.96-17.77,14.35-30.69,10.38-5.99-1.84-12.49-2.36-18.79-3.32-2.68-.41-3.45.9-2.42,3.06,3.49,7.36,6.15,15.17,10.69,21.96,8.38,12.53,20.94,21.69,33.7,30.49,13.04,9,27.46,7.34,35.79-5.38,4.58-6.99,7.61-15.21,9.33-23.22,3.96-18.5-1.82-35.84-10.6-52.42-3.48-6.56-10.05-10.16-17.65-13.19ZM160.93,623.39c31.96-11.42,53.02-25.81,75.35-48.11,5.36,15.13,11.41,20.65,21.52,33.38,5.58-4.77,10.87-9.3,16.22-13.89-9.57-10.35-13.54-13.75-14.8-26.47-1.88-18.93,4.86-35.9,15.23-51.95,3.85-5.95,8.52-11.12,16.93-13.1-4.08-4.42-7.81-8.47-11.66-12.64-1.95,1.45-3.43,2.5-4.84,3.61-13.05,10.28-21.39,23.5-28.77,37.34-4.89,9.15-9.7,18.35-15.01,27.3-8.6,14.5-20.34,18.36-34.11,29.06-16.07,12.49-34.12,20.39-56.4,17.72,0,.82-.23,1.58.03,2.14,5.5,11.53,10.71,14.7,16.74,26,3.35,6.27,9.74,9.63,18.29,10.62-5.02-10.04-9.79-11.11-14.73-21.01ZM640.68,644.52c1.29-.38,1.82-.55,2.36-.7,9.28-2.45,14.83,0,19.15-7.36,5.78-9.84,9.52-20.3,12.45-30.22-7.07.45-14.05,1.99-20.6,1.07-12.74-1.8-23.74-7.72-33.87-14.82-18.7-13.12-31.72-21.84-43.18-40.17-9.45-15.12-18.62-30.4-28.58-45.25-3.89-5.8-9.61-10.62-14.81-16.21-4.7,4.47-8.64,8.21-12.84,12.2,18.62,11.59,27.93,27.79,31.65,47.07,3.72,19.3,1.05,28.86-12.61,44.89,5.04,4.89,9.8,9.52,14.87,14.43,6.73-13.84,13.23-18.71,19.05-30.68,12,10.13,24.15,11.83,36.2,22.12,12.36,10.55,26.73,18.06,43.1,23.21-4.1,9.59-8.11,10.48-12.36,20.44ZM725.11,425.34c-1.26,13.64-2.75,26.34-7.39,38.59-.7,1.86-1.25,4.44-.36,5.98,2.77,4.8,6.27,9.25,9.63,14.05,13.39-19.41,22.33-70.17,15.08-84.92-2.32,1.18-4.57,2.46-6.95,3.52-12.75,5.65-25.36,11.62-38.38,16.72-7.99,3.13-16.67,4.8-24.95,7.35-1.38.43-3.2,1.95-3.32,3.08-.4,4.04-.16,8.12-.16,12.75,19-5.73,37.49-11.31,56.78-17.13ZM393.97,158.71c-1.08-1.31-1.39-1.95-1.92-2.31-13.95-9.38-27.31-19.6-42.01-27.91-28.53-16.12-59.16-18.02-90.65-7.44-2.25.76-5,2.99-5.42,4.91-.85,3.87-.25,8-.25,12.38,49.66-9.75,94.68,4.06,140.26,20.37ZM86.27,485.33c2.89-4.91,5.35-9.5,8.24-13.84,1.72-2.58,1.7-4.76.54-7.51-5.05-11.97-6.41-24.56-7.59-37.95,18.91,7.07,37.56,12.44,57.45,15.38-.47-3.25-1.12-6.15-1.25-9.06-.13-3-1.64-3.78-4.82-4.31-25.18-4.19-47.62-13.69-67.05-28.8-.75-.58-1.66-.99-2.65-1.56-5.26,33.74,4.41,66.77,17.13,87.66ZM421.16,157.55c42.22-16.65,84.45-28.69,130.33-19.89,1.85-11.64,1.15-12.83-9.79-16.17-16.97-5.18-34.21-8.46-52.18-5.02-27.7,5.3-48.32,20.64-67.02,38.63-.4.38-.55.97-1.35,2.45ZM350.76,714.85c-5.82,3.71-11.79,7.24-17.42,11.16-7.77,5.4-11.34,5.6-19.12.04-4.25-3.04-8.3-6.3-12.6-9.58-2.05,2.06-3.8,3.83-5.53,5.57,7.3,10.02,16.53,17.47,28.04,20.85-10.7,15.74-21.28,31.21-31.72,46.75-.98,1.46-2.03,3.64-1.51,5.02,2.57,6.88,5.65,13.61,8.56,20.42,4.37-1.8,8.29-3.21,12-4.98,6.55-3.11,9.65-7.87,9.38-14.81-.24-5.98.02-12.1,1.22-17.96,4.6-22.5,14.53-43.04,28.72-62.47ZM480.08,747.07c1.34,3.25,2.62,6.38,3.91,9.52,6.21,15.03,11.54,30.18,9.23,46.61-.19,1.33,1,3.44,2.28,4.2,5.17,3.09,10.62,5.8,16.36,8.86,3.14-7.49,6.2-14.56,9-21.72.45-1.16.27-2.96-.45-3.98-9.77-13.65-19.63-27.25-29.61-40.78-2.42-3.28-5.97-4.31-10.72-2.72ZM261.52,666.14c1.93-3.32,3.64-6.25,5.69-9.76-12.99,1.12-23.07-3.89-32.99-9.69-7.45,14.31-16.48,26.89-30.36,36.42,3.75,4.8,7.3,9.35,10.92,13.97,8.36-3.95,16.18-7.79,24.15-11.34,2.62-1.17,3.56-2.53,3.48-5.16-.21-6.99-.07-13.98-.07-21.49,6.66,2.45,12.69,4.66,19.18,7.05ZM577.37,648.11c-8.78,5.6-18.37,8.5-29.62,8.16,2.29,3.39,4.21,6.21,6.24,9.2,5.9-2.18,11.4-4.21,17.49-6.46-.66,6.78-1.45,12.81-1.75,18.87-.1,2.06.25,4.89,1.7,6.12,6.1,5.17,12.7,9.87,19.29,14.88,4.06-4.52,7.91-8.62,11.45-12.92.66-.8.67-2.71.05-3.58-8.13-11.4-16.42-22.7-24.85-34.28ZM594.84,352.96c-5.29,23.74-10.59,47.47-15.84,71.22-.2.91-.31,2.37.26,2.79,5.43,4.05,11.01,7.93,17.02,12.2,3.6-29.54,6.53-58.02-1.44-86.21ZM584.28,205.77c7.96,11.26,14.31,22.97,19.16,36.09h-16.06c7.01,6.83,14.35,13.99,21.84,21.28,5.57-5.77,11.71-12.12,17.26-17.87-4.99-8-9.15-15.75-14.48-22.79-3.15-4.16-7.73-7.74-12.43-10.55-4.59-2.74-10.15-4.17-15.28-6.17ZM218.2,352.69c-5.65,28.43-4.28,56.96-1.68,86.32,6.85-4.47,13-8.48,19.29-12.59-9.82-23.96-11.14-49.28-17.61-73.73ZM224.85,207.34c-4.74,1.73-8.24,3.33-11.95,4.29-5.8,1.52-9.76,4.79-12.84,9.27-4.53,6.58-9.34,13-13.69,19.67-1.14,1.75-2.15,4.74-1.26,6.2,3.9,6.43,8.51,12.5,13.28,19.28,4.69-11.23,13.45-18.05,23.15-24.48h-17.41c6.96-11.5,13.58-22.44,20.74-34.25ZM269.9,259.82c.68,1.95.82,2.88,1.29,3.64,4.56,7.38,9.22,14.71,13.75,22.1,3.15,5.14,8.13,7.73,14.36,8.38,4.5.47,9.49,1.02,12.56-2.82,3.02-3.79.93-7.88-.8-11.64-.62-1.36-1.97-2.5-3.17-3.59-10.17-9.24-23.82-11.73-37.99-16.09ZM536.64,262.29c-.49-.42-.99-.84-1.48-1.26-9.55,4.39-19.43,8.31-28.49,13.41-3.72,2.1-5.98,6.59-8.31,10.3-1.85,2.95,0,5.38,2.92,7.14,6.56,3.96,16.11,3.19,21.43-2.41,7.47-7.87,9.52-18.02,13.92-27.19ZM510.9,716.21c-7.28,4.12-14.18,8.23-21.31,11.99-6.36,3.36-8.16,2.78-13.66-1.66-5.85-4.72-12.05-9.08-18.1-13.6-.39.35-.78.71-1.17,1.06,7.52,10.46,15.04,20.92,22.64,31.49,15.14-4.9,27.08-12.95,35.51-25.2-1.46-1.53-2.67-2.78-3.91-4.08ZM518.21,750.27c5.78,6.11,11.37,12,17.22,18.18,4.16-6.19,7.86-11.68,11.73-17.43-5.08-3.65-9.91-7.13-14.74-10.6-4.88,3.39-9.43,6.55-14.2,9.86ZM277.11,768.54c4.91-6.38,9.32-12.12,13.89-18.05-4.33-3.65-8.36-7.06-12.48-10.53-5.19,3.53-9.88,6.72-14.64,9.96,4.43,6.23,8.61,12.12,13.23,18.62Z"/>
      <path class="cls-1" d="M405.61,718.57c10.39,14.48,20.11,28.28,30.16,41.9,4.07,5.51,8.81,10.61,13.32,15.85,5.18,6.01,6.92,13.1,8.48,20.98-9.39-3.6-18.4-6.66-27.02-10.44-15-6.58-29.8-6.37-44.92-.5-10.15,3.94-20.48,7.5-31.64,11.56,8.3-31.36,26.3-56.56,51.62-79.35ZM411.47,758.9c-2.74-2.5-4.77-4.37-6.98-6.38-2.7,2.15-5.34,4.26-8.79,7.01,5.69-.23,10.26-.41,15.77-.63Z"/>
      <path class="cls-1" d="M476.1,52.08c-9.67,6.29-18.91,12.36-28.28,18.26-.88.56-2.89.43-3.93-.09-11.3-5.74-22.41-11.78-33.81-17.34-2.1-1.02-5.7-1.11-7.85-.2-11.17,4.76-22.12,9.96-33.1,15.1-1.63.76-2.97,2.01-4.39,3-10.2-5.87-20.41-11.75-30.42-17.51,42.7-23.7,93.84-27.4,141.78-1.21Z"/>
      <path class="cls-1" d="M434.03,78.57c-10.06,12.63-19.81,24.85-29.86,37.46-8.72-11.71-17.13-22.91-25.35-34.23-.53-.73-.09-2.92.69-3.41,8.06-5.05,16.09-10.2,24.6-14.58,2.02-1.04,6.32-.08,8.66,1.25,7.15,4.05,13.86,8.74,21.26,13.51Z"/>
      <path class="cls-1" d="M379.02,664.49c9.07-5.12,17.75-10.15,26.63-14.89,1.25-.67,3.91-.51,5.13.27,10.33,6.58,20.49,13.39,31.2,20.47-11.85,8.81-22.94,17.06-34.48,25.64-9.49-10.49-18.85-20.84-28.48-31.49Z"/>
      <path class="cls-3" d="M319.61,218.61c-7.85,11.08-7.58,16.56,1.87,36.35-12.19-7.8-23.73-14.79-34.76-22.37-7.07-4.86-10.4-11.83-10.62-19.96-.17-6.14,2.72-10.51,8.54-13.58,11.88-6.28,24.7-7.8,38.15-6.4,2.15.22,4.31.41,7.34.7-6.54-9.1-14.69-15.08-25.47-17.96-14.52-3.88-29.25-3.22-43.83-.65-21.25,3.75-42.14,8.64-61.54,17.76-10.9,5.12-13.06,6.62-22.16,18.68-3.09-3.51-6.41-6.73-9.01-10.36-3.6-5.03-2.36-10.38.29-15.39,5.46-10.28,15.37-15.71,26.84-19.23,47.7-14.67,95.7-14.72,143.95-2.31,20.58,5.29,40.46,12.04,58.77,22.16,5.22,2.88,10.27,2.89,15.4-.23,26.4-16.03,56.21-23.78,87.07-29.06,42.61-7.3,83.72-1.42,123.78,11.85,7.04,2.33,13.35,7.34,18.93,12.12,6.23,5.34,6.09,13.75.77,20.63-2.66,3.45-5.9,6.53-9.23,10.16-8.71-15.76-24.52-21.77-41.25-26.54-19-5.41-38.18-10.32-58.15-11.67-13.24-.89-26.75-2.37-39.14,3.93-6.7,3.4-12.66,7.58-17.17,14.04,12.53.94,24.37,1.72,36.18,2.76,7.25.64,13.57,3.51,18.71,8.09,5.29,4.72,6.27,10.87,3,16.44-3.31,5.62-7.53,11.35-12.91,15.33-8.86,6.55-18.98,11.72-29.01,17.13,2.45-11.29,4.25-22.09-3.73-32.46-.76.85-1.51,1.38-1.8,2.08-8.01,19.04-22.29,33.89-38.85,47.21-3.16,2.54-6.45,4.96-9.56,7.55-4.83,4.02-6.56,8.95-5.96,14.9,1.57,15.62,2.92,31.26,4.13,46.91.66,8.51,2.01,16.83,5.88,24.69.36.73.89,1.39,1.28,2,.6-.08,1.07-.02,1.18-.18,4.48-5.89,10.06-11.37,13.02-17.83,2.31-5.04,1.77-11.29,1.72-16.99-.06-6.85-.95-13.69-.6-20.84,18.33,19.95,36.66,39.9,55.5,60.4-7.96.78-15.17,1.48-23.26,2.27,3.76,3.09,6.84,5.83,10.16,8.31,19.26,14.45,23.89,33.76,22.37,54.98-.87,12.14-5.67,23.06-14.13,32.64-8.94,10.14-20.31,13.67-34.26,10.54-17.72-3.98-33.27-11.59-46.59-22.82-8.67-7.3-9.61-13.31-5.15-23.25,5.04-11.24,15.06-18.16,25.24-25.08,2.63-1.78,5.42-3.44,7.73-5.52,5.93-5.33,6.88-13.88,2.66-20.38-2.22-3.42-5.66-5.19-9.79-4.73-5.85.65-12.02,1.16-17.34,3.22-18.51,7.18-36.73,7.27-55.24.28-4.28-1.62-8.92-2.65-13.5-3.44-10-1.72-16.81,4.56-15.13,13.6,1.54,8.25,7.26,13.46,15.05,17.36,13.24,6.63,21.81,16.62,26.4,29.64,2.99,8.48,1.13,15.31-6.16,21.43-13.49,11.32-28.79,19-47.44,20.4-22.25,1.67-34.36-3.26-43.56-22.7-11.74-24.82-3.37-59.14,18.61-77.41,2.81-2.34,6.02-4.28,9.65-6.83-7.82-.81-14.9-1.54-22.84-2.36,16.1-19.59,31.87-38.79,47.64-57.99.36.08.72.16,1.08.24,0,2.05.06,4.1-.01,6.15-.18,5.09-.12,10.2-.69,15.25-1.07,9.45,2.31,17.48,8.69,24.76,2.22,2.54,4.23,5.22,6.69,8.3,3.82-8.07,5.3-16.13,6.22-24.31,1.99-17.71,3.84-35.43,6.07-53.11.5-4-.79-6.83-3.87-9.39-6.47-5.37-12.62-11.07-19.39-16.11-14.53-10.8-25.06-24.02-31.53-39.91-.49-1.22-1.19-2.36-1.95-3.84ZM404.52,270.58c5.87-4.45,11.36-8.45,16.64-12.65,7.7-6.12,14.41-12.95,18.36-21.69,2.96-6.54,1.59-12.5-2.54-18.63-6.94,10.44-13.62,20.47-20.85,31.35-.47-5.11-.74-9.02-1.2-12.91-.73-6.25-1.67-12.51,7.88-14.46-5.61-8.76-10.81-16.89-16.23-25.36-7.38,7.07-12.92,14.62-16.18,23.44-.45,1.21-.45,3.09.3,4.03,6.53,8.11,1.35,16.37,1.34,24.55l-1.15.24c-5.95-10.22-11.9-20.43-18.04-30.98-6.81,12.03-5.22,23.22,4.93,31.93,8.5,7.29,17.62,14,26.73,21.17Z"/>
      <path class="cls-3" d="M360.01,498.93c-2.81,7.48-5.28,14.07-8.19,21.81,15-7.41,28.8-14.23,43.03-21.27,3.52,12.15,6.98,24.08,10.77,37.13,4.41-12.71,8.41-24.27,12.63-36.44,13.87,7.04,27.5,13.95,42.12,21.37-3.86-8.89-7.3-16.81-11.05-25.45,8.85,4.83,14.92,10.93,19.1,18.45,3.01,5.41,5.66,11.01,8.08,16.66,2.32,5.41,6.08,9.22,11.84,11.98,16.56,7.95,29.99,18.96,38.92,34.04.75,1.27,1.29,2.64,1.02,4.52-10.41-6.77-20.57-13.89-31.3-20.22-10.89-6.41-22.89-10.89-36.18-14.26.39,1.47.46,2.39.86,3.17,5.64,10.86,11.08,21.82,17.14,32.49,1.75,3.09,5.03-2.82,8.12-.58,7.29,5.28,15.15,9.93,22.29,15.35,10.19,7.73,19.8,16.09,29.92,23.9,15.21,11.73,41.36,9.02,49.05-9.75.26-.62.84-1.14,1.47-1.96-2.17,16.42-14.39,21.79-29.12,24.85-7.67,1.59-14.94.14-22.07-2.35-13.95-4.88-24.67-4.88-32.84-15.97-8.61-11.68-19.16-21.62-31.53-30.07-10.83-7.41-18.29-8.89-25.6-18.98-.95-1.32-2.16-2.49-4.26-3.24,2.52,11.57,5,14.66,7.58,26.22,1.3,5.8,2.49,11.65,4.27,17.34,1.37,4.4.39,7.67-3.59,10.39-1.3.89-2.4,2.02-4.21,3.57-1.53-9.59-3.12-18.31-4.24-27.08-.63-4.97-2.66-8.31-7.72-11.1-17.81-9.83-28.13-15.95-31.43-35.44-1.43,4.68-2.36,8.53-3.77,12.23-4.91,12.86-14.04,14.48-26.18,22.32-5.36,3.46-8.34,7.45-8.8,13.59-.61,8.23-2.3,16.39-3.63,25.23-5.72-4.29-10.59-7.24-9.47-15.01,2.39-16.63,3.22-24.96,4.71-41.97-.88,1.2-1.65,2.36-2.54,3.44-13.04,15.72-26.02,23-39.19,38.63-5.88,6.98-11.79,13.98-18.34,20.44-9.79,9.66-21.68,7.72-36.65,8.65-7.9.49-14.89-1.49-20.82-6.27-8.28-6.69-13.07-6.83-17.48-17,1.2.83,1.52.95,1.66,1.16,10.64,17.11,33.55,19.18,50.7,9.02,14.51-8.6,25.76-20.21,36.7-32.08,9.85-10.7,18.14-13.83,24.75-26.42,2.59-4.94,5.73-9.65,8.98-15.07-23.84,5.98-42.72,18.25-61.42,33.13,2.3-9.24,6.6-16.08,13.51-21.18,7.87-5.81,16.07-11.35,24.66-16.24,7.11-4.05,12.12-9.03,15.03-16.15,4.42-10.82,9.99-21.08,20.67-28.24.36-.24.74-.45,2.04-1.25Z"/>
      <path class="cls-3" d="M112.93,249.75c-15.09,1.95-22.21,8.79-26.38,25.12,4.78-1.12,9.16-2.35,13.62-3.15,14.26-2.57,28.44-5.82,42.85-7.27,20.05-2.02,35.72,5.42,47.71,20.21,13.42,16.56,14.95,34.28,9.82,53.56-6.19,23.28-10.04,46.94-8.14,70.96.98,12.37,3.15,24.67,5.15,36.96.74,4.53.47,8.45-2.51,12.39-3.97,5.24-7.37,10.83-11.05,16.26-.68,1.01-1.51,1.93-3.02,3.82-2.05-8.22-3.99-15.27-5.57-22.39-5.24-23.65-7.4-47.61-6.49-71.66.39-10.21,3.24-20.35,5.21-30.49.28-1.45,1.64-3.11,3.04-3.94,4.57-2.71,7.21-6.55,7.47-11.22.61-10.97,1.3-22,.78-32.96-.51-10.89-10.08-19.36-23.87-22.79-16.3-4.06-32.34-2.74-48.11,2.18-10.35,3.23-20.54,6.88-30.86,10.19-3.49,1.12-5.01,3.25-5.03,6.38-.05,6.91-.02,13.81-.02,21.6,25.93-16.76,54.39-22.42,85.29-19.03-1.09,8.52-2.82,9.95-11.97,10.03-24.78.2-45.52,9.19-63.74,23.71-3.35,2.67-4.59,6.06-2.57,9.52,3.77,6.44,7.38,13.17,12.46,18.73,5.41,5.92,12.46,10.62,19.63,16.55,2.13-7.72,4.04-14.33,5.79-20.97,2.85-10.84,5.8-21.66,8.29-32.57,1.02-4.46,3.36-6.69,8.39-6.92,4.35-.2,8.69-.69,13.77-1.11-6.85,27.31-14.73,54.05-13.98,82.4-15.43-3.84-29.24-9.51-41.89-17.56-22.34-14.23-32.47-34.4-35.79-58.15-3.87-27.65,4.05-52.66,20.74-75.6,4.51-6.19,10.54-11.49,16.13-17.48,5.16,5.12,9.75,9.68,14.8,14.69Z"/>
      <path class="cls-3" d="M630.89,477.99c-5.71-7.27-11.01-13.72-15.85-20.44-1.12-1.55-1-4.05-.85-6.08,1.31-17.75,3.77-35.48,3.81-53.23.03-12.88-2.97-25.79-4.86-38.65-2.24-15.23-5.48-30.38-6.9-45.67-1.35-14.43,4.47-27.13,15.69-37.73,9.12-8.62,20.48-12.22,33.37-12.49,19.69-.42,38.66,2.94,57.1,9,2.2.73,4.45,1.34,6.7,1.97.43.12.93.02,1.38.02,2.23-9.92-4.14-18.23-19.31-25.02,3.84-4.64,7.64-9.23,11.59-13.99,8.28,6.25,14.52,13.53,19.18,21.71,15.53,27.27,22.05,55.95,15.56,86.47-3.04,14.28-11.29,25.96-23.05,35.59-15.19,12.43-34.49,17.95-53.6,25.4,0-28.39-7.2-55.07-15.58-81.61.69-.18,1.12-.41,1.54-.39,23.09,1.05,17.79-2.01,23.76,16.67,4.33,13.54,8.28,27.17,12.5,41.09,17.05-7.55,31.76-16.57,36.89-34.17.79-2.7.29-4.46-1.77-6.42-12.99-12.39-29.4-19.17-47.47-22.66-8.04-1.55-16.49-1.51-24.77-1.83-3.5-.14-5.49-1.07-6.51-4.2-.82-2.52-2.35-4.86-3.72-7.59,32.46-4.07,61.69,2.58,88.92,20.26-.54-8.31-.65-15.64-1.69-22.85-.3-2.09-2.87-4.32-5.01-5.72-10.38-6.8-22.58-9.6-34.87-11.94-15.87-3.02-31.82-5.08-48.07-2.15-15.01,2.7-23.81,11.58-24.92,25.39-1.06,13.08,2.4,25.5,6.76,37.79.09.27.14.6.33.78,11.27,10.59,10.57,24.33,11.89,37.42,3.06,30.26-.34,60.5-8.15,95.28Z"/>
      <path class="cls-3" d="M603.7,128.11c1.46-.4,3-.63,4.36-1.21,18.26-7.82,37.76-8.84,57.47-8.44,6.57.14,13.29.15,19.65,1.42,16.75,3.35,26.81,15.76,25.39,32.04-2.17,24.9-10.58,47.9-26.71,68.63-9.88,12.7-23.76,18.67-39.66,22.54-2.48-4.48-2.03-8.76.93-12.83,1.19-1.64,2.62-3.2,4.16-4.58,20.57-18.51,31.23-41.65,38.01-66.49,1.12-4.08.5-8.7-.12-12.98-.63-4.37-4.07-7.3-8.98-7.32-5.88-.02-12.1-.06-17.58,1.55-15.65,4.61-31.18,5.65-47.22,2.06-6.21-1.39-12.66-1.91-19.02-2.71-3.94-.5-6.38-1.99-7.59-5.76-5.33-16.69-16.8-29.85-30.76-41.33-5.76-4.74-12.81-6.81-20.87-5.78-6.93.89-11.15,4.08-12.24,10.8-19.43-6.91-38.1-4.08-57.42,2.56.67-1.16.83-1.88,1.32-2.21,16.75-11.57,34.71-20.73,56.14-23.1,14.63-1.62,28.09,1.56,40.45,8.38,18.71,10.32,33.66,23.56,39.4,43.48.11.38.47.7.87,1.28Z"/>
      <path class="cls-3" d="M206.79,130.05c.87-2.05,1.8-3.7,2.28-5.44,3.62-13.25,11.37-24.27,23.37-32.4,8.09-5.47,16.82-10.43,25.93-14.36,15.13-6.53,30.81-5.08,45.44,1.36,12.59,5.54,24.42,12.5,36.31,19.77-18.99-7.76-38-7.38-56.29-1.23-1.18-.57-1.65-.66-1.69-.84-3.06-11.56-18.17-15.22-28.18-8.07-4.37,3.12-8.52,6.74-11.86,10.75-8.82,10.61-15.01,22.47-18.48,35.38-.99,3.69-2.99,5.43-7.26,5.9-9.48,1.05-18.9,2.62-28.36,3.81-9.49,1.2-18.72.09-27.82-2.61-5.78-1.71-11.69-3.18-17.64-4.33-9.55-1.85-14.14,1.11-16.16,9.67-1.61,6.83-.79,13.51,1.28,20.09,6.88,21.84,17.04,42.13,34.71,58.83,5.27,4.98,7,10.8,4.84,17.71-17.9-3.59-31.92-12.24-41.89-25.94-12.26-16.83-18.51-35.71-21.49-55.45-.94-6.19-.91-12.76.31-18.89,2.89-14.54,15.01-24.08,31.6-25.21,16.1-1.1,32.37-2.27,48.03,2.57,7.65,2.37,14.91,5.74,23,8.92Z"/>
      <path class="cls-3" d="M255.99,275.45c.58,10.9,4.12,20.51,10.45,29.29,10.06,13.95,21.1,17.09,38.65,11.98,5.48-1.59,11.66-1.23,18.08-1.81-1.16,10.86-4.13,20.33-11.93,27.68-10.06,9.48-20.41,18.78-31.37,27.39-13.11,10.29-26.67,8.5-37.25-4.04-9.97-11.82-12.97-25.5-12.42-39.92.49-12.82,4.11-25.06,10.19-36.67,3.23-6.17,8.19-10.81,15.6-13.9Z"/>
      <path class="cls-3" d="M554.04,276.43c7.6,3.03,14.18,6.63,17.65,13.19,8.78,16.58,14.56,33.92,10.6,52.42-1.72,8.01-4.75,16.23-9.33,23.22-8.33,12.72-22.75,14.38-35.79,5.38-12.76-8.8-25.32-17.96-33.7-30.49-4.54-6.79-7.21-14.6-10.69-21.96-1.02-2.16-.26-3.47,2.42-3.06,6.3.96,12.8,1.48,18.79,3.32,12.92,3.97,24.56.58,30.69-10.38,3.65-6.52,6.73-13.38,9.16-20.35,1.16-3.32.2-7.23.2-11.29Z"/>
      <path class="cls-3" d="M160.93,623.39c4.95,9.9,9.72,10.97,14.73,21.01-8.55-.99-14.95-4.35-18.29-10.62-6.03-11.3-11.24-14.47-16.74-26-.27-.56-.03-1.32-.03-2.14,22.28,2.66,40.33-5.24,56.4-17.72,13.77-10.7,25.51-14.56,34.11-29.06,5.31-8.95,10.12-18.15,15.01-27.3,7.38-13.84,15.72-27.05,28.77-37.34,1.41-1.11,2.88-2.16,4.84-3.61,3.85,4.17,7.59,8.22,11.66,12.64-8.41,1.98-13.08,7.15-16.93,13.1-10.37,16.06-17.11,33.02-15.23,51.95,1.26,12.72,5.23,16.13,14.8,26.47-5.36,4.59-10.65,9.12-16.22,13.89-10.11-12.72-16.16-18.25-21.52-33.38-22.33,22.3-43.38,36.69-75.35,48.11Z"/>
      <path class="cls-3" d="M640.68,644.52c4.26-9.96,8.26-10.84,12.36-20.44-16.37-5.15-30.75-12.65-43.1-23.21-12.04-10.29-24.2-11.98-36.2-22.12-5.83,11.97-12.32,16.84-19.05,30.68-5.07-4.92-9.83-9.54-14.87-14.43,13.65-16.02,16.33-25.58,12.61-44.89-3.72-19.28-13.03-35.48-31.65-47.07,4.19-3.98,8.13-7.73,12.84-12.2,5.2,5.6,10.91,10.41,14.81,16.21,9.96,14.85,19.13,30.12,28.58,45.25,11.46,18.33,24.47,27.05,43.18,40.17,10.13,7.1,21.13,13.02,33.87,14.82,6.55.92,13.53-.62,20.6-1.07-2.93,9.93-6.68,20.38-12.45,30.22-4.32,7.36-9.87,4.92-19.15,7.36-.54.14-1.07.32-2.36.7Z"/>
      <path class="cls-3" d="M725.11,425.34c-19.3,5.82-37.78,11.4-56.78,17.13,0-4.62-.25-8.71.16-12.75.11-1.14,1.93-2.65,3.32-3.08,8.28-2.55,16.96-4.23,24.95-7.35,13.02-5.1,25.62-11.07,38.38-16.72,2.37-1.05,4.62-2.33,6.95-3.52,7.25,14.75-1.69,65.5-15.08,84.92-3.36-4.79-6.86-9.25-9.63-14.05-.89-1.54-.34-4.13.36-5.98,4.64-12.26,6.13-24.95,7.39-38.59Z"/>
      <path class="cls-3" d="M393.97,158.71c-45.58-16.31-90.59-30.12-140.26-20.37,0-4.38-.6-8.51.25-12.38.42-1.92,3.17-4.16,5.42-4.91,31.49-10.57,62.12-8.68,90.65,7.44,14.7,8.31,28.07,18.53,42.01,27.91.54.36.85,1,1.92,2.31Z"/>
      <path class="cls-3" d="M86.27,485.33c-12.72-20.89-22.39-53.92-17.13-87.66.99.58,1.9.98,2.65,1.56,19.43,15.11,41.87,24.61,67.05,28.8,3.18.53,4.69,1.31,4.82,4.31.13,2.92.78,5.81,1.25,9.06-19.89-2.94-38.54-8.31-57.45-15.38,1.19,13.39,2.55,25.97,7.59,37.95,1.16,2.75,1.17,4.94-.54,7.51-2.89,4.34-5.35,8.93-8.24,13.84Z"/>
      <path class="cls-3" d="M421.16,157.55c.8-1.48.95-2.07,1.35-2.45,18.7-17.99,39.32-33.33,67.02-38.63,17.96-3.44,35.21-.16,52.18,5.02,10.94,3.34,11.65,4.53,9.79,16.17-45.89-8.8-88.11,3.24-130.33,19.89Z"/>
      <path class="cls-3" d="M350.76,714.85c-14.19,19.44-24.12,39.97-28.72,62.47-1.2,5.87-1.45,11.99-1.22,17.96.27,6.94-2.83,11.7-9.38,14.81-3.71,1.76-7.63,3.18-12,4.98-2.91-6.8-5.99-13.53-8.56-20.42-.52-1.38.53-3.56,1.51-5.02,10.44-15.55,21.02-31.02,31.72-46.75-11.51-3.38-20.74-10.83-28.04-20.85,1.74-1.75,3.49-3.51,5.53-5.57,4.3,3.28,8.36,6.54,12.6,9.58,7.78,5.57,11.35,5.37,19.12-.04,5.64-3.92,11.6-7.45,17.42-11.16Z"/>
      <path class="cls-3" d="M480.08,747.07c4.74-1.6,8.3-.56,10.72,2.72,9.98,13.53,19.84,27.13,29.61,40.78.73,1.02.91,2.82.45,3.98-2.8,7.15-5.86,14.22-9,21.72-5.73-3.06-11.19-5.76-16.36-8.86-1.28-.76-2.47-2.87-2.28-4.2,2.31-16.43-3.02-31.58-9.23-46.61-1.29-3.13-2.58-6.27-3.91-9.52Z"/>
      <path class="cls-3" d="M261.52,666.14c-6.49-2.39-12.53-4.6-19.18-7.05,0,7.51-.14,14.5.07,21.49.08,2.62-.86,3.99-3.48,5.16-7.98,3.55-15.79,7.39-24.15,11.34-3.61-4.62-7.17-9.17-10.92-13.97,13.88-9.53,22.91-22.12,30.36-36.42,9.92,5.8,20,10.82,32.99,9.69-2.05,3.51-3.75,6.44-5.69,9.76Z"/>
      <path class="cls-3" d="M577.37,648.11c8.43,11.58,16.73,22.88,24.85,34.28.62.87.61,2.78-.05,3.58-3.55,4.3-7.39,8.39-11.45,12.92-6.59-5.01-13.19-9.71-19.29-14.88-1.45-1.23-1.8-4.06-1.7-6.12.3-6.05,1.08-12.08,1.75-18.87-6.09,2.25-11.6,4.28-17.49,6.46-2.03-3-3.94-5.82-6.24-9.2,11.26.34,20.85-2.56,29.62-8.16Z"/>
      <path class="cls-3" d="M594.84,352.96c7.98,28.18,5.05,56.66,1.44,86.21-6.01-4.26-11.59-8.15-17.02-12.2-.57-.42-.46-1.88-.26-2.79,5.25-23.75,10.54-47.48,15.84-71.22Z"/>
      <path class="cls-3" d="M584.28,205.77c5.13,2,10.69,3.43,15.28,6.17,4.7,2.81,9.29,6.39,12.43,10.55,5.33,7.04,9.49,14.79,14.48,22.79-5.55,5.75-11.69,12.1-17.26,17.87-7.48-7.29-14.83-14.45-21.84-21.28h16.06c-4.85-13.12-11.2-24.83-19.16-36.09Z"/>
      <path class="cls-3" d="M218.2,352.69c6.47,24.45,7.8,49.77,17.61,73.73-6.29,4.11-12.45,8.12-19.29,12.59-2.61-29.36-3.97-57.89,1.68-86.32Z"/>
      <path class="cls-3" d="M224.85,207.34c-7.15,11.82-13.77,22.75-20.74,34.25h17.41c-9.7,6.43-18.46,13.25-23.15,24.48-4.76-6.78-9.38-12.85-13.28-19.28-.89-1.46.12-4.45,1.26-6.2,4.35-6.67,9.16-13.1,13.69-19.67,3.09-4.48,7.04-7.76,12.84-9.27,3.71-.97,7.21-2.56,11.95-4.29Z"/>
      <path class="cls-2" d="M269.9,259.82c14.17,4.36,27.82,6.85,37.99,16.09,1.19,1.08,2.54,2.23,3.17,3.59,1.73,3.76,3.82,7.86.8,11.64-3.07,3.84-8.06,3.29-12.56,2.82-6.23-.65-11.21-3.24-14.36-8.38-4.53-7.4-9.19-14.72-13.75-22.1-.47-.76-.61-1.69-1.29-3.64Z"/>
      <path class="cls-2" d="M536.64,262.29c-4.4,9.16-6.45,19.32-13.92,27.19-5.32,5.6-14.87,6.37-21.43,2.41-2.92-1.76-4.78-4.2-2.92-7.14,2.33-3.71,4.59-8.21,8.31-10.3,9.06-5.1,18.94-9.02,28.49-13.41.49.42.99.84,1.48,1.26Z"/>
      <path class="cls-3" d="M510.9,716.21c1.25,1.3,2.45,2.56,3.91,4.08-8.43,12.26-20.37,20.3-35.51,25.2-7.6-10.58-15.12-21.03-22.64-31.49.39-.35.78-.71,1.17-1.06,6.05,4.52,12.25,8.88,18.1,13.6,5.5,4.44,7.3,5.01,13.66,1.66,7.13-3.76,14.03-7.87,21.31-11.99Z"/>
      <path class="cls-3" d="M518.21,750.27c4.77-3.31,9.32-6.47,14.2-9.86,4.83,3.48,9.66,6.95,14.74,10.6-3.87,5.75-7.57,11.25-11.73,17.43-5.85-6.17-11.43-12.07-17.22-18.18Z"/>
      <path class="cls-3" d="M277.11,768.54c-4.62-6.51-8.8-12.39-13.23-18.62,4.75-3.23,9.45-6.43,14.64-9.96,4.11,3.47,8.15,6.88,12.48,10.53-4.56,5.93-8.98,11.67-13.89,18.05Z"/>
      <path class="cls-3" d="M411.47,758.9c-5.51.22-10.07.4-15.77.63,3.45-2.75,6.09-4.85,8.79-7.01,2.2,2.02,4.24,3.88,6.98,6.38Z"/>
      <path class="cls-1" d="M404.52,270.58c-9.11-7.17-18.23-13.88-26.73-21.17-10.15-8.7-11.74-19.89-4.93-31.93,6.14,10.55,12.09,20.77,18.04,30.98l1.15-.24c0-8.17,5.19-16.43-1.34-24.55-.76-.94-.75-2.82-.3-4.03,3.26-8.81,8.81-16.37,16.18-23.44,5.42,8.47,10.62,16.6,16.23,25.36-9.55,1.95-8.62,8.22-7.88,14.46.46,3.89.73,7.81,1.2,12.91,7.23-10.87,13.91-20.91,20.85-31.35,4.14,6.13,5.51,12.09,2.54,18.63-3.95,8.73-10.67,15.56-18.36,21.69-5.28,4.2-10.77,8.2-16.64,12.65Z"/>
    </g>
  </g>
</svg>