<?xml version="1.0" encoding="UTF-8"?>
<svg id="Layer_2" data-name="Layer 2" xmlns="http://www.w3.org/2000/svg" xmlns:xlink="http://www.w3.org/1999/xlink" viewBox="0 0 2018.21 550">
  <defs>
    <style>
      .cls-1 {
        fill: #fff;
      }

      .cls-2 {
        fill: none;
      }

      .cls-3 {
        clip-path: url(#clippath-1);
      }

      .cls-4 {
        fill: #0b2a5b;
      }

      .cls-5 {
        fill: #e4e6ed;
      }

      .cls-6 {
        fill: #ea1836;
      }

      .cls-7 {
        clip-path: url(#clippath);
      }
    </style>
    <clipPath id="clippath">
      <path class="cls-2" d="M76.23,288.11c-1.41-3-1.96-6.31-1.59-9.59l20.36-183.04,178.62-44.46c.25-.06.5-.09.76-.09s.51.03.75.09l178.63,44.46,20.37,183.04c.37,3.28-.18,6.59-1.59,9.59-10.14,21.5-386.18,21.5-396.31,0Z"/>
    </clipPath>
    <clipPath id="clippath-1">
      <polygon class="cls-2" points="274.38 405.51 216.41 474.23 91.72 330.61 274.39 330.52 457.04 330.61 332.35 474.23 274.38 405.51"/>
    </clipPath>
  </defs>
  <g id="Layer_1-2" data-name="Layer 1">
    <g>
      <g>
        <g>
          <polygon class="cls-5" points="638.49 172.86 623.61 158.5 623.61 74.97 638.49 60.61 740.58 60.61 753.74 73.63 753.74 100.28 723.39 100.28 723.39 90.1 653.96 90.1 653.96 143.37 723.39 143.37 723.39 133.19 753.74 133.19 753.74 159.83 740.58 172.86 638.49 172.86"/>
          <polygon class="cls-1" points="639.7 63.61 626.61 76.24 626.61 157.23 639.7 169.86 739.35 169.86 750.74 158.58 750.74 136.19 726.39 136.19 726.39 146.37 650.96 146.37 650.96 87.1 726.39 87.1 726.39 97.28 750.74 97.28 750.74 74.89 739.35 63.61 639.7 63.61"/>
          <polygon class="cls-5" points="643.43 160.8 635.76 153.41 635.76 80.06 643.43 72.67 735.55 72.67 741.59 78.64 741.59 88.21 735.54 88.21 735.54 81.27 732.27 78.03 645.08 78.03 641.81 81.27 641.81 152.2 645.08 155.43 732.27 155.43 735.54 152.2 735.54 145.26 741.59 145.26 741.59 154.83 735.55 160.8 643.43 160.8"/>
        </g>
        <g>
          <path class="cls-5" d="M865.9,171.25v-23.25h-71.58v23.25h-29.28v-97.38l13.26-13.26h103.63l13.26,13.26v97.38h-29.28ZM865.9,118.74v-28.88h-71.58v28.88h71.58Z"/>
          <path class="cls-1" d="M768.04,75.11v93.14h23.28v-23.25h77.58v23.25h23.28v-93.14l-11.5-11.5h-101.14l-11.5,11.5ZM868.9,121.74h-77.58v-34.88h77.58v34.88Z"/>
          <path class="cls-5" d="M877.9,159.25v-23.25h-95.58v23.25h-5.28v-80.41l6.23-6.23h93.68l6.23,6.23v80.41h-5.28ZM782.32,130.74h95.58v-49.88l-3-3h-89.58l-3,3v49.88Z"/>
        </g>
        <g>
          <path class="cls-5" d="M1431.79,171.25v-23.25h-71.58v23.25h-29.28v-97.38l13.26-13.26h103.63l13.26,13.26v97.38h-29.28ZM1431.79,118.74v-28.88h-71.58v28.88h71.58Z"/>
          <path class="cls-1" d="M1333.93,75.11v93.14h23.28v-23.25h77.58v23.25h23.28v-93.14l-11.5-11.5h-101.14l-11.5,11.5ZM1434.79,121.74h-77.58v-34.88h77.58v34.88Z"/>
          <path class="cls-5" d="M1443.79,159.25v-23.25h-95.58v23.25h-5.28v-80.41l6.23-6.23h93.68l6.23,6.23v80.41h-5.28ZM1348.21,130.74h95.58v-49.88l-3-3h-89.58l-3,3v49.88Z"/>
        </g>
        <g>
          <path class="cls-5" d="M906.51,171.25V60.61h116.88l13.26,13.26v60.88l-13.26,13.26h-88.31v23.25h-28.57ZM1008.08,118.74v-28.88h-73v28.88h73Z"/>
          <path class="cls-1" d="M909.51,63.61v104.64h22.57v-23.25h90.07l11.5-11.5v-58.39l-11.5-11.5h-112.64ZM1011.08,121.74h-79v-34.88h79v34.88Z"/>
          <path class="cls-5" d="M918.51,159.25v-86.64h99.91l6.23,6.23v50.93l-6.23,6.23h-95.34v23.25h-4.57ZM923.08,130.74h93l4-4v-44.88l-4-4h-93v52.88Z"/>
        </g>
        <g>
          <polygon class="cls-5" points="1047.98 171.25 1047.98 142 1098.76 142 1098.76 89.86 1047.98 89.86 1047.98 60.61 1178.12 60.61 1178.12 89.86 1127.33 89.86 1127.33 142 1178.12 142 1178.12 171.25 1047.98 171.25"/>
          <polygon class="cls-1" points="1124.33 145 1175.12 145 1175.12 168.25 1050.98 168.25 1050.98 145 1101.76 145 1101.76 86.86 1050.98 86.86 1050.98 63.61 1175.12 63.61 1175.12 86.86 1124.33 86.86 1124.33 145"/>
          <polygon class="cls-5" points="1059.98 159.25 1059.98 154 1110.76 154 1110.76 77.86 1059.98 77.86 1059.98 72.61 1166.12 72.61 1166.12 77.86 1115.33 77.86 1115.33 154 1166.12 154 1166.12 159.25 1059.98 159.25"/>
        </g>
        <g>
          <polygon class="cls-5" points="1240.25 171.25 1240.25 89.86 1189.46 89.86 1189.46 60.61 1319.6 60.61 1319.6 89.86 1268.82 89.86 1268.82 171.25 1240.25 171.25"/>
          <polygon class="cls-1" points="1316.6 63.61 1316.6 86.86 1265.82 86.86 1265.82 168.25 1243.25 168.25 1243.25 86.86 1192.46 86.86 1192.46 63.61 1316.6 63.61"/>
          <polygon class="cls-5" points="1252.25 159.25 1252.25 77.86 1201.46 77.86 1201.46 72.61 1307.6 72.61 1307.6 77.86 1256.82 77.86 1256.82 159.25 1252.25 159.25"/>
        </g>
        <g>
          <polygon class="cls-5" points="1472.4 171.25 1472.4 60.61 1500.97 60.61 1500.97 142 1602.54 142 1602.54 171.25 1472.4 171.25"/>
          <polygon class="cls-1" points="1599.54 145 1599.54 168.25 1475.4 168.25 1475.4 63.61 1497.97 63.61 1497.97 145 1599.54 145"/>
          <polygon class="cls-5" points="1484.4 159.25 1484.4 72.61 1488.97 72.61 1488.97 154 1590.54 154 1590.54 159.25 1484.4 159.25"/>
        </g>
      </g>
      <g>
        <g>
          <polygon class="cls-5" points="922.85 331.13 907.96 316.78 907.96 233.24 922.85 218.88 1024.94 218.88 1038.1 231.91 1038.1 258.55 1007.74 258.55 1007.74 248.37 938.32 248.37 938.32 301.64 1007.74 301.64 1007.74 291.46 1038.1 291.46 1038.1 318.11 1024.94 331.13 922.85 331.13"/>
          <polygon class="cls-1" points="924.06 221.88 910.96 234.51 910.96 315.5 924.06 328.14 1023.71 328.14 1035.1 316.85 1035.1 294.46 1010.74 294.46 1010.74 304.64 935.32 304.64 935.32 245.37 1010.74 245.37 1010.74 255.55 1035.1 255.55 1035.1 233.16 1023.71 221.88 924.06 221.88"/>
          <polygon class="cls-5" points="927.78 319.07 920.12 311.68 920.12 238.33 927.78 230.94 1019.91 230.94 1025.94 236.91 1025.94 246.49 1019.9 246.49 1019.9 239.54 1016.63 236.31 929.43 236.31 926.16 239.54 926.16 310.47 929.43 313.71 1016.63 313.71 1019.9 310.47 1019.9 303.53 1025.94 303.53 1025.94 313.1 1019.91 319.07 927.78 319.07"/>
        </g>
        <g>
          <path class="cls-5" d="M780.67,331.13l-14.88-14.36v-83.54l14.88-14.36h102.09l13.16,13.03v86.2l-13.16,13.03h-102.09ZM865.56,301.64v-53.27h-69.42v53.27h69.42Z"/>
          <path class="cls-1" d="M881.53,221.88h-99.65l-13.09,12.63v80.99l13.09,12.63h99.65l11.39-11.28v-83.7l-11.39-11.28ZM868.56,304.64h-75.42v-59.27h75.42v59.27Z"/>
          <path class="cls-5" d="M877.73,230.94h-92.13l-7.67,7.39v73.35l7.67,7.39h92.13l6.03-5.97v-76.18l-6.03-5.97ZM877.72,310.47l-3.27,3.24h-87.2l-3.27-3.24v-70.93l3.27-3.24h87.2l3.27,3.24v70.93Z"/>
        </g>
        <g>
          <polygon class="cls-5" points="723.39 331.13 723.39 289.76 653.96 289.76 653.96 331.13 623.61 331.13 623.61 218.88 653.96 218.88 653.96 260.26 723.39 260.26 723.39 218.88 753.74 218.88 753.74 331.13 723.39 331.13"/>
          <polygon class="cls-1" points="726.39 221.88 726.39 263.26 650.96 263.26 650.96 221.88 626.61 221.88 626.61 328.14 650.96 328.14 650.96 286.76 726.39 286.76 726.39 328.14 750.74 328.14 750.74 221.88 726.39 221.88"/>
          <polygon class="cls-5" points="735.54 319.07 735.54 277.69 641.81 277.69 641.81 319.07 635.76 319.07 635.76 230.94 641.81 230.94 641.81 272.32 735.54 272.32 735.54 230.94 741.59 230.94 741.59 319.07 735.54 319.07"/>
        </g>
        <g>
          <polygon class="cls-5" points="1148.23 331.13 1124.23 289.76 1080.54 289.76 1080.54 331.13 1050.18 331.13 1050.18 218.88 1080.54 218.88 1080.54 260.26 1124.23 260.26 1148.23 218.88 1182.46 218.88 1150.76 275.01 1182.46 331.13 1148.23 331.13"/>
          <polygon class="cls-1" points="1149.96 221.88 1125.96 263.26 1077.54 263.26 1077.54 221.88 1053.18 221.88 1053.18 328.14 1077.54 328.14 1077.54 286.76 1125.96 286.76 1149.96 328.14 1177.32 328.14 1147.32 275.01 1177.32 221.88 1149.96 221.88"/>
          <polygon class="cls-5" points="1155.72 318.13 1131.72 276.76 1067.54 276.76 1067.54 318.13 1063.18 318.13 1063.18 231.88 1067.54 231.88 1067.54 273.26 1131.72 273.26 1155.72 231.88 1160.19 231.88 1135.83 275.01 1160.19 318.13 1155.72 318.13"/>
        </g>
        <g>
          <polygon class="cls-5" points="1193.86 331.13 1193.86 218.88 1324 218.88 1324 248.38 1224.22 248.38 1224.22 260.26 1299.64 260.26 1299.64 289.76 1224.22 289.76 1224.22 301.64 1324 301.64 1324 331.13 1193.86 331.13"/>
          <polygon class="cls-1" points="1321 245.38 1321 221.88 1196.86 221.88 1196.86 328.13 1321 328.13 1321 304.64 1221.22 304.64 1221.22 286.76 1296.64 286.76 1296.64 263.26 1221.22 263.26 1221.22 245.38 1321 245.38"/>
          <polygon class="cls-5" points="1205.86 319.13 1205.86 230.88 1312 230.88 1312 236.38 1212.22 236.38 1212.22 272.26 1287.64 272.26 1287.64 277.76 1212.22 277.76 1212.22 313.64 1312 313.64 1312 319.13 1205.86 319.13"/>
        </g>
        <g>
          <polygon class="cls-5" points="1386.01 331.13 1386.01 289.76 1336.12 289.76 1336.12 218.88 1366.47 218.88 1366.47 260.26 1435.9 260.26 1435.9 218.88 1466.25 218.88 1466.25 289.76 1416.36 289.76 1416.36 331.13 1386.01 331.13"/>
          <polygon class="cls-1" points="1463.25 221.88 1438.9 221.88 1438.9 263.26 1363.47 263.26 1363.47 221.88 1339.12 221.88 1339.12 286.76 1389.01 286.76 1389.01 328.13 1413.36 328.13 1413.36 286.76 1463.25 286.76 1463.25 221.88"/>
          <polygon class="cls-5" points="1398.01 319.13 1398.01 277.76 1348.12 277.76 1348.12 230.88 1354.47 230.88 1354.47 272.26 1447.9 272.26 1447.9 230.88 1454.25 230.88 1454.25 277.76 1404.36 277.76 1404.36 319.13 1398.01 319.13"/>
        </g>
      </g>
      <g>
        <g>
          <polygon class="cls-5" points="638.49 491.39 623.61 477.03 623.61 393.49 638.49 379.14 740.58 379.14 753.74 392.16 753.74 418.81 723.39 418.81 723.39 408.63 653.96 408.63 653.96 461.9 723.39 461.9 723.39 451.72 753.74 451.72 753.74 478.36 740.58 491.39 638.49 491.39"/>
          <polygon class="cls-1" points="639.7 382.14 626.61 394.77 626.61 475.76 639.7 488.39 739.34 488.39 750.74 477.11 750.74 454.72 726.39 454.72 726.39 464.9 650.95 464.9 650.95 405.63 726.39 405.63 726.39 415.81 750.74 415.81 750.74 393.42 739.34 382.14 639.7 382.14"/>
          <polygon class="cls-5" points="643.42 479.33 635.76 471.94 635.76 398.59 643.42 391.2 735.55 391.2 741.59 397.17 741.59 406.74 735.54 406.74 735.54 399.8 732.27 396.56 645.07 396.56 641.8 399.8 641.8 470.73 645.07 473.96 732.27 473.96 735.54 470.73 735.54 463.79 741.59 463.79 741.59 473.36 735.55 479.33 643.42 479.33"/>
        </g>
        <g>
          <polygon class="cls-5" points="1762.63 491.39 1747.75 477.03 1747.75 393.49 1762.63 379.14 1864.72 379.14 1877.89 392.16 1877.89 418.81 1847.53 418.81 1847.53 408.63 1778.1 408.63 1778.1 461.9 1847.53 461.9 1847.53 451.72 1877.89 451.72 1877.89 478.36 1864.72 491.39 1762.63 491.39"/>
          <polygon class="cls-1" points="1763.84 382.14 1750.75 394.77 1750.75 475.76 1763.84 488.39 1863.49 488.39 1874.89 477.11 1874.89 454.72 1850.53 454.72 1850.53 464.9 1775.1 464.9 1775.1 405.63 1850.53 405.63 1850.53 415.81 1874.89 415.81 1874.89 393.42 1863.49 382.14 1763.84 382.14"/>
          <polygon class="cls-5" points="1767.57 479.33 1759.91 471.94 1759.91 398.59 1767.57 391.2 1859.69 391.2 1865.73 397.17 1865.73 406.74 1859.69 406.74 1859.69 399.8 1856.42 396.56 1769.21 396.56 1765.94 399.8 1765.94 470.73 1769.21 473.96 1856.42 473.96 1859.69 470.73 1859.69 463.79 1865.73 463.79 1865.73 473.36 1859.69 479.33 1767.57 479.33"/>
        </g>
        <g>
          <path class="cls-5" d="M778.77,491.39l-14.88-14.36v-83.54l14.88-14.36h102.09l13.16,13.03v86.2l-13.16,13.03h-102.09ZM863.67,461.9v-53.27h-69.42v53.27h69.42Z"/>
          <path class="cls-1" d="M879.63,382.14h-99.65l-13.09,12.63v80.99l13.09,12.63h99.65l11.39-11.28v-83.7l-11.39-11.28ZM866.67,464.9h-75.42v-59.27h75.42v59.27Z"/>
          <path class="cls-5" d="M875.84,391.2h-92.13l-7.67,7.39v73.35l7.67,7.39h92.13l6.03-5.97v-76.18l-6.03-5.97ZM875.82,470.73l-3.27,3.24h-87.2l-3.27-3.24v-70.93l3.27-3.24h87.2l3.27,3.24v70.93Z"/>
        </g>
        <g>
          <polygon class="cls-5" points="1003.99 491.39 1003.99 408.63 934.57 408.63 934.57 491.39 904.21 491.39 904.21 393.49 919.09 379.14 1021.19 379.14 1034.34 392.16 1034.34 491.39 1003.99 491.39"/>
          <polygon class="cls-1" points="1019.95 382.14 920.3 382.14 907.21 394.77 907.21 488.39 931.57 488.39 931.57 405.63 1006.99 405.63 1006.99 488.39 1031.34 488.39 1031.34 393.42 1019.95 382.14"/>
          <polygon class="cls-5" points="1015.99 479.39 1015.99 399.63 1012.99 396.63 925.57 396.63 922.57 399.63 922.57 479.39 916.21 479.39 916.21 398.59 923.94 391.14 1016.25 391.14 1022.34 397.17 1022.34 479.39 1015.99 479.39"/>
        </g>
        <g>
          <polygon class="cls-5" points="1707.21 491.39 1707.21 408.63 1637.79 408.63 1637.79 491.39 1607.43 491.39 1607.43 393.49 1622.31 379.14 1724.41 379.14 1737.57 392.16 1737.57 491.39 1707.21 491.39"/>
          <polygon class="cls-1" points="1723.17 382.14 1623.52 382.14 1610.43 394.77 1610.43 488.39 1634.79 488.39 1634.79 405.63 1710.21 405.63 1710.21 488.39 1734.57 488.39 1734.57 393.42 1723.17 382.14"/>
          <polygon class="cls-5" points="1719.21 479.39 1719.21 399.63 1716.21 396.63 1628.79 396.63 1625.79 399.63 1625.79 479.39 1619.43 479.39 1619.43 398.59 1627.16 391.14 1719.47 391.14 1725.57 397.17 1725.57 479.39 1719.21 479.39"/>
        </g>
        <g>
          <polygon class="cls-5" points="1044.57 491.39 1044.57 379.13 1174.7 379.13 1174.7 408.63 1074.92 408.63 1074.92 420.51 1150.35 420.51 1150.35 450.01 1074.92 450.01 1074.92 491.39 1044.57 491.39"/>
          <polygon class="cls-1" points="1171.7 405.63 1171.7 382.14 1047.57 382.14 1047.57 488.39 1071.92 488.39 1071.92 447.01 1147.35 447.01 1147.35 423.51 1071.92 423.51 1071.92 405.63 1171.7 405.63"/>
          <polygon class="cls-5" points="1056.57 479.39 1056.57 391.13 1162.7 391.13 1162.7 396.63 1062.92 396.63 1062.92 432.51 1138.35 432.51 1138.35 438.01 1062.92 438.01 1062.92 479.39 1056.57 479.39"/>
        </g>
        <g>
          <polygon class="cls-5" points="1888.07 491.39 1888.07 379.13 2018.21 379.13 2018.21 408.63 1918.43 408.63 1918.43 420.51 1993.85 420.51 1993.85 450.01 1918.43 450.01 1918.43 461.89 2018.21 461.89 2018.21 491.39 1888.07 491.39"/>
          <polygon class="cls-1" points="2015.21 405.63 2015.21 382.14 1891.07 382.14 1891.07 488.39 2015.21 488.39 2015.21 464.89 1915.43 464.89 1915.43 447.01 1990.85 447.01 1990.85 423.51 1915.43 423.51 1915.43 405.63 2015.21 405.63"/>
          <polygon class="cls-5" points="1900.07 479.39 1900.07 391.14 2006.21 391.14 2006.21 396.63 1906.43 396.63 1906.43 432.51 1981.85 432.51 1981.85 438.01 1906.43 438.01 1906.43 473.89 2006.21 473.89 2006.21 479.39 1900.07 479.39"/>
        </g>
        <g>
          <polygon class="cls-5" points="1184.92 491.39 1184.92 379.13 1315.06 379.13 1315.06 408.63 1215.28 408.63 1215.28 420.51 1290.71 420.51 1290.71 450.01 1215.28 450.01 1215.28 461.89 1315.06 461.89 1315.06 491.39 1184.92 491.39"/>
          <polygon class="cls-1" points="1312.06 405.63 1312.06 382.14 1187.93 382.14 1187.93 488.39 1312.06 488.39 1312.06 464.89 1212.28 464.89 1212.28 447.01 1287.71 447.01 1287.71 423.51 1212.28 423.51 1212.28 405.63 1312.06 405.63"/>
          <polygon class="cls-5" points="1196.93 479.39 1196.93 391.14 1303.06 391.14 1303.06 396.63 1203.28 396.63 1203.28 432.51 1278.71 432.51 1278.71 438.01 1203.28 438.01 1203.28 473.89 1303.06 473.89 1303.06 479.39 1196.93 479.39"/>
        </g>
        <g>
          <polygon class="cls-5" points="1467.07 491.39 1467.07 379.13 1597.21 379.13 1597.21 408.63 1497.43 408.63 1497.43 420.51 1572.85 420.51 1572.85 450.01 1497.43 450.01 1497.43 461.89 1597.21 461.89 1597.21 491.39 1467.07 491.39"/>
          <polygon class="cls-1" points="1594.21 405.63 1594.21 382.14 1470.07 382.14 1470.07 488.39 1594.21 488.39 1594.21 464.89 1494.43 464.89 1494.43 447.01 1569.85 447.01 1569.85 423.51 1494.43 423.51 1494.43 405.63 1594.21 405.63"/>
          <polygon class="cls-5" points="1479.07 479.39 1479.07 391.14 1585.21 391.14 1585.21 396.63 1485.43 396.63 1485.43 432.51 1560.85 432.51 1560.85 438.01 1485.43 438.01 1485.43 473.89 1585.21 473.89 1585.21 479.39 1479.07 479.39"/>
        </g>
        <g>
          <path class="cls-5" d="M1423.34,490.58l-13.49-23.25h-56v23.25h-28.57v-110.64h116.88l13.26,13.26v60.88l-11.81,11.81,13.95,24.7h-34.22ZM1426.85,438.07v-28.88h-73v28.88h73Z"/>
          <path class="cls-1" d="M1452.42,452.83v-58.39l-11.5-11.5h-112.64v104.64h22.57v-23.25h60.73l13.49,23.25h27.36l-13.13-23.25h1.63l11.5-11.5ZM1350.85,406.19h79v34.88h-79v-34.88Z"/>
          <path class="cls-5" d="M1430.25,478.58l-13.49-23.25h-74.91v23.25h-4.57v-86.64h99.91l6.23,6.23v50.93l-6.23,6.23h-13.32l13.13,23.25h-6.75ZM1341.85,450.07h93l4-4v-44.88l-4-4h-93v52.88Z"/>
        </g>
      </g>
      <g>
        <path class="cls-6" d="M60.74,295.27c-2.75-5.82-3.81-12.27-12.08-18.65l20.94-188.07c9.45-3.96,12.38-7.28,16.28-8.25l183.58-45.7c1.61-.4,3.27-.6,4.92-.6s3.31.2,4.92.6l183.58,45.7c3.91.97,6.84,4.29,16.28,8.25l16.44,188.07c-8.27,6.38-4.84,12.82-7.58,18.65-10.65,22.58-416.64,22.58-427.29,0Z"/>
        <path class="cls-1" d="M76.23,288.11c-1.41-3-1.96-6.31-1.59-9.59l20.36-183.04,178.62-44.46c.25-.06.5-.09.76-.09s.51.03.75.09l178.63,44.46,20.37,183.04c.37,3.28-.18,6.59-1.59,9.59-10.14,21.5-386.18,21.5-396.31,0Z"/>
        <g class="cls-7">
          <g>
            <rect class="cls-5" x="440.37" y="180.66" width="33.87" height="331.43"/>
            <rect class="cls-6" x="379.39" y="180.66" width="33.87" height="331.43"/>
            <rect class="cls-6" x="318.42" y="180.66" width="33.87" height="331.43"/>
            <rect class="cls-6" x="257.45" y="180.66" width="33.87" height="138.4"/>
            <rect class="cls-6" x="196.47" y="180.66" width="33.87" height="331.43"/>
            <rect class="cls-6" x="135.5" y="180.66" width="33.87" height="331.43"/>
            <rect class="cls-5" x="74.52" y="180.66" width="33.87" height="331.43"/>
          </g>
        </g>
        <polygon class="cls-5" points="274.38 481.93 216.95 550 66.52 376.74 0 376.74 31.4 260.59 0 144.45 39.62 144.45 49.67 56.31 274.38 0 499.41 56.39 505.05 144.45 550 144.45 518.6 260.59 550 376.74 482.24 376.74 331.81 550 274.38 481.93"/>
        <polygon class="cls-4" points="538.16 367.83 509.26 260.59 538.16 153.35 496.6 153.35 490.85 63.43 274.38 9.19 57.92 63.43 47.66 153.35 11.84 153.35 40.74 260.59 11.84 367.83 70.65 367.83 216.85 536.22 274.38 468.04 331.91 536.22 478.11 367.83 538.16 367.83"/>
        <polygon class="cls-6" points="65.22 197.89 78.52 81.24 274.38 32.16 470.24 81.24 483.55 197.89 65.22 197.89"/>
        <polygon class="cls-4" points="85.36 180.07 95 95.48 274.38 50.53 453.76 95.48 463.41 180.07 85.36 180.07"/>
        <path class="cls-1" d="M361.98,197.89c0-47.13-38.59-85.34-86.2-85.34s-86.2,38.21-86.2,85.34,38.59,89.79,86.2,89.79,86.2-42.66,86.2-89.79Z"/>
        <path class="cls-6" d="M340.96,197.89c0-35.64-29.18-64.53-65.17-64.53s-65.17,28.89-65.17,64.53,29.18,68.98,65.17,68.98,65.17-33.34,65.17-68.98Z"/>
        <path class="cls-2" d="M76.23,288.11c-1.41-3-1.96-6.31-1.59-9.59l20.36-183.04,178.62-44.46c.25-.06.5-.09.76-.09s.51.03.75.09l178.63,44.46,20.37,183.04c.37,3.28-.18,6.59-1.59,9.59-10.14,21.5-386.18,21.5-396.31,0Z"/>
        <g>
          <polygon class="cls-6" points="274.38 308.25 52.54 308.36 216.61 501.78 274.38 433.3 332.16 501.78 496.22 308.36 274.38 308.25"/>
          <polygon class="cls-1" points="274.38 405.51 216.41 474.23 91.72 330.61 274.39 330.52 457.04 330.61 332.35 474.23 274.38 405.51"/>
          <g class="cls-3">
            <g>
              <polygon class="cls-6" points="408.07 534.36 375.46 552.17 375.46 185.11 408.07 185.11 408.07 534.36"/>
              <rect class="cls-6" x="316.77" y="185.11" width="32.61" height="367.06"/>
              <rect class="cls-6" x="258.08" y="185.11" width="32.61" height="349.25"/>
              <rect class="cls-6" x="199.39" y="185.11" width="32.61" height="367.06"/>
              <polygon class="cls-6" points="173.3 552.17 140.69 534.36 140.69 185.11 173.3 185.11 173.3 552.17"/>
            </g>
          </g>
        </g>
        <polygon class="cls-6" points="40.73 347.05 64.66 260.59 40.73 174.13 509.27 174.13 485.34 260.59 509.27 347.05 40.73 347.05"/>
        <polygon class="cls-4" points="509.44 333.14 40.56 333.14 52.17 260.59 40.56 188.05 509.44 188.05 493.33 260.59 509.44 333.14"/>
        <g>
          <g>
            <polygon class="cls-5" points="87.38 309.98 74.67 297.72 74.67 224.06 87.38 211.8 177.64 211.8 188.82 222.87 188.82 245.28 163.61 245.28 163.61 236.21 99.88 236.21 99.88 285.58 163.61 285.58 163.61 276.5 188.82 276.5 188.82 298.91 177.64 309.98 87.38 309.98"/>
            <polygon class="cls-1" points="88.09 213.53 76.42 224.8 76.42 296.99 88.09 308.25 176.92 308.25 187.08 298.2 187.08 278.24 165.36 278.24 165.36 287.31 98.13 287.31 98.13 234.48 165.36 234.48 165.36 243.55 187.08 243.55 187.08 223.59 176.92 213.53 88.09 213.53"/>
            <polygon class="cls-5" points="91.41 300.17 84.58 293.58 84.58 228.2 91.41 221.62 173.54 221.62 178.91 226.94 178.91 235.47 173.53 235.47 173.53 229.28 170.61 226.39 92.88 226.39 89.97 229.28 89.97 292.51 92.88 295.39 170.61 295.39 173.53 292.51 173.53 286.32 178.91 286.32 178.91 294.85 173.54 300.17 91.41 300.17"/>
          </g>
          <g>
            <polygon class="cls-5" points="375.46 309.98 362.75 297.72 362.75 224.06 375.46 211.8 465.71 211.8 476.9 222.87 476.9 245.28 451.69 245.28 451.69 236.21 387.95 236.21 387.95 285.58 451.69 285.58 451.69 276.5 476.9 276.5 476.9 298.91 465.71 309.98 375.46 309.98"/>
            <polygon class="cls-1" points="376.17 213.53 364.5 224.8 364.5 296.99 376.17 308.25 464.99 308.25 475.15 298.2 475.15 278.24 453.44 278.24 453.44 287.31 386.2 287.31 386.2 234.48 453.44 234.48 453.44 243.55 475.15 243.55 475.15 223.59 464.99 213.53 376.17 213.53"/>
            <polygon class="cls-5" points="379.48 300.17 372.66 293.58 372.66 228.2 379.48 221.62 461.61 221.62 466.99 226.94 466.99 235.47 461.6 235.47 461.6 229.28 458.69 226.39 380.95 226.39 378.04 229.28 378.04 292.51 380.95 295.39 458.69 295.39 461.6 292.51 461.6 286.32 466.99 286.32 466.99 294.85 461.61 300.17 379.48 300.17"/>
          </g>
          <polygon class="cls-5" points="315.3 309.98 315.3 273.1 236.27 273.1 236.27 309.98 211.06 309.98 211.06 211.8 236.27 211.8 236.27 248.69 315.3 248.69 315.3 211.8 340.51 211.8 340.51 309.98 315.3 309.98"/>
          <polygon class="cls-1" points="317.05 213.53 317.05 250.42 234.52 250.42 234.52 213.53 212.81 213.53 212.81 308.25 234.52 308.25 234.52 271.37 317.05 271.37 317.05 308.25 338.76 308.25 338.76 213.53 317.05 213.53"/>
          <polygon class="cls-5" points="325.21 300.17 325.21 263.29 226.36 263.29 226.36 300.17 220.97 300.17 220.97 221.62 226.36 221.62 226.36 258.5 325.21 258.5 325.21 221.62 330.6 221.62 330.6 300.17 325.21 300.17"/>
        </g>
        <polygon class="cls-1" points="274.38 63.9 278.25 75.67 290.76 75.67 280.64 82.95 284.5 94.73 274.38 87.45 264.26 94.73 268.13 82.95 258.01 75.67 270.52 75.67 274.38 63.9"/>
        <polygon class="cls-1" points="351.34 82.93 355.2 94.71 367.71 94.71 357.59 101.99 361.46 113.76 351.34 106.49 341.22 113.76 345.08 101.99 334.96 94.71 347.47 94.71 351.34 82.93"/>
        <polygon class="cls-1" points="429.01 99.89 432.88 111.66 445.39 111.66 435.27 118.94 439.13 130.72 429.01 123.44 418.89 130.72 422.76 118.94 412.64 111.66 425.15 111.66 429.01 99.89"/>
        <polygon class="cls-1" points="159.88 131.86 156.01 143.64 143.5 143.64 153.62 150.92 149.76 162.7 159.88 155.42 170 162.7 166.13 150.92 176.25 143.64 163.74 143.64 159.88 131.86"/>
        <polygon class="cls-1" points="391.69 131.86 395.56 143.64 408.07 143.64 397.95 150.92 401.81 162.7 391.69 155.42 381.57 162.7 385.44 150.92 375.32 143.64 387.83 143.64 391.69 131.86"/>
        <polygon class="cls-1" points="200.23 82.93 196.37 94.71 183.86 94.71 193.98 101.99 190.11 113.76 200.23 106.49 210.35 113.76 206.49 101.99 216.61 94.71 204.1 94.71 200.23 82.93"/>
        <polygon class="cls-1" points="122.56 99.89 118.69 111.66 106.19 111.66 116.31 118.94 112.44 130.72 122.56 123.44 132.68 130.72 128.81 118.94 138.93 111.66 126.43 111.66 122.56 99.89"/>
      </g>
    </g>
  </g>
</svg>