<?xml version="1.0" encoding="UTF-8"?>
<svg id="Layer_2" xmlns="http://www.w3.org/2000/svg" xmlns:xlink="http://www.w3.org/1999/xlink" viewBox="0 0 815.61 901.58">
  <defs>
    <style>
      .cls-1 {
        clip-path: url(#clippath-4);
      }

      .cls-2 {
        fill: #fff;
      }

      .cls-3 {
        fill: none;
      }

      .cls-4 {
        clip-path: url(#clippath-1);
      }

      .cls-5 {
        clip-path: url(#clippath-3);
      }

      .cls-6 {
        fill: #f1671c;
      }

      .cls-7 {
        fill: #00448b;
      }

      .cls-8 {
        clip-path: url(#clippath-2);
      }

      .cls-9 {
        clip-path: url(#clippath);
      }

      .cls-10 {
        fill: #feffff;
      }
    </style>
    <clipPath id="clippath">
      <path class="cls-6" d="M602.64,633.62l-26.42-45.99c-10.25-17.84-5.14-40.55,11.76-52.29l34.53-23.98c2.88-2,6.49-2.67,9.9-1.84l39.32,9.56c5.73,1.39,8.53,7.88,5.61,13l-57.88,101.51c-3.71,6.51-13.08,6.52-16.81.03Z"/>
    </clipPath>
    <clipPath id="clippath-1">
      <path class="cls-6" d="M699.29,519.65l47.18,46.89c21.87,21.74,20.09,57.74-3.98,77.01-26.05,20.86-60.36,44.69-92.73,55.91-12.52,4.34-26.79-45.72-26.79-45.72,55.52-59.69,76.32-134.09,76.32-134.09Z"/>
    </clipPath>
    <clipPath id="clippath-2">
      <path class="cls-6" d="M218.2,633.62l26.42-45.99c10.25-17.84,5.14-40.55-11.76-52.29l-34.53-23.98c-2.88-2-6.49-2.67-9.9-1.84l-39.32,9.56c-5.73,1.39-8.53,7.88-5.61,13l57.88,101.51c3.71,6.51,13.08,6.52,16.81.03Z"/>
    </clipPath>
    <clipPath id="clippath-3">
      <path class="cls-6" d="M121.55,519.65l-47.18,46.89c-21.87,21.74-20.09,57.74,3.98,77.01,26.05,20.86,60.36,44.69,92.73,55.91,12.52,4.34,26.79-45.72,26.79-45.72-55.52-59.69-76.32-134.09-76.32-134.09Z"/>
    </clipPath>
    <clipPath id="clippath-4">
      <path class="cls-3" d="M407.81,175.88c-67.58,0-114.38,13.51-139.09,40.15-25.69,27.69-22.9,64.71-21.06,89.21l.17,2.29c1.52,20.53,14.98,44.42,25.79,63.61,2.07,3.68,4.03,7.16,5.84,10.5,9.15,16.86,14.19,26.15,55.42,30.77.72.08,1.45.12,2.17.12,6.51,0,12.54-3.24,16.13-8.65,6.87-10.35,18.38-16.53,30.78-16.53,1.58,0,3.17.1,4.74.31,6.38.82,12.81,1.24,19.11,1.24s12.74-.42,19.11-1.24c1.57-.2,3.16-.31,4.74-.31,12.41,0,23.91,6.18,30.78,16.53,3.59,5.42,9.62,8.65,16.13,8.65.72,0,1.45-.04,2.17-.12,41.23-4.62,46.27-13.91,55.42-30.77,1.82-3.35,3.78-6.84,5.86-10.53,10.8-19.18,24.25-43.06,25.77-63.58l.17-2.3c1.84-24.5,4.63-61.52-21.06-89.21-24.71-26.64-71.51-40.15-139.1-40.15Z"/>
    </clipPath>
  </defs>
  <g id="Logos">
    <g>
      <g>
        <path class="cls-10" d="M317.39,846.99l-113.67-28.24-48.46-66.46c-2.4-.51-4.76-1.16-7.07-1.97-32.61-11.3-69.2-33.09-108.73-64.74C16.09,666.85,1.76,638.94.15,608.99c-1.62-30.03,9.7-59.42,31.04-80.63l82.65-82.15c-.6-4.62-.4-9.33.63-13.91-1.33-7.72-.33-15.72,2.87-22.9.76-8.58,4.3-16.67,10.06-23.07,3.02-8.07,8.55-14.92,15.78-19.57,2.34-3.28,5.14-6.15,8.3-8.54-9.1-15.72-20.51-47.18-20.51-83.19,0-46.99,20.2-86.84,40.22-99.92,3.69-15.3,7.56-27.36,11.53-35.91,3.67-7.8,12.4-21.58,46.1-51.83,8.77-9.52,24.58-26.02,35.49-33.77,8.52-5.98,22.32-13.12,41.14-21.31l2.1-11.56,22.66-8.37c3.46-1.27,34.84-12.37,77.59-12.37s74.13,11.09,77.56,12.36l22.68,8.38,2.1,11.56c18.82,8.18,32.58,15.3,40.98,21.19,11.06,7.85,26.88,24.36,35.65,33.88,33.7,30.25,42.41,43.98,46.03,51.69,4.02,8.64,7.9,20.73,11.59,36.04,20.02,13.06,40.23,52.92,40.23,99.92,0,36.02-11.41,67.49-20.5,83.18,3.17,2.39,5.97,5.27,8.31,8.54,7.24,4.64,12.76,11.5,15.78,19.57,5.77,6.41,9.3,14.5,10.06,23.07,3.19,7.17,4.19,15.18,2.86,22.9,1.03,4.59,1.24,9.31.63,13.93l82.65,82.12c21.34,21.22,32.66,50.61,31.04,80.65-1.6,29.94-15.93,57.85-39.32,76.58-39.53,31.66-76.12,53.44-108.75,64.75-.17.06-.35.12-.52.18l-49.76,68.24-113.67,28.24-93.03,54.6-93.03-54.6Z"/>
        <path class="cls-7" d="M323.11,832.95l-110.48-27.45-48.93-67.1c-3.63-.31-7.17-1.07-10.58-2.25-31-10.74-66.08-31.7-104.27-62.28-20.05-16.06-32.34-40-33.71-65.68-1.39-25.77,8.32-50.99,26.63-69.19l88.74-88.2c-2.27-5.28-2.66-11.26-.95-16.93l.38-1.24c-1.95-6.48-1.16-13.45,2.25-19.38-.09-7.17,2.96-14.11,8.41-18.91,1.76-7.08,6.62-13.17,13.24-16.39,3.54-6.44,9.76-10.98,17.11-12.34,1.46-1.4,3.08-2.61,4.83-3.61l-3.1-1.13-4.42-4.61c-6.35-6.65-22.28-40.56-22.28-81.23,0-46.07,21.04-81.62,35.58-88.59l2.72-1.3c2.96-13.23,7.14-29.03,12.06-39.62,4.8-10.21,19.27-26.17,43.04-47.46,6.92-7.53,23.31-24.9,33.62-32.23,10.55-7.4,29.81-16.21,45.78-22.91l2.01-11.08,14.62-5.4c3.19-1.17,32.24-11.44,72.39-11.44s69.2,10.26,72.38,11.43l14.64,5.4,2.01,11.08c15.96,6.71,35.21,15.5,45.68,22.85,10.41,7.39,26.8,24.76,33.72,32.29,23.77,21.29,38.24,37.23,43,47.38,4.95,10.65,9.14,26.47,12.1,39.7l2.73,1.31c14.53,6.96,35.57,42.51,35.57,88.58,0,40.67-15.93,74.57-22.26,81.21l-4.43,4.63-3.09,1.12c1.75,1,3.37,2.21,4.84,3.62,7.36,1.37,13.57,5.9,17.11,12.34,6.61,3.22,11.48,9.31,13.24,16.39,5.46,4.81,8.51,11.75,8.41,18.92,3.41,5.92,4.2,12.89,2.25,19.37l.37,1.23c1.71,5.69,1.33,11.67-.95,16.96l88.75,88.18c18.31,18.2,28.02,43.43,26.64,69.2-1.37,25.68-13.66,49.62-33.72,65.68-38.19,30.59-73.28,51.54-104.28,62.29-1.54.53-3.1.98-4.68,1.34l-49.59,68.01-110.48,27.45-87.31,51.24-87.31-51.24Z"/>
        <path class="cls-7" d="M766.8,546.09l-81.96-81.43-7.37,26.13-22.08-5.37c3.71-1.96,6.5-5.44,7.51-9.62l.53-2.2,2.64-4.41.24-.18c3.31-2.5,5.44-6.31,5.82-10.44l.65-7,.9-1.07c3.2-3.83,4.25-8.97,2.81-13.75l-1.37-4.53c2.52-4.96,2.06-10.94-1.37-15.51l-.62-.83c1.15-5.55-.98-11.45-5.9-14.97l-1.5-1.07c-.17-6.07-4.06-11.47-9.8-13.52l-1.69-.61c-1.72-5.79-6.82-9.99-13-10.49l-1.57-.12c-2.71-3.93-7.21-6.38-12.17-6.38h-.45l4.19-14.25,6.07-2.2,2.81-2.93c4.7-4.92,19.5-36.63,19.5-74.3,0-42.84-19.46-74.57-29.89-79.57l-2.3-1.1-4.49-.7c-2.39-11.43-7.14-31.86-12.77-43.97-5.51-11.72-27.84-32.75-40.98-44.5-5.58-6.07-22.49-24.17-32.43-31.23-11.3-7.93-34.78-18.13-48.8-23.89l-1.96-10.82-9.27-3.42c-3-1.11-30.45-10.82-68.92-10.82s-65.91,9.71-68.92,10.82l-9.27,3.42-1.96,10.82c-14.02,5.76-37.51,15.96-48.85,23.92-9.9,7.03-26.81,25.12-32.38,31.2-13.14,11.76-35.48,32.78-41,44.54-5.61,12.08-10.36,32.5-12.74,43.93l-4.49.7-2.29,1.1c-10.43,5-29.9,36.73-29.9,79.57,0,37.67,14.8,69.38,19.5,74.31l2.8,2.93,6.07,2.2,4.19,14.25h-.44c-4.96,0-9.46,2.45-12.17,6.38l-1.58.12c-6.16.5-11.25,4.7-12.98,10.49l-1.69.61c-5.74,2.05-9.64,7.45-9.81,13.52l-1.5,1.07c-4.91,3.52-7.04,9.42-5.9,14.97l-.62.82c-3.42,4.57-3.88,10.56-1.37,15.52l-1.37,4.53c-1.44,4.78-.39,9.92,2.81,13.75l.9,1.07.66,7.04c.39,4.11,2.51,7.9,5.83,10.41l.23.18,2.64,4.41.53,2.2c1,4.18,3.8,7.66,7.51,9.62l-22.03,5.35-7.33-26.24-82.05,81.55c-16.29,16.19-24.93,38.63-23.7,61.57,1.22,22.84,12.15,44.13,29.98,58.41,37.3,29.87,71.39,50.28,101.3,60.64,3.54,1.23,7.24,1.86,11.1,1.86.4,0,.87,0,1.4-.01l49.67,68.12,108.36,26.92,83.49,49,83.49-49,108.36-26.92,49.83-68.33c2.42-.28,4.8-.83,7.11-1.63,29.92-10.37,64.01-30.77,101.31-60.65,17.83-14.28,28.76-35.57,29.98-58.41,1.23-22.94-7.4-45.38-23.7-61.57Z"/>
        <path class="cls-7" d="M758.67,554.27l-68.05-67.61-5.61,19.88c-2.72-1.97-5.81-3.46-9.21-4.28l-39.32-9.56c-2.28-.55-4.63-.83-6.98-.83-6.06,0-11.9,1.83-16.87,5.28l-34.53,23.98c-10.66,7.4-18.04,17.7-21.77,29.11l-25.34,18.43-120.58,3.58-120.58-3.58-28.15-20.47-1.7,4.61c-3.42-12.42-11.04-23.73-22.48-31.67l-34.54-23.99c-4.98-3.46-10.81-5.28-16.87-5.28-2.35,0-4.7.28-6.98.84l-39.33,9.56c-3.38.82-6.47,2.3-9.18,4.27l-5.57-19.94-68.1,67.69c-13.96,13.88-21.37,33.11-20.31,52.77,1.05,19.56,10.41,37.8,25.67,50.02,36.28,29.05,69.21,48.81,97.88,58.75,2.33.81,4.77,1.22,7.23,1.22h.08c1.65,0,3.93-.02,6.67-.82l51.25,70.28,105.91,26.31,79.09,46.42,79.09-46.42,105.91-26.31,50.68-69.5c.78.04,1.49.04,2.1.04,2.46,0,4.89-.41,7.23-1.22,28.67-9.94,61.6-29.7,97.87-58.75,15.27-12.23,24.63-30.46,25.67-50.02,1.06-19.66-6.35-38.89-20.31-52.77Z"/>
        <path class="cls-6" d="M384.92,646.76l-76.75,1.01c-11.83.16-22.68-6.55-27.83-17.21l-17.34-35.88,7.02-19.05,13.96,10.16,95.35,15.88,31.09-17.43,26,18.27,100.43-16.73,13.96-10.16,7.02,19.05-17.34,35.88c-5.15,10.65-16,17.36-27.83,17.21l-76.75-1.01h-51.01Z"/>
        <g>
          <path class="cls-6" d="M602.64,633.62l-26.42-45.99c-10.25-17.84-5.14-40.55,11.76-52.29l34.53-23.98c2.88-2,6.49-2.67,9.9-1.84l39.32,9.56c5.73,1.39,8.53,7.88,5.61,13l-57.88,101.51c-3.71,6.51-13.08,6.52-16.81.03Z"/>
          <g class="cls-9">
            <path class="cls-10" d="M596.31,597.11c-2,0-3.94-1.04-5.01-2.9-10.43-18.16-5.33-40.86,11.87-52.8,2.62-1.82,6.21-1.17,8.03,1.45,1.82,2.62,1.55,6.94-1.45,8.03-27.67,10.04-12.47,46.23-13.44,46.23Z"/>
          </g>
        </g>
        <g>
          <path class="cls-6" d="M699.29,519.65l47.18,46.89c21.87,21.74,20.09,57.74-3.98,77.01-26.05,20.86-60.36,44.69-92.73,55.91-12.52,4.34-26.79-45.72-26.79-45.72,55.52-59.69,76.32-134.09,76.32-134.09Z"/>
          <g class="cls-4">
            <path class="cls-10" d="M764.95,599.02l-8.57-32.38-34.71-38.07c-.74-1.44-2.02-2.58-3.72-2.99-3.09-.75-6.21,1.16-6.96,4.26-.15.64-16.11,64.82-69.86,122.6-2.17,2.33-1.98,10.38.3,8.15,48.28-47.28,58.96-70.41,69.45-95.38,2.51-5.97,10.17-7.61,14.88-3.16l39.19,36.98Z"/>
          </g>
        </g>
        <g>
          <path class="cls-6" d="M218.2,633.62l26.42-45.99c10.25-17.84,5.14-40.55-11.76-52.29l-34.53-23.98c-2.88-2-6.49-2.67-9.9-1.84l-39.32,9.56c-5.73,1.39-8.53,7.88-5.61,13l57.88,101.51c3.71,6.51,13.08,6.52,16.81.03Z"/>
          <g class="cls-8">
            <path class="cls-10" d="M224.53,597.11c2,0,3.94-1.04,5.01-2.9,10.43-18.16,5.33-40.86-11.87-52.8-2.62-1.82-6.21-1.17-8.03,1.45-1.82,2.62-1.55,6.94,1.45,8.03,27.67,10.04,12.47,46.23,13.44,46.23Z"/>
          </g>
        </g>
        <g>
          <path class="cls-6" d="M121.55,519.65l-47.18,46.89c-21.87,21.74-20.09,57.74,3.98,77.01,26.05,20.86,60.36,44.69,92.73,55.91,12.52,4.34,26.79-45.72,26.79-45.72-55.52-59.69-76.32-134.09-76.32-134.09Z"/>
          <g class="cls-5">
            <path class="cls-10" d="M55.89,599.02l8.57-32.38,34.71-38.07c.74-1.44,2.02-2.58,3.72-2.99,3.09-.75,6.21,1.16,6.96,4.26.15.64,16.11,64.82,69.86,122.6,2.17,2.33,1.98,10.38-.3,8.15-48.28-47.28-58.96-70.41-69.45-95.38-2.51-5.97-10.17-7.61-14.88-3.16l-39.19,36.98Z"/>
          </g>
        </g>
        <polygon class="cls-6" points="596.57 675.97 576.17 699.73 535.24 670.89 410.42 670.89 285.6 670.89 244.67 699.73 224.27 675.97 192.64 712.16 235.7 771.22 337.93 796.62 410.42 839.16 482.91 796.62 585.14 771.22 628.2 712.16 596.57 675.97"/>
        <path class="cls-10" d="M577.29,742.85l-53.02-37.36h-227.7l-52.82,37.22s-19.25-42.78-17.27-40.28l19.53,24.58,46.91-33.05h235.01l46.71,32.91,16.47-22.71c1.86-2.58-13.81,38.7-13.81,38.7Z"/>
        <path class="cls-10" d="M534.17,596.9l-93.89,17.69-27.4-12.95c-.69-.32-1.41-.5-2.13-.54,0,0,0,0-.01,0-.16,0-.32,0-.48,0-.03,0-.07,0-.1,0-.13,0-.27.02-.4.04-.06,0-.12,0-.17.02-.11.02-.22.04-.32.06-.08.02-.16.03-.24.05-.08.02-.16.05-.23.07-.28.08-.56.18-.84.31l-27.4,12.95-93.89-17.69c-3.13-.57,95.43,29.72,95.43,29.72l28.32-13.38,28.32,13.38s98.58-30.31,95.43-29.72Z"/>
        <circle class="cls-7" cx="410.42" cy="742.85" r="14.82"/>
        <polygon class="cls-7" points="416.84 789.36 410.42 799.36 404 789.36 404 742.85 416.84 742.85 416.84 789.36"/>
        <path class="cls-10" d="M410.42,751.35c-4.69,0-8.5-3.81-8.5-8.5s3.81-8.5,8.5-8.5,8.5,3.81,8.5,8.5-3.81,8.5-8.5,8.5Z"/>
        <polygon class="cls-7" points="462.97 775.03 457.36 785.03 451.74 775.03 451.74 742.85 462.97 742.85 462.97 775.03"/>
        <polygon class="cls-7" points="369.1 775.03 363.48 785.03 357.87 775.03 357.87 742.85 369.1 742.85 369.1 775.03"/>
        <circle class="cls-7" cx="363.48" cy="742.85" r="11.54"/>
        <path class="cls-10" d="M363.48,749.35c-3.58,0-6.5-2.92-6.5-6.5s2.92-6.5,6.5-6.5,6.5,2.92,6.5,6.5-2.92,6.5-6.5,6.5Z"/>
        <circle class="cls-7" cx="457.36" cy="742.85" r="11.54"/>
        <path class="cls-10" d="M457.36,749.35c-3.58,0-6.5-2.92-6.5-6.5s2.92-6.5,6.5-6.5,6.5,2.92,6.5,6.5-2.92,6.5-6.5,6.5Z"/>
      </g>
      <polygon class="cls-7" points="241.02 498.69 226.36 513.38 237.42 534.46 266.81 564.42 322.62 580.95 410.42 589.56 410.42 540.29 316.55 523.88 261.14 509.17 241.02 498.69"/>
      <polygon class="cls-7" points="574.6 498.69 589.26 513.38 578.19 534.46 548.81 564.42 493 580.95 405.19 589.56 405.19 540.29 499.07 523.88 554.48 509.17 574.6 498.69"/>
      <g>
        <path class="cls-7" d="M648.08,275.03c0,35.07-13.98,63.9-16.3,66.34l-.94.97-9.02,3.28-9.04,30.76-.58,1.97-3.1,10.57-2.92,9.93.54,15.85.12,3.6.02.58,1.01,29.3.17,5.19.13,3.76.32,9.23.94,27.56.08,2.44.47,13.66s-92.88,26.03-120.38,34.13l-.87.23c-24.78,7.18-51.27,10.67-80.93,10.67s-56.16-3.49-80.94-10.67l-.87-.23c-27.5-8.1-120.38-34.13-120.38-34.13l3.81-111.17-15.65-53.23-9.02-3.28-.93-.97c-2.33-2.44-16.31-31.27-16.31-66.34,0-39.91,17.91-66.56,23.35-69.16l.76-.37,10.78-1.69c2.43-13.15,7.82-37.06,13.46-49.22,5.22-11.1,34.33-37.31,38.66-41.18,2.32-2.53,21.23-23.11,30.95-30.01,12.4-8.71,42.67-21.14,52.39-25.03l1.92-10.59,3.09-1.14c1.11-.41,27.75-10.1,64.93-10.1s63.81,9.69,64.92,10.1l3.09,1.14,1.92,10.59c9.72,3.89,39.99,16.32,52.39,25.03,9.72,6.9,28.63,27.48,30.95,30.01,4.33,3.87,33.44,30.08,38.66,41.18,5.64,12.16,11.03,36.07,13.46,49.22l10.78,1.69.76.37c5.44,2.6,23.35,29.25,23.35,69.16Z"/>
        <path class="cls-7" d="M642.31,275.03c0,33.34-13.44,61.02-14.71,62.35l-10.5,3.81-16.73,56.93,3,87.61s-12.86,4.84-35.01,16.09c-21.28,10.79-42.33,26.01-76.13,36.28-21.74,6.63-48.74,11.19-84.44,11.19-32.47,0-58.48-4.33-80.11-10.67h-.06c-35.07-10.32-58.71-25.84-80.34-36.8-22.21-11.25-35.07-16.09-35.07-16.09l3-87.61-16.73-56.93-10.5-3.81c-1.27-1.33-14.71-29.01-14.71-62.35,0-38.01,17.3-62.64,20.07-63.96l14.02-2.19c2.19-13.27,8.07-39.68,13.73-51.85,4.96-10.55,37.49-39.51,37.49-39.51,0,0,20.48-22.49,30.22-29.42,14.13-9.92,54.16-25.55,54.16-25.55l1.9-10.5s26.36-9.75,62.93-9.75,62.93,9.75,62.93,9.75l1.9,10.5s40.03,15.63,54.16,25.55c9.8,6.92,30.22,29.42,30.22,29.42,0,0,32.53,28.95,37.49,39.51,5.71,12.17,11.59,38.59,13.73,51.85l14.07,2.19c2.77,1.33,20.01,25.95,20.01,63.96Z"/>
        <path class="cls-2" d="M177.07,267.1c0-29.93,11.42-50.25,15.57-55.85l5.78-.9c-17.77,28.38-21.35,56.76-21.35,56.76Z"/>
        <path class="cls-2" d="M642.31,275.01c0-29.93-11.42-50.25-15.57-55.85l-5.78-.9c17.77,28.38,21.35,56.76,21.35,56.76Z"/>
        <path class="cls-10" d="M560.72,203.21c-28.42-30.65-79.87-46.19-152.92-46.19s-124.49,15.54-152.92,46.19c-31.28,33.72-27.99,77.37-26.03,103.44l.17,2.26c1.84,24.73,16.42,50.64,28.15,71.46,2.05,3.62,3.97,7.05,5.72,10.26,8.01,14.75,15.8,26.61,36.81,33.83,13.29,4.56,32.27,7.37,60.28,8.71l37.49,10.74c6.75,1.93,13.91,1.93,20.66,0l37.49-10.74c28.01-1.35,46.98-4.15,60.27-8.71,21.01-7.21,28.81-19.08,36.82-33.83,1.75-3.21,3.67-6.64,5.71-10.26,11.72-20.83,26.32-46.74,28.15-71.45l.18-2.27c1.96-26.08,5.24-69.72-26.04-103.44ZM580.76,308.49c-2.05,27.61-21.55,57.95-33.17,79.35-11.21,20.65-20.29,32.43-65.4,37.48-12.06,1.35-23.87-4.15-30.58-14.27h0c-5.05-7.6-13.97-11.69-23.02-10.52-5.72.74-12.85,1.35-20.78,1.35s-15.06-.61-20.78-1.35c-9.05-1.17-17.97,2.92-23.02,10.52h0c-6.71,10.11-18.52,15.62-30.58,14.27-45.12-5.06-54.19-16.83-65.4-37.48-11.62-21.4-31.13-51.74-33.18-79.35-3.31-44.68-14.06-145.62,172.95-145.62s176.26,100.94,172.95,145.62Z"/>
        <path class="cls-7" d="M431.26,414.71c-.69.77-1.68,1.21-2.71,1.21h-41.48c-1.04,0-2.02-.44-2.71-1.21l-5.17-5.77,2.8,7.52c.53,1.43,1.89,2.37,3.41,2.37h44.82c1.52,0,2.88-.95,3.41-2.37l2.8-7.52-5.17,5.77Z"/>
        <path class="cls-7" d="M431.26,425.51c-.69.77-1.68,1.21-2.71,1.21h-41.48c-1.04,0-2.02-.44-2.71-1.21l-5.17-5.77,2.8,7.52c.53,1.43,1.89,2.37,3.41,2.37h44.82c1.52,0,2.88-.95,3.41-2.37l2.8-7.52-5.17,5.77Z"/>
        <g>
          <path class="cls-6" d="M530.01,483.14c-32.39,15.85-73.5,26.88-122.2,26.88s-89.82-11.9-122.2-27.75v-8.07c32.39,15.85,73.5,23.88,122.2,23.88s89.82-7.17,122.2-23.02v8.07Z"/>
          <path class="cls-6" d="M512.47,502.89c-19.89,9.73-74.76,21-104.66,21s-81.97-10.88-101.86-20.61c0,0,71.96,13.28,101.86,13.28s104.66-13.66,104.66-13.66Z"/>
          <path class="cls-6" d="M482.83,522.09c-14.18,6.94-53.3,12.37-74.62,12.37s-58.45-5.16-72.62-12.1c0,0,51.3,6.87,72.62,6.87s74.62-7.14,74.62-7.14Z"/>
        </g>
        <path class="cls-6" d="M593.9,202.67c-2.75-13.8-7.27-31.8-11.17-40.13-3.02-6.46-31.49-32.02-31.49-32.02l-3.87-4.27c-7.52-8.3-21.79-23.09-28.05-27.49-10.52-7.39-40.68-19.91-51.42-24.11l-6.76-2.64-1.8-14.19c-9.61-2.65-28.48-6.84-51.54-6.84s-41.94,4.2-51.54,6.84l-1.8,14.19-6.76,2.64c-10.73,4.19-40.88,16.7-51.42,24.1-6.25,4.39-20.52,19.19-28.05,27.49l-3.87,4.27s-28.47,25.56-31.49,32.02c-3.9,8.33-8.42,26.33-11.17,40.13-24.51,35.9-25.12,77.66-20.65,108.08,5.37,36.53,17.74,67.83,36.76,93.06.42.56.89,1.19,1.09,1.46,2.96,5.33,14.68,22.91,46.69,38.58,32.39,15.85,73.5,23.88,122.2,23.88s89.82-8.04,122.2-23.88c32.02-15.67,43.72-33.25,46.69-38.58.2-.28.67-.9,1.09-1.46,19.03-25.23,31.39-56.53,36.76-93.06,4.47-30.42,3.86-72.18-20.64-108.08ZM606.83,309.61c-8.85,60.24-35.11,88.5-36.87,91.72-5.93,10.83-26.61,32.58-70.9,46.32l-41.31,3.22-36.74,8.85c-4.29.14-8.69.22-13.2.22s-8.91-.08-13.2-.22l-36.74-8.85-41.31-3.22c-44.29-13.74-64.97-35.48-70.9-46.32-1.76-3.22-28.01-31.48-36.86-91.72-3.95-26.88-5.89-77.53,30.59-116.54,32.14-34.36,88.81-51.79,168.42-51.79s136.28,17.42,168.42,51.79c36.49,39.01,34.55,89.66,30.6,116.54Z"/>
        <path class="cls-10" d="M410,145.23c.6.58.98,1.38.98,2.28,0,1.75-1.42,3.17-3.17,3.17s-3.17-1.42-3.17-3.17c0-.9.38-1.71.98-2.28-1.36.77-2.29,2.21-2.29,3.89,0,2.48,2.01,4.49,4.49,4.49s4.49-2.01,4.49-4.49c0-1.68-.93-3.12-2.29-3.89Z"/>
        <path class="cls-10" d="M304.7,159.55c.6.58.98,1.38.98,2.28,0,1.75-1.42,3.17-3.17,3.17s-3.17-1.42-3.17-3.17c0-.9.38-1.71.98-2.28-1.36.77-2.29,2.21-2.29,3.89,0,2.48,2.01,4.49,4.49,4.49s4.49-2.01,4.49-4.49c0-1.68-.93-3.12-2.29-3.89Z"/>
        <path class="cls-6" d="M568.37,536.42c-34.95,17.71-75.38,44.53-160.57,44.53s-125.56-26.82-160.52-44.53l75.33,18.46-30.91-20.42,35.93,4.15h.06c21.63,6.34,47.64,10.67,80.11,10.67,35.7,0,62.69-4.56,84.44-11.19l31.66-3.63-30.92,20.42,75.38-18.46Z"/>
        <path class="cls-10" d="M510.91,159.55c-.6.58-.98,1.38-.98,2.28,0,1.75,1.42,3.17,3.17,3.17,1.75,0,3.17-1.42,3.17-3.17,0-.9-.38-1.71-.98-2.28,1.36.77,2.29,2.21,2.29,3.89,0,2.48-2.01,4.49-4.49,4.49s-4.49-2.01-4.49-4.49c0-1.68.93-3.12,2.29-3.89Z"/>
        <path class="cls-10" d="M358.22,437c.6.58.98,1.38.98,2.28,0,1.75-1.42,3.17-3.17,3.17s-3.17-1.42-3.17-3.17c0-.9.38-1.71.98-2.28-1.36.77-2.29,2.21-2.29,3.89,0,2.48,2.01,4.49,4.49,4.49s4.49-2.01,4.49-4.49c0-1.68-.93-3.12-2.29-3.89Z"/>
        <path class="cls-10" d="M220.86,304.98c.6.58.98,1.38.98,2.28,0,1.75-1.42,3.17-3.17,3.17s-3.17-1.42-3.17-3.17c0-.9.38-1.71.98-2.28-1.36.77-2.29,2.21-2.29,3.89,0,2.48,2.01,4.49,4.49,4.49s4.49-2.01,4.49-4.49c0-1.68-.93-3.12-2.29-3.89Z"/>
        <path class="cls-10" d="M594.76,304.98c-.6.58-.98,1.38-.98,2.28,0,1.75,1.42,3.17,3.17,3.17s3.17-1.42,3.17-3.17c0-.9-.38-1.71-.98-2.28,1.36.77,2.29,2.21,2.29,3.89,0,2.48-2.01,4.49-4.49,4.49-2.48,0-4.49-2.01-4.49-4.49,0-1.68.93-3.12,2.29-3.89Z"/>
        <path class="cls-10" d="M567.92,378.56c-.6.58-.98,1.38-.98,2.28,0,1.75,1.42,3.17,3.17,3.17,1.75,0,3.17-1.42,3.17-3.17,0-.9-.38-1.71-.98-2.28,1.36.77,2.29,2.21,2.29,3.89,0,2.48-2.01,4.49-4.49,4.49-2.48,0-4.49-2.01-4.49-4.49,0-1.68.93-3.12,2.29-3.89Z"/>
        <path class="cls-10" d="M584.37,220.24c-.6.58-.98,1.38-.98,2.28,0,1.75,1.42,3.17,3.17,3.17,1.75,0,3.17-1.42,3.17-3.17,0-.9-.38-1.71-.98-2.28,1.36.77,2.29,2.21,2.29,3.89,0,2.48-2.01,4.49-4.49,4.49-2.48,0-4.49-2.01-4.49-4.49,0-1.68.93-3.12,2.29-3.89Z"/>
        <path class="cls-10" d="M247.7,378.56c.6.58.98,1.38.98,2.28,0,1.75-1.42,3.17-3.17,3.17s-3.17-1.42-3.17-3.17c0-.9.38-1.71.98-2.28-1.36.77-2.29,2.21-2.29,3.89,0,2.48,2.01,4.49,4.49,4.49s4.49-2.01,4.49-4.49c0-1.68-.93-3.12-2.29-3.89Z"/>
        <path class="cls-10" d="M231.24,220.24c.6.58.98,1.38.98,2.28,0,1.75-1.42,3.17-3.17,3.17s-3.17-1.42-3.17-3.17c0-.9.38-1.71.98-2.28-1.36.77-2.29,2.21-2.29,3.89,0,2.48,2.01,4.49,4.49,4.49s4.49-2.01,4.49-4.49c0-1.68-.93-3.12-2.29-3.89Z"/>
        <path class="cls-10" d="M457.4,437c-.6.58-.98,1.38-.98,2.28,0,1.75,1.42,3.17,3.17,3.17,1.75,0,3.17-1.42,3.17-3.17,0-.9-.38-1.71-.98-2.28,1.36.77,2.29,2.21,2.29,3.89,0,2.48-2.01,4.49-4.49,4.49s-4.49-2.01-4.49-4.49c0-1.68.93-3.12,2.29-3.89Z"/>
        <path class="cls-2" d="M291.45,475.65c-1.56-15.68-10.47-27.64-19.89-26.7-3.16.32-5.98,2.04-8.27,4.79-.84,1.01-1.16,2.36-.83,3.63h0c1.83-2.19,4.06-3.55,6.55-3.8,7.77-.78,15.17,9.61,16.52,23.19,1.35,13.58-3.85,25.22-11.62,26-1.9.19-3.77-.29-5.55-1.32,0,0,1.65,5.02,8.86,4.3,9.42-.94,15.79-14.41,14.22-30.1Z"/>
        <path class="cls-2" d="M524.16,475.65c1.56-15.68,10.47-27.64,19.89-26.7,3.16.32,5.98,2.04,8.27,4.79.84,1.01,1.16,2.36.83,3.63h0c-1.83-2.19-4.06-3.55-6.55-3.8-7.77-.78-15.17,9.61-16.52,23.19-1.35,13.58,3.85,25.22,11.62,26,1.9.19,3.77-.29,5.55-1.32,0,0-1.65,5.02-8.86,4.3-9.42-.94-15.79-14.41-14.22-30.1Z"/>
        <path class="cls-6" d="M221.96,445.38l2.6-23.7c10.86,19.51,28.32,33.84,28.32,33.84,0,0-13.96-7.03-26.34-19.55l-4.58,9.41Z"/>
        <path class="cls-6" d="M593.65,445.38l-2.6-23.7c-10.86,19.51-28.32,33.84-28.32,33.84,0,0,13.96-7.03,26.34-19.55l4.58,9.41Z"/>
        <g>
          <path class="cls-10" d="M195.65,435.71l-1.03,2.89,2.81,1.52c.56.31.91.89.91,1.53v2.54s3.89,0,3.89,0c.82,0,1.53.58,1.7,1.38l.71,3.33,3.1-.72,1.01-29.3c-.21.09-.42.18-.63.27l-.04.52c-.08,1.06-1.08,1.79-2.11,1.56l-1.56-.36c-.45.22-.89.45-1.32.68v1.04c0,1.05-.93,1.86-1.97,1.72l-2.2-.31v.99c0,.96-.78,1.74-1.74,1.74h-1.23s.27,1.41.27,1.41c.21,1.07-.61,2.07-1.7,2.07h-1.71s2.65,3.95,2.65,3.95c.31.46.38,1.03.19,1.55Z"/>
          <path class="cls-7" d="M277.22,498.93h0s-.43-39.02-.43-39.02l-.48-.52c-1.07-1.14-2.85-1.2-3.99-.13l-.74.69h0l-2.13-1.61c-.83-.62-1.93-.75-2.87-.32l-4.24,1.92s0,0,0,0l-1.15-1.14c-.89-.88-2.25-1.07-3.35-.47l-2.79,1.52c-.09,0-.18,0-.28,0l-3.51-2.31c-.84-.56-2.92-.62-3.83-.17l-3.44,2.15c-.41-.02-.8-.04-1.2-.06l-2.89-2.5c-.99-.85-2.43-.92-3.5-.16l-2.87,2.06s0,0,0,0l-2.12-2.11c-.86-.86-2.18-1.07-3.26-.52l-3.32,1.67c-.37-.05-.72-.12-1.08-.17l-1.21-2.66c-.74-.7-1.8-.95-2.78-.65l-3.89,1.62v-2.53c0-1.28-1.44-2.03-2.49-1.3l-2.58,1.14-.58-3.84c-.15-1-1.13-1.66-2.11-1.43l-3.47.82-.71-3.33c-.17-.8-.88-1.37-1.7-1.37h-3.89v-2.55c0-.64-.35-1.22-.91-1.52l-2.81-1.53,1.03-2.88c.19-.52.11-1.09-.19-1.55l-2.65-3.95s0,0,0,0h1.71c1.09,0,1.91-.99,1.7-2.06l-.27-1.41h1.23c.96,0,1.73-.78,1.73-1.73v-.99s0,0,0,0l2.2.31c1.04.14,1.97-.66,1.97-1.72v-1.04c.43-.23.87-.45,1.32-.67l1.56.36c1.03.24,2.04-.5,2.11-1.56l.04-.51c.37-.16.73-.32,1.1-.47l.56.46c1.47,1.22,3.69.71,4.5-1.02l.81-1.75c3.36-1.24,6.7-2.37,9.7-3.39l-12.3-37.02c-.81.27-2.44.64-4.63,1.2l-5.61-.88c-1.25-.19-2.49.35-3.2,1.39l-1.74,2.57h-9.2c-1.41,0-2.66.91-3.09,2.25l-1.15,3.54-8.58.68c-1.5.12-2.72,1.25-2.96,2.74l-.76,4.85-8,2.86c-1.29.46-2.16,1.69-2.16,3.06v5.52l-6.31,4.52c-1.43,1.02-1.79,3-.81,4.46l1.63,2.42-4.82,6.44c-.85,1.14-.86,2.7-.03,3.86l2.05,2.84-2.95,9.77c-.32,1.05-.08,2.19.62,3.03l3.2,3.83.99,10.57c.08.91.55,1.75,1.28,2.3l2.04,1.54v.02c1.35,2.85,2.92,5.43,4.66,7.78l.04.06.94,3.91c.29,1.22,1.26,2.17,2.49,2.43l2.95.62.02.02c2.17,1.94,4.48,3.67,6.88,5.23l.04.03.63,2.24c.44,1.57,1.98,2.57,3.6,2.34l3.04-.44.16.07c1.35.67,2.71,1.31,4.07,1.91l.11.05,1.94,3.22c.77,1.28,2.31,1.87,3.74,1.43l3.36-1.03h.03c.43.17.86.33,1.29.48,1.23.45,2.6.87,4.05,1.26l.07.02,1.13,1.83c.98,1.59,3.1,2.03,4.63.95l1.63-1.14.19.03c1.43.26,2.91.5,4.43.73l.25.04,1.94,2.45c1.07,1.35,3.01,1.63,4.42.65l2.78-1.95h.03c2,.21,4.04.41,6.09.58l.18.02c.88,1.29,2.54,1.8,3.99,1.23l1.99-.78c1.08.07,2.15.14,3.23.21h0s3.61,1.78,3.61,1.78c1.11.55,2.41.53,3.51-.04l2.41-1.26c3.02.13,5.97.23,8.82.31h.01s.47.44.47.44c.95.89,2.28,1.24,3.55.94l4.91-1.18,9.53,3.36,1.06-3.27c.15,0,.3,0,.44,0,2,0,.27,0-.44-.02Z"/>
          <path class="cls-10" d="M271.22,462.79s3.01,16.95,0,26.02l-5.26-18.85,1.12,21.14-2.48-.87-1.1.26-6.42-20.53,3.03,21.34-.8.19-1.11-1.03-2.18-.17h-.12c-1.96-.06-3.98-.13-6.03-.21l-5.46-22.59,1.69,22.44h-.09s-2.75,1.43-2.75,1.43l-3.56-1.76-.28-.02-5.34-22.09,1.65,21.86c-.08,0-.16-.01-.24-.02l-1.28-.09-1.24.48-.39-.57-2.86-.27c-1.49-.13-2.95-.27-4.39-.41l-2.63-23.21-1.12,22.93.1.03-2.26,1.55-1.69-2.14-2.45-.41c-.98-.15-1.89-.3-2.77-.45l2.58-21.52-6.04,20.93-.48-.08-1.2.84-.74-1.19-2.32-.73c-1.23-.33-2.32-.67-3.24-1l7.86-21.26-11.33,19.97.16.15-3.02.9-1.69-2.81-1.72-.81c-.7-.31-1.37-.62-2.03-.93l10.05-19.34-13.28,17.8-.31-.15-2.34.34-.5-1.78-1.72-1.3-.19-.13c-1.86-1.21-3.57-2.5-5.13-3.83l13.47-17.65-16.63,15.72-1.45-.31-.72-2.99-.55-.92-.25-.36c-1.03-1.39-1.96-2.86-2.79-4.37l18.95-13.11-20.7,9.83-.15-.27-1.94-1.48-.81-8.72,21.18-7.18-22.55,3.76-2.11-2.53,2.32-7.68,21.74-.96-21.13-2.5-2.19-3.02,4.01-5.36,19.31,8.45-17.82-11.53-2.02-3.01,3.86-2.76,19.09,14.67-16.59-17.43v-5.41l6.12-2.19,17.25,21.42-14.22-22.69.9-5.76,6.33-.5,11.22,24.82-7.37-25.83,1.47-4.5h8.41l3.57,27.27.4-30.88,1.91.3-1.19-4.06-2.53-.4-2.66,3.94h-10.68l-1.77,5.43-10.42.83-1.04,6.69-9.51,3.41v7.11l-7.78,5.57,2.96,4.41-5.95,7.95,3.04,4.19-3.28,10.87,3.85,4.61,1.05,11.23,2.68,2.02.28.5c1.17,2.5,2.6,4.89,4.22,7.07l.32.51,1.14,4.77,4.01.85.45.36c1.89,1.69,4.02,3.31,6.31,4.8l.7.52,1.06,3.77,4.52-.65.71.33c1.23.61,2.5,1.21,3.85,1.81l.63.3,2.64,4.37,4.71-1.43,1.87.67c1.06.39,2.32.78,3.69,1.15l.86.27,2.12,3.43,3.24-2.27.99.16c1.3.24,2.7.47,4.21.7l.96.16,3.02,3.81,4.18-2.92.72.08c1.9.2,3.83.38,5.8.55l1.06.1,1.09,1.59,3.27-1.27.42.03c1.03.07,2.05.14,3.08.2l.38.02,4.61,2.28,3.57-1.86.51.02c2.88.12,5.69.22,8.39.3h.02s.76.06.76.06l1.64,1.53,6.18-1.48,5.55,1.96,4.54-3c7.4-9.34-3.27-30.38-3.27-30.38Z"/>
        </g>
        <g>
          <path class="cls-10" d="M625.19,435.71l1.03,2.89-2.81,1.52c-.56.31-.91.89-.91,1.53v2.54h-3.89c-.82,0-1.53.58-1.7,1.38l-.71,3.33-3.1-.72-1.01-29.3c.21.09.42.18.63.27l.04.52c.08,1.06,1.08,1.79,2.11,1.56l1.56-.36c.45.22.89.45,1.32.68v1.04c0,1.05.93,1.86,1.97,1.72l2.2-.31v.99c0,.96.78,1.74,1.74,1.74h1.23l-.27,1.41c-.21,1.07.61,2.07,1.7,2.07h1.71l-2.65,3.95c-.31.46-.38,1.03-.19,1.55Z"/>
          <path class="cls-7" d="M543.62,498.93h0s.43-39.02.43-39.02l.48-.52c1.07-1.14,2.85-1.2,3.99-.13l.74.69h0l2.13-1.61c.83-.62,1.93-.75,2.87-.32l4.24,1.92s0,0,0,0l1.15-1.14c.89-.88,2.25-1.07,3.35-.47l2.79,1.52c.09,0,.18,0,.28,0l3.51-2.31c.84-.56,2.92-.62,3.83-.17l3.44,2.15c.41-.02.8-.04,1.2-.06l2.89-2.5c.99-.85,2.43-.92,3.5-.16l2.87,2.06s0,0,0,0l2.12-2.11c.86-.86,2.18-1.07,3.26-.52l3.32,1.67c.37-.05.72-.12,1.08-.17l1.21-2.66c.74-.7,1.8-.95,2.78-.65l3.89,1.62v-2.53c0-1.28,1.44-2.03,2.49-1.3l2.58,1.14.58-3.84c.15-1,1.13-1.66,2.11-1.43l3.47.82.71-3.33c.17-.8.88-1.37,1.7-1.37h3.89s0-2.55,0-2.55c0-.64.35-1.22.91-1.52l2.81-1.53-1.03-2.88c-.19-.52-.11-1.09.19-1.55l2.65-3.95s0,0,0,0h-1.71c-1.09,0-1.91-.99-1.7-2.06l.27-1.41h-1.23c-.96,0-1.73-.78-1.73-1.73v-.99s0,0,0,0l-2.2.31c-1.04.14-1.97-.66-1.97-1.72v-1.04c-.43-.23-.87-.45-1.32-.67l-1.56.36c-1.03.24-2.04-.5-2.11-1.56l-.04-.51c-.37-.16-.73-.32-1.1-.47l-.56.46c-1.47,1.22-3.69.71-4.5-1.02l-.81-1.75c-3.36-1.24-6.7-2.37-9.7-3.39l12.3-37.02c.81.27,2.44.64,4.63,1.2l5.61-.88c1.25-.19,2.49.35,3.2,1.39l1.74,2.57h9.2c1.41,0,2.66.91,3.09,2.25l1.15,3.54,8.58.68c1.5.12,2.72,1.25,2.96,2.74l.76,4.85,8,2.86c1.29.46,2.16,1.69,2.16,3.06v5.52s6.31,4.52,6.31,4.52c1.43,1.02,1.79,3,.81,4.46l-1.63,2.42,4.82,6.44c.85,1.14.86,2.7.03,3.86l-2.05,2.84,2.95,9.77c.32,1.05.08,2.19-.62,3.03l-3.2,3.83-.99,10.57c-.08.91-.55,1.75-1.28,2.3l-2.04,1.54v.02c-1.35,2.85-2.92,5.43-4.66,7.78l-.04.06-.94,3.91c-.29,1.22-1.26,2.17-2.49,2.43l-2.95.62-.02.02c-2.17,1.94-4.48,3.67-6.88,5.23l-.04.03-.63,2.24c-.44,1.57-1.98,2.57-3.6,2.34l-3.04-.44-.16.07c-1.35.67-2.71,1.31-4.07,1.91l-.11.05-1.94,3.22c-.77,1.28-2.31,1.87-3.74,1.43l-3.36-1.03h-.03c-.43.17-.86.33-1.29.48-1.23.45-2.6.87-4.05,1.26l-.07.02-1.13,1.83c-.98,1.59-3.1,2.03-4.63.95l-1.63-1.14-.19.03c-1.43.26-2.91.5-4.43.73l-.25.04-1.94,2.45c-1.07,1.35-3.01,1.63-4.42.65l-2.78-1.95h-.03c-2,.21-4.04.41-6.09.58l-.18.02c-.88,1.29-2.54,1.8-3.99,1.23l-1.99-.78c-1.08.07-2.15.14-3.23.21h0s-3.61,1.78-3.61,1.78c-1.11.55-2.41.53-3.51-.04l-2.41-1.26c-3.02.13-5.97.23-8.82.31h-.01s-.47.44-.47.44c-.95.89-2.28,1.24-3.55.94l-4.91-1.18-9.53,3.36-1.06-3.27c-.15,0-.3,0-.44,0-2,0-.27,0,.44-.02Z"/>
          <path class="cls-10" d="M662.95,430.32l3.04-4.19-5.95-7.95,2.96-4.41-7.78-5.57v-7.11l-9.51-3.41-1.04-6.69-10.42-.83-1.77-5.43h-10.68l-2.66-3.94-2.53.4-1.19,4.06,1.91-.3.4,30.88,3.57-27.27h8.41l1.47,4.5-7.37,25.83,11.22-24.82,6.33.5.9,5.76-14.22,22.69,17.25-21.42,6.12,2.19v5.41l-16.59,17.43,19.09-14.67,3.86,2.76-2.02,3.01-17.82,11.53,19.31-8.45,4.01,5.36-2.19,3.02-21.13,2.5,21.74.96,2.32,7.68-2.11,2.53-22.55-3.76,21.18,7.18-.81,8.72-1.94,1.48-.15.27-20.7-9.83,18.95,13.11c-.83,1.51-1.76,2.98-2.79,4.37l-.25.36-.55.92-.72,2.99-1.45.31-16.63-15.72,13.47,17.65c-1.56,1.33-3.27,2.62-5.13,3.83l-.19.13-1.72,1.3-.5,1.78-2.34-.34-.31.15-13.28-17.8,10.05,19.34c-.65.31-1.32.62-2.03.93l-1.72.81-1.69,2.81-3.02-.9.16-.15-11.33-19.97,7.86,21.26c-.92.33-2.01.67-3.24,1l-2.32.73-.74,1.19-1.2-.84-.48.08-6.04-20.93,2.58,21.52c-.89.15-1.8.3-2.77.45l-2.45.41-1.69,2.14-2.26-1.55.1-.03-1.12-22.93-2.63,23.21c-1.44.14-2.9.28-4.39.41l-2.86.27-.39.57-1.24-.48-1.28.09c-.08,0-.16.01-.24.02l1.65-21.86-5.34,22.09-.28.02-3.56,1.76-2.75-1.43h-.09s1.69-22.44,1.69-22.44l-5.46,22.59c-2.05.08-4.07.15-6.03.2h-.12s-2.18.18-2.18.18l-1.11,1.03-.8-.19,3.03-21.34-6.42,20.53-1.1-.26-2.48.87,1.12-21.14-5.26,18.85c-3.01-9.07,0-26.02,0-26.02,0,0-10.67,21.04-3.27,30.38l4.54,3,5.55-1.96,6.18,1.48,1.64-1.53.76-.06h.02c2.7-.07,5.52-.17,8.39-.29l.51-.02,3.57,1.86,4.61-2.28.38-.02c1.03-.06,2.05-.13,3.08-.2l.42-.03,3.27,1.27,1.09-1.59,1.06-.1c1.97-.17,3.91-.35,5.8-.55l.72-.08,4.18,2.92,3.02-3.81.96-.16c1.51-.23,2.91-.46,4.21-.7l.99-.16,3.24,2.27,2.12-3.43.86-.27c1.37-.37,2.62-.76,3.69-1.15l1.87-.67,4.71,1.43,2.64-4.37.63-.3c1.35-.6,2.63-1.2,3.85-1.81l.71-.33,4.52.65,1.06-3.77.7-.52c2.29-1.49,4.43-3.11,6.31-4.8l.45-.36,4.01-.85,1.14-4.77.32-.51c1.62-2.18,3.05-4.57,4.22-7.07l.28-.5,2.68-2.02,1.05-11.23,3.85-4.61-3.28-10.87Z"/>
        </g>
        <polyline class="cls-7" points="356.26 57.82 349.21 108.6 342.98 62.55"/>
        <polyline class="cls-7" points="459.35 57.82 466.41 108.6 472.64 62.55"/>
        <path class="cls-2" d="M318.01,139.96c17.56-8.59,66.03-18.54,92.44-18.54s72.4,9.61,89.96,18.21c0,0-63.55-11.73-89.96-11.73s-92.44,12.07-92.44,12.07Z"/>
        <path class="cls-2" d="M344.18,123c12.52-6.13,47.08-10.92,65.91-10.92s51.62,4.56,64.14,10.68c0,0-45.31-6.07-64.14-6.07s-65.91,6.31-65.91,6.31Z"/>
        <g class="cls-1">
          <path class="cls-10" d="M282.2,265.96c.7,10.33,1.88,20.61,3.33,30.85-.2,1.12-.35,2.25.56,3.19.23,1.52.46,3.04.68,4.55-.52,1.15-.84,2.26.67,2.96.21,2.24.43,4.49.64,6.72-.08.74-.41,1.55.52,2.05.22,1.25.45,2.5.67,3.74-.36,1.17-.8,2.37.72,3.12,1.63,14.4,5.27,28.42,8.09,42.6,2.22,11.16,4.7,22.23,7.85,33.16,1.18,4.08,2.38,8.16,3.55,12.24.26.9,1.62,1.69.35,2.77-1.34,1.15-1.49-.7-2.2-1.03-3.71-1.71-7.27-3.73-10.87-5.65-1.75-1.38-3.05-2.9-2.18-5.4.18-.52.05-1.5-1.07-1.36-1.1-3.1-2.2-6.2-3.3-9.29-.19-1.26.49-2.74-.88-3.73-.1-1.42-.2-2.84-.3-4.25.37-.9,1.12-1.99-.87-1.66-6.09-21.79-11.03-43.81-13.63-66.31.05-1.07.34-2.2-.57-3.11-.2-1.23-.4-2.46-.6-3.68.29-1.38.79-2.82-.77-3.85-.26-2.79-.52-5.58-.78-8.36.18-1.38.34-2.76-.59-3.98-.2-1.54-.39-3.08-.59-4.61.17-1.34,1.15-2.83-.66-3.85-.23-3.39-.47-6.79-.7-10.17.14-1.92.4-3.87-.6-5.68-.19-1.78-.38-3.56-.57-5.33.17-2.8,1.03-5.67-.78-8.29.08-9.13-1.8-18.16-1.27-27.31.78-.53.64-1.07-.02-1.59-.28-4.63-.59-9.26-.04-13.88.53.03.68-.22.48-.7,3.76-4.22,7.94-7.92,13.34-11.03-.4,15.71-.17,30.89.39,46.05-.02,2.74-.41,5.52.66,8.18.19,2.12.38,4.24.57,6.36-.13,1.9-1.03,3.91.76,5.55Z"/>
          <path class="cls-10" d="M465.85,171.82c10.02,123.99-1.9,240.71-1.9,240.71,0,0,56.3,1.31,58.28-12.71,15.39-108.85,3.18-212.98,3.18-212.98,0,0-47.53-25.18-59.56-15.02Z"/>
          <path class="cls-10" d="M280.62,177.13c3.19,124.07,28.87,238.98,28.87,238.98,0,0-18.7,3.48-21.7-10.24-21.44-97.96-26.06-211.38-26.06-211.38,0,0,13.53-26.95,18.9-17.36Z"/>
          <path class="cls-10" d="M251.9,177.45c9.63,123.31,28.49,239.02,28.49,239.02,0,0-7.96,2.21-10.19-11.6-15.89-98.61-25.43-211.45-25.43-211.45,0,0,4.14-25.84,7.13-15.97Z"/>
          <path class="cls-10" d="M538.57,171.82c10.77,123.99-2.04,240.71-2.04,240.71,0,0,60.51,1.31,62.64-12.71,16.54-108.85,3.42-212.98,3.42-212.98,0,0-51.09-25.18-64.01-15.02Z"/>
          <g>
            <path class="cls-10" d="M343.08,218.53c-6.13-.87-10.99-5.6-12.02-11.71l-2.66-15.74-2.66,15.74c-1.03,6.1-5.89,10.84-12.02,11.71l-9.46,1.34,10.1,2.02c5.8,1.16,10.27,5.78,11.24,11.62l2.8,16.9,2.8-16.9c.97-5.83,5.44-10.46,11.24-11.62l10.1-2.02-9.46-1.34Z"/>
            <path class="cls-10" d="M318.59,242.88c-2.54-.36-4.55-2.32-4.98-4.85l-1.1-6.52-1.1,6.52c-.43,2.53-2.44,4.49-4.98,4.85l-3.92.56,4.18.84c2.4.48,4.25,2.4,4.65,4.81l1.16,7,1.16-7c.4-2.41,2.25-4.33,4.65-4.81l4.18-.84-3.92-.56Z"/>
          </g>
        </g>
        <polygon class="cls-6" points="267.56 657.62 249.89 620.09 246.79 641.42 234.27 657.62 247.09 672.9 267.56 657.62"/>
        <polygon class="cls-6" points="553.28 657.62 570.95 620.09 574.05 641.42 586.57 657.62 573.75 672.9 553.28 657.62"/>
        <g>
          <path class="cls-7" d="M407.5,535.43c-4.85,0-6.33-4.21-6.96-7.95-2.65-2.16-4.97-5.41-4.97-10.94s2.32-8.78,4.97-10.94c.63-3.74,2.11-7.95,6.96-7.95h3.41c4.85,0,6.33,4.21,6.96,7.95,2.65,2.16,4.97,5.41,4.97,10.94s-2.32,8.78-4.97,10.94c-.63,3.74-2.11,7.95-6.96,7.95h-3.41Z"/>
          <path class="cls-2" d="M416.84,516.54c0-4.26-1.88-5.92-4.57-7.53,0,0-.61-5.36-1.36-5.36h-3.41c-.75,0-1.36,5.36-1.36,5.36-2.69,1.61-4.57,3.27-4.57,7.53s1.88,5.92,4.57,7.53c0,0,.61,5.36,1.36,5.36h3.41c.75,0,1.36-5.36,1.36-5.36,2.69-1.61,4.57-3.27,4.57-7.53Z"/>
        </g>
        <g>
          <path class="cls-7" d="M489.95,520.2c-3.93.88-5.89-2.27-7.08-5.18-2.54-1.27-5.01-3.48-6.01-7.96s.29-7.54,2.05-9.77c-.17-3.14.27-6.83,4.2-7.7l2.77-.62c3.93-.88,5.89,2.27,7.08,5.18,2.54,1.27,5.01,3.48,6.01,7.96,1,4.48-.29,7.54-2.05,9.77.17,3.14-.27,6.82-4.2,7.7l-2.77.62Z"/>
          <path class="cls-2" d="M494.1,503.2c-.77-3.45-2.6-4.46-5.07-5.27,0,0-1.46-4.23-2.07-4.1l-2.77.62c-.61.14-.13,4.59-.13,4.59-1.89,1.79-3.11,3.48-2.34,6.93s2.6,4.46,5.07,5.27c0,0,1.46,4.23,2.07,4.1l2.77-.62c.61-.14.13-4.59.13-4.59,1.89-1.79,3.11-3.48,2.34-6.93Z"/>
        </g>
        <g>
          <path class="cls-7" d="M325.66,520.2c3.93.88,5.89-2.27,7.08-5.18,2.54-1.27,5.01-3.48,6.01-7.96,1-4.48-.29-7.54-2.05-9.77.17-3.14-.27-6.83-4.2-7.7l-2.77-.62c-3.93-.88-5.89,2.27-7.08,5.18-2.54,1.27-5.01,3.48-6.01,7.96s.29,7.54,2.05,9.77c-.17,3.14.27,6.82,4.2,7.7l2.77.62Z"/>
          <path class="cls-2" d="M321.51,503.2c.77-3.45,2.6-4.46,5.07-5.27,0,0,1.46-4.23,2.07-4.1l2.77.62c.61.14.13,4.59.13,4.59,1.89,1.79,3.11,3.48,2.34,6.93-.77,3.45-2.6,4.46-5.07,5.27,0,0-1.46,4.23-2.07,4.1l-2.77-.62c-.61-.14-.13-4.59-.13-4.59-1.89-1.79-3.11-3.48-2.34-6.93Z"/>
        </g>
      </g>
      <rect class="cls-7" x="390.63" y="582.51" width="34.61" height="7.05"/>
    </g>
  </g>
</svg>