<?xml version="1.0" encoding="UTF-8"?>
<svg id="Layer_2" xmlns="http://www.w3.org/2000/svg" viewBox="0 0 735.7 931.04">
  <defs>
    <style>
      .cls-1 {
        fill: #fafcfe;
      }

      .cls-2 {
        fill: #110e13;
      }

      .cls-3 {
        fill: #e51f3b;
      }

      .cls-4 {
        fill: #1f1f1f;
      }

      .cls-5 {
        fill: #eba821;
      }
    </style>
  </defs>
  <g id="Logos">
    <g>
      <g>
        <path class="cls-1" d="M328.5,893.59c-1.76-1.68-15.57-14.98-32.68-35.6l-49.66,34.47-25.68-68.84c-.76-2.04-4.26-6.84-7.96-11.92-2.16-2.96-4.45-6.1-6.88-9.57-.09.05-61,30.61-61,30.61l-19.53-65.11c-.54-1.81-4.67-15.87-8.7-38.16-14.77,1.06-25.76,1.13-28.32,1.13H0s35.98-80.41,35.98-80.41c.63-1.41,3.45-7.59,7.99-15.8-2.97-7.15-4.58-12.7-5.23-15.15l-9.9-37.67,31.46-22.96c5.73-4.18,12.02-9.8,18.71-16.72l12.36-27.27c1.22-2.68,7.25-15.61,16.99-30.28-3.31-20.78-8.17-51.88-4.18-85.31,2.53-21.2,15.45-80.87,16-83.4l4.33-19.95,17.56,9.17c.28-5.04,1.23-10.03,2.81-14.88l15.01-51.31,40.19,10.01c16.57-26.97,31.39-44.13,33.2-46.2l30.96-35.3c1.33-8.46,2.61-14.25,3.03-16.05l16.77-72.56,21.33,11.38L318.66,0l81.12,89.5c.7.77,17.25,19.05,35.39,40.99,7.35,8.89,13.81,16.97,19.49,24.38l6.6-8.24,44.11,59.48c2.78,3.74,15.72,21.38,29.09,42.5l38.28-10.6,21.02,60.35v6.44l17.48-8.96,4.29,19.8c.55,2.53,13.47,62.2,16,83.4,3.99,33.43-.87,64.53-4.18,85.31,9.74,14.67,15.77,27.59,16.99,30.28l12.36,27.27c6.69,6.92,12.98,12.54,18.71,16.72l31.46,22.96-9.9,37.67c-.64,2.45-2.25,7.99-5.22,15.16,4.54,8.21,7.36,14.39,7.99,15.8l35.98,80.41h-88.09c-2.56,0-13.55-.07-28.32-1.13-4.04,22.29-8.16,36.35-8.7,38.16l-19.53,65.11s-60.91-30.57-61-30.61c-2.48,3.55-4.8,6.73-6.87,9.57-3.7,5.08-7.2,9.87-7.96,11.92l-25.68,68.84-49.66-34.47c-17.15,20.68-30.93,33.94-32.68,35.6l-39.35,37.44-39.35-37.45Z"/>
        <path class="cls-4" d="M685.51,656.56c-.73-1.63-4.75-10.45-11.24-21.3,4.73-9.68,6.97-17.48,7.63-19.97l7.2-27.39-22.88-16.7c-7.74-5.65-15.5-12.93-22.62-20.46l-13.46-29.69c-1-2.21-7.97-17.23-19.16-33.01,3.09-19.96,9.2-52.51,5.07-87.15-2.47-20.71-15.75-81.94-15.75-81.94l-22.4,11.49c.27-7.68.27-15.19.27-22.4v-7.02l-15.35-44.09-35.47,9.83c-15.07-24.95-31.78-47.67-34.51-51.35l-32.08-43.26-6.66,8.31c-7.06-10.12-16.93-23.07-30.95-40.03-17.9-21.64-34.24-39.7-34.92-40.45l-58.99-65.09-11.7,79.21-22.91-12.22-12.2,52.77c-.43,1.86-2.09,9.34-3.6,20.28l-.31-.41-33.53,38.25c-1.02,1.17-19.1,21.95-37.44,53.83l-36.91-9.19-10.89,37.22c-1.46,4.39-2.2,8.92-2.2,13.48,0,7.45.11,15.04.53,22.7l-22.67-11.85s-13.28,61.23-15.75,81.94c-4.13,34.64,1.98,67.2,5.07,87.15-11.19,15.78-18.15,30.8-19.16,33.01l-13.46,29.69c-7.12,7.53-14.88,14.81-22.62,20.46l-22.88,16.7,7.2,27.39c.65,2.49,2.9,10.29,7.63,19.97-6.48,10.86-10.51,19.68-11.24,21.3l-26.17,58.48h64.07c3.06,0,20.22-.11,41.31-2.34,4.53,29.91,10.27,49.3,10.62,50.46l14.2,47.35,44.18-22.17c1.23-.62,5.76-2.96,12.1-7,5.32,8.48,10.27,15.27,14.59,21.19,5.56,7.62,8.52,11.78,9.96,15.65l18.68,50.07,43.9-30.47c.32-.22.72-.51,1.21-.86,20.75,26.59,39.22,44.29,40.39,45.4l28.62,27.23,28.62-27.23c1.17-1.11,19.64-18.8,40.39-45.4.48.35.89.64,1.21.86l43.9,30.47,18.68-50.07c1.44-3.87,4.41-8.02,9.96-15.65,4.31-5.92,9.26-12.71,14.59-21.19,6.34,4.04,10.87,6.38,12.1,7l44.18,22.17,14.2-47.35c.35-1.16,6.09-20.56,10.62-50.46,21.09,2.23,38.25,2.34,41.31,2.34h64.07s-26.17-58.48-26.17-58.48Z"/>
        <path class="cls-3" d="M242.62,412.93l38.63,36.73c14.76,10.07,21.46-8.81,36.35-15.35,7.68,11.18,18.84,17.48,18.84,17.48,0,0,7.44-23.49,31.41-56.14,26.52,36.15,31.41,56.14,31.41,56.14,0,0,12.23-6.69,18.84-17.48,14.9,6.54,21.59,25.42,36.35,15.35l42.54-39.4c37.59-25.64,39.66-56.44,39.66-102.24l-.25-.71s-14.77,4.09-27.29,13.98c-12-30.44-49.62-81.17-49.62-81.17,0,0-9.08,11.34-14.89,25.63,0,0-4.15-20.58-11.89-40.04-10.5-26.42-75.26-97.87-75.26-97.87,0,0-4.75,32.15,0,60.63-13.59-13.29-34.59-24.49-34.59-24.49,0,0-9.24,40-3.25,76.58-7.01-4.28-15.82-7.46-15.82-7.46,0,0-8.7,14.85-12.73,32.65-6.87-15.07-14.89-25.63-14.89-25.63,0,0-29.74,33.92-49.62,81.17-12.42-10.28-27.29-13.98-27.29-13.98-.08.26-.23.51-.23.78,0,46.13,5.07,78.59,43.56,104.84Z"/>
        <path class="cls-3" d="M367.85,739.48s38.07-29.15,56.3-54.03c20.3,15.25,34.33,35.39,34.33,35.39,0,0,18.8-26.92,26.92-68.64,10.27,6.98,26.91,13.98,26.91,13.98,0,0,8.75-21.56,0-51.27,14.3,7.77,34.99,9.32,34.99,9.32-19.18-44.28-53.83-72.24-53.83-72.24,16.79-13.67,29.61-27.96,29.61-27.96,0,0-17.49-.01-32.3,4.66,17.15-11.97,32.3-25.63,32.3-25.63,0,0-17.78-.64-32.3,0,.24-1.22,18.54-6.32,19.81-53.03,3.02-23.74,20.44-56.56,20.44-56.56,0,0,4.93,17,6.68,39.51-.19-33.96,10.34-78.16,10.34-78.16,2.32,16.04,15.34,30.83,15.35,66.45,3.5-8.4,11.2-18.41,11.2-18.41,2.42,51.01-7.83,96.49-7.83,96.49,15.03,15.59,25.57,38.84,25.57,38.84,0,0-7.43-1.27-14.78-3.18.83,1.04,1.69,2.07,2.61,3.06,0,0,28.18,42.29,61.59,66.67,0,0-4.8,18.24-18,31.15,13.79,15.12,23.87,37.64,23.87,37.64,0,0-45.69,0-77.96-9.67-2.76,50.79-13.74,87.39-13.74,87.39,0,0-26.39-13.24-43.81-37.28-21.11,55.57-41.54,66.08-50.36,89.72,0,0-18.91-13.13-28.56-35.43-26.26,46.82-65.32,84-65.32,84,0,0-39.07-37.17-65.32-84-9.65,22.3-28.56,35.43-28.56,35.43-8.82-23.64-29.25-34.15-50.36-89.72-17.42,24.04-43.81,37.28-43.81,37.28,0,0-10.98-36.6-13.74-87.39-32.27,9.67-77.96,9.67-77.96,9.67,0,0,10.08-22.52,23.87-37.64-13.21-12.91-18-31.15-18-31.15,33.4-24.38,61.59-66.67,61.59-66.67.92-.99,1.78-2.02,2.61-3.06-7.35,1.92-14.78,3.18-14.78,3.18,0,0,10.54-23.25,25.57-38.84,0,0-10.25-45.48-7.83-96.49,0,0,7.7,10.01,11.2,18.41,0-35.62,13.03-50.41,15.35-66.45,0,0,10.53,44.2,10.34,78.16,1.75-22.51,6.68-39.51,6.68-39.51,0,0,17.42,32.82,20.44,56.56,1.26,46.71,19.57,51.81,19.81,53.03-14.52-.64-32.3,0-32.3,0,0,0,15.15,13.66,32.3,25.63-14.81-4.67-32.3-4.66-32.3-4.66,0,0,12.82,14.29,29.61,27.96,0,0-34.65,27.96-53.83,72.24,0,0,20.69-1.55,34.99-9.32-8.75,29.71,0,51.27,0,51.27,0,0,16.64-7,26.91-13.98,8.12,41.72,26.92,68.64,26.92,68.64,0,0,14.02-20.14,34.33-35.39,18.23,24.88,56.3,54.03,56.3,54.03Z"/>
      </g>
      <path class="cls-5" d="M362.25,495.99c-11.32,12.44-39.58,37.33-82.9,35.03v14.48c0,4.22,1.3,8.34,3.73,11.8l80.06,113.84c2.29,3.25,7.11,3.25,9.4,0l80.06-113.84c2.43-3.45,3.73-7.57,3.73-11.8v-14.48c-43.32,2.3-71.58-22.59-82.9-35.03-3.01-3.31-8.19-3.31-11.2,0Z"/>
      <path class="cls-2" d="M410.85,544.88l-15.42-14-3.6-5.55,1.17,12.54c.27,2.91,2.67,5.24,5.75,5.6l12.11,1.42Z"/>
      <path class="cls-2" d="M324.86,544.88l15.42-14,3.6-5.55-1.17,12.54c-.27,2.91-2.67,5.24-5.75,5.6l-12.11,1.42Z"/>
      <path class="cls-1" d="M250.36,450.15c26.86,17.73,36.54,32.38,36.54,32.38,0,0,8.37,8.26,6.16,8.08l-17.78-1.91c-8.09-.67-14.62-6.5-16.88-13.79-1.93-6.22-14.86-29.27-8.03-24.76Z"/>
      <path class="cls-1" d="M485.35,450.15c-26.86,17.73-36.54,32.38-36.54,32.38,0,0-8.37,8.26-6.16,8.08l17.78-1.91c8.09-.67,14.62-6.5,16.88-13.79,1.93-6.22,14.86-29.27,8.03-24.76Z"/>
      <g>
        <path class="cls-5" d="M283.4,572.14c.22,15.9,11.06,30.14,28.16,40.04l-28.16-40.04Z"/>
        <path class="cls-5" d="M423.27,613.43c18.54-10.02,30.34-25,30.34-41.77,0-.42-.08-.82-.1-1.23l-30.24,43Z"/>
      </g>
    </g>
  </g>
</svg>