<?xml version="1.0" encoding="UTF-8"?>
<svg id="Layer_2" xmlns="http://www.w3.org/2000/svg" xmlns:xlink="http://www.w3.org/1999/xlink" viewBox="0 0 958.55 908.96">
  <defs>
    <style>
      .cls-1 {
        fill: #003594;
      }

      .cls-2 {
        fill: #fff;
      }

      .cls-3 {
        fill: none;
      }

      .cls-4 {
        fill: #ccc;
      }

      .cls-5 {
        fill: #123992;
      }

      .cls-6 {
        clip-path: url(#clippath);
      }
    </style>
    <clipPath id="clippath">
      <path class="cls-3" d="M474.28,600.28c-67.92,56.19-118.16-18.96-107.18-61.24,4.31-16.6-1.19-33.9-15.12-46.39-40.55-36.36-107.97-80.3-107.97-80.3l-37.84,29.78,35.07-56.57-42.45,24.5,35.99-57.16-21.23-2.29,65.51-54.95-31.36,9.98,142.61-101.24,5.98-34.3,31.38,21.91,51.6-5.15,51.6,5.15,31.38-21.91,5.98,34.3,142.61,101.24-31.36-9.98,65.51,54.95-21.23,2.29,35.99,57.16-42.45-24.5,35.07,56.57-37.84-29.78s-67.42,43.95-107.97,80.3c-13.93,12.49-19.43,29.79-15.12,46.39,10.98,42.28-39.26,117.43-107.18,61.24l-5.61-5.66-4.37,5.66Z"/>
    </clipPath>
  </defs>
  <g id="Logos">
    <g>
      <path class="cls-2" d="M469.2,902.22c-49.67-33.23-98.95-80.93-121.25-103.53l-7.57,22.52-20.18-15.76c-26.84-20.96-47.3-41.8-61.07-62.2l-8.81,28.01-29.89-49.1-28.41,70.64-6.41-90.07c-.63-8.9-.67-17.71-.7-26.22-.05-13.51-.1-26.54-2.6-38.29-15.76,6.18-37.56,9.3-65.23,9.3-7.17,0-11.88-.25-12.08-.26l-27.76-1.47,12.55-24.8c6.29-12.45,23.13-48.39,26.02-66.07v-.22c.13-1.84.33-5.03,1.3-12.35l-50.01,24.45,25.51-49.29L0,538.15l44.5-44.19c38.33-38.06,57.88-74.57,78.58-113.22,14.88-27.79,30.21-56.4,52.85-85.27-12.01-15.57-15.96-32.47-16.47-34.85l-5.68-26.41,24.32,4.35c-10.46-37.13-10.49-78.76.12-122.06l.13-.53.16-.52c2.99-9.68,5.79-20.6,6.36-24.68-1.22-4.99-7.61-19.46-14.24-32.12l-17.39-33.25L119.83,0l63.18,5.91c7.5.7,74.13,7.22,104.17,19.62,49.91,20.61,80.92,47.4,103.57,66.96,8.82,7.62,16.54,14.29,22.23,17.63l19.99,5.5c1.99-.13,3.85-.26,5.6-.37,14.5-.97,22.49-1.5,40.7-1.5s26.19.53,40.7,1.5c1.75.12,3.61.24,5.6.37l19.99-5.5c5.69-3.34,13.41-10.01,22.23-17.63,22.65-19.56,53.66-46.36,103.57-66.96,30.04-12.41,96.67-18.92,104.17-19.62l63.22-5.92-33.44,25.39-17.4,33.25c-6.62,12.67-13.02,27.14-14.24,32.12.56,4.04,3.36,14.98,6.36,24.67l.16.52.13.53c10.6,43.31,10.58,84.94.11,122.07l24.26-4.24-5.62,26.29c-.51,2.39-4.47,19.29-16.47,34.85,22.64,28.87,37.97,57.48,52.85,85.27,20.7,38.65,40.25,75.16,78.58,113.22l44.5,44.19-92.6-20.64,25.51,49.3-50.01-24.45c.97,7.32,1.17,10.51,1.28,12.35v.22c2.9,17.68,19.74,53.62,26.03,66.07l12.54,24.8-27.75,1.48c-.2.01-4.91.26-12.08.26-27.67,0-49.48-3.12-65.23-9.3-2.51,11.76-2.55,24.78-2.6,38.29-.03,8.52-.06,17.33-.7,26.22l-6.41,90.06-28.41-70.64-29.89,49.1-8.81-28.02c-13.77,20.39-34.23,41.24-61.07,62.2l-20.18,15.76-7.57-22.52c-22.31,22.6-71.58,70.3-121.25,103.53l-10.08,6.74-10.08-6.74Z"/>
      <path class="cls-1" d="M479.27,131.88c-20.79,0-27.33.69-48.16,2.04l-24.98-6.87c-23.08-11.88-54.97-55.48-125.87-84.76-28.4-11.73-98.94-18.33-98.94-18.33,0,0,36.51,27.72,41.5,38.94-17.25-8.86-36.13-12.65-36.13-12.65,0,0,16.71,31.94,16.38,40.39-.31,7.73-7.25,30.16-7.25,30.16-9.36,38.24-13.37,89.05,8.84,137.79-15.41.37-27.48-1.79-27.48-1.79,0,0,5.13,23.86,23.06,37.64-60.74,70.39-69.72,139.64-142.97,212.38l69.26-15.44-18.15,35.07,30.28-14.8c.28,1.56.54,3.12.8,4.67-5.98,35.51-5.37,38.92-5.68,40.93-3.72,24.26-27.83,71.93-27.83,71.93,0,0,68.99,3.67,85.22-18.21,15.95,27.14,10.3,59.43,12.51,90.49l.83,11.7,12.59-31.3,27.91,45.85,12.38-39.38s-5.67,40.68,73.95,102.85c4.63-13.79,17.55-17.57,17.55-17.57,0,0,65.6,70.23,130.37,113.56,64.77-43.33,130.37-113.56,130.37-113.56,0,0,12.92,3.79,17.55,17.57,79.61-62.17,73.95-102.85,73.95-102.85l12.38,39.38,27.91-45.85,12.59,31.3.83-11.7c2.21-31.06-3.44-63.35,12.51-90.49,16.23,21.88,85.22,18.21,85.22,18.21,0,0-24.11-47.66-27.83-71.93-.31-2.02.3-5.43-5.68-40.93.26-1.55.53-3.11.8-4.67l30.28,14.8-18.15-35.07,69.26,15.44c-73.25-72.74-82.23-141.98-142.97-212.38,17.93-13.77,23.06-37.64,23.06-37.64,0,0-12.07,2.16-27.48,1.79,22.21-48.74,18.21-99.55,8.84-137.79,0,0-6.94-22.43-7.25-30.16-.34-8.45,16.38-40.39,16.38-40.39,0,0-18.88,3.8-36.13,12.65,4.99-11.22,41.5-38.94,41.5-38.94,0,0-70.55,6.6-98.94,18.33-70.9,29.28-102.78,72.88-125.87,84.76l-24.98,6.87c-20.83-1.35-27.38-2.04-48.16-2.04Z"/>
      <polygon class="cls-5" points="479.27 826.27 479.27 826.27 479.27 826.27 479.27 826.27"/>
      <path class="cls-4" d="M787.69,466.47l-60.94-80.9h0s42.26,24.5,42.26,24.5l-46.34-57.16,21.13-2.29-65.22-54.95,31.22,9.98s-21.35-24.08-62.35-53.54l-6.46-28.46-7.62,18.67v-33.25l-26.89,16.27c-5.78-3.43-11.8-6.85-18.05-10.26-2.98-1.62-16.73,6.68-19.81,5.07-3.75-1.95,3.13-13.81-.78-15.74-13.08-11.79-19.37-24.88-19.37-24.88l-17.82,12.5-51.37-5.15-51.37,5.15-17.82-12.5s-6.3,13.09-19.37,24.88c-3.91,1.92,2.97,13.78-.78,15.74-3.09,1.61-16.83-6.69-19.81-5.07-6.25,3.4-12.27,6.83-18.05,10.26l-26.89-16.27v33.25h0l-7.62-18.67-6.46,28.46c-41,29.47-62.35,53.54-62.35,53.54l31.22-9.98-65.22,54.95,21.13,2.29-46.34,57.16,42.26-24.5h0s-60.94,80.9-60.94,80.9l36.34-15.1-7.15,70.49c5.89-21.07,45.39-40.61,59.57-58.45-21.85,45.98-23.64,98.2-23.64,98.2l44.04-46.1c-9.07,55.69,27.8,108.28,27.8,108.28l11.26-31.08c50.1,69.82,48.48,35.24,84.71,129.35,0-93.57-49.39-98.56-75.29-193.59-11.79,11.97-20.24,30.22-20.24,30.22-4.36-53.26,1.27-70.63,1.27-70.63l-25.01-6.12-.58.85.34-.91-.28-.07c.78-1.76,1.52-3.47,2.23-5.11l18.23-48.44-55.37,12.07,12.22-17.75-27.53,5.69,27.53-28.31-2.79,14.88,10.49-2.94,6.89,10.68,37.41-7.21,4.71,17.13-14.23,21c16.83,12.48,34.46,26.3,48.75,39.17,13.86,12.49,19.35,29.79,15.05,46.39-10.94,42.28,39.09,117.43,106.7,61.24l4.66-10.37,5.28,10.37c67.61,56.19,117.63-18.96,106.7-61.24-4.29-16.6,1.19-33.9,15.05-46.39,13.99-12.6,31.2-26.12,47.71-38.4l-14.75-21.77,4.71-17.13,37.41,7.21,6.89-10.68,10.49,2.94-2.79-14.88,27.53,28.31-27.53-5.69,12.22,17.75-55.37-12.07,8.38,22.27c3.72,7.88,7.71,17.8,13.65,31.29l-1.71.42.21.56-.36-.53-23.67,5.8s5.64,17.37,1.27,70.63c0,0-8.45-18.25-20.24-30.22-25.91,95.03-75.29,100.02-75.29,193.59,36.23-94.11,34.61-59.53,84.71-129.35l11.26,31.08s36.87-52.59,27.8-108.28l44.04,46.1s-1.79-52.22-23.64-98.2c14.18,17.84,53.68,37.38,59.57,58.45l-7.15-70.49,36.34,15.1Z"/>
      <path class="cls-2" d="M687.66,354.65c-15.85-18.11-39.82-31.27-39.82-31.27h15.52l-40.76-11.8-12.26-5.99-18.63,8.94-21.83,33.38-10.22,59.25v6.88l-.18.24s-7.11,5-8.93,13.95c-1.95,9.57,22.45,6.01,26.42-3.07l4.64-8.69c1.29,1.83,2.47,3.94,3.22,6.28,4.19-7.9,3.59-14.79,3.16-17.3l1.06-.53c2.4.97,7.83,3.44,13.21,7.87.29-7.4-1.89-13.47-1.89-13.47l-.62.24,1.09-.54c3.3,2.63,9.02,7.75,11.79,13.58,4.08-7.93.79-16.43-.53-19.23l.73-.37c2.37,1.1,7.91,3.47,14.09,4.53-3.15-4.33-2.7-10.23-2.7-10.23h0l7.43-3.72h15.52l-8.1-8.18,12.82-13.74s12.82-6.6,35.77-7Z"/>
      <path class="cls-2" d="M270.89,354.65c15.85-18.11,39.82-31.27,39.82-31.27h-15.52s40.76-11.8,40.76-11.8l12.26-5.99,18.63,8.94,21.83,33.38,10.22,59.25v6.88s.18.24.18.24c0,0,7.11,5,8.93,13.95,1.95,9.57-22.45,6.01-26.42-3.07l-4.64-8.69c-1.29,1.83-2.47,3.94-3.22,6.28-4.19-7.9-3.59-14.79-3.16-17.3l-1.06-.53c-2.4.97-7.83,3.44-13.21,7.87-.29-7.4,1.89-13.47,1.89-13.47l.62.24-1.09-.54c-3.3,2.63-9.02,7.75-11.79,13.58-4.08-7.93-.79-16.43.53-19.23l-.73-.37c-2.37,1.1-7.91,3.47-14.09,4.53,3.15-4.33,2.7-10.23,2.7-10.23h0l-7.43-3.72h-15.52s8.1-8.18,8.1-8.18l-12.82-13.74s-12.82-6.6-35.77-7Z"/>
      <g class="cls-6">
        <path class="cls-1" d="M502.84,261.1c-11.34,5.2-25.04.82-30.6-9.79-5.56-10.61-.87-23.44,10.46-28.64,2.59-1.19,5.31-1.87,8.02-2.1-5.07-.73-10.42-.07-15.37,2.2-12.89,5.92-18.22,20.5-11.9,32.57,6.32,12.07,21.9,17.06,34.79,11.14,4.95-2.27,8.78-5.83,11.27-10.03-1.85,1.87-4.09,3.46-6.69,4.65Z"/>
        <polygon class="cls-2" points="479.23 523.8 491.71 496.16 500.13 505.59 500.38 506.07 520.25 494.36 540.8 459.22 554.45 492.7 568.07 466.69 568.07 494.36 602.27 466.69 590.8 496.23 614.96 484.14 600.33 518.7 611.39 563.86 555.47 638.6 479.32 638.6 479.07 638.6 479.4 638.6 479.15 638.6 403 638.6 347.08 563.86 358.14 518.7 343.51 484.14 367.67 496.23 356.2 466.69 390.4 494.36 390.4 466.69 404.02 492.7 417.67 459.22 438.22 494.36 458.09 506.07 458.34 505.59 466.76 496.16 479.23 523.8"/>
      </g>
      <path class="cls-1" d="M586.39,337.09c-2.83-3.66.44-13.84,3.61-17.29,4.39-4.78,23.08-14.2,23.08-14.2,0,0-15.24-.53-22.32.88-.75-6.97-2.6-13.09-2.6-13.09l-3.26,16.8h0c-4.79,11.39-14.49,37.22-41.07,33.89-48.36-6.06-19.48-68.13-19.48-68.13,0,0-24.53,12.97-17.31,53.33,1.79,10,21.71,28.77,21.71,28.77,6.43,10.22,2.1,25.35,2.1,25.35,0,0,8.66-11.38,11.54-25.35,16.41-1.05,24.49-5.53,24.49-5.53,0,0-7.15,18.6-7.9,61.76,9.02-11.27,16.91-21.69,16.91-21.69,0,0,32.6-15.19,41.52-20.56,5.33-3.21,13.58-11.1,21.82-17.96,8.63-7.19,21.46-2.47,21.46-2.47,0,0-21.64-26.56-74.3-14.51Z"/>
      <path class="cls-1" d="M434.19,275.95s28.88,62.07-19.48,68.13c-26.58,3.33-36.27-22.5-41.07-33.89h0s-3.26-16.8-3.26-16.8c0,0-1.85,6.12-2.6,13.09-7.08-1.41-22.32-.88-22.32-.88,0,0,18.69,9.42,23.08,14.2,3.17,3.45,6.44,13.63,3.61,17.29-52.66-12.04-74.3,14.51-74.3,14.51,0,0,12.83-4.72,21.46,2.47,8.24,6.86,16.49,14.75,21.82,17.96,8.92,5.38,41.52,20.56,41.52,20.56,0,0,7.89,10.42,16.91,21.69-.75-43.16-7.9-61.76-7.9-61.76,0,0,8.08,4.48,24.49,5.53,2.89,13.98,11.54,25.35,11.54,25.35,0,0-4.33-15.13,2.1-25.35,0,0,19.92-18.77,21.71-28.77,7.21-40.36-17.31-53.33-17.31-53.33Z"/>
      <path class="cls-2" d="M582.1,372.87c-3.02.66-5.22-2.44-3.19-4.49,6.27-6.34,10.94-15.33,15.42-17.1,2.92-1.16,15.52-1,19.84-.82,1.29.06,2.01,1.32,1.27,2.24-3.33,4.14-10.93,13.2-15.31,15.32-2.81,1.36-11.25,3.36-18.02,4.85Z"/>
      <path class="cls-2" d="M376.44,372.87c3.02.66,5.22-2.44,3.19-4.49-6.27-6.34-10.94-15.33-15.42-17.1-2.92-1.16-15.52-1-19.84-.82-1.29.06-2.01,1.32-1.27,2.24,3.33,4.14,10.93,13.2,15.31,15.32,2.81,1.36,11.25,3.36,18.02,4.85Z"/>
      <path class="cls-1" d="M536.6,552.31s0-11.62-57.45-11.62-57.45,11.62-57.45,11.62l-3.84,16.35,1.21,2.44c.12.29.26.58.43.87l.24.48s.01-.04.01-.06c.59.92,1.41,1.84,2.42,2.71,3.24,2.78,7.27,3.83,9,2.36,1.72-1.48.49-4.92-2.75-7.7-1.48-1.26-3.12-2.17-4.63-2.64,5.94-2.6,16.17,2.28,23.24,11.21,7.29,9.19,8.47,13.26,2.61,16.42-1.93,1.05-4.4,1.19-7.1.61l-.77.85s11.07,12.9,32.26,14.76l5.1-16,5.1,16c21.19-1.86,32.26-14.76,32.26-14.76l-.77-.85c-2.7.58-5.16.44-7.1-.61-5.86-3.16-4.68-7.22,2.61-16.42,7.07-8.93,17.3-13.81,23.24-11.21-1.51.47-3.15,1.38-4.63,2.64-3.24,2.78-4.48,6.23-2.75,7.7,1.72,1.48,5.75.42,9-2.36,1.01-.87,1.82-1.79,2.42-2.71,0,.02.01.04.01.06l.24-.48c.17-.3.31-.59.43-.87l1.21-2.44-3.84-16.35Z"/>
      <path class="cls-2" d="M479.14,629.18c-25.61,0-24.92,10.6-61.29,10.6,0,0,20.27,26.39,61.29,26.39s61.29-26.39,61.29-26.39c-24.14,0-35.68-10.6-61.29-10.6Z"/>
      <path class="cls-4" d="M577.36,209.59c40.02-25.13,87.71-60.37,87.71-60.37,0,0-3.29-3.04-14.34,32.4,21.32-31.13,27.48-43.85,27.48-43.85,0,0,.6,32.03-21.51,67.91.74,5.76,11.95,21.48,11.95,21.48l2.39,20.62,41.82,29.21-15.53-22.34,21.51,6.87-40.62-42.96,31.06,18.04-4.78-24.06,14.34,10.31-10.75-28.36-21.51,4.73,26.28-12.46s27.46-80.98-24.2-86.32c-45.7-4.73-119.66,64.45-119.66,64.45l16.73,5.16-23.9,17.19,21.51-.86s.9,8.38-5.97,23.2Z"/>
      <path class="cls-4" d="M381.18,209.59c-40.02-25.13-87.71-60.37-87.71-60.37,0,0,3.29-3.04,14.34,32.4-21.32-31.13-27.48-43.85-27.48-43.85,0,0-.6,32.03,21.51,67.91-.74,5.76-11.95,21.48-11.95,21.48l-2.39,20.62-41.82,29.21,15.53-22.34-21.51,6.87,40.62-42.96-31.06,18.04,4.78-24.06-14.34,10.31,10.75-28.36,21.51,4.73-26.28-12.46s-27.46-80.98,24.2-86.32c45.7-4.73,119.66,64.45,119.66,64.45l-16.73,5.16,23.9,17.19-21.51-.86s-.9,8.38,5.97,23.2Z"/>
      <path class="cls-4" d="M531.09,762.22l-9.29-23.12-12.12,13.76-30.72-37.62-30.72,37.62-12.12-13.76-9.28,23.1-23.6-3.7,19.21,13.11.84-.59-.24.59c18.34,8.76,34.18,25.76,45.78,37.09,2.47,2.41,10.41,11.17,10.41,11.17,3.61-4.39,7.33-8.76,9.81-11.17,11.6-11.33,27.44-28.33,45.78-37.09l19.21-13.11-22.98,3.72Z"/>
    </g>
  </g>
</svg>