<?xml version="1.0" encoding="UTF-8"?>
<svg id="Layer_2" data-name="Layer 2" xmlns="http://www.w3.org/2000/svg" xmlns:xlink="http://www.w3.org/1999/xlink" viewBox="0 0 624.23 572.87">
  <defs>
    <style>
      .cls-1 {
        fill: #fff;
      }

      .cls-2 {
        fill: none;
      }

      .cls-3 {
        fill: #0b2a5b;
      }

      .cls-4 {
        fill: #a5b0b6;
      }

      .cls-5 {
        fill: #e4e6ed;
      }

      .cls-6 {
        clip-path: url(#clippath);
      }
    </style>
    <clipPath id="clippath">
      <path class="cls-2" d="M311.42,521.17c-17.56-6.24-67.77-28.6-141.15-98.58-42.59-40.61-67.85-87.17-79.12-111.31-1.57-3.36-2.18-7.08-1.76-10.76l22.64-200.5,198.55-49.92c.28-.07.56-.1.84-.1s.56.03.84.1l198.55,49.92,22.64,200.5c.42,3.68-.19,7.4-1.76,10.76-11.27,24.14-36.53,70.7-79.12,111.31-73.37,69.97-123.59,92.34-141.15,98.58Z"/>
    </clipPath>
  </defs>
  <g id="Layer_1-2" data-name="Layer 1">
    <g id="white_icon">
      <g>
        <path class="cls-4" d="M309.83,572.61c-2.69-.43-67.08-11.82-174.06-113.84-48.51-46.27-77.16-99.02-89.92-126.34-5.47-11.71-7.59-24.69-6.14-37.52l23.27-206.14c1.94-17.22,14.54-31.63,31.35-35.85L298.39,1.61c4.26-1.07,8.64-1.61,13.03-1.61s8.77.54,13.03,1.61l204.06,51.3c16.8,4.23,29.4,18.63,31.35,35.85l23.27,206.14c1.45,12.84-.68,25.81-6.14,37.52-12.76,27.33-41.4,80.07-89.92,126.34-106.97,102.01-171.37,113.4-174.06,113.84l-1.6.26-1.6-.26Z"/>
        <polygon class="cls-4" points="0 390.79 43.45 280.39 0 169.99 624.22 169.99 580.78 280.39 624.23 390.79 0 390.79"/>
        <polygon class="cls-3" points="11.75 382.79 52.04 280.39 11.75 177.99 612.48 177.99 572.18 280.39 612.48 382.79 11.75 382.79"/>
        <path class="cls-3" d="M573.2,296.03l-23.27-206.14c-1.49-13.17-10.99-24.04-23.85-27.28L322.02,11.31c-6.95-1.75-14.23-1.75-21.19,0L96.77,62.62c-12.86,3.23-22.36,14.1-23.85,27.28l-23.27,206.14c-1.24,11.01.58,22.13,5.27,32.17,12.07,25.86,40.11,77.9,87.76,123.33,105.96,101.05,168.75,111.2,168.75,111.2,0,0,62.79-10.16,168.75-111.2,47.64-45.43,75.68-97.48,87.76-123.33,4.69-10.04,6.51-21.16,5.27-32.17Z"/>
        <path class="cls-5" d="M311.42,541.13c-14.19-4.08-69.64-24.09-154.26-104.79-44.84-42.76-71.39-91.67-83.22-117.02-3.05-6.54-4.24-13.77-3.43-20.93l23.27-206.14c.5-4.45,3.76-8.17,8.1-9.27l204.06-51.3c1.79-.45,3.63-.68,5.47-.68s3.68.23,5.47.68l204.06,51.3c4.34,1.09,7.6,4.81,8.1,9.27l23.27,206.14c.81,7.16-.38,14.4-3.43,20.93-11.83,25.35-38.38,74.26-83.22,117.02-84.62,80.7-140.07,100.71-154.26,104.79Z"/>
        <path class="cls-1" d="M311.42,521.17c-17.56-6.24-67.77-28.6-141.15-98.58-42.59-40.61-67.85-87.17-79.12-111.31-1.57-3.36-2.18-7.08-1.76-10.76l22.64-200.5,198.55-49.92c.28-.07.56-.1.84-.1s.56.03.84.1l198.55,49.92,22.64,200.5c.42,3.68-.19,7.4-1.76,10.76-11.27,24.14-36.53,70.7-79.12,111.31-73.37,69.97-123.59,92.34-141.15,98.58Z"/>
        <g class="cls-6">
          <g>
            <rect class="cls-5" x="495.93" y="195.65" width="37.65" height="367.1"/>
            <rect class="cls-5" x="428.15" y="195.65" width="37.65" height="367.1"/>
            <rect class="cls-5" x="360.38" y="195.65" width="37.65" height="367.1"/>
            <rect class="cls-5" x="292.6" y="195.65" width="37.65" height="367.1"/>
            <rect class="cls-5" x="224.82" y="195.65" width="37.65" height="367.1"/>
            <rect class="cls-5" x="157.05" y="195.65" width="37.65" height="367.1"/>
            <rect class="cls-5" x="89.27" y="195.65" width="37.65" height="367.1"/>
          </g>
        </g>
        <polygon class="cls-3" points="101.31 194.99 112.03 100.02 312.26 50.1 510.82 100.02 521.54 194.99 101.31 194.99"/>
        <path class="cls-2" d="M311.42,521.17c-17.56-6.24-67.77-28.6-141.15-98.58-42.59-40.61-67.85-87.17-79.12-111.31-1.57-3.36-2.18-7.08-1.76-10.76l22.64-200.5,198.55-49.92c.28-.07.56-.1.84-.1s.56.03.84.1l198.55,49.92,22.64,200.5c.42,3.68-.19,7.4-1.76,10.76-11.27,24.14-36.53,70.7-79.12,111.31-73.37,69.97-123.59,92.34-141.15,98.58Z"/>
        <g>
          <polygon class="cls-5" points="213.95 176.82 206.42 169.5 206.42 125.48 213.95 118.15 262.18 118.15 268.8 124.76 268.8 138.16 253.88 138.16 253.88 132.73 221.34 132.73 221.34 162.24 253.88 162.24 253.88 156.82 268.8 156.82 268.8 170.21 262.18 176.82 213.95 176.82"/>
          <polygon class="cls-1" points="214.37 119.18 207.46 125.91 207.46 169.06 214.37 175.79 261.76 175.79 267.76 169.78 267.76 157.85 254.92 157.85 254.92 163.27 220.31 163.27 220.31 131.7 254.92 131.7 254.92 137.12 267.76 137.12 267.76 125.19 261.76 119.18 214.37 119.18"/>
          <polygon class="cls-5" points="216.33 170.96 212.29 167.02 212.29 127.95 216.33 124.01 259.75 124.01 262.94 127.19 262.94 132.29 259.75 132.29 259.75 128.59 258.02 126.87 217.2 126.87 215.48 128.59 215.48 166.38 217.2 168.1 258.02 168.1 259.75 166.38 259.75 162.68 262.94 162.68 262.94 167.78 259.75 170.96 216.33 170.96"/>
          <polygon class="cls-5" points="361.57 176.82 354.05 169.5 354.05 125.48 361.57 118.15 409.8 118.15 416.42 124.76 416.42 138.16 401.51 138.16 401.51 132.73 368.96 132.73 368.96 162.24 401.51 162.24 401.51 156.82 416.42 156.82 416.42 170.21 409.8 176.82 361.57 176.82"/>
          <polygon class="cls-1" points="361.99 119.18 355.08 125.91 355.08 169.06 361.99 175.79 409.38 175.79 415.39 169.78 415.39 157.85 402.54 157.85 402.54 163.27 367.93 163.27 367.93 131.7 402.54 131.7 402.54 137.12 415.39 137.12 415.39 125.19 409.38 119.18 361.99 119.18"/>
          <polygon class="cls-5" points="363.95 170.96 359.91 167.02 359.91 127.95 363.95 124.01 407.38 124.01 410.56 127.19 410.56 132.29 407.37 132.29 407.37 128.59 405.65 126.87 364.82 126.87 363.1 128.59 363.1 166.38 364.82 168.1 405.65 168.1 407.37 166.38 407.37 162.68 410.56 162.68 410.56 167.78 407.38 170.96 363.95 170.96"/>
          <polygon class="cls-5" points="330.44 176.82 330.44 154.78 294.02 154.78 294.02 176.82 279.1 176.82 279.1 118.15 294.02 118.15 294.02 140.19 330.44 140.19 330.44 118.15 345.36 118.15 345.36 176.82 330.44 176.82"/>
          <polygon class="cls-1" points="331.48 119.18 331.48 141.23 292.99 141.23 292.99 119.18 280.14 119.18 280.14 175.79 292.99 175.79 292.99 153.75 331.48 153.75 331.48 175.79 344.32 175.79 344.32 119.18 331.48 119.18"/>
          <polygon class="cls-5" points="336.31 170.96 336.31 148.92 288.16 148.92 288.16 170.96 284.97 170.96 284.97 124.01 288.16 124.01 288.16 146.06 336.31 146.06 336.31 124.01 339.5 124.01 339.5 170.96 336.31 170.96"/>
        </g>
        <polygon class="cls-5" points="36.71 365.79 70.31 280.39 36.71 194.99 587.52 194.99 553.91 280.39 587.52 365.79 36.71 365.79"/>
        <polygon class="cls-1" points="567.71 351.3 56.52 351.3 84.42 280.39 56.52 209.48 567.71 209.48 539.8 280.39 567.71 351.3"/>
        <g>
          <path class="cls-3" d="M181.81,231.16h25.02l12.01,80.62c3.94-35.66,7.46-62.54,10.55-80.62h19.92l-16.93,99.14h-26.31l-11.72-71.37-11.72,71.37h-26.31l-16.99-99.14h19.92c3.09,18.09,6.6,44.96,10.55,80.62l12.01-80.62Z"/>
          <path class="cls-3" d="M277.14,289.93v40.37h-19.69v-99.14h19.69v40.37h18.63v-40.37h19.69v99.14h-19.69v-40.37h-18.63Z"/>
          <path class="cls-3" d="M331.16,330.3v-99.14h19.69v99.14h-19.69Z"/>
          <path class="cls-3" d="M379.56,249.5h-19.22v-18.34h58.01v18.34h-19.16v80.8h-19.63v-80.8Z"/>
          <path class="cls-3" d="M444.48,311.96h32.81v18.34h-52.5v-99.14h52.5v18.34h-32.81v22.03h27.3v18.4h-27.3v22.03Z"/>
        </g>
      </g>
      <polygon class="cls-1" points="311.42 64.56 315.72 77.78 329.63 77.78 318.38 85.96 322.67 99.18 311.42 91.01 300.18 99.18 304.47 85.96 293.22 77.78 307.13 77.78 311.42 64.56"/>
      <polygon class="cls-1" points="481.63 139.86 485.93 153.09 499.83 153.09 488.58 161.26 492.88 174.49 481.63 166.31 470.38 174.49 474.68 161.26 463.43 153.09 477.34 153.09 481.63 139.86"/>
      <polygon class="cls-1" points="142.89 139.86 138.59 153.09 124.69 153.09 135.94 161.26 131.64 174.49 142.89 166.31 154.14 174.49 149.84 161.26 161.09 153.09 147.19 153.09 142.89 139.86"/>
    </g>
  </g>
</svg>