<?xml version="1.0" encoding="UTF-8"?>
<svg id="Layer_2" xmlns="http://www.w3.org/2000/svg" xmlns:xlink="http://www.w3.org/1999/xlink" viewBox="0 0 617 617">
  <defs>
    <style>
      .cls-1 {
        fill: #fff;
      }

      .cls-2 {
        fill: none;
      }

      .cls-3 {
        clip-path: url(#clippath-1);
      }

      .cls-4 {
        fill: #0b2a5b;
      }

      .cls-5 {
        fill: #e4e6ed;
      }

      .cls-6 {
        fill: #ea1836;
      }

      .cls-7 {
        clip-path: url(#clippath);
      }
    </style>
    <clipPath id="clippath">
      <path class="cls-2" d="M85.51,323.21c-1.58-3.36-2.2-7.08-1.78-10.75l22.85-205.34,200.38-49.88c.28-.07.56-.1.85-.1s.57.03.84.1l200.39,49.88,22.85,205.34c.42,3.68-.2,7.4-1.78,10.76-11.37,24.12-433.22,24.12-444.59,0Z"/>
    </clipPath>
    <clipPath id="clippath-1">
      <polygon class="cls-2" points="307.81 454.91 242.77 531.99 102.89 370.89 307.82 370.78 512.72 370.89 372.84 531.99 307.81 454.91"/>
    </clipPath>
  </defs>
  <g id="Layer_1-2" data-name="Layer_1">
    <g>
      <g>
        <path class="cls-6" d="M68.14,331.24c-3.08-6.53-4.28-13.76-13.55-20.92l23.49-210.98c10.6-4.45,13.89-8.17,18.27-9.26l205.94-51.26c1.8-.45,3.66-.68,5.52-.68s3.72.23,5.52.68l205.94,51.26c4.38,1.09,7.67,4.81,18.27,9.26l18.44,210.98c-9.28,7.15-5.43,14.39-8.51,20.92-11.94,25.33-467.4,25.33-479.34,0Z"/>
        <path class="cls-1" d="M85.51,323.21c-1.58-3.36-2.2-7.08-1.78-10.75l22.85-205.34,200.38-49.88c.28-.07.56-.1.85-.1s.57.03.84.1l200.39,49.88,22.85,205.34c.42,3.68-.2,7.4-1.78,10.76-11.37,24.12-433.22,24.12-444.59,0Z"/>
        <g class="cls-7">
          <g>
            <rect class="cls-5" x="494.01" y="202.66" width="38" height="371.81"/>
            <rect class="cls-6" x="425.61" y="202.66" width="38" height="371.81"/>
            <rect class="cls-6" x="357.21" y="202.66" width="38" height="371.81"/>
            <rect class="cls-6" x="288.81" y="202.66" width="38" height="155.26"/>
            <rect class="cls-6" x="220.4" y="202.66" width="38" height="371.81"/>
            <rect class="cls-6" x="152" y="202.66" width="38" height="371.81"/>
            <rect class="cls-5" x="83.6" y="202.66" width="38" height="371.81"/>
          </g>
        </g>
        <polygon class="cls-5" points="307.81 540.64 243.38 617 74.62 422.63 0 422.63 35.23 292.34 0 162.04 44.45 162.04 55.73 63.17 307.81 0 560.25 63.26 566.57 162.04 617 162.04 581.77 292.34 617 422.63 540.99 422.63 372.23 617 307.81 540.64"/>
        <polygon class="cls-4" points="603.71 412.64 571.3 292.34 603.71 172.03 557.1 172.03 550.64 71.16 307.81 10.31 64.97 71.16 53.47 172.03 13.29 172.03 45.7 292.34 13.29 412.64 79.26 412.64 243.27 601.54 307.81 525.05 372.34 601.54 536.36 412.64 603.71 412.64"/>
        <polygon class="cls-6" points="73.16 222 88.08 91.13 307.81 36.08 527.53 91.13 542.45 222 73.16 222"/>
        <polygon class="cls-4" points="95.75 202.01 106.57 107.11 307.81 56.69 509.04 107.11 519.86 202.01 95.75 202.01"/>
        <path class="cls-1" d="M406.08,222c0-52.87-43.29-95.74-96.7-95.74s-96.7,42.86-96.7,95.74,43.29,100.73,96.7,100.73,96.7-47.86,96.7-100.73Z"/>
        <path class="cls-6" d="M382.49,222c0-39.98-32.73-72.39-73.11-72.39s-73.11,32.41-73.11,72.39,32.73,77.38,73.11,77.38,73.11-37.41,73.11-77.38Z"/>
        <path class="cls-2" d="M85.51,323.21c-1.58-3.36-2.2-7.08-1.78-10.75l22.85-205.34,200.38-49.88c.28-.07.56-.1.85-.1s.57.03.84.1l200.39,49.88,22.85,205.34c.42,3.68-.2,7.4-1.78,10.76-11.37,24.12-433.22,24.12-444.59,0Z"/>
        <g>
          <polygon class="cls-6" points="307.81 345.8 58.94 345.93 242.99 562.91 307.81 486.09 372.62 562.91 556.67 345.93 307.81 345.8"/>
          <polygon class="cls-1" points="307.81 454.91 242.77 531.99 102.89 370.89 307.82 370.78 512.72 370.89 372.84 531.99 307.81 454.91"/>
          <g class="cls-3">
            <g>
              <polygon class="cls-6" points="457.78 599.45 421.2 619.44 421.2 207.66 457.78 207.66 457.78 599.45"/>
              <rect class="cls-6" x="355.36" y="207.66" width="36.58" height="411.78"/>
              <rect class="cls-6" x="289.52" y="207.66" width="36.58" height="391.79"/>
              <rect class="cls-6" x="223.67" y="207.66" width="36.58" height="411.78"/>
              <polygon class="cls-6" points="194.41 619.44 157.83 599.45 157.83 207.66 194.41 207.66 194.41 619.44"/>
            </g>
          </g>
        </g>
        <polygon class="cls-6" points="45.69 389.33 72.54 292.34 45.69 195.34 571.31 195.34 544.46 292.34 571.31 389.33 45.69 389.33"/>
        <polygon class="cls-4" points="571.5 373.72 45.5 373.72 58.52 292.34 45.5 210.95 571.5 210.95 553.43 292.34 571.5 373.72"/>
        <g>
          <g>
            <polygon class="cls-5" points="98.02 347.75 83.77 333.99 83.77 251.36 98.02 237.6 199.28 237.6 211.83 250.02 211.83 275.16 183.55 275.16 183.55 264.98 112.05 264.98 112.05 320.37 183.55 320.37 183.55 310.19 211.83 310.19 211.83 335.33 199.28 347.75 98.02 347.75"/>
            <polygon class="cls-1" points="98.82 239.55 85.73 252.18 85.73 333.17 98.82 345.8 198.47 345.8 209.86 334.52 209.86 312.13 185.51 312.13 185.51 322.31 110.08 322.31 110.08 263.04 185.51 263.04 185.51 273.22 209.86 273.22 209.86 250.83 198.47 239.55 98.82 239.55"/>
            <polygon class="cls-5" points="102.55 336.74 94.88 329.35 94.88 256 102.55 248.61 194.68 248.61 200.71 254.58 200.71 264.15 194.66 264.15 194.66 257.21 191.39 253.97 104.2 253.97 100.93 257.21 100.93 328.14 104.2 331.38 191.39 331.38 194.66 328.14 194.66 321.2 200.71 321.2 200.71 330.77 194.68 336.74 102.55 336.74"/>
          </g>
          <g>
            <polygon class="cls-5" points="421.19 347.75 406.94 333.99 406.94 251.36 421.19 237.6 522.45 237.6 535 250.02 535 275.16 506.72 275.16 506.72 264.98 435.21 264.98 435.21 320.37 506.72 320.37 506.72 310.19 535 310.19 535 335.33 522.45 347.75 421.19 347.75"/>
            <polygon class="cls-1" points="421.99 239.55 408.9 252.18 408.9 333.17 421.99 345.8 521.63 345.8 533.03 334.52 533.03 312.13 508.68 312.13 508.68 322.31 433.25 322.31 433.25 263.04 508.68 263.04 508.68 273.22 533.03 273.22 533.03 250.83 521.63 239.55 421.99 239.55"/>
            <polygon class="cls-5" points="425.71 336.74 418.05 329.35 418.05 256 425.71 248.61 517.84 248.61 523.88 254.58 523.88 264.15 517.83 264.15 517.83 257.21 514.56 253.97 427.36 253.97 424.09 257.21 424.09 328.14 427.36 331.38 514.56 331.38 517.83 328.14 517.83 321.2 523.88 321.2 523.88 330.77 517.84 336.74 425.71 336.74"/>
          </g>
          <polygon class="cls-5" points="353.71 347.75 353.71 306.37 265.05 306.37 265.05 347.75 236.77 347.75 236.77 237.6 265.05 237.6 265.05 278.98 353.71 278.98 353.71 237.6 381.99 237.6 381.99 347.75 353.71 347.75"/>
          <polygon class="cls-1" points="355.67 239.55 355.67 280.92 263.09 280.92 263.09 239.55 238.73 239.55 238.73 345.8 263.09 345.8 263.09 304.42 355.67 304.42 355.67 345.8 380.03 345.8 380.03 239.55 355.67 239.55"/>
          <polygon class="cls-5" points="364.83 336.74 364.83 295.36 253.93 295.36 253.93 336.74 247.89 336.74 247.89 248.61 253.93 248.61 253.93 289.99 364.83 289.99 364.83 248.61 370.87 248.61 370.87 336.74 364.83 336.74"/>
        </g>
      </g>
      <polygon class="cls-1" points="307.81 71.68 312.14 84.89 326.18 84.89 314.82 93.06 319.16 106.27 307.81 98.11 296.45 106.27 300.79 93.06 289.44 84.89 303.47 84.89 307.81 71.68"/>
      <polygon class="cls-1" points="394.14 93.03 398.47 106.24 412.51 106.24 401.15 114.41 405.49 127.62 394.14 119.46 382.79 127.62 387.12 114.41 375.77 106.24 389.8 106.24 394.14 93.03"/>
      <polygon class="cls-1" points="481.27 112.05 485.61 125.27 499.64 125.27 488.29 133.43 492.63 146.65 481.27 138.48 469.92 146.65 474.26 133.43 462.9 125.27 476.94 125.27 481.27 112.05"/>
      <polygon class="cls-1" points="179.35 147.92 175.02 161.14 160.98 161.14 172.34 169.31 168 182.52 179.35 174.35 190.71 182.52 186.37 169.31 197.72 161.14 183.69 161.14 179.35 147.92"/>
      <polygon class="cls-1" points="439.41 147.92 443.75 161.14 457.78 161.14 446.43 169.31 450.76 182.52 439.41 174.35 428.06 182.52 432.39 169.31 421.04 161.14 435.07 161.14 439.41 147.92"/>
      <polygon class="cls-1" points="224.62 93.03 220.29 106.24 206.25 106.24 217.61 114.41 213.27 127.62 224.62 119.46 235.98 127.62 231.64 114.41 242.99 106.24 228.96 106.24 224.62 93.03"/>
      <polygon class="cls-1" points="137.49 112.05 133.15 125.27 119.12 125.27 130.47 133.43 126.14 146.65 137.49 138.48 148.84 146.65 144.51 133.43 155.86 125.27 141.83 125.27 137.49 112.05"/>
    </g>
  </g>
</svg>