<?xml version="1.0" encoding="UTF-8"?>
<svg id="Layer_2" data-name="Layer 2" xmlns="http://www.w3.org/2000/svg" viewBox="0 0 977.42 977.42">
  <defs>
    <style>
      .cls-1 {
        fill: #016735;
      }

      .cls-2 {
        fill: #141414;
      }

      .cls-3, .cls-4 {
        fill: #fff;
      }

      .cls-5 {
        fill: #212121;
      }

      .cls-4 {
        font-family: LegendM54, 'Legend M54';
        font-size: 130px;
      }
    </style>
  </defs>
  <g id="Logos">
    <g>
      <g>
        <g>
          <path class="cls-2" d="M488.71,977.42c-65.92,0-129.93-12.94-190.27-38.46-58.21-24.62-110.46-59.84-155.3-104.68-44.84-44.84-80.06-97.09-104.68-155.3C12.94,618.64,0,554.63,0,488.71s12.94-129.93,38.46-190.27c24.62-58.21,59.84-110.46,104.68-155.3,44.84-44.84,97.09-80.06,155.3-104.68C358.78,12.94,422.8,0,488.71,0s129.93,12.94,190.27,38.46c58.22,24.62,110.47,59.84,155.3,104.68,44.84,44.84,80.06,97.09,104.68,155.3,25.52,60.34,38.46,124.35,38.46,190.27s-12.94,129.93-38.46,190.27c-24.62,58.21-59.84,110.46-104.68,155.3-44.84,44.84-97.09,80.06-155.3,104.68-60.34,25.52-124.35,38.46-190.27,38.46Z"/>
          <path class="cls-1" d="M488.71,947.42c-61.88,0-121.96-12.14-178.58-36.09-54.64-23.11-103.68-56.17-145.77-98.26-42.09-42.09-75.15-91.14-98.26-145.77-23.95-56.62-36.09-116.7-36.09-178.58s12.14-121.96,36.09-178.58c23.11-54.64,56.17-103.68,98.26-145.77,42.09-42.09,91.14-75.15,145.77-98.26,56.62-23.95,116.71-36.09,178.58-36.09s121.96,12.14,178.58,36.09c54.64,23.11,103.68,56.17,145.77,98.26,42.09,42.09,75.15,91.14,98.26,145.77,23.95,56.62,36.09,116.7,36.09,178.58s-12.14,121.96-36.09,178.58c-23.11,54.64-56.17,103.68-98.26,145.77-42.09,42.09-91.14,75.15-145.77,98.26-56.62,23.95-116.71,36.09-178.58,36.09Z"/>
          <path class="cls-2" d="M488.71,927.42c-59.19,0-116.65-11.61-170.79-34.51-52.25-22.1-99.16-53.72-139.42-93.98-40.26-40.26-71.88-87.17-93.98-139.42-22.9-54.14-34.51-111.6-34.51-170.79s11.61-116.65,34.51-170.79c22.1-52.25,53.72-99.16,93.98-139.42,40.26-40.26,87.17-71.88,139.42-93.98,54.14-22.9,111.6-34.51,170.79-34.51s116.65,11.61,170.79,34.51c52.25,22.1,99.16,53.72,139.42,93.98,40.26,40.26,71.88,87.17,93.98,139.42,22.9,54.14,34.51,111.6,34.51,170.79s-11.61,116.65-34.51,170.79c-22.1,52.25-53.72,99.16-93.98,139.42-40.26,40.26-87.17,71.88-139.42,93.98-54.14,22.9-111.6,34.51-170.79,34.51Z"/>
          <circle class="cls-1" cx="488.71" cy="488.71" r="272"/>
          <path class="cls-2" d="M488.71,740.71c-67.31,0-130.59-26.21-178.19-73.81-47.6-47.6-73.81-110.88-73.81-178.19s26.21-130.59,73.81-178.19c47.6-47.6,110.88-73.81,178.19-73.81s130.59,26.21,178.19,73.81,73.81,110.88,73.81,178.19-26.21,130.59-73.81,178.19-110.88,73.81-178.19,73.81Z"/>
        </g>
        <g>
          <path class="cls-2" d="M823.35,251.25c1.23,1.02,11.43,3.32,14.37,4.71,13.11,6.21,22.73,20.46,22.72,35.09,0,4.06-3.52,14.78-2.43,17.2.82,1.82,13.43,8.24,16.81,11.18,8.88,7.71,14.22,19.25,13.46,31.2-.32,5.02-6,19.12-5.43,21.22.45,1.67,12.35,10.27,15.15,13.79,7.63,9.62,9.79,20.21,7.39,32.38-.99,5.04-8.94,18.22-8.74,20.12.17,1.62,10.11,11.03,12.29,14.78,7.66,13.17,6.84,29.83-1.61,42.47-1.49,2.23-7.65,7.69-7.89,9.87-.35,3.28,4.66,7.51,6.38,10.38,8.7,14.48,7.42,33.48-3.54,46.41-2.14,2.53-10.59,8.7-11.06,10.43-.83,3.08,3.5,8.53,4.7,11.72,5.73,15.22,2.1,32.43-9.94,43.5-2.6,2.39-13.09,8.23-13.6,8.99-1.93,2.9,2.31,11.73,2.77,15.76,1.86,16.57-6.28,33.36-21.28,40.91-2.74,1.38-10.7,3.09-11.68,5.07-1.62,3.27.38,6.76.46,9.8.7,25.36-14.56,42.41-39.86,44.38-1.91,12.54-2.16,23.43-10.43,33.81-6.82,8.55-16.95,12.84-27.56,14.34-2.95.42-8.21-.71-10.23.95-3.15,9.9-4.35,18.6-11.52,26.66-11.51,12.94-27.38,15.68-43.79,12.03-3.62,5.79-4.32,11.83-8.54,17.58-8.28,11.3-22.49,17.75-36.51,16.34-3.95-.4-12.72-4.1-15.51-3.24-3.04.94-6.09,8.39-8.38,11.25-10.09,12.64-26.03,17.97-41.68,13.79-3.97-1.06-12.4-6.13-15.37-5.68-2.73.41-8.33,8.51-11.4,10.99-14.66,11.83-31.32,11.67-47.3,2.65-2.59-1.46-5.65-5.51-8.54-5.52-2.47,0-7.7,5.56-10.42,7.38-13.41,8.95-29.1,9.65-43.16,1.6-3.44-1.97-13.05-11.56-14.44-11.7-2.39-.24-13.84,7.17-18.69,8.3-12.13,2.84-24.64.35-34.33-7.37-3.24-2.58-11.97-14.35-13.26-14.72-2.77-.8-10.48,3.17-14.22,4.03-15.81,3.64-30.45-1.89-40.52-14.42-2.37-2.95-7.55-14.3-9.47-14.77-1.72-.42-13.02,2.48-16.59,2.46-13.56-.08-26.74-7.55-33.82-19.06-2.17-3.52-6.3-17.4-7.31-18.07-1.71-1.15-10.39.33-13.79.06-13.22-1.03-26.38-9.9-32.3-21.7-3.71-7.4-3.63-14.11-4.9-22.1-6.68-1.37-13.62-1.64-20.05-4.16-12.27-4.79-22.71-18.7-24.13-31.74-.43-3.95,1.39-14.37-.56-16.2-1.11-1.04-13.06-3.89-16.6-5.75-13.12-6.89-21.53-23.83-20.17-38.48.36-3.9,3.49-10.02,2.18-13.26-.48-1.18-13.22-7.53-16.17-10.02-12.02-10.15-16.38-25.29-12.58-40.54,1.06-4.25,4.6-8.55,3.11-13.31-.35-1.1-13.59-11.19-16.61-15.99-10.66-16.94-6.08-33.32,3.55-49.23-3.68-6.08-9.64-10.26-13-16.74-7.7-14.89-5.29-30.25,4.43-43.38,1.91-2.58,6.07-4.78,6.07-7.99,0-2.29-5.06-7.19-6.77-10.09-8.18-13.79-7.21-31.63,2.56-44.31,1.97-2.55,12.13-11.08,12.37-11.91.72-2.47-4.99-12.07-5.96-16.07-3.92-16.15,1.21-32.21,14.54-42.32,2.18-1.65,10.54-5.42,10.98-6.76,1.08-3.27-1.78-6.48-2.41-9.42-4.52-21.2,3.25-38.2,22.68-47.55,5.32-2.56,9.76-.96,9.72-8.06-.09-15.72-1.99-26.84,11.08-39.12,8.51-8,18.13-8.94,28.43-12.54-.36-18.96,7.69-37.64,26.55-44.22,4.48-1.56,20.14-2.47,21.18-3.5,1.58-1.57,2.82-11.13,3.91-14.25,4.4-12.59,18-23.89,31.33-25.47,6.87-.81,13.27,1.07,19.94.38,4.85-9.68,7.99-18.13,16.73-25.16,13.56-10.91,28.38-8.55,44.05-4.3,6.79-8.99,12.99-19.76,24.22-24.27,16.32-6.57,22.73-.86,36.72,3.7,7.95,2.59,9.1-4.21,14.65-9.12,11.21-9.91,25.29-12.98,39.58-7.87,4.38,1.57,15.42,10.02,17.97,9.62,2.38-.38,8.59-6.52,11.36-8.26,14.52-9.15,29.54-8.5,43.63,1.11,2.51,1.71,10.78,9.96,12.3,10.11,2.31.24,10.97-5.75,14.41-7,17.45-6.36,32.07-1.41,44.23,11.62,2.4,2.57,5.05,8.62,8.57,9.16,2.24.34,15.1-5.05,20.3-5.4,15.31-1.04,27.07,6.42,35.29,18.68,2,2.98,4.7,10.28,7.34,11.35,2.47,1,9.85-1.75,13.34-2,24.02-1.68,38.92,14.73,44.06,36.71,13.58.3,24.13-.25,35.36,8.4,12.28,9.46,14.66,20.72,16.75,35.4,1.64,2.15,5.44.96,7.9,1.41,23.42,4.29,36.11,19.21,36,43.23,0,2.16-1.81,5.99.19,7.66ZM500.71,73.86c-5.7.74-23.64,10.05-23.1,16.01.19,2.1,8.2,8.21,10.71,7.96,4.26-.42,9.09-9.56,16.78-9.37,6.14.16,12.73,7.88,16.81,12.14,9.61,10.02,17.59,21.6,26.56,32.17,2.7,1.3,12.01-5.37,12.06-7.45.04-1.88-16.02-22.04-18.63-25.14-10.77-12.8-22.28-28.76-41.18-26.32ZM498.84,116.66c-13.48-10.82-27.06-27.08-41.96-35.77-14.3-8.34-30.3-4.26-40.71,8.07-6.2,7.34-5.99,10.46,4.01,13.73,7.59,2.49,9.39-8.83,16.45-10.96,9.15-2.75,24.27,11.41,31.21,17.29,3.2,2.71,20.14,19.25,21.59,19.37,2.21.19,12.11-8.21,9.39-11.74ZM562.17,82.24c-3.24.48-16.74,6.62-17.95,9.06-1.79,3.6,5.05,11.79,7.51,12.14,3.92.57,5.73-2.71,8.77-4.25,4.91-2.49,8.24-4.1,13.58-1.41,6.54,3.31,20.62,28.19,24.79,35.73,2.41,4.35,5.07,15.34,10.31,14.44.62-.11,9.29-4.03,9.59-4.46.49-.72.49-1.52.5-2.35.02-2.18-11.21-22.33-13.29-25.91-10.37-17.8-19.63-36.54-43.81-33ZM374.07,89.69c-10.31,1.51-23.62,12.41-25.69,22.8-.87,4.38,9.2,8.4,12.22,7.56,3.32-.92,5.84-13.19,13.67-15.27,6.03-1.6,12.68,2.65,18.01,5.32,12.28,6.17,24.14,14.71,35.79,22.02,3.72,1.27,11.5-8.72,10.04-11.03-.25-.4-6.4-4.5-7.66-5.4-12.98-9.3-40.73-28.29-56.39-26ZM624.53,99.92c-2.03.32-15.42,5.19-16.09,6.27-1.21,1.95,3.41,11,4.68,12.13,5.2,4.65,15.65-9.45,25.53-.38,3.52,3.24,7.77,14.22,9.84,19.03,4.58,10.64,7.92,21.77,12.15,32.55,2.89,3.65,15.04,1.97,14.25-3.93-.59-4.36-4.88-14.74-6.58-19.57-7.23-20.46-15.86-50.49-43.78-46.1ZM456.89,109.15l-33.8,43.59c-1.46,4.44,7.24,7.06,9.49,10.23l35.4-44.62c1.04-3.73-7.37-10.34-11.09-9.19ZM520.24,109.15c-1.19.24-2.06,1.05-3.01,1.72-6.93,4.89-17.47,14.83-23.76,20.94-4.75,4.62-9.12,9.49-13.48,14.46-2.42,5.17,4.4,8.18,6.98,11.68l42.37-36.83c2.63-2.14-4.75-10.84-6.07-11.67-1.06-.66-1.89-.53-3.04-.3ZM287.78,143.36c19.1,8.48,13.78-5.07,21.33-12.48,4.78-4.69,10.02-3.09,15.61-1.64,14.59,3.8,29.78,10.94,43.7,16.83.99.42,2.1,1.84,2.76,1.95,1.91.31,7-10.06,7.64-12.35-.27-1.45-12.68-7.12-15.07-8.2-11.79-5.32-36.37-16.09-48.59-14.74-15.08,1.66-26.27,16.22-27.38,30.64ZM396.31,118.46c-2.47.46-13.74,20.79-15.66,24.37-2.29,4.29-12.49,23.38-11.56,26.73.67,2.45,10.82,8.65,12.55,4.98l26.06-47.59c1.36-2.84-10.65-8.63-11.38-8.49ZM541.12,161.94l48.34-29.12c3.11-2.18-3.11-12.12-4.72-13.13-2.58-1.61-11.93,4.9-14.82,6.62-8.02,4.75-17.19,10.76-24.58,16.39-4.13,3.14-10.38,6.24-8.8,12.17.13.48,4.22,6.86,4.59,7.08ZM725.24,203.88c1.75-2.06-5.37-37.58-6.69-42.92-4.01-16.29-8.97-30.81-28.36-33.09-3.42-.4-17.53,1.1-19.79,3-2.43,2.04,1.13,11.79,3.73,13.05,5.16,2.5,12.73-3.41,19.91.59,6.96,3.88,9.58,20.1,11.3,27.8,2.35,10.46,3.9,21.07,5.59,31.66,1.45,3.1,11.22.24,14.31-.09ZM335.31,138.91c-.9.56-6.91,17.12-7.82,19.65-2.86,7.9-9.37,25.33-9.94,32.97-.1,1.33-.42,2.67.86,3.62,1.11.82,10.39,3.47,11.73,2.4,1.6-1.28,6.09-19.49,7.41-23.33,2.11-6.11,10.44-23.88,10.66-28.54.21-4.5-10.95-7.99-12.91-6.76ZM464.08,161.69c4.87,4.61,9.79,9.1,14.53,13.87,9.23,9.28,15.15,21.38,31.35,14.64,1.83-.76,12.83-9.95,13.18-11.08,1.02-3.34-3.92-10.28-6.89-10.57-4.43-.43-8.98,12.3-18.46,7.38-7.11-5.55-31.55-35.98-38.51-37.01-2.81-.41-8.9,7.27-8.68,9.61.15,1.58,11.2,11.02,13.48,13.17ZM573.28,189.75c2.67-3.16-2.3-12.12-4.97-12.61-3.1-.58-8.7,7.59-15.48,6.21-5.4-1.1-13.53-17.19-17.06-22.11-2.3-3.21-15.28-21.09-17.16-21.95-4.59-2.1-12.53,5.87-10.7,9.74,4.37,5.21,8.96,10.44,12.96,15.93,10.33,14.16,21.29,41.97,43.11,30.84,1.01-.52,8.94-5.62,9.3-6.05ZM640.37,139.93c-5.58,1.11-20.53,8.09-26.47,10.81-4.02,1.84-23.44,10.49-23.4,14.41.02,1.99,3.76,9.82,5.89,10.01,2.01.18,22.71-10.53,26.82-12.32,4.1-1.79,23.42-8.26,24.87-9.6.96-.89.96-1.36.78-2.59-.08-.53-3.7-9.59-4.04-10.01-1.17-1.41-2.86-1.04-4.44-.72ZM259.53,145.56c-16.2,2.19-27.93,19.33-25.44,35.2,17.27,4.14,12.89-2.03,17.25-12.66,4.84-11.78,21.77-6.47,31.73-4.66,10.84,1.97,21.61,4.92,32.19,7.94,4.86.25,8.39-12.71,3.42-14.69-12.6-3.56-25.31-7.11-38.27-9.22-6.63-1.08-14.26-2.81-20.88-1.91ZM619.98,194.82c-3.52-2.19-12.48,6.63-19.02,2.71-3.61-2.16-8.55-17.21-10.77-21.81-2.37-4.9-10.86-23.62-13.8-26.23-4.32-3.84-13.71,2.87-12.68,7.02,5.65,9.22,10.45,18.88,15.31,28.53,5.62,11.16,8.84,28.53,24.76,28.29,3.15-.05,18.19-4.71,19-7.16.66-2-1.58-10.58-2.8-11.33ZM399.62,149.24c-1.62.94-5.5,9.55-3.99,11.5,1.19,1.54,16.55,10.31,19.93,12.68,14.29,10.03,30.83,30.59,48.16,14.29,2.55-2.4,7.95-8.63,7.45-12.08-.37-2.55-6.07-7.38-8.87-7.09-4,.41-5.24,13.01-16.54,10.06-2.49-.65-15.45-11.94-19.02-14.5-4.26-3.05-19.35-14.34-23.19-15.02-1.1-.2-3.01-.38-3.92.15ZM768.98,246.69c.81-1.55.98-3.23,1.11-4.95.87-11.98.03-34.41-.99-46.58-1.65-19.76-15.9-32.08-35.82-30.26-3.2.29-8.05.36-7.88,4.04.79,17.57,8.75,9.39,19.53,12.22,8.69,2.28,8.64,16.8,9.28,24.24,1.07,12.51.51,25.23,1.35,37.76,1.53,4.61,9.4,3.79,13.42,3.54ZM626.41,165.96c-.67.11-7.82,3.67-8.16,4.03-2.41,2.61,2.86,11.99,4,15.57,3.54,11.16,6.15,23.05,9.73,34.03,4.11,12.6,10.09,17.45,23.89,15.95,9.17-.99,15.1-2.82,11.29-12.95-2.92-7.74-15.2,4.73-20.84-4.3-3.23-5.17-5.92-22.09-8.04-29.21-1.12-3.76-6.49-21.69-8.85-22.85-1.16-.57-1.82-.49-3.02-.28ZM402.84,187.83c-1.17,1.13-3.14,2.16-4.8,2.26-5.17.31-26.07-12.74-32.72-15.78-3.87-1.77-17.33-8.87-20.38-5.74-1.2,1.23-3.7,8.79-3.11,10.57.75,2.25,14.73,6.73,17.91,8.21,9.4,4.39,28.5,16.75,37.5,17.48,4.45.36,8.4-1.08,11.98-3.65,3.85-2.77,12.93-15.1,10.24-19.55-.19-.32-5.57-3.99-6.09-4.18-6.36-2.3-7.24,7.22-10.52,10.38ZM284.9,228.2c.67-6.58,1-13.34,1.99-19.89.87-5.77,7.76-34.23,5.95-36.95-.96-1.44-10.83-3.54-12.65-2.33-1.54,1.03-4.68,18.49-5.25,21.75-1.53,8.71-3.48,19.9-4,28.58-.13,2.14-.85,6.83,1.56,7.73,1.67.62,11.83,1.71,12.4,1.11ZM699.14,169.67c-1.24-.78-18.52,3.17-21.47,3.86-7.53,1.75-25.63,5.87-31.73,9.24-5.81,3.21-2.2,15.04,2.35,14.55l51.26-13.09c5.07-.66,1.07-13.63-.4-14.56ZM185.27,213.76c-.48,4.24.35,9.17,0,13.5,2.59.11,13.3-.53,14.68-2.09,4.34-4.93-4.79-21.46,13.69-23.09,9.06-.8,22.42-.37,31.74,0,4.23.17,20.06,3.23,22.33.99,1.81-1.78,3.55-12.72-.21-13.8-3.71-1.07-13.94-1.65-18.44-2.04-23.98-2.07-60.11-6.04-63.78,26.53ZM200.25,574.9c.36,1.12,10.75,6.37,12.99,8.5,6.52,6.2,9.17,15.41,8.33,24.24-.35,3.7-4.23,10.96-3.62,12.89.72,2.27,7.98,3.48,10.36,4.6,9.11,4.29,15.89,13.28,16.53,23.51.21,3.33-2.03,13.45-1.44,14.42,1.18,1.94,9.47,2.27,12.6,3.29,14.39,4.68,21.7,20.55,19.04,34.92,1.53,2.1,5.29.2,7.36.33,19.19,1.2,29.97,13.16,30.42,32.24,6.3-.34,12.62-1.62,18.99-.83,13.13,1.63,21.11,13.93,23.94,25.88,5.3.04,9.99-3.18,15.28-3.63,16.53-1.38,24.79,9.07,31.75,22.28,16.03-10.41,31.13-10.68,44.11,4.27,2.44,2.81,2.11,6.63,6.5,4.59,6.29-2.92,8.98-8.53,18.3-9.63,13.4-1.59,20.39,4.59,29.57,12.86,10.34-11.09,20.22-19.36,36.24-13.69,3.03,1.07,13.01,8.3,14.56,7.18.54-.39,4.76-8.84,7.02-11.14,11.19-11.37,25.95-9.51,39.05-2.83,3.77-4.67,4.89-10.63,8.96-15.28,9.79-11.17,23.25-9.99,36.34-6.45,2.77-10.45,5.9-21.46,16.51-26.38,7.84-3.63,15.2-3.24,23.55-2.5,2.03-10.45,2.15-20.77,11.2-27.93,7.19-5.7,15.44-6.2,24.17-7.5,1.51-1.34-.04-3.45-.09-5.58-.29-13.04,2.53-23.61,14.91-29.87,4.84-2.45,9.92-2.56,14.54-5.08-4.26-14.41-4.26-29.06,9.41-38.02,4.01-2.63,8.51-3.66,12.35-6.33.65-2.08-3.16-6.54-3.97-8.91-5.8-16.98,3.57-30.55,17.93-38.6.56-1.93-3.85-6.66-4.96-8.81-8.69-16.75-2.15-29.51,11.47-40.54-4.13-5.78-9.58-9.67-11.77-16.89-4.23-13.96,1.66-22.82,9.98-33.23-11.08-7.44-18.78-15.56-17.67-29.81.58-7.45,4.48-12.57,7.43-19.08-14.48-6.18-24.53-16.08-22.26-32.99.34-2.53,4.75-12.24,3.61-13.55-13.48-2.4-25.39-11.37-26.87-25.74-.63-6.11,1.62-10.48,1.37-16.26-.8-1.09-7.17-1.07-9.53-1.66-17.49-4.42-24.2-19.42-22.67-36.46-20.95,3.11-37.73-10.29-37.25-31.66-18.71,2.73-31.7,1.17-40.21-17.06-.69-1.47-2.39-7.73-2.74-7.96-1.74-1.12-12.26,3.46-16.16,3.65-15.22.72-24.79-9.74-30.84-22.34-18.11,12.01-37.28,8.88-48.37-10.3-11.13,8.63-21.46,14.83-35.82,8.85-5.88-2.45-9.25-7.23-14.3-10.65-10.81,12.24-23.75,19.8-40.05,11.92-2.65-1.28-7.35-5.73-9.4-5.54-2.3.21-3.98,5.35-5.69,7.44-8.38,10.22-17.91,14.45-31.15,10.83-2.7-.74-10.17-5.43-11.98-4.15-.53.38-3.49,9.47-5.26,11.96-6.57,9.24-16.48,13.4-27.78,12.06-2.58-.31-9.45-3.36-10.86-2.31-3,11.87-6.8,22.79-19.25,27.34-7.65,2.8-12.96,1.88-20.8,1.54-1.32,5.43-1.2,10.97-3.22,16.34-3.9,10.39-11.86,15.55-22.42,17.62-2.67.52-8.53-.77-10.21,1.96-.38.61.78,11.39.42,14.33-1.81,14.82-14.89,22.92-28.66,24.88,1.49,12.21,4.63,22.43-3.85,32.93-5.28,6.54-11.76,8.07-18.52,12.27,4.19,10.35,8.22,19.16,3.41,30.35-3.59,8.34-10.94,11.58-17.34,17.12,7.46,11.62,12.87,24.34,4.72,37.3-1.98,3.15-10.25,9.7-10.47,11.97-.26,2.72,7.23,8.5,9.2,12.22,4.54,8.6,4.08,19.43-.74,27.8-1.37,2.37-6.54,7.24-6.55,9.3-.01,1.75,9.45,8.86,11.56,11.71,6.65,8.97,6.59,18.39,2.58,28.48M294.43,195.82c-1.27,1.32-2.99,10.8-1.15,12.36,1.42,1.21,18.69,4.53,22.36,5.57,15.77,4.5,39.3,18.72,50.48.19,1.1-1.82,5.1-11.7,5.15-13.39.13-3.85-8.72-7.53-11.24-6.73-3.43,1.09-2.93,15.45-12.25,15.58-14-3.96-27.6-9.69-41.8-13-2.85-.66-9.42-2.79-11.54-.59ZM708.58,252.4h-15.36c-.21,0-3-2.16-3.28-2.55-3.76-5.17-2.84-21.56-3.71-28.64-.48-3.93-3.49-25.79-5.56-27.02-2.53-1.5-12.84.63-13.09,3.72,1.63,8.34,3.49,16.84,4.57,25.27,2.63,20.51-2.14,45.83,27.47,43.06,11.32-1.06,8.91-3.52,8.97-13.85ZM243.8,265.31l-.06-56.02c-1.1-3.82-12.83-3.36-13.62-.96-2.26,6.81-1.63,35.13-1.13,43.65.71,12.11.43,17.41,14.81,13.33ZM749.36,209.77c-1.21-1.7-17.55-1.31-20.8-1.17-8.65.36-26.18,1.79-34.2,3.97-7,1.9-4.18,9.31-2.61,14.28,11.18.09,22.77-2.66,34.06-3.31,5.14-.3,18.67,1.08,22.22-.13,2.52-.86,2.83-11.53,1.32-13.64ZM792.61,293.16c1.85,1.79,11.89,3.38,13.6.53,1.84-3.05,5.01-26.47,5.61-31.63,2.23-19.08,5.46-38.78-14.73-49.28-3.37-1.75-21.41-7-22.44-2.59-.46,2-.02,12.64,1.19,14.05,2.88,3.34,19.97-3.25,22.04,11.95.96,7.08-.85,21.19-1.79,28.77-.93,7.5-4.21,17.64-4.57,24.33-.06,1.14.28,3.1,1.08,3.87ZM248.8,243.8c1.62,1.59,19.41,1.63,23.53,2.09,22.53,2.54,49.97,14.88,52.51-19.22.42-5.68-.68-6.48-6.36-7.37-10.98-1.72-5.58,6.08-8.97,12.54-1.23,2.34-4.8,4.54-7.44,4.66-6.19.27-18.95-3.57-26.12-4.47-4.88-.61-20.08-2.63-23.89-1.77-4.84,1.09-5.13,11.69-3.25,13.54ZM727.07,229.25c-3.45.21-12.42-1.79-13.65,2.39-.63,11.1.17,22.27-.15,33.37-.27,9.63-4.05,18.93.52,28.27,2.56,5.23,8.5,9.06,14.1,10.11,2.38.45,12.46,1.43,13.84.31,1.7-1.38,3.11-10.44,2.1-12.06-7.35-2.27-17.76.71-18.46-10.02-.62-9.66,2.53-25.57,2.8-36.17.07-2.67.41-15.26-1.1-16.2ZM208.36,230.33c-25.5,1.67-65.98,2.28-64.04,37.43.11,2.06,1.33,10.44,2.32,11.66,1.36,1.7,13-1.17,13.98-2.79,2.13-3.55-3.24-14.07,1.38-20.97,3.02-4.51,13.18-5.77,18.43-6.71,13.9-2.5,28.08-2.96,42.11-4.45,3.01-1.92,1.85-12.76.04-14.03-1.55-1.09-11.54-.31-14.21-.14ZM274.41,250.76c-8.84.75-.64,13.17-7.78,18.3-4.26,3.06-15.8,1.92-21.34,2.02-1.89.03-3.63-.94-5.45-.88-6.06.18-20.35.9-25.77,2.18-7.27,1.71-4.45,12.7-1.81,14.04,2.43,1.23,16.87-1.31,20.92-1.45,23.13-.81,54.34,6.67,50.84-28.42-.53-5.28-4.48-6.22-9.61-5.78ZM735.31,250.73c-3.21.96-4.94,12.66-1.92,13.65,8.68.68,18.29.29,26.86,1.07,4.88.44,27,4.65,29.35,3.26s3.01-13.24.27-14.26c-2.52-.94-9.74-1.68-12.87-2.03-6.87-.78-15.5-1.56-22.35-1.86-4.03-.18-16.29-.74-19.36.18ZM202.03,251.47c-5.6.96-14.74-1.52-15,6.05-.31,9.07,5.19,37.78,7.99,47.05,2.95,9.74,7.49,6.57,15.44,4.08l-8.44-57.18ZM818.12,259.98c-2.05.69-3.06,11.71-2,13.86,1.71,3.45,17.36,3.56,19.05,12.6,1.04,5.53-1.81,15.18-3.2,20.92-2.96,12.2-7.6,24.03-11.73,35.86-1.02,3.64,11.06,7.28,12.51,6.87,1.23-.35,1.52-1.71,2.02-2.7,4.61-9.18,17-48.9,16.2-58.1-1.05-12.1-10.84-23.15-22.02-27.35-2.95-1.11-7.82-2.98-10.82-1.96ZM753.41,270.23c-1.2.76-4.26,24.05-5.08,27.98-3.39,16.24-14.52,38.54,6.83,46.83,1.74.68,12.23,3.53,13.32,3.18,2.19-.7,5.38-9.62,3.91-12.03-1.81-2.98-15.36-1.69-16.02-10.81,2.52-12.84,6.81-25.36,8.71-38.35.48-3.28,3.07-14.55-.35-15.83-1.7-.63-10.14-1.73-11.33-.98ZM116.48,338.88c1.51.94,12.57-3.74,13.41-5.47,2.31-4.76-8.64-14.59.4-23.77,3.55-3.61,18.89-8.26,24.46-9.99,10.02-3.12,20.21-5.5,30.46-7.71,3.83-.65.08-13.34-.82-13.98-1.85-1.31-11.39,1.11-14.22,1.73-24.07,5.24-63.43,12.91-58.25,45.6.24,1.53,3.95,13.22,4.56,13.6ZM240.98,288.96c-1.61.07-6.73.68-7.22,2.22-1.37,4.31,6.12,13.3-1.96,18.46-4.34,2.77-26.46,4.94-33.52,6.52-3.52.79-19.49,4.14-20.34,6.71-.8,2.42,2.7,12.3,5.75,12.24,7.24-2.23,14.65-4.3,22.06-5.89,19.75-4.22,45.91-1.67,43.76-28.84-.53-6.75-1.02-11.75-8.52-11.42ZM825.8,307.45c-.41-.63-12.44-4.13-14.4-4.69-9.47-2.74-28.93-8.18-38.15-8.48-1.35-.04-3.94.23-4.86,1.17-1.3,1.33-3.71,11.79-.5,12.64,17.38,2.88,34.58,7.09,51.06,13.29,5.45,2.43,7.83-12.42,6.85-13.93ZM184.25,357.53c1.17-1.65-7.98-22.64-9.26-26.41-2.31-6.79-5.15-21.71-8.47-26.9-.78-1.21-1.43-2.3-3.07-2.39-1.3-.07-10.25,3.19-10.63,3.79-1.06,1.68,4.39,18.53,5.43,21.77,1.48,4.61,10.98,32,13.68,32.9,1.82.61,11.7-1.87,12.33-2.75ZM786.5,316.75c-2.06.64-7.77,20.53-9.24,24.34-7.97,20.59-24.79,43.45,7.02,53.99,3.62,1.2,4.31.91,6.66-2.14,10.85-14.1-12.09-9.31-11.38-20.63.35-5.64,10.91-25.65,13.53-33.08,1.39-3.95,7.19-16.96,3.41-19.71-1.24-.9-8.57-3.22-10-2.78ZM850.21,317.67c-.56.4-4.11,12.03-3.72,13.25.85,2.63,8.85,4.31,11.54,6.21,7.02,4.96,6.41,10.71,3.98,17.96-4.92,14.67-14.28,29.85-21.98,43.25-1.52,6.59,6.49,6.96,10.42,10.43,3.19-.53,19.62-33.6,21.88-38.71,6.23-14.1,11.1-26.82-.32-40.38-2.82-3.34-18.18-14.6-21.8-12.01ZM157.11,344.37c2.7-2.62-2.51-14.78-4.72-14.56-25.55,12.84-77.87,23.32-60.7,63.2.49,1.13,4.67,8.64,5.1,8.92,1.52.98,10.49-5.08,11.02-6.77,2.49-8.01-10.8-15.85-.79-25.93,4.99-5.02,25.8-14.49,33.22-17.99,2.88-1.36,15.83-5.87,16.87-6.87ZM213.94,331.73c-2.01.21-8.53,1.96-8.95,4.13-.77,4.05,7.59,12.66.74,18.48-3.76,3.19-25.96,9.41-32.55,12.14-3.16,1.31-17.01,6.95-18.21,8.84-1.32,2.09,4.06,12.42,7.27,11.97,2.18-.3,13.08-6.36,16.53-7.77,9.88-4.03,21.24-7.06,30.7-11.2,10.1-4.43,14.68-11.87,13-23.21-.24-1.65-3.26-10.53-4.15-11.67-1.5-1.91-2.04-1.95-4.37-1.71ZM792.51,355.64c.68,1.08,20.27,7.72,23.79,9.27,9.51,4.19,18.98,8.72,27.93,14.04,1.8.18,8.5-11.54,5.91-14.35-.94-1.02-13.05-6.6-15.51-7.77-5.21-2.49-11.47-5.29-16.84-7.37-4.22-1.63-16.43-6.75-20.08-5.64-2.49.76-6.38,9.93-5.19,11.82ZM166.48,409.61c.68-1.16.06-2.41-.35-3.51-2.19-5.91-10.92-17.98-14.54-24.57-2.17-3.96-9.78-21.98-12.6-22.83-2.99-.9-11.04,3.11-11.5,5.93-.18,1.14.13,2.21.47,3.28,2.03,6.28,9.79,19.41,13.39,25.72,2.05,3.6,10.7,18.98,12.76,20.8.59.52.59.91,1.66.82.6-.05,10.41-5.11,10.72-5.63ZM810.66,368.04c-1.87.36-9.76,16.87-11.6,20.01-9.58,16.3-30.06,35.42-10.33,51.91,1.29,1.08,8.68,6.07,9.77,6.16,2.96.25,9.09-7.12,8.62-9.67-.84-4.61-14.77-4.69-11.51-16.46,1.5-5.43,15.39-23.98,19.28-31,2.12-3.82,8.84-13.1,5.43-16.94-.74-.83-8.59-4.21-9.67-4ZM196.3,379.19c-2.18-1.39-10.97,1.38-11.81,4.23-1.5,5.06,6.48,9.55,4.09,17.08-1.5,4.73-18.95,11.97-24.08,15.03-3.45,2.06-21.33,12.77-22.53,14.72-1.84,3,2.98,10.3,5.12,11.65,1.41.89,2.3.46,3.69-.04,2.46-.9,9.92-7.21,13.16-9.21,7.7-4.76,32.79-17.28,36.64-22.96,2.57-3.79,3.93-9.8,3.26-14.31-.27-1.83-6.76-15.71-7.53-16.2ZM874.06,380.1c-2.22.63-6.74,9.92-6.11,12.24,1.08,3.99,12.79,5.82,13.87,14.13s-7.48,18.88-12.31,25.94c-6.13,8.96-12.93,17.47-19.95,25.75-1.05,3.29,7.8,12.47,11.74,9.8,9.71-13.24,22.52-26.87,30.57-41.13,8.1-14.35,6.53-29.26-5.92-40.32-2.32-2.06-8.91-7.26-11.88-6.42ZM138.59,400.32c.86-1.46-5.25-13.8-8.26-12.53-22.04,15.99-69.22,33.48-50.76,68.55,1.26,2.39,7,11.19,9.33,11.19,1.54,0,9.63-8.21,9.8-9.84.55-5.18-10.71-9.23-8.21-20.26,1.21-5.34,16.86-16.38,21.85-20.04,8.41-6.17,17.18-11.92,26.25-17.07ZM817.15,394.93c-1.48,2.75-8.25,10-6.23,12.56,11.59,6.93,23.28,13.79,34.28,21.63,2.63,1.87,10.68,9.5,12.68,9.32,2.68-.24,10.22-10.45,7.2-13.37l-47.93-30.15ZM120.78,417.42c-1.71.44-8.98,6.06-9.13,7.76-.19,2.1,10.92,16.57,13.13,19.47,3.15,4.13,19.04,24.26,22.29,25.28,4.02,1.26,9.34-5.24,11.13-8.35-9.57-10.6-18.99-21.72-27.14-33.45-2.73-3.92-4.8-12.1-10.27-10.71ZM824.22,422.98c-.96.56-11.02,15.3-13.23,17.96-5.7,6.86-22.44,22.63-23.98,30.03-.96,4.65-.19,10.12,2.07,14.27,1.1,2.02,9.8,11.42,11.43,11.9,3.37,1,10.26-3.89,10.55-6.88.5-5.1-12.94-8.36-8.65-18.81,6.92-8.21,14.79-15.72,21.62-24,1.96-2.38,11.76-14.28,12.01-16.02.51-3.42-9.04-10.07-11.82-8.46ZM183.13,429.62c-3.18-2.62-11.59,2.9-11.87,4.08-1.58,6.57,11.73,11.08,5.63,20.31-9.09,8.34-19.77,14.95-28.88,23.26-2.49,2.28-11.3,10.34-11.17,12.96s7.29,9.14,9.35,8.58c1.93-.52,17.1-15.89,20.45-18.75,14.34-12.24,35.4-20.01,22.19-42.65-.64-1.09-5.08-7.29-5.69-7.79ZM855.87,529.71c1.05.61,2.51.2,3.54-.31,2.45-1.21,11.71-9.99,14.48-12.53,18.11-16.6,43.83-38.23,23.7-63.79-1.49-1.89-7.93-8.26-9.93-8.64-2.42-.46-8.77,8.59-8.77,10.48-.01,5.89,14.33,9.27,10.39,21.48-2.22,6.89-21.77,25.79-27.98,31.61-3.9,3.66-13.91,8.5-11.42,14.18.19.44,5.56,7.27,5.98,7.51ZM118.9,448.09c-1.67.34-9.06,7-10.94,8.69-19.16,17.21-49.98,42.16-26.96,68.89,1.21,1.4,7.84,7.66,8.95,7.86,1.27.23,6.5-6.11,7.26-7.41,4.05-6.9-1.77-7.76-5.54-12.05-9.23-10.5-1.3-17.37,6.04-25.64,9.29-10.46,20.29-19.62,30.39-29.28.99-3.57-5.86-11.75-9.2-11.06ZM826.86,449.82c.21,3.75-8.33,8.68-7.06,11.16,1.62,3.15,18.36,15.71,22.43,19.54,5.91,5.56,11.5,11.51,16.68,17.76,1.97,1.51,3.68,1.16,5.69,0,1.56-.9,7.3-7.85,6.53-9.35-13.52-13.93-27.44-27.33-42.94-39.08l-1.33-.03ZM108.31,491.38c4.5,5.17,13.85,13.67,19.21,18.5,3.24,2.92,16.68,14.74,19.61,15.8,4.13,1.49,12.82-7.22,10.18-10.21-8.53-6.87-17.2-13.88-25.13-21.42-2.55-2.43-14.74-16.29-16.12-16.18s-8.97,7.04-9.52,8.27c-.89,2.01.45,3.72,1.77,5.23ZM831.22,478.78c-1.41.36-8.87,8.82-10.89,10.62-7.24,6.49-28.9,21.51-32.78,27.74-4.28,6.88-3.38,14.52.36,21.42.91,1.68,6.01,8.9,7.28,9.49,3.11,1.44,10.27-2.15,11.04-4.85,1.41-4.93-8.42-9.53-7.18-16.35.86-4.73,21.92-19.19,26.87-23.49,2.54-2.2,13.49-11.57,14.41-13.53,2.21-4.75-6.29-11.78-9.11-11.06ZM174.7,479.8c-2.28.21-8.34,6.25-8.11,8.61.46,4.73,12.24,7.35,8.85,17.23-7.13,8.94-15.52,16.81-22.74,25.67-2.04,2.51-10.76,12.95-11.08,15.09-.47,3.12,8.17,10.56,12.05,7.3,4.17-3.5,11.47-15.43,15.79-20.53,9.68-11.41,28.74-24.28,18.79-41.19-1.48-2.51-10.96-12.43-13.55-12.18ZM865.77,553.94c1.44-2.48-4.81-9.78-6.51-12.23-4.73-6.82-20.55-28.17-26.37-32.29s-10.27,1.54-13.53,6.05c5.95,7.7,12.97,15.05,19.04,22.89,3.16,4.08,12.39,19.46,14.92,21.41.95.73,1.35,1.05,2.62.73.57-.14,9.53-6.04,9.82-6.55ZM117.95,508.58c-2.54.66-20.11,24.53-22.83,28.47-10.06,14.56-20.5,27.18-10.58,45.62,2.33,4.32,12.81,14.78,17.46,15.22,2.91.28,8.12-9.17,7.88-11.63-.44-4.53-12.61-6.44-13.93-14.99-1.22-7.93,6.52-17.8,10.9-24.37,4.38-6.56,9.36-13.08,14.21-19.31,2.03-2.61,6.91-5.96,7.21-9.5.23-2.66-8.43-10.01-10.31-9.52ZM888.02,510.44c-.99.26-8.85,7.37-9.06,8.8-.83,5.89,9.65,9.98,8.36,19.43-1.01,7.38-21.06,20.88-27.6,25.51-3.43,2.43-18.7,11.09-19.93,12.68-1.89,2.45,3.95,12.27,5.67,13.16,1.17.61,1.55.07,2.49-.3,6.39-2.49,21.33-13.57,27.59-18.09,19.42-14.01,37.77-28.4,20.02-54.13-1.44-2.09-4.91-7.75-7.56-7.06ZM175.29,532.97c-1.31,1.07-5.27,6.61-4.81,8.38,1.18,4.54,14.11,4.46,11.78,15.79-5.43,9.6-12.23,18.38-17.64,27.99-2.32,4.12-10.81,16.67-7.3,20.66.38.43,8.4,3.97,9.03,4.03,1.56.15,2.22-1.3,2.93-2.33,3.56-5.14,6.76-13.65,10.23-19.56,9.45-16.1,29.21-34.27,9.01-50.59-3.1-2.51-9.73-7.23-13.23-4.37ZM827.54,535.65c-2.46.64-12.87,8.75-16.25,10.81-18.81,11.45-50.79,20.49-32.11,48.33,2.5,3.73,2.81,4.48,7.45,3.38,15.35-3.65-1.46-12.32,2.53-21.7,1.58-3.71,24.78-14.91,30.16-18.25,3.2-1.99,15.21-9.02,16.38-11.59,1.64-3.6-4.6-11.9-8.16-10.97ZM118.81,539.26c-2.34,3.64-9.63,9.21-6.15,13.44,2.38,2.88,17.3,12.15,21.47,14.83,5.12,3.29,16.48,11.26,21.6,12.85,4.38,1.36,4.66,1.01,7.67-2.05,1.48-1.51,5.14-6.06,3.33-7.96l-47.92-31.11ZM820.09,563.56c-1.95.33-10.86,4.39-8.91,7.54,4.85,7.63,9.61,15.42,13.96,23.35,3.38,6.16,7.64,18.2,11.51,22.93,3.58,4.37,13.59-1.55,13.46-4.97-.16-3.95-11.09-23.48-13.8-28.2-1.9-3.3-11.08-19.35-13.22-20.34-1.18-.55-1.77-.51-3-.3ZM126.26,569.05c-1.78.52-16.15,28.4-18.01,32.34-7.3,15.48-15.47,30.36-3.06,46.29,2.71,3.48,17.06,13.33,20.85,12.45,2.18-.51,4.87-10.72,4.12-13.19-1.25-4.12-16.18-5.43-16.65-16.03-.3-6.74,13.36-33.15,17.26-40.52,6.13-11.58,13.5-14.69-4.51-21.35ZM823.23,647.1c2.18,1.42,18.3-5.99,21.64-7.47,21.25-9.39,51.61-20.99,42.94-50.13-.58-1.94-5.8-12.84-6.95-13.58-2-1.29-11.45,5.13-11.95,6.76-1.54,5.03,1.93,6.21,3.33,9.35,6.79,15.14-6.18,19.79-17.45,25.87-10.95,5.9-22.56,10.58-34.06,15.29-3.09,1.08,1.87,13.51,2.49,13.91ZM192.5,660.04c.94-1.01,7.31-22.23,8.82-26.11,6.59-16.99,21.61-36.43-1.45-48.34-1.68-.87-8.01-3.65-9.5-3.64-3.77.02-9.25,9.7-5.03,12.6,6.55,4.48,13.81,2.19,11.98,13.97-.75,4.86-9.41,20.79-11.81,27.3-1.63,4.43-7.54,18.07-5.37,21.67,1.03,1.7,10.57,4.49,12.36,2.56ZM815.43,590.55c-3.14.46-9.41,4.5-12.83,5.88-11.07,4.46-23.79,8.23-34.41,13.08-11.21,5.13-14.86,10.99-12.64,23.78.28,1.59,3.54,11.18,4.2,11.62,1.7,1.13,10.69.11,11.73-1.38,3.22-4.56-7.71-14.75,1.38-20.97,5.77-3.95,25.36-8.78,33.47-12.16,2.44-1.02,15.06-6.3,15.93-7.36,1.11-1.35.95-1.8.38-3.28-.89-2.31-4.71-9.6-7.22-9.23ZM132.84,598.91c-2.23.57-7.83,11.86-5.33,14.35,12.51,6,24.94,12.15,37.97,16.96,2.8,1.03,10.92,4.51,13.04,4.74,1.21.13,1.69.33,2.55-.78,1.18-1.52,5.15-11.11,3.28-12.58l-51.51-22.7ZM824.88,672.27c2.33-2.67-14.49-47.3-17.69-53.36-1.56-3.51-13.14-.1-13.8,1.9s7.04,19.35,8.33,23.13c2.01,5.94,6.87,26.24,9.38,29.73,2.8,3.88,10.1-1.07,13.79-1.4ZM144.92,627.76c-2.33.75-9,21.54-10.18,25.27-6.02,18.97-15.16,41.08,3.03,56.13,4.21,3.49,15.68,8.92,20.95,7.92,3.28-.62,3.97-10.77,2.24-13.43-3.12-4.82-16.76-2.27-18.46-13.18-2.17-13.91,11.03-41.79,14.91-55.84.78-3.63-10.77-7.42-12.49-6.87ZM209.21,629.65c-2.62.73-5.6,9.55-3.95,12.02,1.34,2.01,12.57,2.06,14.71,6.7,2.83,6.1-3.85,24.02-5.4,31.41-.89,4.26-4.39,20.55-3.97,23.58.16,1.16,1.11,2.94,2.29,3.31.48.15,9.43,1.05,9.91.94,1.14-.26,1.91-1.34,2.29-2.41,1.78-4.96,2.06-15.8,3.29-21.85,3.7-18.26,16.74-42.9-7.9-51.31-1.62-.55-10.18-2.69-11.26-2.39ZM861.21,638.93c-1.59-1.12-11.54,3.46-12.47,5.52-3.49,7.68,10.36,18.21-6.08,26.5-14.25,7.19-34.2,10.48-49.69,14.56-4.54.51-.76,13.63.3,14.38,1.29.91,3.43.36,4.94.18,11.81-1.45,38.78-9.5,49.76-14.5,18.94-8.63,21.87-29.09,13.25-46.64ZM799.81,656.5c-.14-3.64-1.89-13.57-6.06-13.97-1.26-.12-14.32,4.3-17.35,4.99-10.09,2.29-21.09,3.23-30.77,5.54-12.85,3.07-18.31,10.17-17.47,23.47.25,4,.74,11.16,5.05,11.7,19.67,2.48,3.86-10.93,10.33-18.64,3.37-4.01,19.85-4.84,25.61-6.05,10.27-2.16,20.43-4.8,30.67-7.05ZM209.43,683.48c-.39-3.14,3.59-11.53.99-13.47l-51.96-13.32c-4.68-1.27-8.35,12.42-6.17,13.91,18.71,5.32,37.64,11.59,57.14,12.88ZM776.77,725.22c2.23,2.16,12.15.29,13.3-1.63.33-8.16-1.3-17.1-2.63-25.33-.79-4.88-4.79-28.63-7.55-30.62-2.4-1.73-12.49-.23-12.73,2.39l9.61,55.19ZM233.82,686.19c4.7,2.11,10.75-.06,15.12,3.04,5.42,3.85,1.73,16.85,1.47,22.66-.52,11.72-.86,23.55-.76,35.29.75,2.28,12.53,2.78,14.08-.56,1.91-4.09.41-22.98.65-29.15.59-15.6,7.72-39.15-14.47-43.18-2.1-.38-8.93-1.06-11.07-1.05-6.84.04-5.01,8.03-5.02,12.95ZM201.81,753.59c-3.15-3.16-17.42,1.93-21.24-9.02-1.95-5.61-.54-17.9.05-24.25,1.04-11.23,3.39-22.46,5.62-33.5-.04-3.13-12-5.53-13.41-5.07-1.53.5-1.86,2.99-2.2,4.38-3.11,12.82-9.03,50.06-5.11,61.39,3.98,11.52,14.83,19.42,26.85,20.64,2.09.21,9.16.72,10.19-.76s.71-12.35-.75-13.81ZM706.59,726.24c2.76-5.64-1.66-14.08,4.86-17.96,5.27-3.13,28.83-1.01,36.75-1.43,3.37-.18,17.62-1.35,19.14-3.2,1.83-2.22.39-11.58-2.6-12.48-4.13-1.24-17.73,1.52-23.06,1.71-17.13.6-44.81-5.57-47.91,18.2-1.6,12.26-.99,17.22,12.82,15.16ZM831.48,697.52c-.82-.8-13.31,1.84-14.42,3.68-2.57,4.25,5,16.87-3.85,23.16-4.35,3.09-18.33,4.75-24.23,5.57-11.01,1.53-22.14,2.17-33.22,3.1-3.25,1.06-3.21,10.82-1.48,13.29,1.59,2.26,6.95,1.6,9.75,1.5,10.58-.39,25.61-2.17,36.15-3.89,27.32-4.45,37.45-18.6,31.3-46.41ZM245.8,713.33c-14.42-.86-28.84-1.14-43.18-2.91-2.71-.33-11.55-2.85-12.97-2.52-4.88,1.12-4.44,14.68-1.9,15.52,18.16,2.25,36.36,4.55,54.76,3.85,5.51-1.03,2.61-9.94,3.29-13.95ZM271.59,711.66c-3.4,1-3.26,11.25-2.11,12.91,1.8,2.59,13.73-1.28,17.79,2.69s3.48,23.54,4.27,30.18c.51,4.26,2.97,22.82,4.61,25.18,2.22,3.2,13.62-.01,13.82-3.58.23-4.26-3.7-18.54-4.45-24.41-1.25-9.8-.68-26.62-5.54-34.5-2.11-3.43-7.16-7.66-11.1-8.46-2.58-.52-15.06-.68-17.29-.02ZM733.87,711.6c-.64,1.23-1.01,2.53-.99,3.94.15,9.34,2.24,19.8.85,28.99,1.46,5.32-3.08,22.68,1.55,25.44,1.9,1.13,8.9,1.65,10.9.96,1.86-.64,2.31-5.83,2.48-7.76.88-10.16.67-27.02,0-37.32-.78-12.03-.92-16.24-14.8-14.26ZM728.94,746.72c.41-.65.97-12.97-1.4-13.7-6.44-.26-13.02-.4-19.42-1.07-18.82-1.96-47.35-13.79-54.05,11.14-.69,2.57-2.17,11.23-.92,13.12.84,1.27,10.16,3.48,11.73,2.35,3.04-2.17-.57-16.47,9.72-17.34,12.74,1.47,25.4,4.49,38.18,5.63,2.54.23,15.2,1.39,16.16-.13ZM209.14,731.15c-.47.16-.83.33-1.12.74-1.06,1.51-.66,32.35-.44,36.88.97,20.35,4.49,42.13,29.38,44.18,2.17.18,13.24-.52,14.48-1.33,1.77-1.15-.75-12.43-2.29-13.65-3.92-3.1-16.74,2.73-22.19-5.74-2.64-4.11-3.03-13.67-3.5-18.85-1.17-12.89-.7-25.99-1.12-38.92-1.15-3.83-10.26-4.28-13.19-3.31ZM360.21,807.27c1.08-1.68-4.79-14.8-5.74-17.78-3.51-11.06-6.15-26.94-10.63-36.86-3.05-6.76-9.99-11.36-17.51-11.34-1.89,0-15.17,3.05-16.07,3.93-2,1.94-.28,11.23,1.63,12.38,3.54,2.14,11.74-4.33,17.69,0,4.03,2.92,7.1,22.38,8.87,28.38,1,3.39,7.14,23,8.35,24.24,3.52,3.57,9.85-1.62,13.41-2.93ZM684.51,806.32c.4.62,13.23,4.69,13.68,1.37,1.74-7.75,10.94-52.2,8.12-56.23-.75-1.07-12.12-3.36-13.11-1.84l-8.69,56.7ZM279.13,750.86c-16.05,1.35-32.02,4.33-48.29,3.85-4.8,1.44-3.82,9.18-2.58,12.94.43,1.29.98,1.33,2.17,1.56,4.05.76,14.89.23,19.55-.01,12.06-.62,24.2-3.16,36.14-4.83,2.6-.27.63-12.36.25-12.92-1.14-1.67-5.35-.74-7.24-.58ZM791.32,750.71c-1.57-.98-12.15.51-13.62,1.94-3.29,3.2,2.5,16.55-7.96,21.37-6.22,2.86-24.18,1.98-31.87,1.74-5.15-.16-24.05-3.15-27.03-1.04-1.85,1.31-3.74,9.47-3.08,11.54.52,1.63,2.67,2.1,4.15,2.42,12.45,2.68,49.7,4.72,60.9.53,15.4-5.77,22.55-23.14,18.5-38.5ZM607.33,780.14c1.17,1.17,9.38,4.54,10.94,3.56,2.98-1.88,2.69-15.42,11.62-15.46,12.41,3.36,24.35,8.46,36.8,11.67,2.29.59,13.03,3.42,14.25,3.12,3.19-.78,5.76-11.11,3.46-13.39-1.24-1.23-29.08-7.73-33.74-9.08-11.27-3.28-24.28-11.72-35.13-2-3.24,2.9-11.3,18.47-8.2,21.59ZM357.67,783.02c3.25,2.02,11.57-5.98,18.46-3.09,3.75,1.58,9.96,19.37,12.26,24.05,2,4.09,11.69,24.75,14.49,25.59,2.59.78,9.96-3.44,11.04-5.45,1.42-2.64-5.92-12.74-7.52-15.8-4.89-9.36-14.82-35.61-21.92-40.47-10.66-7.29-20.41-1.04-30.6,3.29-.59.8,3.23,11.52,3.8,11.87ZM252.44,773.99c-1.57,2.54,4.52,33.92,5.73,39.16,3.95,17.11,8.53,34.31,29.3,36.82,2.95.36,17.91-1.64,19.81-2.98,2.7-1.88-1.79-13.76-4.71-14.96-2.35-.97-6.45,1.93-8.88,2.29-9.03,1.35-13.82-1.85-16.71-10.18-5.39-15.53-7.18-34.1-10.23-50.29-.77-3.17-13.91-.5-14.31.13ZM632.09,810.03c.98-.62,4.95-10.27,2.94-12.44-1.67-1.81-20.4-8.81-24.56-10.83-17.02-8.26-34.99-25-49.03-2.21-.91,1.48-4.25,7.36-4.41,8.55-.38,2.96,8.24,8.17,10.29,7.64,4.42-1.13,4-15.18,15.8-12.72,12.15,5.84,23.93,13.36,36.37,18.58,2.5,1.05,10.53,4.73,12.6,3.42ZM404.38,788.1c-2.92,3.61,2.14,12.1,4.97,12.63,2.68.5,8.74-7.68,15.66-6.37,4.73.89,15.71,20.42,19.3,25.43,2.41,3.36,11.85,16.73,14.38,18.23,4.78,2.83,12.9-5.09,11.05-9.17-5.23-6.29-10.42-12.65-15.18-19.3-10.28-14.35-19.31-38.03-40.83-27.46-1.7.83-8.42,4.89-9.33,6.01ZM642.42,839.01c3.87-11.05,8.71-21.79,12.17-33.01,1.28-4.14,5.31-16.3,5.29-19.76-.03-4.93-11.64-8.1-13.24-5.88-3.96,18.71-12.25,36.07-18.07,53.93l13.85,4.71ZM329.4,780.55l-51.9,13.37c-3.84,1.51-.37,14.3,2.19,14.35,4.21.08,15.32-3.01,20.13-4.13,5.92-1.38,29.38-7.08,32.95-9.88,3.1-2.44,1.7-13.95-3.37-13.7ZM523.03,784.32c-4.8.88-15.01,10.75-16.77,14.96-1.43,3.4,4.68,9.44,7.46,9.85,4.87.71,7.76-12.31,16.31-10.9,3.33.55,19.31,14.25,23.69,17.36,3.78,2.69,18.55,13.58,22.14,13.23,2.96-.29,9.1-9.66,5.67-12.17-6.62-4.17-13.61-8.09-19.98-12.62-11.58-8.23-23.31-22.52-38.51-19.72ZM504.14,806.95c-11-10.65-20.33-28.04-38.32-18.39-2.47,1.33-11.11,8.38-11.48,10.96s4.57,9.64,7,9.7c5.34.13,8.42-12.54,18.53-7.31,10.07,9.42,18.63,20.55,28.96,29.7,1.55,1.37,8.14,7.11,9.48,7.23,3.25.3,9.26-7.72,8.58-10.32-.4-1.52-19.72-18.65-22.74-21.57ZM659.34,806.56c-5.12,13.16-4.3,13.52,8.26,17.13,22.93,6.59,63.99,19.07,74.25-11.44.92-2.73,3.98-14.84.59-15.9-2.24-.7-9.96-1.4-11.9-.06-3.59,2.49-1.52,14.31-8.96,18.96-5.48,3.43-17.83.36-24.34-.71-12.76-2.1-25.18-6.31-37.89-7.97ZM608.81,806.58c-.27-.43-8.45-4.49-8.93-4.62-1.56-.41-2.28-.38-3.5.75-1.66,1.54-10.89,22.36-13.33,26.7-3.13,5.57-10.43,14.47-12.49,19.17-.43.98-.84,1.87-.73,2.98.3,2.97,10.65,8.53,13.52,6.08,1.8-1.54,10-16.55,11.81-19.85,3.55-6.48,10.99-19.59,13.08-26.02.46-1.41,1.38-3.93.59-5.2ZM333.44,838c1.62,1.03,17.37-5.69,20.34-6.9,4.97-2.03,30.68-13.1,32.14-16.28s-1.55-11.86-4.65-12.14c-1.76-.16-27.61,12.59-32.12,14.47-3.87,1.61-18.41,5.41-19.37,8.58-.69,2.29,2.51,11.53,3.67,12.27ZM369.52,871.51c1.2-1.9-4.61-13.11-7.06-13.73-3.31-.84-11.12,7.42-19.15,4.33-7.06-2.72-10.05-12.23-12.94-18.73-5.09-11.43-8.74-23.45-13.35-35.07-2.87-3.63-15.12-2.47-14.26,3.92.71,5.32,6.5,20.03,8.7,25.84,7.12,18.81,14.04,40.26,38.16,40.05,2.68-.02,18.98-5.16,19.91-6.63ZM387.58,844.87c-3.02,1.93,4.13,12.53,5.35,13.31s1.71.3,2.8.03c2.35-.57,11.95-6.79,14.81-8.53,3.97-2.43,31.02-20.59,31.59-22.45,1.12-3.63-4.74-10.2-7.69-12.34-14.54,11.51-30.09,22.01-46.86,29.99ZM544.35,814.9l-34.56,42.77c-2.87,4.8,7.52,12.48,11.2,10.29,2.05-1.22,8.19-8.83,10.22-11.23,8.69-10.27,16.46-21.88,23.74-33.08.02-2.39-8.15-7.58-10.6-8.76ZM489.42,819.55c-7.1,6.23-13.16,13.63-20.13,19.97-3.23,2.94-21.2,16.56-21.92,18.17-.56,1.23-.57,1.52,0,2.75.22.48,6.56,7.67,7.01,7.95,3.07,1.92,11.37-6.19,13.98-8.38,10.23-8.59,19.37-18.59,28.73-28.08,4.14-2.96-6.13-12.64-7.67-12.37ZM433.7,886.35c1.59-2.71-5.39-12.09-7.92-12.73-5-1.27-12.99,13.38-24.42,4.94-2.94-2.17-8.39-10.96-10.69-14.46-4.43-6.75-8.84-14.57-12.81-21.64-2.51-4.47-4.1-13.81-10.32-12.55-3.77.76-9.91,3.81-8.66,8.22,1.48,5.23,8.51,16.73,11.53,22.02,10.34,18.14,20.55,38.78,45.35,35.71,2.56-.32,17.11-8.09,17.94-9.51ZM604.95,830.83c-1.8.55-5.37,8.15-5.87,10.05-.28,1.06-.63,1.6.54,2.34,9.66,4.71,19.53,9.44,29.56,13.3,16.85,6.48,33.73,14.64,49.61.69,3.82-3.36,11.59-16.68,11.21-21.43-.24-3.01-11.67-4.95-14.33-4.03-3,1.03-2.71,13.11-10.19,16.8-7.33,3.62-22.07-3.2-29.76-6.02-4.46-1.64-9.05-3.38-13.44-5.18s-13.23-7.76-17.33-6.52ZM426.21,844.82c-1.59.41-9.12,6.13-9.1,7.7,7.47,11,15.64,22.26,24.68,32.16,13.79,15.1,26.69,26.52,47.53,13.98,8.44-5.08,16.61-11.47,3.55-17.57-6.88-3.21-9.1,4.03-14.55,6.56-4.87,2.26-8.66,1.56-13.09-1.28s-13.5-13.56-17.35-18.03c-6.2-7.2-12.07-14.83-17.17-22.86-1.37-1.16-2.87-1.08-4.49-.66ZM629.34,861.47c-.58-.68-11.35-4.32-13.25-3.67-2.91.98-3.86,12.11-12.2,14.81-7.05,2.28-17.92-4.72-24.43-8.27-10.66-5.83-20.53-13.11-30.78-19.6-2.87-.43-12.25,9.87-7.95,12.96,11.33,7.15,22.32,15.05,34.07,21.53,15.09,8.32,29.17,14.64,44.4,1.25,2.79-2.46,12.73-16,10.14-19.01ZM487.65,849.4c-1.7.25-8.02,6.18-9.12,7.77-1.5,2.18,1.27,4.68,2.95,6.45,5.24,5.52,13.12,12.28,19.02,17.3,15.29,13.01,31.03,28.27,51.95,15.69,3.37-2.03,14.5-12.24,13.55-15.95-.52-2.02-9.06-6.61-11.47-6.26-4.49.65-9.19,12.41-17.7,12.18-6.19-.16-21.74-13.29-27.02-17.77-6.88-5.83-13.33-12.14-19.54-18.66-.77-.8-1.55-.91-2.61-.75Z"/>
          <path class="cls-5" d="M792.61,293.16c-.8-.77-1.14-2.74-1.08-3.87.36-6.69,3.64-16.83,4.57-24.33.94-7.59,2.76-21.7,1.79-28.77-2.07-15.21-19.16-8.61-22.04-11.95-1.21-1.4-1.66-12.05-1.19-14.05,1.02-4.42,19.07.84,22.44,2.59,20.19,10.5,16.95,30.2,14.73,49.28-.6,5.17-3.77,28.58-5.61,31.63-1.72,2.85-11.75,1.25-13.6-.53Z"/>
          <path class="cls-5" d="M888.02,510.44c2.64-.69,6.11,4.97,7.56,7.06,17.75,25.73-.6,40.12-20.02,54.13-6.27,4.52-21.2,15.6-27.59,18.09-.95.37-1.32.91-2.49.3-1.72-.9-7.57-10.71-5.67-13.16,1.23-1.59,16.5-10.26,19.93-12.68,6.54-4.63,26.59-18.13,27.6-25.51,1.29-9.44-9.19-13.54-8.36-19.43.2-1.43,8.07-8.54,9.06-8.8Z"/>
          <path class="cls-5" d="M201.81,753.59c1.45,1.46,1.75,12.37.75,13.81s-8.1.97-10.19.76c-12.01-1.22-22.87-9.12-26.85-20.64-3.91-11.33,2.01-48.57,5.11-61.39.34-1.39.67-3.88,2.2-4.38,1.41-.46,13.37,1.94,13.41,5.07-2.23,11.04-4.58,22.27-5.62,33.5-.59,6.35-2,18.64-.05,24.25,3.81,10.95,18.09,5.87,21.24,9.02Z"/>
          <path class="cls-5" d="M818.12,259.98c3.01-1.02,7.88.85,10.82,1.96,11.18,4.2,20.97,15.25,22.02,27.35.8,9.2-11.58,48.91-16.2,58.1-.49.98-.79,2.35-2.02,2.7-1.44.41-13.53-3.23-12.51-6.87,4.13-11.83,8.78-23.66,11.73-35.86,1.39-5.74,4.24-15.39,3.2-20.92-1.69-9.03-17.34-9.15-19.05-12.6-1.07-2.15-.05-13.16,2-13.86Z"/>
          <path class="cls-5" d="M117.95,508.58c1.88-.49,10.53,6.86,10.31,9.52-.3,3.54-5.18,6.89-7.21,9.5-4.84,6.24-9.83,12.75-14.21,19.31-4.38,6.57-12.12,16.44-10.9,24.37,1.32,8.55,13.49,10.47,13.93,14.99.24,2.46-4.96,11.91-7.88,11.63-4.64-.45-15.13-10.9-17.46-15.22-9.91-18.44.53-31.07,10.58-45.62,2.72-3.94,20.29-27.81,22.83-28.47Z"/>
          <path class="cls-5" d="M252.44,773.99c.4-.64,13.54-3.3,14.31-.13,3.06,16.19,4.84,34.76,10.23,50.29,2.89,8.33,7.68,11.53,16.71,10.18,2.43-.36,6.53-3.26,8.88-2.29,2.93,1.21,7.41,13.08,4.71,14.96-1.91,1.33-16.86,3.33-19.81,2.98-20.76-2.51-25.35-19.71-29.3-36.82-1.21-5.24-7.31-36.62-5.73-39.16Z"/>
          <path class="cls-5" d="M185.27,213.76c3.66-32.57,39.8-28.6,63.78-26.53,4.5.39,14.73.97,18.44,2.04,3.76,1.09,2.02,12.02.21,13.8-2.27,2.24-18.1-.83-22.33-.99-9.31-.36-22.67-.8-31.74,0-18.48,1.63-9.34,18.16-13.69,23.09-1.37,1.56-12.09,2.2-14.68,2.09.35-4.33-.48-9.26,0-13.5Z"/>
          <path class="cls-5" d="M604.95,830.83c4.1-1.24,12.93,4.72,17.33,6.52s8.99,3.55,13.44,5.18c7.69,2.82,22.43,9.63,29.76,6.02,7.48-3.69,7.19-15.77,10.19-16.8,2.65-.92,14.08,1.02,14.33,4.03.38,4.75-7.38,18.07-11.21,21.43-15.89,13.95-32.76,5.79-49.61-.69-10.03-3.86-19.91-8.58-29.56-13.3-1.17-.74-.82-1.27-.54-2.34.5-1.9,4.07-9.51,5.87-10.05Z"/>
          <path class="cls-5" d="M823.23,647.1c-.62-.4-5.58-12.83-2.49-13.91,11.5-4.71,23.11-9.38,34.06-15.29,11.27-6.08,24.23-10.73,17.45-25.87-1.4-3.13-4.87-4.31-3.33-9.35.5-1.63,9.95-8.05,11.95-6.76,1.15.74,6.37,11.64,6.95,13.58,8.66,29.14-21.69,40.74-42.94,50.13-3.34,1.48-19.46,8.89-21.64,7.47Z"/>
          <path class="cls-5" d="M433.7,886.35c-.83,1.42-15.38,9.19-17.94,9.51-24.8,3.08-35.01-17.57-45.35-35.71-3.02-5.29-10.05-16.8-11.53-22.02-1.25-4.42,4.88-7.46,8.66-8.22,6.22-1.26,7.81,8.09,10.32,12.55,3.97,7.07,8.38,14.89,12.81,21.64,2.3,3.5,7.74,12.28,10.69,14.46,11.43,8.44,19.43-6.21,24.42-4.94,2.53.65,9.51,10.03,7.92,12.73Z"/>
          <path class="cls-5" d="M791.32,750.71c4.05,15.36-3.1,32.73-18.5,38.5-11.21,4.2-48.45,2.15-60.9-.53-1.48-.32-3.63-.79-4.15-2.42-.67-2.07,1.23-10.23,3.08-11.54,2.97-2.11,21.88.88,27.03,1.04,7.69.24,25.66,1.12,31.87-1.74,10.46-4.82,4.67-18.17,7.96-21.37,1.47-1.43,12.05-2.92,13.62-1.94Z"/>
          <path class="cls-5" d="M369.52,871.51c-.93,1.47-17.22,6.6-19.91,6.63-24.12.22-31.04-21.24-38.16-40.05-2.2-5.82-7.98-20.53-8.7-25.84-.86-6.4,11.39-7.55,14.26-3.92,4.61,11.62,8.26,23.64,13.35,35.07,2.89,6.5,5.88,16.01,12.94,18.73,8.03,3.09,15.84-5.17,19.15-4.33,2.45.62,8.26,11.82,7.06,13.73Z"/>
          <path class="cls-5" d="M487.65,849.4c1.07-.16,1.84-.05,2.61.75,6.22,6.52,12.67,12.84,19.54,18.66,5.28,4.48,20.83,17.6,27.02,17.77,8.51.22,13.21-11.53,17.7-12.18,2.42-.35,10.96,4.24,11.47,6.26.95,3.7-10.19,13.92-13.55,15.95-20.92,12.59-36.66-2.68-51.95-15.69-5.9-5.02-13.78-11.78-19.02-17.3-1.68-1.77-4.45-4.27-2.95-6.45,1.1-1.59,7.41-7.52,9.12-7.77Z"/>
          <path class="cls-5" d="M855.87,529.71c-.41-.24-5.79-7.07-5.98-7.51-2.5-5.68,7.52-10.52,11.42-14.18,6.2-5.82,25.75-24.72,27.98-31.61,3.93-12.21-10.41-15.59-10.39-21.48,0-1.89,6.36-10.95,8.77-10.48,2,.38,8.44,6.76,9.93,8.64,20.14,25.56-5.59,47.19-23.7,63.79-2.77,2.54-12.02,11.31-14.48,12.53-1.03.51-2.49.92-3.54.31Z"/>
          <path class="cls-5" d="M208.36,230.33c2.67-.17,12.66-.95,14.21.14,1.81,1.27,2.96,12.11-.04,14.03-14.03,1.49-28.2,1.95-42.11,4.45-5.25.94-15.42,2.21-18.43,6.71-4.62,6.91.75,17.43-1.38,20.97-.97,1.62-12.61,4.48-13.98,2.79-.98-1.22-2.2-9.59-2.32-11.66-1.94-35.15,38.54-35.76,64.04-37.43Z"/>
          <path class="cls-5" d="M498.84,116.66c2.71,3.53-7.18,11.92-9.39,11.74-1.45-.12-18.39-16.67-21.59-19.37-6.94-5.87-22.07-20.04-31.21-17.29-7.06,2.13-8.87,13.44-16.45,10.96-10-3.28-10.21-6.39-4.01-13.73,10.41-12.33,26.41-16.42,40.71-8.07,14.89,8.69,28.48,24.95,41.96,35.77Z"/>
          <path class="cls-5" d="M850.21,317.67c3.63-2.58,18.98,8.67,21.8,12.01,11.43,13.57,6.55,26.29.32,40.38-2.26,5.11-18.69,38.18-21.88,38.71-3.92-3.47-11.93-3.84-10.42-10.43,7.7-13.41,17.06-28.58,21.98-43.25,2.43-7.24,3.04-12.99-3.98-17.96-2.7-1.91-10.69-3.58-11.54-6.21-.4-1.22,3.15-12.85,3.72-13.25Z"/>
          <path class="cls-5" d="M831.48,697.52c6.15,27.81-3.98,41.96-31.3,46.41-10.54,1.72-25.57,3.5-36.15,3.89-2.8.1-8.16.76-9.75-1.5-1.73-2.46-1.77-12.23,1.48-13.29,11.08-.93,22.21-1.57,33.22-3.1,5.9-.82,19.88-2.47,24.23-5.57,8.85-6.29,1.28-18.91,3.85-23.16,1.12-1.85,13.6-4.48,14.42-3.68Z"/>
          <path class="cls-5" d="M144.92,627.76c1.72-.55,13.27,3.23,12.49,6.87-3.88,14.05-17.09,41.93-14.91,55.84,1.7,10.91,15.34,8.36,18.46,13.18,1.72,2.66,1.03,12.81-2.24,13.43-5.27.99-16.74-4.44-20.95-7.92-18.19-15.05-9.05-37.16-3.03-56.13,1.18-3.73,7.86-24.52,10.18-25.27Z"/>
          <path class="cls-5" d="M157.11,344.37c-1.04,1-13.99,5.51-16.87,6.87-7.43,3.51-28.23,12.97-33.22,17.99-10.01,10.08,3.29,17.92.79,25.93-.53,1.69-9.49,7.75-11.02,6.77-.43-.28-4.62-7.78-5.1-8.92-17.17-39.88,35.15-50.36,60.7-63.2,2.21-.22,7.42,11.94,4.72,14.56Z"/>
          <path class="cls-5" d="M629.34,861.47c2.59,3.02-7.35,16.56-10.14,19.01-15.23,13.39-29.31,7.07-44.4-1.25-11.75-6.48-22.74-14.38-34.07-21.53-4.31-3.1,5.07-13.39,7.95-12.96,10.25,6.48,20.12,13.77,30.78,19.6,6.51,3.56,17.37,10.55,24.43,8.27,8.34-2.7,9.3-13.83,12.2-14.81,1.91-.64,12.67,3,13.25,3.67Z"/>
          <path class="cls-5" d="M562.17,82.24c24.17-3.55,33.44,15.2,43.81,33,2.09,3.58,13.31,23.73,13.29,25.91,0,.83,0,1.63-.5,2.35-.3.44-8.97,4.36-9.59,4.46-5.25.9-7.91-10.1-10.31-14.44-4.17-7.54-18.25-32.42-24.79-35.73-5.34-2.7-8.67-1.09-13.58,1.41-3.04,1.54-4.85,4.82-8.77,4.25-2.46-.36-9.29-8.55-7.51-12.14,1.21-2.44,14.71-8.59,17.95-9.06Z"/>
          <path class="cls-5" d="M118.9,448.09c3.34-.69,10.19,7.48,9.2,11.06-10.1,9.66-21.1,18.82-30.39,29.28-7.34,8.27-15.26,15.14-6.04,25.64,3.77,4.29,9.59,5.16,5.54,12.05-.76,1.3-5.99,7.64-7.26,7.41-1.12-.2-7.75-6.46-8.95-7.86-23.01-26.73,7.8-51.68,26.96-68.89,1.88-1.69,9.26-8.34,10.94-8.69Z"/>
          <path class="cls-5" d="M116.48,338.88c-.61-.38-4.31-12.07-4.56-13.6-5.18-32.69,34.18-40.36,58.25-45.6,2.83-.62,12.36-3.04,14.22-1.73.91.64,4.66,13.33.82,13.98-10.26,2.21-20.44,4.59-30.46,7.71-5.57,1.74-20.91,6.39-24.46,9.99-9.04,9.18,1.91,19.01-.4,23.77-.84,1.73-11.9,6.41-13.41,5.47Z"/>
          <path class="cls-5" d="M138.59,400.32c-9.07,5.14-17.84,10.9-26.25,17.07-5,3.67-20.65,14.7-21.85,20.04-2.5,11.03,8.76,15.08,8.21,20.26-.17,1.63-8.26,9.84-9.8,9.84-2.33,0-8.07-8.8-9.33-11.19-18.45-35.08,28.72-52.56,50.76-68.55,3.02-1.27,9.12,11.07,8.26,12.53Z"/>
          <path class="cls-5" d="M500.71,73.86c18.9-2.45,30.4,13.51,41.18,26.32,2.61,3.11,18.67,23.27,18.63,25.14-.05,2.08-9.35,8.75-12.06,7.45-8.97-10.56-16.95-22.15-26.56-32.17-4.09-4.26-10.67-11.99-16.81-12.14-7.69-.19-12.51,8.94-16.78,9.37-2.5.25-10.52-5.87-10.71-7.96-.54-5.95,17.41-15.27,23.1-16.01Z"/>
          <path class="cls-5" d="M725.24,203.88c-3.1.33-12.87,3.19-14.31.09-1.69-10.58-3.24-21.19-5.59-31.66-1.73-7.7-4.34-23.92-11.3-27.8-7.17-4-14.75,1.91-19.91-.59-2.6-1.26-6.15-11.01-3.73-13.05,2.27-1.91,16.37-3.4,19.79-3,19.4,2.28,24.35,16.8,28.36,33.09,1.32,5.34,8.44,40.87,6.69,42.92Z"/>
          <path class="cls-5" d="M374.07,89.69c15.66-2.29,43.41,16.7,56.39,26,1.26.9,7.41,5.01,7.66,5.4,1.46,2.3-6.32,12.29-10.04,11.03-11.65-7.3-23.51-15.85-35.79-22.02-5.33-2.68-11.98-6.93-18.01-5.32-7.83,2.08-10.35,14.35-13.67,15.27-3.01.84-13.09-3.18-12.22-7.56,2.07-10.39,15.38-21.29,25.69-22.8Z"/>
          <path class="cls-5" d="M874.06,380.1c2.97-.84,9.56,4.36,11.88,6.42,12.45,11.06,14.02,25.96,5.92,40.32-8.05,14.26-20.86,27.89-30.57,41.13-3.94,2.67-12.79-6.52-11.74-9.8,7.02-8.28,13.82-16.79,19.95-25.75,4.83-7.06,13.44-17.27,12.31-25.94s-12.79-10.15-13.87-14.13c-.62-2.31,3.89-11.61,6.11-12.24Z"/>
          <path class="cls-5" d="M624.53,99.92c27.91-4.39,36.55,25.64,43.78,46.1,1.7,4.82,6,15.2,6.58,19.57.79,5.9-11.36,7.58-14.25,3.93-4.23-10.77-7.57-21.91-12.15-32.55-2.07-4.81-6.32-15.79-9.84-19.03-9.88-9.07-20.33,5.03-25.53.38-1.27-1.13-5.9-10.18-4.68-12.13.67-1.08,14.06-5.95,16.09-6.27Z"/>
          <path class="cls-5" d="M659.34,806.56c12.71,1.66,25.14,5.87,37.89,7.97,6.5,1.07,18.85,4.14,24.34.71,7.44-4.65,5.37-16.48,8.96-18.96,1.93-1.34,9.66-.65,11.9.06,3.39,1.06.33,13.18-.59,15.9-10.26,30.52-51.32,18.03-74.25,11.44-12.56-3.61-13.37-3.96-8.26-17.13Z"/>
          <path class="cls-5" d="M287.78,143.36c1.11-14.42,12.29-28.98,27.38-30.64,12.21-1.35,36.79,9.42,48.59,14.74,2.39,1.08,14.81,6.75,15.07,8.2-.64,2.29-5.73,12.67-7.64,12.35-.66-.11-1.77-1.53-2.76-1.95-13.92-5.88-29.1-13.03-43.7-16.83-5.59-1.46-10.83-3.05-15.61,1.64-7.55,7.41-2.23,20.96-21.33,12.48Z"/>
          <path class="cls-5" d="M861.21,638.93c8.62,17.54,5.69,38-13.25,46.64-10.98,5.01-37.95,13.06-49.76,14.5-1.5.18-3.64.74-4.94-.18-1.05-.74-4.84-13.87-.3-14.38,15.49-4.08,35.44-7.37,49.69-14.56,16.45-8.3,2.6-18.83,6.08-26.5.93-2.05,10.88-6.64,12.47-5.52Z"/>
          <path class="cls-5" d="M426.21,844.82c1.62-.41,3.12-.49,4.49.66,5.11,8.03,10.98,15.66,17.17,22.86,3.85,4.47,12.93,15.2,17.35,18.03s8.22,3.53,13.09,1.28c5.45-2.53,7.67-9.77,14.55-6.56,13.06,6.09,4.89,12.48-3.55,17.57-20.84,12.54-33.74,1.12-47.53-13.98-9.04-9.9-17.21-21.16-24.68-32.16-.02-1.57,7.51-7.29,9.1-7.7Z"/>
          <path class="cls-5" d="M126.26,569.05c18.01,6.66,10.64,9.77,4.51,21.35-3.9,7.37-17.56,33.77-17.26,40.52.47,10.6,15.4,11.91,16.65,16.03.75,2.47-1.94,12.68-4.12,13.19-3.8.88-18.14-8.97-20.85-12.45-12.42-15.93-4.25-30.81,3.06-46.29,1.86-3.95,16.24-31.82,18.01-32.34Z"/>
          <path class="cls-5" d="M209.14,731.15c2.93-.97,12.04-.52,13.19,3.31.42,12.93-.05,26.03,1.12,38.92.47,5.18.85,14.74,3.5,18.85,5.45,8.48,18.27,2.64,22.19,5.74,1.54,1.22,4.05,12.5,2.29,13.65-1.24.8-12.31,1.51-14.48,1.33-24.88-2.05-28.41-23.83-29.38-44.18-.22-4.53-.61-35.37.44-36.88.29-.42.65-.59,1.12-.74Z"/>
          <path class="cls-5" d="M259.53,145.56c6.62-.89,14.26.84,20.88,1.91,12.95,2.11,25.67,5.66,38.27,9.22,4.97,1.98,1.44,14.93-3.42,14.69-10.58-3.02-21.36-5.96-32.19-7.94-9.96-1.82-26.89-7.12-31.73,4.66-4.37,10.63.02,16.8-17.25,12.66-2.49-15.87,9.24-33.01,25.44-35.2Z"/>
          <path class="cls-5" d="M768.98,246.69c-4.03.25-11.89,1.07-13.42-3.54-.84-12.53-.28-25.25-1.35-37.76-.64-7.44-.59-21.96-9.28-24.24-10.78-2.83-18.74,5.35-19.53-12.22-.17-3.68,4.68-3.74,7.88-4.04,19.92-1.82,34.17,10.51,35.82,30.26,1.02,12.18,1.86,34.61.99,46.58-.12,1.72-.3,3.4-1.11,4.95Z"/>
          <path class="cls-5" d="M233.82,686.19c0-4.92-1.83-12.91,5.02-12.95,2.14-.01,8.97.67,11.07,1.05,22.19,4.03,15.06,27.58,14.47,43.18-.23,6.17,1.26,25.07-.65,29.15-1.56,3.34-13.34,2.83-14.08.56-.1-11.74.24-23.57.76-35.29.26-5.81,3.96-18.81-1.47-22.66-4.37-3.1-10.42-.93-15.12-3.04Z"/>
          <path class="cls-5" d="M240.98,288.96c7.5-.33,7.99,4.66,8.52,11.42,2.15,27.18-24.01,24.62-43.76,28.84-7.41,1.58-14.82,3.66-22.06,5.89-3.06.07-6.55-9.81-5.75-12.24.84-2.57,16.81-5.92,20.34-6.71,7.06-1.58,29.18-3.74,33.52-6.52,8.08-5.16.59-14.16,1.96-18.46.49-1.54,5.61-2.15,7.22-2.22Z"/>
          <path class="cls-5" d="M248.8,243.8c-1.88-1.85-1.59-12.44,3.25-13.54,3.8-.86,19.01,1.17,23.89,1.77,7.18.89,19.94,4.74,26.12,4.47,2.64-.12,6.21-2.32,7.44-4.66,3.4-6.46-2.01-14.26,8.97-12.54,5.68.89,6.78,1.69,6.36,7.37-2.54,34.1-29.97,21.76-52.51,19.22-4.12-.46-21.91-.5-23.53-2.09Z"/>
          <path class="cls-5" d="M274.41,250.76c5.13-.44,9.09.5,9.61,5.78,3.5,35.08-27.71,27.61-50.84,28.42-4.05.14-18.49,2.68-20.92,1.45-2.64-1.34-5.46-12.33,1.81-14.04,5.42-1.28,19.71-2,25.77-2.18,1.82-.05,3.56.92,5.45.88,5.54-.1,17.09,1.04,21.34-2.02,7.14-5.12-1.06-17.55,7.78-18.3Z"/>
          <path class="cls-5" d="M404.38,788.1c.91-1.13,7.63-5.18,9.33-6.01,21.52-10.58,30.55,13.11,40.83,27.46,4.77,6.65,9.95,13.01,15.18,19.3,1.85,4.08-6.27,12-11.05,9.17-2.52-1.5-11.97-14.87-14.38-18.23-3.59-5-14.57-24.53-19.3-25.43-6.92-1.31-12.98,6.87-15.66,6.37-2.83-.53-7.89-9.01-4.97-12.63Z"/>
          <path class="cls-5" d="M360.21,807.27c-3.56,1.31-9.89,6.5-13.41,2.93-1.22-1.23-7.36-20.85-8.35-24.24-1.76-6-4.84-25.46-8.87-28.38-5.94-4.32-14.15,2.15-17.69,0-1.91-1.16-3.63-10.45-1.63-12.38.9-.87,14.19-3.92,16.07-3.93,7.52-.02,14.46,4.59,17.51,11.34,4.48,9.92,7.11,25.8,10.63,36.86.95,2.98,6.81,16.1,5.74,17.78Z"/>
          <path class="cls-5" d="M357.67,783.02c-.57-.35-4.39-11.07-3.8-11.87,10.2-4.33,19.94-10.57,30.6-3.29,7.1,4.86,17.03,31.11,21.92,40.47,1.6,3.06,8.94,13.16,7.52,15.8-1.08,2.01-8.44,6.23-11.04,5.45-2.8-.85-12.49-21.51-14.49-25.59-2.29-4.68-8.5-22.48-12.26-24.05-6.9-2.9-15.21,5.1-18.46,3.09Z"/>
          <path class="cls-5" d="M196.3,379.19c.78.49,7.26,14.37,7.53,16.2.67,4.51-.7,10.52-3.26,14.31-3.85,5.68-28.94,18.19-36.64,22.96-3.23,2-10.7,8.31-13.16,9.21-1.38.5-2.28.93-3.69.04-2.14-1.35-6.97-8.66-5.12-11.65,1.21-1.96,19.08-12.67,22.53-14.72,5.14-3.06,22.58-10.31,24.08-15.03,2.39-7.52-5.6-12.01-4.09-17.08.85-2.86,9.64-5.62,11.81-4.23Z"/>
          <path class="cls-5" d="M753.41,270.23c1.19-.75,9.63.34,11.33.98,3.42,1.28.83,12.55.35,15.83-1.91,12.99-6.19,25.51-8.71,38.35.66,9.12,14.21,7.83,16.02,10.81,1.46,2.41-1.72,11.33-3.91,12.03-1.09.35-11.59-2.51-13.32-3.18-21.34-8.29-10.22-30.59-6.83-46.83.82-3.93,3.87-27.22,5.08-27.98Z"/>
          <path class="cls-5" d="M573.28,189.75c-.36.42-8.29,5.53-9.3,6.05-21.82,11.13-32.78-16.68-43.11-30.84-4-5.49-8.6-10.72-12.96-15.93-1.84-3.87,6.1-11.85,10.7-9.74,1.88.86,14.86,18.74,17.16,21.95,3.53,4.92,11.67,21.01,17.06,22.11,6.77,1.38,12.37-6.78,15.48-6.21,2.67.5,7.65,9.46,4.97,12.61Z"/>
          <path class="cls-5" d="M175.29,532.97c3.5-2.86,10.13,1.86,13.23,4.37,20.2,16.32.44,34.49-9.01,50.59-3.47,5.91-6.67,14.42-10.23,19.56-.71,1.03-1.37,2.48-2.93,2.33-.63-.06-8.65-3.6-9.03-4.03-3.51-3.99,4.97-16.54,7.3-20.66,5.42-9.61,12.21-18.39,17.64-27.99,2.33-11.33-10.61-11.26-11.78-15.79-.46-1.77,3.5-7.31,4.81-8.38Z"/>
          <path class="cls-5" d="M706.59,726.24c-13.82,2.06-14.43-2.9-12.82-15.16,3.1-23.77,30.78-17.59,47.91-18.2,5.33-.19,18.93-2.95,23.06-1.71,2.99.9,4.43,10.26,2.6,12.48-1.52,1.85-15.77,3.02-19.14,3.2-7.92.42-31.48-1.7-36.75,1.43-6.52,3.88-2.1,12.32-4.86,17.96Z"/>
          <path class="cls-5" d="M504.14,806.95c3.02,2.92,22.34,20.06,22.74,21.57.68,2.61-5.32,10.62-8.58,10.32-1.34-.12-7.94-5.86-9.48-7.23-10.33-9.15-18.89-20.28-28.96-29.7-10.11-5.23-13.18,7.44-18.53,7.31-2.43-.06-7.38-7.09-7-9.7s9.01-9.63,11.48-10.96c17.99-9.65,27.32,7.73,38.32,18.39Z"/>
          <path class="cls-5" d="M727.07,229.25c1.52.95,1.17,13.54,1.1,16.2-.27,10.59-3.42,26.5-2.8,36.17.69,10.74,11.11,7.75,18.46,10.02,1.01,1.62-.4,10.69-2.1,12.06-1.38,1.12-11.46.13-13.84-.31-5.6-1.05-11.54-4.88-14.1-10.11-4.57-9.34-.79-18.64-.52-28.27.32-11.11-.48-22.27.15-33.37,1.23-4.17,10.2-2.17,13.65-2.39Z"/>
          <path class="cls-5" d="M213.94,331.73c2.33-.24,2.87-.2,4.37,1.71.89,1.14,3.91,10.02,4.15,11.67,1.68,11.34-2.9,18.78-13,23.21-9.46,4.15-20.82,7.17-30.7,11.2-3.46,1.41-14.35,7.47-16.53,7.77-3.21.45-8.59-9.88-7.27-11.97,1.2-1.89,15.05-7.53,18.21-8.84,6.59-2.73,28.8-8.95,32.55-12.14,6.85-5.82-1.51-14.43-.74-18.48.41-2.17,6.94-3.92,8.95-4.13Z"/>
          <path class="cls-5" d="M619.98,194.82c1.22.76,3.46,9.33,2.8,11.33-.81,2.45-15.85,7.12-19,7.16-15.92.24-19.14-17.13-24.76-28.29-4.86-9.65-9.67-19.3-15.31-28.53-1.02-4.15,8.36-10.85,12.68-7.02,2.94,2.61,11.43,21.33,13.8,26.23,2.23,4.61,7.16,19.65,10.77,21.81,6.54,3.92,15.5-4.9,19.02-2.71Z"/>
          <path class="cls-5" d="M402.84,187.83c3.28-3.16,4.16-12.67,10.52-10.38.52.19,5.9,3.86,6.09,4.18,2.69,4.45-6.39,16.78-10.24,19.55-3.58,2.57-7.54,4.01-11.98,3.65-9-.73-28.1-13.09-37.5-17.48-3.17-1.48-17.16-5.96-17.91-8.21-.59-1.78,1.91-9.34,3.11-10.57,3.06-3.13,16.51,3.97,20.38,5.74,6.65,3.04,27.56,16.08,32.72,15.78,1.66-.1,3.62-1.13,4.8-2.26Z"/>
          <path class="cls-5" d="M799.81,656.5c-10.23,2.25-20.4,4.89-30.67,7.05-5.76,1.21-22.24,2.04-25.61,6.05-6.47,7.71,9.33,21.11-10.33,18.64-4.31-.54-4.8-7.7-5.05-11.7-.84-13.31,4.62-20.41,17.47-23.47,9.68-2.31,20.68-3.26,30.77-5.54,3.03-.69,16.09-5.11,17.35-4.99,4.17.4,5.93,10.32,6.06,13.97Z"/>
          <path class="cls-5" d="M810.66,368.04c1.08-.21,8.93,3.17,9.67,4,3.41,3.83-3.32,13.12-5.43,16.94-3.89,7.02-17.77,25.57-19.28,31-3.26,11.78,10.67,11.85,11.51,16.46.47,2.55-5.66,9.93-8.62,9.67-1.09-.09-8.47-5.08-9.77-6.16-19.74-16.49.74-35.6,10.33-51.91,1.84-3.13,9.73-19.64,11.6-20.01Z"/>
          <path class="cls-5" d="M192.5,660.04c-1.79,1.92-11.34-.86-12.36-2.56-2.17-3.59,3.74-17.23,5.37-21.67,2.4-6.51,11.06-22.43,11.81-27.3,1.83-11.78-5.44-9.49-11.98-13.97-4.22-2.89,1.26-12.58,5.03-12.6,1.5,0,7.82,2.77,9.5,3.64,23.06,11.9,8.04,31.34,1.45,48.34-1.5,3.88-7.88,25.1-8.82,26.11Z"/>
          <path class="cls-5" d="M626.41,165.96c1.2-.2,1.86-.28,3.02.28,2.36,1.16,7.73,19.09,8.85,22.85,2.12,7.11,4.81,24.04,8.04,29.21,5.65,9.03,17.93-3.44,20.84,4.3,3.81,10.13-2.12,11.96-11.29,12.95-13.8,1.5-19.78-3.35-23.89-15.95-3.58-10.98-6.2-22.87-9.73-34.03-1.14-3.58-6.41-12.97-4-15.57.34-.36,7.49-3.92,8.16-4.03Z"/>
          <path class="cls-5" d="M174.7,479.8c2.59-.24,12.08,9.68,13.55,12.18,9.95,16.91-9.11,29.78-18.79,41.19-4.32,5.09-11.62,17.02-15.79,20.53-3.88,3.26-12.52-4.19-12.05-7.3.32-2.14,9.04-12.58,11.08-15.09,7.22-8.86,15.61-16.73,22.74-25.67,3.39-9.89-8.39-12.5-8.85-17.23-.23-2.36,5.83-8.39,8.11-8.61Z"/>
          <path class="cls-5" d="M294.43,195.82c2.12-2.2,8.7-.07,11.54.59,14.2,3.31,27.8,9.04,41.8,13,9.32-.13,8.82-14.5,12.25-15.58,2.52-.8,11.37,2.88,11.24,6.73-.06,1.69-4.06,11.58-5.15,13.39-11.18,18.52-34.71,4.3-50.48-.19-3.67-1.05-20.94-4.36-22.36-5.57-1.84-1.56-.12-11.04,1.15-12.36Z"/>
          <path class="cls-5" d="M209.21,629.65c1.09-.3,9.64,1.83,11.26,2.39,24.64,8.41,11.6,33.04,7.9,51.31-1.22,6.05-1.5,16.89-3.29,21.85-.38,1.07-1.15,2.15-2.29,2.41-.49.11-9.44-.78-9.91-.94-1.17-.37-2.13-2.15-2.29-3.31-.42-3.03,3.08-19.32,3.97-23.58,1.55-7.39,8.23-25.3,5.4-31.41-2.15-4.63-13.38-4.68-14.71-6.7-1.64-2.47,1.33-11.29,3.95-12.02Z"/>
          <path class="cls-5" d="M607.33,780.14c-3.1-3.12,4.95-18.68,8.2-21.59,10.85-9.71,23.86-1.28,35.13,2,4.66,1.36,32.5,7.85,33.74,9.08,2.3,2.28-.27,12.61-3.46,13.39-1.22.3-11.97-2.53-14.25-3.12-12.45-3.21-24.39-8.32-36.8-11.67-8.93.04-8.63,13.59-11.62,15.46-1.56.98-9.77-2.39-10.94-3.56Z"/>
          <path class="cls-5" d="M827.54,535.65c3.56-.92,9.8,7.37,8.16,10.97-1.17,2.57-13.18,9.6-16.38,11.59-5.39,3.34-28.59,14.54-30.16,18.25-3.99,9.39,12.82,18.05-2.53,21.7-4.64,1.1-4.95.35-7.45-3.38-18.68-27.84,13.3-36.87,32.11-48.33,3.38-2.06,13.79-10.17,16.25-10.81Z"/>
          <path class="cls-5" d="M824.22,422.98c2.77-1.61,12.32,5.04,11.82,8.46-.26,1.74-10.05,13.64-12.01,16.02-6.83,8.29-14.69,15.79-21.62,24-4.29,10.45,9.15,13.7,8.65,18.81-.29,2.98-7.19,7.87-10.55,6.88-1.62-.48-10.33-9.88-11.43-11.9-2.26-4.15-3.03-9.63-2.07-14.27,1.54-7.4,18.28-23.17,23.98-30.03,2.21-2.66,12.27-17.4,13.23-17.96Z"/>
          <path class="cls-5" d="M728.94,746.72c-.96,1.52-13.62.36-16.16.13-12.78-1.14-25.44-4.16-38.18-5.63-10.3.87-6.69,15.16-9.72,17.34-1.57,1.12-10.89-1.08-11.73-2.35-1.25-1.89.23-10.55.92-13.12,6.7-24.93,35.23-13.1,54.05-11.14,6.4.67,12.98.8,19.42,1.07,2.36.73,1.81,13.05,1.4,13.7Z"/>
          <path class="cls-5" d="M708.58,252.4c-.06,10.33,2.35,12.79-8.97,13.85-29.6,2.77-24.83-22.54-27.47-43.06-1.08-8.43-2.94-16.93-4.57-25.27.25-3.09,10.56-5.22,13.09-3.72,2.07,1.23,5.08,23.09,5.56,27.02.86,7.07-.05,23.46,3.71,28.64.28.39,3.08,2.55,3.28,2.55h15.36Z"/>
          <path class="cls-5" d="M271.59,711.66c2.24-.66,14.72-.5,17.29.02,3.94.8,8.99,5.03,11.1,8.46,4.85,7.88,4.29,24.7,5.54,34.5.75,5.88,4.68,20.16,4.45,24.41-.19,3.57-11.59,6.78-13.82,3.58-1.64-2.36-4.1-20.92-4.61-25.18-.79-6.65-.34-26.34-4.27-30.18s-15.99-.11-17.79-2.69c-1.16-1.66-1.29-11.91,2.11-12.91Z"/>
          <path class="cls-5" d="M183.13,429.62c.62.51,5.06,6.7,5.69,7.79,13.21,22.64-7.85,30.42-22.19,42.65-3.35,2.86-18.52,18.23-20.45,18.75-2.06.56-9.22-5.97-9.35-8.58s8.68-10.69,11.17-12.96c9.1-8.31,19.79-14.92,28.88-23.26,6.1-9.23-7.2-13.74-5.63-20.31.28-1.18,8.69-6.7,11.87-4.08Z"/>
          <path class="cls-5" d="M815.43,590.55c2.52-.37,6.33,6.92,7.22,9.23.57,1.48.73,1.93-.38,3.28-.87,1.06-13.48,6.34-15.93,7.36-8.12,3.37-27.7,8.21-33.47,12.16-9.09,6.22,1.84,16.41-1.38,20.97-1.05,1.48-10.03,2.51-11.73,1.38-.67-.44-3.93-10.04-4.2-11.62-2.22-12.79,1.43-18.65,12.64-23.78,10.62-4.85,23.34-8.62,34.41-13.08,3.42-1.38,9.69-5.42,12.83-5.88Z"/>
          <path class="cls-5" d="M464.08,161.69c-2.27-2.15-13.33-11.58-13.48-13.17-.21-2.34,5.87-10.02,8.68-9.61,6.96,1.03,31.4,31.46,38.51,37.01,9.48,4.93,14.03-7.81,18.46-7.38,2.97.29,7.91,7.23,6.89,10.57-.35,1.13-11.35,10.32-13.18,11.08-16.2,6.74-22.12-5.36-31.35-14.64-4.75-4.77-9.66-9.26-14.53-13.87Z"/>
          <path class="cls-5" d="M632.09,810.03c-2.07,1.31-10.1-2.37-12.6-3.42-12.43-5.21-24.22-12.74-36.37-18.58-11.8-2.47-11.38,11.59-15.8,12.72-2.05.53-10.67-4.68-10.29-7.64.15-1.19,3.49-7.07,4.41-8.55,14.04-22.8,32.01-6.06,49.03,2.21,4.16,2.02,22.89,9.02,24.56,10.83,2.01,2.17-1.96,11.82-2.94,12.44Z"/>
          <path class="cls-5" d="M399.62,149.24c.91-.53,2.83-.34,3.92-.15,3.84.68,18.93,11.97,23.19,15.02,3.57,2.55,16.53,13.85,19.02,14.5,11.31,2.94,12.55-9.65,16.54-10.06,2.8-.29,8.49,4.53,8.87,7.09.5,3.45-4.9,9.68-7.45,12.08-17.32,16.3-33.86-4.26-48.16-14.29-3.38-2.37-18.74-11.14-19.93-12.68-1.5-1.95,2.37-10.56,3.99-11.5Z"/>
          <path class="cls-5" d="M831.22,478.78c2.82-.72,11.32,6.31,9.11,11.06-.91,1.96-11.87,11.33-14.41,13.53-4.96,4.29-26.01,18.76-26.87,23.49-1.24,6.82,8.6,11.42,7.18,16.35-.77,2.69-7.93,6.29-11.04,4.85-1.27-.59-6.37-7.81-7.28-9.49-3.74-6.89-4.64-14.53-.36-21.42,3.88-6.24,25.55-21.26,32.78-27.74,2.02-1.81,9.48-10.26,10.89-10.62Z"/>
          <path class="cls-5" d="M786.5,316.75c1.43-.45,8.76,1.88,10,2.78,3.78,2.75-2.02,15.76-3.41,19.71-2.62,7.43-13.18,27.44-13.53,33.08-.71,11.32,22.24,6.53,11.38,20.63-2.35,3.05-3.04,3.34-6.66,2.14-31.81-10.54-14.99-33.4-7.02-53.99,1.48-3.81,7.18-23.7,9.24-24.34Z"/>
          <path class="cls-5" d="M523.03,784.32c15.2-2.8,26.93,11.48,38.51,19.72,6.37,4.53,13.36,8.45,19.98,12.62,3.44,2.51-2.71,11.88-5.67,12.17-3.59.35-18.36-10.54-22.14-13.23-4.38-3.11-20.36-16.81-23.69-17.36-8.55-1.41-11.44,11.6-16.31,10.9-2.78-.4-8.89-6.44-7.46-9.85,1.77-4.22,11.98-14.08,16.77-14.96Z"/>
          <path class="cls-5" d="M387.58,844.87c16.77-7.99,32.32-18.48,46.86-29.99,2.95,2.14,8.8,8.71,7.69,12.34-.57,1.86-27.62,20.02-31.59,22.45-2.85,1.75-12.45,7.96-14.81,8.53-1.09.26-1.64.7-2.8-.03-1.22-.77-8.37-11.38-5.35-13.31Z"/>
          <path class="cls-5" d="M520.24,109.15c1.15-.23,1.98-.36,3.04.3,1.32.82,8.7,9.53,6.07,11.67l-42.37,36.83c-2.58-3.5-9.4-6.51-6.98-11.68,4.36-4.97,8.73-9.84,13.48-14.46,6.29-6.11,16.83-16.05,23.76-20.94.95-.67,1.82-1.48,3.01-1.72Z"/>
          <path class="cls-5" d="M132.84,598.91l51.51,22.7c1.87,1.47-2.1,11.06-3.28,12.58-.86,1.11-1.34.91-2.55.78-2.11-.23-10.24-3.71-13.04-4.74-13.03-4.82-25.47-10.96-37.97-16.96-2.5-2.48,3.1-13.77,5.33-14.35Z"/>
          <path class="cls-5" d="M245.8,713.33c-.68,4,2.22,12.91-3.29,13.95-18.4.7-36.6-1.61-54.76-3.85-2.54-.84-2.98-14.4,1.9-15.52,1.41-.33,10.26,2.19,12.97,2.52,14.34,1.77,28.77,2.05,43.18,2.91Z"/>
          <path class="cls-5" d="M120.78,417.42c5.47-1.39,7.55,6.79,10.27,10.71,8.15,11.73,17.57,22.85,27.14,33.45-1.78,3.11-7.11,9.61-11.13,8.35-3.25-1.02-19.14-21.15-22.29-25.28-2.21-2.9-13.32-17.37-13.13-19.47.15-1.7,7.42-7.32,9.13-7.76Z"/>
          <path class="cls-5" d="M817.15,394.93l47.93,30.15c3.02,2.92-4.52,13.12-7.2,13.37-2.01.18-10.06-7.45-12.68-9.32-11-7.84-22.69-14.7-34.28-21.63-2.02-2.56,4.76-9.81,6.23-12.56Z"/>
          <path class="cls-5" d="M792.51,355.64c-1.18-1.89,2.71-11.06,5.19-11.82,3.65-1.11,15.86,4.01,20.08,5.64,5.37,2.07,11.63,4.87,16.84,7.37,2.45,1.17,14.57,6.76,15.51,7.77,2.59,2.81-4.11,14.52-5.91,14.35-8.95-5.31-18.41-9.85-27.93-14.04-3.52-1.55-23.11-8.19-23.79-9.27Z"/>
          <path class="cls-5" d="M825.8,307.45c.98,1.51-1.4,16.36-6.85,13.93-16.48-6.19-33.68-10.4-51.06-13.29-3.21-.86-.8-11.32.5-12.64.92-.94,3.51-1.22,4.86-1.17,9.22.3,28.68,5.74,38.15,8.48,1.96.57,13.98,4.06,14.4,4.69Z"/>
          <path class="cls-5" d="M396.31,118.46c.73-.14,12.74,5.65,11.38,8.49l-26.06,47.59c-1.73,3.68-11.88-2.53-12.55-4.98-.92-3.35,9.27-22.45,11.56-26.73,1.92-3.59,13.19-23.91,15.66-24.37Z"/>
          <path class="cls-5" d="M865.77,553.94c-.3.51-9.25,6.41-9.82,6.55-1.27.32-1.68,0-2.62-.73-2.53-1.94-11.77-17.33-14.92-21.41-6.07-7.84-13.08-15.19-19.04-22.89,3.25-4.5,7.95-9.99,13.53-6.05s21.64,25.47,26.37,32.29c1.7,2.45,7.96,9.75,6.51,12.23Z"/>
          <path class="cls-5" d="M749.36,209.77c1.51,2.11,1.19,12.79-1.32,13.64-3.55,1.21-17.08-.17-22.22.13-11.29.66-22.88,3.41-34.06,3.31-1.57-4.98-4.39-12.38,2.61-14.28,8.02-2.18,25.55-3.62,34.2-3.97,3.25-.13,19.58-.52,20.8,1.17Z"/>
          <path class="cls-5" d="M544.35,814.9c2.45,1.18,10.62,6.37,10.6,8.76-7.28,11.2-15.05,22.81-23.74,33.08-2.03,2.4-8.18,10.01-10.22,11.23-3.68,2.19-14.06-5.5-11.2-10.29l34.56-42.77Z"/>
          <path class="cls-5" d="M279.13,750.86c1.88-.16,6.1-1.08,7.24.58.38.56,2.36,12.65-.25,12.92-11.94,1.67-24.08,4.21-36.14,4.83-4.65.24-15.5.77-19.55.01-1.19-.22-1.74-.27-2.17-1.56-1.24-3.76-2.21-11.49,2.58-12.94,16.27.47,32.24-2.5,48.29-3.85Z"/>
          <path class="cls-5" d="M640.37,139.93c1.58-.31,3.28-.68,4.44.72.34.42,3.96,9.47,4.04,10.01.19,1.23.19,1.7-.78,2.59-1.44,1.34-20.77,7.81-24.87,9.6-4.11,1.79-24.82,12.5-26.82,12.32-2.12-.19-5.86-8.02-5.89-10.01-.04-3.92,19.38-12.57,23.4-14.41,5.94-2.72,20.88-9.7,26.47-10.81Z"/>
          <path class="cls-5" d="M202.03,251.47l8.44,57.18c-7.95,2.5-12.5,5.67-15.44-4.08s-8.3-37.98-7.99-47.05c.26-7.56,9.4-5.09,15-6.05Z"/>
          <path class="cls-5" d="M166.48,409.61c-.31.52-10.11,5.58-10.72,5.63-1.06.1-1.07-.3-1.66-.82-2.06-1.82-10.71-17.2-12.76-20.8-3.6-6.32-11.36-19.45-13.39-25.72-.35-1.07-.65-2.14-.47-3.28.46-2.83,8.52-6.84,11.5-5.93,2.82.85,10.43,18.88,12.6,22.83,3.62,6.6,12.35,18.67,14.54,24.57.41,1.1,1.03,2.35.35,3.51Z"/>
          <path class="cls-5" d="M541.12,161.94c-.36-.22-4.46-6.6-4.59-7.08-1.58-5.93,4.67-9.02,8.8-12.17,7.4-5.63,16.57-11.64,24.58-16.39,2.89-1.71,12.24-8.23,14.82-6.62,1.62,1.01,7.83,10.95,4.72,13.13l-48.34,29.12Z"/>
          <path class="cls-5" d="M489.42,819.55c1.54-.27,11.81,9.41,7.67,12.37-9.37,9.49-18.51,19.49-28.73,28.08-2.61,2.19-10.92,10.3-13.98,8.38-.45-.28-6.79-7.47-7.01-7.95-.57-1.23-.56-1.52,0-2.75.73-1.6,18.69-15.23,21.92-18.17,6.98-6.34,13.04-13.74,20.13-19.97Z"/>
          <path class="cls-5" d="M184.25,357.53c-.63.88-10.51,3.36-12.33,2.75-2.69-.91-12.2-28.29-13.68-32.9-1.03-3.24-6.49-20.09-5.43-21.77.38-.6,9.33-3.87,10.63-3.79,1.64.09,2.29,1.18,3.07,2.39,3.33,5.2,6.16,20.11,8.47,26.9,1.29,3.77,10.44,24.77,9.26,26.41Z"/>
          <path class="cls-5" d="M456.89,109.15c3.71-1.15,12.13,5.47,11.09,9.19l-35.4,44.62c-2.25-3.16-10.95-5.79-9.49-10.23l33.8-43.59Z"/>
          <path class="cls-5" d="M699.14,169.67c1.47.92,5.47,13.9.4,14.56l-51.26,13.09c-4.55.49-8.16-11.34-2.35-14.55,6.1-3.37,24.2-7.49,31.73-9.24,2.95-.69,20.23-4.64,21.47-3.86Z"/>
          <path class="cls-5" d="M118.81,539.26l47.92,31.11c1.81,1.9-1.85,6.45-3.33,7.96-3,3.06-3.29,3.42-7.67,2.05-5.11-1.59-16.47-9.56-21.6-12.85-4.18-2.68-19.1-11.95-21.47-14.83-3.48-4.22,3.81-9.79,6.15-13.44Z"/>
          <path class="cls-5" d="M108.31,491.38c-1.32-1.51-2.66-3.23-1.77-5.23.55-1.23,8.12-8.15,9.52-8.27s13.57,13.75,16.12,16.18c7.93,7.54,16.61,14.56,25.13,21.42,2.65,2.99-6.04,11.7-10.18,10.21-2.93-1.06-16.38-12.89-19.61-15.8-5.36-4.83-14.71-13.33-19.21-18.5Z"/>
          <path class="cls-5" d="M209.43,683.48c-19.5-1.29-38.44-7.56-57.14-12.88-2.18-1.49,1.5-15.18,6.17-13.91l51.96,13.32c2.59,1.95-1.39,10.33-.99,13.47Z"/>
          <path class="cls-5" d="M608.81,806.58c.8,1.27-.13,3.79-.59,5.2-2.09,6.43-9.52,19.54-13.08,26.02-1.81,3.3-10.01,18.31-11.81,19.85-2.87,2.46-13.22-3.1-13.52-6.08-.11-1.12.3-2,.73-2.98,2.07-4.7,9.36-13.6,12.49-19.17,2.44-4.34,11.67-25.17,13.33-26.7,1.23-1.13,1.94-1.16,3.5-.75.49.13,8.67,4.19,8.93,4.62Z"/>
          <path class="cls-5" d="M733.87,711.6c13.88-1.98,14.02,2.24,14.8,14.26.67,10.3.87,27.16,0,37.32-.17,1.93-.62,7.12-2.48,7.76-2,.68-9,.17-10.9-.96-4.63-2.76-.08-20.12-1.55-25.44,1.39-9.2-.7-19.66-.85-28.99-.02-1.41.35-2.71.99-3.94Z"/>
          <path class="cls-5" d="M820.09,563.56c1.24-.21,1.82-.25,3,.3,2.14.99,11.32,17.04,13.22,20.34,2.71,4.72,13.64,24.25,13.8,28.2.13,3.42-9.88,9.34-13.46,4.97-3.88-4.73-8.14-16.77-11.51-22.93-4.35-7.93-9.1-15.72-13.96-23.35-1.95-3.15,6.96-7.21,8.91-7.54Z"/>
          <path class="cls-5" d="M642.42,839.01l-13.85-4.71c5.82-17.87,14.12-35.22,18.07-53.93,1.6-2.22,13.21.95,13.24,5.88.02,3.46-4.01,15.62-5.29,19.76-3.47,11.21-8.3,21.96-12.17,33.01Z"/>
          <path class="cls-5" d="M335.31,138.91c1.95-1.23,13.12,2.27,12.91,6.76-.22,4.66-8.55,22.43-10.66,28.54-1.33,3.85-5.82,22.05-7.41,23.33-1.34,1.08-10.62-1.57-11.73-2.4-1.28-.95-.96-2.3-.86-3.62.56-7.64,7.08-25.07,9.94-32.97.92-2.53,6.93-19.09,7.82-19.65Z"/>
          <path class="cls-5" d="M684.51,806.32l8.69-56.7c.99-1.53,12.36.77,13.11,1.84,2.82,4.04-6.38,48.48-8.12,56.23-.45,3.32-13.29-.75-13.68-1.37Z"/>
          <path class="cls-5" d="M284.9,228.2c-.56.6-10.73-.49-12.4-1.11-2.41-.9-1.69-5.59-1.56-7.73.52-8.68,2.47-19.87,4-28.58.57-3.26,3.71-20.72,5.25-21.75,1.82-1.22,11.69.88,12.65,2.33,1.81,2.73-5.08,31.18-5.95,36.95-.99,6.55-1.33,13.31-1.99,19.89Z"/>
          <path class="cls-5" d="M329.4,780.55c5.07-.25,6.47,11.27,3.37,13.7-3.57,2.8-27.03,8.51-32.95,9.88-4.81,1.12-15.92,4.21-20.13,4.13-2.55-.05-6.02-12.83-2.19-14.35l51.9-13.37Z"/>
          <path class="cls-5" d="M333.44,838c-1.16-.74-4.37-9.98-3.67-12.27.96-3.17,15.51-6.97,19.37-8.58,4.52-1.88,30.37-14.63,32.12-14.47,3.1.28,6.13,8.93,4.65,12.14s-27.17,14.25-32.14,16.28c-2.97,1.22-18.72,7.93-20.34,6.9Z"/>
          <path class="cls-5" d="M826.86,449.82l1.33.03c15.5,11.75,29.41,25.15,42.94,39.08.77,1.5-4.97,8.44-6.53,9.35-2.01,1.17-3.73,1.51-5.69,0-5.18-6.25-10.78-12.2-16.68-17.76-4.07-3.83-20.8-16.39-22.43-19.54-1.28-2.48,7.27-7.41,7.06-11.16Z"/>
          <path class="cls-5" d="M776.77,725.22l-9.61-55.19c.24-2.62,10.33-4.12,12.73-2.39,2.76,1.99,6.75,25.75,7.55,30.62,1.34,8.23,2.97,17.17,2.63,25.33-1.15,1.92-11.07,3.79-13.3,1.63Z"/>
          <path class="cls-5" d="M824.88,672.27c-3.69.33-10.99,5.28-13.79,1.4-2.51-3.48-7.36-23.79-9.38-29.73-1.28-3.79-9-21.13-8.33-23.13s12.24-5.41,13.8-1.9c3.2,6.06,20.01,50.69,17.69,53.36Z"/>
          <path class="cls-5" d="M735.31,250.73c3.07-.91,15.33-.35,19.36-.18,6.85.3,15.48,1.08,22.35,1.86,3.12.35,10.34,1.09,12.87,2.03,2.73,1.02,2.15,12.82-.27,14.26s-24.48-2.82-29.35-3.26c-8.57-.78-18.19-.39-26.86-1.07-3.02-1-1.3-12.7,1.92-13.65Z"/>
          <path class="cls-5" d="M243.8,265.31c-14.38,4.07-14.1-1.23-14.81-13.33-.5-8.51-1.14-36.84,1.13-43.65.8-2.39,12.52-2.86,13.62.96l.06,56.02Z"/>
        </g>
        <path class="cls-1" d="M673.85,448.74c-27.74-31.95-77.24-17.41-118.07,3.67-4.18,2.16-8.11-3.21-4.81-6.55,36.16-36.52,66.73-86.62,22.87-128.23-47.54-45.11-98.74,20.71-98.74,20.71.34-15.27,8.14-23.41,8.14-23.41,0,0-55.23-38.87-91.11,16.29-24.57,37.78,8.36,84.75,42.27,118.89,3.35,3.38-.73,8.79-4.9,6.5-42.16-23.18-96.39-41.9-125.93-7.86-43.13,49.69,9.46,92.07,9.46,92.07,0,0,5.68-9.75,20.26-14.28,0,0-49.16,67.35,7.31,100.62,68.55,40.39,115.71-37.18,136.35-88.02-2.08,20.41-7.34,57.9-12.54,72.53-4.53,12.75-27.99,46.32-27.99,46.32l39.19,17.81s17.65-44.22,20.56-61.12c3.07-17.85,3.19-50.47,2.86-79.17,19.82,50.14,67.59,133.02,137.8,91.65,56.46-33.27,7.31-100.62,7.31-100.62,14.58,4.53,20.26,14.28,20.26,14.28,0,0,52.59-42.38,9.46-92.07Z"/>
        <g>
          <g>
            <polygon class="cls-2" points="449.9 516.91 449.9 469.27 483.18 441.05 511.39 441.04 511.39 483.3 500.85 483.3 495.34 487.98 495.34 516.91 449.9 516.91"/>
            <polygon class="cls-3" points="487.69 453.3 487.68 453.3 487.68 453.31 487.68 453.31 462.16 474.95 462.16 504.66 483.08 504.66 483.08 482.3 496.36 471.04 499.13 471.04 499.13 453.3 487.69 453.3"/>
            <polygon class="cls-2" points="525.23 505.93 525.23 483.3 518.36 483.3 518.36 441.04 557.05 441.04 575.37 456.58 575.37 473.11 580.07 473.11 580.07 505.93 525.23 505.93"/>
            <polygon class="cls-3" points="563.11 485.37 563.11 462.25 552.55 453.3 530.62 453.3 530.62 471.04 542.19 471.04 542.19 485.37 537.49 485.37 537.49 493.67 567.81 493.67 567.81 485.37 563.11 485.37"/>
            <polygon class="cls-2" points="483.19 598.28 449.9 570.05 449.9 519.1 495.34 519.1 495.34 551.35 500.85 556.02 525.23 556.02 525.23 537.02 580.07 537.02 580.07 569.84 575.27 569.84 575.45 582.67 557.05 598.28 483.19 598.28"/>
            <polygon class="cls-3" points="537.49 557.58 541.91 557.58 541.91 568.28 496.36 568.28 483.08 557.02 483.08 531.35 462.16 531.35 462.16 564.37 487.68 586.01 487.68 586.02 487.69 586.02 552.55 586.02 563.11 577.07 562.83 557.58 567.81 557.58 567.81 549.28 537.49 549.28 537.49 557.58"/>
          </g>
          <path class="cls-2" d="M401.61,539.42v-86.63h-3.78v-23.42h-.48v-50.23h31.52v3.04h80.54s24.82,29.43,24.82,29.43v98.38l-24.82,29.43h-107.8ZM491.81,497.16l2.94-3.48v-65.76l-2.94-3.48h-47.76v28.35h-2.95v44.37h50.71Z"/>
          <polygon class="cls-3" points="503.72 527.16 413.87 527.16 413.87 440.54 410.09 440.54 410.09 432.24 431.8 432.24 431.8 440.54 428.85 440.54 428.85 509.42 497.51 509.42 507.01 498.16 507.01 423.44 497.51 412.19 491.02 412.19 424.59 412.19 416.62 412.19 416.62 417.12 409.61 417.12 409.61 412.19 409.61 394.44 409.61 391.4 416.62 391.4 416.62 394.44 503.72 394.44 521.98 416.09 521.98 505.51 503.72 527.16"/>
        </g>
      </g>
      <text class="cls-4" transform="translate(272.24 272.79) rotate(-38.95)"><tspan x="0" y="0">C</tspan></text>
      <text class="cls-4" transform="translate(325.06 230.31) rotate(-26.13)"><tspan x="0" y="0">O</tspan></text>
      <text class="cls-4" transform="translate(387.13 200.71) rotate(-14.08)"><tspan x="0" y="0">F</tspan></text>
      <text class="cls-4" transform="translate(443.8 186.69) rotate(-3.11)"><tspan x="0" y="0">F</tspan></text>
      <text class="cls-4" transform="translate(502.6 182.55) rotate(9.82)"><tspan x="0" y="0">M</tspan></text>
      <text class="cls-4" transform="translate(581.79 196.82) rotate(24.72)"><tspan x="0" y="0">A</tspan></text>
      <text class="cls-4" transform="translate(651.5 229.75) rotate(38.48)"><tspan x="0" y="0">N</tspan></text>
      <text class="cls-4" transform="translate(150.77 714.27) rotate(51.71)"><tspan x="0" y="0">S</tspan></text>
      <text class="cls-4" transform="translate(204.14 778.79) rotate(39.77)"><tspan x="0" y="0">H</tspan></text>
      <text class="cls-4" transform="translate(275.61 835.18) rotate(26.36)"><tspan x="0" y="0">A</tspan></text>
      <text class="cls-4" transform="translate(370.96 878.25) rotate(11.3)"><tspan x="0" y="0">M</tspan></text>
      <text class="cls-4" transform="translate(473.46 894.84) rotate(-2.63)"><tspan x="0" y="0">R</tspan></text>
      <text class="cls-4" transform="translate(562.95 888.3) rotate(-15.21)"><tspan x="0" y="0">O</tspan></text>
      <text class="cls-4" transform="translate(646.65 863.16) rotate(-27.52)"><tspan x="0" y="0">C</tspan></text>
      <text class="cls-4" transform="translate(722.09 821.45) rotate(-39.84)"><tspan x="0" y="0">K</tspan></text>
      <text class="cls-4" transform="translate(787.79 763.68) rotate(-51.92)"><tspan x="0" y="0">S</tspan></text>
      <g>
        <path class="cls-2" d="M819.22,555.57l3.19-4.57c-3.36,1.63-6.99,2.56-10.92,2.56-4.65,0-9.33-1.37-13.91-4.06-5.99-3.53-9.82-8.64-11.1-14.8-.92-4.46-.39-8.89.7-12.77-2.68-2.55-8.33-8.89-9.12-17.68-.41-4.56.43-11.51,6.71-18.75,4.53-5.22,10.93-7.98,18.48-7.98,2.46,0,5.07.29,7.81.86-6.48-12.27-4.28-21.28-.4-27.24,6.47-9.95,14.79-12.04,20.63-12.04,6.75,0,12.42,2.77,15.04,4.31,3.84-2.37,8.52-4.25,13.71-4.25,5.74,0,11,2.24,15.65,6.65,5.64,5.35,8.55,11.57,8.66,18.49.07,4.48-1.07,9.1-3.39,13.85,2.31-.42,4.52-.63,6.62-.63,7.56,0,13.95,2.76,18.48,7.98,6.28,7.24,7.12,14.19,6.71,18.75-.78,8.79-6.43,15.13-9.12,17.68,1.09,3.88,1.62,8.3.7,12.77-1.27,6.15-5.11,11.27-11.1,14.8-4.57,2.69-9.25,4.06-13.91,4.06-8.9,0-17.16-4.83-24.55-14.36-.08.63-.16,1.2-.25,1.71-.95,5.5-5.62,17.36-6.55,19.69l-2.73,6.83-26.09-11.86Z"/>
        <path class="cls-1" d="M900.79,490.11c-8.29-9.55-23.09-5.21-35.3,1.1-1.25.64-2.43-.96-1.44-1.96,10.81-10.92,19.95-25.9,6.84-38.34-14.22-13.49-29.52,6.19-29.52,6.19.1-4.57,2.43-7,2.43-7,0,0-16.51-11.62-27.24,4.87-7.35,11.3,2.5,25.34,12.64,35.55,1,1.01-.22,2.63-1.46,1.94-12.61-6.93-28.82-12.53-37.65-2.35-12.9,14.86,2.83,27.53,2.83,27.53,0,0,1.7-2.91,6.06-4.27,0,0-14.7,20.14,2.18,30.09,20.5,12.08,34.6-14.11,40.77-29.31-.62,6.1-2.19,20.3-3.75,24.68-1.36,3.81-8.37,13.85-8.37,13.85l11.72,5.33s5.28-13.22,6.15-18.27c.92-5.34.95-18.08.86-26.66,5.93,14.99,20.21,42.76,41.2,30.39,16.88-9.95,2.18-30.09,2.18-30.09,4.36,1.36,6.06,4.27,6.06,4.27,0,0,15.72-12.67,2.83-27.53Z"/>
      </g>
      <g>
        <path class="cls-2" d="M105.77,555.57l3.19-4.57c-3.36,1.63-6.99,2.56-10.92,2.56-4.65,0-9.33-1.37-13.91-4.06-5.99-3.53-9.82-8.64-11.1-14.8-.92-4.46-.39-8.89.7-12.77-2.68-2.55-8.33-8.89-9.12-17.68-.41-4.56.43-11.51,6.71-18.75,4.53-5.22,10.93-7.98,18.48-7.98,2.46,0,5.07.29,7.81.86-6.48-12.27-4.28-21.28-.4-27.24,6.47-9.95,14.79-12.04,20.63-12.04,6.75,0,12.42,2.77,15.04,4.31,3.84-2.37,8.52-4.25,13.71-4.25,5.74,0,11,2.24,15.65,6.65,5.64,5.35,8.55,11.57,8.66,18.49.07,4.48-1.07,9.1-3.39,13.85,2.31-.42,4.52-.63,6.62-.63,7.56,0,13.95,2.76,18.48,7.98,6.28,7.24,7.12,14.19,6.71,18.75-.78,8.79-6.43,15.13-9.12,17.68,1.09,3.88,1.62,8.3.7,12.77-1.27,6.15-5.11,11.27-11.1,14.8-4.57,2.69-9.25,4.06-13.91,4.06-8.9,0-17.16-4.83-24.55-14.36-.08.63-.16,1.2-.25,1.71-.95,5.5-5.62,17.36-6.55,19.69l-2.73,6.83-26.09-11.86Z"/>
        <path class="cls-1" d="M187.34,490.11c-8.29-9.55-23.09-5.21-35.3,1.1-1.25.64-2.43-.96-1.44-1.96,10.81-10.92,19.95-25.9,6.84-38.34-14.22-13.49-29.52,6.19-29.52,6.19.1-4.57,2.43-7,2.43-7,0,0-16.51-11.62-27.24,4.87-7.35,11.3,2.5,25.34,12.64,35.55,1,1.01-.22,2.63-1.46,1.94-12.61-6.93-28.82-12.53-37.65-2.35-12.9,14.86,2.83,27.53,2.83,27.53,0,0,1.7-2.91,6.06-4.27,0,0-14.7,20.14,2.18,30.09,20.5,12.08,34.6-14.11,40.77-29.31-.62,6.1-2.19,20.3-3.75,24.68-1.36,3.81-8.37,13.85-8.37,13.85l11.72,5.33s5.28-13.22,6.15-18.27c.92-5.34.95-18.08.86-26.66,5.93,14.99,20.21,42.76,41.2,30.39,16.88-9.95,2.18-30.09,2.18-30.09,4.36,1.36,6.06,4.27,6.06,4.27,0,0,15.72-12.67,2.83-27.53Z"/>
      </g>
    </g>
  </g>
</svg>