<?xml version="1.0" encoding="UTF-8"?>
<svg id="Layer_2" xmlns="http://www.w3.org/2000/svg" viewBox="0 0 914.06 914.06">
  <defs>
    <style>
      .cls-1 {
        fill: #016735;
      }

      .cls-2 {
        fill: #141414;
      }

      .cls-3 {
        fill: #fff;
      }

      .cls-4 {
        fill: #212121;
      }
    </style>
  </defs>
  <g id="Logos">
    <g>
      <g>
        <path class="cls-3" d="M457.03,914.06c-61.65,0-121.52-12.1-177.93-35.96-54.44-23.02-103.3-55.96-145.24-97.9-41.94-41.94-74.88-90.81-97.9-145.24C12.1,578.55,0,518.69,0,457.03s12.1-121.52,35.96-177.93c23.02-54.44,55.96-103.3,97.9-145.24,41.94-41.94,90.8-74.88,145.24-97.9C335.52,12.1,395.38,0,457.03,0s121.52,12.1,177.93,35.96c54.44,23.02,103.3,55.96,145.24,97.9,41.94,41.94,74.88,90.81,97.9,145.24,23.86,56.41,35.96,116.28,35.96,177.93s-12.1,121.52-35.96,177.93c-23.02,54.44-55.96,103.3-97.9,145.24-41.94,41.94-90.8,74.88-145.24,97.9-56.41,23.86-116.28,35.96-177.93,35.96Z"/>
        <path class="cls-3" d="M457.03,904.06c-60.31,0-118.86-11.83-174.03-35.17-53.24-22.52-101.04-54.74-142.07-95.76-41.02-41.02-73.24-88.82-95.76-142.07-23.34-55.17-35.17-113.73-35.17-174.03s11.83-118.86,35.17-174.03c22.52-53.24,54.74-101.04,95.76-142.06,41.02-41.02,88.82-73.24,142.07-95.76,55.17-23.34,113.73-35.17,174.03-35.17s118.86,11.83,174.03,35.17c53.24,22.52,101.04,54.74,142.07,95.76,41.02,41.02,73.24,88.82,95.76,142.07,23.34,55.17,35.17,113.73,35.17,174.03s-11.83,118.86-35.17,174.03c-22.52,53.24-54.74,101.04-95.76,142.06-41.02,41.02-88.82,73.24-142.07,95.76-55.17,23.34-113.73,35.17-174.03,35.17Z"/>
        <path class="cls-2" d="M457.03,895.74c-59.19,0-116.65-11.61-170.79-34.51-52.25-22.1-99.16-53.72-139.42-93.98-40.26-40.26-71.88-87.17-93.98-139.42-22.9-54.14-34.51-111.6-34.51-170.79s11.61-116.65,34.51-170.79c22.1-52.25,53.72-99.16,93.98-139.42,40.26-40.26,87.17-71.88,139.42-93.98,54.14-22.9,111.6-34.51,170.79-34.51s116.65,11.61,170.79,34.51c52.25,22.1,99.16,53.72,139.42,93.98,40.26,40.26,71.88,87.17,93.98,139.42,22.9,54.14,34.51,111.6,34.51,170.79s-11.61,116.65-34.51,170.79c-22.1,52.25-53.72,99.16-93.98,139.42-40.26,40.26-87.17,71.88-139.42,93.98-54.14,22.9-111.6,34.51-170.79,34.51Z"/>
        <path class="cls-1" d="M457.03,840.28c-51.72,0-101.92-10.14-149.19-30.13-45.64-19.3-86.62-46.93-121.81-82.12-35.19-35.19-62.82-76.17-82.12-121.81-19.99-47.27-30.13-97.46-30.13-149.19s10.14-101.92,30.13-149.19c19.3-45.64,46.93-86.62,82.12-121.81,35.19-35.19,76.17-62.82,121.81-82.12,47.27-19.99,97.46-30.13,149.19-30.13s101.92,10.14,149.19,30.13c45.64,19.3,86.62,46.93,121.81,82.12,35.19,35.19,62.82,76.17,82.12,121.81,19.99,47.27,30.13,97.46,30.13,149.19s-10.14,101.92-30.13,149.19c-19.3,45.64-46.93,86.62-82.12,121.81-35.19,35.19-76.17,62.82-121.81,82.12-47.27,19.99-97.46,30.13-149.19,30.13Z"/>
        <circle class="cls-2" cx="457.03" cy="457.03" r="352.74"/>
      </g>
      <g>
        <path class="cls-4" d="M722.25,300.06c-10.54-10.07-20.11-21.49-31.86-29.87-15.88-11.34-16.54-11.03-9.32-30.96,1.1-3.05-1.19-8.29-3.45-11.4-5.66-7.79-12.2-14.95-16.92-23.38,54.25,39.11,86.17,93.68,106.37,157.28-12.76-25.31-36.47-24.43-59.06-27.28-51.62-6.5-89.98-34.83-124.48-77.99,15.22,2.07,26.21,3.56,38.6,5.24-3.64,3.35-6.09,5.61-8.51,7.83,16.33,22.54,51.06,34.04,104.32,34.85,1.44-1.44,2.87-2.89,4.31-4.33Z"/>
        <path class="cls-4" d="M288.93,262.01c15.91-2.08,26.38-3.45,41.66-5.44-35.5,43.82-74.33,72.21-126.95,78.25q-35.78,4.11-55.89,26.43c5.42-45.87,62.51-132.04,106.2-156.24-6.48,8.19-11.21,12.55-13.85,17.92-2.94,5.99-16.85,12.97-.14,19.39-4.23,8.49-6.9,18.41-13.05,25.16-10.55,11.58-23.27,21.19-33.32,34.28,35.89.91,69.8-1.06,99.21-22.14,7.51-5.38,12.78-10.74-3.86-17.62Z"/>
        <path class="cls-4" d="M463.37,743.57c2.93-5.02,5.24-8.99,9.49-16.28h-29.2c10.82,27.25,52.67,39.14,81.63,24.68,23.63-11.8,37.28-32.56,47.19-55.58,6.53-15.15,16.57-21.04,38.14-19.71-13.88,25.7-23.16,51.82-39.76,71.88-44.22,53.42-121.49,39.36-148.44-25,20.92-20.4,46.23-20.8,68.95-1.12-7.26,23.18-12.41,27.42-28.01,21.13Z"/>
        <path class="cls-4" d="M732.62,632.65c-14.97,19.11-27.41,34.99-43.1,55.02.77-11.81,1.16-17.83,1.65-25.4-29.59,1.83-57.88,4.69-86.2,5.05-32.65.42-48.18,26.88-71.56,44.45,6.45,1.82,12.36,3.48,23.05,6.49-10.13,8.6-18.54,21.26-25.35,20.46-18.82-2.24-30.94-16.78-40.92-35.27,21.93-.5,35.62-11.96,47.35-27.41,17.67-23.29,44.33-25.54,70.43-27.62,22.34-1.79,44.92-1.07,67.16-3.56,17.22-1.92,34.08-7.09,57.48-12.2Z"/>
        <path class="cls-4" d="M222.4,662.14c.78,7.98,1.3,13.27,1.82,18.55-.96.77-1.92,1.54-2.88,2.31-12.46-15.72-24.92-31.45-37.39-47.17.96-1.56,1.93-3.12,2.89-4.68,43.78,21.98,91.3,13.09,137.03,19.09,24.03,3.15,42.79,13.15,58.92,31.85,9.43,10.93,24.42,17.06,38.28,26.26-6.75,13.78-19.24,27.67-37.86,30.31-6.7.95-15.25-11.07-26.02-19.61,10.32-3.19,16.27-5.03,20.3-6.28-25.48-41.21-66.24-49.36-111.4-47.91-13.74.44-27.56-1.65-43.68-2.74Z"/>
        <path class="cls-4" d="M447.37,134.84c-17.2,72.3-90.8,124-165.63,117.68.86-18.61,11.75-23.69,28.92-23.87,50.89-.53,87.52-23.76,110.1-72.99h-30.07c1.66,11.84,20.04,21.84-.66,32.15-3.14-2.99-7.98-6.04-10.59-10.42-5.67-9.5-10.2-19.68-15.2-29.58,9.72-4.33,19.14-11.23,29.23-12.41,17.64-2.05,35.68-.57,53.9-.57Z"/>
        <path class="cls-4" d="M632.93,252.87c-79.36,3.33-135.88-35.92-167.7-117.79,27.1-3.85,53.04-4.32,77.64,7.3,3.64,1.72,6.61,13.21,4.44,17.26-5.59,10.41-14.24,19.17-22.85,30.09-4.69-5.15-8.06-8.86-11.82-13,3.93-6.64,7.49-12.65,12.3-20.78-10.68-.9-19.43-1.64-28.66-2.42,4.98,32.15,40.96,65.04,77.27,71.82,10.08,1.88,20.38,2.86,30.62,3.57,21.41,1.49,21.42,1.31,28.76,23.95Z"/>
        <path class="cls-4" d="M690.61,566.33c4.1-12.78,7.01-25.47,12.39-37.01,2.48-5.32,9.82-8.38,15.86-13.18,1.96,5.29,3.53,9.52,5.32,14.36,2.17-.72,3.95-.9,5.21-1.8,34.78-25.16,35.16-61.95,34.81-100.5-7.2,1.35-12.93,2.43-23.8,4.47,11.21-18.08,20.19-32.57,29.84-48.14,21.18,24.39,18.3,96.35,1.38,126.44-17.97,31.95-42.41,53.72-81.01,55.36Z"/>
        <path class="cls-4" d="M585.16,218.9c-12.95,2.47-18.21-3.79-19.1-15.29-1.38-17.97-2.71-35.95-4.07-54.11,61.92,14.23,107.02,70.25,113.03,140.45-14.95.98-23.67-3.53-28.49-19.75-14.82-49.92-28.44-66.81-64.17-82.7,1.01,11.28,1.84,20.66,2.8,31.41Z"/>
        <path class="cls-4" d="M238.4,289.94c9.94-70.68,43.72-120.05,113.55-141.15-1.26,18.73-2.37,36.77-3.72,54.78-.86,11.46-6.79,17.27-19.47,16.05,1.08-10.14,2.13-19.9,3.47-32.44-21.47,8.46-36.74,19.79-45.84,37.64-7.4,14.51-14.73,29.54-18.68,45.2-4.16,16.5-13.37,20.98-29.31,19.91Z"/>
        <path class="cls-4" d="M166.61,430.54c-5.19-1.18-10.39-2.36-17.59-4-1.74,40.77,2.36,77.84,39.24,105.23,2.59-5.4,4.69-9.8,6.81-14.19,23.81,7.66,18.18,32.61,29.77,48.24-78.71,1.43-118.63-109.01-82.69-182.89,10.43,16.31,19.41,30.36,28.4,44.42-1.32,1.07-2.63,2.13-3.95,3.2Z"/>
        <path class="cls-4" d="M742.39,504.88c-2.61-5.51-4.41-9.28-6.01-12.65-49.86,34.87-52.32,41.05-57.09,140.82-3.01.91-6.26,2.31-9.66,2.81-2.79.41-5.74-.24-9.57-.48-2.13-42.78-4.09-84.68,22.03-121.26,6.53-9.14,15.37-16.86,24.01-24.21,12.74-10.84,26.26-20.76,40.23-31.68,15.03,12.51,8.5,27.29-3.96,46.65Z"/>
        <path class="cls-4" d="M449.08,771.15c-56.16,25.67-117.46-.25-140.7-94.39,15.4-1.55,25.62,2.93,32.55,18.1,6.44,14.09,15.25,27.54,25.15,39.51,14.22,17.19,33.3,24.66,56.24,23.82,9.41-.34,19,4.23,28.5,6.57-.58,2.13-1.17,4.26-1.75,6.39Z"/>
        <path class="cls-4" d="M253.93,636.41c-6.82-.6-12.1-1.06-20.39-1.78,3.58-55.2,7.52-111.07-55.78-139.92-1.11,1.06-4.24,4.04-7.68,7.33-11.21-15.97-17.14-30.84-2.37-44.55,14.03,11.47,27.45,23.55,41.97,34.1,28.22,20.49,40.43,49.53,43.88,82.47,2.06,19.71.38,39.82.38,62.35Z"/>
        <path class="cls-4" d="M688.69,487.12c1.73-9.69,2.37-19.76,5.51-28.97,3.08-9.01,7.76-17.84,13.38-25.56,21.92-30.1,26.17-59.38-3.84-87.9,27.98-4.62,51.55,18.95,44.93,48.85-8.11,36.61-24.45,70.67-53.53,96.16-2.15-.86-4.3-1.73-6.45-2.59Z"/>
        <path class="cls-4" d="M210.85,344.24c-32.74,30.19-23.77,60.64-3.36,91.69,9.88,15.04,19.03,30.84,14.67,52.52-13.42-8.74-25.23-15.41-29.99-31.8-3.78-13.04-12.45-24.68-19.08-36.87-9.53-17.52-11.11-35.15-2.78-53.83,7.36-16.51,16.75-28.35,40.54-21.71Z"/>
        <path class="cls-4" d="M227.05,627.35c-56.21-4.04-90.42-45.13-82.06-99.22,9.44,13.09,17.56,24.7,26.07,36.02,5.05,6.71,9.86,14.02,16.29,19.17,12.59,10.08,26.17,16.93,39.7-5.71v49.74Z"/>
        <path class="cls-4" d="M687.63,580.43c17.04,17.56,38.04,11.95,53.32-12.03,8.58-13.46,17.75-26.55,27.75-41.45,10.97,52.36-25.41,96.62-81.07,100.29v-46.8Z"/>
        <path class="cls-4" d="M258.72,724.96c-10.67-16.26-24.64-31.18-22.14-53.48,13.33-2.01,21.27.55,26.54,14.64,3.65,9.77,13.2,18.67,22.27,24.72,10.72,7.14,21.66,6.83,23.03-11.85,6.74,15.08,13.48,30.16,20.22,45.24-.8,1.71-1.6,3.43-2.41,5.14-22.72-8.36-45.45-16.73-68.17-25.08,0,0,.65.67.65.67Z"/>
        <path class="cls-4" d="M655.45,724.15c-22.18,8.42-44.37,16.84-66.55,25.25-1.06-1.61-2.11-3.23-3.17-4.84,6.47-14.94,12.94-29.87,19.74-45.56,5.83,17.37,12.18,20.25,26.8,10.11,7.56-5.25,15.41-13.14,18.21-21.49,4.52-13.44,11.77-18.52,26.19-16.54,4.61,22.57-10.36,37.5-21.89,53.75,0,0,.67-.68.67-.68Z"/>
        <path class="cls-4" d="M663.23,334.14c18.27.46,26.91,7.61,29.66,24.22,1.82,11.01,6.31,22.37,12.48,31.68,7.62,11.51,7.47,20.79-2.77,32.97-27.2-23.86-28.91-57.65-39.36-88.87Z"/>
        <path class="cls-4" d="M251.28,333.56c-10.34,31.54-12.43,64.53-40.27,89.05-3.96-7.25-7.28-13.31-8.66-15.83,7.09-17.42,14.98-31.29,18.19-46.17,3.54-16.4,10.48-26.08,30.74-27.05Z"/>
        <path class="cls-4" d="M417.12,206.64c5.77-12.96,13.62-16.26,26.62-12.27,8.24,2.53,18.55,2.47,26.79-.09,13.16-4.08,20.75-.01,26.15,11.4-21.76,19.51-51.78,20.12-79.57.96Z"/>
        <path class="cls-4" d="M267.39,596.88c14.93,12.62,29.85,25.25,47.28,39.99-35.38,7.41-55.48-8.08-47.28-39.99Z"/>
        <path class="cls-4" d="M602.84,639.72c12.45-19.89,25.56-34.95,47.78-40.05,5.45,27.42-10.46,40.99-47.78,40.05Z"/>
      </g>
      <g>
        <path class="cls-1" d="M359.22,365.55c.18-1.4.38-5.74,1.32-9.92,1.74-7.73,2.75-15.91,6.1-22.93,11.14-23.32,38.42-29.23,56.12-10.49,9.88,10.46,18.26,24.81,21.31,38.73,5.71,26.12,7.07,53.19,10.23,79.86-1.6.81-3.19,1.62-4.79,2.44-11.87-9.07-23.74-18.14-35.61-27.22-.43.44-.85.89-1.28,1.33,9.12,9.93,18.23,19.85,27.35,29.78-.15,1.25-.31,2.49-.46,3.74-20.71-1.77-41.88-1.5-62-5.94-17.28-3.81-34.54-11.11-49.65-20.39-14.16-8.69-16.42-24.98-11.8-40.59,4.31-14.54,15.31-22.71,30.37-23.95,3.66-.3,7.64,3.2,12.79,5.56Z"/>
        <path class="cls-1" d="M470.93,449.55c8.32-11,16.63-22,24.95-33-.53-.53-1.05-1.07-1.58-1.6-9.15,8.48-18.3,16.96-30.48,28.24,1.38-42.36-.7-81.94,25.33-115.44,10.28-13.23,28.73-16.61,43.71-10.23,15,6.39,21.89,19.02,20.47,38.4h-12.43c-.11.57-.22,1.15-.32,1.72,5.91,1.08,11.9,1.86,17.71,3.33,8.53,2.15,17.71,3.39,25.25,7.51,21.23,11.6,26.14,37.24,8.75,53.88-10.42,9.97-24.61,18.71-38.48,21.79-26.42,5.86-53.82,7.27-80.82,10.53-.68-1.71-1.37-3.42-2.05-5.14Z"/>
        <path class="cls-1" d="M444.96,462.73c-13.69,16.71-25.3,30.89-36.92,45.06.19.28.38.56.58.84,12.83-11.61,25.66-23.22,41.1-37.19-1.34,40.86.27,79.14-23.15,112.27-10.71,15.16-28.93,19.86-45.02,13.44-15.82-6.31-23.22-19.38-21.51-39.37,4.15.26,8.33.52,12.51.78.15-.43.3-.86.45-1.29-4.72-1.19-9.39-2.57-14.16-3.51-3.47-.69-7.09-.54-10.56-1.21-21.01-4.06-34.42-15.36-36.66-31.75-2.66-19.5,8.35-32.01,23.46-41.36,20.3-12.56,43.49-14.92,66.56-16.55,13.06-.92,26.23-.17,43.31-.17Z"/>
        <path class="cls-1" d="M557.33,554.2v-10.22c-.67-.05-1.35-.09-2.02-.14-.7,4.63-1.01,9.37-2.18,13.88-2.31,8.93-3.64,18.52-7.95,26.45-11.24,20.68-35.35,25-53.04,9.44-7.09-6.24-13.29-14.57-17.18-23.18-14.04-31.08-13.37-64.26-13.05-101.83,17.17,14.07,31.35,25.69,45.54,37.31.27-.18.54-.35.81-.53-11.5-12.73-23-25.45-34.51-38.18.07-1.21.14-2.43.21-3.64,21.13,1.77,42.6,1.8,63.28,5.87,15.7,3.09,31.45,9.51,45.25,17.7,16.02,9.5,20.57,28.14,14.58,44.39-5.77,15.68-18.07,23.06-39.75,22.68Z"/>
      </g>
      <g>
        <g>
          <polygon class="cls-3" points="456.58 435.86 456.57 435.86 456.57 435.86 456.57 435.86 445.31 445.41 445.31 458.52 454.55 458.52 454.55 448.65 460.41 443.69 461.63 443.69 461.63 435.86 456.58 435.86"/>
          <polygon class="cls-3" points="489.86 450.01 489.86 439.81 485.21 435.86 475.52 435.86 475.52 443.69 480.63 443.69 480.63 450.01 478.56 450.01 478.56 453.67 491.94 453.67 491.94 450.01 489.86 450.01"/>
          <polygon class="cls-3" points="478.56 481.88 480.51 481.88 480.51 486.6 460.41 486.6 454.55 481.63 454.55 470.3 445.31 470.3 445.31 484.88 456.57 494.42 456.57 494.43 456.58 494.43 485.21 494.43 489.86 490.48 489.74 481.88 491.94 481.88 491.94 478.22 478.56 478.22 478.56 481.88"/>
        </g>
        <polygon class="cls-3" points="463.66 468.45 424 468.45 424 430.22 422.34 430.22 422.34 426.56 431.91 426.56 431.91 430.22 430.61 430.22 430.61 460.62 460.91 460.62 465.11 455.66 465.11 422.68 460.91 417.71 458.05 417.71 428.73 417.71 425.22 417.71 425.22 419.89 422.12 419.89 422.12 417.71 422.12 409.88 422.12 408.54 425.22 408.54 425.22 409.88 463.66 409.88 471.71 419.44 471.71 458.9 463.66 468.45"/>
      </g>
    </g>
  </g>
</svg>