<?xml version="1.0" encoding="UTF-8"?>
<svg id="Layer_2" data-name="Layer 2" xmlns="http://www.w3.org/2000/svg" viewBox="0 0 900.52 960.06">
  <defs>
    <style>
      .cls-1 {
        fill: #113525;
      }

      .cls-2 {
        fill: #fff;
      }

      .cls-3 {
        fill: #ba9f6c;
      }
    </style>
  </defs>
  <g id="Logos">
    <g>
      <path class="cls-3" d="M416.97,936.78c-.34-.17-.75-.37-1.21-.6-6.03-2.97-19.59-9.65-31.99-19.52-5.8,2.71-9.91,4.4-11.03,4.85l-91.63,36.96,10.27-53.55-32.3,3.84,12.2-38.45-77.79-75.86-19.31,58.5-76.36-136-12.68-74.43-53.78,32.81,30.12-151.17-61.48-.98,86.39-73.12c27.96-23.66,40.09-37.7,44.71-43.73l11.53-25.33,3.27-10.11c-45.83-13.81-75.68-31.33-93.09-54.44-26.67-35.39-34.16-77.82-19.53-110.75,8.92-20.16,41.92-45.83,80.92-74.86,7.46-5.55,15.9-11.84,18.02-13.8,18.69-20.34,17.73-50.28,17.67-51.55L145.54,0l63.99,35.05c3.49,1.91,27.06,17.16,47.95,38.78,28.14,29.13,36.84,54.49,37.43,74.14,17.08-11.13,35.7-19.99,55.73-26.5l-1.04-15.66,100.67-32.47,101.1,32.58-1.27,15.62c19.95,6.51,38.5,15.34,55.52,26.44.59-19.65,9.29-45.01,37.43-74.14,20.89-21.62,44.46-36.86,47.93-38.77L754.98,0l-4.35,65.5c-.05,1.31-1,31.21,17.67,51.55,2.12,1.96,10.56,8.25,18.02,13.8,38.99,29.03,72,54.7,80.93,74.89,14.62,32.9,7.13,75.33-19.54,110.72-17.42,23.11-47.26,40.62-93.1,54.44l3.27,10.11,11.53,25.33c4.62,6.03,16.76,20.08,44.71,43.73l86.4,73.12-61.48.98,30.12,151.17-53.78-32.81-12.68,74.43-76.37,136-19.3-58.5-77.79,75.86,12.2,38.45-32.3-3.84,10.27,53.55-91.64-36.97c-.7-.28-4.93-2.01-11.02-4.86-12.41,9.88-25.97,16.56-32,19.53-.47.23-.88.43-1.21.6l-33.29,23.28-33.29-23.28Z"/>
      <path class="cls-1" d="M801.21,465.33c-30.95-26.19-44-41.69-49.11-48.78l-12.89-28.31-10.04-31.07c55.94-14.19,86.49-31.42,102.58-52.77,22.3-29.59,28.9-64.3,17.22-90.58-10.56-23.87-87.36-74.6-95.15-82.99-25.44-27.43-23.18-66.15-23.15-66.54l1.94-29.24-32.01,17.53c-2.56,1.4-88.12,55.47-73.34,110.44,5.06,18.81,11.21,17.71,1,26.75-.39.35-.79.67-1.19,1-23.12-22.72-54.94-43.6-98.23-54.59l1.18-14.55-79.75-27.81-79.57,27.76.97,14.61c-43.28,10.99-75.09,31.87-98.2,54.58-.4-.32-.8-.65-1.19-1-10.22-9.04-4.06-7.95,1-26.75,14.78-54.97-70.78-109.03-73.34-110.44l-32.01-17.53,1.94,29.24c.03.39,2.29,39.11-23.15,66.54-7.78,8.39-84.58,59.12-95.15,82.99-11.68,26.29-5.08,61,17.22,90.58,16.09,21.34,46.64,38.58,102.58,52.77l-10.04,31.07-12.89,28.31c-5.12,7.09-18.17,22.59-49.11,48.78l-45.73,38.71,30.79.49c-.34.74-.68,11.34-1,12.09l-23.49,117.89,40.02-24.41,17.05,100.1,52.46,93.42,15.12-45.82,101.13,98.63v-26.14l12.77,10.46c1.11,3.13,1.19,6.41.2,9.54l-11.1,34.97,28.65-3.4-8.51,44.35,57.6-23.23c.58-.24,10.13-4.09,21.91-10.35,14.14,15.69,38.4,25.78,40.35,27.14l22.74,15.9,22.74-15.9c1.95-1.36,26.21-11.44,40.35-27.14,11.78,6.26,21.33,10.11,21.91,10.35l57.6,23.23-8.51-44.35,28.64,3.4-11.1-34.97c-.99-3.13-.91-6.41.2-9.54l12.77-10.46v26.14l101.13-98.63,15.12,45.82,52.46-93.42,17.05-100.1,40.02,24.41-23.49-117.89c-.32-.75-.65-11.35-1-12.09l30.79-.49-45.73-38.71Z"/>
      <path class="cls-3" d="M387.24,427.49l-21.07-25.91c-9.97-12.26-25.49-21.57-43.87-26.33l-11.94-3.09,7.77,16.7-7.77-1.7-11.65-22.16,1.04,18.75-32.2-16.19-40.27-8.81s8.85,5.04,16,13.41c-12.64-3.76-20.66-6.03-20.66-6.03v16.72c0,9.85,6.37,19.12,17.18,25l27.75,15.09s-18.79-25.56-19.31-46.02c36.24,39.58,96.29,53.4,96.29,53.4,0,0-12.17-14.39-23.3-25.56,22.26,2.08,66,22.72,66,22.72Z"/>
      <path class="cls-3" d="M513.29,427.49l21.07-25.91c9.97-12.26,25.49-21.57,43.87-26.33l11.94-3.09-7.77,16.7,7.77-1.7,11.65-22.16-1.04,18.75,32.2-16.19,40.27-8.81s-8.85,5.04-16,13.41c12.64-3.76,20.66-6.03,20.66-6.03v16.72c0,9.85-6.37,19.12-17.18,25l-27.75,15.09s18.79-25.56,19.31-46.02c-36.24,39.58-96.29,53.4-96.29,53.4,0,0,12.17-14.39,23.3-25.56-22.26,2.08-66,22.72-66,22.72Z"/>
      <path class="cls-3" d="M279,632.68c24.32-40.44,68.85-83.05,68.85-83.05l-4.66,12.5s44.8-22.35,70.68-31.44l-28.75,21.59,56.7-18.56s5.06,21.62-2.07,28.41c-20.71,12.5-98.12,53.13-98.12,53.13l27.95-3.03s-29.71,16.38-50.21,34.84c-13.46,12.12-20.19,39.39-20.19,39.39,16.05-21.59,33.65-32.19,33.65-32.19,0,0-28.47,48.86,3.62,101.12-5.69-28.78,1.55-41.28,1.55-41.28,11.16,28.03,30.24,53.24,44.22,69.39,10.34,11.95,10.91,27.06,1.57,39.45l-11.61,15.39,5.69-25.38-28.47,22.72h0c10.17-14.17,11.28-30.9,3.02-45.72l-3.02-5.41-.52,10.23s-25.37-13.63-52.8-53.02c-7.05,1.03-6.73,20.45-6.73,20.45,0,0-28.03-48.95-32.1-66.28-1.56-6.62-1.46-23.99-1.09-35.84.13-4.09-10.35.77-10.17-2.64,0,0,26.44-17.29,33-24.77Z"/>
      <path class="cls-3" d="M621.52,632.68c-24.32-40.44-68.85-83.05-68.85-83.05l4.66,12.5s-44.8-22.35-70.68-31.44l28.75,21.59-56.7-18.56s-5.06,21.62,2.07,28.41c20.71,12.5,98.12,53.13,98.12,53.13l-27.95-3.03s29.71,16.38,50.21,34.84c13.46,12.12,20.19,39.39,20.19,39.39-16.05-21.59-33.65-32.19-33.65-32.19,0,0,28.47,48.86-3.62,101.12,5.69-28.78-1.55-41.28-1.55-41.28-11.16,28.03-30.24,53.24-44.22,69.39-10.34,11.95-10.91,27.06-1.57,39.45l11.61,15.39-5.69-25.38,28.47,22.72h0c-10.17-14.17-11.28-30.9-3.02-45.72l3.02-5.41.52,10.23s25.37-13.63,52.8-53.02c7.05,1.03,6.73,20.45,6.73,20.45,0,0,28.03-48.95,32.1-66.28,1.56-6.62,1.46-23.99,1.09-35.84-.13-4.09,10.35.77,10.17-2.64,0,0-26.44-17.29-33-24.77Z"/>
      <path class="cls-3" d="M240.23,645.3c2.54-6.38,17.01-14.65,23.13-23.32,12.17-17.23,16.7-60.55,16.7-60.55l-26.63,33,14.12-59s-28.8,10.79-52.48,32.95c17.67-36.18,52.48-65.38,52.48-65.38,0,0-32.29,11.4-58.69,30.15,1.94-7.67,5.44-17.61,5.44-17.61,0,0-26.4,15.15-39.54,42.53,10.81-56.44,62.08-84.27,62.08-84.27,0,0-3.13-3.42-18.43-.86,22.68-16.76,49.15-30.11,49.15-30.11,0,0-64.52,16.76-111.5,53.97-12.55,9.94-31.84,48.86-31.84,48.86l21.74-14.96-9.32,29.16,9.32-4.54s-4.88,56.68-3.11,68.9c1.29,8.85,12.42,34.42,12.42,34.42,0,0,12.04-36.93,23.3-61.92-6.21,82.09,34.94,123.28,34.94,123.28l4.66-17.61s11.25,25.63,34.57,46.59c-22.92-51.98-25.68-90.65-25.68-90.65-.36-9.75-3.85-19.27,9.54-38.88-1.17,5.92,3.63,25.88,3.63,25.88Z"/>
      <path class="cls-3" d="M660.29,645.3c-2.54-6.38-17.01-14.65-23.13-23.32-12.17-17.23-16.7-60.55-16.7-60.55l26.63,33-14.12-59s28.8,10.79,52.48,32.95c-17.67-36.18-52.48-65.38-52.48-65.38,0,0,32.29,11.4,58.69,30.15-1.94-7.67-5.44-17.61-5.44-17.61,0,0,26.4,15.15,39.54,42.53-10.81-56.44-62.08-84.27-62.08-84.27,0,0,3.13-3.42,18.43-.86-22.68-16.76-49.15-30.11-49.15-30.11,0,0,64.52,16.76,111.5,53.97,12.55,9.94,31.84,48.86,31.84,48.86l-21.74-14.96,9.32,29.16-9.32-4.54s4.88,56.68,3.11,68.9c-1.29,8.85-12.42,34.42-12.42,34.42,0,0-12.04-36.93-23.3-61.92,6.21,82.09-34.94,123.28-34.94,123.28l-4.66-17.61s-11.25,25.63-34.57,46.59c22.92-51.98,25.68-90.65,25.68-90.65.36-9.75,3.85-19.27-9.54-38.88,1.17,5.92-3.63,25.88-3.63,25.88Z"/>
      <path class="cls-3" d="M663.93,436.01c7.77-9.09,22.52-5.68,22.52-5.68l47.37,36.36s-48.14-10.79-69.89-30.68Z"/>
      <path class="cls-3" d="M236.6,436.01c-7.77-9.09-22.52-5.68-22.52-5.68l-47.37,36.36s48.14-10.79,69.89-30.68Z"/>
      <path class="cls-2" d="M377.88,488.28c-6.85.12-13.32-.2-19.47-.82-8.72,2.3-23.34,5.22-44.43,6.5,6.41-4.83,7.77-9.66,7.77-9.66-17.86-3.21-31.84-2.84-31.84-2.84,0,0,11.06-6.03,19.64-7.64-19.49-9.44-29.5-20.01-29.5-20.01,0,0-9.24,21-6.21,27.65,4.19,9.21,27.44,20.64,38.31,26.89-4.14,4.54-7.2,10.98-7.2,10.98h26.36c-17.41,10.56-30.02,31.06-30.02,31.06,0,0,26.19-18.91,37.11-22.72,9.08-3.17,39.51-5.68,39.51-5.68,0,0-13.98-5.3-25.37-5.3,25.37-9.47,25.37-28.41,25.37-28.41Z"/>
      <path class="cls-2" d="M521.6,488.28c6.85.12,13.32-.2,19.47-.82,8.72,2.3,23.34,5.22,44.43,6.5-6.41-4.83-7.77-9.66-7.77-9.66,17.86-3.21,31.84-2.84,31.84-2.84,0,0-11.06-6.03-19.64-7.64,19.49-9.44,29.5-20.01,29.5-20.01,0,0,9.24,21,6.21,27.65-4.19,9.21-27.44,20.64-38.31,26.89,4.14,4.54,7.2,10.98,7.2,10.98h-26.36c17.41,10.56,30.02,31.06,30.02,31.06,0,0-26.19-18.91-37.11-22.72-9.08-3.17-39.51-5.68-39.51-5.68,0,0,13.98-5.3,25.37-5.3-25.37-9.47-25.37-28.41-25.37-28.41Z"/>
      <path class="cls-2" d="M580.46,452.24c3.59-1.72,1.51-4.7-3.01-4.32-14,1.18-30.02.02-36.39,2.19-4.16,1.42-15.34,10.01-19,13.02-1.1.9-.09,2,1.79,1.94,8.45-.26,27.22-1.03,33.96-2.98,4.33-1.25,14.58-5.98,22.66-9.85Z"/>
      <path class="cls-2" d="M319.01,452.24c-3.59-1.72-1.51-4.7,3.01-4.32,14,1.18,30.02.02,36.39,2.19,4.16,1.42,15.34,10.01,19,13.02,1.1.9.09,2-1.79,1.94-8.45-.26-27.22-1.03-33.96-2.98-4.33-1.25-14.58-5.98-22.66-9.85Z"/>
      <path class="cls-2" d="M449.85,604.66c-10,0-19.35,0-27.31.3l-1.19,7.08-2.82-6.9c-12.88.72-31.33,2.5-31.33,6.9,0,4.08,33.64,7.39,62.66,7.39,12.51,0,23.99-.62,33.01-1.64l1.3-7.73,2.94,7.2c9.45-1.34,25.4-3.18,25.4-5.21,0-7.39-33.64-7.39-62.66-7.39Z"/>
      <g>
        <g>
          <g>
            <path class="cls-3" d="M450.26,370.89c47.22,0,213.44-45.47,213.44-45.47,0,0-31.5-167.65-213.44-167.65s-213.44,167.65-213.44,167.65c0,0,163.8,45.47,213.44,45.47Z"/>
            <g>
              <path class="cls-1" d="M450.26,411.74c-48.22,0-218.59-46.1-236.7-51.35l-9.7-2.81,9.35-40.78,9.7,2.81c47.96,13.91,190.6,50.02,227.35,50.02s179.39-36.11,227.35-50.02l9.7-2.81,9.35,40.78-9.7,2.81c-18.11,5.26-188.48,51.35-236.7,51.35Z"/>
              <path class="cls-3" d="M450.26,391.94c-47.6,0-226.66-48.86-233.83-50.94l3.6-11.89c1.74.5,184.45,50.43,230.23,50.43s228.49-49.93,230.22-50.43l3.6,11.89c-7.17,2.08-186.23,50.94-233.82,50.94Z"/>
            </g>
            <path class="cls-1" d="M355.1,192.33c-66.02,25.43-93.93,108.65-93.57,122.99,9.7,3.17,44.57,12.52,44.57,12.52,0-62.24,49.01-135.51,49.01-135.51Z"/>
            <path class="cls-1" d="M545.42,192.33c66.02,25.43,93.93,108.65,93.57,122.99-9.7,3.17-44.57,12.52-44.57,12.52,0-62.24-49.01-135.51-49.01-135.51Z"/>
          </g>
          <polygon class="cls-1" points="528.27 132.94 450.26 107.02 372.26 132.94 406.14 462.03 379.1 499.68 450.26 534.16 516.3 499.68 489.26 462.03 528.27 132.94"/>
          <polygon class="cls-3" points="450.26 512.6 498.22 490.45 477.2 453.73 497.71 144.1 450.26 124.52 402.81 144.1 423.33 453.73 402.31 490.45 450.26 512.6"/>
          <g>
            <g>
              <polygon class="cls-1" points="450.2 447.89 461.85 459.64 448.98 472.54 444.91 468.37 453.59 459.56 450.43 456.25 450.15 456.19 446.81 459.56 449.25 462.11 445.19 466.18 438.55 459.54 450.2 447.89"/>
              <path class="cls-1" d="M461.85,487.48l-11.63,11.49-11.67-11.65,12.98-12.88,3.87,3.84.09.32-8.64,8.89,3.35,3.35,3.38-3.42c.08-.4-2.15-2.07-2.32-2.65l3.97-3.97,6.61,6.68Z"/>
              <polygon class="cls-1" points="445.02 478.78 436.37 469.97 432.86 473.49 436.28 476.88 438.93 474.44 442.88 478.52 436.37 485.14 424.72 473.33 436.36 461.84 449.25 474.71 445.02 478.78"/>
              <polygon class="cls-1" points="475.8 473.54 464.15 485.14 451.27 472.16 455.22 468.08 464.2 476.84 467.44 473.6 467.5 473.32 464.15 469.97 461.58 472.54 457.52 468.45 464.13 461.84 475.8 473.54"/>
            </g>
            <g>
              <polygon class="cls-1" points="450.2 348.53 463.28 361.73 448.82 376.22 444.25 371.54 454 361.65 450.45 357.92 450.14 357.86 446.38 361.64 449.13 364.51 444.56 369.08 437.1 361.62 450.2 348.53"/>
              <path class="cls-1" d="M463.28,393.01l-13.07,12.91-13.11-13.09,14.58-14.47,4.35,4.31.1.36-9.71,9.99,3.77,3.76,3.8-3.84c.09-.45-2.41-2.32-2.6-2.97l4.46-4.46,7.43,7.5Z"/>
              <polygon class="cls-1" points="444.37 383.24 434.66 373.34 430.71 377.29 434.55 381.1 437.53 378.36 441.97 382.95 434.66 390.38 421.57 377.11 434.64 364.2 449.13 378.67 444.37 383.24"/>
              <polygon class="cls-1" points="478.96 377.35 465.86 390.38 451.4 375.8 455.84 371.21 465.92 381.06 469.57 377.42 469.63 377.1 465.86 373.34 462.98 376.22 458.42 371.63 465.85 364.2 478.96 377.35"/>
            </g>
            <g>
              <g>
                <polygon class="cls-1" points="439.93 309.66 440.19 351.46 450.21 341.44 460.54 351.86 460.81 309.42 450.19 319.91 439.93 309.66"/>
                <polygon class="cls-1" points="459.92 450.58 460.22 403.06 450.2 412.96 440.52 403.3 440.82 450.21 450.22 440.8 459.92 450.58"/>
                <polygon class="cls-1" points="439.34 216.03 439.57 252.72 450.21 242.08 461.16 253.14 461.4 215.78 450.19 226.86 439.34 216.03"/>
              </g>
              <polygon class="cls-1" points="450.19 249.17 464.72 263.82 448.66 279.9 443.59 274.71 454.41 263.73 450.47 259.59 450.12 259.52 445.96 263.72 449.01 266.9 443.93 271.98 435.66 263.7 450.19 249.17"/>
              <path class="cls-1" d="M464.71,298.53l-14.5,14.33-14.55-14.53,16.18-16.05,4.83,4.78.12.4-10.77,11.08,4.18,4.17,4.22-4.26c.1-.5-2.68-2.58-2.89-3.3l4.95-4.95,8.25,8.32Z"/>
              <polygon class="cls-1" points="443.73 287.7 432.94 276.71 428.56 281.09 432.82 285.32 436.13 282.28 441.06 287.37 432.94 295.62 418.42 280.89 432.92 266.56 449.01 282.62 443.73 287.7"/>
              <polygon class="cls-1" points="482.11 281.16 467.58 295.62 451.52 279.44 456.45 274.34 467.65 285.27 471.69 281.23 471.76 280.88 467.58 276.71 464.38 279.9 459.31 274.81 467.56 266.56 482.11 281.16"/>
            </g>
            <g>
              <polygon class="cls-1" points="450.18 149.81 466.15 165.92 448.5 183.59 442.93 177.88 454.82 165.81 450.49 161.26 450.11 161.19 445.53 165.8 448.88 169.3 443.3 174.88 434.21 165.78 450.18 149.81"/>
              <path class="cls-1" d="M466.14,204.06l-15.94,15.75-15.99-15.96,17.78-17.64,5.3,5.26.13.43-11.84,12.18,4.59,4.58,4.64-4.68c.11-.54-2.94-2.83-3.18-3.63l5.44-5.44,9.06,9.15Z"/>
              <polygon class="cls-1" points="443.08 192.15 431.23 180.08 426.42 184.89 431.1 189.54 434.73 186.2 440.14 191.79 431.23 200.86 415.26 184.67 431.21 168.93 448.88 186.57 443.08 192.15"/>
              <polygon class="cls-1" points="485.26 184.96 469.29 200.86 451.65 183.08 457.06 177.48 469.37 189.49 473.81 185.05 473.89 184.66 469.29 180.08 465.78 183.59 460.21 177.99 469.27 168.93 485.26 184.96"/>
            </g>
          </g>
        </g>
        <path class="cls-2" d="M227.72,265.54c-14.83-3.75-25.64-11.38-26.05-11.66.28.43,8.21,11.96,20.59,23.9-6.8,16.37-10.77,30.71-13,40.49-1.02-9.02-1.56-25.38-3.56-26.14-30.49-11.6-86.27-42.94-44.73-108.01-22.58,21.47-34.46,39.55-34.82,57.82-.52,26.8,19.64,51.25,33.3,64.83-16.56-7.38-31.69-15.27-37.72-21.65-22.3-23.6-27.45-50.02-20.99-63.92,7.17-15.47,69.59-59.5,78.63-70.16,4.06-4.77,14.87-20.06,14.87-20.06l2.81,10.04c5.53-7.3,10.82-31.26,14.08-38.59,4.96,6.21,8.74,29.28,10.23,35.98,2.13,9.58-3.46,26.15-5.09,32.17-5.3,14.78-12.03,35.22-12.33,44.34-.3,9.24,8.19,33.52,8.19,33.52,0,0,.47-12.72,6.82-23.46,4.32,3.15,7.89,6.22,10.75,8.95,3.1,2.95,7.37,5.05,12.11,6.12-5.48,8.64-10.14,17.23-14.09,25.49Z"/>
        <path class="cls-2" d="M778.79,285.12c-6.02,6.39-21.16,14.28-37.72,21.65,13.67-13.58,33.83-38.03,33.3-64.83-.35-18.27-12.24-36.35-34.82-57.82,41.54,65.07-14.24,96.4-44.73,108.01-2,.76-2.53,17.11-3.55,26.13-2.23-9.78-6.21-24.12-13-40.48,12.38-11.94,20.31-23.47,20.59-23.9-.41.29-11.24,7.91-26.06,11.65-3.94-8.26-8.6-16.85-14.09-25.48,4.73-1.07,9-3.17,12.11-6.12,2.86-2.73,6.44-5.8,10.75-8.95,6.35,10.74,6.82,23.46,6.82,23.46,0,0,8.49-24.29,8.2-33.52-.29-9.12-7.03-29.55-12.34-44.34-1.63-6.02-7.22-22.58-5.09-32.17,1.5-6.7,5.29-29.77,10.23-35.98,3.26,7.34,8.55,31.3,14.09,38.59l2.8-10.04s10.81,15.29,14.87,20.06c9.05,10.65,71.46,54.68,78.63,70.16,6.45,13.9,1.3,40.32-20.99,63.92Z"/>
      </g>
      <g>
        <path class="cls-3" d="M477.87,740.8s-8.49,7.56-10.91,9.73c-5.8,5.2-29.52,24.98-29.52,24.98,0,0,14.97-5.85,23.41-12.35l-2,10.41s7.3-5.97,10.02-13.33c1.61,8.01.58,13.33.58,13.33h3.59c2.23-1.61.9-21.14.9-21.14l3.92-11.63Z"/>
        <g>
          <polygon class="cls-2" points="479.45 810.4 450.28 811.38 421.11 810.4 423.26 799.83 421.11 789.26 450.28 788.28 479.45 789.26 477.3 799.83 479.45 810.4"/>
          <polygon class="cls-2" points="479.39 785.81 450.28 784.83 421.17 785.81 421.05 782.86 450.28 781.87 479.51 782.86 479.39 785.81"/>
        </g>
        <polygon class="cls-3" points="487.49 625.43 455.92 635.49 450.17 631.51 443.87 635.95 443.71 635.95 443.78 636.02 443.71 636.07 440.31 643.23 445.29 640.3 450.17 649.52 454.54 640.3 458.98 643.23 462.22 640.86 487.49 625.43"/>
        <path class="cls-3" d="M451.38,858.13c-1.34-4.98-2.05-7.54-2.44-9.37,0,0-4.24-12.29-4.68-29.93-5.73,7-9.41,19.5-9.41,19.5,0,0-1.79-13.34,3.02-21.78-6.88,1.28-12.35,7.23-12.95,14.81,0,.07-.01.13-.02.2l-.19-.51-2.27,19.53,3.24-2.2c2.02,12.17,7.62,26.98,20.71,42.98-.09-1.1,8.98-18.3,4.97-33.23Z"/>
        <path class="cls-3" d="M482.16,846.68l-5.42-17.02c-2.62-8.77-9.41-12.13-17.61-12.94,3.16,6.64,1.89,16.17,1.89,16.17,0,0-3.06-10.41-7.8-15.81-.78,4.09-1.13,10.62.98,20.73,1.44,6.89,4.15,13.44,7.96,19.26,2.29,3.5,4,6.25,4.03,9.04.03,2.97-.44,5.93-.68,8.9,11.01-5.91,15.95-16.41,14.06-29.35l2.58,1.03Z"/>
        <path class="cls-3" d="M493.58,638.66s-11.95,9.33-15.55,12.05c-3.72,2.81-11.36,7.6-18.53,11.94-5.25,3.18-6.89,10.97-6.89,10.97,0,0-2.51,1.87-6.08-1.15-.16,1.36.36,2.77,1.58,3.85l10.56,9.36-1.37-3.27c-.84-1.99-.07-4.23,1.85-5.45,0,0,18.87-6.12,28.93-17.57.94-1.07,3.28-5.77,3.15-7.14l-2.84,3.46c-.25-2.6,1.22-5.21,2.06-7.72l3.12-9.35Z"/>
        <path class="cls-3" d="M488.12,673.59s-10.41,8.55-13.49,11.04c-3.12,2.51-9.46,6.69-15.59,10.59-4.93,3.14-7.4,5.34-6.42,10.46,0,0-2.45,1.9-5.96-1.04-.3,1.42.12,2.94,1.36,4.12l10.15,9.59-1.4-3.51c-.77-1.93-.05-4.09,1.78-5.31,0,0,15.39-4.33,24.47-15.61.83-1.03,3.52-5.22,3.42-6.49l-3.26,3.02c-.27-3.89,1.49-7.79,2.9-11.51l2.03-5.36Z"/>
        <path class="cls-3" d="M483.22,709.06s-9.96,8.25-12.92,10.62c-2.13,1.71-6.03,4.3-10.2,6.95-5.74,3.64-9.39,11.08-9.39,11.08,0,0-.7,3.38-4.37.24.08,1.01.53,2,1.37,2.84l10.07,9.97-2.16-5.67c-.74-1.93,0-4.07,1.83-5.28,0,0,13.05-3.47,21.07-13.21.85-1.03,2.84-4.52,2.7-5.8l-2.63,2.29c-.29-2.55,1.22-5.13,2.16-7.57l2.48-6.44Z"/>
        <polyline class="cls-2" points="435.85 719.66 442.22 718.22 435.85 732.11"/>
        <path class="cls-3" d="M437.89,683.58c-5.24-3.05-12.55-7.42-15.49-9.77-2.77-2.21-22.19-10.04-22.19-10.04l12.56,6.92c1.02,2.89,2.66,5.9,2.56,8.91l-14.41-3.73c.26,2.79,16.36,9.05,19.02,10.63l10.7,7.07c1.74,1.04,1.54,7.86,1.54,7.86,5.04-2.54,10.04-18.84,10.04-18.84l-4.33.98Z"/>
        <path class="cls-3" d="M437.45,651.05c-6.38-3.61-16.05-9.22-19.88-12.15-2.94-2.25-22.95-10.2-22.95-10.2l2.24,5.96c1.48,3.94,3.29,8.07,3.04,12.2l-2.84-1.83c-.01,1.3,3.42,4.37,4.46,5.25,3.22,2.73,19.67,8.56,27.1,10.53,2.35.62,2.65,8.18,2.65,8.18l.16-.2-.04.2c5.04-2.54,10.04-18.84,10.04-18.84l-3.97.9Z"/>
        <path class="cls-3" d="M435.85,717.48c-3.57-2.07-7.43-4.41-9.22-5.84-2.54-2.02-11.1-9.36-11.1-9.36l3.14,7.94c.56,1.42,1.79,2.94,1.33,4.38l-2.21-1.93c.22,2.9,4.14,7.48,6.83,9.07l6.76,4.7c1.74,1.03,1.16,9.9,1.16,9.9,0,0,.06-.11.17-.31l-.05.31c5.04-2.54,9.58-20.29,9.58-20.29l-6.37,1.44Z"/>
        <path class="cls-3" d="M438.7,747.83c-3.23-1.89-7.03-4.22-8.66-5.65-2.11-1.84-9.47-8.63-9.47-8.63l3.36,8.83c.41,1.07.4,2.22-.02,3.28h1.17c.23,2.86,4.77,13.45,4.77,13.45l-3.59,16.4,7.73-10.15v.05c5.03-2.54,9.57-18.68,9.57-18.68l-4.87,1.1Z"/>
      </g>
    </g>
  </g>
</svg>