<?xml version="1.0" encoding="UTF-8"?>
<svg id="Layer_2" data-name="Layer 2" xmlns="http://www.w3.org/2000/svg" viewBox="0 0 870 1000">
  <defs>
    <style>
      .cls-1 {
        fill: #113525;
      }

      .cls-2 {
        fill: #fff;
      }

      .cls-3 {
        fill: #ba9f6c;
      }
    </style>
  </defs>
  <g id="Logos">
    <g>
      <path class="cls-3" d="M402.84,975.75c-.33-.18-.72-.38-1.17-.62-5.82-3.09-18.92-10.05-30.91-20.33-5.6,2.83-9.57,4.58-10.66,5.06l-88.53,38.5,9.92-55.77-31.2,4,11.79-40.05-75.15-79.02-18.65,60.94-73.78-141.66-12.25-77.53-51.96,34.18,29.1-157.46-59.4-1.02,83.47-76.16c27.01-24.64,38.73-39.27,43.2-45.55l11.14-26.38,3.16-10.53c-44.28-14.39-73.11-32.64-89.94-56.7-25.77-36.86-33-81.06-18.87-115.35,8.62-20.99,40.5-47.74,78.18-77.97,7.21-5.79,15.36-12.33,17.41-14.38,18.06-21.19,17.13-52.37,17.08-53.69L140.61,0l61.82,36.51c3.37,1.99,26.15,17.87,46.32,40.39,27.19,30.34,35.59,56.76,36.16,77.22,16.5-11.6,34.49-20.82,53.84-27.6l-1.01-16.31,97.25-33.83,97.67,33.93-1.23,16.27c19.27,6.78,37.19,15.98,53.64,27.54.57-20.47,8.97-46.88,36.16-77.23,20.18-22.52,42.95-38.4,46.31-40.38L729.39,0l-4.2,68.22c-.05,1.36-.97,32.51,17.08,53.69,2.05,2.05,10.2,8.59,17.41,14.38,37.67,30.24,69.56,56.98,78.19,78,14.12,34.27,6.89,78.47-18.88,115.32-16.83,24.07-45.66,42.32-89.94,56.7l3.16,10.53,11.14,26.38c4.46,6.29,16.19,20.91,43.2,45.55l83.47,76.16-59.4,1.02,29.1,157.46-51.96-34.18-12.25,77.53-73.78,141.66-18.65-60.94-75.15,79.02,11.79,40.05-31.2-4,9.92,55.77-88.53-38.5c-.67-.29-4.77-2.09-10.65-5.06-11.98,10.29-25.09,17.25-30.91,20.34-.45.24-.85.45-1.17.62l-32.16,24.25-32.16-24.25Z"/>
      <path class="cls-1" d="M774.05,484.69c-29.9-27.28-42.5-43.42-47.45-50.81l-12.45-29.49-9.7-32.36c54.04-14.78,83.55-32.73,99.1-54.96,21.55-30.82,27.92-66.97,16.64-94.35-10.2-24.86-84.4-77.7-91.92-86.44-24.58-28.57-22.39-68.9-22.37-69.31l1.88-30.46-30.93,18.26c-2.47,1.46-85.14,57.78-70.85,115.03,4.89,19.59,10.83,18.45.96,27.87-.38.36-.77.7-1.15,1.04-22.34-23.66-53.07-45.41-94.9-56.86l1.14-15.16-77.05-28.97-76.87,28.92.94,15.22c-41.81,11.45-72.54,33.19-94.87,56.85-.39-.34-.77-.68-1.15-1.04-9.87-9.42-3.92-8.28.96-27.87,14.28-57.25-68.38-113.57-70.85-115.03l-30.93-18.26,1.88,30.46c.03.41,2.21,40.74-22.37,69.31-7.52,8.74-81.72,61.58-91.92,86.44-11.28,27.38-4.91,63.53,16.64,94.35,15.55,22.23,45.06,40.18,99.1,54.96l-9.7,32.36-12.45,29.49c-4.94,7.38-17.55,23.53-47.45,50.81l-44.18,40.32,29.75.51c-.33.77-.65,11.82-.96,12.6l-22.69,122.79,38.66-25.43,16.47,104.26,50.68,97.31,14.61-47.73,97.7,102.73v-27.22l12.33,10.9c1.07,3.26,1.15,6.68.19,9.94l-10.72,36.43,27.67-3.54-8.22,46.2,55.65-24.2c.56-.24,9.79-4.26,21.17-10.78,13.66,16.35,37.1,26.85,38.98,28.26l21.97,16.56,21.97-16.56c1.88-1.41,25.32-11.92,38.98-28.26,11.38,6.52,20.61,10.53,21.17,10.78l55.65,24.2-8.22-46.2,27.67,3.54-10.72-36.43c-.96-3.26-.88-6.68.19-9.94l12.33-10.9v27.22l97.7-102.73,14.61,47.73,50.68-97.31,16.47-104.26,38.66,25.43-22.69-122.79c-.31-.78-.63-11.82-.96-12.6l29.75-.51-44.18-40.32Z"/>
      <path class="cls-3" d="M374.11,445.27l-20.36-26.99c-9.63-12.77-24.62-22.47-42.38-27.42l-11.53-3.22,7.5,17.39-7.5-1.78-11.25-23.08,1,19.53-31.11-16.86-38.91-9.17s8.55,5.25,15.46,13.97c-12.21-3.91-19.96-6.28-19.96-6.28v17.42c0,10.26,6.16,19.92,16.6,26.04l26.81,15.72s-18.15-26.63-18.65-47.93c35.01,41.22,93.02,55.62,93.02,55.62,0,0-11.75-14.99-22.51-26.63,21.51,2.17,63.77,23.67,63.77,23.67Z"/>
      <path class="cls-3" d="M495.89,445.27l20.36-26.99c9.63-12.77,24.62-22.47,42.38-27.42l11.53-3.22-7.5,17.39,7.5-1.78,11.25-23.08-1,19.53,31.11-16.86,38.91-9.17s-8.55,5.25-15.46,13.97c12.21-3.91,19.96-6.28,19.96-6.28v17.42c0,10.26-6.16,19.92-16.6,26.04l-26.81,15.72s18.15-26.63,18.65-47.93c-35.01,41.22-93.02,55.62-93.02,55.62,0,0,11.75-14.99,22.51-26.63-21.51,2.17-63.77,23.67-63.77,23.67Z"/>
      <path class="cls-3" d="M269.54,659c23.49-42.12,66.52-86.51,66.52-86.51l-4.5,13.02s43.28-23.28,68.29-32.74l-27.77,22.49,54.78-19.33s4.89,22.52-2,29.59c-20.01,13.02-94.79,55.34-94.79,55.34l27.01-3.16s-28.7,17.06-48.51,36.29c-13,12.62-19.51,41.03-19.51,41.03,15.5-22.49,32.51-33.53,32.51-33.53,0,0-27.51,50.89,3.5,105.33-5.5-29.98,1.5-43,1.5-43,10.79,29.2,29.22,55.45,42.72,72.28,9.99,12.45,10.54,28.19,1.51,41.09l-11.22,16.03,5.5-26.43-27.51,23.67h0c9.83-14.76,10.9-32.19,2.91-47.62l-2.91-5.64-.5,10.65s-24.51-14.2-51.01-55.23c-6.81,1.07-6.5,21.3-6.5,21.3,0,0-27.08-50.99-31.01-69.04-1.5-6.89-1.41-24.99-1.05-37.33.12-4.26-10,.81-9.82-2.75,0,0,25.55-18.01,31.88-25.8Z"/>
      <path class="cls-3" d="M600.45,659c-23.49-42.12-66.52-86.51-66.52-86.51l4.5,13.02s-43.28-23.28-68.29-32.74l27.77,22.49-54.78-19.33s-4.89,22.52,2,29.59c20.01,13.02,94.79,55.34,94.79,55.34l-27.01-3.16s28.7,17.06,48.51,36.29c13,12.62,19.51,41.03,19.51,41.03-15.5-22.49-32.51-33.53-32.51-33.53,0,0,27.51,50.89-3.5,105.33,5.5-29.98-1.5-43-1.5-43-10.79,29.2-29.22,55.45-42.72,72.28-9.99,12.45-10.54,28.19-1.51,41.09l11.22,16.03-5.5-26.43,27.51,23.67h0c-9.83-14.76-10.9-32.19-2.91-47.62l2.91-5.64.5,10.65s24.51-14.2,51.01-55.23c6.81,1.07,6.5,21.3,6.5,21.3,0,0,27.08-50.99,31.01-69.04,1.5-6.89,1.41-24.99,1.05-37.33-.12-4.26,10,.81,9.82-2.75,0,0-25.55-18.01-31.88-25.8Z"/>
      <path class="cls-3" d="M232.09,672.15c2.45-6.65,16.43-15.26,22.35-24.29,11.76-17.94,16.14-63.07,16.14-63.07l-25.73,34.37,13.64-61.46s-27.82,11.24-50.7,34.32c17.07-37.69,50.7-68.09,50.7-68.09,0,0-31.2,11.88-56.7,31.41,1.88-7.99,5.25-18.34,5.25-18.34,0,0-25.51,15.78-38.2,44.29,10.44-58.79,59.97-87.78,59.97-87.78,0,0-3.02-3.56-17.81-.9,21.91-17.46,47.48-31.36,47.48-31.36,0,0-62.33,17.46-107.72,56.22-12.12,10.35-30.76,50.89-30.76,50.89l21.01-15.58-9,30.38,9-4.73s-4.72,59.04-3,71.76c1.24,9.22,12,35.85,12,35.85,0,0,11.63-38.46,22.51-64.5-6,85.51,33.76,128.41,33.76,128.41l4.5-18.34s10.87,26.69,33.4,48.52c-22.14-54.14-24.81-94.42-24.81-94.42-.35-10.16-3.72-20.07,9.22-40.5-1.13,6.17,3.51,26.95,3.51,26.95Z"/>
      <path class="cls-3" d="M637.91,672.15c-2.45-6.65-16.43-15.26-22.35-24.29-11.76-17.94-16.14-63.07-16.14-63.07l25.73,34.37-13.64-61.46s27.82,11.24,50.7,34.32c-17.07-37.69-50.7-68.09-50.7-68.09,0,0,31.2,11.88,56.7,31.41-1.88-7.99-5.25-18.34-5.25-18.34,0,0,25.51,15.78,38.2,44.29-10.44-58.79-59.97-87.78-59.97-87.78,0,0,3.02-3.56,17.81-.9-21.91-17.46-47.48-31.36-47.48-31.36,0,0,62.33,17.46,107.72,56.22,12.12,10.35,30.76,50.89,30.76,50.89l-21.01-15.58,9,30.38-9-4.73s4.72,59.04,3,71.76c-1.24,9.22-12,35.85-12,35.85,0,0-11.63-38.46-22.51-64.5,6,85.51-33.76,128.41-33.76,128.41l-4.5-18.34s-10.87,26.69-33.4,48.52c22.14-54.14,24.81-94.42,24.81-94.42.35-10.16,3.72-20.07-9.22-40.5,1.13,6.17-3.51,26.95-3.51,26.95Z"/>
      <path class="cls-3" d="M641.43,454.15c7.5-9.47,21.76-5.92,21.76-5.92l45.76,37.87s-46.51-11.24-67.52-31.95Z"/>
      <path class="cls-3" d="M228.58,454.15c-7.5-9.47-21.76-5.92-21.76-5.92l-45.76,37.87s46.51-11.24,67.52-31.95Z"/>
      <path class="cls-2" d="M365.07,508.59c-6.61.13-12.87-.2-18.81-.86-8.43,2.39-22.55,5.43-42.93,6.77,6.19-5.03,7.5-10.06,7.5-10.06-17.25-3.34-30.76-2.96-30.76-2.96,0,0,10.69-6.28,18.97-7.96-18.82-9.83-28.5-20.84-28.5-20.84,0,0-8.92,21.88-6,28.8,4.05,9.6,26.51,21.5,37.01,28.01-4,4.73-6.96,11.44-6.96,11.44h25.46c-16.82,11-29.01,32.35-29.01,32.35,0,0,25.3-19.7,35.85-23.67,8.78-3.31,38.17-5.92,38.17-5.92,0,0-13.5-5.52-24.51-5.52,24.51-9.86,24.51-29.59,24.51-29.59Z"/>
      <path class="cls-2" d="M503.92,508.59c6.61.13,12.87-.2,18.81-.86,8.43,2.39,22.55,5.43,42.93,6.77-6.19-5.03-7.5-10.06-7.5-10.06,17.25-3.34,30.76-2.96,30.76-2.96,0,0-10.69-6.28-18.97-7.96,18.82-9.83,28.5-20.84,28.5-20.84,0,0,8.92,21.88,6,28.8-4.05,9.6-26.51,21.5-37.01,28.01,4,4.73,6.96,11.44,6.96,11.44h-25.46c16.82,11,29.01,32.35,29.01,32.35,0,0-25.3-19.7-35.85-23.67-8.78-3.31-38.17-5.92-38.17-5.92,0,0,13.5-5.52,24.51-5.52-24.51-9.86-24.51-29.59-24.51-29.59Z"/>
      <path class="cls-2" d="M560.79,471.06c3.47-1.79,1.46-4.9-2.91-4.5-13.52,1.23-29,.02-35.16,2.28-4.02,1.48-14.82,10.43-18.36,13.56-1.06.94-.09,2.08,1.73,2.02,8.17-.27,26.29-1.08,32.81-3.1,4.18-1.3,14.09-6.23,21.89-10.26Z"/>
      <path class="cls-2" d="M308.2,471.06c-3.47-1.79-1.46-4.9,2.91-4.5,13.52,1.23,29,.02,35.16,2.28,4.02,1.48,14.82,10.43,18.36,13.56,1.06.94.09,2.08-1.73,2.02-8.17-.27-26.29-1.08-32.81-3.1-4.18-1.3-14.09-6.23-21.89-10.26Z"/>
      <path class="cls-2" d="M434.6,629.81c-9.66,0-18.69,0-26.38.32l-1.15,7.38-2.73-7.18c-12.44.75-30.27,2.6-30.27,7.18,0,4.25,32.5,7.69,60.53,7.69,12.08,0,23.18-.64,31.89-1.71l1.26-8.05,2.84,7.49c9.13-1.39,24.54-3.31,24.54-5.42,0-7.69-32.5-7.69-60.53-7.69Z"/>
      <g>
        <g>
          <g>
            <path class="cls-3" d="M435,386.32c45.62,0,206.2-47.36,206.2-47.36,0,0-30.44-174.62-206.2-174.62s-206.2,174.62-206.2,174.62c0,0,158.25,47.36,206.2,47.36Z"/>
            <g>
              <path class="cls-1" d="M435,428.87c-46.58,0-211.18-48.01-228.68-53.49l-9.37-2.93,9.03-42.47,9.37,2.93c46.34,14.49,184.14,52.11,219.65,52.11s173.31-37.61,219.64-52.11l9.37-2.93,9.03,42.47-9.37,2.93c-17.5,5.47-182.09,53.49-228.68,53.49Z"/>
              <path class="cls-3" d="M435,408.25c-45.98,0-218.97-50.9-225.9-53.06l3.48-12.39c1.68.53,178.2,52.53,222.42,52.53s220.74-52.01,222.42-52.53l3.48,12.39c-6.93,2.17-179.92,53.06-225.9,53.06Z"/>
            </g>
            <path class="cls-1" d="M343.07,200.33c-63.78,26.49-90.74,113.17-90.4,128.1,9.37,3.31,43.06,13.04,43.06,13.04,0-64.83,47.35-141.14,47.35-141.14Z"/>
            <path class="cls-1" d="M526.93,200.33c63.78,26.49,90.74,113.17,90.4,128.1-9.37,3.31-43.06,13.04-43.06,13.04,0-64.83-47.35-141.14-47.35-141.14Z"/>
          </g>
          <polygon class="cls-1" points="510.36 138.48 435 111.47 359.64 138.48 392.38 481.25 366.25 520.47 435 556.38 498.8 520.47 472.68 481.25 510.36 138.48"/>
          <polygon class="cls-3" points="435 533.92 481.33 510.85 461.02 472.61 480.84 150.1 435 129.71 389.16 150.1 408.98 472.61 388.67 510.85 435 533.92"/>
          <g>
            <g>
              <polygon class="cls-1" points="434.94 466.52 446.2 478.76 433.76 492.19 429.83 487.86 438.22 478.68 435.16 475.23 434.89 475.17 431.67 478.68 434.03 481.33 430.1 485.57 423.68 478.66 434.94 466.52"/>
              <path class="cls-1" d="M446.2,507.76l-11.24,11.97-11.27-12.13,12.54-13.41,3.74,3.99.09.33-8.35,9.26,3.24,3.48,3.27-3.56c.07-.41-2.07-2.15-2.24-2.76l3.83-4.13,6.39,6.95Z"/>
              <polygon class="cls-1" points="429.94 498.7 421.58 489.53 418.19 493.18 421.49 496.72 424.05 494.18 427.87 498.43 421.58 505.32 410.33 493.02 421.57 481.05 434.03 494.46 429.94 498.7"/>
              <polygon class="cls-1" points="459.68 493.24 448.42 505.32 435.98 491.81 439.79 487.55 448.47 496.68 451.6 493.3 451.66 493.01 448.42 489.53 445.94 492.19 442.01 487.94 448.4 481.05 459.68 493.24"/>
            </g>
            <g>
              <polygon class="cls-1" points="434.94 363.03 447.58 376.78 433.61 391.87 429.2 387 438.61 376.69 435.18 372.81 434.88 372.74 431.25 376.68 433.91 379.67 429.49 384.43 422.29 376.67 434.94 363.03"/>
              <path class="cls-1" d="M447.58,409.35l-12.63,13.45-12.67-13.63,14.09-15.07,4.2,4.49.1.37-9.38,10.4,3.64,3.91,3.67-4c.08-.46-2.33-2.42-2.52-3.1l4.31-4.64,7.18,7.81Z"/>
              <polygon class="cls-1" points="429.31 399.18 419.92 388.87 416.11 392.98 419.82 396.96 422.7 394.1 426.99 398.88 419.92 406.62 407.28 392.8 419.91 379.35 433.91 394.42 429.31 399.18"/>
              <polygon class="cls-1" points="462.72 393.05 450.07 406.62 436.1 391.44 440.39 386.65 450.13 396.91 453.65 393.12 453.71 392.78 450.07 388.87 447.29 391.87 442.88 387.09 450.05 379.35 462.72 393.05"/>
            </g>
            <g>
              <g>
                <polygon class="cls-1" points="425.02 322.55 425.27 366.08 434.95 355.65 444.93 366.5 445.19 322.29 434.93 333.22 425.02 322.55"/>
                <polygon class="cls-1" points="444.33 469.33 444.62 419.83 434.94 430.14 425.59 420.08 425.87 468.94 434.96 459.14 444.33 469.33"/>
                <polygon class="cls-1" points="424.45 225.01 424.67 263.23 434.95 252.16 445.53 263.67 445.76 224.76 434.93 236.29 424.45 225.01"/>
              </g>
              <polygon class="cls-1" points="434.93 259.54 448.96 274.8 433.45 291.55 428.56 286.14 439.01 274.7 435.2 270.39 434.86 270.32 430.84 274.69 433.79 278.01 428.88 283.29 420.89 274.67 434.93 259.54"/>
              <path class="cls-1" d="M448.96,310.95l-14.01,14.92-14.06-15.13,15.63-16.72,4.66,4.98.11.41-10.41,11.55,4.04,4.34,4.08-4.44c.09-.52-2.59-2.69-2.79-3.44l4.78-5.15,7.97,8.67Z"/>
              <polygon class="cls-1" points="428.68 299.66 418.27 288.22 414.04 292.78 418.15 297.19 421.34 294.02 426.11 299.33 418.27 307.92 404.23 292.57 418.25 277.65 433.79 294.38 428.68 299.66"/>
              <polygon class="cls-1" points="465.77 292.85 451.73 307.92 436.22 291.06 440.98 285.76 451.79 297.14 455.7 292.93 455.77 292.56 451.73 288.22 448.64 291.55 443.74 286.24 451.71 277.65 465.77 292.85"/>
            </g>
            <g>
              <polygon class="cls-1" points="434.92 156.04 450.35 172.82 433.3 191.23 427.92 185.28 439.41 172.71 435.22 167.97 434.85 167.89 430.43 172.7 433.67 176.34 428.28 182.15 419.49 172.68 434.92 156.04"/>
              <path class="cls-1" d="M450.34,212.55l-15.4,16.4-15.45-16.63,17.18-18.38,5.12,5.47.12.45-11.44,12.69,4.44,4.78,4.48-4.88c.1-.57-2.84-2.95-3.07-3.78l5.25-5.66,8.75,9.53Z"/>
              <polygon class="cls-1" points="428.06 200.14 416.61 187.57 411.96 192.58 416.48 197.43 419.99 193.94 425.23 199.77 416.61 209.22 401.19 192.35 416.59 175.96 433.67 194.33 428.06 200.14"/>
              <polygon class="cls-1" points="468.82 192.66 453.38 209.22 436.34 190.69 441.57 184.86 453.46 197.37 457.75 192.75 457.82 192.34 453.38 187.57 449.99 191.23 444.61 185.4 453.36 175.96 468.82 192.66"/>
            </g>
          </g>
        </g>
        <path class="cls-2" d="M220,276.58c-14.32-3.91-24.77-11.85-25.17-12.15.27.44,7.93,12.46,19.89,24.89-6.57,17.05-10.41,31.99-12.55,42.18-.99-9.39-1.5-26.43-3.44-27.23-29.46-12.09-83.35-44.73-43.21-112.5-21.82,22.37-33.29,41.2-33.64,60.22-.5,27.92,18.97,53.38,32.17,67.53-15.99-7.68-30.62-15.9-36.44-22.55-21.54-24.59-26.52-52.1-20.28-66.58,6.93-16.12,67.23-61.98,75.96-73.07,3.92-4.97,14.36-20.89,14.36-20.89l2.72,10.46c5.34-7.6,10.45-32.56,13.6-40.2,4.79,6.47,8.44,30.49,9.89,37.48,2.06,9.98-3.34,27.24-4.91,33.5-5.12,15.4-11.63,36.68-11.91,46.18-.29,9.62,7.91,34.92,7.91,34.92,0,0,.45-13.25,6.59-24.44,4.17,3.28,7.62,6.48,10.39,9.32,3,3.07,7.12,5.26,11.69,6.37-5.3,9-9.8,17.94-13.61,26.55Z"/>
        <path class="cls-2" d="M752.39,296.98c-5.81,6.65-20.44,14.87-36.44,22.55,13.21-14.15,32.68-39.61,32.17-67.53-.34-19.03-11.82-37.86-33.64-60.22,40.14,67.77-13.76,100.41-43.21,112.5-1.93.79-2.44,17.82-3.43,27.21-2.16-10.19-6-25.12-12.55-42.17,11.96-12.44,19.62-24.45,19.89-24.89-.4.3-10.85,8.24-25.18,12.14-3.81-8.6-8.3-17.55-13.61-26.54,4.57-1.11,8.7-3.3,11.69-6.37,2.77-2.85,6.22-6.04,10.39-9.32,6.14,11.19,6.59,24.44,6.59,24.44,0,0,8.21-25.3,7.92-34.92-.28-9.5-6.79-30.78-11.92-46.18-1.57-6.27-6.98-23.52-4.91-33.5,1.45-6.98,5.11-31.01,9.89-37.48,3.15,7.64,8.26,32.6,13.61,40.2l2.71-10.46s10.44,15.92,14.36,20.89c8.74,11.1,69.04,56.96,75.96,73.07,6.23,14.48,1.26,41.99-20.28,66.58Z"/>
      </g>
      <g>
        <path class="cls-3" d="M463.67,771.62s-8.21,7.88-10.54,10.13c-5.61,5.41-28.52,26.02-28.52,26.02,0,0,14.46-6.09,22.62-12.86l-1.93,10.84s7.05-6.21,9.68-13.89c1.56,8.34.57,13.89.57,13.89h3.47c2.16-1.68.87-22.01.87-22.01l3.79-12.11Z"/>
        <g>
          <polygon class="cls-2" points="465.2 844.11 437.02 845.14 408.84 844.11 410.92 833.1 408.84 822.1 437.02 821.07 465.2 822.1 463.12 833.1 465.2 844.11"/>
          <polygon class="cls-2" points="465.14 818.5 437.02 817.48 408.89 818.5 408.78 815.43 437.02 814.4 465.26 815.43 465.14 818.5"/>
        </g>
        <polygon class="cls-3" points="472.97 651.45 442.47 661.92 436.91 657.79 430.83 662.41 430.67 662.41 430.74 662.48 430.67 662.53 427.39 669.99 432.2 666.94 436.91 676.54 441.13 666.94 445.42 669.99 448.55 667.52 472.97 651.45"/>
        <path class="cls-3" d="M438.08,893.83c-1.29-5.19-1.98-7.85-2.36-9.76,0,0-4.1-12.8-4.52-31.17-5.54,7.3-9.09,20.31-9.09,20.31,0,0-1.73-13.9,2.92-22.68-6.64,1.33-11.93,7.53-12.51,15.42,0,.07,0,.14-.01.21l-.19-.53-2.19,20.34,3.13-2.29c1.95,12.67,7.36,28.1,20.01,44.77-.09-1.14,8.67-19.06,4.8-34.62Z"/>
        <path class="cls-3" d="M467.81,881.91l-5.23-17.73c-2.53-9.14-9.09-12.64-17.01-13.48,3.06,6.91,1.82,16.85,1.82,16.85,0,0-2.96-10.85-7.53-16.46-.75,4.26-1.09,11.06.95,21.59,1.39,7.18,4.01,14,7.69,20.06,2.21,3.65,3.87,6.51,3.9,9.42.03,3.09-.42,6.18-.65,9.27,10.64-6.15,15.41-17.09,13.58-30.57l2.49,1.07Z"/>
        <path class="cls-3" d="M478.85,665.23s-11.55,9.72-15.02,12.55c-3.59,2.92-10.98,7.91-17.9,12.44-5.07,3.32-6.65,11.43-6.65,11.43,0,0-2.43,1.94-5.87-1.19-.15,1.41.34,2.88,1.53,4.02l10.2,9.75-1.33-3.41c-.81-2.07-.07-4.41,1.79-5.68,0,0,18.23-6.37,27.95-18.3.91-1.12,3.17-6.01,3.05-7.43l-2.74,3.6c-.24-2.7,1.18-5.43,1.99-8.04l3.01-9.74Z"/>
        <path class="cls-3" d="M473.57,701.62s-10.05,8.91-13.03,11.5c-3.02,2.62-9.14,6.97-15.06,11.03-4.76,3.27-7.15,5.56-6.2,10.9,0,0-2.37,1.97-5.75-1.09-.29,1.48.11,3.07,1.32,4.29l9.81,9.99-1.35-3.65c-.74-2.01-.04-4.26,1.72-5.53,0,0,14.87-4.51,23.64-16.25.8-1.08,3.4-5.43,3.31-6.76l-3.15,3.15c-.26-4.05,1.44-8.11,2.8-11.98l1.96-5.59Z"/>
        <path class="cls-3" d="M468.84,738.56s-9.63,8.59-12.48,11.06c-2.06,1.78-5.82,4.48-9.85,7.23-5.55,3.79-9.08,11.54-9.08,11.54,0,0-.68,3.52-4.22.25.08,1.05.51,2.09,1.33,2.96l9.73,10.38-2.09-5.91c-.71-2.01,0-4.24,1.77-5.49,0,0,12.61-3.61,20.35-13.76.82-1.07,2.74-4.71,2.61-6.04l-2.54,2.38c-.28-2.66,1.18-5.35,2.09-7.89l2.4-6.71Z"/>
        <polyline class="cls-2" points="423.08 749.59 429.23 748.09 423.08 762.56"/>
        <path class="cls-3" d="M425.05,712.01c-5.07-3.18-12.13-7.73-14.96-10.18-2.67-2.3-21.44-10.46-21.44-10.46l12.13,7.21c.98,3.01,2.57,6.14,2.47,9.28l-13.92-3.88c.25,2.9,15.81,9.43,18.38,11.08l10.34,7.37c1.68,1.08,1.49,8.19,1.49,8.19,4.87-2.64,9.7-19.62,9.7-19.62l-4.18,1.02Z"/>
        <path class="cls-3" d="M424.62,678.14c-6.16-3.76-15.51-9.6-19.2-12.65-2.84-2.35-22.18-10.63-22.18-10.63l2.16,6.21c1.43,4.11,3.17,8.41,2.93,12.71l-2.75-1.91c0,1.35,3.3,4.55,4.31,5.47,3.12,2.84,19.01,8.92,26.18,10.97,2.27.65,2.56,8.52,2.56,8.52l.16-.2-.04.2c4.87-2.64,9.7-19.62,9.7-19.62l-3.84.93Z"/>
        <path class="cls-3" d="M423.08,747.32c-3.45-2.16-7.17-4.6-8.91-6.08-2.46-2.11-10.73-9.75-10.73-9.75l3.03,8.27c.54,1.48,1.73,3.06,1.28,4.56l-2.14-2.01c.21,3.02,4,7.79,6.6,9.45l6.53,4.89c1.68,1.07,1.12,10.31,1.12,10.31,0,0,.06-.12.16-.32l-.05.32c4.87-2.64,9.25-21.14,9.25-21.14l-6.15,1.5Z"/>
        <path class="cls-3" d="M425.83,778.94c-3.12-1.97-6.79-4.4-8.37-5.89-2.04-1.92-9.15-8.99-9.15-8.99l3.24,9.19c.39,1.11.39,2.31-.02,3.42h1.13c.23,2.98,4.61,14.01,4.61,14.01l-3.47,17.09,7.47-10.57v.05c4.86-2.64,9.24-19.46,9.24-19.46l-4.7,1.14Z"/>
      </g>
    </g>
  </g>
</svg>