<?xml version="1.0" encoding="UTF-8"?>
<svg id="Layer_2" xmlns="http://www.w3.org/2000/svg" viewBox="0 0 888.72 888.13">
  <defs>
    <style>
      .cls-1, .cls-2 {
        fill: none;
      }

      .cls-3 {
        fill: #fdbb2e;
      }

      .cls-4 {
        fill: #014f9e;
      }

      .cls-5 {
        fill: #fefeff;
      }

      .cls-2 {
        stroke: #fefeff;
        stroke-linecap: round;
        stroke-miterlimit: 10;
        stroke-width: 5.39px;
      }
    </style>
  </defs>
  <g id="Logos">
    <g>
      <g>
        <g>
          <path class="cls-1" d="M171.39,374.01c.33,1.12.46,1.84.2-.2-.07.07-.13.13-.2.2Z"/>
          <g>
            <path class="cls-3" d="M171.39,374.01c.07-.07.13-.13.2-.2.25,2.03.12,1.31-.2.2Z"/>
            <path class="cls-5" d="M411.8,867.82c-3.99-2.49-7.69-5.34-11.31-8.7-10.27-9.56-20.99-19.5-33.53-31.11-15.24,9.84-34,15.64-44.28,15.64h-12.21l-5.76-10.77c-.65-1.21-15.91-29.39-37.04-57.5l-34.61,8.09-1,.13c-2.77.36-5.58.55-8.36.55-24.79,0-46.68-14-57.16-36.54-1.66-2.86-3.72-5.77-6.32-9.45-9.45-13.36-22.19-31.37-33.41-68.37l-24.93,17.92-34.15-77.67c-2.54-5.78-5.05-11.48-7.54-17.17-.41-.66-.97-1.51-1.26-1.96-6.51-10.04-20.07-30.93-16.52-59.89,2.14-17.5,4.73-36.26,9.11-55.38L0,441.22l26.23-37.78-23.75-10.86,18.03-52.71c1.52-4.44,3.23-8.37,5.05-12.53,3.61-8.29,8.11-18.61,11.6-34.81,3.69-17.12,11.88-32.72,25.02-47.64,1.84-16.13,9.77-28.04,13.22-33.22,2.54-3.81,5.79-8.36,9.94-13.9,4.86-6.49,12.59-16.44,15.26-19.54,8.66-9.97,16.75-18.21,24.09-24.51,1.42-11.17,9.19-22.57,24.24-35.67,7.57-6.59,15.14-12.02,19.12-14.76,1.53-5.12,3.77-13.99,5.47-21.73l2.86-12.97,1.37-.28-16.89-16.12,90.41-32.42L348.77,0l3.52.52c13.25,1.94,23.37,6.51,29.41,9.24l.45.2c.74.34,1.43.65,1.93.85,10.7,4.32,21.25,8.74,31.45,13.01l.12.05c6.91,2.89,14.06,5.88,21.04,8.76,2.62,1.08,5.19,2.32,7.66,3.69,2.47-1.38,5.03-2.61,7.65-3.69,7-2.88,14.14-5.87,21.05-8.76l.12-.05c10.2-4.27,20.75-8.69,31.45-13.01.5-.2,1.18-.51,1.92-.85l.46-.21c6.05-2.73,16.17-7.29,29.42-9.24l3.52-.52,97.5,19.76,90.41,32.42-16.89,16.12,1.37.28,2.86,12.97c1.75,7.93,3.95,16.64,5.47,21.72,3.98,2.74,11.55,8.18,19.13,14.77,15.07,13.11,22.84,24.52,24.25,35.68,7.33,6.3,15.41,14.52,24.03,24.45,2.75,3.19,10.34,12.97,15.31,19.59,4.15,5.54,7.4,10.09,9.94,13.9,3.45,5.19,11.39,17.09,13.22,33.22,13.14,14.92,21.33,30.52,25.02,47.64,3.5,16.19,7.99,26.51,11.6,34.8,1.82,4.17,3.53,8.11,5.05,12.54l18.03,52.71-23.75,10.86,26.23,37.78-51.5,34.44c4.37,19.12,6.96,37.88,9.11,55.38,3.55,28.96-10,49.85-16.51,59.89-.3.45-.85,1.31-1.26,1.96-2.5,5.69-5,11.39-7.54,17.17l-34.16,77.67-24.93-17.92c-11.22,36.99-23.96,55.01-33.41,68.36-2.61,3.68-4.67,6.6-6.33,9.46-10.49,22.55-32.37,36.54-57.16,36.54-2.78,0-5.59-.18-8.37-.55l-1-.13-34.61-8.09c-21.39,28.46-36.88,57.21-37.04,57.5l-5.76,10.76h-12.2c-10.29,0-29.05-5.8-44.29-15.63-12.57,11.63-23.29,21.58-33.53,31.11-3.62,3.37-7.32,6.22-11.31,8.7l-32.56,20.3-32.56-20.3Z"/>
            <path class="cls-4" d="M444.36,61.36h0c5.3-4.95,10.85-8,15.41-9.88,7.08-2.91,14.3-5.93,21.28-8.86,10.17-4.26,20.69-8.66,31.22-12.92.8-.32,1.93-.83,3.12-1.37,5.4-2.44,13.56-6.12,23.99-7.65l92.57,18.77,57.96,20.78-21.31,20.34,26.69,5.37s6.5,29.46,9.13,31.04c5,3,40.49,27.13,39.45,41.06l-.03.39c-.12,1.45-.33,2.93-.61,4.43,1.14.91,2.25,1.86,3.32,2.86,5.62,4.36,14.29,12.16,26.13,25.8,2.1,2.44,9.38,11.77,14.38,18.45,3.92,5.23,6.96,9.47,9.29,12.97,3.51,5.26,10.71,16.07,10.16,30.3,9.5,9.81,20.81,23.6,25.12,43.57,3.92,18.18,9.08,30.01,12.84,38.65,1.72,3.94,3.2,7.35,4.45,10.99l12.06,35.26-29.09,13.3c1.41,2.1,2.87,4.22,4.37,6.38l23.89,34.4-45.2,30.23h-1.18c6.06,21.77,9.29,42.62,12.33,67.48,2.65,21.61-7.78,37.69-13.38,46.32-.8,1.24-1.89,2.91-2.3,3.65-2.88,6.56-5.76,13.13-8.7,19.81l-23.39,53.19-30.9-22.22c0,1.91,0,3.82.01,5.72l.05,5.44-1.36,5.26c-11.15,43.05-23.95,61.16-34.25,75.71-3.09,4.37-5.6,7.92-7.84,11.92-6.94,15.6-21.85,25.46-39,25.46-1.9,0-3.82-.13-5.71-.37l-46.32-10.82c-26.96,33.31-46.95,70.69-46.95,70.69-8.05,0-32.14-7.67-45.05-22.3-15.57,14.38-31.21,28.86-46.65,43.23-2.65,2.47-5.34,4.54-8.21,6.33l-21.78,13.58-21.78-13.58c-2.87-1.79-5.55-3.86-8.21-6.33-15.44-14.37-31.08-28.85-46.65-43.23-12.91,14.64-37,22.3-45.05,22.3,0,0-19.99-37.38-46.95-70.69l-46.32,10.82c-1.89.25-3.82.37-5.71.37-17.15,0-32.06-9.86-39-25.46-2.24-4-4.75-7.55-7.84-11.92-10.29-14.55-23.1-32.66-34.25-75.71l-1.36-5.26.05-5.44c.02-1.9.02-3.81.01-5.72l-30.9,22.22-23.39-53.19c-2.94-6.68-5.83-13.25-8.7-19.81-.41-.74-1.49-2.41-2.3-3.65-5.6-8.64-16.03-24.71-13.38-46.32,3.04-24.86,6.27-45.7,12.33-67.48h-1.18s-45.2-30.23-45.2-30.23l23.89-34.4c1.5-2.16,2.96-4.29,4.37-6.38l-29.09-13.3,12.06-35.26c1.25-3.64,2.73-7.05,4.45-10.99,3.76-8.64,8.92-20.47,12.84-38.65,4.31-19.97,15.62-33.76,25.12-43.57-.54-14.22,6.66-25.03,10.16-30.3,2.33-3.5,5.37-7.74,9.29-12.97,5.01-6.69,12.28-16.01,14.38-18.45,11.85-13.64,20.51-21.44,26.13-25.8,1.07-1,2.18-1.96,3.32-2.86-.29-1.5-.49-2.98-.61-4.43l-.03-.39c-1.05-13.93,34.45-38.06,39.45-41.06,2.63-1.58,9.13-31.04,9.13-31.04l26.69-5.37-21.31-20.34,57.96-20.78,92.57-18.77c10.43,1.53,18.59,5.21,23.99,7.65,1.2.54,2.33,1.05,3.12,1.37,10.53,4.25,21.05,8.66,31.22,12.92,6.98,2.92,14.21,5.95,21.28,8.86,4.56,1.88,10.11,4.94,15.41,9.88h0,0Z"/>
          </g>
        </g>
        <g>
          <path class="cls-3" d="M316.79,224.01s-23.39,7.75-32.72,22.54c-.72,1.14-6.1-11.35-7.87-11.96-1.96-.67-.41,10.38-3.14,8.37-10.84-7.98-25.57-23.21-27.09-19.37-.72,1.81,13.89,24.6,21.54,38.59.72,1.32-18.65-2.13-18.07-.99,1.84,3.63,22.9,10.9,22.5,11.62-9.51,16.95-12.12,29.05-13.09,28.44-1.78-1.12-17.89-15.41-26.59-23.15-3.53-3.14-5.59-7.48-5.73-12.05l-2.11-68.84c-.1-3.31,2.89-5.93,6.35-5.57,4.95.52,11.4,1.18,14.41,1.43,9.68.79,29.34,1.84,38.52,4.88,7.08,2.34,33.11,26.08,33.11,26.08Z"/>
          <g>
            <g>
              <path class="cls-3" d="M190.07,157.62c15.39,5.94,30.84,11.76,46.18,17.81.14.05.28.1.43.15,4.73.49,8.21.83,9.97.97,1.42.12,3.05.24,4.84.37,14.75,1.1,28.75,2.34,37.9,5.36,1.53.51,4.89,1.62,13.07,7.6,8.56,2.5,17.12,5,25.68,7.48,2.01.58,4.73,2.54,6.09.83,1.62-2.02-1.31-3.87-2.6-5.55-9.28-12.03-18.71-23.96-28-35.98-1.18-1.53-3.23-2.87-2.32-6.39,32.35,17.5,64.34,34.8,96.32,52.1.44-.42.86-.84,1.29-1.26-17.78-25.37-35.56-50.73-53.34-76.09.5-.41.99-.81,1.47-1.2,7.63,4.92,15.24,9.84,22.86,14.77,23.3,15.13,46.67,30.2,69.85,45.48,1.71,1.12,3.18,1.68,4.61,1.75,1.43-.07,2.91-.62,4.61-1.75,23.18-15.28,46.54-30.35,69.85-45.48,7.61-4.94,15.23-9.85,22.86-14.77.48.4.98.8,1.47,1.2-17.78,25.36-35.56,50.72-53.34,76.09.44.42.86.84,1.29,1.26,31.98-17.3,63.96-34.6,96.32-52.1.91,3.52-1.14,4.86-2.32,6.39-9.29,12.02-18.72,23.95-28,35.98-1.29,1.68-4.22,3.53-2.6,5.55,1.37,1.71,4.09-.24,6.09-.83,8.56-2.48,17.12-4.98,25.68-7.48,8.17-5.98,11.53-7.09,13.07-7.6,9.15-3.03,23.15-4.26,37.9-5.36,1.79-.13,3.42-.25,4.83-.37,1.76-.14,5.24-.48,9.97-.97.15-.05.3-.1.43-.15,15.34-6.05,30.8-11.87,46.18-17.81,1.58-.62,4.01-.67,4.18-2.67.15-1.92-2.15-2.46-3.59-3.33-13.6-8.24-27.28-16.35-40.83-24.65-3.4-2.09-6.7-2.76-10.78-2.14-18.07,2.73-36.19,5.22-54.29,7.76-1.92.28-3.89,1.03-6.91-.81,23.23-10.38,45.83-20.47,68.42-30.57-.05-.36-.1-.73-.13-1.09-11.07-1.13-22.14-2.25-33.21-3.38-3.6-.36-7.31-.34-10.79-1.17-16.59-3.93-31.23,1.74-45.99,7.32-11.92,4.49-23.97,8.68-35.99,12.91-2.14.76-4.25,2.17-8.12.78,27.69-17.82,54.7-35.2,82.6-53.15-4.02-1.23-6.85.06-9.62.35-5.8.61-11.54,1.6-17.32,2.4-4.59.64-8.76,1.82-12.82,4.27-31.93,19.27-64.03,38.29-96.1,57.37-1.47.88-2.8,2.12-6.71,2.19,13.63-14.94,26.35-29.07,39.33-42.99,13.09-14.04,31-23.09,45.4-35.89-6.48.95-11.9,4.13-17.67,6.46-17.49,7.07-34.81,14.5-52.25,21.67-2.82,1.16-4.33,3.01-5.56,5.45-8.16,16.21-16.39,32.39-24.67,48.56-.31.61-.55,1.34-.85,2.03-.3-.69-.54-1.42-.85-2.03-8.28-16.16-16.51-32.35-24.67-48.56-1.23-2.44-2.74-4.3-5.56-5.45-17.44-7.18-34.76-14.61-52.25-21.67-5.76-2.33-11.19-5.51-17.67-6.46,14.39,12.81,32.31,21.85,45.4,35.89,12.98,13.92,25.7,28.05,39.33,42.99-3.9-.07-5.23-1.3-6.71-2.19-32.06-19.08-64.17-38.1-96.1-57.37-4.06-2.45-8.23-3.63-12.82-4.27-5.78-.8-11.52-1.79-17.32-2.4-2.77-.3-5.6-1.58-9.62-.35,27.9,17.95,54.91,35.33,82.6,53.15-3.87,1.39-5.98-.02-8.12-.78-12.03-4.23-24.08-8.41-35.99-12.91-14.76-5.58-29.39-11.25-45.99-7.32-3.48.83-7.19.81-10.79,1.17-11.07,1.13-22.14,2.25-33.21,3.38-.04.36-.08.73-.13,1.09,22.59,10.1,45.19,20.19,68.42,30.57-3.02,1.83-4.99,1.08-6.91.81-18.11-2.54-36.22-5.04-54.29-7.76-4.08-.62-7.38.06-10.78,2.14-13.55,8.3-27.23,16.42-40.83,24.65-1.44.87-3.73,1.41-3.59,3.33.17,2,2.6,2.05,4.18,2.67Z"/>
              <path class="cls-3" d="M809.99,359.78c-2.77-8.09-12.16-24.53-18.58-54.28-3.07-14.23-14.21-23.12-23.88-33.06-9.36-9.63-18.98-19.03-28.48-28.54-1.06-1.07-2.28-2.06-2.77-5.14,10.26,4.65,19.59,8.87,29.02,13.14.88-2.51-22.78-32.34-23.7-33.39-14.64-16.86-22-21.5-22-21.5-2.27-2.64-4.87-4.09-8.46-4.68-10.69-1.79-21.37-3.61-32.04-5.45,1.81,3.31,2.74,7.04,2.62,10.82l-.27,8.69c12.09,6.8,24.21,13.56,36.27,20.37,1.62.92,4.53,1.56,4.11,3.53-.52,2.4-3.63,1.83-5.66,1.97-11.86.78-23.73,1.46-35.59,2.19l-.98,32.09c-.13,4.29-1.15,8.5-2.94,12.41,2.6,2.16,5.19,4.31,7.78,6.46-.36.51-.74,1.02-1.1,1.52-3.21-.93-6.42-1.87-9.63-2.8-1.52,2.2-3.31,4.24-5.35,6.06-3.43,3.05-6.41,5.7-9.04,8.02,17.6,28.7,35.21,57.4,52.8,86.09-.5.45-.99.9-1.5,1.34-14.18-8.84-28.37-17.69-43.95-27.39.97,2.91,1.31,4.14,1.78,5.31,10.43,25.52,20.86,51.02,31.34,76.5,1.35,3.31,2.42,6.57,1.68,10.2-5.19,25.31-10.29,50.63-15.49,75.94-.33,1.62-.05,3.83-3.52,4.33-8.19-29.06-16.38-58.09-24.56-87.12-.27.06-.54.11-.82.15-2.22,45.76-4.45,91.53-6.67,137.28-.74.07-1.49.13-2.24.21-5.6-22.06-11.2-44.12-17.14-67.47-.74,2.16-1.09,2.99-1.31,3.85-5.87,23.87-11.88,47.71-17.55,71.62-3.67,15.48-12.23,29.14-18.82,43.52-5.9,12.91-12.13,25.67-18.3,38.47-.57,1.19-.8,3.32-2.99,2.75-1.61-.42-1.12-2.19-1.16-3.4-.11-4.6-.16-9.21-.17-13.8-.01-12.52,0-25.04,0-37.55-.7-.02-1.4-.03-2.1-.06-5.18,20.22-10.27,40.44-15.58,60.62-2.57,9.83-2.9,9.54-8.33,18.21-7.35,11.76-17.44,10.97-27.18,21.29-.85.91-1.85,2.33-3.47,1.47-1.47-.78-.88-2.29-.74-3.53.87-7.86,1.89-15.72,2.62-23.59,1.05-11.31,1.91-22.63,2.84-33.95-.42-.02-.86-.06-1.28-.09-8.22,18.78-16.44,37.55-24.63,56.34-.97,2.22-1.84,4.49-3.84,6.17-13.75,11.6-27.56,23.16-41.24,34.83-1.25,1.06-2.37,1.66-3.48,1.81-1.1-.15-2.23-.75-3.48-1.81-13.68-11.67-27.48-23.23-41.24-34.83-2.01-1.68-2.88-3.95-3.84-6.17-8.19-18.79-16.41-37.56-24.63-56.34-.42.03-.86.07-1.28.09.93,11.32,1.79,22.64,2.84,33.95.74,7.87,1.75,15.73,2.62,23.59.14,1.25.74,2.75-.74,3.53-1.62.86-2.62-.56-3.47-1.47-9.74-10.31-19.83-9.53-27.18-21.29-5.43-8.67-5.75-8.38-8.33-18.21-5.31-20.18-10.39-40.41-15.58-60.62-.7.02-1.4.03-2.1.06,0,12.51.01,25.03,0,37.55-.01,4.59-.06,9.2-.17,13.8-.04,1.22.45,2.98-1.16,3.4-2.19.57-2.42-1.56-2.99-2.75-6.16-12.8-12.4-25.56-18.3-38.47-6.59-14.39-15.14-28.04-18.82-43.52-5.67-23.91-11.68-47.75-17.55-71.62-.22-.86-.57-1.69-1.31-3.85-5.93,23.35-11.54,45.41-17.14,67.47-.75-.08-1.5-.14-2.24-.21-2.22-45.75-4.45-91.52-6.67-137.28-.28-.04-.56-.1-.82-.15-8.18,29.04-16.37,58.06-24.56,87.12-3.47-.5-3.19-2.71-3.52-4.33-5.21-25.31-10.31-50.63-15.49-75.94-.74-3.63.33-6.89,1.68-10.2,10.48-25.48,20.91-50.99,31.34-76.5.47-1.17.81-2.4,1.78-5.31-15.58,9.7-29.77,18.55-43.95,27.39-.51-.44-1-.88-1.5-1.34,17.59-28.69,35.2-57.39,52.8-86.09-2.63-2.32-5.61-4.97-9.04-8.02-2.06-1.84-3.86-3.87-5.38-6.06-3.2.93-6.4,1.86-9.6,2.79-.36-.51-.74-1.02-1.1-1.52,2.58-2.14,5.17-4.29,7.75-6.44-1.77-3.88-2.77-8.08-2.91-12.43l-.98-32.09c-11.86-.74-23.73-1.41-35.59-2.19-2.03-.13-5.14.43-5.66-1.97-.42-1.98,2.49-2.62,4.11-3.53,12.07-6.81,24.18-13.58,36.27-20.37l-.27-8.69c-.12-3.77.81-7.5,2.62-10.81-10.67,1.85-21.36,3.67-32.04,5.45-3.59.6-6.19,2.04-8.46,4.68,0,0-7.36,4.65-22,21.5-.92,1.05-24.58,30.88-23.7,33.39,9.43-4.27,18.76-8.49,29.02-13.14-.48,3.08-1.7,4.07-2.77,5.14-9.5,9.51-19.12,18.91-28.47,28.54-9.67,9.94-20.81,18.83-23.88,33.06-6.42,29.74-15.81,46.18-18.58,54.28.36.17.73.33,1.1.5,35.05-27.1,70.11-54.21,105.17-81.32-53.95,67.16-65.28,97.71-98.75,145.91.36.24,43.16-20.61,72.02-45.8-41.94,75.1-48.38,106.96-54.81,159.44-1.24,10.15,8.28,18.77,12.4,28.17,3.87,8.82,7.75,17.63,11.75,26.73,2.78-2,3.09-4.47,3.92-6.62,12.41-32.29,32.77-79.62,35.3-86.04.39-.98,16.25,70.35,15.61,139.62,13.21,51.04,27.11,56.85,39.45,80.21.42.77.39,2.24,2.15,2.01-3.63-51.23-7.26-102.38-10.89-153.53,3.36,1.76,3.32,4.25,3.83,6.5,5.38,23.78,11.34,47.46,15.76,71.39,2.77,15.01,8.23,28.03,20.24,38.91,7.59,6.87,13.98,14.83,20.91,22.3l1.31-.6c-2.89-30.77-4.32-60.21-3.73-58.68,20.12,52.04,39.43,74.66,59.32,126.78,2.76,7.25,24.47-20.4,12.24-51.26,4.22,1.02,5.57,2.96,7.22,4.46,30.77,28.36,61.56,56.72,92.17,85.21.69.64,1.33,1.15,1.94,1.53.61-.38,1.25-.89,1.94-1.53,30.61-28.5,61.4-56.85,92.17-85.21,1.64-1.5,3-3.45,7.22-4.46-12.23,30.86,9.49,58.52,12.24,51.26,19.88-52.12,39.19-74.75,59.32-126.78.59-1.52-.84,27.91-3.73,58.68l1.31.6c6.93-7.47,13.32-15.43,20.91-22.3,12.01-10.88,17.48-23.89,20.24-38.91,4.42-23.93,10.38-47.61,15.76-71.39.51-2.25.47-4.75,3.83-6.5-3.63,51.15-7.26,102.3-10.89,153.53,1.76.23,1.73-1.24,2.15-2.01,12.34-23.36,26.23-29.17,39.45-80.21-.64-69.27,15.22-140.6,15.61-139.62,2.53,6.41,22.89,53.74,35.3,86.04.82,2.15,1.14,4.63,3.92,6.62,4-9.1,7.88-17.91,11.75-26.73,4.12-9.4,13.64-18.01,12.4-28.17-6.43-52.48-12.87-84.34-54.81-159.44,28.87,25.18,71.66,46.04,72.02,45.8-33.47-48.2-44.79-78.75-98.75-145.91,35.06,27.11,70.12,54.21,105.17,81.32.37-.17.74-.33,1.1-.5ZM724.66,373.81c.07.07.14.13.21.2-.34,1.12-.47,1.84-.21-.2Z"/>
            </g>
            <path class="cls-3" d="M571.94,224.01s23.39,7.75,32.72,22.54c.72,1.14,6.1-11.35,7.87-11.96,1.96-.67.41,10.38,3.14,8.37,10.84-7.98,25.57-23.21,27.09-19.37.72,1.81-13.89,24.6-21.54,38.59-.72,1.32,18.65-2.13,18.07-.99-1.84,3.63-22.9,10.9-22.5,11.62,9.51,16.95,12.12,29.05,13.09,28.44,1.78-1.12,17.89-15.41,26.59-23.15,3.53-3.14,5.59-7.48,5.73-12.05l2.11-68.84c.1-3.31-2.89-5.93-6.35-5.57-4.95.52-11.4,1.18-14.41,1.43-9.68.79-29.34,1.84-38.52,4.88-7.08,2.34-33.11,26.08-33.11,26.08Z"/>
          </g>
          <path class="cls-3" d="M444.36,532.47c25.47,0,32.37,15.4,55.98,15.4,5.95,0,13.53-15.4,13.53-15.4,0,0,16.71,46.44-29.45,87.08.27-13.63-2.65-22.46-2.65-22.46-14.96,22.47-37.41,47.45-37.41,47.45,0,0-22.44-24.98-37.41-47.45,0,0-2.92,8.83-2.65,22.46-46.16-40.64-29.45-87.08-29.45-87.08,0,0,7.58,15.4,13.53,15.4,23.61,0,30.51-15.4,55.98-15.4Z"/>
          <path class="cls-5" d="M491.72,495.49s.4,24.99-9.95,24.61c-.8-5.68-2.79-9.84-2.79-9.84l-5.97,3.41-4.21-9.84-8.52,5.67-7.16-9.09-8.75,7.38-8.75-7.38-7.16,9.09-8.52-5.67-4.21,9.84-5.97-3.41s-1.99,4.17-2.79,9.84c-10.35.38-9.95-24.61-9.95-24.61,0,0-17,25.91,0,33.69,10.74,4.92,26.26-11.74,47.36-11.74s36.61,16.66,47.36,11.74c17-7.78,0-33.69,0-33.69Z"/>
          <path class="cls-2" d="M412.66,397.57c6.18,1.9,18.03,4.86,31.7,4.86s25.52-2.96,31.7-4.86"/>
          <path class="cls-5" d="M517,323.86c10.33-8.38,21.55-12.35,21.55-12.35.98-.56,2.21.18,2.1,1.26l-.63,5.97c-.45,4.3-4.26,7.58-8.8,7.58h-13.51c-1.41,0-1.79-1.58-.72-2.45Z"/>
          <path class="cls-5" d="M371.72,323.86c-10.33-8.38-21.55-12.35-21.55-12.35-.98-.56-2.21.18-2.1,1.26l.63,5.97c.45,4.3,4.26,7.58,8.8,7.58h13.51c1.41,0,1.79-1.58.72-2.45Z"/>
        </g>
      </g>
      <path class="cls-3" d="M604,347.05c-1.36-4.11-3.3-7.7-5.69-10.83l7.71-3.37-19.78-6.95c-5.3-3.02-11.36-5.16-17.81-6.57l-2.38-.52s35.66,29.5,39.97,59.01c0,0,.4-23.45-2.02-30.77Z"/>
      <path class="cls-3" d="M320.3,319.33c-6.45,1.41-12.51,3.55-17.81,6.57l-19.78,6.95,7.71,3.37c-2.4,3.13-4.34,6.72-5.69,10.83-2.42,7.32-2.02,30.77-2.02,30.77,4.3-29.5,39.97-59.01,39.97-59.01l-2.38.52Z"/>
      <path class="cls-3" d="M529.26,492.1c-.12,4.62-2.33,9.06-4.87,12.75-1.51,2.27-2.54,4.45-3.38,6.98-1.62,3.96-.65,8.03-2,12.44-2.06-4.24-4.3-8.83-3.07-13.76.75-4.72,3.93-8.82,7.25-11.99,1.96-2.02,3.84-4.18,6.06-6.42h0Z"/>
      <path class="cls-3" d="M359.47,492.1c2.22,2.24,4.11,4.4,6.06,6.42,3.32,3.17,6.5,7.27,7.25,11.99,1.23,4.93-1.01,9.52-3.07,13.76-1.34-4.4-.37-8.48-2-12.44-.84-2.52-1.86-4.71-3.38-6.98-2.54-3.7-4.75-8.13-4.87-12.75h0Z"/>
      <path class="cls-3" d="M559.37,330.43c-8.75,8.33-24.27,13.25-24.27,13.25,0,0,9.27,3.56,15.12,9.09-18.7.38-30.64-7.57-30.64-7.57,0,0-3.99,15.02-13.93,28.77-2.79-22.72-11.14-34.83-11.14-34.83,0,0-28.65-7.95-30.24-28.77,5.55,8.29,21.94,12.67,34.62,7.95,27.3-10.16,52.07-46.87,84.76-7.95-.3-6.21-1.01-11.77-2.03-16.77l9.58-8.88-7.39,2.64,11.3-15.38-15.69,8.23,3.72-10.75-10.32,1.53c-17.87-27.23-51.26-18.17-51.26-18.17,9.15-14.39,25.47-19.69,25.47-19.69,0,0-49.74-37.48-102.67,7.57-52.93-45.05-102.67-7.57-102.67-7.57,0,0,16.32,5.3,25.47,19.69,0,0-33.38-9.06-51.26,18.17l-10.32-1.53,3.72,10.75-15.69-8.23,11.3,15.38-7.39-2.64,9.58,8.87c-1.02,5-1.72,10.56-2.03,16.77,32.69-38.92,57.46-2.21,84.76,7.95,12.68,4.72,29.07.34,34.62-7.95-1.59,20.82-30.24,28.77-30.24,28.77,0,0-8.36,12.11-11.14,34.83-9.93-13.76-13.93-28.77-13.93-28.77,0,0-11.94,7.95-30.64,7.57,5.85-5.53,15.12-9.09,15.12-9.09,0,0-15.52-4.92-24.27-13.25-42.58,21.2-30.24,53-30.24,53,0,0,20.96,39.25,50.8,8.96,0,0,4.35,25.42-2.25,26.25-12.07,1.51-29.85-8.83-29.85-8.83,0,0,17.51,26.5,63.67,30.29-39.79,4.54-58.59-2.78-58.59-2.78,0,0,2.61,19.94,57,19.94-15.12,4.92-35.82,3.98-35.82,3.98,0,0,.16,4.07,2.39,6.63-9.15,1.7-20.69-3.03-20.69-3.03,3.83,2.8,13,15.14,52.53,13.63-6.4,3.92-18.87,5.09-17.24,5.81,8.24,3.63,40.92,8.83,49.48,5.93,6.85-2.32,16.23-14.69,18.7-21.2,2.58-6.79-.08-22.02-2.79-28.77-2.39-5.97-12.03-15.51-17.11-19.69-5.57-4.58-19.89-11.51-23.08-17.41-2.78-5.14.8-20.07.8-20.07l12,14.81.75-5.61c.38-2.86,3.46-4.61,6.29-3.59,7.46,2.69,21.76,6.89,38.27,6.89s30.81-4.2,38.27-6.89c2.83-1.02,5.9.74,6.29,3.59l.75,5.61,12-14.81s3.57,14.92.8,20.07c-3.19,5.91-17.51,12.83-23.08,17.41-5.08,4.18-14.72,13.72-17.11,19.69-2.7,6.75-5.37,21.98-2.79,28.77,2.48,6.51,11.85,18.88,18.7,21.2,8.55,2.9,41.24-2.3,49.48-5.93,1.62-.71-10.85-1.88-17.24-5.81,39.53,1.51,48.7-10.82,52.53-13.63,0,0-11.54,4.73-20.69,3.03,2.23-2.55,2.39-6.63,2.39-6.63,0,0-20.69.95-35.81-3.98,54.39,0,57-19.94,57-19.94,0,0-18.8,7.32-58.59,2.78,46.16-3.79,63.67-30.29,63.67-30.29,0,0-17.78,10.35-29.85,8.83-6.61-.83-2.25-26.25-2.25-26.25,29.85,30.29,50.8-8.96,50.8-8.96,0,0,12.34-31.8-30.24-53ZM444.36,300.4c-13.01-.36-19.73-13.62-27.27-22.2-3.75-4.52-7.86-8.78-12.82-11.83-4.93-3.13-10.71-4.69-16.54-4.8v-1.03c17.1-5.27,31.55,7.2,42,18.93,3.34,3.46,6.93,7.64,10.73,9.62,4.93,2.59,8.86-.12,12.79-3.8,2.67-2.47,6.05-6.26,8.76-9.1,7.58-8,17.56-16.32,29.39-16.83,3.32-.19,6.56.26,9.57,1.17v1.03c-30.56.45-34.55,38.19-56.62,38.83Z"/>
    </g>
  </g>
</svg>