<?xml version="1.0" encoding="UTF-8"?>
<svg xmlns="http://www.w3.org/2000/svg" xmlns:xlink="http://www.w3.org/1999/xlink" viewBox="0 0 791.65 893.34">
  <defs>
    <style>
      .cls-1 {
        fill: #92959e;
      }

      .cls-2 {
        fill: #6d6c7a;
      }

      .cls-3 {
        clip-path: url(#clippath-6);
      }

      .cls-4 {
        clip-path: url(#clippath-7);
      }

      .cls-5 {
        clip-path: url(#clippath-4);
      }

      .cls-6 {
        fill: #ffd61c;
      }

      .cls-7 {
        clip-path: url(#clippath-9);
      }

      .cls-8 {
        fill: #062341;
      }

      .cls-9 {
        fill: none;
      }

      .cls-10 {
        clip-path: url(#clippath-1);
      }

      .cls-11 {
        isolation: isolate;
      }

      .cls-12 {
        clip-path: url(#clippath-5);
      }

      .cls-13 {
        clip-path: url(#clippath-8);
      }

      .cls-14 {
        opacity: .15;
      }

      .cls-15 {
        clip-path: url(#clippath-3);
      }

      .cls-16 {
        clip-path: url(#clippath-2);
      }

      .cls-17 {
        fill: #fff;
        mix-blend-mode: soft-light;
        opacity: .75;
      }

      .cls-18 {
        clip-path: url(#clippath);
      }
    </style>
    <clipPath id="clippath">
      <path class="cls-9" d="M161.04,536.49c4.38,4.46,10.15,8.73,10.15,8.73,0,0-.79-6.01-1.03-11.65l42.25-10.92s-16.38,17.76-27.96,29.21l10.7-2.41c8.85,30.48,32.44,60.97,32.44,60.97l-61.2-54.48-10.98-8.83c-5.29-4.26-.68-7.87,5.63-10.61Z"/>
    </clipPath>
    <clipPath id="clippath-1">
      <path class="cls-9" d="M636.9,536.49c-4.38,4.46-10.15,8.73-10.15,8.73,0,0,.79-6.01,1.03-11.65l-42.25-10.92s16.38,17.76,27.96,29.21l-10.7-2.41c-8.85,30.48-32.44,60.97-32.44,60.97l61.2-54.48,10.98-8.83c5.29-4.26.68-7.87-5.63-10.61Z"/>
    </clipPath>
    <clipPath id="clippath-2">
      <path class="cls-9" d="M669.97,596.77l35.63-27.94c-29.46-5.17-59.98,1.98-82.64,19.36l-43.48,33.35,1.24.92-152.03,144.47h-13.31l-17.1,22.92-17.11-22.92h-13.31l-182.36-167.72-4.52-1.6-12.27-9.41c-22.66-17.38-53.18-24.53-82.64-19.36l35.63,27.94h26.11l10.67,8.37-13.53,9.87,28.01,21.97,22.42-2.9,1.25-.93,134.35,133.25h0s-9.39,13.11-9.39,13.11l49.9,39.14,11.02-11.84,15.79,12.38,15.78-12.38,11.02,11.84,49.9-39.14-9.39-13.11,132.82-132.05,20.32,2.62,28.01-21.97-12.27-8.95,11.84-9.29h23.67Z"/>
    </clipPath>
    <clipPath id="clippath-3">
      <polygon class="cls-9" points="446.03 706.6 446.03 706.6 472.32 646.62 440.47 700.11 406.83 700.11 398.27 706.6 389.7 700.11 356.07 700.11 324.21 646.62 350.51 706.6 350.51 706.6 353.59 710.36 375.91 737.61 375.91 737.61 375.91 737.61 373.14 754.05 398.27 754.05 423.4 754.05 420.62 737.61 420.62 737.61 420.63 737.61 420.62 737.61 442.94 710.36 446.03 706.6"/>
    </clipPath>
    <clipPath id="clippath-4">
      <polygon class="cls-9" points="482.27 58.58 469.65 64.76 453.61 66.42 449.23 70.89 448.04 70.58 448.04 63.42 448.03 63.41 448.03 56.04 437.58 60.86 429.15 58.81 421.05 63.42 421.04 63.42 421.04 63.42 415.98 56.04 398.98 56.04 398.97 56.04 398.97 52.58 381.98 56.04 376.91 63.42 376.9 63.42 368.81 58.81 360.37 60.87 349.92 56.04 349.92 63.42 349.92 70.57 348.72 70.89 344.34 66.42 328.29 64.75 315.67 58.58 315.42 63.42 315.43 63.42 322.73 77.8 322.73 77.8 329 128.35 347.02 174.6 355.16 195.42 442.78 195.42 450.92 174.57 468.94 128.35 475.2 77.8 475.22 77.8 482.52 63.42 482.27 58.58"/>
    </clipPath>
    <clipPath id="clippath-5">
      <path class="cls-9" d="M222.7,431.77l3.35-104.65,18.33,74.4-10.06,14.03,143.83,65.71v190.49c-18.04-5.02-81.71-36.78-90.31-43.04,61.29-122.25-65.15-196.95-65.15-196.95Z"/>
    </clipPath>
    <clipPath id="clippath-6">
      <path class="cls-9" d="M575.24,431.77l-3.35-104.65-18.33,74.4,10.06,14.03-143.83,65.71v190.49c18.04-5.02,81.71-36.78,90.31-43.04-61.29-122.25,65.15-196.95,65.15-196.95Z"/>
    </clipPath>
    <clipPath id="clippath-7">
      <path class="cls-9" d="M398.97,383.18c-75.91,0-137.85-45.87-139.34-102.67l31.79-57.43,51.72-23.23,11.31-26.41,6.08,18.61,38.44-17.26,38.44,17.26,6.08-18.61,10.94,26.25,52.09,23.39,31.79,57.43c-1.49,56.8-63.42,102.67-139.34,102.67Z"/>
    </clipPath>
    <clipPath id="clippath-8">
      <path class="cls-9" d="M518.06,533.91l6.19-12.97,8.77,8.85c2.59-1.73,5.24-3.49,7.9-5.27l-11.76-11.87,8.59-10.54,14.65,14.79c2.53-1.68,5.04-3.33,7.48-4.95l-16.18-16.33,9.81-9.31,17.9,18.07c2.79-1.82,5.4-3.51,7.74-5.02-10.76-18.93-12.06-39.78-12.06-39.78-26.07,16.74-65.59,49.13-67.09,92.33,0,0,9.11-6.13,21.56-14.46l-3.51-3.54Z"/>
    </clipPath>
    <clipPath id="clippath-9">
      <path class="cls-9" d="M279.89,533.91l-6.19-12.97-8.77,8.85c-2.59-1.73-5.24-3.49-7.9-5.27l11.76-11.87-8.59-10.54-14.65,14.79c-2.53-1.68-5.04-3.33-7.48-4.95l16.18-16.33-9.81-9.31-17.9,18.07c-2.79-1.82-5.4-3.51-7.74-5.02,10.76-18.93,12.06-39.78,12.06-39.78,26.07,16.74,65.59,49.13,67.09,92.33,0,0-9.11-6.13-21.56-14.46l3.51-3.54Z"/>
    </clipPath>
  </defs>
  <g class="cls-11">
    <g id="Layer_2">
      <g id="Logos">
        <g>
          <path class="cls-6" d="M623.76,465.46s-.01-.03-.02-.05l3.77-4.3-1.32-29.84,15.95-107.64-41.09-38.99-28.37-86.51-40.23-34.95-1.06-3.47,7.71-16.77,7.49-51.3-6.94-16.94,4.39-40.26-19.98-9.18-10.51-19.73h-2.23l-2.26-5.51-54.3,3.6-.7-1.54h-23.6l-4.17-.86-1.78.86h-22l-1.38,1.8-5.21.28-5.53-.37-1.31-1.72h-15.68l-1.78-.86-4.17.86h-29.91l-.51,1.14-48.17-3.2-2.26,5.51h-8.54l-10.51,19.73-19.98,9.18,5.72,52.43-1.95,4.77,7.49,51.3,6.75,14.68-46.64,40.52-28.37,86.51-41.09,38.99,15.95,107.64-1.32,29.84,3.79,4.33L0,574.29l395.82,319.05,395.82-319.05-167.88-108.83Z"/>
          <g>
            <polygon class="cls-8" points="34.05 576.05 198.21 469.64 184.46 453.96 185.51 430.23 170.8 330.98 208.02 295.67 236.24 209.6 292.19 161 279.83 134.1 274.92 100.53 269.04 46.58 282.06 40.6 290.09 25.51 316.72 25.51 332.81 61.11 350.47 22.06 379.22 22.06 395.82 43.76 412.42 22.06 441.17 22.06 458.83 61.11 474.93 25.51 501.55 25.51 509.59 40.6 522.61 46.58 516.72 100.53 511.82 134.1 499.46 161 555.41 209.6 583.63 295.67 620.84 330.98 606.14 430.23 607.18 453.96 593.44 469.64 757.59 576.05 395.82 867.65 34.05 576.05"/>
            <g>
              <path class="cls-6" d="M161.04,536.49c4.38,4.46,10.15,8.73,10.15,8.73,0,0-.79-6.01-1.03-11.65l42.25-10.92s-16.38,17.76-27.96,29.21l10.7-2.41c8.85,30.48,32.44,60.97,32.44,60.97l-61.2-54.48-10.98-8.83c-5.29-4.26-.68-7.87,5.63-10.61Z"/>
              <g class="cls-18">
                <path class="cls-17" d="M161.4,551.92c6.77-9.05,39.57-17.06,39.57-17.06l18.17-16.78-70.51,16.92-3.88,9.89s14.11,10.43,16.66,7.03Z"/>
              </g>
              <path class="cls-6" d="M636.9,536.49c-4.38,4.46-10.15,8.73-10.15,8.73,0,0,.79-6.01,1.03-11.65l-42.25-10.92s16.38,17.76,27.96,29.21l-10.7-2.41c-8.85,30.48-32.44,60.97-32.44,60.97l61.2-54.48,10.98-8.83c5.29-4.26.68-7.87-5.63-10.61Z"/>
              <g class="cls-10">
                <path class="cls-17" d="M636.54,551.92c-6.77-9.05-39.57-17.06-39.57-17.06l-18.17-16.78,70.51,16.92,3.88,9.89s-14.11,10.43-16.66,7.03Z"/>
              </g>
              <polygon class="cls-1" points="446.03 706.6 446.03 706.6 472.32 646.62 440.47 700.11 406.83 700.11 398.27 706.6 389.7 700.11 356.07 700.11 324.21 646.62 350.51 706.6 350.51 706.6 353.59 710.36 375.91 737.61 375.91 737.61 375.91 737.61 373.14 754.05 398.27 754.05 423.4 754.05 420.62 737.61 420.62 737.61 420.63 737.61 420.62 737.61 442.94 710.36 446.03 706.6"/>
              <path class="cls-1" d="M669.97,596.77l35.63-27.94c-29.46-5.17-59.98,1.98-82.64,19.36l-43.48,33.35,1.24.92-152.03,144.47h-13.31l-17.1,22.92-17.11-22.92h-13.31l-182.36-167.72-4.52-1.6-12.27-9.41c-22.66-17.38-53.18-24.53-82.64-19.36l35.63,27.94h26.11l10.67,8.37-13.53,9.87,28.01,21.97,22.42-2.9,1.25-.93,134.35,133.25h0s-9.39,13.11-9.39,13.11l49.9,39.14,11.02-11.84,15.79,12.38,15.78-12.38,11.02,11.84,49.9-39.14-9.39-13.11,132.82-132.05,20.32,2.62,28.01-21.97-12.27-8.95,11.84-9.29h23.67Z"/>
              <g class="cls-16">
                <path class="cls-17" d="M88.88,574.09c.15,0,58.43,6.86,74.67,19.31l13.26,10.17,4.53,1.6,183.58,168.65h12.02l21.33,28.58,21.33-28.58h12.02l161.14-151.45-1.24-.92,36.59-28.06c16.24-12.45,70.61-19.31,70.75-19.31l12.79-7.57h-77.63l-235.03,192.35-280.76-206.96-43.56,14.61,14.21,7.57Z"/>
              </g>
              <g class="cls-15">
                <path class="cls-17" d="M535.07,624.01c-12.9,9.39-81.13,71.01-103.47,77.23l-14.26,3.97-18.35,5.11-18.35-5.11-14.26-3.97c-22.34-6.22-90.58-67.84-103.47-77.23v13.81c12.9,9.39,81.13,71.01,103.47,77.23l14.26,3.97,18.35,5.11,18.35-5.11,14.26-3.97c22.34-6.22,90.58-67.84,103.47-77.23v-13.81Z"/>
              </g>
              <g>
                <path class="cls-1" d="M252.02,586.87c2.06-4.11,3.86-8.14,5.44-12.1l-10.96-18.26-10.24-6.46-10.08-6.3v13.4l-11.57-10.3s7.87,33.33,27.3,60.19l10.11-20.16Z"/>
                <path class="cls-6" d="M303.69,649.71c-10.57-5.22-20.46-10.36-28.08-14.58.14,2.96.5,5.16,1.31,5.84,37.55,31.68,44.36,77.03,78.09,95.77l-51.32-86.88v-.15Z"/>
              </g>
              <g>
                <path class="cls-1" d="M545.93,586.87c-2.06-4.11-3.86-8.14-5.44-12.1l10.96-18.26,10.24-6.46,10.08-6.3v13.4s11.57-10.3,11.57-10.3c0,0-7.87,33.33-27.3,60.19l-10.11-20.16Z"/>
                <path class="cls-6" d="M494.26,649.71c10.57-5.22,20.46-10.36,28.08-14.58-.14,2.96-.5,5.16-1.31,5.84-37.55,31.68-44.36,77.03-78.09,95.77l51.32-86.88v-.15Z"/>
              </g>
            </g>
            <path class="cls-8" d="M428.31,22.45l.6-.29,11.76,2.42,55.35-3.67,30,73.24-6.29,43.05-9.69,21.07,91.79,301.13c.73,5.15,2.99,15.41,8.04,23.81l16.31,27.14-28.66,17.45c-2.42,1.47-12.65,7.78-12.65,7.78l-23.16,14.48-24.51,15.46s-.02.01-.02.02c2.16,6.88,5.08,14,8.77,21.35l11.99,33.22-22.87,16.66c-12.9,9.39-81.13,61.72-103.47,67.94l-14.26,3.97-18.35,5.11-18.35-5.11-14.26-3.97c-22.34-6.22-90.58-58.54-103.47-67.94l-22.87-16.66,11.99-33.22c3.69-7.35,6.61-14.47,8.77-21.35,0,0-.02-.01-.02-.02l-24.51-15.46-23.16-14.48s-10.24-6.31-12.65-7.78l-28.66-17.45,16.31-27.14c5.05-8.4,7.31-18.66,8.04-23.81l91.79-301.13-9.69-21.07-6.29-43.05,30-73.24,55.35,3.67,11.76-2.42.6.29,26.18,1.73,32.49-1.73Z"/>
            <polygon class="cls-6" points="482.27 58.58 469.65 64.76 453.61 66.42 449.23 70.89 448.04 70.58 448.04 63.42 448.03 63.41 448.03 56.04 437.58 60.86 429.15 58.81 421.05 63.42 421.04 63.42 421.04 63.42 415.98 56.04 398.98 56.04 398.97 56.04 398.97 52.58 381.98 56.04 376.91 63.42 376.9 63.42 368.81 58.81 360.37 60.87 349.92 56.04 349.92 63.42 349.92 70.57 348.72 70.89 344.34 66.42 328.29 64.75 315.67 58.58 315.42 63.42 315.43 63.42 322.73 77.8 322.73 77.8 329 128.35 347.02 174.6 355.16 195.42 442.78 195.42 450.92 174.57 468.94 128.35 475.2 77.8 475.22 77.8 482.52 63.42 482.27 58.58"/>
            <g class="cls-5">
              <polygon class="cls-17" points="316.87 70.53 340.4 72.96 346.11 78.8 357.75 75.71 357.75 67.45 359.47 68.25 367.51 66.29 375.2 70.67 381.74 69.71 386.96 62.11 391.14 61.26 391.14 62.95 411.56 62.95 416 69.43 422.44 70.84 430.45 66.29 438.47 68.25 440.2 67.45 440.2 75.71 451.84 78.8 457.55 72.96 481.07 70.53 485.98 59.82 483.72 52.58 308.09 52.58 316.87 70.53"/>
            </g>
            <polygon class="cls-17" points="398.92 172.16 338.4 180 332.43 163.31 332.43 155.17 336.47 151.24 327.21 119.59 351.5 141.25 349.47 114.21 368.59 136.57 368.87 101.45 388.36 135.52 398.97 90.45 409.58 135.52 429.07 101.44 429.35 136.57 448.47 114.22 446.44 141.25 470.73 119.58 461.47 151.24 465.52 155.17 465.52 181.53 398.92 172.16"/>
            <polygon class="cls-8" points="398.97 165.18 398.97 165.18 398.97 165.18 398.97 165.18 398.97 165.18 398.97 165.18 398.97 165.18 398.97 165.18 343.87 172.31 340.26 162.25 340.26 157.83 345.11 153.12 342.05 142.64 342.05 142.64 357.11 156.08 360.44 155.74 359.02 136.86 373.91 154.27 376.28 154.09 376.48 130.08 389.51 152.88 392.38 152.42 398.97 124.44 405.56 152.42 408.43 152.88 421.47 130.08 421.66 154.09 424.03 154.27 438.92 136.86 437.5 155.74 440.83 156.08 455.9 142.64 455.9 142.64 452.83 153.12 457.68 157.83 457.68 173.44 398.97 165.18 398.97 165.18 398.97 165.18 398.97 165.18 398.97 165.18 398.97 165.18 398.97 165.18 398.97 165.18 398.97 165.18"/>
            <path class="cls-8" d="M440.98,241.06c-12.03-4.82-26.17-7.27-42.01-7.27s-29.98,2.45-42.02,7.27l-28.53,11.44-11.02-40.48-15.48-17.85,26.99-56.04,19.35,26.45,50.7-5.72,51.05,5.76,21.4-25.88,24.45,55.6-15.33,17.68-11.01,40.48-28.54-11.44Z"/>
            <path class="cls-1" d="M445.85,231.63c-13.57-5.44-29.34-8.2-46.88-8.2s-33.31,2.76-46.88,8.2l-15.56,6.24-8.27-30.4-12.83-14.8,15.64-32.49,10.39,14.2.88,1.32,56.64-6.39,56.65,6.39.88-1.32,11.74-14.2,14.29,32.49-12.84,14.8-8.27,30.4-15.56-6.24Z"/>
            <path class="cls-1" d="M398.97,392.48c-82.79,0-149.91-51.07-149.91-114.06l34.43-62.21,115.47-51.86,115.47,51.86,34.43,62.21c0,62.99-67.12,114.06-149.91,114.06Z"/>
            <path class="cls-2" d="M398.97,278.51c-1.09,0-2.14-.03-3.15-.09,1.01-.06,2.06-.09,3.15-.09s2.14.03,3.15.09c-1.01.06-2.06.09-3.15.09Z"/>
            <g>
              <path class="cls-8" d="M244.38,401.52l-21.68-88,21.55-3.56c80.61-13.34,120.88-62.99,121.28-63.49l16.06-20.21,17.38,15.04,17.52-15.23,15.99,20.46c.35.45,40.62,50.1,121.23,63.43l21.55,3.56-21.68,88-154.59,38.42-154.59-38.42Z"/>
              <path class="cls-1" d="M398.97,441.77l134.76-53.49,15.14-61.46c-91.94-15.21-135.92-71.48-135.92-71.48l-13.99,12.17-13.99-12.17s-43.97,56.27-135.92,71.48l15.14,61.45,134.77,53.49Z"/>
            </g>
            <path class="cls-1" d="M575.25,431.77l-3.35-104.65-18.33,74.4,10.06,14.03-143.83,55.71v200.49c18.04-5.02,81.71-36.78,90.31-43.04-61.29-122.25,65.15-196.95,65.15-196.95Z"/>
            <path class="cls-1" d="M222.7,431.77l3.35-104.65,18.33,74.4-10.06,14.03,143.83,55.71v200.49c-18.04-5.02-81.71-36.78-90.31-43.04,61.29-122.25-65.15-196.95-65.15-196.95Z"/>
            <g class="cls-12">
              <path class="cls-14" d="M242.25,441.06s126.43,74.7,65.15,196.95c8.6,6.26-31.78.28-31.78.28l-33.37-197.23Z"/>
            </g>
            <g class="cls-3">
              <path class="cls-14" d="M555.7,441.06s-126.43,74.7-65.15,196.95c-8.6,6.26,31.78.28,31.78.28l33.37-197.23Z"/>
            </g>
            <path class="cls-8" d="M367.72,214.16l-18.58-57.06,11.15-2.93c4.67-1.23,28.45-7.34,38.69-7.34s34.03,6.11,38.69,7.34l11.15,2.93-18.58,57.06-31.26,26.93-31.25-26.93Z"/>
            <path class="cls-1" d="M378.15,208.67l20.82,17.94,20.82-17.94,14.51-44.57s-26.29-6.91-35.34-6.91-35.34,6.91-35.34,6.91l14.51,44.57Z"/>
            <path class="cls-17" d="M398.97,160.18l30.88,6.46-1.42,15.48,5.87-18.02s-26.29-6.91-35.34-6.91c-9.05,0-35.34,6.91-35.34,6.91l5.87,18.02-1.42-15.48s30.88-6.46,30.88-6.46Z"/>
            <g class="cls-4">
              <g>
                <g>
                  <path class="cls-8" d="M508.57,266.42s8.53-11.51,11.7-24.67c-14.3,11.07-28.97,16.39-28.97,16.39,5.24,2.91,10.99,5.7,17.26,8.28Z"/>
                  <path class="cls-8" d="M530.77,273.89s-.98-5.44-2.76-10.54c-6.16,2.77-16.45,4.32-16.45,4.32,5.94,2.31,12.35,4.41,19.22,6.22Z"/>
                  <path class="cls-8" d="M489.88,257.35s9.39-18.23,12.46-35.79c-14.94,7.05-31.43,23.05-31.43,23.05,5.35,4.23,11.66,8.58,18.98,12.74Z"/>
                  <path class="cls-8" d="M469.05,243.12s-5.91-12.8.64-35.65c-14.91,12.44-17.04,19.72-17.04,19.72,3.69,4.33,9.08,9.94,16.4,15.93Z"/>
                </g>
                <g>
                  <path class="cls-8" d="M289.38,266.42s-8.53-11.51-11.7-24.67c14.3,11.07,28.97,16.39,28.97,16.39-5.24,2.91-10.99,5.7-17.26,8.28Z"/>
                  <path class="cls-8" d="M267.17,273.89s.98-5.44,2.76-10.54c6.16,2.77,16.45,4.32,16.45,4.32-5.94,2.31-12.35,4.41-19.22,6.22Z"/>
                  <path class="cls-8" d="M308.07,257.35s-9.39-18.23-12.46-35.79c14.94,7.05,31.43,23.05,31.43,23.05-5.35,4.23-11.66,8.58-18.98,12.74Z"/>
                  <path class="cls-8" d="M328.9,243.12s5.91-12.8-.64-35.65c14.91,12.44,17.04,19.72,17.04,19.72-3.69,4.33-9.08,9.94-16.4,15.93Z"/>
                </g>
                <path class="cls-17" d="M245.87,292.63l-1.45-6.79c70.68-11.69,103.79-51.97,110.14-60.57l-12.24-49.57,3.63-.41,17.16,51.12-1.09,1.37c-3.62,5.22-38.07,51.94-116.16,64.86Z"/>
                <path class="cls-17" d="M552.07,292.63c-78.09-12.92-112.54-59.63-116.21-64.92l-.91-1.31.41-1.59,16.63-49.52,3.63.41-12.24,49.57c6.35,8.6,39.46,48.88,110.14,60.57l-1.45,6.79Z"/>
              </g>
            </g>
            <path class="cls-17" d="M448.81,389.02c-27.73-8.4-49.84-102.15-49.84-102.15,0,0-22.11,93.75-49.84,102.15-30.64,9.28-100.07-62.19-100.07-62.19l15.14,61.46,134.77,53.49,134.77-53.49,15.14-61.46s-69.43,71.48-100.07,62.19Z"/>
            <polygon class="cls-17" points="419.8 481.27 419.8 615.75 439.77 480.81 563.62 415.55 419.8 481.27"/>
            <polygon class="cls-17" points="378.15 481.27 378.15 615.75 358.18 480.81 234.32 415.55 378.15 481.27"/>
            <g class="cls-13">
              <path class="cls-1" d="M518.06,533.91l6.19-12.97,8.77,8.85c2.59-1.73,5.24-3.49,7.9-5.27l-11.76-11.87,8.59-10.54,14.65,14.79c2.53-1.68,5.04-3.33,7.48-4.95l-16.18-16.33,9.81-9.31,17.9,18.07c2.79-1.82,5.4-3.51,7.74-5.02-10.76-18.93-12.06-39.78-12.06-39.78-26.07,16.74-65.59,49.13-67.09,92.33,0,0,9.11-6.13,21.56-14.46l-3.51-3.54Z"/>
              <path class="cls-17" d="M501.78,537.85c17.13-41.44,39.25-54.61,65.32-71.35l1.07-14.2-45.44,34.98-20.34,38.3-.61,12.27Z"/>
            </g>
            <g class="cls-7">
              <path class="cls-1" d="M279.89,533.91l-6.19-12.97-8.77,8.85c-2.59-1.73-5.24-3.49-7.9-5.27l11.76-11.87-8.59-10.54-14.65,14.79c-2.53-1.68-5.04-3.33-7.48-4.95l16.18-16.33-9.81-9.31-17.9,18.07c-2.79-1.82-5.4-3.51-7.74-5.02,10.76-18.93,12.06-39.78,12.06-39.78,26.07,16.74,65.59,49.13,67.09,92.33,0,0-9.11-6.13-21.56-14.46l3.51-3.54Z"/>
              <path class="cls-17" d="M296.17,537.85c-17.13-41.44-39.25-54.61-65.32-71.35l-1.07-14.2,45.44,34.98,20.34,38.3.61,12.27Z"/>
            </g>
            <polygon class="cls-8" points="347.7 505.75 275.71 409.31 234.32 415.55 326.99 514.75 333.88 601.64 315.41 602.97 352.27 615.75 347.7 505.75"/>
            <polygon class="cls-8" points="450.25 505.75 522.23 409.31 563.62 415.55 470.96 514.75 464.07 601.64 482.53 602.97 445.67 615.75 450.25 505.75"/>
          </g>
        </g>
      </g>
    </g>
  </g>
</svg>