<?xml version="1.0" encoding="UTF-8"?>
<svg id="Layer_2" data-name="Layer 2" xmlns="http://www.w3.org/2000/svg" xmlns:xlink="http://www.w3.org/1999/xlink" viewBox="0 0 1126.18 1085.1">
  <defs>
    <style>
      .cls-1 {
        fill: #b2b266;
      }

      .cls-2 {
        fill: #010101;
      }

      .cls-3 {
        fill: #141414;
      }

      .cls-4 {
        fill: #fff;
      }

      .cls-5 {
        fill: #572a31;
      }

      .cls-6 {
        fill: none;
      }

      .cls-7 {
        clip-path: url(#clippath);
      }
    </style>
    <clipPath id="clippath">
      <polygon class="cls-6" points="175.91 635.28 563.09 135.04 950.26 635.28 563.09 985.97 175.91 635.28"/>
    </clipPath>
  </defs>
  <g id="Logos">
    <g>
      <path class="cls-2" d="M1109.82,359.98c4.18-11.75,5.14-20.41,5.29-22.09l4.44-47.7-46.81,10.08c-.35.08-4.48.96-11.3,2.33,1.46-9.91,1.37-16.91,1.29-19.08l-1.76-47.25-44.78,15.32c-.64.22-58.7,20.38-131.72,60.08l-6.73-45.37-49.74,54.55c-1.58,1.64-39.69,40.77-110.81,69.98l-154.12-259.58-154.12,259.58c-70.98-29.16-109.09-68.19-110.77-69.94l-49.78-54.77-6.73,45.53c-73.46-39.96-131.12-59.87-131.76-60.08l-44.74-15.31-1.75,47.25c-.08,2.16-.18,9.16,1.29,19.08-6.81-1.37-10.94-2.25-11.28-2.33l-46.83-10.09,4.44,47.68c.16,1.68,1.12,10.35,5.3,22.11l-16.36-2,11.89,49.28c.89,3.7,8.8,32.85,41.17,59.49l10.57,25.28c1.91,4.57,19.51,43.73,69.57,63.64l3.47,5.05c2.37,3.46,23.41,32.55,66.02,42.58,7.08,7.74,25.95,24.69,59.11,29.84l.28.26c1.4,1.31,5.73,5.13,12.81,9.41l-.95,1.78-9.02,8.03,4.22.99-24.09,45.26,318.04,307.19,318.04-307.19-24.12-45.32,3.8-.9-8.21-7.38-1.31-2.47c7.07-4.27,11.41-8.09,12.81-9.4l.27-.26c33.12-5.15,51.99-22.06,59.09-29.82,41.58-9.67,62.16-36.94,66.03-42.59l3.47-5.06c50.01-19.89,67.66-59.07,69.57-63.65l10.56-25.26c32.41-26.66,40.29-55.81,41.19-59.51l11.89-49.28-16.36,2Z"/>
      <g>
        <polygon class="cls-2" points="82.2 648.86 563.09 0 1043.97 648.86 563.09 1085.1 82.2 648.86"/>
        <polygon class="cls-1" points="563.09 33.91 108.09 646.23 563.09 1058.99 1018.09 646.23 563.09 33.91"/>
        <polygon class="cls-2" points="119.59 642.81 563.09 54.1 1006.59 642.81 563.09 1044.51 119.59 642.81"/>
        <polygon class="cls-5" points="144.59 639.95 563.09 1019 981.59 639.95 563.09 84.42 144.59 639.95"/>
        <g class="cls-7">
          <polygon class="cls-2" points="398.75 356.07 431.47 381.06 456.71 307.91 486.39 298.16 508.72 381.06 550.4 195.51 574.07 183.55 605.17 282.31 631.88 303.03 658.05 366.43 677.15 324.98 701.4 342.46 712.89 381.06 747.19 390.08 793.02 456.92 565.7 551.35 346.5 421.04 398.75 356.07"/>
          <g>
            <g>
              <path class="cls-2" d="M964.95,627.1c-106.53-90.18-247.51-145.14-401.86-145.14s-295.31,54.95-401.84,145.11l-7.9,13.09,4.44,4.03c105.76-94.1,248.48-151.86,405.3-151.86s299.53,57.78,405.3,151.86l4.44-4.03-7.88-13.06Z"/>
              <path class="cls-2" d="M563.09,511.56c-151.04,0-288.53,55.53-390.54,145.99l7.96,7.19c99.98-88.51,234.66-142.82,382.58-142.82s282.61,54.31,382.58,142.83l7.94-7.21c-102.01-90.46-239.5-145.99-390.53-145.99Z"/>
              <path class="cls-2" d="M563.09,541.17c-142.14,0-271.59,52.05-367.83,136.96l7.94,7.18c94.24-82.93,220.85-133.77,359.89-133.77s265.65,50.85,359.89,133.79l7.93-7.19c-96.24-84.91-225.68-136.96-367.81-136.96Z"/>
              <path class="cls-2" d="M563.09,570.78c-133.23,0-254.63,48.6-345.13,127.9l7.94,7.21c88.49-77.36,207.04-124.74,337.19-124.74s248.7,47.38,337.17,124.74l7.94-7.19c-90.49-79.31-211.88-127.91-345.12-127.91Z"/>
              <path class="cls-2" d="M563.09,600.38c-124.34,0-237.69,45.13-322.4,118.88l7.94,7.19c82.7-71.79,193.22-115.72,314.46-115.72s231.76,43.92,314.46,115.72l7.94-7.19c-84.72-73.75-198.06-118.88-322.4-118.88Z"/>
              <path class="cls-2" d="M563.09,629.99c-115.45,0-220.74,41.67-299.69,109.84l7.96,7.21c76.93-66.23,179.4-106.69,291.73-106.69s214.8,40.46,291.73,106.7l7.96-7.21c-78.95-68.17-184.22-109.85-299.69-109.85Z"/>
              <path class="cls-2" d="M563.09,659.59c-106.55,0-203.78,38.21-276.96,100.82l7.96,7.21c71.16-60.66,165.56-97.67,269-97.67s197.86,37.01,269,97.67l7.94-7.19c-73.17-62.63-170.4-100.84-276.95-100.84Z"/>
              <path class="cls-2" d="M563.09,689.2c-97.66,0-186.84,34.76-254.24,91.81l7.96,7.21c65.38-55.11,151.74-88.66,246.28-88.66s180.9,33.56,246.28,88.66l7.96-7.21c-67.41-57.04-156.59-91.81-254.24-91.81Z"/>
              <path class="cls-2" d="M563.09,718.81c-88.77,0-169.88,31.31-231.49,82.79l7.96,7.22c59.58-49.55,137.9-79.65,223.53-79.65s163.95,30.11,223.53,79.65l7.96-7.21c-61.61-51.48-142.74-82.81-231.49-82.81Z"/>
              <path class="cls-2" d="M563.09,748.41c-79.86,0-152.92,27.86-208.73,73.81l7.96,7.21c53.78-43.99,124.03-70.65,200.77-70.65s146.99,26.66,200.77,70.65l7.96-7.21c-55.81-45.95-128.87-73.81-208.73-73.81Z"/>
              <path class="cls-2" d="M563.09,778.02c-70.97,0-135.98,24.42-185.97,64.82l7.98,7.22c47.96-38.44,110.14-61.68,178-61.68s130.03,23.24,178,61.68l7.98-7.22c-50.01-40.38-115.01-64.82-185.97-64.82Z"/>
              <path class="cls-2" d="M563.09,807.62c-62.09,0-119.03,21.02-163.2,55.85l7.99,7.24c42.13-32.92,96.26-52.73,155.2-52.73s113.07,19.81,155.19,52.73l7.99-7.24c-44.18-34.83-101.11-55.85-163.18-55.85Z"/>
              <path class="cls-2" d="M692,869.22l-128.9,116.76-128.92-116.77c11.38-8.63,23.73-16.14,36.92-22.37l40.75,54.66-11.8-65.81c15.1-4.59,30.98-7.57,47.39-8.74l15.65,65.07,15.64-65.07c16.96,1.2,33.36,4.36,48.94,9.2l-12.35,65.73,41.21-54.37c12.63,6.08,24.51,13.39,35.46,21.71Z"/>
            </g>
            <polygon class="cls-6" points="972.83 640.16 968.39 644.19 953.62 657.55 945.68 664.76 930.91 678.13 922.98 685.32 908.21 698.69 900.27 705.88 885.5 719.27 877.55 726.46 862.79 739.84 854.83 747.05 840.04 760.43 832.1 767.63 817.33 781.01 809.37 788.22 794.59 801.61 786.63 808.82 771.83 822.22 763.87 829.43 749.07 842.84 741.09 850.06 726.27 863.48 718.28 870.72 699.51 887.72 563.09 1011.28 426.66 887.71 407.89 870.72 399.9 863.48 385.1 850.06 377.12 842.84 362.32 829.43 354.36 822.22 339.56 808.82 331.6 801.6 316.82 788.22 308.86 781.01 294.09 767.63 286.13 760.42 271.36 747.04 263.4 739.83 248.63 726.46 240.69 719.27 225.91 705.88 217.96 698.67 203.21 685.31 195.26 678.13 180.51 664.75 172.55 657.55 157.8 644.19 153.35 640.16 161.25 627.07 563.09 110.76 964.95 627.1 972.83 640.16"/>
          </g>
          <g>
            <polygon class="cls-1" points="395.31 699.21 395.31 694.9 376.92 694.9 376.92 699.21 381.52 699.21 381.52 759.66 353.94 694.9 340.15 694.9 340.15 699.21 344.74 699.21 344.74 776.93 340.15 776.93 340.15 781.25 358.54 781.25 358.54 776.93 353.94 776.93 353.94 716.49 381.52 781.25 390.72 781.25 390.72 781.25 395.31 781.25 395.31 776.93 390.72 776.93 390.72 699.21 395.31 699.21"/>
            <path class="cls-1" d="M781,779.04c-4.35-25.84-8.72-51.88-13.06-77.72h3.87v-4.32h-27.58v4.32h3.87c-4.34,25.84-8.72,51.88-13.06,77.72h-4.6v4.32h18.39v-4.32h-4.6c1.91-11.36,3.9-23.18,5.81-34.54h15.97c1.91,11.36,3.89,23.18,5.81,34.54h-4.6v4.32h18.39v-4.32h-4.6ZM751.48,735.87c1.67-9.9,3.41-20.32,5.08-30.22h2.9c1.67,9.9,3.41,20.32,5.08,30.22h-13.07Z"/>
          </g>
        </g>
      </g>
      <g>
        <path class="cls-2" d="M1080.12,334.64s-35.01,7.54-76.26,14.08c25-30.18,23.75-63.88,23.75-63.88,0,0-80.84,27.66-173.36,85,1.67-11.07-.42-25.15-.42-25.15,0,0-65.84,72.43-196.28,101.6-52.04,64.44-23.83,37.8-60.01,46.27,0,0-7.92-28.67-34.47-28.67s-34.47,28.67-34.47,28.67c-36.18-8.47-7.97,18.17-60.01-46.27-130.43-29.17-196.28-101.6-196.28-101.6,0,0-2.08,14.08-.42,25.15-92.51-57.34-173.36-85-173.36-85,0,0-1.25,33.7,23.75,63.88-41.26-6.54-76.26-14.08-76.26-14.08,0,0,4.58,49.29,62.92,67.9-34.17,0-62.92-3.52-62.92-3.52,0,0,15.42,63.88,125.43,75.95-40.84,6.04-75.43,3.52-75.43,3.52,0,0,22.5,53.82,100.85,53.31-10.83,3.27-31.25,9.05-31.25,9.05,0,0,24.17,35.21,76.68,30.18.18,4.78-14.59,7.54-14.59,7.54,0,0,21.25,27.16,70.84,19.62-5.07,5.87-12.5,9.56-12.5,9.56,0,0,22.09,20.62,62.09,14.59-4.34,7.09-9.38,11.57-9.38,11.57,0,0,33.24,7.82,43.96,6.04,3.37-.56,12.5-6.54,12.5-6.54l-3.91,12.4s31.27,5.64,41.42,3.69c1.24-.24,4.58-2.51,4.58-2.51v5.53l15.83,5.03,54.59-25.15-49.76,78.78,11.25,27.16,17.09,4.02-3.33,9.56,22.09,23.64,13.34-1.51-2.5,10.56,47.15,34.76,47.14-34.76-2.5-10.56,13.34,1.51,22.09-23.64-3.33-9.56,17.09-4.02,11.25-27.16-49.76-78.78,54.59,25.15,15.83-5.03v-5.53s3.34,2.28,4.58,2.51c10.15,1.94,41.42-3.69,41.42-3.69l-3.91-12.4s9.13,5.98,12.5,6.54c10.73,1.78,43.96-6.04,43.96-6.04,0,0-5.03-4.48-9.38-11.57,40,6.04,62.09-14.59,62.09-14.59,0,0-7.43-3.69-12.5-9.56,49.59,7.54,70.84-19.62,70.84-19.62,0,0-14.76-2.76-14.59-7.54,52.51,5.03,76.68-30.18,76.68-30.18,0,0-20.42-5.78-31.25-9.05,78.34.5,100.85-53.31,100.85-53.31,0,0-34.59,2.51-75.43-3.52,110.01-12.07,125.43-75.95,125.43-75.95,0,0-28.75,3.52-62.92,3.52,58.34-18.61,62.92-67.9,62.92-67.9Z"/>
        <path class="cls-1" d="M499.65,791.41l-.41.05-33.53-35.89.81-2.33-8.28-1.95-17.22-41.57,26.64-42.18-13.47,6.21-27.41-8.7c-14.3-.06-37.16-4.17-38.13-4.34l-16.92-3.05.82-2.59c-14.8-1.2-34.7-5.82-37.23-6.42l-28.35-6.67,6.13-5.46c-22.88-4.74-35.66-16.11-37.36-17.7l-5.01-4.68c-36.14-3.55-53-23.78-54.91-26.22l-2.18-2.78c-40.25-6.85-59.65-34.5-60.48-35.71l-7.06-10.28c-47.42-16.38-63.29-53.08-64.02-54.81l-9.5-22.72,8.47.61c-40.93-25.31-49.3-57.88-49.73-59.66l-5.12-21.23,21.68,2.65c.21.02,2.17.26,5.51.59-19.78-22.86-22.3-47.22-22.42-48.54l-1.91-20.55,20.18,4.35c.92.2,18.7,4,43.24,8.44-9.48-22.7-9.15-41.47-9.05-44l.75-20.36,19.28,6.59c.75.26,70.83,24.58,153.77,72.85.06-.44.1-.74.12-.87l4.68-31.64,21.5,23.66c.6.66,65.31,69.49,188.37,97.01l5.16,1.15,3.32,4.11c8.11,10.04,21.03,29.21,21.03,29.21,7.09-10.17,29.77-33.13,61.67-33.13s53.1,20.84,61.78,33.28c0,0,12.81-19.32,20.92-29.36l3.32-4.11,5.16-1.16c123.1-27.53,187.77-96.35,188.41-97.04l21.47-23.55,4.68,31.55c.02.13.06.44.12.89,82.94-48.27,153.02-72.59,153.76-72.85l19.29-6.6.76,20.36c.09,2.53.43,21.3-9.05,44,24.54-4.45,42.32-8.25,43.24-8.44l20.18-4.35-1.91,20.55c-.12,1.32-2.65,25.68-22.42,48.54,3.35-.33,5.31-.57,5.52-.59l21.67-2.65-5.13,21.23c-.43,1.77-8.79,34.34-49.72,59.65l8.46-.61-9.49,22.72c-.73,1.74-16.59,38.44-64.03,54.82l-7.05,10.27c-2.08,3.03-20.97,29.04-60.48,35.71l-2.17,2.77c-1.91,2.44-18.77,22.68-54.93,26.22l-5,4.68c-1.72,1.6-14.56,12.99-37.48,17.72l6.07,5.45-28.16,6.66c-2.53.6-22.43,5.22-37.23,6.42l.82,2.59-16.93,3.05c-.96.17-23.82,4.28-38.12,4.34l-27.41,8.7-13.47-6.21,26.64,42.18-17.22,41.57-8.28,1.95.81,2.33-33.53,35.89-.41-.05-63.43,46.77-63.44-46.77Z"/>
        <path class="cls-2" d="M1079.43,393.38c-.2.02-14.51,1.75-34.66,2.76,37.01-23.17,40.84-59.17,41-60.98l.72-7.71-7.57,1.63c-.31.07-27.85,5.98-62.4,11.81,17.57-27.92,16.81-54.97,16.76-56.26l-.28-7.64-7.23,2.47c-.79.27-77.07,26.65-165.2,79.85-.05-8.11-1.06-15.04-1.12-15.46l-1.75-11.83-8.06,8.84c-.65.71-66.35,71.49-193.32,99.88l-1.93.43-1.24,1.54c-12.78,15.83-18.79,32.27-28.52,38.95l-7.44-10.01c-7.37-10.61-27.76-29.35-54.1-29.35s-46.73,18.73-53.99,29.2l-7.55,10.16c-9.73-6.69-15.74-23.12-28.52-38.95l-1.24-1.54-1.94-.43c-126.96-28.39-192.67-99.17-193.31-99.88l-8.06-8.87-1.75,11.86c-.06.42-1.07,7.35-1.12,15.46-88.13-53.2-164.41-79.58-165.2-79.85l-7.23-2.47-.28,7.64c-.05,1.29-.81,28.34,16.76,56.26-34.55-5.83-62.09-11.74-62.4-11.81l-7.57-1.63.72,7.71c.17,1.81,3.99,37.81,41,60.98-20.16-1.01-34.46-2.74-34.66-2.76l-8.13-.99,1.92,7.96c.58,2.39,13.37,51.48,89.81,72.67-5.85.23-11.09.31-15.52.31-11.25,0-18.29-.5-18.36-.5l-9.21-.67,3.56,8.52c.84,2.01,18.69,43.05,75.49,54.09-1.35.38-9.81,2.78-9.81,2.78l4.48,6.52c.84,1.22,19.1,27.17,57.81,32.27l4.49,5.74c.72.92,17.62,21.95,55.28,23.07l-2.34,1.16,5.99,5.59c.75.7,18.82,17.22,51.53,17.22.62,0,1.25,0,1.88-.02-.37.36-.58.55-.59.56l-8.16,7.27,10.63,2.5c1.12.26,27.58,6.45,41.32,6.45,1.9,0,3.49-.11,4.87-.34.59-.1,1.25-.28,1.95-.52l-1.65,5.23,6.35,1.14c.95.17,23.4,4.19,36.74,4.19,1.74,0,3.25-.07,4.59-.2v1.29l21.89,6.95,23.54-10.84,2.77,5.53,3.14,2.66-31.37,49.66,13.49,32.56,13.78,3.25-2.39,6.85,26.38,28.23,8.15-.92-1.5,6.36,53.53,39.47,53.53-39.47-1.5-6.36,8.15.92,26.38-28.23-2.39-6.85,13.78-3.25,13.49-32.56-31.37-49.66,3.14-2.66,2.77-5.53,23.54,10.84,21.89-6.95v-1.29c1.33.13,2.85.2,4.59.2,13.34,0,35.79-4.02,36.74-4.19l6.35-1.14-1.65-5.23c.7.24,1.36.42,1.95.52,1.38.23,2.98.34,4.87.34,13.74,0,40.2-6.19,41.32-6.45l10.56-2.5-8.08-7.26s-.23-.21-.6-.57c.63.01,1.25.02,1.88.02,32.71,0,50.78-16.52,51.53-17.22l5.95-5.57-2.35-1.18c37.7-1.1,54.61-22.16,55.33-23.07l4.49-5.74c38.72-5.1,56.98-31.05,57.82-32.27l4.47-6.52s-8.46-2.4-9.81-2.78c56.8-11.04,74.65-52.08,75.48-54.09l3.56-8.52-9.21.67c-.07,0-7.12.5-18.36.5-4.43,0-9.67-.08-15.52-.31,76.44-21.19,89.24-70.28,89.81-72.67l1.92-7.96-8.13.99Z"/>
        <g>
          <path class="cls-5" d="M982.37,385.4c-23.9,7.66-48.49,12.83-73.27,16.4-8.65,1.22-17.38,2.17-26.1,2.87l.27-1.46c10.96-9.19,22.43-17.91,34.19-26.04,17.58-12.02,35.81-23.18,54.96-32.63-20.87,5.49-41.26,12.9-61.19,21.29-7.76,3.32-15.41,6.83-22.97,10.53l.08-.41-27.37,8.53c.14-1.58.23-3,.29-4.24l8.76-5.29c59.97-36.21,114.73-59.88,142.52-70.94-1.94,7.9-5.38,17.49-11.46,27.15l-21.72,34.51,40.21-6.78c16.36-2.76,31.23-5.55,42.44-7.74-4.51,9.28-12.58,20.53-26.92,29.51l-28.43,17.8c-9.74,6.1-20.28,10.84-31.31,14.06-25.46,7.43-50.27,14.31-74.88,19.45-7.3,1.52-14.86,1.23-22.03-.82l-3.2-.91c.41-.8.81-1.62,1.19-2.46,36.85-9.85,72.62-23.89,105.95-42.39Z"/>
          <path class="cls-5" d="M800.25,526.92h.02c5.75-2.87,12.12-4.26,18.54-4.01,30.89,1.19,61.47-4.34,91.06-12.61,4.25-1.18,10.43-2.91,14.64-4.02,2.45-.63-8.07-.88-15.4-.48-16.83,1.19-44.92-2.44-56.06-4.02-2.95-.42-5.46-2.35-6.62-5.09h0c20.58-1.58,41.98-3.84,61.96-6.27,10.61-1.29,21.3-1.71,31.97-1.29l54.75,2.15c3.51.14,7.02.23,10.51.28-9.52,9.69-25.09,20.6-49.24,25.29l-62.35,12.12c-28.08.82-61.65.96-96.02-.79.78-.39,1.53-.8,2.23-1.26Z"/>
          <path class="cls-5" d="M767.54,570.43c12.71,3.66,26.13,5.93,39.33,5.37,4.94-.22,10.11-.76,14.84-2.09-3.29-.11-6.5-.64-9.66-1.3-12.02-2.59-23.36-7.79-33.71-14.3,21.72,4.57,44.28,5.34,65.06,6.05,18.17.62,34.58,1.18,47.07,4.18l-1.87,2.39c-.82.98-13.35,15.33-41.52,16.16l-37.72,1.12c-5.86.17-11.7-.79-17.19-2.86-12.08-4.55-24.77-10.3-36.6-17.47l2.7-.34c2.98,1.1,6.49,2.17,9.27,3.09Z"/>
          <path class="cls-5" d="M760.99,595.67c3.55.82,7.13,1.52,10.73,1.87-14.94-5.43-28.43-14.61-39.95-25.38-.44-.42-.88-.85-1.32-1.27l.26-.03c6.22-.79,12.5.65,17.81,3.98,8.17,5.12,17.22,9.85,27.12,14.18l-1.44.04,38.3,19.03c-5.53,1.61-12.24,2.77-20.06,2.77-.5,0-1.01,0-1.51-.01l-21.97-.44c-4.19-.08-8.29-1.12-12.01-3.04-14.67-7.56-34.66-19.35-54.48-35.8l.11.02c6.37,1.07,12.5,3.35,17.95,6.82,12.44,7.91,26.1,13.85,40.46,17.27Z"/>
          <path class="cls-5" d="M855.17,486.08c5.55-7.19,13.41-12.22,22.29-14.14,23.63-5.12,46.88-12.25,69.2-21.35,9.49-3.88,18.84-8.04,27.83-12.82-14.61,4.3-29.48,7.21-44.47,9.52-17.62,2.63-35.64,4.17-53.47,4.46h0c3.58-4.1,8.46-6.85,13.81-7.84,29.03-5.37,58.11-13.38,88.05-22.12,11-3.21,22.34-5.14,33.78-5.71l33.49-1.68c4.62-.23,8.95-.5,12.89-.78-1.2,1.63-2.54,3.32-4.03,5.05-14.42,16.7-35.82,29.07-63.6,36.77l-96.97,26.88c-12.8,1.45-25.96,2.8-38.92,3.91.04-.05.07-.09.11-.14Z"/>
          <path class="cls-5" d="M897.62,559.21s-33.27-4.08-53.89-4.78c-21.35-.73-44.65-1.52-66.57-6.55h0c15.13-6.29,31.42-9.35,47.81-8.95,10.1.25,20.02.36,29.63.36,12.37,0,24.22-.18,35.3-.47,10.56-.28,21.1,1.06,31.26,3.94l14.59,4.14c-7.31,4.85-17.48,9.58-30.73,11.33l-7.4.97Z"/>
          <path class="cls-5" d="M749.72,614.67c-16.99-8.94-39.9-23.02-62-42.99-.46.11-.92.21-1.39.3,6.59,11.19,15.43,21.11,26.13,28.63,2.76,1.92,5.64,3.73,8.73,5.17-3.36-.66-6.66-1.73-9.9-2.96-11.52-4.44-21.92-11.25-30.95-19.6l-.09,6.19.17.71c.33.12.67.22,1,.36,4.77,1.96,8.27,5.59,9.87,10.24.08.25.16.49.23.74,9,6.26,17.94,11.79,25.33,16.12l29.11,10c.3.02.75.04,1.39.04,3.49,0,8.6-.59,14.11-1.45l-11.75-11.5Z"/>
          <path class="cls-5" d="M709.83,624.79c-5.65-3.35-12.06-7.32-18.68-11.75-.64,1.95-1.39,3.42-1.82,4.16,0,0-.92,1.9-2.84,4.59,1.01.63,2.04,1.25,3.08,1.84-1.22-.31-2.43-.68-3.64-1.07-2.11,2.83-5.23,6.35-9.47,9.47,6.3,2.72,13,4.48,19.88,5.17.49.05,1.37.11,2.75.11,5.19,0,12.6-.79,19.32-1.7-1.43-4.54-4.49-8.4-8.59-10.83Z"/>
          <path class="cls-5" d="M662.15,638.7l11.67,5.38.8-.25c-2.95-1.86-6.07-3.88-9.27-6.02-1.03.34-2.1.64-3.2.9Z"/>
        </g>
        <g>
          <path class="cls-5" d="M143.81,385.4c23.9,7.66,48.49,12.83,73.27,16.4,8.65,1.22,17.38,2.17,26.1,2.87l-.27-1.46c-10.96-9.19-22.43-17.91-34.19-26.04-17.58-12.02-35.81-23.18-54.96-32.63,20.87,5.49,41.26,12.9,61.19,21.29,7.76,3.32,15.41,6.83,22.97,10.53l-.08-.41,27.37,8.53c-.14-1.58-.23-3-.29-4.24l-8.76-5.29c-59.97-36.21-114.73-59.88-142.52-70.94,1.94,7.9,5.38,17.49,11.46,27.15l21.72,34.51-40.21-6.78c-16.36-2.76-31.23-5.55-42.44-7.74,4.51,9.28,12.58,20.53,26.92,29.51l28.43,17.8c9.74,6.1,20.28,10.84,31.31,14.06,25.46,7.43,50.27,14.31,74.88,19.45,7.3,1.52,14.86,1.23,22.03-.82l3.2-.91c-.41-.8-.81-1.62-1.19-2.46-36.85-9.85-72.62-23.89-105.95-42.39Z"/>
          <path class="cls-5" d="M325.92,526.92h-.02c-5.75-2.87-12.12-4.26-18.54-4.01-30.89,1.19-61.47-4.34-91.06-12.61-4.25-1.18-10.43-2.91-14.64-4.02-2.45-.63,8.07-.88,15.4-.48,16.83,1.19,44.92-2.44,56.06-4.02,2.95-.42,5.46-2.35,6.62-5.09h0c-20.58-1.58-41.98-3.84-61.96-6.27-10.61-1.29-21.3-1.71-31.97-1.29l-54.75,2.15c-3.51.14-7.02.23-10.51.28,9.52,9.69,25.09,20.6,49.24,25.29l62.35,12.12c28.08.82,61.65.96,96.02-.79-.78-.39-1.53-.8-2.23-1.26Z"/>
          <path class="cls-5" d="M358.64,570.43c-12.71,3.66-26.13,5.93-39.33,5.37-4.94-.22-10.11-.76-14.84-2.09,3.29-.11,6.5-.64,9.66-1.3,12.02-2.59,23.36-7.79,33.71-14.3-21.72,4.57-44.28,5.34-65.06,6.05-18.17.62-34.58,1.18-47.07,4.18l1.87,2.39c.82.98,13.35,15.33,41.52,16.16l37.72,1.12c5.86.17,11.7-.79,17.19-2.86,12.08-4.55,24.77-10.3,36.6-17.47l-2.7-.34c-2.98,1.1-6.49,2.17-9.27,3.09Z"/>
          <path class="cls-5" d="M365.19,595.67c-3.55.82-7.13,1.52-10.73,1.87,14.94-5.43,28.43-14.61,39.95-25.38.44-.42.88-.85,1.32-1.27l-.26-.03c-6.22-.79-12.5.65-17.81,3.98-8.17,5.12-17.22,9.85-27.12,14.18l1.44.04-38.3,19.03c5.53,1.61,12.24,2.77,20.06,2.77.5,0,1.01,0,1.51-.01l21.97-.44c4.19-.08,8.29-1.12,12.01-3.04,14.67-7.56,34.66-19.35,54.48-35.8l-.11.02c-6.37,1.07-12.5,3.35-17.95,6.82-12.44,7.91-26.1,13.85-40.46,17.27Z"/>
          <path class="cls-5" d="M271.01,486.08c-5.55-7.19-13.41-12.22-22.29-14.14-23.63-5.12-46.88-12.25-69.2-21.35-9.49-3.88-18.84-8.04-27.83-12.82,14.61,4.3,29.48,7.21,44.47,9.52,17.62,2.63,35.64,4.17,53.47,4.46h0c-3.58-4.1-8.46-6.85-13.81-7.84-29.03-5.37-58.11-13.38-88.05-22.12-11-3.21-22.34-5.14-33.78-5.71l-33.49-1.68c-4.62-.23-8.95-.5-12.89-.78,1.2,1.63,2.54,3.32,4.03,5.05,14.42,16.7,35.82,29.07,63.6,36.77l96.97,26.88c12.8,1.45,25.96,2.8,38.92,3.91-.04-.05-.07-.09-.11-.14Z"/>
          <path class="cls-5" d="M228.56,559.21s33.27-4.08,53.89-4.78c21.35-.73,44.65-1.52,66.57-6.55h0c-15.13-6.29-31.42-9.35-47.81-8.95-10.1.25-20.02.36-29.63.36-12.37,0-24.22-.18-35.3-.47-10.56-.28-21.1,1.06-31.26,3.94l-14.59,4.14c7.31,4.85,17.48,9.58,30.73,11.33l7.4.97Z"/>
          <path class="cls-5" d="M376.46,614.67c16.99-8.94,39.9-23.02,62-42.99.46.11.92.21,1.39.3-6.59,11.19-15.43,21.11-26.13,28.63-2.76,1.92-5.64,3.73-8.73,5.17,3.36-.66,6.66-1.73,9.9-2.96,11.52-4.44,21.92-11.25,30.95-19.6l.09,6.19-.17.71c-.33.12-.67.22-1,.36-4.77,1.96-8.27,5.59-9.87,10.24-.08.25-.16.49-.23.74-9,6.26-17.94,11.79-25.33,16.12l-29.11,10c-.3.02-.75.04-1.39.04-3.49,0-8.6-.59-14.11-1.45l11.75-11.5Z"/>
          <path class="cls-5" d="M416.35,624.79c5.65-3.35,12.06-7.32,18.68-11.75.64,1.95,1.39,3.42,1.82,4.16,0,0,.92,1.9,2.84,4.59-1.01.63-2.04,1.25-3.08,1.84,1.22-.31,2.43-.68,3.64-1.07,2.11,2.83,5.23,6.35,9.47,9.47-6.3,2.72-13,4.48-19.88,5.17-.49.05-1.37.11-2.75.11-5.19,0-12.6-.79-19.32-1.7,1.43-4.54,4.49-8.4,8.59-10.83Z"/>
          <path class="cls-5" d="M464.02,638.7l-11.67,5.38-.8-.25c2.95-1.86,6.07-3.88,9.27-6.02,1.03.34,2.1.64,3.2.9Z"/>
        </g>
        <path class="cls-5" d="M265.25,406.82c14.48,4.51,18.04,6.06,27.34,4.42-6.95-19.96-6.49-36.13-6.49-36.13l.19.15c14.47,11.72,24.35,28.15,27.91,46.42l3.56,18.27,14.31,17.7s17.21,18.2,24.14,22.76c5.23,3.45,17.28,7.48,22.69,10.63,4.66,2.71,9.76,6.93,20.41,6.93,11.04,0,14.3-4.09,18.89-5.96,2.81-1.14,11.72-3.13,11.72-3.13-13.05-4.06-28.62,10.45-43.22-.53,14.73-3.27,21.25-11.76,21.25-11.76,0,0-27.55,13.28-56.15-7.73.79-1.98,10.64-1.98,10.75-4.26-27.66-5.87-36.03-23.92-36.03-23.92,0,0,20.61.3,40.26,8.83-8.66-9.82-16.73-14.34-28.48-39,23.7,13.49,52.97,27.11,87.83,38.07,5.35,1.68,8.05,7.64,5.75,12.76l-4.59,10.22,10.26-7.48c9.91-7.23,24.05-5.18,31,4.93.05.07.09.13.14.2h0s-8.55,14.47,0,36.15c.45,1.15,6.55-1.67,6.55-1.67,0,0-1.38,12.14,6.23,25.31-2.81,2.02-5.51,4.77-5.51,4.77l13.58,1.87s-8.89,13.08-22.72,23.02c-3.98-1.56,2.69-14.32-.58-17.09-17.29,12.41-23.11,9.26-23.11,9.26,0,0,7.3-8.35,5.4-10.66-23.88,12.89-38.69,11-38.69,11,0,0,5.76-5.92,12.27-15.99-27.27,8.64-41.33,2.8-41.33,2.8,0,0,12.82-4.98,25.23-19.59-39.2,19.82-54.81,1.58-54.81,1.58,6.38-1.63,16.67-12.87,23.01-15.11-30.12,8.4-36.79,4.1-36.79,4.1,0,0,3.18-5.8,12.35-13.06-37.79,11.2-47.01.96-47.01.96,0,0,3.72-8.75,34.34-10.98-46.28,3.12-51.59-17.08-51.59-17.08,7.67,1.56,28.6-4.46,37.45.17-8.67-12.61-26.77,3.71-50.01-22.91,8.69-2.48,20.75-2.55,20.75-2.55,0,0-23.41-9.51-28.48-36.74Z"/>
        <path class="cls-5" d="M860.93,406.82c-14.48,4.51-18.04,6.06-27.34,4.42,6.95-19.96,6.49-36.13,6.49-36.13l-.19.15c-14.47,11.72-24.35,28.15-27.91,46.42l-3.56,18.27-14.31,17.7s-17.21,18.2-24.14,22.76c-5.23,3.45-17.28,7.48-22.69,10.63-4.66,2.71-9.76,6.93-20.41,6.93-11.04,0-14.3-4.09-18.89-5.96-2.81-1.14-11.72-3.13-11.72-3.13,13.05-4.06,28.62,10.45,43.22-.53-14.73-3.27-21.25-11.76-21.25-11.76,0,0,27.55,13.28,56.15-7.73-.79-1.98-10.64-1.98-10.75-4.26,27.66-5.87,36.03-23.92,36.03-23.92,0,0-20.61.3-40.26,8.83,8.66-9.82,16.73-14.34,28.48-39-23.7,13.49-52.97,27.11-87.83,38.07-5.35,1.68-8.05,7.64-5.75,12.76l4.59,10.22-10.26-7.48c-9.91-7.23-24.05-5.18-31,4.93-.05.07-.09.13-.14.2h0s8.55,14.47,0,36.15c-.45,1.15-6.55-1.67-6.55-1.67,0,0,1.38,12.14-6.23,25.31,2.81,2.02,5.51,4.77,5.51,4.77l-13.58,1.87s8.89,13.08,22.72,23.02c3.98-1.56-2.69-14.32.58-17.09,17.29,12.41,23.11,9.26,23.11,9.26,0,0-7.3-8.35-5.4-10.66,23.88,12.89,38.69,11,38.69,11,0,0-5.76-5.92-12.27-15.99,27.27,8.64,41.33,2.8,41.33,2.8,0,0-12.82-4.98-25.23-19.59,39.2,19.82,54.81,1.58,54.81,1.58-6.38-1.63-16.67-12.87-23.01-15.11,30.12,8.4,36.79,4.1,36.79,4.1,0,0-3.18-5.8-12.35-13.06,37.79,11.2,47.01.96,47.01.96,0,0-3.72-8.75-34.34-10.98,46.28,3.12,51.59-17.08,51.59-17.08-7.67,1.56-28.6-4.46-37.45.17,8.67-12.61,26.77,3.71,50.01-22.91-8.69-2.48-20.75-2.55-20.75-2.55,0,0,23.41-9.51,28.48-36.74Z"/>
        <g>
          <g>
            <polygon class="cls-1" points="555.89 507.76 554.65 505.33 552.12 504.45 555.89 507.76"/>
            <polygon class="cls-1" points="570.29 507.76 571.52 505.33 574.06 504.45 570.29 507.76"/>
            <path class="cls-1" d="M576.85,501.81h-4.27l-3.4-8.77c0-1.64-6.09-4.25-6.09-4.25,0,0-6.09,2.61-6.09,4.25l-3.4,8.77h-4.27l5.79,2.98.43.85h-.01s1.67,3.27,1.67,3.27h.02s5.87,11.52,5.87,11.52l5.87-11.51h.02s1.67-3.29,1.67-3.29h-.01s.43-.85.43-.85l5.79-2.98ZM560.52,496.32l-.57-.68c-.22-.26-.18-.62.08-.84l1.62-1.34-1.13,2.86ZM566.23,495.64l-.57.68-1.13-2.86,1.62,1.34c.26.22.3.58.08.84Z"/>
          </g>
          <g>
            <path class="cls-1" d="M578.02,498.49s1.03-3.82,2.16-4.72,4.96-2.49,4.96-2.49c0,0,.15,3.82-1.31,4.82-1.16.8-5.81,2.39-5.81,2.39Z"/>
            <path class="cls-1" d="M548.16,498.49s-1.03-3.82-2.16-4.72-4.96-2.49-4.96-2.49c0,0-.15,3.82,1.31,4.82,1.16.8,5.81,2.39,5.81,2.39Z"/>
          </g>
          <path class="cls-4" d="M624.59,536.08s-4.34-8.04-11.92-16.26c3.47,3.94,10.19,3.08,10.19,3.08,0,0-6.34-5.96-7.37-8.38-2.65-6.25-13.47-25.54-13.47-25.54l5.9,2.61-11.23-13.95c-1.17-1.58-2.59-3.19-4.3-4.74h2.66l-8.01-5.77c-1.11-.87-2.54-1.76-4.35-2.58l-2.97,1.08c-.23-.08-.46-.15-.69-.23l1.42-1.76c-3.46-1.24-8.03-2.19-14.08-2.44-1.05-.04-3.28-1.89-3.28-1.89,0,0-2.23,1.85-3.28,1.89-6.05.25-10.62,1.21-14.08,2.44l1.42,1.76c-.23.07-.46.15-.69.23l-2.97-1.08c-1.81.82-3.24,1.71-4.35,2.58l-8.01,5.77h2.66c-1.71,1.55-3.13,3.16-4.3,4.74l-11.23,13.95,5.9-2.61s-10.82,19.28-13.47,25.54c-1.02,2.42-7.37,8.38-7.37,8.38,0,0,6.72.86,10.19-3.08-7.59,8.21-11.92,16.26-11.92,16.26,0,0,6.07-.51,9.97-3.42-.87,7.02.87,16.43.87,16.43,0,0,4.83-10.82,8.67-10.27.65,9.58,5.16,17.62,5.16,17.62,0,0,1.23-6.56,3.51-6.67,1.73,5.3,9.81,13.69,9.81,13.69l-.92-15.23,5.04-11.64s-6.12,3.94-9.37,7.87c-1.94-6.32-1.08-12.32-1.08-12.32l9.79-13.55c1.53-2.23,2.33-4.72,2.33-7.26v-3.84s-5.52,1.24-9.92-2.09c5.2-1.71,7.8-3.59,7.8-3.59,0,0-3.37-2.24-4.46-3.68-3.73-4.92-6.49-15.93-6.49-15.93,0,0,6.48,5.39,9.65,6.1,6.23,1.39,7.4,6.16,8.67,6.16.25-1.44.91-2.73,1.79-3.89l-2.17-4.67,4.35,2.4c3.17-2.66,7.23-4.11,8.53-4.11s5.36,1.45,8.53,4.11l4.34-2.4-2.17,4.67c.88,1.16,1.54,2.45,1.79,3.89,1.27,0,2.44-4.77,8.67-6.16,3.17-.71,9.65-6.1,9.65-6.1,0,0-2.76,11.01-6.49,15.93-1.09,1.44-4.46,3.68-4.46,3.68,0,0,2.6,1.88,7.8,3.59-4.4,3.32-9.92,2.09-9.92,2.09v3.84c0,2.53.8,5.03,2.33,7.26l9.79,13.55s.85,6-1.08,12.32c-3.25-3.94-9.37-7.87-9.37-7.87l5.04,11.64-.92,15.23s8.07-8.38,9.81-13.69c2.28.11,3.51,6.67,3.51,6.67,0,0,4.51-8.04,5.16-17.62,3.84-.55,8.67,10.27,8.67,10.27,0,0,1.73-9.41.87-16.43,3.9,2.91,9.97,3.42,9.97,3.42Z"/>
          <path class="cls-3" d="M538.61,511.35s-7.61,14.73-11.88,18.03c-1.95,1.51-9.32,3.17-9.32,3.17l6.66-6.31-6.66,2.08,10.6-6.37,10.6-10.6Z"/>
          <path class="cls-3" d="M531.13,505.38s-3.22,9.65-5.68,11.82c-1.84,1.63-9.32,3.17-9.32,3.17l6.66-6.31-6.66,2.08,10.6-6.37,4.4-4.4Z"/>
          <path class="cls-3" d="M587.57,511.35s7.61,14.73,11.88,18.03c1.95,1.51,9.32,3.17,9.32,3.17l-6.66-6.31,6.66,2.08-10.6-6.37-10.6-10.6Z"/>
          <path class="cls-3" d="M595.05,505.38s3.22,9.65,5.68,11.82c1.84,1.63,9.32,3.17,9.32,3.17l-6.66-6.31,6.66,2.08-10.6-6.37-4.4-4.4Z"/>
          <polygon class="cls-3" points="595.5 496.1 595.5 493.22 604.41 500.23 598.26 498.73 604.41 508.47 591.91 498.97 595.5 496.1"/>
          <polygon class="cls-3" points="530.68 496.1 530.68 493.22 521.76 500.23 527.92 498.73 521.76 508.47 534.26 498.97 530.68 496.1"/>
        </g>
        <g>
          <path class="cls-5" d="M680.2,610.11c1.44-1.71.81-5.47-2.85-7.83-3.97-2.56-7.28-1-8.72.71,0,0,4.34-7.14,10.63-3.08,6.01,3.88.93,10.19.93,10.19Z"/>
          <path class="cls-4" d="M664.05,617.41c.68-1.1,2.57-4.07,2.57-4.07,0,0,.36-2.03,3.85-.6.54.22.98.62,1.3,1.07-2.66,3.74-6.44,6.65-6.44,6.65,0,0,5.78-3.28,6.92-5.28,0,0,.07.3-.09.56-3.55,5.84-12.92,7.6-12.92,7.6,0,0,3.8-4.32,4.81-5.94Z"/>
        </g>
        <g>
          <path class="cls-5" d="M625.79,584.35c-.05-2.53,2.87-5.49,7.33-5.11,4.84.41,6.49,4.09,6.54,6.62,0,0,1.12-9.41-6.56-10.06-7.33-.62-7.31,8.55-7.31,8.55Z"/>
          <path class="cls-4" d="M633.66,601.43c.2-1.52.76-5.85.76-5.85,0,0,1.05-1.99-2.72-3.07-.58-.17-1.21-.09-1.77.11-.42,5.41.63,10.81.63,10.81,0,0-2.39-7.15-1.95-9.85,0,0-.26.24-.31.6-1.13,8.04,5.17,16.24,5.17,16.24,0,0-.1-6.75.19-9Z"/>
        </g>
        <g>
          <g>
            <path class="cls-4" d="M656.29,594.14c.62,4.18-3.54,11.44-3.54,11.44,0,0,4.26-3.99,4.67-10.89,1.05.85,2.61,3.06-.24,7.66-3.18,5.13-8.09,9.46-8.09,9.46,0,0,.65-3.29.73-4.4.18-2.29-.06-6.96.55-9.17,1.26-4.55,4.7-4.33,5.91-4.1Z"/>
            <path class="cls-5" d="M664.45,574.68c3.01,1.24,5.27,3.97,5.95,6.87-2.27-2.32-5.89-3.97-5.89-3.97,0,0,3.94,2.4,6.02,6.87-.22,1.4-.88,2.73-2.08,3.84.68-1.88.58-4-.38-5.86-1.03-2.01-2.73-3.65-4.93-4.55s-4.56-.92-6.71-.22c-1.99.65-3.55,2.09-4.39,3.9-.27-6.09,6.92-9.13,12.41-6.88Z"/>
          </g>
          <path class="cls-1" d="M650.06,591.16c1.12-1.39,3.72-2.23,3.72-2.23,0,0-1.97.28-3.16.72l2.24-6c1.1-2.68,5.08-3.92,8.74-2.42,3.66,1.5,5.62,5.18,4.52,7.86l-.27.66c-.23-.58-.7-1.16-1.24-1.68-1.33-1.29-3-2.18-4.79-2.66l-.81-.22.2.11c1.5.85,2.79,2.02,3.76,3.45.75,1.11,1.45,2.4,1.47,3.39l.02.98-.43,1.06c-.06-.21-.13-.42-.2-.62-1.16-3.12-4.35-5.01-7.67-4.8l-.99.06.77.16c2.54.53,4.79,2.15,5.88,4.51.16.35.3.72.42,1.11.4,1.38.12,2.9-.79,4.01-.21.26-.44.47-.67.61,1.23-2.99-.29-6.45-3.39-7.72-3.1-1.27-6.61.12-7.83,3.12-.02.06-.05.24-.07.18-.72-1.69.57-3.65.57-3.65Z"/>
        </g>
        <path class="cls-5" d="M610.26,649.35c.68,2.12,2.49,3.82,4.55,4.45-1.52-1.68-2.45-4.24-2.45-4.24,0,0,1.45,2.82,4.55,4.5,1.03-.07,4.6-1.29,5.5-2.04-1.42.35-5.5,1.01-6.79.25-1.38-.82-2.45-2.07-2.94-3.62s-.33-3.16.34-4.57c.62-1.32,1.78-2.29,3.17-2.76-4.41-.54-7.15,4.17-5.92,8.04Z"/>
        <path class="cls-1" d="M626.3,639.77c-1.09.68-1.9,2.4-1.9,2.4,0,0,.35-1.32.76-2.1l-7.08,2.02c-2.03.59-3.23,3.22-2.41,5.8.82,2.58,5.9,3.28,7.93,2.69l.5-.15c-.4-.19-.79-.54-1.13-.94-.84-.98-1.36-2.17-1.58-3.41l-.1-.57.07.14c.51,1.07,1.26,2.02,2.23,2.76.75.58,1.64,1.13,2.36,1.2l.71.07.8-.23c-.15-.05-.3-.11-.44-.17-2.18-.97-3.32-3.25-2.92-5.5l.12-.67.06.54c.2,1.76,1.21,3.38,2.84,4.26.24.13.5.25.78.35.97.36,2.1.25,2.98-.3.2-.13.38-.27.49-.42-2.27.66-4.67-.57-5.36-2.76-.69-2.18.58-4.49,2.85-5.15.05-.01.18-.02.14-.04-1.17-.59-2.7.18-2.7.18Z"/>
        <path class="cls-4" d="M633.63,639.19c-1.15.52-4.41,2.02-4.41,2.02,0,0-1.86.18-.92,3.06.14.44.48.82.87,1.09,3.95-2.05,7.24-5.03,7.24-5.03,0,0-3.9,4.6-5.98,5.46,0,0,.28.06.56-.06,6.1-2.71,8.99-10.27,8.99-10.27,0,0-4.65,2.96-6.35,3.73Z"/>
        <path class="cls-1" d="M626.38,591.6c.59-1.14,2.37-2.19,2.37-2.19,0,0-1.41.56-2.21,1.08l.63-4.4c.35-1.99,3.08-3.57,6.04-3.28,2.96.29,5.05,2.35,4.69,4.33l-.09.49c-.27-.34-.72-.63-1.2-.87-1.2-.6-2.59-.86-4-.84h-.64s.17.05.17.05c1.25.27,2.41.8,3.37,1.56.75.59,1.49,1.31,1.67,1.96l.18.64-.14.78c-.08-.13-.17-.25-.26-.37-1.39-1.84-4.08-2.48-6.5-1.7l-.72.23.6-.04c1.97-.13,3.91.5,5.12,1.85.18.2.35.42.5.65.54.84.59,1.9.1,2.81-.11.21-.24.4-.39.53.39-2.22-1.32-4.21-3.83-4.46-2.51-.25-4.86,1.35-5.25,3.57,0,.05,0,.17-.02.13-.83-.98-.2-2.52-.2-2.52Z"/>
        <path class="cls-1" d="M675.24,615.62c.28-1.25-.39-3.2-.39-3.2,0,0,.71,1.34.99,2.25l2.36-3.76c1.01-1.74-.05-4.71-2.5-6.4-2.45-1.69-5.37-1.46-6.38.28l-.25.43c.42-.08.95-.02,1.48.11,1.31.32,2.54,1.01,3.59,1.94l.48.42-.15-.08c-1.13-.6-2.36-.94-3.58-.99-.95-.03-1.98.04-2.54.42l-.55.37-.4.69c.15-.05.29-.09.44-.12,2.25-.51,4.71.74,6.06,2.89l.4.64-.43-.42c-1.42-1.37-3.31-2.14-5.11-1.89-.26.04-.53.09-.8.18-.95.29-1.67,1.07-1.89,2.08-.05.23-.07.46-.04.66,1.13-1.95,3.73-2.36,5.8-.93,2.08,1.43,2.84,4.17,1.71,6.11-.02.04-.12.12-.07.12,1.26-.21,1.79-1.8,1.79-1.8Z"/>
        <path class="cls-1" d="M630.07,631.79c1.86-1.75,5.06-5.26,6.92-8,.7-4.23.76-8.66-.1-12.84,1.72,3.19,2.79,6.78,2.8,10.41,1.72-2,3.74-3.73,5.97-5.07-1.63,2.01-3.18,4.03-4.67,6.07,3.69-1.29,7.96-2.21,11.3-.42-2.3-.56-4.59.03-6.81.62-2.11.6-5.06,1.39-7.09,2.26-1.81,2.59-5.37,6.33-8.32,6.96Z"/>
        <g>
          <path class="cls-5" d="M445.97,610.11c-1.44-1.71-.81-5.47,2.85-7.83,3.97-2.56,7.28-1,8.72.71,0,0-4.34-7.14-10.63-3.08-6.01,3.88-.93,10.19-.93,10.19Z"/>
          <path class="cls-4" d="M462.12,617.41c-.68-1.1-2.57-4.07-2.57-4.07,0,0-.36-2.03-3.85-.6-.54.22-.98.62-1.3,1.07,2.66,3.74,6.44,6.65,6.44,6.65,0,0-5.78-3.28-6.92-5.28,0,0-.07.3.09.56,3.55,5.84,12.92,7.6,12.92,7.6,0,0-3.8-4.32-4.81-5.94Z"/>
        </g>
        <g>
          <path class="cls-5" d="M500.38,584.35c.05-2.53-2.87-5.49-7.33-5.11-4.84.41-6.49,4.09-6.54,6.62,0,0-1.12-9.41,6.56-10.06,7.33-.62,7.31,8.55,7.31,8.55Z"/>
          <path class="cls-4" d="M492.51,601.43c-.2-1.52-.76-5.85-.76-5.85,0,0-1.05-1.99,2.72-3.07.58-.17,1.21-.09,1.77.11.42,5.41-.63,10.81-.63,10.81,0,0,2.39-7.15,1.95-9.85,0,0,.26.24.31.6,1.13,8.04-5.17,16.24-5.17,16.24,0,0,.1-6.75-.19-9Z"/>
        </g>
        <g>
          <g>
            <path class="cls-4" d="M469.88,594.14c-.62,4.18,3.54,11.44,3.54,11.44,0,0-4.26-3.99-4.67-10.89-1.05.85-2.61,3.06.24,7.66,3.18,5.13,8.09,9.46,8.09,9.46,0,0-.65-3.29-.73-4.4-.18-2.29.06-6.96-.55-9.17-1.26-4.55-4.7-4.33-5.91-4.1Z"/>
            <path class="cls-5" d="M461.73,574.68c-3.01,1.24-5.27,3.97-5.95,6.87,2.27-2.32,5.89-3.97,5.89-3.97,0,0-3.94,2.4-6.02,6.87.22,1.4.88,2.73,2.08,3.84-.68-1.88-.58-4,.38-5.86,1.03-2.01,2.73-3.65,4.93-4.55,2.21-.9,4.56-.92,6.71-.22,1.99.65,3.55,2.09,4.39,3.9.27-6.09-6.92-9.13-12.41-6.88Z"/>
          </g>
          <path class="cls-1" d="M476.11,591.16c-1.12-1.39-3.72-2.23-3.72-2.23,0,0,1.97.28,3.16.72l-2.24-6c-1.1-2.68-5.08-3.92-8.74-2.42-3.66,1.5-5.62,5.18-4.52,7.86l.27.66c.23-.58.7-1.16,1.24-1.68,1.33-1.29,3-2.18,4.79-2.66l.81-.22-.2.11c-1.5.85-2.79,2.02-3.76,3.45-.75,1.11-1.45,2.4-1.47,3.39l-.02.98.43,1.06c.06-.21.13-.42.2-.62,1.16-3.12,4.35-5.01,7.67-4.8l.99.06-.77.16c-2.54.53-4.79,2.15-5.88,4.51-.16.35-.3.72-.42,1.11-.4,1.38-.12,2.9.79,4.01.21.26.44.47.67.61-1.23-2.99.29-6.45,3.39-7.72,3.1-1.27,6.61.12,7.83,3.12.02.06.05.24.07.18.72-1.69-.57-3.65-.57-3.65Z"/>
        </g>
        <path class="cls-5" d="M515.92,649.35c-.68,2.12-2.49,3.82-4.55,4.45,1.52-1.68,2.45-4.24,2.45-4.24,0,0-1.45,2.82-4.55,4.5-1.03-.07-4.6-1.29-5.5-2.04,1.42.35,5.5,1.01,6.79.25,1.38-.82,2.45-2.07,2.94-3.62.49-1.55.33-3.16-.34-4.57-.62-1.32-1.78-2.29-3.17-2.76,4.41-.54,7.15,4.17,5.92,8.04Z"/>
        <path class="cls-1" d="M499.88,639.77c1.09.68,1.9,2.4,1.9,2.4,0,0-.35-1.32-.76-2.1l7.08,2.02c2.03.59,3.23,3.22,2.41,5.8-.82,2.58-5.9,3.28-7.93,2.69l-.5-.15c.4-.19.79-.54,1.13-.94.84-.98,1.36-2.17,1.58-3.41l.1-.57-.07.14c-.51,1.07-1.26,2.02-2.23,2.76-.75.58-1.64,1.13-2.36,1.2l-.71.07-.8-.23c.15-.05.3-.11.44-.17,2.18-.97,3.32-3.25,2.92-5.5l-.12-.67-.06.54c-.2,1.76-1.21,3.38-2.84,4.26-.24.13-.5.25-.78.35-.97.36-2.1.25-2.98-.3-.2-.13-.38-.27-.49-.42,2.27.66,4.67-.57,5.36-2.76.69-2.18-.58-4.49-2.85-5.15-.05-.01-.18-.02-.14-.04,1.17-.59,2.7.18,2.7.18Z"/>
        <path class="cls-4" d="M492.54,639.19c1.15.52,4.41,2.02,4.41,2.02,0,0,1.86.18.92,3.06-.14.44-.48.82-.87,1.09-3.95-2.05-7.24-5.03-7.24-5.03,0,0,3.9,4.6,5.98,5.46,0,0-.28.06-.56-.06-6.1-2.71-8.99-10.27-8.99-10.27,0,0,4.65,2.96,6.35,3.73Z"/>
        <path class="cls-1" d="M499.8,591.6c-.59-1.14-2.37-2.19-2.37-2.19,0,0,1.41.56,2.21,1.08l-.63-4.4c-.35-1.99-3.08-3.57-6.04-3.28-2.96.29-5.05,2.35-4.69,4.33l.09.49c.27-.34.72-.63,1.2-.87,1.2-.6,2.59-.86,4-.84h.64s-.17.05-.17.05c-1.25.27-2.41.8-3.37,1.56-.75.59-1.49,1.31-1.67,1.96l-.18.64.14.78c.08-.13.17-.25.26-.37,1.39-1.84,4.08-2.48,6.5-1.7l.72.23-.6-.04c-1.97-.13-3.91.5-5.12,1.85-.18.2-.35.42-.5.65-.54.84-.59,1.9-.1,2.81.11.21.24.4.39.53-.39-2.22,1.32-4.21,3.83-4.46,2.51-.25,4.86,1.35,5.25,3.57,0,.05,0,.17.02.13.83-.98.2-2.52.2-2.52Z"/>
        <path class="cls-1" d="M450.93,615.62c-.28-1.25.39-3.2.39-3.2,0,0-.71,1.34-.99,2.25l-2.36-3.76c-1.01-1.74.05-4.71,2.5-6.4,2.45-1.69,5.37-1.46,6.38.28l.25.43c-.42-.08-.95-.02-1.48.11-1.31.32-2.54,1.01-3.59,1.94l-.48.42.15-.08c1.13-.6,2.36-.94,3.58-.99.95-.03,1.98.04,2.54.42l.55.37.4.69c-.15-.05-.29-.09-.44-.12-2.25-.51-4.71.74-6.06,2.89l-.4.64.43-.42c1.42-1.37,3.31-2.14,5.11-1.89.26.04.53.09.8.18.95.29,1.67,1.07,1.89,2.08.05.23.07.46.04.66-1.13-1.95-3.73-2.36-5.8-.93-2.08,1.43-2.84,4.17-1.71,6.11.02.04.12.12.07.12-1.26-.21-1.79-1.8-1.79-1.8Z"/>
        <path class="cls-1" d="M496.11,631.79c-1.86-1.75-5.06-5.26-6.92-8-.7-4.23-.76-8.66.1-12.84-1.72,3.19-2.79,6.78-2.8,10.41-1.72-2-3.74-3.73-5.97-5.07,1.63,2.01,3.18,4.03,4.67,6.07-3.69-1.29-7.96-2.21-11.3-.42,2.3-.56,4.59.03,6.81.62,2.11.6,5.06,1.39,7.09,2.26,1.81,2.59,5.37,6.33,8.32,6.96Z"/>
        <path class="cls-4" d="M620.79,664.54l-3.48.94c-.75.2-1.5.36-2.26.48l8.33,13.71c-2.79.84-16.73-6.16-24.78-14.42-2.56-.79-4.98-2.02-7.16-3.69l-28.36-17.34-26.72,16.78c-2.63,2.08-5.65,3.51-8.82,4.27-8.04,8.25-21.97,15.24-24.76,14.4l8.68-14.28c-.66-.14-1.32-.3-1.98-.5l-3.62-1.12-30.86,48.85,5.28,12.75,18.53,4.36,30.03-42.43-27.81,61.72,9.93,10.63,18.07-2.05,24.82-52.8-19.85,71.04,29.08,21.44,29.08-21.44-19.85-71.04,24.82,52.8,18.07,2.04,9.94-10.64-27.81-61.71,30.03,42.43,18.53-4.36,5.28-12.75-30.38-48.09Z"/>
        <g>
          <path class="cls-5" d="M600.56,574.57c1.2-1.86-.54-5.27,2.18-5.22,2.02.04,3.66,2.41,4.03,4.83.7,4.5-.64,8.7-2.22,12.78-.55,1.42-1.66,2.4-2.99,1.26-3.98-3.42-6.65-7.76-6.86-13.46-.06-1.65.64-3.72,1.96-4.1,2.62-.76,1.65,3.38,3.89,3.9Z"/>
          <path class="cls-5" d="M562.48,583.45c1.5-1.58.37-5.28,3.04-4.68,1.98.45,3.18,3.11,3.13,5.57-.09,4.57-2.12,8.42-4.38,12.1-.79,1.29-2.04,2.02-3.15.63-3.33-4.17-5.2-8.98-4.43-14.62.22-1.63,1.27-3.52,2.63-3.62,2.71-.21,1.04,3.65,3.15,4.63Z"/>
          <path class="cls-5" d="M562.48,614.78c1.5-1.58.37-5.28,3.04-4.68,1.98.45,3.18,3.11,3.13,5.57-.09,4.57-2.12,8.42-4.38,12.1-.79,1.29-2.04,2.02-3.15.63-3.33-4.17-5.2-8.98-4.43-14.62.22-1.63,1.27-3.52,2.63-3.62,2.71-.21,1.04,3.65,3.15,4.63Z"/>
          <path class="cls-5" d="M525.62,574.57c-1.2-1.86.54-5.27-2.18-5.22-2.02.04-3.66,2.41-4.03,4.83-.7,4.5.64,8.7,2.22,12.78.55,1.42,1.66,2.4,2.99,1.26,3.98-3.42,6.65-7.76,6.86-13.46.06-1.65-.64-3.72-1.96-4.1-2.62-.76-1.65,3.38-3.89,3.9Z"/>
          <path class="cls-5" d="M540.91,601.34c-1.2-1.86.54-5.27-2.18-5.22-2.02.04-3.66,2.41-4.03,4.83-.7,4.5.64,8.7,2.22,12.78.55,1.42,1.66,2.4,2.99,1.26,3.98-3.42,6.65-7.76,6.86-13.46.06-1.65-.64-3.72-1.96-4.1-2.62-.76-1.65,3.38-3.89,3.9Z"/>
          <path class="cls-5" d="M585.27,601.34c1.2-1.86-.54-5.27,2.18-5.22,2.02.04,3.66,2.41,4.03,4.83.7,4.5-.64,8.7-2.22,12.78-.55,1.42-1.66,2.4-2.99,1.26-3.98-3.42-6.65-7.76-6.86-13.46-.06-1.65.64-3.72,1.96-4.1,2.62-.76,1.65,3.38,3.89,3.9Z"/>
        </g>
      </g>
    </g>
  </g>
</svg>