<?xml version="1.0" encoding="UTF-8"?>
<svg id="Layer_2" xmlns="http://www.w3.org/2000/svg" viewBox="0 0 907.95 826.41">
  <defs>
    <style>
      .cls-1 {
        fill: #fff;
      }

      .cls-2 {
        fill: #1a222d;
      }

      .cls-3 {
        fill: #33c5ff;
      }

      .cls-4 {
        fill: #ccc;
      }

      .cls-5 {
        fill: #002854;
      }

      .cls-6 {
        fill: #fefefe;
      }

      .cls-7 {
        fill: #00a5f7;
      }

      .cls-8 {
        fill: #003666;
      }
    </style>
  </defs>
  <g id="Logos">
    <g>
      <path class="cls-4" d="M428.66,743.17l-23.26-4.96-2.76-3.5-1.23,1.25s-1.78,1.58-2.39,2.11c-46.34,40.67-72.57,46.99-88.27,48.21-1.33.1-3.5.45-5.6.79-5.13.83-11.51,1.85-18.99,1.85-6.04,0-11.69-.66-17.27-2.01-10.26-2.49-18.35-7.06-23.49-10.33-5.74-.67-13.11-2.16-20.8-5.98-23.88-11.85-36.98-26.37-40.42-30.53l-5.27-6.38-28.65-73.21,23.12-50.31c-.36-2.97-.49-5.94-.4-8.88l.02-.51c-.23-1.43-.41-2.87-.52-4.31l-.1-1.2,4.58-57.01c-5.24-38.51-15.43-71.59-28.74-93.29-4.41-7.18-16.74-16.29-22.46-19.64l-1.34-.75-1.16-.77-48.61-31.39-31.93-42.45-5.66-6.65-1.53-4.74-12.61-34.91c-5.68-7.66-9.87-16.3-12.36-25.41l-10.56-2.48v-76.58l20.06-27.73,2.06-2.23c14.27-15.51,26.51-25.64,37.42-30.97,11.67-5.7,19.94-8.57,21.48-9.09l8.14-2.74h.91s12.82-7.59,12.82-7.59l32.39-56.68,55.33-32.75,64.8-8.26L342.86,0l110.43,2.4,77.05,15.1,12.22,2.96,92.07,48.83c26.09-8.09,58.84-16.94,77.28-16.94.36,0,.72,0,1.07,0,53.61.8,78.22,26.37,89.43,47.67,14.99,28.5,13.56,64.46-4.27,106.9-1.53,3.65-3.2,7.37-4.97,11.12l114.78,112.31-1.55,7.94c-.23,1.2-5.7,28.72-21.22,71.63l-4.61,12.4c-12.78,33.49-28.16,66.69-45.72,98.71l-.99,3.71-3.42,4.22c-5.23,9.29-10.7,18.55-16.3,27.63l-6.05,9.65c-65.59,102.94-151.12,195.56-254.26,255.61l-7.82,4.55-117.36-83.23Z"/>
      <path class="cls-5" d="M869.55,411.82l-.58-1.26c16.93-45.64,22.7-75.14,22.7-75.14l-116.79-114.28c3.53-6.78,6.69-13.49,9.43-20.02,16-38.1,17.63-69.77,4.82-94.11-9.32-17.71-30.13-38.97-76.36-39.66-.28,0-.58,0-.87,0-18.64,0-56.43,11.06-78.06,17.9h-1.13l-95.52-50.66-10.06-2.44-75.45-14.79-107.19-2.33-86.37,20.9-62.55,7.97-49.24,29.15-32.39,56.68-19.8,11.73h-2.56s-5.78,1.93-5.78,1.93c-.85.28-8.6,2.94-19.67,8.35-9.07,4.43-20.16,13.74-32.97,27.65l-1.46,1.59-16.7,23.08v59.83l8.35,1.96c1.32,10.55,5.35,20.53,11.82,29.15l1.1,1.47,13.46,37.26.69,2.14,4.01,4.71,30.6,40.68,46.46,30,.77.52.95.53c5.12,2.98,21.05,13.84,27.78,24.81,14.59,23.78,25.59,59.5,31.04,100.74l-4.61,57.42c.12,1.47.32,2.94.61,4.41l-.06,2.07c-.11,3.47.21,7,.93,10.54l-22.36,48.65,25.45,65.03,3.74,4.53c2.11,2.55,13.75,15.85,35.53,26.65,7.32,3.63,14.55,4.49,19.26,4.83,4.67,3.13,12.13,7.97,21.91,10.34,4.4,1.07,8.89,1.59,13.72,1.59,6.28,0,11.77-.88,16.6-1.66,2.51-.41,4.89-.79,6.83-.94,13.56-1.05,36.55-6.81,79.54-44.53.59-.52,1.96-1.73,1.96-1.73l12.82-12.96,9.91,12.57,20.54,4.38,111.92,79.84c118.98-69.27,198.63-170.58,251.13-253.82l1.35-.77-.14-1.17c6.92-11.04,13.36-21.94,19.36-32.62l2.2-2.72.64-2.38c20.48-37.14,35.52-71.48,46.32-100l2.39-3.59Z"/>
      <path class="cls-8" d="M334.68,413.16l-68.21,78.37c-12.76,14.67-18.86,33.98-16.82,53.31l4.01,37.99-16.59,53.06-7.08,33.17,38.27,15.5,33.43.48,10.17-13.56,9.93-10.31,16.53-12.9-16.53,57.12-36.57,9.2-53.77-9.69-16.96-28.1-2.94-19.38,16.85-43.25,8.37-134.54-4.59-10.17c-13.81-36.42-39.09-66.92-72.87-86.3l-48.76-27.99c-20.82-11.95-27.95-38.56-15.89-59.32h0s200.33,0,200.33,0l39.7,59.56v57.74Z"/>
      <path class="cls-6" d="M107.93,324.29c62.61-30.92,204.29-5.5,207.22,75.01-24.53-25.59-29.9-36.24-29.9-36.24-4.87,26.05-16.1,16.76-23.05,25.14-2.27,2.74-17.42-32.57-17.42-32.57,0,0-56.24-27.87-101.21-17.98-5.63,23.26-4.31,39.87-2.92,48.05.39,2.3-2.23,3.9-4.09,2.5-8.33-6.24-23.86-23.09-28.63-63.91Z"/>
      <path class="cls-2" d="M89.44,311.11l121.74,35.46,181.57,121.92-10.28-20.56c-26.13-52.22-65.08-97.72-112.64-131.58l-35.21-25.07c-9.15-7.04-13.99-18.11-12.94-29.61,1.05-11.5,7.8-21.51,18.08-26.79l101.89-52.33-20.51-26.64-42.11,2.44-23.24-8.8c-12.4-4.69-26.14-3.67-37.7,2.8l-72.65,40.64-64.67,91.16,8.68,26.96Z"/>
      <path class="cls-5" d="M349.88,467.1l-1.08-6.15c-.27-1.52-.58-2.91-.92-4.14-2.1-7.48-19.57-29.52-35.47-46.62-14.58-5.33-72.26-26.51-93.33-35.41l-.95-.4c-4.51-1.91-10.12-4.28-16.25-6.94l-2.59-1.13-.02-.02c-16.51-7.25-28-12.89-35.06-17.21-24.64-15.08-53.28-17.34-68.15-17.34-6.93,0-11.24.49-11.29.49l-12,1.29-17.14-53.22,74.22-104.63,77.13-43.14c10.05-5.62,21.44-8.59,32.95-8.59,8.19,0,16.23,1.47,23.89,4.37l18.72,7.08,49.27-2.85,44.48,57.78-126.17,64.79c-4.77,2.45-5.66,6.85-5.82,8.63-.16,1.75-.08,6.14,3.99,9.4l34.7,24.7c50.59,36.02,92.01,84.41,119.79,139.93l48.86,97.67-101.79-68.34Z"/>
      <path class="cls-7" d="M817.13,388.88l16.66,33.42-22.73-12.35-10.9,5.09v17.44l2.83,7.63-5.45,20.39-8.29,1.04,5.74,8.5-8.22,30.74-10.38,12.83-22.02-22.28,5.11,43.17-10.92,6.24-18.17-13.08,6.05,23.43-9.15-4.53v11.12l-13.55,51.7-5.82-23.25-5.08,10.9-5.82-12.35-15.99,26.16-9.03,30.9-15.38-24.17-10.65,9.85,4.54,33.55-10.9-2.9-30.41,17.1v45.05l-63.01-17.44-1,22.51-47.35-12.34,8.75,30.36-57.43-49.98-16.71-5.08-10.17-23.26-29.11,7.27s-4.24,4.47-10.99,11.02c-1.45,1.41-8.86-.48-10.52,1.09-2.04,1.93,1.61,7.36-.7,9.45-1.94,1.76-3.95,3.57-6.04,5.4-18.63,16.35-42.41,34.31-58.17,35.53-9.92.77-18.44,3.7-25.68,1.94-7-1.69-12.77-8.03-18.9-10.17-4.15-1.45-11.23-.53-14.63-2.21-15.89-7.88-23.56-17.16-23.56-17.16l-11.89-30.38c-3.67-9.38-3.37-19.85.84-29l15.43-33.59-11.71,28.61c-2.27,5.54-5.14,23.84,2.16,37.89,5.49,10.58,17.92,20.59,42.14,22.28,49.32,3.45,59.73-8.9,59.73-8.9l24.57-63.94s26.49-123.88,17.96-171.72c-.35-2-.77-3.86-1.25-5.58-4.66-16.6-41.27-55.22-41.27-55.22,0,0-72.31-26.37-95.93-36.34-4.51-1.91-10.55-4.45-17.05-7.28h0s-.01-.01-.01-.01c-12.88-5.61-27.57-12.34-35.84-17.4-40.32-24.68-88.73-18.91-88.79-18.9l-2.74-8.49-8.5-26.38.41-85.75,68.71-40.7,75.8-33.7c12.08-5.38,25.88-5.34,37.93.1l10.07,4.54s40.58-36.79,55.95-46.5c14.61-9.23,62.73-29.06,62.73-29.06h68.64l71.98,17.44,99.51,52.77h15.99s55.96-18.14,72.66-17.9c97.57,1.45,18.6,120.09,18.6,120.09l5.63,10.74,46.02,45.02-24.61-4.14,32.98,39.05-11.73,1.51,10.35,19.76c10.77,17.6,24.74,33.1,41.27,45.66l3.05,2.32-16.66,4.85Z"/>
      <polygon class="cls-7" points="751.38 249.44 846.98 333.99 821.99 326.51 850.94 359.82 805.99 364.92 750.64 268.21 751.38 249.44"/>
      <path class="cls-3" d="M413.67,492.26l-50.42-33.85c-.35-2-.77-3.86-1.25-5.58-4.66-16.6-41.27-55.22-41.27-55.22,0,0-72.31-26.37-95.93-36.34-4.51-1.91-10.55-4.45-17.05-7.28h0s-.01-.01-.01-.01c-12.88-5.61-27.57-12.34-35.84-17.4-40.32-24.68-88.73-18.91-88.79-18.9l-2.74-8.49-8.49-26.38,68.06-95.94,74.24-41.52c13.61-7.61,29.9-8.82,44.49-3.3l21.64,8.18,44.65-2.58,29.01,37.69-110.51,56.75c-16.6,8.54-18.69,31.45-3.89,42.84l34.97,24.89c48.81,34.76,88.37,80.95,115.18,134.55l23.97,47.92Z"/>
      <path class="cls-5" d="M280.28,150.21l40.43,10.49,3.85,2.88c20.42,15.28,31.01,40.39,27.69,65.68,0,0-5.15,19.61-3.4,25.91,3.49,12.54,32.45,40.69,32.45,40.69v-24.71l27.19,10.17-21.27-33.43h54.7l-23.98-13.05h23.98l-11.63-37.81,22.52,7.27s-13.64-21.8-25.43-36.33c7.91-2.58,11.63-7.27,11.63-7.27l-12.14-15.28c-18.79-23.64-52.26-29.55-78.01-13.79h0s16.08-27.61,16.08-27.61l-29.11,17.9-2.91-17.9-34.56,39.23-18.09,6.95Z"/>
      <path class="cls-5" d="M71.85,282.78l-7.34-9.79c-5.97-7.96-6.58-18.72-1.56-27.31,0,0,11.49-11.65,8.9-15.22-7.79,7.27-20.18,4.36-20.18,4.36v-18.89l8.47-11.71s14.62-15.89,22.09-19.54c9.24-4.51,15.26-6.54,15.26-6.54,0,0,32.47.16,42.42,8.7,5.7,4.89,20.21,31.99,20.21,31.99h13.23l7.48,10.2c5.3,7.22,3.77,17.36-3.42,22.71l-12.42,9.24-10.82,21.8-18.3,7.27h-23.09l5.05,37.74-16.34-4.76-29.64-40.24Z"/>
      <path class="cls-6" d="M361.52,154.85s12.75-4.54,17.21-4.41c3.95.12,12.28,3.08,18,5.29,3.74,1.45,6.6,4.37,7.8,7.97h0s-4.15,0-4.15,0l4.15,4.71s-14.63-.5-19.47,0c-3.14.32-12.31,2.57-12.31,2.57l-12.69-8.38c-3.22-2.12-2.34-6.76,1.47-7.74Z"/>
      <path class="cls-5" d="M320.72,397.59c66.51,38.76,97.23,112.39,97.23,112.39,0,0-53-34.88-77.89-35.17-12.76-15.27-19.34-77.22-19.34-77.22Z"/>
      <path class="cls-5" d="M597.9,170.88l42.16,54.26h-21.08l21.08,34.88-21.08,17.44,21.08,34.41-16.47,65.42-51.35-10.69,25.66,22.29-50.85-11.59,46.51,76.5-6.3,44.08-24.13-3.39-61.62,23.08-30.04-21.14-25.53,83.22-18.39-33.6-9.62,53.09-12.83-12.05s-6.22,16.39-8.07,67.66c-.14,3.98,16.62-10.07,16.62-10.07l20.99,10.66-14.72-28.59,41.75-8.22-23.1-18.89,48.49-12.11-13.67-13.56,43.22-44.57,57.55-11.8,23.73,17.61,16.97-65.88,8.72-25.19-25.69-21.32,42.16,13.56v-30.03l31-8.72v-32.94l24.47-17.44-55.47-65.88,40.15,14.53-26.59-47.96,11.63-28.58-67.35-48.44Z"/>
      <path class="cls-5" d="M699.29,118.08h21.06c10.68,0,20.29,6.51,24.26,16.43l6.03,15.09-17.44-15.76h-24.22l-15.26,5.58,10.41,13.08-20.35-8.72,9.93,13.08-27.37-4.36,20.35,14.54-11.63,7.27,13.02,20.09,1.52,13.33-43.6-44.82,10.96-29.25,42.33-15.57Z"/>
      <path class="cls-3" d="M348.86,51.71l-84.09,20.34-57.04,7.27-34.37,20.34-10.52,18.41,37.52,11.86,16.42-7.3c12.08-5.37,25.88-5.34,37.93.1l10.07,4.54s40.58-36.79,55.95-46.5c14.61-9.23,62.73-29.06,62.73-29.06h-34.59Z"/>
      <path class="cls-6" d="M237.06,635.9s-3.7,26.32.98,31.82c8.77,10.3,44.76,13.25,47.66,9.9,5.44-6.28,11.64-31.15,11.64-31.15,0,0,10.44,6.46,7.17,31.74,3,.46,6.09-10.51,6.09-10.51l11.18-6.53-13.08,23.95s-6.66,11.57-51.59,3.69c-28.45-4.99-32.28-18.4-32.28-18.4-4.43-23.16,12.23-34.52,12.23-34.52Z"/>
      <polygon class="cls-1" points="144.34 218.86 134.14 197.32 89.31 186.96 72.72 205.89 89.81 194.38 128.9 205.89 144.34 218.86"/>
    </g>
  </g>
</svg>