<?xml version="1.0" encoding="UTF-8"?>
<svg id="Layer_2" xmlns="http://www.w3.org/2000/svg" xmlns:xlink="http://www.w3.org/1999/xlink" viewBox="0 0 900 1050">
  <defs>
    <style>
      .cls-1 {
        fill: #fc0;
      }

      .cls-2 {
        fill: #003087;
      }

      .cls-3 {
        fill: #fff;
      }

      .cls-4, .cls-5 {
        fill: none;
      }

      .cls-6 {
        fill: #ffd200;
      }

      .cls-5 {
        stroke: #ffde17;
        stroke-miterlimit: 10;
        stroke-width: 12.15px;
      }

      .cls-7 {
        clip-path: url(#clippath);
      }
    </style>
    <clipPath id="clippath">
      <path class="cls-4" d="M568.26,538.57c76.03-13.15,175.48-13.07,246.28-10.61,19.5.68,35.13,1.49,44.81,2.05h0c.65.02,1.05-.24,1.28-.47.23-.23.49-.62.43-1.19-2.36-21.87-7.85-74.86-7.69-94.59.02-2.92,1.03-5.81,2.1-8.86.92-2.61,2.62-7.48,1.66-8.87-.46-.67-2.74-1.98-8.31-2.64-28.13-3.31-50.75-5.13-73.36-5.92-89.39-3.1-175.84,11.59-271.23,46.16l64.03,84.94Z"/>
    </clipPath>
  </defs>
  <g id="Logos">
    <g>
      <g>
        <g>
          <g>
            <path class="cls-3" d="M898.03,685.26l-17.88-61.1c8.54-10.85,12.74-26.1,10.34-38.44l-5.5-29.14c1-.81,1.97-1.66,2.9-2.57,7.94-7.8,11.83-18.43,10.66-29.18-1.67-15.47-6.93-65.51-7.46-86.96.23-1.06.45-2.17.67-3.31,1.83-5.33,4.35-13.74,2.87-23.11.39-6.5.49-13.6.13-21.24-2.17-46.22-19.22-92.52-50.66-137.62-14.25-20.44-39.38-41.69-63.68-62.25-9.1-7.7-30.39-25.7-34.21-30.73l-25.25-36.2-32.61-51.5-.76,3.66-23.17-33.22-13.09,81.71-22.39-16.22-97.73-81.15-.45,10.03L480.09,0l21.33,113.28c-.36-.05-21.97-10.13-22.33-10.18l-57.69-7.4-11.23-1.44-32.64-5.55-46.53-22.48.67,8.01-30.07-13,9.75,75.12-24.1-.85.32,3.94-65.27-6.28,2.78,5.76-33.68-2.57,20.15,37.32-81.5.12,9.73,8.08c-25.04,1.06-46.59,1.98-46.59,1.98l60,45.6-10.48,3.3,3.02,3.22-29,10.47,31,30.33c-11.02,5.52-22.31,12.13-34.5,20.41l-67.85,46.07,5.32,2.39-27.55,20.48,66.07,26.44c-5.99,2.78-10.41,4.87-12.54,5.88l-57.77,27.39,10.18,6.25-29.1,15.33,61.81,34.42-34.75,32.55,7.62,4.01c-10.43,10.65-19.32,19.73-19.32,19.73l68.3,32.34c3.99,1.89,7.94,3.69,11.87,5.42-6.29,6.22-10.24,10.54-11.2,11.62l-34.36,38.09,10.24,3.68-17.08,20.69,61.52,19.3c.27.09.65.2,1.1.34l-33.76,30.25,15.01,3.6-21.2,20.73s67.81,13.34,92.69,18.23l-33.39,74.37s5.85-.92,14.48-2.27l-12.22,30.9,71.7-14.28-20.57,49.75,16.14-2.69-10.53,29.15,73.89-6.01c.25,3.3,11.64,11.98,55.59,37.45-5.87,35.84,13.78,87.34,46.06,92.66l17.63,2.91,3.32-15.42c.87-4.04,9.97-6,10.6-6.32,1.62-.84,6.4-1.2,10.25-1.5,11.2-.85,28.11-2.13,40.51-16.35,4.78-5.49,8.24-31.85,10.22-38.64,13.11-2.01,23.38-5.28,30.65-9.76,7.75-4.78,14-14.21,18.71-23.78,6.54,10.94,14.33,21.11,23.31,30.4l93.75,97.06-6.17-82.74c67.78,22.93,145.01,32.58,148.71,33.03l30.79,3.77-54.1-116.81,6.42-1.75,65.33-22.56c15.92-5,26.86-16.5,30.82-32.41l.06-.24,1.79-5.61-1.5-20.61c0-.82-.05-1.65-.12-2.47,2.6-3.68,4.54-7.81,5.77-12.32.75-2.75,1.3-5.79,1.66-9.31.13-1.25.23-2.47.3-3.58,3.22-3.9,5.58-8.28,6.94-12.91,2.14-5.63,3.62-10.86,4.46-15.76l12.09.15,12.75-12.84c13.55-13.65,18.57-32.25,13.45-49.76Z"/>
            <path class="cls-2" d="M880.65,689.15l-19.86-67.86.91-2.14c.66-.58,1.29-1.18,1.9-1.82,7.06-7.4,10.99-19.84,9.2-29.05l-9.07-48.09c-.98-4.76-3.03-9.16-5.91-13.04,6.3-12.9,11.64-26.14,11.89-34.37l1.72-4.64-4.48-2.73s-.02-.02-.03-.02c.29-.49.54-.98.78-1.47.03-.07.06-.13.09-.2.2-.44.39-.88.55-1.32.03-.08.06-.16.09-.24.37-1.04.62-2.08.79-3.12.02-.1.03-.21.05-.31.16-1.12.22-2.23.19-3.32,0-.07,0-.13,0-.2-.05-1.4-.23-2.77-.5-4.09l-2.2-11.31-2.76-.26c-.43-.65-.7-1.01-.7-1.01,0,0,7.94-22.23-9.94-34.63-13.57-18.87,1.48-55.23-73.14-46.6-19.29-10.44-34.53-32.35-80.78-36.13-31.17-2.54-124.57,21.57-124.57,21.57,0,0-124.65,6.47-173.37,51.77-48.7,45.28-58.58,133.96-58.58,133.96l14.18,8.63-.12.47h0s-3.21,12.67-3.21,12.67l-4.06,15.98s0,.01,0,.03l-3.28,12.91h14.26s.08,0,.12,0c-.05.09-.08.18-.13.28-.4.81-.78,1.62-1.14,2.42-.17.38-.32.74-.48,1.11-.22.5-.43,1-.63,1.5-.17.43-.34.85-.5,1.27-.16.41-.31.82-.46,1.23-.16.45-.32.9-.47,1.35-.12.35-.23.7-.34,1.04-.15.47-.3.95-.43,1.41-.08.29-.16.57-.23.86-.13.5-.27,1-.38,1.49-.05.2-.09.4-.13.6-.12.56-.24,1.12-.34,1.66-.01.07-.02.13-.03.2-.12.71-.23,1.4-.31,2.07l-2.01,16.25,4.8.25c2.93,5.1,6.92,7.07,6.92,7.07-46.87,57.16-21.58,120.79-21.58,120.79,0,0,46.87-15.1,104.56,12.45-97.16-24.31-124.29,9.12-103.33,39.86-32.07,17.8-17.88,28.58-17.88,28.58,0,0-21.58,4.85-1.85,20.49-21.58,8.63-37.14,32.35-37.14,32.35,0,0,10.65,18.95,46.54,35.18-.71,2.17-1.32,4.41-1.82,6.7-6.12,28.41,7.75,74.53,30.99,78.36,7.08-32.86,47.19-10.66,64.72-30.77,5.8-6.65,8.6-34.85,8.45-43.15,15.39-1.16,28.74-3.88,36.34-8.57,10.39-6.41,19.73-35.05,19.73-35.05,0,0-4.93-8.09-10.48-11.86,1.33-1.67,2.63-3.45,3.91-5.29l8.7,3.2c.34.3,4.78,3.01,11.59,7.1,7.32,19.05,18.33,36.42,32.62,51.22l58.59,60.67-4.53-60.74h0c70.71,29.72,171,42.01,171,42.01l-55.58-120.01c14.71,6.66,16.7,7.13,22.24,7.13h3.67s4.32-1.18,4.32-1.18l65.01-22.44c10.31-3.16,16.9-10.24,19.6-21.07.06-.26.12-.52.19-.73l1.09-3.42-1.34-18.42c.02-2.3-.39-4.58-1.2-6.77l1.05-1.31c2.65-2.58,4.98-6.09,6.29-10.89.55-2.01.96-4.33,1.25-7.09.28-2.7.39-5.27.43-6.6.04-.52.05-1.05.05-1.57.29-.24.57-.49.85-.75,3.27-3,5.49-6.61,6.53-10.5,5.31-13.74,5.12-22.16,3.79-27.3l21.92.26,7.28-7.34c9.69-9.76,13.28-23.07,9.62-35.59Z"/>
          </g>
          <g>
            <path class="cls-2" d="M571.61,932.74c-2.87-1.21-75.67-46.84-77.27-48.25l-28.4-7.56-5.06-145.93,110.5,12.86-2.09,12.07,31.78,6.19c-.51-1.8-3.02-5.33-8.25-8.17l1.79.97,92.95,65.6,76.06,164.24s-121.3-22.28-192-52.01Z"/>
            <path class="cls-6" d="M673.71,862.54l-10.33-17.5-62.11-45.43,3.6-3.08-29.64-20.92c-4.84-2.63-7.03-9.83-6.69-15.11l-1.67,9.3-52.46-7.44-15.63,95.51s54.15,39.92,127.4,68.89c5.57,2.2,13.31-18.9,15.43-18.27,1.84.54,3.12,25.86,4.85,26.34l70.84,15.94-57.26-78.19,13.68-10.06Z"/>
            <path class="cls-2" d="M730.27,871.87c-6.69,0-8.19-.69-33.21-12.13-11.94-5.46-28.76-13.24-49.97-23.12-37.88-17.64-81.67-38.19-104.39-48.87l-30.12-14.15,21.86-31.84c2.39-14.35,16.77-25.18,33.45-25.18,3.16,0-1.84-.21-1.84-.21l16.32-55.19c-.42-3.72,0-7.55,1.29-11.27l6.76-19.3.23-.55c2.03-4.81,4.04-10.58,5.99-17.16l.16-.51c7.01-22.36,60.7-132.05,71.47-149.73l9.61-15.79,140.77,63.52c1.01-.06,2.03-.09,3.04-.09,20.79,0,38.47,12.58,42.04,29.91l9.07,48.09c1.79,9.21-2.14,21.65-9.2,29.05-.61.64-1.24,1.25-1.9,1.82l-.91,2.14,19.86,67.86c3.66,12.52.07,25.83-9.62,35.59l-7.28,7.34-21.92-.26c1.33,5.13,1.52,13.56-3.79,27.3-1.03,3.89-3.25,7.5-6.53,10.5-.28.26-.56.51-.85.75,0,.52,0,1.05-.05,1.57-.04,1.33-.15,3.91-.43,6.6-.29,2.75-.7,5.07-1.25,7.09-1.31,4.8-3.65,8.31-6.29,10.89l-1.05,1.31c.81,2.19,1.22,4.47,1.2,6.77l1.34,18.42-1.09,3.42c-.06.21-.12.47-.19.73-2.7,10.83-9.29,17.92-19.6,21.07l-65.01,22.44-4.32,1.18h-3.67Z"/>
            <path class="cls-6" d="M857.48,694.34l-10.7-36.56-11.01-37.63,6.16-14.55c4.77,0,8.06-10.03,7.28-13.84l-9.02-47.87c-1.85-9.01-12.96-14.64-23.82-12.09l-126.98-59.35s-63.59,125.39-69.57,145.62h0s-.01.04-.01.04c-1.95,6.6-4.2,13.21-6.71,19.16l-6.56,18.74c-1.07,3.07.05,6.38,2.88,8.48l38.85,28.79-32.23,49.46c-2.04,3.23-6.45,4.81-10.57,3.78l-34.8-8.7c-5.77-1.44-11.71,1.83-12.56,6.93l-4.09,24.55c45.64,21.45,174.8,82.03,176.27,81.63l64.76-22.36c3.98-1.09,3.94-4.59,4.96-7.79l-1.17-16.09c.59-1.94-7.53-3.41-9.75-2.77l15.34-19.14c2.1-.37,2.3-12.06,2.3-12.06,1.2-4.02-48.23-3.99-64.35-7.72l-36.29,2.62,34.93-12.59-3.41-9.51,12.39,10.36c.31.01.62.02.93.07,18.4,2.77,64.23,6.67,63.86-.04,0,0,5.78-14.15,3.31-18.3-1.69-2.83-13.63-3.83-17.26-3.45l-20.01,2.3c-2.66.13-5.2-.86-6.72-2.62l-18.7-24.45c-1.8-2.09-5.01-3.06-8.08-2.45l-15.26,4.59-22.93,19.12,14.7-22.34,47.23-26.61c3.65-.87,18.86-5.93,20.55-3.82l-19.01,18.62c-2.35,2.28-2.42,5.57-.17,7.87l12.22,16.97c2.29,2.34,10.52.99,13.8-.43l-5.63-9.06c.25-1.67,10.73-5.91,12.7-5.91l24.95,6.79,22.5.27c4.55-4.58,6.23-10.82,4.51-16.7Z"/>
            <polyline class="cls-2" points="810.14 804.71 781.96 794.8 785.8 788.46 815.82 793.03"/>
            <g>
              <path class="cls-2" d="M814.56,604.44l-37.01-16.25-11.75-4.01-4.97,19.8c16.69,7.36,42.16,19.64,67.62,20.73l.7-8.65,7.8-13.13-22.4,1.52Z"/>
              <path class="cls-2" d="M744.67,596.16c2.06,4.1,5.14,5.7,9.03,7.56l4.78-19.02-4.69-4.6-9.12,16.06Z"/>
              <path class="cls-2" d="M737.36,593.78l9.18-16.16-2.83-.97c-4.9-1.67-10.48-.33-13.71,3.31l-31.95,35.92,32.3-20.17c2.08-1.3,4.54-1.95,7.02-1.94Z"/>
            </g>
            <path class="cls-2" d="M799.66,617.57c-5.59-2.7-12.84-6.1-23.19-8.15-12.22-2.42-27.05-11.56-27.05-11.56-7.66-10.45-5.48,3.59-5.48,5.48,0,16.99,19.27,35.64,33.37,42.81l14.37,18.65,1.73-19.03c22.41-8.17,15.58-18,22.41-22.46,0,0-7.44-1.53-16.16-5.75Z"/>
            <path class="cls-2" d="M866.91,485.38c7.4-12.4-3.63-26.84-3.63-26.84,0,0,7.94-22.23-9.94-34.63-13.57-18.87,1.48-55.23-73.14-46.6-19.29-10.44-34.53-32.35-80.78-36.13-31.17-2.54-124.57,21.57-124.57,21.57,0,0-124.65,6.47-173.37,51.77-48.7,45.28-58.58,133.96-58.58,133.96l14.18,8.63-7.4,29.12s-.62,12.94,11.1,12.94c-16.03,32.35,3.7,42.06,3.7,42.06-46.87,57.16-21.58,120.79-21.58,120.79,0,0,46.87-15.1,104.56,12.45-97.16-24.31-124.29,9.12-103.33,39.86-32.07,17.8-17.88,28.58-17.88,28.58,0,0-21.58,4.85-1.85,20.49-21.58,8.63-37.14,32.35-37.14,32.35,0,0,10.63,21.03,52.56,37.75,25.72,10.25,109.57,14.25,132.67,0,10.39-6.41,19.73-35.05,19.73-35.05,0,0-4.93-8.09-10.48-11.86,27.17-34.05,42.48-104.45,53.55-149.3l116.04-23.26-4.1-14.02-13.16-81.43,10.48,9.17,17.88-50.15,8.63,1.08s19.86-32.03,35.03-39.32c92.53,6.63,134.3,34.7,134.3,34.7,0,0,40.72-80.05,26.54-88.67Z"/>
            <path class="cls-2" d="M863.29,474.14c-.5-2.56-1.91-5.39-3-6.91l-5.06-5.86,2.86-7.44c.32-1.05,3.62-12.49-3.94-17.73l-2.4-1.67-1.64-2.27c-3.59-4.99-6.03-10.32-8.38-15.49-6.9-15.1-11.46-25.08-40.79-25.08-5.5,0-11.7.4-18.39,1.17l-6.35.73-5.44-2.95c-6.14-3.33-11.66-7.38-17-11.32-13.48-9.94-27.41-20.2-56.01-22.53-.98-.08-2.14-.13-3.47-.13-26.68,0-91.59,15.25-114.35,21.12l-1.88.48-1.93.13c-.45.03-21.97,1.49-49.19,7.11-31.05,6.43-89.33,18.31-112.39,39.75-35.3,32.82-48.56,93.09-52.45,115.78l15.11,9.19-5.99,23.57-2.45,9.66h19.34l-10.86,21.93c-2.87,5.79-4.19,10.34-4.62,13.82-.62,5.03.6,7.8,1.61,8.81l16.49,8.12-11.67,14.22c-16.9,20.61-25.32,44.62-25.02,71.35.08,8.43,1.08,15.84,2.21,21.67,5.65-.69,12.34-1.18,19.94-1.18,27.29,0,54.16,6.22,79.86,18.49l51.38,15.07c2.64-10.27,5.07-20.27,7.32-29.53,1.04-4.25,2.03-8.35,3-12.26l2.4-9.75,109.32-21.91-20.7-128.03,27.47,24.02,13.6-38.13,14.75,1.85c12.04-10.65,35.64-30.73,49.07-37.17l4.74-2.27,5.37.39c57.7,4.13,90.24,13.22,107.85,20.56,6.3-8.49,12.15-16.95,17.06-24.6,6.61-10.29,11.53-19.11,13.55-24.57l-6.57-4,7.31-12.25c.61-1.01.63-2.45.33-3.98ZM470.72,898.96l-13.46-9.14,9.76-12.22c14.22-17.83,25.21-47.81,34.03-78.38l-38.72-9.68c-20.57-5.15-58.35-7.76-73.2-7.76-19.59,0-29.61,4.69-32.45,9.06-3.38,5.2.87,12.53,2.86,15.44l8.93,13.1-14.74,8.18c-5.67,3.16-8.91,5.64-10.72,7.31l20.76,15.78-22.39,5.04,15.23,12.06-24.77,9.9c-9.47,3.79-13.99,13.96-15.61,18.62,1.48,3.64,7.55,13.59,31.01,22.95,11.57,4.61,54.1,7.83,75.07,7.83s34.29-3.17,39.51-6.2c2.64-2.41,7.16-11.02,10.74-20.1-.72-.81-1.38-1.45-1.85-1.79Z"/>
            <g>
              <path class="cls-2" d="M538.54,942.81c-16.94-17.54-29.29-38.69-36.32-61.99l-4.79,4.4-4.22-26.53-14.03,16.84,6.47-89.64c13.42-185.84,28.6-161.16,66.87-220.74l62.17-1.44,8.22,54.4c.37,2.44,8.99,60.04,13.31,109.51l6.85,78.43-20.86-20.88c-1.57,12.62-4.28,24.73-8.09,36.21l-9.06,27.27c-2.12,11.86-6.71,26.25-9.29,33.87l-6.67,19.69c.98,8.85,1.69,16.25,2.12,22.02l5.91,79.24-58.59-60.67Z"/>
              <path class="cls-2" d="M611.06,619.49l-5.88-38.88-13.99,16.79c2.72-9.43,4.51-14.72,4.58-14.92l46.59-135.84-79.41,123.65c-2.29,3.56-56.15,88.73-65.36,216.28l-3.88,53.78,7.27-8.73,4.88,30.68,3.52-3.24c3.67,22.66,13.58,51.42,38.3,77.01l35.16,36.4-3.55-47.54c-.49-6.61-1.32-14.86-2.32-23.71l7.33-21.64c2.39-7.07,7.08-21.67,9.05-33.16l9.28-27.93c6.98-21,9.2-41.77,9.25-59.53l16.52,16.54-4.11-47.06c-4.35-49.85-13.16-108.35-13.24-108.93Z"/>
              <path class="cls-3" d="M578.59,577.97s-54.04,84.14-63.1,209.58c14.57-17.49,29.41-22.78,29.41-22.78,5.52-104.7,33.69-186.81,33.69-186.81Z"/>
              <path class="cls-3" d="M593.27,621.55s-29.14,34.97-45.59,146.4c21.28,4.34,37.73,46.15,37.73,46.15,17.11-51.5,3.16-102.34,3.16-102.34l17.84,17.86c-4.36-50-13.14-108.07-13.14-108.07Z"/>
              <path class="cls-1" d="M539.69,780.06s-20.18,18.92-22.43,31.26c-.75,4.1,1.24,16.59,1.24,16.59l7.72-7.1s-9.56,58.83,35.16,105.14c-2.19-29.3-11.34-93.1-11.34-93.1l17.06,42.26s9.89-29.19,9.21-38.28c-2.89-38.7-27.76-57.27-27.76-57.27l-6.13,36.99-2.72-36.49Z"/>
            </g>
            <g>
              <path class="cls-2" d="M387.31,635.49c-3.69,0-9.32-.28-15.75-.61l-18.8-.98,2.03-16.37c.69-5.55,2.7-11.73,5.99-18.36h0s-14.38,0-14.38,0l10.55-41.58,15.02.56c3.27.12,6.56.18,9.75.18,54.33,0,112.98-18.1,151.25-38.26,33.51-17.67,71.49-37.7,124.05-50.85,38.51-9.63,78.88-14.31,123.41-14.31,22.88,0,46.7,1.19,72.81,3.65l13.5,1.27,2.27,11.7c1.01,5.17.29,9.84-2.12,13.87l4.52,2.75-4.1,11.07c-2.97,8.02-9.78,19.34-14.98,27.42l-5.8,9.02-11.77-1.11c-22.98-2.18-44.58-3.28-64.21-3.28-90.81,0-132.77,22.37-181.35,48.26-3.7,1.97-7.41,3.95-11.15,5.92-44.51,23.46-114.76,50.06-190.74,50.06Z"/>
              <path class="cls-3" d="M851,478.12l-7.31,12.25,6.57,4c-2.02,5.46-6.94,14.28-13.55,24.57-151.91-14.38-204.99,19.9-267.91,53.07-44.64,23.53-110.52,47.81-181.48,47.81-3.36,0-9.47-.31-14.69-.59.43-3.47,1.75-8.02,4.62-13.82l10.86-21.93h-19.34l2.45-9.66c62.39,2.32,125.04-16.09,171.03-40.32,32.58-17.18,69.51-36.65,119.72-49.21,55.14-13.78,114.58-17.17,189.37-10.14.3,1.54.28,2.97-.33,3.98Z"/>
            </g>
            <path class="cls-6" d="M823.68,455.81c-1.63-8.14-5.12-19.59-5.12-19.59,0,0-16.47,7.56-30.03,18.45,0,0,16.55.37,35.16,1.13Z"/>
            <path class="cls-2" d="M759.2,666.79c-41.16-23.94-70.62-35.4-70.62-35.4l-8.58,21.83,36.1,23.38,1.11,12.97,6.2,1.94s3.25-12.05,6.5-15.86c-15.85-17.02-39.18-28.08-39.18-28.08l2.28-5.48s27.53,12.64,44.91,27.52c6.2-2.18,21.28-2.8,21.28-2.8Z"/>
          </g>
          <path class="cls-3" d="M745.43,386.72c-23.63,15.5-45.13,42.08-45.13,42.08,0,0,7.88-35.64-1.85-38.51-12.19,24.42-40.12,49.8-40.12,49.8,0,0,10.31-36.31,0-57.87-7.73,15.03-29.33,33.89-29.33,33.89,0,0,8.27-17.65,6-32.48-9.77-1.84-12.12-.36-12.12-.36-17.68,16.74-53.5,32.84-53.5,32.84l6.87-18.46s-29.1,18.46-59.82,47.54c11.38-22.33,21.67-37.51,28.61-46.64,5.23-6.88,13.14-11.51,21.98-12.9,11.65-1.83,27.03-4.23,27.26-4.25l1.57-.11,1.53-.42c14.94-4.16,52.14-13.68,77.45-17.24,6.14-.86,3.72,8.04,7.97,8.04,1.08,0,9.89-9.38,10.69-9.31,23.33,2.06,47.05,19.08,51.92,24.35Z"/>
          <path class="cls-3" d="M479.21,628.41c-.62,17.68-5.16,28.38-5.16,28.38l-6.64-14.19s.15,14.86-5.16,26.45c-1.48-9.03-8.12-17.42-8.12-17.42,0,0-2.71,6.45-8.12,9.03-1.97-2.58,0-7.74,0-7.74,0,0-11.22,6.43-15.88,15.95-6.62-17.34-26.01-23.04-26.01-23.04,0,0-3.2,22.36-12.87,45.03-3.85-4.07-4.09-8.26-4.09-8.26,0,0-4.52,4.09-6.21,3.45-1.52-2.62-1.91-8.61-1.91-8.61,0,0-26.8,32.25-10.82,69.46.98-26.45,8.61-33.98,8.61-33.98l2.21,5.81,4.43-4.52,2.21,13.55,7.38-22.58s3.93,3.66,9.59,9.03c7.62-22.58,10.71-41.97,10.71-41.97l10.15,21.71,8.17-14.67,7.69,16.23s2.21-8.82,2.95-20c6.47,12.15,7.38,26.45,7.38,26.45,0,0,7.35-10.55,10.33-11.61,1.97,7.31,1.48,32.9,1.48,32.9,0,0,34.67-36.5,17.71-94.83Z"/>
          <path class="cls-6" d="M474.04,821.05l-8.95-16.12s-86.32-21.87-101.45-3.68c-4.21,5.07,0,11.51,0,11.51,0,0,52.47-3.68,79.33,14.28-59.52-14.28-91.44,9.21-91.44,9.21,0,0,16.36.17,28.26,4.61-21.42,4.15-28.26,14.28-28.26,14.28,0,0,31.49,0,59.2,8.75-60.31-2.76-85.44,16.28-78.69,31.78,4.15,9.53,41.08,6.91,41.08,6.91,0,0-30.88-4.23-27.91-10.59,12.64-27.17,125.68,3.22,125.68,3.22,0,0-13.69-17.04-44.24-21.19,20.01.46,35.82,0,35.82,0,0,0-3.16-17.5-36.34-35.46,23.17,6.91,36.87,10.13,36.87,10.13,0,0,7.9-16.58-18.96-37.77,16.11,2.71,30.02,10.13,30.02,10.13Z"/>
          <path class="cls-2" d="M331.97,937.63c-6.12,28.41,7.75,74.53,30.99,78.36,7.08-32.86,47.19-10.66,64.72-30.77,7.01-8.05,9.65-38.34,7.98-48.36-.9-5.43-2.54-11.43-4.87-17.19-9.97,5.7-41.21,8.09-52.72,6.19-12.56-2.07-22.92-8.95-29.98-18.78-7.68,7.82-13.51,18.41-16.12,30.56Z"/>
          <path class="cls-2" d="M235.58,823.49c2.55-7.06,5.24-14.09,8.05-21.03-6.14,1.51-12.36,2.89-18.62,4.13l-66.1,13.17,23.78-60.13c4.02-10.16,8.43-20.23,13.16-30.09-8.62-1.12-17.17-2.51-25.54-4.16l-64.84-12.75,45.79-44.76c2.08-2.04,4.19-4.06,6.3-6.08-26.68-4.41-44.28-9.79-46.6-10.51l-34.57-10.84,22.38-27.11c.79-.96,16.9-20.38,40.57-41.05-14.82-4.78-30.46-11.06-46.69-18.74l-44.48-21.06,33.81-34.54c5.55-5.68,11.72-11.25,18.44-16.67-1.92-.99-3.18-1.68-3.66-1.95l-56.48-31.46,39.12-20.6c4.1-2.16,34.99-18.38,65.63-32.93l-82.82-33.14,50.31-37.4c25.59-19.02,47.25-29.79,71.45-38.84l-31.75-31.06,36.32-13.11c.24-.09,3.23-1.16,8.03-2.66l-49.48-37.61s99.17-4.22,99.18-4.22l-20.7-38.34,76.07,5c6.18.47,12.44,1.03,18.71,1.68l-.71-8.78,14.58.92c-.14-1.03-.28-2.06-.42-3.09l-7.93-61.12,32.89,14.22,59.93,7.67,78.61,17.37c8.62,1.24,17.17,3.04,25.55,5.38-1.26-7.77-1.36-12.94-1.36-14.35l-21.31-83.27,151.14,108.76,14.65,11.15,10.49-65.47,53.04,76.05c4.45,6.39,24.37,23.23,37.55,34.38,23.35,19.75,47.48,40.16,60.3,58.55,29.43,42.21,45.37,85.3,47.38,128.06,1.59,33.81-6.68,55.8-7.62,58.2l-11.86,29.98-22.24-5.77-48.99-10.72c-.29.02-.58.03-.87.04-12.55.51-25.76-4.32-41.31-15.17l-4.68.67c-1.22.17-3.2.41-5.67.51-6.44.26-15.81-.35-25.42-4.42-4.09.76-9.35,1.82-14.1,2.84l-2.22.48c-8.35,5.62-18.14,9.22-28.69,10.57l-.58,34.8-30.73-18.83,22.52,42.2-67.06-31.38-7.91,9.98,23.93,7.92-58.47,42.25c16.56,3.19,26.54,6.32,29.01,7.14l36.8,12.18,23.76-1.93-5.09,8.11,8.27,2.73-18.29,13.22-29.04,46.23-24.06,26.27c-.42.46-42.96,47.79-74.18,128.53l-3.66,9.47-8.54,6.11c-3.22,2.3-79.8,56.63-167.42,74.96l-95.71,3.33,20.97-58.05Z"/>
          <path class="cls-2" d="M879.73,390.82c-2.06-43.72-18.3-87.69-48.27-130.69-13.2-18.93-37.59-39.56-61.19-59.52-12.19-10.31-32.58-27.56-36.66-33.41l-28.72-41.17-9.37-14.79-.22,1.05-21.82-31.29-11.12,69.45-8.01-6.09-36.59-26.33-72.91-60.54-.35,7.82-52.57-37.83,24.57,96.03c.02,1.28.11,3.68.44,7-6.18-1.48-12.46-2.69-18.73-3.6l-78.65-17.38-36.93-4.73-9.71-1.65-24.79-11.98.48,5.77-28.82-12.46,8.69,66.91-14.28-.9.54,6.65c-.14-.02-.28-.04-.42-.05l-66.91-6.44,1.86,3.84-32.38-2.13,19.58,36.27-64.93.1s2.61,2.17,6.57,5.45c-23.89,1.02-45.07,1.92-45.07,1.92l51.57,39.19-14.63,4.6,1.59,1.7-28.52,10.3,30.42,29.75c-16.73,6.75-33.18,15.3-51.78,27.94l-45.63,30.99,3.45,1.55-27.43,20.39,74.19,29.69c-20.76,9.23-38.17,17.44-43.14,19.79l-32.76,15.53,8.23,5.05-28.79,15.17,56.7,31.58c-.93.84-1.85,1.68-2.75,2.52l-31.04,29.07,6.34,3.34-19.33,19.75,50.82,24.06c10.78,5.1,21.36,9.6,31.61,13.48-15.83,14.05-26.03,25.29-26.67,26l-19.39,21.5,8.88,3.2-17.14,20.76,41.66,13.06c2.28.71,11.68,3.56,26.36,6.71l-32.53,29.15,13.02,3.12-21.14,20.66,74.17,14.59c3.44.68,6.94,1.3,10.46,1.9-2.24,4.57-4.42,9.17-6.5,13.8l-23.19,51.67,12.97-2.03-12.19,30.83,72.27-14.4-20.49,49.56,14.7-2.45-9.98,27.63,103.53-3.61.42-.09c88.62-18.54,166.06-73.46,169.31-75.79l9.75-6.98,4.2-10.86c30.73-79.45,72.8-126.51,73.21-126.95l24.37-26.6,28.76-45.79,25.42-18.38-11.49-3.8,7.01-11.16-32.7,2.66-35.84-11.86c-2.05-.68-8.33-2.65-18.48-4.96l55.66-40.22,53.24,24.91-20.93-39.22,22.51,13.79.66-39.34c9.4-1.74,18.04-5.15,25.74-10.17l1.3-.28c4.12-.88,8.69-1.81,12.52-2.54,7.24,2.85,15.09,4.29,23.36,4.29.98,0,1.91-.02,2.79-.06,2.68-.11,4.84-.36,6.18-.55l2.75-.4c15.05,10.21,28.04,14.98,40.73,14.98.67,0,1.35-.01,2.02-.04.08,0,.17,0,.25-.01l30.42,6.66,19.5,5.12,17.53,5.33.63-1.4,6.58,1.71,13.48-34.09c.99-2.5,9.61-25.42,7.97-60.27ZM585.67,492.53l1.01-1.28,11.76,5.51-12.78-4.23Z"/>
          <path class="cls-2" d="M827.44,278.15c-11.3-17.85-33.99-38.79-55.95-59.05-14.57-13.45-32.71-30.18-37.53-37.8l-36.06-56.95-11.73,56.48c-3.55-2.84-7.15-5.65-10.78-8.43l-16.56-13.76-109.46-90.88-2.42,53.4c-.09,1.93-.38,13.12,3.64,29.36-1.99-.93-3.98-1.85-5.98-2.75l-.45-.2-.46-.18c-10.73-4.1-21.93-7.26-33.29-9.38l-78.05-19.69-50.38-8.57,2.33,4.44-30.48-14.72,3.7,44.5c.41,4.94.94,9.79,1.56,14.54l-15.41-1.6.32,9.38c-9.95-1.6-20.04-3.02-30.29-4.23l-57.95-5.58,18.05,37.38c-5.18-.17-10.42-.26-15.73-.26l-72.73.11,31.16,25.87c.47.39,5.06,4.2,11.06,9.17-14.21,2.77-25.25,6.21-26.02,6.45l-22.51,7.08,30.34,32.39c-30.54,8.97-54.91,18.67-84.92,39.05l-38.23,25.96,85.74,38.54c-35.57,14.14-79.88,35.04-86.73,38.29l-24.42,11.58,40.33,24.76c1.19.73,7.46,4.51,16.68,8.91-11.56,7.5-21.83,15.43-30.7,23.73l-25.91,24.27,31.82,16.74c21.75,11.44,42.2,20.01,61.17,25.64-31.05,22.32-53.8,47.36-55.06,48.75l-14.4,15.96,20.76,7.47c1.58.57,27.17,9.65,64.17,15.62-7.16,5.88-14.27,11.98-21.33,18.31l-34.63,31.03,46.58,11.17c12.49,3,25.27,5.39,38.19,7.16-7.51,13.05-14.4,26.53-20.64,40.42l-19.42,43.25,48.65-7.63c13.49-2.11,26.16-4.75,38.02-7.77-6.11,12.22-11.88,24.85-17.25,37.86l-17.14,41.45,46.8-7.8c86.26-14.37,195.39-54.35,198.63-56.47l6.38-4.17,2.96-6.74c35.89-81.6,81.58-127.81,82-128.23l24.63-24.64,31.72-45.82,5.26-3.47-2.27-.86,1.49-2.15-6.49.26-38.2-14.43c-2.57-.97-21.48-7.84-53.43-13.11v-.02s4.68.19,4.68.19l63.22-41.7-19.05-7.19,4.12-4.68,16.01-18.48-3.41-3.17c.67-.45,1.31-.9,1.91-1.32l50.25,26.14-17.74-37.18,7.69-2.93,31.88,21.45,1.66-26.36c1.02.04,2.04.07,3.04.07,11.89,0,22.65-3.13,31.71-9.15l4.31-.74c6.09-1.05,13.34-2.18,17.88-2.77,8.81,4.97,18.04,5.82,23.32,5.82,2.02,0,3.63-.12,4.61-.22l8.94-.91c14.56,11.74,26.49,17.22,37.43,17.22.68,0,1.35-.02,2.02-.07l50.18,13.17,13.41,4.08,9.65-21.49c.98-2.17,9.53-22.16,9.5-54.13-.04-41.08-13.5-83.15-40.02-125.04Z"/>
          <path class="cls-3" d="M413.23,918.08c-.32,10.36-2.68,16.63-2.68,16.63l-3.44-8.31s.08,8.71-2.68,15.49c-.77-5.29-4.21-10.2-4.21-10.2,0,0-1.4,3.78-4.21,5.29-1.02-1.51,0-4.53,0-4.53,0,0-5.82,3.77-8.24,9.34-3.43-10.16-13.49-13.5-13.49-13.5,0,0-1.66,13.1-6.68,26.38-2-2.38-2.12-4.84-2.12-4.84,0,0-2.34,2.39-3.22,2.02-.79-1.53-.99-5.05-.99-5.05,0,0-13.9,18.89-5.61,40.68.51-15.49,4.46-19.9,4.46-19.9l1.15,3.4,2.3-2.65,1.15,7.94,3.83-13.23s2.04,2.14,4.97,5.29c3.95-13.23,5.55-24.59,5.55-24.59l5.27,12.72,4.24-8.6,3.99,9.51s1.15-5.16,1.53-11.71c3.36,7.12,3.83,15.49,3.83,15.49,0,0,3.81-6.18,5.36-6.8,1.02,4.28.77,19.27.77,19.27,0,0,17.98-21.38,9.18-55.55Z"/>
        </g>
        <path class="cls-2" d="M622.08,655.8s31.98,30.14,58.58,39.37c-2.83,24.85,4.22,68.14,4.22,68.14,0,0-18.22-29.96-23.95-45.86-18.71-6.87-38.84-16.32-38.84-16.32"/>
        <path class="cls-3" d="M796.82,630.84c-3.22,1.73-10.34,3.35-12.06,2.83-1.83-.55-2.81-1.42-6.67-5.42-1.78-1.86-2.01-4.17-4.63-7.78-.62-.86.02-2.36,1.01-2.34"/>
      </g>
      <g>
        <path class="cls-6" d="M259.95,831.31c61.95-171.51,200.55-209.75,205.06-211.72l4.39-1.92,7.15,2.74-2.19-4.16,10.92-4c46.38-16.98,78.2-19.72,79.54-19.83l19.87-1.62-17.47,27.81-22.51,24.57c-.45.48-45.51,49.7-78.94,136.14l-1.07,2.76-2.51,1.8c-3.03,2.17-107.14,43.38-189.32,60.58l-19.12,4,6.2-17.17Z"/>
        <path class="cls-2" d="M557.92,616.93l7.94-14.38s-24.46-16.13-56.86-6.43c-7.23,2.16-11.33,22.55-19.61,25.58l9.62,18.3-29.25-11.23s-138.2,36.4-199.39,205.82c80.77-16.9,185.05-58.72,185.05-58.72,34.61-89.48,80.93-139.3,80.93-139.3,0,0-42.31,38.64-134.47,113.68,82.82-98.1,156.04-133.32,156.04-133.32Z"/>
        <path class="cls-6" d="M235.86,708.5c52.46,1.82,120.16,2.54,121.66,2.15l2.74-.73,2-1.87c69.06-64.69,126.38-82.46,126.95-82.63l-3.64-10.46c38.04-8.99,60.47-10.1,60.89-10.12l3.48-.15,32.13-23.22-18.8-6.22c-1.26-.42-31.5-10.26-81.45-12.86l-11.74-.61.11,4.65-5.3-5.28-4.86.03c-5,.04-155.99-7.65-290.24,123.55l-13.42,13.11,19.2,3.78c19.64,3.86,39.92,6.18,60.29,6.88Z"/>
        <path class="cls-6" d="M635.78,430.38c.02-1.24.35-30.78-13.15-75.36l-3.17-10.48-4.73,1.53,3.71-6.28-1.61-4.25c-1.65-4.38-63.85-118.06-241.99-195.12l-17.81-7.7,2.34,18c10.09,77.77,69.21,139.09,70.82,141.24l1.63,2.18,2.57,1.17c88.77,40.51,125.55,85.25,125.92,85.69l9.52-6.4c21.51,30.51,29.98,49.85,30.14,50.22l1.28,2.98,34.23,20.98.31-18.4Z"/>
        <path class="cls-2" d="M610.16,421.17l14.66,8.98s.48-28.8-12.74-72.47l-20.68,6.68,15.09-25.54s-60.26-113.11-236.24-189.23c9.88,76.16,68.94,136.64,68.94,136.64,92.71,42.3,129.9,88.77,129.9,88.77,0,0-15.05-19.35-86.31-112.8,97.02,87.59,127.39,158.96,127.39,158.96Z"/>
        <path class="cls-6" d="M647.58,382.9c-.43-1.17-10.84-29.04-39.69-66.57l-6.78-8.82-3.89,2.96,1.21-7.09-3.05-3.47c-3.14-3.58-111.09-97.81-306.44-112.75l-19.53-1.49,8.72,16.16c37.68,69.83,123.76,115.84,126.04,117.34l2.32,1.52,2.84.27c98.11,9.43,148.9,39.61,149.4,39.91l6.63-9.09c31.28,21.73,46.25,37.18,46.53,37.47l2.28,2.39,39.77,8.67-6.39-17.39Z"/>
        <path class="cls-2" d="M620.17,382.51l17.03,3.71s-10-27.21-38.26-63.99l-17.01,12.95,4.91-28.86s-105.93-94.31-298.89-109.08c36.9,68.38,122.61,113.63,122.61,113.63,102.46,9.85,154.26,41.51,154.26,41.51,0,0-21.16-13.33-122.02-78.16,122.94,51.01,177.36,108.29,177.36,108.29Z"/>
        <path class="cls-2" d="M545.89,594.72l13.76-9.94s-29.42-9.73-78.36-12.28l.46,20.28-21.55-21.48s-149.81-9.19-282.41,120.41c81.25,15.98,176.65,9.2,176.65,9.2,72.12-67.56,131.34-85.13,131.34-85.13,0,0-24.52,6.93-142.53,39.15,119.96-56.69,202.64-60.21,202.64-60.21Z"/>
        <path class="cls-6" d="M839.37,449.94l3.63-9.17c1.14-2.9,27.3-71.99-37.15-164.44-10.99-15.76-33.85-35.1-55.97-53.81-17.5-14.8-35.59-30.1-41.88-39.12l-16.13-23.12-4.4,27.5c-1.03,6.46-1.42,12.41-1.24,17.96-4.35-3.51-8.83-7.03-13.46-10.55-6.5-4.94-13.29-9.89-20.18-14.71l-17.42-13.25-87.96-66.86.02,22.47c0,1.34.31,28.08,20.18,59.84-13.7-6.91-28.1-13.44-43.19-19.55h0c-9.99-3.35-20.31-5.81-30.8-7.32l-78.18-17.31-19.84-2.54c9.24,15.85,33.75,47.88,46.2,59.73-29.01-9.48-43.1-12.22-75.85-12.62l-18.18-1.14s2.35,29.01,24.74,49.98c-33.16-8.25-79.91-13.28-125.63-11.34l-30.46,1.3s30.01,22.8,39.98,30.21c-24.22-.99-58.45,11.37-58.45,11.37l32.45,31.74c-43.73,13.72-68.74,23.14-101.74,47.66l-16.16,12.01,97.68,39.09c-26.05,6.05-118.02,54.5-118.02,54.5l17.89,9.97c1.06.59,20.96,11.56,43.71,16.92-21.3,11.99-38.91,25.04-52.65,39.06l-10.62,10.85,13.92,6.59c44.37,21.01,75.53,26.8,95.13,27.57-43.45,24.26-80.25,68.84-80.25,68.84,0,0,117.6,36.91,201.19,18.99-29.21,31.94-91.34,64.92-113.47,120.86l-7.43,18.78,20.31-4.05c101.76-20.27,182.29-60.03,185.04-61.99l4.21-3.01.1-1.51.25.31,8.59-5.34c43.17-26.83,76.16-63.99,77.54-65.56l45.59-55.11-15.8,2.55c-3.52-5.66-41.46,16.2-41.83,1.54l-.38-15.21,21.3-43.77c3.62-.17,5.65-.2,5.78-.2h3.73s33.97-24.55,33.97-24.55l-20.41-6.75c-.5-.16-5.52-1.8-14.47-3.87,6.45.51,13.02,1.07,19.81,1.73l6.18.6,13.53-16.82,6.5-8.21-8.06-6.86s-.39-.33-1.15-.91c12.13-3.68,21.32-12.17,22.79-13.57l3.01-2.9,19.06,8.92-6.86-12.86,6.68-8.3.92,7.93,35-15.04-.59-2.6.46-.07c23.41,6.53,40.72,3.1,52.21-10.24l.34-.3,3.51,2.71s24.02-5.15,25.1-4.33c8.66,6.59,19.78,5.39,21.92,5.08l8.72-1.25.65-6.65c3.59,3.4,7.16,6.27,9.78,8.27h0c19.19,14.59,28.5,14.81,33.18,13.24l.05.28,37.53,8.21.03-.65,16.13,4.18Z"/>
        <path class="cls-2" d="M832.43,436.79s25.93-65.58-35.94-154.34c-19.18-27.51-82.71-71.22-97.85-92.92-2.3,14.35-1,24.59,1.98,32.1,129.12,106.5,120.7,212.28,120.7,212.28l11.11,2.88Z"/>
        <path class="cls-2" d="M812.6,432.84s6.48-122.45-166.59-243.45l-12.5,15.53-8.33-31.36-66.64-50.66s.03,35.72,32.45,72.88c46.01,23.05,84.89,65.63,118.74,107.88,73.38,58.57,85.74,125.44,85.74,125.44l17.13,3.75Z"/>
        <path class="cls-2" d="M783.04,424.28c-15.48-57.6-61.15-95.62-61.15-95.62,0,0,19.17,48.87,18.96,68.19,8.46,15.7,45.38,39.34,42.18,27.43Z"/>
        <path class="cls-2" d="M525.38,595.86s-64.12,75.25-106.39,101.53l-19.33-10.1,9.12,17.92s-90.9,46.86-191.41,66.87c64.85-163.98,214.59-209.52,214.59-209.52l26.91,13.04-10.05-19.69,38.35-10.71-16.14,33.16c-86.9,50.77-132.73,107.71-132.73,107.71,0,0,102.35-78.17,144.93-97.71.52,20.8,42.15,7.5,42.15,7.5Z"/>
        <path class="cls-2" d="M510.03,524.56l13.76-9.94s-29.42-9.73-78.36-12.28l.46,20.28-21.55-21.48s-149.81-9.19-282.41,120.41c81.25,15.98,176.65,9.2,176.65,9.2,72.12-67.56,131.34-85.13,131.34-85.13,0,0-24.52,6.93-142.53,39.15,119.96-56.69,202.64-60.21,202.64-60.21Z"/>
        <path class="cls-2" d="M533.79,491.17l9.72-12.08s-36.09-41.26-171.73-40.76l-4.47,34.15-20.58-31.63s-172.83,14.95-237.61,81.14c77.61,36.74,111.88,24.55,111.88,24.55,54.06-36.78,151.8-48.4,151.8-48.4l-54.05,6.97s53.56-29.6,215.03-13.94Z"/>
        <path class="cls-2" d="M532.55,459.63c15.14,5.02,31.99-11.15,31.99-11.15,0,0-140.27-106.24-357.15-42.33l.59,35.91-23.01-28.61-69.54,35.45s30.79,17.15,57.92,18.3c163.14-82.27,283.58-32.64,359.19-7.57Z"/>
        <path class="cls-2" d="M420.5,385.55s-95.59-17.56-188.67,3.94l-54.17-22.77.62-17.94-15.07,13.8-27.84-11.01c93.12-69.22,242.69-27.39,242.69-27.39l110.24,73.2s-177.7-71.79-263.33-61.32c87.42,7.58,195.54,49.49,195.54,49.49Z"/>
        <path class="cls-2" d="M714.64,412.66c2.89,11.01,17.26,8.95,17.26,8.95,0,0,14.2-156.77-211.98-248.34l-18.06,22.43-2.99-28.01-79.58-18.43c54.07,92.79,154.24,74.49,272.29,225.42,0,0-16.69-44.21-74.91-109.79,0,0,75.61,62.58,97.99,147.78Z"/>
        <path class="cls-2" d="M674.58,421.62c-7.61,6.62-51.97-24.9-94.27-58.27-28.06-22.14-50.13-50.51-79.17-70.84-46.62-32.65-113.16-52.53-113.16-52.53,0,0-8.39-13.71-22.73-45.94,174.47,1.9,335.83,196.76,343.06,230.08l-8.89.22c-6.1,1.94-3.93.2-8.53-4.18-10.69-10.19-43.96-46.77-87.33-74.36,61.39,53.62,71.02,75.83,71.02,75.83Z"/>
        <path class="cls-2" d="M249.11,234.71c109.74-4.66,209.68,46.82,209.68,46.82l-6.72,20.26,29.63-11.19c103.14,77.99,118.41,144.41,118.41,144.41l-12.81,2.62s-46.31-61.63-143.83-110.26c108.66,78.89,127.4,114,127.4,114-158.32-111.37-321.76-206.65-321.76-206.65Z"/>
        <path class="cls-2" d="M334.16,298.8l-58.66-33.27c-32.3-6.94-57.43,2.24-57.43,2.24l27.63,27.03c22.68-3.16,88.46,4,88.46,4Z"/>
        <path class="cls-2" d="M470.21,444.13l16.31-6.1c157.33-58.82,268.4-56.41,364.99-45.05,1.03.12,2.02.26,2.96.42,10.26,1.69,17.52,5.8,21.58,12.19,6.01,9.48,2.59,19.27.32,25.76-.32.9-.73,2.08-.93,2.77l-.09.3v.32c0,19.34,5.31,70.5,7.59,91.6.69,6.41-1.63,12.76-6.37,17.42-4.8,4.71-11.54,7.18-18.51,6.78-42.98-2.49-190.98-9.2-290.82,9.17l-8.71,1.6-88.33-117.17Z"/>
        <g class="cls-7">
          <g>
            <polygon class="cls-2" points="843.12 531.73 869.66 531.99 869.55 511.48 843.01 511.22 843.12 531.73"/>
            <polygon class="cls-2" points="842.79 470.19 864.99 470.25 864.89 449.74 864.78 429.22 842.58 429.17 842.68 449.68 820.48 449.63 820.59 470.14 798.39 470.09 798.5 490.6 776.3 490.55 776.4 511.06 754.2 511 754.31 531.52 776.51 531.57 798.71 531.62 798.61 511.11 820.81 511.16 820.7 490.65 842.9 490.7 842.79 470.19"/>
            <polygon class="cls-6" points="842.47 408.66 864.67 408.71 864.56 388.2 842.36 388.15 842.47 408.66"/>
            <polygon class="cls-6" points="842.58 429.17 864.78 429.22 864.67 408.71 842.47 408.66 820.27 408.61 820.37 429.12 798.17 429.07 798.28 449.58 776.08 449.52 776.19 470.04 753.99 469.98 754.1 490.49 731.89 490.44 732 510.95 709.8 510.9 709.91 531.41 732.11 531.46 754.31 531.52 754.2 511 776.4 511.06 776.3 490.55 798.5 490.6 798.39 470.09 820.59 470.14 820.48 449.63 842.68 449.68 842.58 429.17"/>
            <polygon class="cls-3" points="820.27 408.61 842.47 408.66 842.36 388.15 820.16 388.1 820.27 408.61"/>
            <polygon class="cls-3" points="798.07 408.56 820.27 408.61 820.16 388.1 797.96 388.04 798.07 408.56"/>
            <polygon class="cls-3" points="798.17 429.07 820.37 429.12 820.27 408.61 798.07 408.56 775.86 408.5 775.97 429.01 753.77 428.96 753.88 449.47 731.68 449.42 731.79 469.93 709.58 469.88 709.69 490.39 687.49 490.34 687.6 510.85 665.4 510.79 665.51 531.3 687.71 531.36 709.91 531.41 709.8 510.9 732 510.95 731.89 490.44 754.1 490.49 753.99 469.98 776.19 470.04 776.08 449.52 798.28 449.58 798.17 429.07"/>
            <polygon class="cls-2" points="775.86 408.5 798.07 408.56 797.96 388.04 775.76 387.99 775.86 408.5"/>
            <polygon class="cls-2" points="753.66 408.45 775.86 408.5 775.76 387.99 753.55 387.94 753.66 408.45"/>
            <polygon class="cls-2" points="731.46 408.4 753.66 408.45 753.55 387.94 731.35 387.89 731.46 408.4"/>
            <polygon class="cls-2" points="576.7 531.09 598.9 531.15 598.79 510.64 576.59 510.58 576.7 531.09"/>
            <polygon class="cls-2" points="709.26 408.34 731.46 408.4 731.35 387.89 709.15 387.83 709.26 408.34"/>
            <polygon class="cls-2" points="753.77 428.96 775.97 429.01 775.86 408.5 753.66 408.45 731.46 408.4 709.26 408.34 687.06 408.29 687.17 428.8 664.97 428.75 665.07 449.26 642.87 449.21 642.98 469.72 620.78 469.67 620.89 490.18 598.69 490.12 598.79 510.64 598.9 531.15 621.1 531.2 643.31 531.25 665.51 531.3 665.4 510.79 687.6 510.85 687.49 490.34 709.69 490.39 709.58 469.88 731.79 469.93 731.68 449.42 753.88 449.47 753.77 428.96"/>
            <polygon class="cls-6" points="554.5 531.04 576.7 531.09 576.59 510.58 554.39 510.53 554.5 531.04"/>
            <polygon class="cls-6" points="576.59 510.58 598.79 510.64 598.69 490.12 576.49 490.07 576.59 510.58"/>
            <polygon class="cls-6" points="687.06 408.29 709.26 408.34 709.15 387.83 686.95 387.78 687.06 408.29"/>
            <polygon class="cls-6" points="532.3 530.99 554.5 531.04 554.39 510.53 532.19 510.48 532.3 530.99"/>
            <polygon class="cls-6" points="554.39 510.53 576.59 510.58 576.49 490.07 554.28 490.02 554.39 510.53"/>
            <polygon class="cls-6" points="576.49 490.07 598.69 490.12 598.58 469.61 576.38 469.56 576.49 490.07"/>
            <polygon class="cls-6" points="664.86 408.24 687.06 408.29 686.95 387.78 664.75 387.73 664.86 408.24"/>
            <polygon class="cls-6" points="664.97 428.75 687.17 428.8 687.06 408.29 664.86 408.24 642.66 408.19 642.76 428.7 620.56 428.64 620.67 449.15 598.47 449.1 598.58 469.61 598.69 490.12 620.89 490.18 620.78 469.67 642.98 469.72 642.87 449.21 665.07 449.26 664.97 428.75"/>
            <polygon class="cls-3" points="510.1 530.93 532.3 530.99 532.19 510.48 509.99 510.42 510.1 530.93"/>
            <polygon class="cls-3" points="532.19 510.48 554.39 510.53 554.28 490.02 532.08 489.97 532.19 510.48"/>
            <polygon class="cls-3" points="554.28 490.02 576.49 490.07 576.38 469.56 554.18 469.51 554.28 490.02"/>
            <polygon class="cls-3" points="642.66 408.19 664.86 408.24 664.75 387.73 642.55 387.67 642.66 408.19"/>
            <polygon class="cls-3" points="487.9 530.88 510.1 530.93 509.99 510.42 487.79 510.37 487.9 530.88"/>
            <polygon class="cls-3" points="509.99 510.42 532.19 510.48 532.08 489.97 509.88 489.91 509.99 510.42"/>
            <polygon class="cls-3" points="532.08 489.97 554.28 490.02 554.18 469.51 531.98 469.45 532.08 489.97"/>
            <polygon class="cls-3" points="554.18 469.51 576.38 469.56 576.27 449.05 554.07 449 554.18 469.51"/>
            <polygon class="cls-3" points="620.46 408.13 642.66 408.19 642.55 387.67 620.35 387.62 620.46 408.13"/>
            <polygon class="cls-3" points="465.7 530.83 487.9 530.88 487.79 510.37 465.59 510.32 465.7 530.83"/>
            <polygon class="cls-3" points="487.79 510.37 509.99 510.42 509.88 489.91 487.68 489.86 487.79 510.37"/>
            <polygon class="cls-3" points="509.88 489.91 532.08 489.97 531.98 469.45 509.77 469.4 509.88 489.91"/>
            <polygon class="cls-3" points="531.98 469.45 554.18 469.51 554.07 449 531.87 448.94 531.98 469.45"/>
            <polygon class="cls-3" points="598.25 408.08 620.46 408.13 620.35 387.62 598.15 387.57 598.25 408.08"/>
            <polygon class="cls-3" points="620.56 428.64 642.76 428.7 642.66 408.19 620.46 408.13 598.25 408.08 576.05 408.03 576.16 428.54 553.96 428.49 554.07 449 576.27 449.05 576.38 469.56 598.58 469.61 598.47 449.1 620.67 449.15 620.56 428.64"/>
            <polygon class="cls-3" points="443.49 530.78 465.7 530.83 465.59 510.32 443.39 510.27 443.49 530.78"/>
            <polygon class="cls-3" points="465.59 510.32 487.79 510.37 487.68 489.86 465.48 489.81 465.59 510.32"/>
            <polygon class="cls-3" points="487.68 489.86 509.88 489.91 509.77 469.4 487.57 469.35 487.68 489.86"/>
            <polygon class="cls-3" points="509.77 469.4 531.98 469.45 531.87 448.94 509.67 448.89 509.77 469.4"/>
            <polygon class="cls-3" points="531.87 448.94 554.07 449 553.96 428.49 531.76 428.43 531.87 448.94"/>
            <polygon class="cls-3" points="576.05 408.03 598.25 408.08 598.15 387.57 575.95 387.52 576.05 408.03"/>
            <polygon class="cls-3" points="553.96 428.49 576.16 428.54 576.05 408.03 553.85 407.97 553.96 428.49"/>
            <polygon class="cls-2" points="421.29 530.72 443.49 530.78 443.39 510.27 421.19 510.21 421.29 530.72"/>
            <polygon class="cls-2" points="443.39 510.27 465.59 510.32 465.48 489.81 443.28 489.75 443.39 510.27"/>
            <polygon class="cls-2" points="465.48 489.81 487.68 489.86 487.57 469.35 465.37 469.3 465.48 489.81"/>
            <polygon class="cls-2" points="487.57 469.35 509.77 469.4 509.67 448.89 487.46 448.84 487.57 469.35"/>
            <polygon class="cls-2" points="509.67 448.89 531.87 448.94 531.76 428.43 509.56 428.38 509.67 448.89"/>
            <polygon class="cls-2" points="553.85 407.97 576.05 408.03 575.95 387.52 553.74 387.46 553.85 407.97"/>
            <polygon class="cls-2" points="531.76 428.43 553.96 428.49 553.85 407.97 531.65 407.92 531.76 428.43"/>
            <polygon class="cls-2" points="399.09 530.67 421.29 530.72 421.19 510.21 398.98 510.16 399.09 530.67"/>
            <polygon class="cls-2" points="421.19 510.21 443.39 510.27 443.28 489.75 421.08 489.7 421.19 510.21"/>
            <polygon class="cls-2" points="443.28 489.75 465.48 489.81 465.37 469.3 443.17 469.24 443.28 489.75"/>
            <polygon class="cls-2" points="465.37 469.3 487.57 469.35 487.46 448.84 465.26 448.79 465.37 469.3"/>
            <polygon class="cls-2" points="487.46 448.84 509.67 448.89 509.56 428.38 487.36 428.33 487.46 448.84"/>
            <polygon class="cls-2" points="531.65 407.92 553.85 407.97 553.74 387.46 531.54 387.41 531.65 407.92"/>
            <polygon class="cls-2" points="509.56 428.38 531.76 428.43 531.65 407.92 509.45 407.87 509.56 428.38"/>
            <polygon class="cls-3" points="865.21 511.27 865.1 490.76 864.99 470.25 842.79 470.19 842.9 490.7 820.7 490.65 820.81 511.16 798.61 511.11 798.71 531.62 820.91 531.67 843.12 531.73 843.01 511.22 865.21 511.27"/>
          </g>
          <path class="cls-5" d="M860.79,416.09c-28.13-3.31-63.14-5.5-85.75-6.29-89.39-3.1-175.84,11.59-271.23,46.16"/>
          <path class="cls-5" d="M861.22,413.76c-28.13-3.31-63.14-5.5-85.75-6.29-89.39-3.1-175.84,11.59-271.23,46.16"/>
          <path class="cls-5" d="M568.69,536.25c76.03-13.15,175.48-13.07,246.28-10.61,19.5.68,44.91,1.64,54.59,2.2"/>
          <path class="cls-5" d="M568.26,538.57c76.03-13.15,175.48-13.07,246.28-10.61,19.5.68,44.91,1.64,54.59,2.2"/>
        </g>
        <g>
          <path class="cls-2" d="M681.17,439.25c-14.51-30.45-42.38-54.52-76.5-66.06l-1.14-.38c-14.48-4.76-29.48-7.17-44.6-7.17-25.78,0-50.46,6.93-71.36,20.05-21.62,13.57-37.51,32.76-45.94,55.48-13.07,35.23-6.13,74.78,18.52,105.76,6.78,8.6,14.7,16.28,23.55,22.92-9.26,19.14-18.34,36.11-27.04,51.09-4.18,1.88-7.91,4.88-10.71,8.78l-12.11,16.87c-1.6,2.23-2.85,4.69-3.69,7.26-1.29,1.07-2.47,2.26-3.55,3.56l-13.25,16.03c-1.6,1.94-2.92,4.1-3.92,6.39-2.03,1.35-3.88,2.99-5.47,4.85l-13.52,15.81c-4.08,4.77-6.3,10.72-6.35,16.83-.14.12-.24.2-.28.23-12.64,9.83-16.25,28.02-8.02,40.61.52.78,1.07,1.54,1.65,2.25.96,1.18,2.03,2.27,3.19,3.27,4.71,4.05,10.82,6.27,17.19,6.27h0c6.36,0,12.79-2.23,18.11-6.27.62-.47,4.56-3.54,11.08-9.84,6-.94,11.57-4.06,15.69-8.87l13.52-15.8c1.78-2.08,3.22-4.41,4.28-6.9,2.21-1.45,4.22-3.25,5.93-5.32l13.25-16.03c2.31-2.79,4-5.95,5-9.32,2.03-1.58,3.84-3.45,5.35-5.55l7.8-10.87-.62,12.34c-.12,2.48.12,4.94.73,7.28-1.32,3.25-1.96,6.71-1.88,10.21l.48,19.8c.06,2.56.52,5.06,1.35,7.4-.7,2.55-1,5.17-.89,7.77l.85,19.74c.27,6.33,3,11.92,7.25,15.91,1.25,8.19,2.47,12.57,2.67,13.26,3.32,11.41,13.51,19.07,25.35,19.07,1.38,0,2.77-.1,4.16-.31,1.49-.22,2.98-.56,4.42-1.01.87-.27,1.75-.59,2.64-.96,14.54-6.07,22.72-22.26,18.74-36.98,3.9-4.99,5.9-11.05,5.64-17.17l-.85-19.76c-.1-2.33-.54-4.61-1.28-6.76.63-2.34.92-4.75.86-7.15l-.48-19.79c-.04-1.58-.22-3.13-.56-4.64.95-2.51,1.5-5.14,1.64-7.79l1-19.92c.23-4.67-.83-9.13-3.03-12.98,2.59-16.62,6.14-35.06,10.96-55.36,4.14-.25,8.27-.67,12.33-1.28,44.96-6.86,81.83-35.21,96.2-73.97,9.92-26.76,8.38-56.2-4.35-82.9ZM506.73,649.6c-.16-.88-.37-1.74-.62-2.59,1.54-2.68,3.1-5.41,4.66-8.19-.5,2.92-.97,5.79-1.41,8.62-.92.66-1.79,1.39-2.62,2.16Z"/>
          <g>
            <g>
              <g>
                <path class="cls-3" d="M538.73,797.09c-.96.3-1.94.53-2.91.67-8.49,1.26-16.07-3.53-18.43-11.66-.83-2.86-19.87-71.71,19.66-220.12,1.96-7.36,7.55-13.3,14.57-15.5.97-.3,1.96-.53,2.95-.68,1.89-.28,3.78-.27,5.6.05,4.8.82,8.79,3.59,11.23,7.8,2.43,4.21,3.02,9.35,1.65,14.48-35.89,134.71-19.83,198.35-19.67,198.98,2.78,9.83-3,21.22-12.89,25.34-.58.24-1.17.46-1.76.64Z"/>
                <path class="cls-2" d="M535.58,788.47c-4.29.64-8.28-1.73-9.53-6.03-.8-2.76-19.17-69.17,19.67-214.98,1.46-5.49,6.82-9.23,11.96-8.34,5.14.88,8.13,6.04,6.66,11.53-37.09,139.24-19.87,203.36-19.69,203.99,1.45,5.12-1.53,11.01-6.65,13.15-.81.34-1.62.56-2.43.68Z"/>
              </g>
              <path class="cls-3" d="M546.85,768.37c-.87.27-1.75.47-2.63.58l-21.23,2.79c-.81.11-1.63.15-2.43.12-7.06-.23-12.4-5.51-12.7-12.56l-.85-19.75c-.11-2.65.5-5.36,1.76-7.83-1.39-2.07-2.15-4.51-2.22-7.16l-.48-19.79c-.08-3.26.91-6.51,2.82-9.33-1.22-2.19-1.81-4.76-1.68-7.42l1-19.92c.2-3.89,1.87-7.65,4.72-10.59,1.99-2.07,4.47-3.6,7.16-4.44,1.27-.4,2.57-.63,3.86-.69l21.22-1.06c.4-.02.81-.02,1.21-.01,7.63.25,13.09,6.24,12.71,13.93l-1,19.92c-.13,2.66-.96,5.25-2.39,7.59.81,1.7,1.26,3.6,1.31,5.58l.48,19.79c.06,2.52-.52,5.03-1.69,7.37,1.28,1.96,2,4.26,2.11,6.73l.85,19.75c.17,3.88-1.19,7.77-3.82,10.95-2.11,2.55-4.97,4.49-8.07,5.45Z"/>
              <path class="cls-6" d="M542.97,691.51l-21.22,1.06c-3.2.16-5.68-2.15-5.53-5.16l1-19.92c.15-3.01,2.87-5.57,6.07-5.73l21.22-1.06c3.2-.16,5.68,2.15,5.53,5.16l-1,19.92c-.15,3.01-2.87,5.57-6.07,5.73Z"/>
              <path class="cls-2" d="M542.76,725.53l-21.24,2.44c-3.21.37-5.86-1.75-5.94-4.74l-.48-19.79c-.07-2.99,2.47-5.71,5.67-6.08l21.24-2.44c3.21-.37,5.86,1.75,5.94,4.74l.48,19.79c.07,2.99-2.47,5.71-5.67,6.08Z"/>
              <path class="cls-6" d="M544.14,759.64l-21.23,2.79c-3.2.42-5.91-1.65-6.03-4.64l-.85-19.75c-.13-2.98,2.37-5.74,5.57-6.16l21.23-2.79c3.2-.42,5.91,1.65,6.03,4.64l.85,19.75c.13,2.98-2.37,5.74-5.57,6.16Z"/>
            </g>
            <g>
              <g>
                <path class="cls-3" d="M385.2,754.08c.6.73,1.26,1.4,1.96,2.01,6.15,5.28,15.5,5.13,22.72-.37,2.54-1.93,62.89-48.99,126.75-190.72,3.17-7.03,2.44-14.71-1.91-20.02-.6-.73-1.27-1.42-1.99-2.03-1.37-1.18-2.93-2.11-4.63-2.76-4.48-1.73-9.56-1.45-14.29.79-4.73,2.24-8.56,6.18-10.76,11.08-57.97,128.65-112.48,172.92-113.02,173.35-8.67,6.69-11.31,18.93-5.86,27.27.32.49.67.96,1.03,1.41Z"/>
                <path class="cls-2" d="M393.38,748.56c3.11,2.67,7.92,2.72,11.74-.19,2.45-1.86,60.66-47.25,123.4-186.5,2.36-5.24.39-10.99-4.41-12.84-4.8-1.85-10.6.9-12.96,6.14-59.92,132.98-115.7,177.05-116.26,177.48-4.51,3.48-5.89,9.81-3.07,14.13.45.68.97,1.27,1.55,1.77Z"/>
              </g>
              <path class="cls-3" d="M397.17,726.41c.54.66,1.14,1.26,1.79,1.79l15.64,12.91c.6.49,1.24.94,1.92,1.32,5.95,3.34,13.77,1.68,18.59-3.97l13.52-15.8c1.81-2.12,3.07-4.66,3.63-7.31,2.48-1,4.69-2.63,6.47-4.78l13.25-16.03c2.18-2.64,3.48-5.81,3.74-9.08,2.43-1.19,4.58-3,6.2-5.26l12.11-16.87c2.36-3.29,3.43-7.22,3-11.06-.3-2.69-1.34-5.2-3-7.23-.79-.96-1.7-1.8-2.72-2.5l-16.75-11.48c-.32-.22-.65-.42-.99-.62-6.43-3.61-14.81-1.42-19.48,5.09l-12.11,16.87c-1.62,2.26-2.63,4.79-2.96,7.43-1.77.99-3.37,2.33-4.69,3.93l-13.24,16.02c-1.69,2.04-2.84,4.4-3.4,6.9-2.33.97-4.41,2.5-6.1,4.47l-13.52,15.81c-2.66,3.11-4.07,6.98-3.97,10.91.08,3.15,1.17,6.17,3.09,8.52Z"/>
              <path class="cls-6" d="M450.26,665.19l16.75,11.48c2.53,1.73,6.06,1.07,7.89-1.47l12.11-16.87c1.83-2.55,1.26-6.02-1.27-7.75l-16.75-11.48c-2.53-1.73-6.06-1.07-7.89,1.47l-12.11,16.87c-1.83,2.55-1.26,6.02,1.27,7.75Z"/>
              <path class="cls-2" d="M428.35,693.25l15.87,12.63c2.4,1.91,5.96,1.49,7.96-.93l13.24-16.03c2-2.42,1.68-5.93-.72-7.83l-15.87-12.63c-2.4-1.91-5.96-1.49-7.96.93l-13.24,16.03c-2,2.42-1.68,5.93.72,7.83Z"/>
              <path class="cls-6" d="M405.07,720.59l15.63,12.91c2.36,1.95,5.93,1.59,7.97-.79l13.52-15.8c2.04-2.39,1.78-5.9-.58-7.85l-15.63-12.91c-2.36-1.95-5.93-1.59-7.97.79l-13.52,15.8c-2.04,2.39-1.78,5.9.58,7.85Z"/>
            </g>
          </g>
          <g>
            <path class="cls-3" d="M525.64,580.65c-23.33-7.89-43.26-21.69-57.64-39.91-22.46-28.23-28.83-64.17-16.99-96.09,20.31-54.77,87.33-82.74,149.39-62.34l1.1.37c61.28,20.73,94.76,81.74,74.64,136-13.11,35.35-46.96,61.24-88.33,67.56-20.23,3.07-41.34,1.27-61.06-5.22l-1.11-.37Z"/>
            <path class="cls-2" d="M458.7,447.19c-11.29,30.45-4.27,63.1,15.84,88.38,13.23,16.77,32.1,30.15,55.05,37.7,19.15,6.29,38.81,7.72,57.27,4.91,37.04-5.65,69.05-28.28,81.58-62.06,18.73-50.51-13.08-107.08-70.9-126.08-57.91-19.04-120.12,6.64-138.85,57.14Z"/>
            <path class="cls-6" d="M476.06,452.93c15.65-42.2,67.49-63.53,115.8-47.66,48.3,15.88,74.78,62.96,59.13,105.15-15.65,42.2-67.49,63.53-115.8,47.66-48.3-15.88-74.78-62.96-59.13-105.15Z"/>
            <path class="cls-2" d="M496.08,459.51c12.07-32.54,52.05-48.99,89.3-36.75,37.25,12.24,57.66,48.55,45.59,81.09s-52.05,48.99-89.3,36.75c-37.25-12.24-57.66-48.55-45.59-81.09Z"/>
            <path class="cls-3" d="M543.3,475.03c3.62-9.76,15.61-14.69,26.77-11.02,11.17,3.67,17.29,14.56,13.67,24.31-3.62,9.76-15.61,14.69-26.77,11.02-11.17-3.67-17.29-14.56-13.67-24.31Z"/>
            <path class="cls-2" d="M552.86,478.17c1.91-5.14,8.23-7.75,14.12-5.81,5.89,1.94,9.12,7.67,7.21,12.82-1.91,5.14-8.23,7.75-14.12,5.81-5.89-1.94-9.12-7.67-7.21-12.82Z"/>
            <polygon class="cls-6" points="565.62 427.7 597.58 438.2 585.1 447.67 588.61 462.38 556.65 451.88 569.12 442.41 565.62 427.7"/>
            <polygon class="cls-6" points="538.1 501.9 570.06 512.4 557.58 521.86 561.09 536.58 529.13 526.08 541.61 516.61 538.1 501.9"/>
            <polygon class="cls-6" points="501.87 477.59 512.22 449.67 523.47 461.2 539.9 458.77 529.55 486.69 518.3 475.16 501.87 477.59"/>
            <polygon class="cls-6" points="586.81 505.51 597.16 477.59 608.41 489.12 624.84 486.69 614.48 514.61 603.23 503.08 586.81 505.51"/>
            <polygon class="cls-3" points="612.89 460.22 598.27 469.05 593.73 468.72 596.27 465.25 612.89 460.22"/>
            <polygon class="cls-3" points="514.05 504.07 530.68 499.04 533.22 495.57 528.67 495.24 514.05 504.07"/>
            <polygon class="cls-3" points="587.8 528.28 578.07 514.6 578.37 510.39 582.15 512.79 587.8 528.28"/>
            <polygon class="cls-3" points="539.14 436.01 544.79 451.5 548.57 453.9 548.87 449.69 539.14 436.01"/>
          </g>
        </g>
      </g>
    </g>
  </g>
</svg>