<?xml version="1.0" encoding="UTF-8"?>
<svg id="Layer_2" data-name="Layer 2" xmlns="http://www.w3.org/2000/svg" viewBox="0 0 946.94 1005.01">
  <defs>
    <style>
      .cls-1 {
        fill: #003087;
      }

      .cls-2 {
        fill: #fdffff;
      }

      .cls-3 {
        fill: #fff;
      }

      .cls-4 {
        fill: #041c3f;
      }

      .cls-5 {
        fill: #a4a7a9;
      }
    </style>
  </defs>
  <g id="Logos">
    <g id="Logos-2" data-name="Logos">
      <g>
        <path class="cls-3" d="M570.91,985.4c-59.4-6.93-114.93-31.02-160.58-69.66l-70.71-59.85c-39.44-33.38-87.41-54.26-138.72-60.38L0,771.55l47.04-30.09c6.66-4.26,154.87-98.82,250.53-139.93l-6.1-17.28c-7.31,10.54-15.35,18.1-24.93,23.63-12.51,7.22-26.61,10.44-45.72,10.44-20.44,0-43.71-3.79-48.17-4.54l-28.6-4.87,7.82-13.27c-10.23-2.9-19.16-7.86-27.09-13.7l-12,18.73-44.58-15.33c-15.01-5.16-34.42-17.95-41.58-49.54-3.97-17.53-2.86-35.44-1.22-47.37,3.54-25.77,13.5-48.9,28.79-66.9,14.65-17.23,41.43-38.32,85.89-40.91l15.66-.91,14.1,6.86c1.98.96,11.08,5.55,29.36,16.98l-107.8-142,69.05-37.54c24.36-13.24,49.22-24.88,73.87-34.57,4.11-1.62,8.28-3.21,12.41-4.73,8.24-3.04,16.61-5.92,24.88-8.56,4.15-1.32,8.34-2.61,12.47-3.83,8.29-2.44,16.7-4.72,25.01-6.76,4.17-1.03,8.39-2.01,12.53-2.93,8.33-1.84,16.78-3.51,25.12-4.95,12.53-2.17,25.25-3.9,37.79-5.16,17.45-1.75,35.17-2.64,52.67-2.64,11.88,0,23.94.41,35.83,1.22,4.19.28,8.45.63,12.66,1.01,25.21,2.32,50.74,6.51,75.91,12.46l.31.08c2.5.59,5,1.2,7.48,1.83l4.74-71.44,40.74,32.55c24.66-31.46,58.32-52.5,65.88-57L799.35,0l-45.69,129.69c-2.18,6.7-5.77,24.49-3.11,36.6l11.99,36.72c5.29,16.18,8.61,32.78,9.89,49.33.18,2.38.33,4.75.46,7.03l.58,10.97c6.65-.33,13.25-.5,19.74-.5,5.09,0,10.13.11,15,.32,2.12.09,4.27.2,6.42.34,4.47.28,8.88.66,13.11,1.13,2.25.25,4.49.52,6.65.82,7,.96,13.74,2.2,20.02,3.68,6.75,1.59,13.24,3.54,19.29,5.77,1.48.55,2.96,1.12,4.4,1.71,8.4,3.42,16.17,7.54,23.1,12.25,2.22,1.51,4.39,3.1,6.45,4.74,5.88,4.67,11.17,9.91,15.72,15.58,1.42,1.76,2.79,3.6,4.08,5.46,1.25,1.81,2.44,3.67,3.55,5.53.54.92,1.07,1.85,1.58,2.77,3.65,6.66,6.53,13.83,8.53,21.3,5.71,21.27,7.25,40.74,4.56,57.87-1.58,10.12-4.71,19.68-9.3,28.41-1.26,2.4-2.64,4.76-4.11,7.01-1.76,2.7-3.42,5.02-5.08,7.08-1.26,1.57-2.61,3.13-3.99,4.63-2.63,2.85-5.51,5.61-8.57,8.2-1.46,1.23-2.97,2.44-4.5,3.6-5.55,4.19-11.83,8.06-18.67,11.51-15.2,7.67-30.93,12.15-42.41,15.42-1.19.34-2.36.68-3.52,1.02l-.98.29c-.82.24-1.64.49-2.45.74l-1.04.32c-.78.24-1.54.48-2.28.72l-.98.32c-.76.25-1.52.51-2.27.76l-.83.29c-.78.27-1.61.57-2.42.87l-.49.18c-4.09,1.52-7.7,3.08-11.01,4.76l-.12.06c-.8.41-1.59.83-2.38,1.26l-.19.11c-.76.42-1.53.86-2.3,1.32l-.13.08c-.61.36-1.21.74-1.8,1.12l-8.63,62.43-35.61,33.4c-3.64,9.83-10.6,18.48-21.62,26.84l5.02,64.75c.52,6.69-.86,13.37-3.99,19.31l-8.59,16.3c-7.22,13.7-21.32,22.21-36.81,22.21h0c-1.2,0-2.4-.05-3.59-.16l-13.39,26.81,5.97,25.38-5.75,13.52c-9.88,23.24-26.44,39.96-47.46,48.68,47.15,48.28,77.48,99.01,78.99,101.56l20.59,34.74-168.06-19.62Z"/>
        <path class="cls-4" d="M921.78,356.43c-1.43-5.34-3.58-11.08-6.76-16.88-.4-.72-.81-1.45-1.24-2.18-.86-1.45-1.79-2.9-2.79-4.35-1-1.45-2.07-2.89-3.22-4.32-3.45-4.29-7.59-8.49-12.57-12.44-1.66-1.32-3.41-2.61-5.26-3.86-5.54-3.77-11.96-7.24-19.39-10.27-1.24-.5-2.5-1-3.8-1.47-5.18-1.91-10.82-3.62-16.96-5.07-5.93-1.4-12.02-2.49-18.14-3.33-2.04-.28-4.08-.53-6.12-.76-4.08-.45-8.16-.79-12.19-1.05-2.02-.13-4.02-.23-6.01-.32-17.91-.77-34.54.09-46.43,1.1-.18-.14-.37-.3-.55-.45-.87-.71-1.77-1.44-2.69-2.19-1.1-.9-2.25-1.84-3.42-2.81l-1.34-25.37c-.11-2.16-.26-4.36-.42-6.54-1.15-14.96-4.16-29.99-8.96-44.66l-11.93-36.52-.06.04c-4.84-18.11.61-41.73,3.19-49.5l27.42-77.82-71.15,42.35c-5.69,3.39-50.11,30.67-71.69,68.95l-27.74-22.17-3.8,57.3c-.01.18-.02.36-.03.54-2.93-.9-5.89-1.79-8.89-2.65-.25-.07-.5-.15-.75-.22-2.92-.83-5.88-1.64-8.87-2.43-.54-.14-1.06-.29-1.59-.43-3.4-.89-6.86-1.75-10.36-2.58-.09-.02-.17-.04-.25-.06-24.38-5.76-48.77-9.76-73.14-12-4.06-.37-8.12-.7-12.18-.97-28.42-1.93-56.82-1.48-85.14,1.37-12.14,1.22-24.27,2.88-36.38,4.97-8.07,1.4-16.14,2.99-24.2,4.77-4.03.89-8.06,1.83-12.08,2.82-8.05,1.98-16.1,4.15-24.13,6.52-4.02,1.18-8.03,2.42-12.05,3.7-8.03,2.56-16.04,5.32-24.05,8.27-4,1.48-8,3-12,4.57-23.99,9.43-47.88,20.61-71.64,33.53l-17.11,9.3-31.48,17.11h0,0l108.91,143.46-3.14,8.67-9.66-2.79-12.1,13.96c-29.33-19.26-42.6-25.9-44.34-26.75l-9.4-4.58-10.44.61c-37.4,2.18-59.69,19.63-71.81,33.89-12.83,15.09-21.2,34.69-24.22,56.67-2.57,18.7-4.84,63.48,29.48,75.28l29.72,10.22,16.09-25.1c12.93,13.05,26.99,24.49,45.28,26.51,1.71.19,3.46.29,5.19.29,5.25,0,10.44-.8,15.76-2.49l-10.74,18.22c2.56.44,25.57,4.26,44.81,4.26,15.41,0,26.42-2.39,35.73-7.76,10.53-6.08,18.75-15.8,27.06-32.4l10.97-2.99c1.79-.45,4.23-1.06,7.21-1.79l20.99,59.48c-92.85,35.34-264.96,145.44-264.96,145.44l145.45,17.35c55.05,6.57,106.95,29.16,149.27,64.97l70.71,59.85c42.5,35.97,94.67,58.6,149.98,65.06l127.95,14.93s-42.89-72.36-105.44-125.21c2.55.21,5.07.36,7.55.36,30.12,0,53.27-15.42,65.16-43.41l3.18-7.49-7.73-32.85,5.46-.93,20.09-40.22,6.83,2.47c10.14,3.66,21.42-.71,26.44-10.25l8.59-16.3c1.37-2.59,1.97-5.52,1.74-8.44l-5.91-76.28c17.96-11.1,23.18-19.92,24.83-27.75l34.39-32.26,7.33-53.05-3.1-6.97c4.81-4.32,9.7-7.89,14.8-10.95.04-.02.07-.04.11-.06.97-.58,1.94-1.14,2.92-1.68.07-.04.14-.08.2-.11.97-.54,1.96-1.05,2.95-1.56.05-.03.11-.05.16-.08,4.18-2.11,8.51-3.96,13.08-5.66.18-.07.37-.13.55-.2.92-.34,1.84-.67,2.78-1,.29-.1.59-.2.88-.3.84-.29,1.68-.57,2.53-.85.35-.12.71-.23,1.06-.35.81-.26,1.64-.52,2.47-.78.38-.12.76-.24,1.14-.36.86-.26,1.73-.53,2.61-.79.35-.1.69-.21,1.03-.31,1.22-.36,2.45-.72,3.7-1.07,11.19-3.19,25.38-7.23,38.88-14.04,5.4-2.72,10.69-5.89,15.62-9.62,1.23-.93,2.45-1.9,3.63-2.9,2.37-2.01,4.64-4.17,6.78-6.49,1.07-1.16,2.11-2.36,3.11-3.61,1.39-1.73,2.68-3.57,3.92-5.48,1.12-1.72,2.18-3.52,3.16-5.39,3.39-6.46,5.93-13.79,7.25-22.22,2.13-13.56,1.18-29.87-4.12-49.59Z"/>
        <g>
          <path class="cls-2" d="M617.7,193.84c-.29,4.39-.41,8.62-.4,12.7,5.4,3.25,10.84,6.57,16.31,9.98-.69-2.67-4.02-13.17-15.91-22.68Z"/>
          <path class="cls-2" d="M635.75,208.84c6.37,3.55,12.79,7.21,19.25,10.95.69-3.09,1.61-6.34,2.82-9.78.85-18.89,23.08-51.22,23.08-51.22,0,0-7.09,25.88-8.28,36.54-.93,8.39-2.04,20.18-2.84,33.16,17.46,10.44,35.21,21.59,53.17,33.5-.1-1.94-.23-3.89-.38-5.82-.98-12.77-3.56-25.38-7.56-37.65l-22.66,14.23,17.38-28.95c-2.99-8.58-5.51-17.39-6.88-22.24-8.98-31.7,3.48-68.02,3.48-68.02,0,0-54.31,32.33-66.51,70.48l-4.07,24.8Z"/>
        </g>
        <path class="cls-1" d="M811.36,419.74s-256.96-286.61-592.91-104.9l-29.98-37.86c325.16-176.8,556.43,51.54,560.9,55.69l.04.07s36.94,35.53,61.95,87Z"/>
        <path class="cls-1" d="M865.42,426.1c18.94-77.33-31.58-92.7-35.86-93.89,25.88,3.84,49.41,13.31,55.03,34.27,9.5,35.45.18,50.27-19.16,59.62Z"/>
        <path class="cls-5" d="M726.91,586.33c-44.25-37.27-108.74-52.09-131.91-56.41-7.23,11.63-21.67,33.15-41.44,54.45,2.37,2.89,17.03,20.3,33.57,30.16-20.8,32.32-13.14,69.74-13.14,69.74,0,0-20.8-18.71-13.14-57.83-9.39-5.07-18.47-15.5-22.48-20.48-.23.31-.47.64-.7.93-11.81,15.44-56.51,39.34-82.16,52.24,17.28,23.43,29.51,53.38,33.38,75.41,4.32,24.59,5.44,45.09,4.81,61.92l44.62-14.39c-22.01-39.87-48.81-56.7-40.01-88.07,9.85-35.15,46.53-38.55,46.53-38.55,0,0-21.17,15.94-22.99,41.39-2.12,29.61,22.91,40.14,64.33,131.81,18.38,4.32,46.24,4.74,59.37-26.16l-11.93-50.69,19.12-3.25,3.27-6.54-45.27-21.99-31.49,6.75,46.33-35.92-4.39,16.87,41.54,20.84,3.44-6.88.81-9.43-17.29-14.87,5.44-5.47,13.2,4.76,33.72,12.17,6.01-11.4-6.94-89.53s32.24-16.15,25.81-21.57ZM680.07,621.64s-2.82-3.32-7.26-8.26c-.05.1-3.9,5.67-6.58,7.29l-2.21,28.4-8.16-26.1c-3.28-.07-14.86-.66-20.31-5.63-4.49-4.09-5.77-8.53-7.88-15.87-1.03-3.61-2.02-8.85-3.04-16.07-.57-4.02.63-8.15,3.28-11.32.41-.49.85-.93,1.3-1.35-2.06-1.25-5.65-7.19-7.37-7.78-7.46-2.54-29.24,3.91-29.24,3.91l2.2-5.49c1.21-2.26,3.02-4.03,5.18-5.06l19.43-6.92c3.02-1.44,6.54-1.14,9.28.81,8.77,6.24,27.64,24.71,49.46,45.12,6.2,2.25,26.06,0,26.06,0l-24.15,24.33Z"/>
        <g>
          <path class="cls-3" d="M432.29,604.51c-5.8-1.55-9.66-8-8.81-14.84.73-5.92,2.76-11.88,5.28-17.36,6.65-14.48,17.08-26.14,29.49-34.01,10.7-6.79,24.39-13.72,29.55-8.76,10.03,9.64,0,27.78,0,27.78,0,0-5.61-19.28-33.95,4.54-4.89,4.11-11.78,19.12-9.66,25.68,3.8,11.74,68.79-21.71,68.79-55.16,0-12.48-4.46-25.47-17.9-34.63-4.42-.1-8.88-.17-13.42-.17-26.4,0-101.75,16.43-149.83,27.58,2.19,14.46,13.05,23.67,13.05,23.67,0,0,4.89-27.71,24.43-27.71-21.01,39.62,4.89,58.33,4.89,58.33,0,0,3.42-27.79,23.94-31.19,0,0-28.34,62.37,23.94,75.98,89.86,23.39,165.65-112.26,165.65-112.26-25.1,30.75-100.62,107.16-155.45,92.56Z"/>
          <path class="cls-5" d="M304.23,457.91c43.24-19.19,117.4-39.38,184.89-31.36,183.87,21.85,264.96,83.52,264.96,83.52l1.98,4.46-3.94,28.53-9.35,8.77s-87.06-71.37-261.1-71.43c-42.42-.01-131.24,24.16-131.24,24.16,43.68-29.82,87.25-40.31,113.27-44,1.47-.21,1.39-2.71-.08-2.7-37.3.27-111.11,6.2-174.16,44.12h0c-7.2-7.96,9.17-41.58,14.76-44.07Z"/>
          <path class="cls-5" d="M225.77,463.35l10.33-3.76,17.52-3.01,6.23-.09.86-1.9s1.28.82,2.05-.82c.59-1.24,1.5-2.2,1.92-2.78.96-1.32,4.51-4.2,4.51-4.2l5.19,13.4c.01.63-.78,2.36-.78,2.36l.4,1.25s.94.25,1.43,1.23c.77,1.55,1.15,6.83,1.15,6.83,0,0-.31,1.52-.29,2.05.01.62.49,2.35.49,2.35,0,0-.75,1.94-.98,2.46-.36.78-1.38,2.72-1.38,2.72,0,0-.4-.51-1.72.69-.46.42-.93,2.07-.93,2.07l-2,.25.3.8.89,2.89.91,2.18-.3.51s-1.02-1.8-1.17-1.97c-.3-.32-1.44-.97-1.44-.97l-1.57,4.33s-.43.88-.44,1.2c-.06,1.04.99,3.61.99,3.61,0,0-.41.68-.48.97-.07.31-.03,1.34-.03,1.34l-.45.14-.39.54-1.44-.77-10.52.19-1.7.82c-.32.15-.92,1.15-.92,1.15l-2.04-1.19-3.21,1.16s-.85-1.66-2.59-2.49c-.65-.31-1.11-.62-1.62-.71-1.99-.38-3.02.73-3.02.73l-.93-.62-.45.14-12.29-34.88-.07-.22Z"/>
          <path class="cls-5" d="M233.56,510.13l-50.83,44.5s43.28,7.37,53.82,1.29c10.26-5.92,23.36-45.23,23.36-45.23l-28.52,25.75,2.16-26.31Z"/>
          <path class="cls-5" d="M209.85,482.55c-47.46-32.89-66.27-42.05-66.27-42.05-70.36,4.1-61.51,86.14-55.87,88.09,10.56-16.47,11.93-39.57,21.39-38.95,16.73,1.09,44.4,46.8,61.1,48.65,14.22,1.57,52.55-41.15,52.55-41.15,0,0-36.1,18.83-48.1,15.15-11.49-3.52-40.62-41.08-40.62-41.08,0,0,21.06,17.67,44.96,24.19-15.54-16.13-31.74-38.56-31.74-38.56,18.18,20.94,62.22,31.86,62.59,25.71Z"/>
        </g>
        <line class="cls-4" x1="793.68" y1="508.84" x2="786.35" y2="561.9"/>
        <path class="cls-1" d="M607.04,921.82s-69.59-11.79-98.17-27.9c-38.87-21.9-51.96-59.97-50.88-69.81,1.87-17.06,1.76-40.28-3.58-70.68-4.29-24.41-21.75-64.07-45.96-84.48-38.55,5.67-64.25-35.72-64.25-35.72,0,0,11.52,31.73,17.61,78.68-112-41.24-189.42,21.05-189.42,21.05,0,0,164.47-8.58,246.42,81.72,6.55,12.11,31.73,71.13,79.32,89,55.11,20.69,123.56,32.85,123.56,32.85l-14.65-14.71Z"/>
        <path class="cls-3" d="M647.56,589.7c4.38,2.17,9.08,5.26,13.64,13.57.7,1.28-.53,3.3-2.09,3.41-2.88.21-8.5-.98-9.55-1.94-1.11-1.02-1.52-2-2.89-6.28-.63-1.98,0-3.78-.63-7.35-.15-.85.82-1.75,1.52-1.41Z"/>
        <g>
          <polygon class="cls-2" points="688.73 408.17 686.75 407.33 700.59 374.73 718.56 382.36 704.72 414.96 702.67 414.09 698.72 423.37 705.42 426.22 712.04 423.54 729.82 381.66 727.14 375.04 699.89 363.47 693.27 366.14 675.49 408.03 678.17 414.65 684.79 417.46 688.73 408.17"/>
          <polygon class="cls-2" points="709.45 441.6 707.44 446.33 689.47 438.71 707.25 396.82 697.97 392.87 676.24 444.05 712.78 459.56 718.74 445.54 709.45 441.6"/>
        </g>
      </g>
    </g>
  </g>
</svg>