<?xml version="1.0" encoding="UTF-8"?>
<svg id="Layer_2" data-name="Layer 2" xmlns="http://www.w3.org/2000/svg" viewBox="0 0 860 880">
  <defs>
    <style>
      .cls-1 {
        fill: #fafcfe;
      }

      .cls-2 {
        fill: #110e13;
      }

      .cls-3 {
        fill: #e51f3b;
      }

      .cls-4 {
        fill: #eba821;
      }
    </style>
  </defs>
  <g id="Logos">
    <g>
      <path class="cls-1" d="M387.96,836.41c-.83-.86-17.56-18.25-37.51-42.27l-51.34,30.6-27.1-62.39c-3.14-7.22-7.08-14.88-12.06-24.58-1.16-2.25-2.36-4.59-3.61-7.03-8.21,3.4-14.63,5.54-17.82,6.54l-46.72,14.6-23.04-45.02c-4.34-8.49-24.93-49.8-37.61-94.29-20.53-3.58-33.27-7.1-34.89-7.56l-64.95-18.35,25.03-65.44c1.5-3.92,8.03-20.58,18.67-41.8L0,449.59l105.99-66.42c4.5-2.82,9.18-6,13.91-9.46l20.89-27.98c1.46-1.95,14.64-19.47,29.58-34.88,1.39-1.44,2.8-2.86,4.2-4.28,2.94-2.98,5.19-5.34,6.76-7.07-8.85-18.36-11.03-32.94-11.56-39.07l-6.5-75.26,62.96,6.36c5.44-19.5,15.72-37.62,30.31-53.2.25-.27.36-.41.37-.41l27.96-35.46,10.83,4.62c7.49-8.93,13.93-14.53,16.25-16.44l53.45-44.11c16.22-16.06,30.71-25.45,34.11-27.56L430,0l30.51,18.97c3.39,2.11,17.88,11.5,34.1,27.56l53.45,44.11c2.32,1.92,8.76,7.51,16.25,16.44l10.83-4.62,27.96,35.47s.12.14.37.41c14.58,15.58,24.86,33.7,30.3,53.2l62.96-6.36-6.5,75.26c-.53,6.13-2.7,20.71-11.56,39.07,1.57,1.73,3.82,4.09,6.77,7.07,1.39,1.41,2.8,2.84,4.19,4.27,14.94,15.42,28.12,32.93,29.58,34.88l20.9,27.99c4.74,3.46,9.41,6.64,13.91,9.46l105.99,66.42-74.98,29.82c10.64,21.22,17.17,37.88,18.67,41.81l26.79,70.06-70.65,14.69c-2,.42-17.47,3.58-39.31,6.86-9.35,41.28-23.33,79.43-26.31,87.36l-20.1,53.53-52.6-16.44c-3.2-1-9.62-3.13-17.82-6.54-1.24,2.42-2.42,4.72-3.56,6.94l-.06.12c-4.98,9.69-8.92,17.34-12.05,24.55l-27.1,62.39-51.34-30.6c-19.4,23.37-35.45,40.13-37.51,42.27l-42.05,43.6-42.05-43.59Z"/>
      <path class="cls-2" d="M756.38,468.46l58.06-23.09-70.66-44.28c-6.1-3.82-12.01-7.93-17.57-12.08l-22.71-30.41c-.55-.73-13.55-18.1-27.86-32.87-1.35-1.39-2.71-2.77-4.07-4.15-11.92-12.09-13.91-15-14.23-20.76l-2.15-.26c12.39-20.5,14.74-36.92,15.18-42.01l4.33-50.17-47.85,4.84c-3.21.33-6.22.63-9.05.93-2.29-22.32-12.2-43.68-28.58-61.18-.58-.62-1.09-1.21-1.5-1.73l-18.64-23.65-11.14,4.75c-9.86-14.74-20.18-23.6-22.22-25.29l-40.48-33.41-1.08,2.57c-19.42-23.6-40.41-37.14-43.83-39.28l-20.34-12.65-20.34,12.65c-3.43,2.13-24.42,15.68-43.83,39.28l-1.08-2.57-40.48,33.41c-2.05,1.69-12.36,10.55-22.22,25.29l-11.14-4.75-18.64,23.65c-.41.53-.91,1.1-1.5,1.72-16.38,17.51-26.29,38.87-28.58,61.19-2.83-.3-5.84-.6-9.05-.93l-47.85-4.84,4.33,50.17c.44,5.09,2.79,21.51,15.18,42.01l-2.15.26c-.32,5.76-2.31,8.67-14.23,20.76-1.36,1.38-2.72,2.76-4.07,4.15-14.31,14.76-27.32,32.13-27.86,32.87l-22.7,30.41c-5.56,4.15-11.46,8.26-17.57,12.09l-70.66,44.28,58.06,23.09c-16.69,29.54-26.99,55.79-28.8,60.52l-16.68,43.63,43.3,12.24c.95.27,18.22,5.09,45.46,9.14,11.53,47.64,36.02,96.37,39.41,103l15.36,30.02,31.15-9.73c4.26-1.33,17.31-5.69,32.48-13.48,4.56,9.25,8.57,17.04,12.19,24.07,5.17,10.05,9.25,17.99,12.66,25.83l18.07,41.59,37.91-22.59c1.43-.85,4.47-2.75,8.46-5.69,23.8,30.02,46.08,53.2,47.39,54.56l28.03,29.06,28.03-29.06c1.31-1.36,23.59-24.54,47.39-54.56,3.99,2.94,7.04,4.84,8.46,5.69l37.91,22.59,18.07-41.59c3.41-7.85,7.49-15.79,12.66-25.84,3.62-7.03,7.62-14.82,12.18-24.07,15.17,7.79,28.23,12.15,32.48,13.48l35.07,10.96,13.4-35.69c2.4-6.4,19.61-53,28.4-98.46,28.87-3.84,50.68-8.35,51.89-8.6l47.1-9.79-17.86-46.71c-1.81-4.73-12.11-30.98-28.8-60.52Z"/>
      <g>
        <path class="cls-3" d="M430,706.7s-47.93-29.24-72.07-99.88c-22.4,14.45-27.92,24.71-27.92,24.71,0,0-30.69-25.51-39.65-65.03-11.33,6.61-29.69,13.25-29.69,13.25,0,0-9.65-41.3,0-69.45-15.78,7.36-48.56-12.05-48.56-12.05,21.16-41.95,70.43-57.69,70.43-57.69-18.53-12.95-32.67-26.49-32.67-26.49,0,0,29.24-.01,45.59,4.42-18.92-11.34-35.64-62.84-35.64-62.84l-17.39-61.15c-1.4,25.28-16.26,37.95-30.12,52.25-12.64,13.04-24.44,28.84-24.44,28.84,0,0,8.19-1.2,16.31-3.02-.92.99-30.66,32.52-67.51,55.62,0,0,18.35,7.3,40.84-1.51-38.27,37.33-65.71,109.09-65.71,109.09,0,0,27.75,7.84,69.14,11.47,3.04,48.12,40.48,121.25,40.48,121.25,0,0,40.15-12.55,59.37-35.32,23.29,52.65,35.89,72.08,45.62,94.47,0,0,20.87-12.44,31.52-33.57,28.97,44.36,72.07,89.05,72.07,89.05,0,0,43.1-44.69,72.07-89.05,10.65,21.13,31.52,33.57,31.52,33.57,9.73-22.4,22.33-41.83,45.62-94.47,19.22,22.78,59.37,35.32,59.37,35.32,0,0,27.47-73.13,30.51-121.25,41.39-3.63,79.11-11.47,79.11-11.47,0,0-27.44-71.75-65.71-109.09,22.49,8.8,40.84,1.51,40.84,1.51-36.85-23.1-66.6-54.63-67.51-55.62,8.11,1.82,16.31,3.02,16.31,3.02,0,0-11.8-15.8-24.44-28.84-13.86-14.3-28.73-26.97-30.12-52.25l-17.39,61.15s-16.72,51.5-35.64,62.84c16.34-4.43,45.59-4.42,45.59-4.42,0,0-14.14,13.54-32.67,26.49,0,0,49.27,15.75,70.43,57.69,0,0-32.78,19.42-48.56,12.05,9.65,28.15,0,69.45,0,69.45,0,0-18.36-6.64-29.69-13.25-8.96,39.52-39.65,65.03-39.65,65.03,0,0-5.52-10.27-27.92-24.71-24.13,70.65-72.07,99.88-72.07,99.88Z"/>
        <path class="cls-4" d="M521.93,430.73s-25.82,9.76-37.28,4.36c-4.21-1.98-21.15-27.67-28.38-33.78-15.21-12.87-37.33-12.87-52.55,0-7.22,6.11-24.17,31.8-28.38,33.78-11.45,5.4-37.28-4.36-37.28-4.36l.37,1.68c1.08,4.95,1.85,9.96,2.24,15.01s1.98,9.44,4.73,13.43c0,0,32.97,57.13,79.51,116.45,2.6,3.32,7.57,3.32,10.17,0,46.54-59.32,79.51-116.45,79.51-116.45,2.74-3.99,4.36-8.63,4.73-13.43.38-5.05,1.16-10.07,2.24-15.01l.37-1.68Z"/>
        <path class="cls-2" d="M472.78,447.36l-15.34-14.19-3.58-5.63,1.16,12.71c.27,2.95,2.65,5.31,5.72,5.68l12.04,1.44Z"/>
        <path class="cls-2" d="M387.23,447.36l15.34-14.19,3.58-5.63-1.16,12.71c-.27,2.95-2.65,5.31-5.72,5.68l-12.04,1.44Z"/>
        <path class="cls-4" d="M345.95,475.38c-1.11,12.01,18.66,36.84,37.69,57.71-17.11-24.62-30.32-45.64-37.69-57.71Z"/>
        <path class="cls-4" d="M514.06,475.38c1.11,12.01-18.66,36.84-37.69,57.71,17.11-24.62,30.32-45.64,37.69-57.71Z"/>
      </g>
      <path class="cls-3" d="M430,266.98s-20.7,40.65-25.79,67.81c0,0-13.18-16.54-21.43-23.96-16.19,25.8-10.83,41.41-10.83,41.41,0,0-6.77-4.69-16.16-7.93-7.49-2.59-14.38-3.7-20.23-9.13-29.78-27.61-61.33-49.96-61.33-49.96,0,0,7.1,16.32,15.08,30.93-.72-.45-1.45-.91-2.18-1.35-54.72-32.89-57.82-68.77-57.82-68.77,0,0,42.9,4.34,46.76,5.78,6.49,2.43,26.64,8.56,26.64,8.56l-1.07-1.02c-26.08-24.91-26.7-59.94-2.42-85.9,1.31-1.4,2.57-2.84,3.76-4.36,4.26,1.82,10.55,19.88,19.33,27.02-5.09-38.83,26.61-64.99,26.61-64.99,0,0,11.59,27.72,12.51,30.3,0,0,28.03,26.75,30.47,59.71,10.82-17.3-14.4-69.23-15.73-92.47,14.39-40.02,53.82-64.54,53.82-64.54,0,0,39.43,24.52,53.82,64.54-1.34,23.25-26.55,75.17-15.73,92.47,2.44-32.96,30.47-59.71,30.47-59.71.93-2.58,12.51-30.3,12.51-30.3,0,0,31.7,26.16,26.61,64.99,8.78-7.13,15.06-25.2,19.33-27.02,1.2,1.52,2.46,2.97,3.76,4.36,24.29,25.96,23.67,60.99-2.42,85.9l-1.07,1.02s20.15-6.13,26.64-8.56c3.85-1.44,46.76-5.78,46.76-5.78,0,0-3.1,35.88-57.82,68.77-.74.44-1.46.9-2.18,1.35,7.99-14.61,15.08-30.93,15.08-30.93,0,0-31.55,22.35-61.33,49.96-5.85,5.43-12.74,6.54-20.23,9.13-9.39,3.25-16.16,7.93-16.16,7.93,0,0,5.36-15.61-10.83-41.41-8.26,7.42-21.43,23.96-21.43,23.96-5.08-27.16-25.79-67.81-25.79-67.81Z"/>
      <path class="cls-1" d="M501.61,400.87c17.83-28.29,46.88-40.66,55.15-43.73-3.31,6.72-13.23,26.76-16.62,32.71-6.04,10.57-14.21,10.67-29.05,10.83-2.86.03-6.05.07-9.49.19Z"/>
      <path class="cls-1" d="M358.39,400.87c-17.83-28.29-46.88-40.66-55.15-43.73,3.31,6.72,13.23,26.76,16.62,32.71,6.04,10.57,14.21,10.67,29.05,10.83,2.86.03,6.05.07,9.49.19Z"/>
    </g>
  </g>
</svg>