<?xml version="1.0" encoding="UTF-8"?>
<svg id="Layer_2" xmlns="http://www.w3.org/2000/svg" xmlns:xlink="http://www.w3.org/1999/xlink" viewBox="0 0 884.19 804.76">
  <defs>
    <style>
      .cls-1 {
        fill: #003087;
      }

      .cls-2 {
        fill: #fff;
      }

      .cls-3 {
        fill: #212322;
      }

      .cls-4 {
        fill: #bcbec0;
      }

      .cls-5 {
        fill: none;
        stroke: #bcbec0;
        stroke-miterlimit: 10;
        stroke-width: 4.53px;
      }

      .cls-6 {
        clip-path: url(#clippath);
      }
    </style>
    <clipPath id="clippath">
      <path class="cls-5" d="M423.24,198.65l-.9,3.73-12.59,125s-2.7,20.68-27.58,37.17l-273.55,69.36c-5.95,1.49-11.35,4.66-15.55,9.13l-22.31,23.76c-8.72,10.55-9.75,59.76,16.94,59.76l302.59,7.78,14.07,14.27,8.39,115.41,3,5.1.9,12.89c2.52,15.95,14,31.01,20.66,38.62,2.56,2.93,7.08,2.93,9.65,0,6.66-7.6,18.14-22.67,20.66-38.62l.9-12.89,3-5.1,8.39-115.41,14.07-14.27,302.59-7.78c26.7,0,25.67-49.21,16.94-59.76l-22.31-23.76c-4.2-4.47-9.6-7.64-15.55-9.13l-273.55-69.36c-24.88-16.49-27.58-37.17-27.58-37.17l-12.59-125-.9-3.73"/>
    </clipPath>
  </defs>
  <g id="Logos">
    <g>
      <g>
        <path class="cls-1" d="M14.51,0v97.61h54.61c7.86,0,15.23,3.82,19.76,10.24l233.63,331.22-220.91,259.2c-4.59,5.39-11.32,8.49-18.4,8.49H0v97.99h368.14v-97.99h-96.29c-5.83,0-9.04-6.78-5.34-11.29l126.73-154.5,104.61,149.48c4.81,6.87-.11,16.3-8.49,16.3h-47.26v97.99h442.1v-97.99h-67.37l-255.52-365.03,200.55-239.18c2.62-3.13,6.5-4.94,10.59-4.94h97.62V0h-363.51v97.61h83.41c5.82,0,9.03,6.76,5.35,11.28l-106.25,130.18-88.78-125.09c-4.87-6.86.04-16.36,8.45-16.36h61.31V0H14.51Z"/>
        <path class="cls-2" d="M452.46,794.39v-77.27h36.9c7.75,0,14.8-4.27,18.38-11.15s3.04-15.1-1.4-21.45l-112.45-160.68-135.4,165.06c-4.28,5.22-5.14,12.25-2.26,18.34,2.88,6.09,8.87,9.88,15.61,9.88h85.93v77.27H10.36v-77.27h72.84c10.13,0,19.71-4.42,26.29-12.14l226.12-265.32L97.35,101.88c-6.46-9.16-17.01-14.63-28.22-14.63H24.87V10.36h434.81v76.89h-50.95c-7.78,0-14.84,4.3-18.41,11.21-3.57,6.92-3,15.16,1.51,21.5l96.65,136.19,114.86-140.72c4.26-5.22,5.11-12.24,2.22-18.32-2.89-6.08-8.86-9.87-15.6-9.87h-73.05V10.36h342.79v76.89h-87.26c-7.16,0-13.91,3.15-18.52,8.64l-205.66,245.27,263.18,375.96h62.4v77.27h-421.37Z"/>
        <path class="cls-1" d="M466.28,780.58v-49.64h23.08c12.93,0,24.67-7.12,30.64-18.59,5.97-11.46,5.07-25.16-2.34-35.75l-122.9-175.61-146.95,179.15c-7.7,9.39-9.25,22.04-4.06,33.01,5.19,10.97,15.96,17.79,28.1,17.79h72.12v49.64H24.18v-49.64h59.02c14.19,0,27.6-6.19,36.8-16.99l233.08-273.48L108.64,93.92c-9.05-12.83-23.82-20.48-39.51-20.48h-30.44V24.18h407.18v49.26h-37.14c-12.98,0-24.73,7.16-30.69,18.69-5.95,11.53-4.99,25.26,2.51,35.84l107.15,150.98,126.33-154.77c7.67-9.39,9.2-22.03,4-32.98-5.2-10.95-15.96-17.76-28.08-17.76h-59.23V24.18h315.16v49.26h-73.44c-11.26,0-21.86,4.95-29.11,13.57l-212.47,253.4,273.38,390.54h55.78v49.64h-393.74Z"/>
      </g>
      <g>
        <path class="cls-1" d="M406.92,496l35.05,35.57.16,2.19.16-2.19,35.05-35.57,302.85-7.8c0-.1-.01-.2-.02-.3l-15.87-16.91-278.15-70.51-5.52-3.68c-21.53-14.27-32.73-31.2-38.53-44.27-5.85,13.17-17.07,30.1-38.5,44.3l-5.47,3.64-278.17,70.52-15.86,16.9c0,.1-.01.2-.02.31l302.85,7.79ZM483.88,150.61l29.84-12.31h-24.6l-5.15,8.32-.08,3.99ZM400.32,150.59l-.09-4.06-5.1-8.23h-24.6l29.79,12.29Z"/>
        <path class="cls-2" d="M442.13,655.32l.24-.41,8.68-119.38,30.16-30.61,307.6-7.92c.64-4.21.57-9.87-.01-13.1l-19.28-20.54c-.3-.32-.7-.54-1.17-.66l-278.5-70.6-4.23-2.82c-34.4-22.79-39.85-52.36-40.6-58.06l-.04-.34-2.9-27.98-2.78,27.63-.02.18c-.74,5.77-6.2,35.74-40.69,58.59l-4.2,2.8-278.48,70.6c-.5.13-.9.35-1.19.66l-19.28,20.54c-.58,3.24-.65,8.92-.02,13.11l307.61,7.91,30.16,30.61,8.68,119.38.24.41ZM474.57,164.21l67.21-27.73-4.13-3.13-.7-.72c-.86-.9-5.63-3.36-13.33-3.36h-39.54l-9.1,14.7-.41,20.25ZM409.64,164.2l-.43-20.32-9.05-14.6h-39.54c-7.7,0-12.47,2.46-13.33,3.36l-.39.4-2.97,2.59-1.28.94,66.98,27.63Z"/>
        <path class="cls-1" d="M442.12,768.91c-15.44,0-29.95-6.44-39.78-17.67-12.14-13.86-27.48-35.86-31.61-61.99l-.19-1.2-.35-4.71-3.01-5.12-7.14-98.17-273.21-7.02c-25.54-.17-47.66-14.89-59.18-39.4-14.49-30.79-11.22-74.06,7.29-96.44l.59-.72,23.62-25.22c10.33-11,23.52-18.75,38.15-22.42l264.04-66.94c1.41-1.43,2.21-2.6,2.62-3.32l9.2-86.99-78.17-32.25c-19.93-7.99-32.85-27.21-32.85-48.95v-22.4c0-15.76,7.06-30.67,19.37-40.91l.65-.54,13.68-10.1c16.22-14.85,39.79-23.35,64.78-23.35h35.56l1.16-17.23h85.91l2.66,17.23h37.7c24.95,0,48.52,8.49,64.75,23.32l12.88,9.5.63.52c13.03,10.73,20.21,25.49,20.21,41.56v22.4c0,21.75-13.04,41.02-33.23,49.09l-77.33,31.91,8.79,87.3c.48.77,1.29,1.9,2.57,3.21l264.13,66.95c14.57,3.67,27.73,11.41,38.02,22.38l22.94,24.44.59.71c18.92,22.79,22.51,66.43,7.99,97.27-11.53,24.5-33.81,39.22-59.61,39.38l-272.77,7.02-7.14,98.16-2.96,5.04-.23,3.23-.19,1.23c-3.4,21.95-14.09,43.33-31.77,63.53-9.86,11.24-24.37,17.68-39.8,17.68ZM410.24,488.35l31.89,32.36,31.89-32.36,288.97-7.44-2.78-2.97-277.25-70.28-6.62-4.41c-16.5-10.94-27.27-23.42-34.24-34.4-6.98,11.01-17.74,23.51-34.23,34.44l-6.55,4.37-277.26,70.29-2.78,2.97,288.98,7.43Z"/>
        <path class="cls-2" d="M442.12,761.17c-13.22,0-25.59-5.48-33.96-15.03-11.47-13.09-25.94-33.8-29.79-58.1l-.14-.89-.46-6.18-3.01-5.12-7.52-103.36-280.29-7.21c-22.52-.12-42.06-13.18-52.3-34.95-13.11-27.86-10.25-68.27,6.25-88.22l.44-.53,23.46-25.05c9.31-9.91,21.19-16.9,34.38-20.21l266-67.43c4.23-3.73,5.83-6.92,6.33-8.17l9.95-94.09-83.52-34.46c-17.05-6.83-28.06-23.23-28.06-41.8v-22.4c0-13.45,6.04-26.2,16.58-34.96l.48-.4,13.83-10.21c14.82-13.73,36.58-21.59,59.84-21.59h42.79l1.16-17.23h72.05l2.66,17.23h44.33c23.24,0,44.99,7.85,59.82,21.56l13.04,9.62.46.38c11.22,9.24,17.41,21.89,17.41,35.6v22.4c0,18.58-11.13,35.02-28.36,41.91l-82.73,34.14,9.52,94.55c.68,1.46,2.41,4.5,6.27,7.92l266.08,67.44c13.14,3.31,25,10.29,34.28,20.18l22.77,24.26.43.52c16.9,20.35,20.09,61.14,6.95,89.04-10.24,21.77-29.95,34.83-52.73,34.94l-279.86,7.21-7.52,103.35-2.96,5.05-.33,4.72-.14.91c-3.17,20.48-13.25,40.54-29.95,59.62-8.39,9.56-20.77,15.04-33.98,15.04ZM406.92,496l35.05,35.57.16,2.19.16-2.19,35.05-35.57,302.87-7.8c0-.09,0-.18-.01-.27l-15.9-16.94-278.15-70.51-5.52-3.68c-21.53-14.27-32.73-31.2-38.53-44.27-5.85,13.17-17.07,30.1-38.5,44.3l-5.47,3.64-278.17,70.52-15.89,16.93c0,.09,0,.18-.01.27l302.88,7.79ZM483.88,150.61l29.84-12.31h-24.6l-5.15,8.32-.08,3.99ZM400.32,150.59l-.09-4.06-5.1-8.23h-24.6l29.79,12.29Z"/>
        <path class="cls-1" d="M442.12,748.28c-9.5,0-18.34-3.87-24.26-10.63-10.35-11.81-23.39-30.35-26.75-51.62l-.06-.37-.64-8.64-3.01-5.11-8.14-111.94-.07-.07-292.06-7.51c-17.48-.05-32.73-10.34-40.82-27.54-10.84-23.03-8.69-58.55,4.51-74.52l.18-.22,23.2-24.76c7.6-8.1,17.32-13.81,28.11-16.51l268.82-68.15c10.29-7.94,12.69-15.82,13.06-17.29l11.1-105-92.51-38.17c-12.12-4.83-20.01-16.56-20.01-29.85v-22.4c0-9.61,4.35-18.74,11.93-25.04l.2-.17,14.14-10.44c12.47-11.84,31.22-18.62,51.58-18.62h54.85l1.16-17.23h48.94l2.66,17.23h55.39c20.33,0,39.08,6.77,51.56,18.6l13.36,9.85.19.15c8.21,6.76,12.73,15.88,12.73,25.66v22.4c0,13.29-7.97,25.05-20.31,29.96l-91.68,37.84,10.66,105.81c.65,2.06,3.53,9.42,12.97,16.71l268.87,68.15c10.76,2.71,20.46,8.42,28.05,16.5l22.49,23.97.18.21c13.59,16.37,16.07,52.27,5.22,75.33-8.22,17.46-23.24,27.49-41.25,27.54l-291.62,7.51-.07.07-8.14,111.94-2.97,5.06-.5,7.2-.06.37c-2.79,18.03-11.84,35.89-26.91,53.1-5.93,6.76-14.78,10.63-24.28,10.63ZM441.12,661.23l1.04,14.96.97-14.95,3.03-5.14,8.64-118.86,28.07-28.48,309.07-7.96c1.63-5.49,1.44-14.74.44-18.73l-20.04-21.35c-.8-.85-1.85-1.46-3.04-1.77l-277.86-70.43-3.68-2.45c-33.7-22.34-38.48-52.03-38.91-55.34l-6.83-65.89-6.59,65.38c-.71,5.48-5.9,33.94-38.99,55.86l-3.66,2.44-277.83,70.44c-1.21.3-2.26.91-3.06,1.76l-20.04,21.35c-1,3.98-1.19,13.26.44,18.73l309.07,7.95,28.07,28.48,8.64,118.86,3.02,5.12ZM470.58,170.04l78.92-32.56-9.27-7.03-.49-.51c-2.12-2.2-8.49-4.54-16.12-4.54h-41.7l-10.79,17.43-.56,27.22ZM413.63,170.03l-.57-27.29-10.74-17.34h-41.7c-7.63,0-14,2.34-16.12,4.54l-.27.28-2.72,2.38-6.68,4.92,78.79,32.51Z"/>
        <path class="cls-1" d="M54.5,521.01c6.68,14.21,18.77,22.36,32.76,22.36h0l295.8,7.61,4.96,5.03,8.23,113.16,3.01,5.11.76,10.36c3.02,19.12,15.05,36.15,24.62,47.08,8.82,10.07,26.12,10.07,34.95,0,9.56-10.92,21.59-27.96,24.78-48.54l.62-8.94,2.98-5.08,8.23-113.16,4.96-5.03,295.37-7.61c14.42,0,26.52-8.15,33.2-22.36,9.22-19.6,7.59-51.76-4-65.72l-22.31-23.77c-6.41-6.83-14.62-11.65-23.69-13.93l-270.61-68.59c-15.39-11.14-17.87-23.31-17.91-23.31l-11.41-113.3,98-40.44c8.88-3.53,14.62-12.01,14.62-21.57v-22.4c0-6.92-3.16-13.52-9.44-18.69l-13.63-10.05c-10.82-10.5-27.38-16.49-45.74-16.49h-63.26s-.11-1.56-.11-1.56l-2.42-15.67h-32.76s-1.16,17.23-1.16,17.23h-63.28c-18.36,0-34.93,6-45.75,16.51l-14.4,10.63c-5.51,4.58-8.67,11.19-8.67,18.1v22.4c0,9.56,5.74,18.04,14.43,21.5l98.76,40.75-11.86,112.21c-.1.54-2.46,12.89-18.03,24.16l-270.58,68.59c-9.1,2.28-17.3,7.1-23.72,13.93l-23,24.56c-10.89,13.17-12.52,45.34-3.3,64.93ZM462.16,140.18l14.74-23.8h46.72c9.47,0,18.35,2.87,22.62,7.31l12.56,9.53v10.2s-93.12,38.42-93.12,38.42h-2.69v-2.35s-1.63,0-1.63,0l.8-39.31ZM325.45,143.41v-10.18s10.41-7.67,10.41-7.67l2.14-1.87c4.27-4.43,13.15-7.31,22.62-7.31h46.72s14.68,23.71,14.68,23.71l.83,39.4h-1.6s0,2.35,0,2.35h-2.69s-93.12-38.42-93.12-38.42ZM83.99,477.28l21.34-22.73c1.99-2.12,4.55-3.61,7.42-4.34l276.33-70.06,2.39-1.59c30.39-20.14,34.58-46.11,35.02-49.49l10.66-105.83h9.65s11.02,106.32,11.02,106.32c.38,2.89,4.57,28.86,34.96,49l2.39,1.59,276.36,70.06c2.84.72,5.4,2.22,7.39,4.34l21.34,22.73c2.39,5.27,3.2,22.55-1.59,30.62-1.08,1.82-1.52,1.82-2.56,1.82l-309.37,7.97-23.18,23.52-8.56,117.66-3.01,5.11-1,15.39c-.93,5.86-4.05,12.84-8.88,20.04-4.8-7.06-7.88-13.72-8.69-18.58l-1.17-16.85-3.01-5.11-8.56-117.66-23.18-23.52-309.81-7.97c-.61,0-1.05,0-2.13-1.82-4.79-8.07-3.98-25.34-1.59-30.62Z"/>
        <g>
          <g>
            <path class="cls-4" d="M423.24,198.65l-.9,3.73-12.59,125s-2.7,20.68-27.58,37.17l-273.55,69.36c-5.95,1.49-11.35,4.66-15.55,9.13l-22.31,23.76c-8.72,10.55-9.75,59.76,16.94,59.76l302.59,7.78,14.07,14.27,8.39,115.41,3,5.1.9,12.89c2.52,15.95,14,31.01,20.66,38.62,2.56,2.93,7.08,2.93,9.65,0,6.66-7.6,18.14-22.67,20.66-38.62l.9-12.89,3-5.1,8.39-115.41,14.07-14.27,302.59-7.78c26.7,0,25.67-49.21,16.94-59.76l-22.31-23.76c-4.2-4.47-9.6-7.64-15.55-9.13l-273.55-69.36c-24.88-16.49-27.58-37.17-27.58-37.17l-12.59-125-.9-3.73"/>
            <path class="cls-2" d="M421.69,198.27l3.11.75-.9,3.73-12.55,124.78c-.12.92-3.09,21.65-28.29,38.34l-.49.22-273.55,69.36c-5.67,1.42-10.78,4.42-14.78,8.68l-22.31,23.75c-5.26,6.37-7.85,30.24-.76,45.29,3.68,7.81,9.24,11.77,16.54,11.77l303.27,7.79,14.93,15.15,8.41,115.62,3,5.1.93,13.26c2.44,15.43,13.75,30.24,20.26,37.68,1.84,2.09,5.41,2.09,7.24,0,6.52-7.44,17.82-22.25,20.28-37.82l.91-13.13,3-5.1,8.41-115.62,14.93-15.15.64-.02,302.59-7.78c7.34,0,12.9-3.96,16.58-11.77,7.09-15.06,4.5-38.93-.83-45.37l-22.24-23.68c-4-4.26-9.11-7.26-14.78-8.67l-273.82-69.43-.23-.15c-25.2-16.7-28.16-37.42-28.28-38.3l-12.6-125.05-.86-3.51,3.11-.75.9,3.73,12.63,125.22c.02.15,2.94,20.03,26.64,35.85l273.29,69.3c6.26,1.56,11.9,4.88,16.32,9.58l22.31,23.76c6.66,8.05,8.49,33.62,1.32,48.84-4.19,8.9-10.91,13.61-19.43,13.61l-301.9,7.76-13.2,13.39-8.38,115.19-3,5.1-.87,12.51c-2.6,16.5-14.3,31.86-21.05,39.56-3.05,3.48-9,3.48-12.05,0-6.75-7.7-18.45-23.06-21.03-39.42l-.89-12.65-3-5.1-8.38-115.19-13.2-13.39-301.94-7.76c-8.48,0-15.2-4.71-19.39-13.61-7.16-15.22-5.34-40.79,1.26-48.77l22.38-23.83c4.42-4.71,10.07-8.02,16.33-9.59l273.28-69.29c23.7-15.82,26.62-35.7,26.65-35.9l12.58-124.95.94-3.94Z"/>
          </g>
          <g>
            <polygon class="cls-3" points="442.13 389.42 435.38 389.42 409.25 405.61 410.2 451.02 415.15 451.02 417.03 485.71 427.67 498.24 442.13 498.24 456.58 498.24 467.22 485.71 469.1 451.02 474.05 451.02 475 405.61 448.87 389.42 442.13 389.42"/>
            <rect class="cls-4" x="410.2" y="449.43" width="63.85" height="3.2"/>
            <rect class="cls-4" x="415.24" y="452.57" width="53.78" height="3.2"/>
            <rect class="cls-4" x="411.49" y="423.35" width="61.27" height="3.2"/>
            <rect class="cls-4" x="441.33" y="389.42" width="1.6" height="61.6"/>
            <rect class="cls-4" x="455.42" y="395" width="1.6" height="56.02"/>
            <rect class="cls-4" x="427.24" y="395" width="1.6" height="56.02"/>
            <rect class="cls-4" x="450.77" y="464.74" width="1.6" height="33.5"/>
            <rect class="cls-4" x="431.88" y="464.74" width="1.6" height="33.5"/>
            <polygon class="cls-4" points="442.72 453.64 451.57 463.54 460.41 453.64 461.61 454.71 451.57 465.94 441.53 454.71 442.72 453.64"/>
            <polygon class="cls-4" points="423.84 453.64 432.68 463.54 441.53 453.64 442.72 454.71 432.68 465.94 422.65 454.71 423.84 453.64"/>
          </g>
          <polygon class="cls-3" points="382.97 364.44 397.96 484.35 397.96 511.54 397.93 511.66 391.05 534.56 389.52 534.1 396.36 511.31 396.36 484.45 381.38 364.64 382.97 364.44"/>
          <polygon class="cls-3" points="501.29 364.44 502.87 364.64 487.88 484.55 487.89 511.31 494.73 534.1 493.2 534.56 486.29 511.43 486.29 484.45 501.29 364.44"/>
          <g>
            <g class="cls-6">
              <g>
                <rect class="cls-1" x="290.15" y="372.34" width="34.84" height="160.41"/>
                <rect class="cls-1" x="428.82" y="598.49" width="19.19" height="160.41" transform="translate(-240.28 1117.11) rotate(-90)"/>
                <rect class="cls-1" x="229.56" y="372.34" width="34.84" height="160.41"/>
              </g>
              <g>
                <rect class="cls-1" x="559.27" y="372.34" width="34.84" height="160.41"/>
                <rect class="cls-1" x="619.85" y="372.34" width="34.84" height="160.41"/>
              </g>
            </g>
            <path class="cls-5" d="M423.24,198.65l-.9,3.73-12.59,125s-2.7,20.68-27.58,37.17l-273.55,69.36c-5.95,1.49-11.35,4.66-15.55,9.13l-22.31,23.76c-8.72,10.55-9.75,59.76,16.94,59.76l302.59,7.78,14.07,14.27,8.39,115.41,3,5.1.9,12.89c2.52,15.95,14,31.01,20.66,38.62,2.56,2.93,7.08,2.93,9.65,0,6.66-7.6,18.14-22.67,20.66-38.62l.9-12.89,3-5.1,8.39-115.41,14.07-14.27,302.59-7.78c26.7,0,25.67-49.21,16.94-59.76l-22.31-23.76c-4.2-4.47-9.6-7.64-15.55-9.13l-273.55-69.36c-24.88-16.49-27.58-37.17-27.58-37.17l-12.59-125-.9-3.73"/>
          </g>
          <polygon class="cls-3" points="475.93 334.92 477.53 334.95 473.56 534.05 480.61 548.24 479.18 548.95 471.96 534.41 471.96 534.21 475.93 334.92"/>
          <polygon class="cls-3" points="408.32 334.92 412.3 534.41 405.07 548.95 403.64 548.24 410.69 534.05 406.73 334.95 408.32 334.92"/>
          <polygon class="cls-3" points="450.77 203.86 452.37 203.88 449.67 389.44 448.07 389.41 450.77 203.86"/>
          <polygon class="cls-3" points="433.48 203.86 436.18 389.41 434.58 389.44 431.88 203.88 433.48 203.86"/>
          <g>
            <rect class="cls-3" x="96.8" y="510.63" width="300.36" height="1.6"/>
            <polygon class="cls-3" points="93.84 442.83 97.6 456.87 97.6 526.78 96 526.78 96 456.98 92.3 443.25 93.84 442.83"/>
            <rect class="cls-3" x="332.81" y="376.86" width="1.6" height="134.57"/>
            <polygon class="cls-3" points="386.55 400.29 386.93 401.84 231.88 439.66 96.94 463.05 96.67 461.48 231.56 438.1 386.55 400.29"/>
            <polygon class="cls-3" points="223.95 404.64 230.9 428.69 96.97 457.65 96.63 456.09 228.89 427.49 222.42 405.08 223.95 404.64"/>
            <g>
              <rect class="cls-3" x="209.61" y="408.35" width="1.6" height="16.02" transform="translate(-107.25 74.72) rotate(-16.11)"/>
              <rect class="cls-3" x="195.36" y="411.08" width="1.6" height="16.36" transform="translate(-108.62 70.88) rotate(-16.11)"/>
              <rect class="cls-3" x="181.14" y="413.95" width="1.6" height="16.56" transform="translate(-109.99 67.05) rotate(-16.11)"/>
              <rect class="cls-3" x="167.18" y="418.34" width="1.6" height="15.59" transform="translate(-111.6 63.31) rotate(-16.1)"/>
              <rect class="cls-3" x="152.3" y="421.24" width="1.6" height="15.54" transform="translate(-122.25 66.14) rotate(-17.55)"/>
              <rect class="cls-3" x="138.87" y="425.41" width="1.6" height="14.26" transform="translate(-114.51 55.72) rotate(-16.11)"/>
              <rect class="cls-3" x="124.79" y="429.32" width="1.6" height="13.41" transform="translate(-116.02 51.95) rotate(-16.1)"/>
              <rect class="cls-3" x="110.51" y="431.82" width="1.6" height="13.99" transform="translate(-117.38 48.11) rotate(-16.11)"/>
            </g>
            <g>
              <rect class="cls-3" x="665.84" y="415.56" width="16.02" height="1.6" transform="translate(86.96 948.32) rotate(-73.9)"/>
              <rect class="cls-3" x="679.91" y="418.46" width="16.36" height="1.6" transform="translate(94.47 964.1) rotate(-73.9)"/>
              <rect class="cls-3" x="694.03" y="421.43" width="16.56" height="1.6" transform="translate(101.89 979.92) rotate(-73.9)"/>
              <rect class="cls-3" x="708.48" y="425.33" width="15.59" height="1.6" transform="translate(108.23 996.15) rotate(-73.9)"/>
              <rect class="cls-3" x="723.38" y="428.21" width="15.54" height="1.6" transform="translate(102 997.16) rotate(-72.49)"/>
              <rect class="cls-3" x="737.45" y="431.75" width="14.26" height="1.6" transform="translate(122.53 1027.98) rotate(-73.9)"/>
              <rect class="cls-3" x="751.96" y="435.22" width="13.41" height="1.6" transform="translate(129.36 1044.02) rotate(-73.9)"/>
              <rect class="cls-3" x="765.95" y="438.02" width="13.99" height="1.6" transform="translate(137 1059.76) rotate(-73.9)"/>
            </g>
            <path class="cls-3" d="M162.55,453.37h131.1v23.48h-131.1v-23.48ZM292.05,454.97h-127.9s0,20.28,0,20.28h127.9s0-20.28,0-20.28Z"/>
            <rect class="cls-3" x="237.49" y="454.17" width="1.6" height="21.88"/>
          </g>
          <g>
            <rect class="cls-3" x="487.09" y="510.63" width="300.36" height="1.6"/>
            <polygon class="cls-3" points="790.41 442.83 791.96 443.25 788.25 456.98 788.25 526.78 786.65 526.78 786.68 456.66 790.41 442.83"/>
            <rect class="cls-3" x="549.84" y="376.86" width="1.6" height="134.57"/>
            <polygon class="cls-3" points="497.7 400.29 652.75 438.11 787.59 461.48 787.31 463.05 652.42 439.67 497.32 401.84 497.7 400.29"/>
            <polygon class="cls-3" points="660.3 404.64 661.83 405.08 655.36 427.49 787.62 456.09 787.28 457.65 653.35 428.69 660.3 404.64"/>
            <path class="cls-3" d="M590.61,453.37h131.1v23.48h-131.1v-23.48ZM720.1,454.97h-127.9s0,20.28,0,20.28h127.9s0-20.28,0-20.28Z"/>
            <rect class="cls-3" x="645.16" y="454.17" width="1.6" height="21.88"/>
          </g>
          <g>
            <rect class="cls-3" x="397.16" y="498.64" width="13.64" height="1.6"/>
            <rect class="cls-3" x="391.05" y="434.79" width="19.75" height="1.6"/>
          </g>
          <g>
            <rect class="cls-3" x="473.45" y="498.64" width="13.64" height="1.6"/>
            <rect class="cls-3" x="473.45" y="434.79" width="19.75" height="1.6"/>
          </g>
          <rect class="cls-4" x="415.75" y="667.5" width="52.76" height="3.2"/>
          <rect class="cls-4" x="417.51" y="687.49" width="48.65" height="1.6"/>
          <rect class="cls-3" x="425.14" y="520.72" width="1.6" height="148.38"/>
          <rect class="cls-3" x="457.51" y="520.72" width="1.6" height="148.38"/>
          <path class="cls-3" d="M442.13,533.43c4.9,0,8.89,3.99,8.89,8.89v121.73h-17.79v-121.73c0-4.9,3.99-8.89,8.89-8.89ZM449.42,662.46v-120.14c0-4.02-3.27-7.29-7.29-7.29-4.02,0-7.29,3.27-7.29,7.29v120.14s14.59,0,14.59,0Z"/>
          <g>
            <g>
              <polygon class="cls-4" points="318.55 536.07 318.48 539.89 321.92 539.95 322 536.13 324.92 536.19 324.99 532.74 322.06 532.69 318.62 532.62 315.69 532.57 315.63 536.01 318.55 536.07"/>
              <polygon class="cls-4" points="305.81 535.82 305.74 539.64 309.19 539.71 309.26 535.89 312.18 535.95 312.25 532.5 309.32 532.44 305.88 532.38 302.95 532.32 302.89 535.77 305.81 535.82"/>
              <polygon class="cls-4" points="293.08 535.58 293 539.4 296.45 539.47 296.52 535.65 299.45 535.7 299.51 532.26 296.59 532.2 293.14 532.13 290.22 532.08 290.15 535.52 293.08 535.58"/>
            </g>
            <rect class="cls-4" x="361.23" y="533.79" width="17.09" height="6.16" transform="translate(719.6 1086.95) rotate(-177.9)"/>
          </g>
          <g>
            <polygon class="cls-4" points="405.79 600.18 403.82 600.3 404.02 603.58 405.99 603.45 406.16 606.23 407.94 606.12 407.77 603.34 407.56 600.07 407.39 597.29 405.62 597.4 405.79 600.18"/>
            <polygon class="cls-4" points="405.04 588.07 403.07 588.19 403.27 591.47 405.24 591.35 405.41 594.13 407.19 594.02 407.02 591.24 406.82 587.96 406.65 585.18 404.87 585.29 405.04 588.07"/>
            <polygon class="cls-4" points="404.3 575.96 402.33 576.09 402.53 579.36 404.5 579.24 404.67 582.02 406.44 581.91 406.27 579.13 406.07 575.85 405.9 573.07 404.12 573.18 404.3 575.96"/>
            <polygon class="cls-4" points="407.66 625.23 405.69 625.35 405.89 628.63 407.86 628.5 408.03 631.28 409.81 631.17 409.64 628.4 409.44 625.12 409.26 622.34 407.49 622.45 407.66 625.23"/>
            <polygon class="cls-4" points="406.91 613.12 404.94 613.24 405.14 616.52 407.11 616.4 407.29 619.18 409.06 619.07 408.89 616.29 408.69 613.01 408.52 610.23 406.74 610.34 406.91 613.12"/>
          </g>
          <g>
            <polygon class="cls-4" points="478.47 600.18 480.44 600.3 480.23 603.58 478.26 603.45 478.09 606.23 476.32 606.12 476.49 603.34 476.69 600.07 476.86 597.29 478.64 597.4 478.47 600.18"/>
            <polygon class="cls-4" points="479.21 588.07 481.18 588.19 480.98 591.47 479.01 591.35 478.84 594.13 477.06 594.02 477.23 591.24 477.44 587.96 477.61 585.18 479.38 585.29 479.21 588.07"/>
            <polygon class="cls-4" points="479.96 575.96 481.93 576.09 481.73 579.36 479.76 579.24 479.58 582.02 477.81 581.91 477.98 579.13 478.18 575.85 478.35 573.07 480.13 573.18 479.96 575.96"/>
            <polygon class="cls-4" points="476.59 625.23 478.56 625.35 478.36 628.63 476.39 628.5 476.22 631.28 474.44 631.17 474.62 628.4 474.82 625.12 474.99 622.34 476.76 622.45 476.59 625.23"/>
            <polygon class="cls-4" points="477.34 613.12 479.31 613.24 479.11 616.52 477.14 616.4 476.97 619.18 475.19 619.07 475.36 616.29 475.56 613.01 475.73 610.23 477.51 610.34 477.34 613.12"/>
          </g>
          <g>
            <polygon class="cls-4" points="565.7 536.07 565.78 539.89 562.33 539.95 562.26 536.13 559.33 536.19 559.27 532.74 562.19 532.69 565.64 532.62 568.56 532.57 568.63 536.01 565.7 536.07"/>
            <polygon class="cls-4" points="578.44 535.82 578.51 539.64 575.07 539.71 574.99 535.89 572.07 535.95 572 532.5 574.93 532.44 578.37 532.38 581.3 532.32 581.36 535.77 578.44 535.82"/>
            <polygon class="cls-4" points="591.18 535.58 591.25 539.4 587.8 539.47 587.73 535.65 584.81 535.7 584.74 532.26 587.67 532.2 591.11 532.13 594.04 532.08 594.1 535.52 591.18 535.58"/>
            <rect class="cls-4" x="505.94" y="533.79" width="17.09" height="6.16" transform="translate(-19.35 19.23) rotate(-2.1)"/>
          </g>
          <g>
            <polygon class="cls-3" points="422.23 325.67 429.89 325.67 435.47 342.86 433.95 343.35 428.73 327.27 423.35 327.27 417.52 343.25 417.52 401.07 415.92 401.07 415.97 342.83 422.23 325.67"/>
            <rect class="cls-3" x="416.72" y="353.33" width="17.31" height="1.6"/>
            <rect class="cls-3" x="416.72" y="380.98" width="17.31" height="1.6"/>
          </g>
          <g>
            <polygon class="cls-3" points="454.36 325.67 462.02 325.67 468.33 343.11 468.33 401.07 466.73 401.07 466.73 343.25 460.9 327.27 455.52 327.27 450.3 343.35 448.78 342.86 454.36 325.67"/>
            <rect class="cls-3" x="450.22" y="353.33" width="17.31" height="1.6"/>
            <rect class="cls-3" x="450.22" y="380.98" width="17.31" height="1.6"/>
          </g>
          <rect class="cls-3" x="411.49" y="519.92" width="62.62" height="1.6"/>
          <g>
            <g>
              <path class="cls-4" d="M445.87,118.74h3s2.7,6.59,2.7,6.59l15.96-25.78h56.1c13.65,0,26.94,4.37,34.74,12.47l14.65,10.8c1.6,1.32,2.6,3.12,2.6,5.15v22.42c0,2.61-1.59,4.97-4.02,5.94l-102.58,42.33h-8.01s-4.05,5.22-4.05,5.22h-10.79v-7.57s-1.96,0-1.96,0"/>
              <path class="cls-4" d="M466.64,97.96h56.99c14.66,0,28.08,4.84,35.89,12.96l14.45,10.62c2.12,1.74,3.25,4.01,3.25,6.44v22.42c0,3.28-1.97,6.2-5.02,7.42l-102.86,42.44h-7.54s-4.05,5.22-4.05,5.22h-13.17v-7.57s-.36,0-.36,0v-3.2h3.56v7.57s8.41,0,8.41,0l4.05-5.22h8.47s102.29-42.21,102.29-42.21c1.85-.74,3.03-2.49,3.03-4.46v-22.42c0-1.46-.72-2.84-2.02-3.92l-14.58-10.74c-7.42-7.68-19.98-12.15-33.79-12.15h-55.21s-17.14,27.69-17.14,27.69l-3.48-8.51h-1.93v-3.2h4.07s1.92,4.68,1.92,4.68l14.78-23.87Z"/>
            </g>
            <g>
              <path class="cls-4" d="M438.41,118.74h-3.03s-2.7,6.59-2.7,6.59l-15.96-25.78h-56.1c-13.65,0-26.94,4.37-34.74,12.47l-14.65,10.8c-1.6,1.32-2.6,3.12-2.6,5.15v22.42c0,2.61,1.59,4.97,4.02,5.94l102.58,42.33h8.01s4.05,5.22,4.05,5.22h10.79s0-7.57,0-7.57h1.96"/>
              <path class="cls-4" d="M360.62,97.96h56.99s14.78,23.87,14.78,23.87l1.92-4.68h4.1v3.2h-1.96s-3.48,8.51-3.48,8.51l-17.14-27.69h-55.21c-13.81,0-26.37,4.48-33.59,11.97l-14.86,10.98c-1.23,1.02-1.95,2.41-1.95,3.86v22.42c0,1.97,1.18,3.72,3.01,4.45l102.31,42.21h8.47s4.05,5.22,4.05,5.22h8.41s0-7.57,0-7.57h3.56v3.2h-.36s0,7.57,0,7.57h-13.17s-4.05-5.22-4.05-5.22l-7.83-.12-102.58-42.33c-3.04-1.21-5.01-4.12-5.01-7.41v-22.42c0-2.43,1.13-4.69,3.18-6.38l14.72-10.85c7.6-7.93,21.02-12.78,35.69-12.78Z"/>
            </g>
          </g>
          <polygon class="cls-3" points="431.89 125.23 433.48 125.44 424.03 198.75 422.45 198.55 431.89 125.23"/>
          <polygon class="cls-3" points="452.36 125.23 461.8 198.55 460.22 198.75 450.78 125.44 452.36 125.23"/>
          <g>
            <polygon class="cls-3" points="442.13 206.42 440.25 206.42 438.38 117.24 440.78 82.32 442.13 82.32 443.48 82.32 445.87 117.24 444 206.42 442.13 206.42"/>
            <path class="cls-3" d="M440.03,81.52h4.19s2.45,35.67,2.45,35.67l-1.89,90.03h-5.31s-1.89-89.96-1.89-89.96l2.45-35.74ZM442.73,83.12h-1.21s-2.35,34.18-2.35,34.18l1.86,88.32h2.18s1.86-88.39,1.86-88.39l-2.34-34.11Z"/>
          </g>
          <g>
            <polygon class="cls-3" points="405.81 99.56 407.4 99.56 407.4 109.42 370.73 109.42 370.73 100.3 372.33 100.3 372.33 107.82 405.81 107.82 405.81 99.56"/>
            <rect class="cls-3" x="405.81" y="108.62" width="1.6" height="16.71"/>
            <rect class="cls-3" x="393.07" y="108.62" width="1.6" height="16.71"/>
            <rect class="cls-3" x="370.73" y="108.62" width="1.6" height="16.71"/>
            <rect class="cls-3" x="359.49" y="99.56" width="1.6" height="25.78"/>
            <rect class="cls-3" x="348.25" y="99.56" width="1.6" height="25.78"/>
            <rect class="cls-3" x="337.01" y="104.04" width="1.6" height="21.3"/>
            <rect class="cls-3" x="325.77" y="112.02" width="1.6" height="13.31"/>
            <rect class="cls-3" x="383.17" y="108.62" width="1.6" height="16.71"/>
            <g>
              <polygon class="cls-3" points="336.64 136.53 431.14 136.53 431.14 138.12 337.18 138.12 331.42 142.52 331.42 161.99 329.82 161.99 329.82 141.72 336.64 136.53"/>
              <polygon class="cls-3" points="308.63 133.9 318.31 133.9 324.38 146.94 330.62 146.94 330.62 148.54 323.36 148.54 317.29 135.5 308.63 135.5 308.63 133.9"/>
              <polygon class="cls-3" points="330.81 157.53 411.69 178.22 425.55 181.28 425.2 182.85 411.32 179.77 330.42 159.08 330.81 157.53"/>
              <rect class="cls-3" x="377.37" y="113.04" width="1.6" height="95.93" transform="translate(168.92 514.77) rotate(-82.46)"/>
              <rect class="cls-3" x="378.49" y="101.58" width="1.6" height="97.72" transform="translate(196.27 515.12) rotate(-84.98)"/>
            </g>
          </g>
          <g>
            <polygon class="cls-3" points="476.85 99.56 478.45 99.56 478.45 107.82 511.92 107.82 511.92 100.3 513.52 100.3 513.52 109.42 476.85 109.42 476.85 99.56"/>
            <rect class="cls-3" x="476.85" y="108.62" width="1.6" height="16.71"/>
            <rect class="cls-3" x="489.59" y="108.62" width="1.6" height="16.71"/>
            <rect class="cls-3" x="511.92" y="108.62" width="1.6" height="16.71"/>
            <rect class="cls-3" x="523.16" y="99.56" width="1.6" height="25.78"/>
            <rect class="cls-3" x="534.4" y="99.56" width="1.6" height="25.78"/>
            <rect class="cls-3" x="545.64" y="104.04" width="1.6" height="21.3"/>
            <rect class="cls-3" x="556.88" y="112.02" width="1.6" height="13.31"/>
            <rect class="cls-3" x="499.48" y="108.62" width="1.6" height="16.71"/>
            <g>
              <polygon class="cls-3" points="453.11 136.53 547.61 136.53 554.44 141.72 554.44 161.99 552.84 161.99 552.84 142.52 547.07 138.12 453.11 138.12 453.11 136.53"/>
              <polygon class="cls-3" points="565.94 133.9 575.62 133.9 575.62 135.5 566.96 135.5 560.89 148.54 553.64 148.54 553.64 146.94 559.87 146.94 565.94 133.9"/>
              <polygon class="cls-3" points="553.44 157.53 553.84 159.08 472.96 179.77 459.05 182.85 458.7 181.28 472.59 178.21 553.44 157.53"/>
              <rect class="cls-3" x="458.12" y="160.21" width="95.93" height="1.6" transform="translate(-16.71 67.56) rotate(-7.51)"/>
              <rect class="cls-3" x="456.1" y="149.64" width="97.72" height="1.6" transform="translate(-11.27 44.97) rotate(-5.04)"/>
            </g>
          </g>
          <polygon class="cls-3" points="409.3 498.64 415.05 498.64 415.05 506.88 424.04 506.88 424.04 520.72 422.44 520.72 422.44 508.48 413.45 508.48 413.45 500.23 409.3 500.23 409.3 498.64"/>
          <polygon class="cls-3" points="469.2 498.64 474.95 498.64 474.95 500.23 470.8 500.23 470.8 508.48 461.81 508.48 461.81 520.72 460.21 520.72 460.21 506.88 469.2 506.88 469.2 498.64"/>
        </g>
        <polygon class="cls-1" points="442.13 206.42 440.25 206.42 438.38 117.24 440.78 82.32 442.13 82.32 443.48 82.32 445.87 117.24 444 206.42 442.13 206.42"/>
      </g>
    </g>
  </g>
</svg>