<?xml version="1.0" encoding="UTF-8"?>
<svg id="Layer_2" xmlns="http://www.w3.org/2000/svg" xmlns:xlink="http://www.w3.org/1999/xlink" viewBox="0 0 740 740">
  <defs>
    <style>
      .cls-1 {
        fill: #fff;
      }

      .cls-2 {
        fill: none;
      }

      .cls-3 {
        clip-path: url(#clippath-1);
      }

      .cls-4 {
        fill: #0b2a5b;
      }

      .cls-5 {
        fill: #e4e6ed;
      }

      .cls-6 {
        fill: #ea1836;
      }

      .cls-7 {
        clip-path: url(#clippath);
      }
    </style>
    <clipPath id="clippath">
      <path class="cls-2" d="M147.01,384.71c-1.58-3.36-2.2-7.08-1.78-10.75l22.85-205.34,200.38-49.88c.28-.07.56-.1.85-.1s.57.03.84.1l200.39,49.88,22.85,205.34c.42,3.68-.2,7.4-1.78,10.76-11.37,24.12-433.22,24.12-444.59,0Z"/>
    </clipPath>
    <clipPath id="clippath-1">
      <polygon class="cls-2" points="369.31 516.41 304.27 593.49 164.39 432.39 369.32 432.28 574.22 432.39 434.34 593.49 369.31 516.41"/>
    </clipPath>
  </defs>
  <g id="Layer_1-2" data-name="Layer_1">
    <rect class="cls-1" x="0" width="740" height="740" rx="30" ry="30"/>
    <g>
      <path class="cls-6" d="M129.64,392.74c-3.08-6.53-4.28-13.76-13.55-20.92l23.49-210.98c10.6-4.45,13.89-8.17,18.27-9.26l205.94-51.26c1.8-.45,3.66-.68,5.52-.68s3.72.23,5.52.68l205.94,51.26c4.38,1.09,7.67,4.81,18.27,9.26l18.44,210.98c-9.28,7.15-5.43,14.39-8.51,20.92-11.94,25.33-467.4,25.33-479.34,0Z"/>
      <path class="cls-1" d="M147.01,384.71c-1.58-3.36-2.2-7.08-1.78-10.75l22.85-205.34,200.38-49.88c.28-.07.56-.1.85-.1s.57.03.84.1l200.39,49.88,22.85,205.34c.42,3.68-.2,7.4-1.78,10.76-11.37,24.12-433.22,24.12-444.59,0Z"/>
      <g class="cls-7">
        <g>
          <rect class="cls-5" x="555.51" y="264.16" width="38" height="371.81"/>
          <rect class="cls-6" x="487.11" y="264.16" width="38" height="371.81"/>
          <rect class="cls-6" x="418.71" y="264.16" width="38" height="371.81"/>
          <rect class="cls-6" x="350.31" y="264.16" width="38" height="155.26"/>
          <rect class="cls-6" x="281.9" y="264.16" width="38" height="371.81"/>
          <rect class="cls-6" x="213.5" y="264.16" width="38" height="371.81"/>
          <rect class="cls-5" x="145.1" y="264.16" width="38" height="371.81"/>
        </g>
      </g>
      <polygon class="cls-5" points="369.31 602.14 304.88 678.5 136.12 484.13 61.5 484.13 96.73 353.84 61.5 223.54 105.95 223.54 117.23 124.67 369.31 61.5 621.75 124.76 628.07 223.54 678.5 223.54 643.27 353.84 678.5 484.13 602.49 484.13 433.73 678.5 369.31 602.14"/>
      <polygon class="cls-4" points="665.21 474.14 632.8 353.84 665.21 233.53 618.6 233.53 612.14 132.66 369.31 71.81 126.47 132.66 114.97 233.53 74.79 233.53 107.2 353.84 74.79 474.14 140.76 474.14 304.77 663.04 369.31 586.55 433.84 663.04 597.86 474.14 665.21 474.14"/>
      <polygon class="cls-6" points="134.66 283.5 149.58 152.63 369.31 97.58 589.03 152.63 603.95 283.5 134.66 283.5"/>
      <polygon class="cls-4" points="157.25 263.51 168.07 168.61 369.31 118.19 570.54 168.61 581.36 263.51 157.25 263.51"/>
      <path class="cls-1" d="M467.58,283.5c0-52.87-43.29-95.74-96.7-95.74s-96.7,42.86-96.7,95.74,43.29,100.73,96.7,100.73,96.7-47.86,96.7-100.73Z"/>
      <path class="cls-6" d="M443.99,283.5c0-39.98-32.73-72.39-73.11-72.39s-73.11,32.41-73.11,72.39,32.73,77.38,73.11,77.38,73.11-37.41,73.11-77.38Z"/>
      <path class="cls-2" d="M147.01,384.71c-1.58-3.36-2.2-7.08-1.78-10.75l22.85-205.34,200.38-49.88c.28-.07.56-.1.85-.1s.57.03.84.1l200.39,49.88,22.85,205.34c.42,3.68-.2,7.4-1.78,10.76-11.37,24.12-433.22,24.12-444.59,0Z"/>
      <g>
        <polygon class="cls-6" points="369.31 407.3 120.44 407.43 304.49 624.41 369.31 547.59 434.12 624.41 618.17 407.43 369.31 407.3"/>
        <polygon class="cls-1" points="369.31 516.41 304.27 593.49 164.39 432.39 369.32 432.28 574.22 432.39 434.34 593.49 369.31 516.41"/>
        <g class="cls-3">
          <g>
            <polygon class="cls-6" points="519.28 660.95 482.7 680.94 482.7 269.16 519.28 269.16 519.28 660.95"/>
            <rect class="cls-6" x="416.86" y="269.16" width="36.58" height="411.78"/>
            <rect class="cls-6" x="351.02" y="269.16" width="36.58" height="391.79"/>
            <rect class="cls-6" x="285.17" y="269.16" width="36.58" height="411.78"/>
            <polygon class="cls-6" points="255.91 680.94 219.33 660.95 219.33 269.16 255.91 269.16 255.91 680.94"/>
          </g>
        </g>
      </g>
      <polygon class="cls-6" points="107.19 450.83 134.04 353.84 107.19 256.84 632.81 256.84 605.96 353.84 632.81 450.83 107.19 450.83"/>
      <polygon class="cls-4" points="633 435.22 107 435.22 120.02 353.84 107 272.45 633 272.45 614.93 353.84 633 435.22"/>
      <g>
        <g>
          <polygon class="cls-5" points="159.52 409.25 145.27 395.49 145.27 312.86 159.52 299.1 260.78 299.1 273.33 311.52 273.33 336.66 245.05 336.66 245.05 326.48 173.55 326.48 173.55 381.87 245.05 381.87 245.05 371.69 273.33 371.69 273.33 396.83 260.78 409.25 159.52 409.25"/>
          <polygon class="cls-1" points="160.32 301.05 147.23 313.68 147.23 394.67 160.32 407.3 259.97 407.3 271.36 396.02 271.36 373.63 247.01 373.63 247.01 383.81 171.58 383.81 171.58 324.54 247.01 324.54 247.01 334.72 271.36 334.72 271.36 312.33 259.97 301.05 160.32 301.05"/>
          <polygon class="cls-5" points="164.05 398.24 156.38 390.85 156.38 317.5 164.05 310.11 256.18 310.11 262.21 316.08 262.21 325.65 256.16 325.65 256.16 318.71 252.89 315.47 165.7 315.47 162.43 318.71 162.43 389.64 165.7 392.88 252.89 392.88 256.16 389.64 256.16 382.7 262.21 382.7 262.21 392.27 256.18 398.24 164.05 398.24"/>
        </g>
        <g>
          <polygon class="cls-5" points="482.69 409.25 468.44 395.49 468.44 312.86 482.69 299.1 583.95 299.1 596.5 311.52 596.5 336.66 568.22 336.66 568.22 326.48 496.71 326.48 496.71 381.87 568.22 381.87 568.22 371.69 596.5 371.69 596.5 396.83 583.95 409.25 482.69 409.25"/>
          <polygon class="cls-1" points="483.49 301.05 470.4 313.68 470.4 394.67 483.49 407.3 583.13 407.3 594.53 396.02 594.53 373.63 570.18 373.63 570.18 383.81 494.75 383.81 494.75 324.54 570.18 324.54 570.18 334.72 594.53 334.72 594.53 312.33 583.13 301.05 483.49 301.05"/>
          <polygon class="cls-5" points="487.21 398.24 479.55 390.85 479.55 317.5 487.21 310.11 579.34 310.11 585.38 316.08 585.38 325.65 579.33 325.65 579.33 318.71 576.06 315.47 488.86 315.47 485.59 318.71 485.59 389.64 488.86 392.88 576.06 392.88 579.33 389.64 579.33 382.7 585.38 382.7 585.38 392.27 579.34 398.24 487.21 398.24"/>
        </g>
        <polygon class="cls-5" points="415.21 409.25 415.21 367.87 326.55 367.87 326.55 409.25 298.27 409.25 298.27 299.1 326.55 299.1 326.55 340.48 415.21 340.48 415.21 299.1 443.49 299.1 443.49 409.25 415.21 409.25"/>
        <polygon class="cls-1" points="417.17 301.05 417.17 342.42 324.59 342.42 324.59 301.05 300.23 301.05 300.23 407.3 324.59 407.3 324.59 365.92 417.17 365.92 417.17 407.3 441.53 407.3 441.53 301.05 417.17 301.05"/>
        <polygon class="cls-5" points="426.33 398.24 426.33 356.86 315.43 356.86 315.43 398.24 309.39 398.24 309.39 310.11 315.43 310.11 315.43 351.49 426.33 351.49 426.33 310.11 432.37 310.11 432.37 398.24 426.33 398.24"/>
      </g>
      <polygon class="cls-1" points="369.31 133.18 373.64 146.39 387.68 146.39 376.32 154.56 380.66 167.77 369.31 159.61 357.95 167.77 362.29 154.56 350.94 146.39 364.97 146.39 369.31 133.18"/>
      <polygon class="cls-1" points="455.64 154.53 459.97 167.74 474.01 167.74 462.65 175.91 466.99 189.12 455.64 180.96 444.29 189.12 448.62 175.91 437.27 167.74 451.3 167.74 455.64 154.53"/>
      <polygon class="cls-1" points="542.77 173.55 547.11 186.77 561.14 186.77 549.79 194.93 554.13 208.15 542.77 199.98 531.42 208.15 535.76 194.93 524.4 186.77 538.44 186.77 542.77 173.55"/>
      <polygon class="cls-1" points="240.85 209.42 236.52 222.64 222.48 222.64 233.84 230.81 229.5 244.02 240.85 235.85 252.21 244.02 247.87 230.81 259.22 222.64 245.19 222.64 240.85 209.42"/>
      <polygon class="cls-1" points="500.91 209.42 505.25 222.64 519.28 222.64 507.93 230.81 512.26 244.02 500.91 235.85 489.56 244.02 493.89 230.81 482.54 222.64 496.57 222.64 500.91 209.42"/>
      <polygon class="cls-1" points="286.12 154.53 281.79 167.74 267.75 167.74 279.11 175.91 274.77 189.12 286.12 180.96 297.48 189.12 293.14 175.91 304.49 167.74 290.46 167.74 286.12 154.53"/>
      <polygon class="cls-1" points="198.99 173.55 194.65 186.77 180.62 186.77 191.97 194.93 187.64 208.15 198.99 199.98 210.34 208.15 206.01 194.93 217.36 186.77 203.33 186.77 198.99 173.55"/>
    </g>
  </g>
</svg>