<?xml version="1.0" encoding="UTF-8"?>
<svg id="Layer_2" xmlns="http://www.w3.org/2000/svg" xmlns:xlink="http://www.w3.org/1999/xlink" viewBox="0 0 843.14 843.14">
  <defs>
    <style>
      .cls-1 {
        fill: #fff;
      }

      .cls-2 {
        fill: none;
      }

      .cls-3 {
        clip-path: url(#clippath-1);
      }

      .cls-4 {
        fill: #0b2a5b;
      }

      .cls-5 {
        fill: #e4e6ed;
      }

      .cls-6 {
        fill: #ea1836;
      }

      .cls-7 {
        clip-path: url(#clippath);
      }
    </style>
    <clipPath id="clippath">
      <path class="cls-2" d="M198.58,444.28c-1.58-3.36-2.2-7.08-1.78-10.75l22.85-205.34,200.38-49.88c.28-.07.56-.1.85-.1s.57.03.84.1l200.39,49.88,22.85,205.34c.42,3.68-.2,7.4-1.78,10.76-11.37,24.12-433.22,24.12-444.59,0Z"/>
    </clipPath>
    <clipPath id="clippath-1">
      <polygon class="cls-2" points="420.88 575.98 355.84 653.06 215.96 491.96 420.89 491.85 625.79 491.96 485.91 653.06 420.88 575.98"/>
    </clipPath>
  </defs>
  <g id="Layer_1-2" data-name="Layer_1">
    <circle class="cls-1" cx="421.57" cy="421.57" r="421.57"/>
    <g>
      <path class="cls-6" d="M181.21,452.31c-3.08-6.53-4.28-13.76-13.55-20.92l23.49-210.98c10.6-4.45,13.89-8.17,18.27-9.26l205.94-51.26c1.8-.45,3.66-.68,5.52-.68s3.72.23,5.52.68l205.94,51.26c4.38,1.09,7.67,4.81,18.27,9.26l18.44,210.98c-9.28,7.15-5.43,14.39-8.51,20.92-11.94,25.33-467.4,25.33-479.34,0Z"/>
      <path class="cls-1" d="M198.58,444.28c-1.58-3.36-2.2-7.08-1.78-10.75l22.85-205.34,200.38-49.88c.28-.07.56-.1.85-.1s.57.03.84.1l200.39,49.88,22.85,205.34c.42,3.68-.2,7.4-1.78,10.76-11.37,24.12-433.22,24.12-444.59,0Z"/>
      <g class="cls-7">
        <g>
          <rect class="cls-5" x="607.08" y="323.73" width="38" height="371.81"/>
          <rect class="cls-6" x="538.68" y="323.73" width="38" height="371.81"/>
          <rect class="cls-6" x="470.28" y="323.73" width="38" height="371.81"/>
          <rect class="cls-6" x="401.88" y="323.73" width="38" height="155.26"/>
          <rect class="cls-6" x="333.47" y="323.73" width="38" height="371.81"/>
          <rect class="cls-6" x="265.07" y="323.73" width="38" height="371.81"/>
          <rect class="cls-5" x="196.67" y="323.73" width="38" height="371.81"/>
        </g>
      </g>
      <polygon class="cls-5" points="420.88 661.71 356.45 738.07 187.69 543.7 113.07 543.7 148.3 413.41 113.07 283.11 157.52 283.11 168.8 184.24 420.88 121.07 673.32 184.33 679.64 283.11 730.07 283.11 694.84 413.41 730.07 543.7 654.06 543.7 485.3 738.07 420.88 661.71"/>
      <polygon class="cls-4" points="716.78 533.71 684.37 413.41 716.78 293.1 670.17 293.1 663.71 192.23 420.88 131.38 178.04 192.23 166.54 293.1 126.36 293.1 158.77 413.41 126.36 533.71 192.32 533.71 356.34 722.61 420.88 646.12 485.41 722.61 649.43 533.71 716.78 533.71"/>
      <polygon class="cls-6" points="186.23 343.06 201.15 212.2 420.88 157.15 640.6 212.2 655.52 343.06 186.23 343.06"/>
      <polygon class="cls-4" points="208.82 323.08 219.64 228.18 420.88 177.76 622.11 228.18 632.93 323.08 208.82 323.08"/>
      <path class="cls-1" d="M519.15,343.07c0-52.87-43.29-95.74-96.7-95.74s-96.7,42.86-96.7,95.74,43.29,100.73,96.7,100.73,96.7-47.86,96.7-100.73Z"/>
      <path class="cls-6" d="M495.56,343.07c0-39.98-32.73-72.39-73.11-72.39s-73.11,32.41-73.11,72.39,32.73,77.38,73.11,77.38,73.11-37.41,73.11-77.38Z"/>
      <path class="cls-2" d="M198.58,444.28c-1.58-3.36-2.2-7.08-1.78-10.75l22.85-205.34,200.38-49.88c.28-.07.56-.1.85-.1s.57.03.84.1l200.39,49.88,22.85,205.34c.42,3.68-.2,7.4-1.78,10.76-11.37,24.12-433.22,24.12-444.59,0Z"/>
      <g>
        <polygon class="cls-6" points="420.88 466.87 172.01 467 356.06 683.98 420.88 607.15 485.69 683.98 669.74 467 420.88 466.87"/>
        <polygon class="cls-1" points="420.88 575.98 355.84 653.06 215.96 491.96 420.89 491.85 625.79 491.96 485.91 653.06 420.88 575.98"/>
        <g class="cls-3">
          <g>
            <polygon class="cls-6" points="570.85 720.52 534.27 740.51 534.27 328.73 570.85 328.73 570.85 720.52"/>
            <rect class="cls-6" x="468.43" y="328.73" width="36.58" height="411.78"/>
            <rect class="cls-6" x="402.59" y="328.73" width="36.58" height="391.79"/>
            <rect class="cls-6" x="336.74" y="328.73" width="36.58" height="411.78"/>
            <polygon class="cls-6" points="307.48 740.51 270.9 720.52 270.9 328.73 307.48 328.73 307.48 740.51"/>
          </g>
        </g>
      </g>
      <polygon class="cls-6" points="158.76 510.4 185.61 413.41 158.76 316.41 684.38 316.41 657.53 413.41 684.38 510.4 158.76 510.4"/>
      <polygon class="cls-4" points="684.57 494.79 158.57 494.79 171.59 413.41 158.57 332.02 684.57 332.02 666.5 413.41 684.57 494.79"/>
      <g>
        <g>
          <polygon class="cls-5" points="211.09 468.82 196.84 455.06 196.84 372.43 211.09 358.67 312.35 358.67 324.9 371.09 324.9 396.23 296.62 396.23 296.62 386.05 225.12 386.05 225.12 441.44 296.62 441.44 296.62 431.26 324.9 431.26 324.9 456.4 312.35 468.82 211.09 468.82"/>
          <polygon class="cls-1" points="211.89 360.62 198.8 373.25 198.8 454.24 211.89 466.87 311.54 466.87 322.93 455.59 322.93 433.2 298.58 433.2 298.58 443.38 223.15 443.38 223.15 384.11 298.58 384.11 298.58 394.29 322.93 394.29 322.93 371.9 311.54 360.62 211.89 360.62"/>
          <polygon class="cls-5" points="215.62 457.81 207.95 450.42 207.95 377.07 215.62 369.68 307.75 369.68 313.78 375.65 313.78 385.22 307.73 385.22 307.73 378.28 304.46 375.04 217.27 375.04 214 378.28 214 449.21 217.27 452.45 304.46 452.45 307.73 449.21 307.73 442.27 313.78 442.27 313.78 451.84 307.75 457.81 215.62 457.81"/>
        </g>
        <g>
          <polygon class="cls-5" points="534.26 468.82 520.01 455.06 520.01 372.43 534.26 358.67 635.52 358.67 648.07 371.09 648.07 396.23 619.79 396.23 619.79 386.05 548.28 386.05 548.28 441.44 619.79 441.44 619.79 431.26 648.07 431.26 648.07 456.4 635.52 468.82 534.26 468.82"/>
          <polygon class="cls-1" points="535.06 360.62 521.97 373.25 521.97 454.24 535.06 466.87 634.7 466.87 646.1 455.59 646.1 433.2 621.75 433.2 621.75 443.38 546.32 443.38 546.32 384.11 621.75 384.11 621.75 394.29 646.1 394.29 646.1 371.9 634.7 360.62 535.06 360.62"/>
          <polygon class="cls-5" points="538.78 457.81 531.12 450.42 531.12 377.07 538.78 369.68 630.91 369.68 636.95 375.65 636.95 385.22 630.9 385.22 630.9 378.28 627.63 375.04 540.43 375.04 537.16 378.28 537.16 449.21 540.43 452.45 627.63 452.45 630.9 449.21 630.9 442.27 636.95 442.27 636.95 451.84 630.91 457.81 538.78 457.81"/>
        </g>
        <polygon class="cls-5" points="466.78 468.82 466.78 427.44 378.12 427.44 378.12 468.82 349.84 468.82 349.84 358.67 378.12 358.67 378.12 400.05 466.78 400.05 466.78 358.67 495.06 358.67 495.06 468.82 466.78 468.82"/>
        <polygon class="cls-1" points="468.74 360.62 468.74 401.99 376.16 401.99 376.16 360.62 351.8 360.62 351.8 466.87 376.16 466.87 376.16 425.49 468.74 425.49 468.74 466.87 493.1 466.87 493.1 360.62 468.74 360.62"/>
        <polygon class="cls-5" points="477.9 457.81 477.9 416.43 367 416.43 367 457.81 360.96 457.81 360.96 369.68 367 369.68 367 411.06 477.9 411.06 477.9 369.68 483.94 369.68 483.94 457.81 477.9 457.81"/>
      </g>
      <polygon class="cls-1" points="420.88 192.75 425.21 205.96 439.25 205.96 427.89 214.13 432.23 227.34 420.88 219.18 409.52 227.34 413.86 214.13 402.51 205.96 416.54 205.96 420.88 192.75"/>
      <polygon class="cls-1" points="507.21 214.1 511.54 227.31 525.58 227.31 514.22 235.48 518.56 248.69 507.21 240.53 495.85 248.69 500.19 235.48 488.84 227.31 502.87 227.31 507.21 214.1"/>
      <polygon class="cls-1" points="594.34 233.12 598.68 246.34 612.71 246.34 601.36 254.5 605.69 267.72 594.34 259.55 582.99 267.72 587.33 254.5 575.97 246.34 590.01 246.34 594.34 233.12"/>
      <polygon class="cls-1" points="292.42 268.99 288.09 282.21 274.05 282.21 285.41 290.38 281.07 303.59 292.42 295.42 303.77 303.59 299.44 290.38 310.79 282.21 296.76 282.21 292.42 268.99"/>
      <polygon class="cls-1" points="552.48 268.99 556.82 282.21 570.85 282.21 559.5 290.38 563.83 303.59 552.48 295.42 541.13 303.59 545.46 290.38 534.11 282.21 548.14 282.21 552.48 268.99"/>
      <polygon class="cls-1" points="337.69 214.1 333.36 227.31 319.32 227.31 330.68 235.48 326.34 248.69 337.69 240.53 349.05 248.69 344.71 235.48 356.06 227.31 342.03 227.31 337.69 214.1"/>
      <polygon class="cls-1" points="250.56 233.12 246.22 246.34 232.19 246.34 243.54 254.5 239.21 267.72 250.56 259.55 261.91 267.72 257.58 254.5 268.93 246.34 254.9 246.34 250.56 233.12"/>
    </g>
  </g>
</svg>