<?xml version="1.0" encoding="UTF-8"?>
<svg id="Layer_2" data-name="Layer 2" xmlns="http://www.w3.org/2000/svg" viewBox="0 0 752.44 809.66">
  <defs>
    <style>
      .cls-1 {
        fill: #fff;
      }

      .cls-2 {
        fill: #ffd200;
      }

      .cls-3 {
        fill: #fffeff;
      }

      .cls-4 {
        fill: #bc1f30;
      }

      .cls-5 {
        fill: #002854;
      }
    </style>
  </defs>
  <g id="Logos">
    <g>
      <path class="cls-3" d="M504.17,789.82c-56.71-14.95-98.45-37.39-138.82-59.09-36.82-19.79-74.89-40.25-124.68-54.4-28.62-8.13-50.69-13.25-72.21-13.63-.73-.01-1.46-.02-2.18-.02-6.03-.02-12.19.27-18.29.84L0,677.47l83.18-115.43c25.82-35.83,39.5-73.57,50.5-103.9,3.37-9.3,6.56-18.08,9.81-26.08,1.12-2.74,2.24-5.51,3.39-8.32l-91.93-77.62,27.7-9.29-22.43-79.32c-14.99-19.98-25.46-36.48-35.52-80.81l-.07-.33-10.62-56.2,31.24,15.12c-4.93-21.5-7.47-41.01-9.8-85.97L32.91,0l36.21,34.95c.17.16,20.59,19.52,60.32,42.47,36.6,21.14,97.58,49.75,180.25,66.02,14.89,2.93,71.15,15.63,132.33,34.87,83.82,26.37,144.88,54.49,181.5,83.59,3.48,2.77,10.73,8.53,34.44,51.12,6.55,11.77,12.02,22.17,14.71,27.33,2.24,4.31,3.81,7.38,4.92,9.63,21.07,17.7,28.2,34.3,33.93,47.66,1.59,3.7,3.09,7.2,4.77,10.43,6.47,12.43,17.27,46.92,24.6,74.55,3.09,11.64,7.27,28.48,9.64,42.64,2.93,17.47,3.18,29.19-4.23,37.39-7.63,8.44-18.59,13.09-30.87,13.1,0,0-.7,0-.89,0-10.69-.19-20.72-3.72-30.42-7.15-6.87-2.42-13.96-4.93-19.59-5.6-8.41-1-18.16-1.61-28.97-1.8-2.09-.04-4.21-.06-6.37-.06-13.95-.03-27.79.58-39.63,1.37,12.16,33.87,31.95,88.3,54.18,121.2l54.86,81.16-40.27,9.44c-2.22.52-22.67,5.08-55.6,5-1.81,0-3.63-.02-5.44-.05-13.46-.23-27.01-1.22-40.59-2.95l22.72,33.36-75.24-19.84Z"/>
      <path class="cls-5" d="M509.35,771.45c-54.39-14.34-95.07-36.21-134.41-57.35-37.76-20.3-76.81-41.29-128.71-56.04-31.18-8.86-55.42-14.36-79.92-14.42-6.68-.02-13.5.3-20.26.93l-105.44,9.93,58.79-81.57c35.37-49.08,48.7-100.06,62.47-133.88,3.6-8.83,7.29-17.91,11.4-27.33-7.36-7.19-13.36-2.27-13.36-2.27l-66.4-56.07,35.11-11.77-27.54-11.99-15.33-54.2,14.64,4.06c-29.81-44.18-42.8-46.92-56.39-106.81l-3.47-18.34,34.09,16.5c-12.24-47.55-15.98-55.51-19.44-122.41,0,0,83.78,80.86,250.59,113.7,22.7,4.47,222.65,48.88,305.22,114.5,12.14,9.65,49.97,83.14,50.38,84.96l.4.26,2.22,1.97.36.3c23.36,19.51,25.91,36.35,34.3,52.5,10.05,19.34,40.68,124.77,32.77,133.53-2.72,3.01-7.73,6.6-16.11,6.58h0c-7.5-.02-15.73-2.92-24.44-6-7.9-2.79-16.07-5.67-23.94-6.61-10.85-1.3-23.54-1.97-37.72-2.01-26.45-.07-52.22,2.09-66.76,3.57,9.6,24.26,34.59,103.8,64.76,148.44l39.62,58.61-13.18,3.09c-.79.19-19.74,4.54-50.89,4.46-29.26-.07-58.87-3.9-88.34-11.39l19.85,29.15-24.91-6.57Z"/>
      <g>
        <path class="cls-1" d="M529.44,381.2c-10.79-5.87-10.44-10.57-24.55-16.91-11.13-5-28.16-10.77-28.16-10.77,0,0,10.22,11.77,9.46,17.9-1.15,9.29-3.46,13.27,8.75,19.55,27.39,14.08,34.5-9.77,34.5-9.77Z"/>
        <g>
          <path class="cls-2" d="M559.62,463.47c-9.44-1.04-18.31,4.4-20.91,12.86-1.61,5.24-2.81,10.19-3.25,12.72-.86,5.01,5.71,7.08,5.71,7.08,35.59-4.67,35.95,3.73,68.55,5.21,18.72.85,35.32-5.19,45.04-2.77-8.11-6.72-82.29-33.69-95.14-35.1Z"/>
          <path class="cls-2" d="M683.94,501.12c.38.1.75.2,1.13.29-5.82-28.48-14.59-51.83-21.24-64.61-9-17.31-34.76-37.87-36.64-39.54,0,0-23.65-15.63-39.4-8.91-7.6,3.25-5.16,24.85-12.93,30.94-4.92,3.85-10.67,10.66-16.21,18.65,12.3,2.2,121.64,56.31,125.29,63.18Z"/>
        </g>
        <path class="cls-5" d="M593.19,398.38c8.71,2.83,21.66,10.74,21.66,10.74-2.02-4.66-4.38-8.46-6.3-11.17-2.13-3.01-6.19-4.3-9.83-3.13-2.75.88-5.4,2.11-5.52,3.56Z"/>
      </g>
      <path class="cls-4" d="M612.35,365.26s-13.01-38.23-27.85-50.66c-9.84-8.31-33.12-25.29-57.35-39.33-69.63-40.33-350.44-74.1-416.11-144.96.35,62.5,80.27,122.02,80.27,122.02-21.26-2.92-61.79-32.94-61.79-32.94,5,26.45,42.68,86.22,81.35,102.13l-35.73-10.55c9.76,8.56,11.66,19.42,19.57,26.16,10.49,8.94,26.66,12.95,37.94,17.32-19.17.37-40.82,1.97-51.9,3.45,3.77,3.26,25.28,20.33,39.1,27.83,5.25,2.85,24.23-5.07,21.27.05-38.05,66.04-37.28,125.38-100.36,212.92,44.89-4.23,83.64,3.44,121.36,15.76h0c41.1,13.42,90.57,40.43,145.41,63.57,0,0-13.82-37.1-31.3-62.45,58.47,43.09,95.42,68.4,147.63,85.84-6.05-71.49-48.97-136.39-78.11-176.31-19.04-26.09-40.88-50.17-65.42-71.56-12.65-11.03-21.56-20.41-21.56-20.41l61.03,19.72,2.53.16c-9.53-16.75-19.2-45.93-5.47-84.8,5.6,38.7,58.7,56.58,58.7,56.58,0,0-35.34-25.36-37.03-49.12-.45-6.31,1.51-37.19,1.51-37.19l-46.82-23.13s70.69,5.18,92.55,12.98c14.36,5.12,36.94,19.95,50.6,26.53,9.06,4.36,32.8,14.23,41.31,9.08,6.68-4.04,3.4-10.05-4.76-29.35,20.44,9.86,39.43,30.68,39.43,30.68Z"/>
    </g>
  </g>
</svg>