<?xml version="1.0" encoding="UTF-8"?>
<svg id="Layer_2" xmlns="http://www.w3.org/2000/svg" viewBox="0 0 751.92 1044.69">
  <defs>
    <style>
      .cls-1 {
        fill: #fff;
      }

      .cls-2 {
        fill: #ffd200;
      }

      .cls-3 {
        fill: #bc1f30;
      }

      .cls-4 {
        fill: #002854;
      }
    </style>
  </defs>
  <g id="Logos">
    <g>
      <g>
        <path class="cls-4" d="M529.68,645.64c-17.53,0-34.77-6.37-51.24-18.92-32.11-24.48-30.45-51.81-26.91-67.38-.23-.45-.47-.88-.69-1.27l-87.87-146.43,150.62,81.5c2.32,1.25,23.13,12.53,37.89,22.55,14.54,9.87,21.66,18.46,27.72,26.42,2.17,2.86,2.25,2.92,3.18,3.67l28.22,22.61-14.69,33.04c-9.07,20.4-31.86,44.22-66.22,44.22h0Z"/>
        <path class="cls-1" d="M641.15,1044.69c-69.38,0-134.81-16.53-200.04-50.54-54.56-28.44-97.53-63.16-132.06-91.06-17.89-14.46-33.35-26.94-45.57-34.46-4.35-2.68-8.63-5.37-12.76-7.97-13.67-8.6-26.58-16.72-39.43-22.71-56.97-26.54-176.94-30.07-178.15-30.1l-33.13-.9,52.37-93.2-49.59,3.29,79.26-126.46c24.79-39.58,50.92-71.65,71.38-94.26l-79.41-99.27,47.67.06-46.39-154.95,56.4,27.43c-4.71-89.05,15.38-178.12,16.35-182.37L168.02,0l35.6,82.1c.43.99,46.49,104.45,127.95,163.42l5.04,3.65c32.99,23.9,70.36,50.98,105.32,69.59,2.76,1.32,15.81,6.42,20.75,8.35,43.27,16.9,108.59,42.42,150.83,82.51,27.63,26.22,46.54,44.38,57.24,57.44,22.51,27.41,32.15,71.14,35.89,94.76l1.66,10.46c19.68,25.14,30.82,45.08,35.9,64.16,22.21,83.45-10.31,163.33-11.71,166.69l-11.51,27.7-70.49-31.01-4.78-2.46-.85-.51c-9.46-5.7-20.3-8.72-31.34-8.72-.7,0-1.4.01-2.1.04l-57.62,2.01c22.24,42.23,54.45,109.37,66.72,137.43l51.2,117.1h-30.57Z"/>
        <path class="cls-4" d="M273.96,851.6c-18.8-11.57-36.13-23.34-54.23-31.77-61.39-28.6-186.05-31.97-186.05-31.97l44.87-79.85c3.17-5.64,6.68-11.23,10.5-16.72l-48.53,3.22,58.47-93.3c28.47-45.47,58.74-80.81,80.82-103.91l-64.16-80.2,33.8.04c-2.02-4.73-3.75-9.5-5.18-14.26l-36.77-122.81,47.42,23.06c-13.49-95.72,11.46-206.49,12.6-211.45l6.38-27.84,11.36,26.21c.47,1.08,48.07,109.04,134.57,171.66l5.04,3.65c33.56,24.31,71.59,51.87,107.82,71.13,2.66,1.4,15.23,6.31,22.74,9.25,41.78,16.32,104.9,40.98,144.3,78.37,27.08,25.69,45.57,43.45,55.53,55.6,20.25,24.66,28.85,67.81,31.61,85.22l2.48,15.64c19.93,24.85,30.91,43.73,35.5,60.99,20.48,76.97-9.56,150.78-10.85,153.88l-3.67,8.84-51.24-22.54-3.63-1.87-.27-.16c-12.58-7.58-26.99-11.59-41.67-11.59-.94,0-1.87.02-2.81.05l-90.3,3.15c16.81,26.74,65.85,127.84,81.79,164.29l38.95,89.09c-191.18,0-305.76-135.28-367.19-173.09Z"/>
      </g>
      <g>
        <path class="cls-1" d="M546.2,578.85c-9.8-7.85-8.69-12.84-21.71-21.68-10.27-6.97-26.29-15.61-26.29-15.61,0,0,8.27,14.09,6.53,20.56-2.64,9.79-5.59,13.73,5.56,22.23,25,19.06,35.91-5.49,35.91-5.49Z"/>
        <g>
          <path class="cls-2" d="M592.76,682c-6.85-2.9-18.85-5.67-31.63-8.05-9.4-1.75-18.72,3.54-21.99,12.52-2.02,5.56-3.61,10.83-4.25,13.54-1.25,5.36,5.18,8.04,5.18,8.04,36.09-2.68,35.8,6.42,68.4,10.19,18.72,2.16,35.85-3.26,45.42,0-7.63-7.81-24.5-20.72-61.14-36.24Z"/>
          <path class="cls-2" d="M595.62,654.84c12.16,5.15,35.63,17.94,45.74,26.44,28.31,23.8,36.77,40.58,39.3,48.47.36.16.72.32,1.08.47-1.2-31.37-6.17-57.69-10.72-72.35-6.17-19.86-28.5-45.63-30.1-47.69,0,0-21.02-20.18-37.79-15.24-8.09,2.38-9.14,25.91-17.86,31.31-5.51,3.42-12.34,9.89-19.14,17.66,11.89,4.14,22.98,8.17,29.5,10.93Z"/>
        </g>
        <path class="cls-4" d="M606.88,606.49c8.22,4.29,19.82,14.64,19.82,14.64-1.26-5.29-3-9.7-4.47-12.88-1.63-3.53-5.47-5.5-9.29-4.77-2.88.55-5.72,1.48-6.07,3.02Z"/>
      </g>
      <path class="cls-3" d="M631.3,573.74s-6.79-42.88-19.55-58.34c-8.45-10.33-29.95-30.72-50.74-50.46-42.51-40.34-133.73-67.59-154.73-78.76-74.56-39.65-189.96-121.36-196.22-175.31-9.74,67.07,51.05,143.73,51.05,143.73-20.7-6.2-47.02-45.54-47.02-45.54.71,29.08-4.19,45.55,1.86,67.52,2.08,7.55,13.76,17.8,16.11,26.64l-33.86-16.47c10.77,35.97,49.59,67.53,86.88,90.56-19.14-2.38-40.95-3.78-52.22-3.8,8.58,10.72,20.35,26.7,20.9,31.08,0,0-56.44,45.62-107.07,126.47,0,0,53.27,10.79,90.25,12.86,0,0-24.04,10.17-51.03,29.68-20.95,15.15-43.68,35.93-58.3,61.96,45.36,1.95,82.7,15.77,118.26,34.42h0c77.51,40.66,179.55,174.4,304.77,188.15-53-121.2-121.92-206.73-150.14-254.96,0,0,18.57,15.35,42.62,14.52-33.69-13.81-66.27-66.2-66.27-66.2,0,0,29.49,21.67,45.98,20.67-27.03-19.24-54.91-62.28-54.91-62.28l57.58,29.96,2.49.54c-6.79-19.34-11.71-52.02,8.23-91.72-.67,42.31,49.31,69.15,49.31,69.15,0,0-31.08-32.29-28.94-58.02.57-6.83,7.5-39.66,7.5-39.66l-42.88-31.57s69.53,15.77,90.04,27.28c13.47,7.56,33.55,26.72,46.09,35.75,8.31,5.98,30.36,19.99,39.66,15.7,7.3-3.37,5-10.29,0-32.16,18.76,13.52,34.3,38.59,34.3,38.59Z"/>
    </g>
  </g>
</svg>