<?xml version="1.0" encoding="UTF-8"?>
<svg id="Layer_2" xmlns="http://www.w3.org/2000/svg" viewBox="0 0 857.45 837.08">
  <defs>
    <style>
      .cls-1 {
        fill: #1f1f1f;
      }

      .cls-2 {
        fill: #fcfdf8;
      }

      .cls-3 {
        fill: #f8ce00;
      }
    </style>
  </defs>
  <g id="Logos">
    <g>
      <path class="cls-3" d="M336.74,752.08l-162.62-77.7-54.26-87.7-54.31,8.47-4.52-29.23c-.2-1.3-4.21-27.96-1.61-69.41l-59.42,4.39,8.97-39.03c.92-3.98,21.77-92.99,70.5-174.78-2.1-1.62-3.48-2.62-3.51-2.64l-41.8-29.95,46.97-21.01c.74-.33,3.8-1.68,8.38-3.47-37.42-50.45-48.28-101.77-49.54-108.27l-.54-2.79v-2.82c0-26.32,18-50.22,33.89-71.3,1.6-2.12,3.16-4.19,4.6-6.14-1.67-8.25-.18-16.59,4.41-23.69C88.49,5.47,99.2,0,111.74,0c3.27,0,6.77.35,10.41,1.03,1.02.16,2.13.34,3.33.53l3.2.49c25.32,3.89,84.61,13.01,120.2,31.06,1.76.9,6.6,3.35,20.22,12.49,33.51-9.2,89.66-16.25,113.64-16.25.53,0,1.06,0,1.6.03.51-.02,1.01-.03,1.5-.03,14.8,0,30.21,6.78,42.89,14.43,12.69-7.66,28.09-14.43,42.89-14.43.49,0,.99.01,1.5.03.54-.02,1.07-.03,1.6-.03,23.98,0,80.12,7.05,113.64,16.25,13.6-9.13,18.45-11.59,20.22-12.49,35.59-18.05,94.88-27.17,120.19-31.06l3.27-.51c1.15-.19,2.26-.36,3.28-.52,3.65-.68,7.14-1.03,10.4-1.03,12.53,0,23.25,5.47,29.41,15.01,4.58,7.1,6.08,15.44,4.4,23.68,1.45,1.96,3,4.02,4.6,6.14,15.89,21.09,33.89,44.99,33.89,71.31v2.82l-.53,2.77c-1.26,6.52-12.12,57.84-49.54,108.29,4.59,1.79,7.65,3.14,8.39,3.47l46.93,20.99-41.78,29.97s-1.41,1.02-3.5,2.64c48.73,81.79,69.58,170.8,70.5,174.77l8.98,39.03-59.42-4.39c2.6,41.46-1.41,68.11-1.61,69.42l-4.51,29.22-54.31-8.47-54.25,87.7-162.62,77.7-91.99,85-91.99-85Z"/>
      <path class="cls-1" d="M348.09,735.34l-160.05-76.47-58.15-93.99-47.63,7.42-1.46-9.43c-.24-1.54-5.37-35.89.63-88.04l-55.85,4.13,2.9-12.6c.96-4.17,23.59-100.76,77.08-183.34-8.22-7.83-17.8-14.72-17.92-14.81l-13.5-9.67,15.16-6.78c.94-.42,17.17-7.62,34.64-11.7-50.57-53.56-63.74-119.1-64.32-122.11l-.17-.9v-.91c0-19.63,15.87-40.69,29.87-59.27,3.65-4.84,7.11-9.43,9.82-13.43.16-1.41-.17-4.32-.57-5.55-2.53-5.74-.72-10,.59-12.03,1.72-2.67,5.31-5.85,12.6-5.85,2.11,0,4.47.25,7,.74,1.09.17,2.3.36,3.61.58l3.28.51c24.37,3.75,81.45,12.53,114.19,29.13,5.8,2.94,16.74,10.24,25.92,16.57,28.09-9.6,90.95-18.16,116.99-18.16.52,0,1.05.02,1.59.04.51-.02,1.03-.04,1.51-.04,15.2,0,33.47,11.6,42.89,18.42,9.43-6.82,27.69-18.42,42.89-18.42.48,0,1,.02,1.51.04.53-.03,1.07-.04,1.59-.04,26.05,0,88.9,8.57,116.99,18.16,9.14-6.31,20.1-13.62,25.92-16.57,32.74-16.61,89.82-25.38,114.19-29.13l3.36-.52c1.25-.2,2.45-.4,3.54-.56,2.56-.5,4.9-.74,7-.74,7.29,0,10.88,3.18,12.6,5.85,1.31,2.04,3.12,6.29.59,12.03-.4,1.23-.73,4.14-.57,5.55,2.71,4,6.17,8.59,9.82,13.43,14,18.58,29.87,39.64,29.87,59.27v.91l-.17.9c-.58,3-13.76,68.54-64.32,122.11,17.47,4.08,33.7,11.28,34.64,11.7l15.15,6.78-13.49,9.68c-.12.08-9.71,6.99-17.92,14.81,53.49,82.58,76.12,179.16,77.08,183.34l2.9,12.6-55.85-4.13c6,52.15.87,86.5.63,88.04l-1.46,9.44-47.64-7.42-58.15,93.99-160.05,76.47-80.64,74.51-80.64-74.51Z"/>
      <g>
        <path class="cls-2" d="M352.08,443.65c-1.69,0-3.12-1.28-3.82-3.41-.1-.3-9.57-27.8-11.01-37.93-.84-5.96-.85-22.33-.81-29.09.01-1.97.66-3.87,1.79-5.21.7-.84,1.59-1.3,2.51-1.3.56,0,1.09.17,1.6.49,1.96,1.94,4.64,4.18,6.56,4.18h1.07l.62-.9c2.07-3.13,8.33-7.58,12.59-10.34.08,4.73.18,12.96-.07,16.32-.67,9.01-5.4,35.94-5.45,36.21l-.02.12-1.28,25.56c-.17,3.48-2.29,5.29-4.28,5.29h0Z"/>
        <path class="cls-2" d="M479.34,387.99l-7.93,5.95c-.19.14-.4.21-.62.21-.4,0-.9-.25-1.03-.81l-4.02-16.82-2.52,2.43c-.06.06-5.68,5.38-11.68,6.07l-5.5-12-5.12,9.21c-.08.15-.23.17-.29.17-.12,0-.19-.07-.22-.09l-11.69-10.8-11.69,10.8s-.09.09-.22.09c-.06,0-.2-.02-.29-.17l-5.12-9.21-5.5,12c-6-.69-11.62-6.02-11.68-6.07l-2.52-2.41-4.02,16.81c-.13.56-.63.81-1.03.81-.22,0-.43-.07-.62-.21l-7.93-5.95-.37,12.22c-3.78-9.23-6.25-15.68-7.01-18.29-.82-11.89-2.45-20.37-3.24-23.95l1.35-.4c1.65-.49,3.36-.74,5.07-.74,3.82,0,7.6,1.25,10.67,3.53l13.66,11.76.64-3.41c1.73-9.18,4.96-16.58,6.48-16.58h4.49c1.47,0,3.69,6.04,4.48,12.19.21,1.45,1.41,2.48,2.84,2.48,1.27,0,2.37-.82,2.73-2.05,2.32-7.9,5.62-12.62,8.82-12.62s6.51,4.72,8.82,12.62c.36,1.23,1.46,2.05,2.73,2.05,1.43,0,2.63-1.03,2.83-2.45.8-6.19,3.01-12.22,4.48-12.22h4.49c1.52,0,4.75,7.39,6.48,16.58l.64,3.41,13.66-11.76c3.06-2.28,6.85-3.53,10.67-3.53,1.72,0,3.43.25,5.07.74l1.35.4c-.79,3.58-2.42,12.06-3.24,23.95-.76,2.61-3.23,9.07-7.01,18.29l-.37-12.22Z"/>
        <path class="cls-2" d="M505.36,443.65c-2,0-4.11-1.82-4.28-5.29l-1.28-25.56-.02-.12c-.05-.27-4.78-27.2-5.45-36.21-.25-3.36-.15-11.59-.07-16.32,4.26,2.76,10.52,7.21,12.59,10.34l.57.86s1.03.03,1.04.03c2.01,0,4.69-2.24,6.65-4.18.51-.33,1.05-.49,1.6-.49.92,0,1.81.46,2.51,1.3,1.13,1.35,1.78,3.25,1.79,5.21.04,6.76.03,23.13-.81,29.09-1.43,10.13-10.9,37.63-11,37.9-.71,2.16-2.14,3.44-3.83,3.44Z"/>
      </g>
      <path class="cls-2" d="M437.99,542.56c-.24,0-.42-.19-.53-.36l-4.07-6.23h-9.34l-4.07,6.23c-.11.16-.28.35-.53.35-.23,0-.53-.17-.69-.66l-1.54-4.78-5.68,2.45c-.07.03-.13.04-.19.04-.29,0-.66-.35-.73-.92l-1.68-12.8-21.35,12.26c-.57.33-1.19.5-1.82.5-1.3,0-2.56-.74-3.35-1.98l-4.7-7.3,7.53-5.97-2.76-1.42c-4.68-2.4-12.56-7.47-13.79-10.82-2.41-6.52,1-29.44,2.51-37.72l.02-.15c.2-1.91,1.48-2.78,2.58-2.78.93,0,1.71.57,2.19,1.61l8.34,17.97.33.28c5.09,4.39,13.35,12.79,13.84,16.65.2,1.6-2.21,6.28-4.56,9.7l-.91,1.32,6.41,6.85,2.47-8.19c.22-.73.76-1.21,1.34-1.21l6.7.21c.59.02,1.13.54,1.33,1.29l2.37,13.18,3.96-.19,1.08-13.5c.06-.75.56-1.37,1.11-1.37l5.05.11,3.86,4.37,3.85-4.37,5.03-.11c.57,0,1.06.61,1.12,1.37l1.08,13.5,3.96.19,2.37-13.18c.2-.74.74-1.27,1.33-1.29,0,0,6.67-.21,6.67-.21.61,0,1.15.49,1.37,1.21l2.47,8.19,6.41-6.85-.91-1.33c-2.35-3.42-4.76-8.1-4.56-9.7.49-3.87,8.75-12.27,13.84-16.65l.33-.28,8.34-17.97c.48-1.04,1.26-1.61,2.19-1.61,1.1,0,2.38.87,2.58,2.78l.02.15c1.52,8.28,4.92,31.2,2.51,37.72-1.24,3.36-9.12,8.42-13.79,10.82l-2.76,1.42,7.53,5.97-4.7,7.3c-.81,1.26-2.03,1.98-3.35,1.98-.63,0-1.24-.17-1.82-.5l-21.35-12.26-1.68,12.8c-.07.57-.44.92-.73.92-.06,0-.12-.01-.19-.04l-5.68-2.45-1.54,4.78c-.16.49-.46.66-.69.66Z"/>
      <g>
        <path class="cls-3" d="M384.98,558.12c-4.31-2.44-11.92-7.84-17.8-14.7-3.09-3.61-3.76-15.35-3.76-15.35l-6.23-5.67s-1.09,11.97.36,15.79c2.97,7.85,15.97,18.04,20.9,24.82,9.53,13.11,18.45,41.48,49.84,41.48v-23.52c-26.32,0-32.66-16.83-43.31-22.86Z"/>
        <path class="cls-3" d="M499.38,522.4l-6.23,5.67s-.66,11.74-3.76,15.35c-5.88,6.86-13.49,12.25-17.8,14.7-10.65,6.04-16.98,22.86-43.31,22.86v23.52c31.39,0,40.31-28.37,49.84-41.48,4.93-6.79,17.94-16.98,20.9-24.82,1.45-3.82.36-15.79.36-15.79Z"/>
      </g>
      <g>
        <path class="cls-2" d="M534.61,237.51s2.84-3.65,4.41-4.68c3.99-2.63,18.68-6.09,18.68-6.09,0,0-.21,3.36-1.26,5.46,2.94,1.47,5.46,5.04,5.46,5.04,0,0-7.45,5.82-11.05,6.54-2.85.58-13.31-.67-13.31-.67l-5.67,3.36v-1.08c.02-2.85.97-5.62,2.73-7.88Z"/>
        <path class="cls-2" d="M321.95,237.51s-2.84-3.65-4.41-4.68c-3.99-2.63-18.68-6.09-18.68-6.09,0,0,.21,3.36,1.26,5.46-2.94,1.47-5.46,5.04-5.46,5.04,0,0,7.45,5.82,11.05,6.54,2.85.58,13.31-.67,13.31-.67l5.67,3.36v-1.08c-.02-2.85-.97-5.62-2.73-7.88Z"/>
      </g>
      <path class="cls-3" d="M402.98,88.26c-11.9-7.68-26.52-9.94-40.37-6.96l-99.48,21.42s-74.17-47.03-112.95-47.53h-20.67s-36.79,39.06-37.87,55.9c-1.92,29.92,54.04,107.07,54.04,107.07v-37.79l13.38,13.16-5.69-35.19-23.85-18.91,32.95-2.76-43.92-28.56,27.14-24.22c15.12-6.47,29.3-7.28,37.36,8.72,0,0,10.38,50.05,23.51,58.96,3.89,2.64,18.79,0,18.79,0-33.51,51.49-37.16,100.76-37.17,100.77l-34.52,17.46,17.17,5.84c-70.07,68.76-81.54,139.35-81.54,139.35h46.57s-14.95,36.19-10.15,96.65l36.77-13.86,56.96,119.66,138.13,75.58-113.21-88.54-17.84-59.69,34.93,18.64-57.73-94.96h-36.2l29.95-41.23h0s0,0,0,0h0s29.98,15.96,89.76,69.18c0,0,1.01-8.22.4-17.79l15.73,15.62c16.61,15.82,21.35,43.31,21.35,43.31l2.79-31.17h0c2.81-21.86-.53-54.25-9.62-70.08,0,0-58.58-17.06-59.94-47.1-.46-10.08,8.62-29.01,17.14-44.4l10.08,25.79,4.27-49.82-6.3-58.42-34.01-25.76-25.19,25.76,13.41-42.1c3.25-10.22,12.83-17.08,23.55-16.88l49.7.92h0l31.95-26.89-15.16,36.48,22.5,12.84,31.87-27.41c3.73-3.21,8.75-4.49,13.57-3.46l9.52,2.04,7.05-20.5-26.38-28.67,30.13,9.67-15.01-23.27,15.64,6.04.82-23.3c.74-15.79-4.48-23.45-14.07-29.64ZM251.89,439.93l-81.46-50.7-.87-18.62-37.8,8.89c27.29-42.08,75.9-84.25,75.9-84.25l-36.03,55.6h20.2v28.54l60.07,60.53ZM283.1,156.84l-36.95,26.95,20.17-37.03c5.53-6.59,14.29-9.51,22.67-7.57,0,0,36.05,6.81,36.58,9.85.52,3.04-34.49,6.12-42.46,7.8Z"/>
      <path class="cls-3" d="M440.4,117.9l.82,23.3,15.64-6.04-15.01,23.27,30.13-9.67-26.38,28.67,7.05,20.5,9.52-2.04c4.81-1.03,9.83.25,13.57,3.46l31.87,27.41,22.5-12.84-15.16-36.48,31.95,26.89h0l49.7-.92c10.72-.2,20.3,6.67,23.55,16.88l13.41,42.1-25.19-25.76-34.01,25.76-6.3,58.42,4.27,49.82,10.08-25.79c8.52,15.4,17.6,34.32,17.14,44.4-1.36,30.05-59.94,47.1-59.94,47.1-9.1,15.83-12.43,48.22-9.62,70.08h0l2.79,31.17s4.73-27.49,21.35-43.31l15.73-15.62c-.61,9.57.4,17.79.4,17.79,59.77-53.22,89.73-69.14,89.76-69.18h0s0,0,0,0h0s29.95,41.23,29.95,41.23h-36.2s-57.73,94.96-57.73,94.96l34.93-18.64-17.84,59.69-113.21,88.54,138.13-75.58,56.96-119.66,36.77,13.86c4.8-60.46-10.15-96.65-10.15-96.65h46.57s-11.47-70.59-81.54-139.35l17.17-5.84-34.52-17.46s-3.66-49.27-37.17-100.77c0,0,14.9,2.64,18.79,0,13.14-8.9,23.51-58.96,23.51-58.96,8.06-15.99,22.24-15.18,37.36-8.72l27.14,24.22-43.92,28.56,32.95,2.76-23.85,18.91-5.69,35.19,13.38-13.16v37.79s55.95-77.15,54.04-107.07c-1.08-16.85-37.87-55.9-37.87-55.9h-20.67c-38.78.49-112.95,47.53-112.95,47.53l-99.48-21.42c-13.85-2.98-28.47-.73-40.37,6.96-9.59,6.19-14.8,13.85-14.07,29.64ZM665.62,379.4v-28.54h20.2s-36.03-55.6-36.03-55.6c0,0,48.6,42.17,75.9,84.25l-37.8-8.89-.87,18.62-81.46,50.7,60.07-60.53ZM531.88,149.03c.52-3.04,36.58-9.85,36.58-9.85,8.38-1.94,17.14.98,22.67,7.57l20.17,37.03-36.95-26.95c-7.98-1.68-42.99-4.76-42.46-7.8Z"/>
      <g>
        <path class="cls-3" d="M419.99,310.87c-29.36-5.67-88.9-34.5-71.29-58.52-8.16.28-24.85,21.22-24.85,21.22-3.77,3.22-5.58,8.16-4.78,13.06,1.48,9.06,3.64,23.47,3.39,29.33-.59,13.74-10.71,47.24-10.71,53.95s6.72,19.31,6.72,19.31c0,0-3.26-24.14,8.4-39.47,9.73-12.8,22.82-13.61,68.95-13.51,11.33.02,21.06-8.09,23.07-19.24l1.1-6.14Z"/>
        <path class="cls-3" d="M545.7,369.92c0-6.72-10.12-40.21-10.71-53.95-.25-5.86,1.91-20.27,3.39-29.33.8-4.89-1.01-9.84-4.78-13.06,0,0-16.68-20.95-24.85-21.22,17.61,24.02-41.93,52.85-71.29,58.52l1.1,6.14c2.01,11.15,11.74,19.26,23.07,19.24,46.13-.1,59.22.71,68.95,13.51,11.65,15.33,8.4,39.47,8.4,39.47,0,0,6.72-12.6,6.72-19.31Z"/>
      </g>
      <path class="cls-3" d="M433.95,450.13c-2.48,14.92-5.67,25.79-5.67,25.79,0,0-3.18-10.88-5.67-25.79-1.99-11.96-14.15-20.11-27.04-18.18-.13.02-.26.04-.39.06-5.14.77-8.22,5.71-6.39,10.23l10.68,26.41c4.67,11.55,11.89,21.4,21.04,27.96,2.97,2.13,12.58,2.13,15.55,0,9.15-6.56,16.37-16.41,21.04-27.96l10.68-26.41c1.83-4.52-1.25-9.46-6.39-10.23-.13-.02-.26-.04-.39-.06-12.89-1.94-25.05,6.21-27.04,18.18Z"/>
      <path class="cls-2" d="M499.45,256.66c-6.93-9.74-12.86-19.21-17.12-26.37-4.32-7.26-12.59-11.22-20.95-9.98-8.2,1.23-19.55,2.42-32.65,2.42s-24.44-1.19-32.64-2.42c-8.36-1.25-16.63,2.71-20.96,9.97-4.26,7.17-10.19,16.63-17.12,26.37-1.62,2.28-1.36,5.41.63,7.37,1.75,1.72,4.11,3.97,6.98,6.51-.1-1.02-.16-2.04-.16-3.09,0-14.96,10.11-27.08,22.58-27.08s22.59,12.12,22.59,27.08c0,11.13-5.61,20.69-13.61,24.85,3.08,1.54,6.26,2.94,9.49,4.14,4.51,1.67,9.64.08,12.35-3.89,6.78-9.95,3.04-17.85,3.04-17.85,4.16,1.33,8.62,1.36,12.8.09l.86-.26s-3.95,8.02,2.78,18.04c2.69,4.01,7.83,5.62,12.36,3.96,3.32-1.22,6.58-2.65,9.74-4.23-8.01-4.16-13.61-13.72-13.61-24.85,0-14.96,10.11-27.08,22.58-27.08s22.59,12.12,22.59,27.08c0,1.05-.06,2.07-.16,3.09,2.87-2.54,5.24-4.79,6.98-6.51,1.99-1.97,2.26-5.09.63-7.37Z"/>
    </g>
  </g>
</svg>