<?xml version="1.0" encoding="UTF-8"?>
<svg id="Layer_2" data-name="Layer 2" xmlns="http://www.w3.org/2000/svg" xmlns:xlink="http://www.w3.org/1999/xlink" viewBox="0 0 950 950">
  <defs>
    <style>
      .cls-1 {
        fill: #003594;
      }

      .cls-2 {
        fill: #fff;
      }

      .cls-3 {
        fill: none;
      }

      .cls-4 {
        fill: #ccc;
      }

      .cls-5 {
        fill: #123992;
      }

      .cls-6 {
        clip-path: url(#clippath);
      }
    </style>
    <clipPath id="clippath">
      <path class="cls-3" d="M786.95,494.09s-30.93-46.77-61.76-81.09c11.06.37,42.83,24.56,42.83,24.56l-45.86-57.3,21.51-2.29-66.39-55.08,31.78,10-64.24-53.67-6.55-28.53-7.73,18.72v-33.33l-27.25,16.31-15.25-10.28-23.12,15.1-3.21-27.8c-13.98,24.45-47.32,39.67-67.28,78.88,0-38.35,50.73-63.75,50.07-101.82l-17.82,12.53-51.68,5.73-51.68-5.73-17.82-12.53c-.66,38.06,50.07,63.47,50.07,101.82-19.96-39.21-53.3-54.43-67.28-78.88l-3.21,27.8-23.12-15.1-15.25,10.28-27.25-16.31v33.33l-7.73-18.72-6.55,28.53-64.24,53.67,31.78-10-66.39,55.08,21.51,2.29-45.86,57.3s31.77-24.18,42.83-24.56c-30.83,34.32-61.76,81.09-61.76,81.09,0,0,19.74-12.02,36.83-15.13-4.73,34.45-7.25,70.66-7.25,70.66,0,0,41.97-68.9,60.37-58.59-10.67,38.03-23.96,98.43-23.96,98.43,0,0,30.58-27.37,44.64-46.21,7.04,60.45,28.17,108.53,28.17,108.53,0,0,9.93-12.86,11.41-31.16,38.65,30.27,85.85,129.65,85.85,129.65l-9.46-51.93c-3.28-18.01-10.14-35.2-20.18-50.58l-28.79-44.08-17.88-47.47-20.51,30.29,1.29-70.8-25.93-5.28,4.72-51.2-40.03,8.63,12.38-17.8-27.9,5.7,24.62-50.78,3.29,8.12,12.72-22.8-24.33-21.97-.78-.15,109.5-61.57s47.43,19.4,66.25,65.01c39.41-10.37-10.13-84.31-10.13-84.31,0,0,76.7,81.93,10.13,101.7-3.26,32.61,14.99,82.45,14.99,82.45-18.33-12.94-19.11-38.06-37.75-51.43-10.06-7.21-21.55-6.36-30.59-11.75-5.4-3.22-28.29-19.99-36.64-26.86-8.75-7.21-21.75-2.48-21.75-2.48,0,0,21.93-26.62,75.3-14.55,13.37,6.47-11.37-28.07-29.32-33.35-13.91,8.57-63.65,34.57-80.14,42.68l11.23,10.13-13.8,43.75-12.89,8.12,19.93.58-7.14,13.78,37.91-7.23-8.96,12.93s35.35,33.1,70.52,60.29c-2.1-11.69-5.4-25.47-7.53-34-1.31-5.25-4.1-10.03-8.04-13.78l-31.67-30.25,38.26,28.71c4.16,3.12,7.4,7.3,9.37,12.09,6.16,15,19.38,48.85,19.38,63h0c.91,7.43.57,16.37-4.46,22.47-.81,6.59,29.67,61.67,29.67,61.67,4.23,7.05,12.37,10.84,20.55,9.57l22.78-3.78c3.47-3.83-6.23-14.16-12.69-22.83-6.66-8.95-16.3-13.84-21.89-11.24,1.42.48,2.97,1.38,4.36,2.65,3.06,2.78,4.22,6.24,2.59,7.72-1.62,1.48-5.42.42-8.48-2.36-.95-.87-1.72-1.8-2.28-2.72,0,.02,0,.04-.01.06l-.23-.48c-.16-.3-.3-.59-.41-.88l-1.14-2.45,3.61-16.39s0-11.64,54.12-11.64,54.12,11.64,54.12,11.64l3.61,16.39-1.14,2.45c-.11.29-.25.58-.41.88l-.23.48s0-.04-.01-.06c-.56.92-1.32,1.85-2.28,2.72-3.06,2.78-6.85,3.84-8.48,2.36-1.62-1.48-.46-4.94,2.59-7.72,1.39-1.27,2.93-2.17,4.36-2.65-5.59-2.61-15.23,2.28-21.89,11.24-6.43,8.63-16.07,18.91-12.74,22.78l23.09,3.83c8.19,1.26,16.32-2.53,20.55-9.57,0,0,30.48-55.08,29.67-61.67-5.06-6.14-5.38-15.17-4.44-22.62l-.28.15c0-14.15,13.22-48,19.38-63,1.97-4.79,5.21-8.96,9.37-12.09l38.26-28.71-31.67,30.25c-3.93,3.76-6.72,8.53-8.04,13.78-2.15,8.58-5.47,22.5-7.57,34.23,35.27-27.23,70.82-60.52,70.82-60.52l-8.96-12.93,37.91,7.23-7.14-13.78,19.93-.58-12.89-8.12-13.8-43.75,11.19-10.09-.83.16c-16.09-7.89-66.52-34.24-80.54-42.87-17.95,5.27-42.69,39.81-29.32,33.35,53.37-12.07,75.3,14.55,75.3,14.55,0,0-13-4.73-21.75,2.48-8.35,6.87-16.71,14.78-22.11,18-9.04,5.39-45.12,20.61-45.12,20.61,0,0-4.96,10.45-14.1,21.74l-23.65,29.69s18.25-49.84,14.99-82.45c-66.56-19.77,10.13-101.7,10.13-101.7,0,0-49.54,73.94-10.13,84.31,18.82-45.62,66.25-65.01,66.25-65.01l102,57.35,8.15,4.22-24.5,22.12,12.72,22.8,3.28-8.12,24.62,50.78-27.9-5.7,12.38,17.8-40.03-8.63,4.72,51.2-25.93,5.28,1.29,70.8-20.51-30.29-17.88,47.47-28.79,44.08c-10.04,15.37-16.9,32.56-20.18,50.58l-9.46,51.93s47.2-99.38,85.85-129.65c1.48,18.29,11.41,31.16,11.41,31.16,0,0,21.13-48.08,28.17-108.53,14.06,18.84,44.64,46.21,44.64,46.21,0,0-13.29-60.41-23.96-98.43,35.23,23.15,60.37,58.59,60.37,58.59,0,0-2.52-36.22-7.25-70.66,17.1,3.11,36.83,15.13,36.83,15.13Z"/>
    </clipPath>
  </defs>
  <g id="Logos">
    <g>
      <path class="cls-2" d="M458.57,927.51c-23.76-32.52-45.28-49.94-64.27-65.3-10.38-8.4-20.42-16.52-29.75-26.19l-10.44,30.71-23.13-23.03c-20.77-20.67-36.61-46.09-47.91-68.33l-9.14,28.75-50.22-81.61c-5.88-5.98-20.14-22.49-26.98-47.93-4.49,1.45-8.83,2.44-12.88,3.36-6.52,1.48-12.68,2.89-19.37,5.94l-35.85,16.38,7.44-38.35c5.33-27.61,8.67-70.49,2.32-93.52l-47.44,18.29,9.37-39.87L0,572.66l53.3-52.35c24.09-23.66,29.61-42.9,36-65.17,1.62-5.64,3.32-11.59,5.4-17.81h-42.02l35.31-34.34c.47-.45,46.95-45.7,60.44-61.57,4.08-4.8,12.21-14.2,19.18-22.24-6.54-14.99-8.52-30.73-8.78-33.02l-3.05-26.72,19.37,3.43c-9.64-25.47-16.5-52.67-14.16-78.98.07-20.84,2.35-77.04,2.45-79.45l1.81-44.39,14.64,13.86c3.07-17.58,7.82-36.7,14.94-47.52L212.23,0l16.82,26.77c11.91,18.96,54.62,38.02,92.3,54.84,36.87,16.46,71.81,32.06,92.67,51.85,20.06,6.77,49.74,15.23,60.99,15.23s40.93-8.46,60.99-15.23c20.85-19.8,55.8-35.4,92.67-51.85,37.68-16.82,80.39-35.88,92.3-54.84l16.82-26.77,17.39,26.41c7.12,10.82,11.88,29.94,14.94,47.52l14.64-13.86,1.81,44.39c.1,2.42,2.38,58.62,2.45,79.45,2.34,26.32-4.53,53.53-14.18,79.01l19.33-3.33-2.99,26.59c-.26,2.29-2.24,18.03-8.78,33.02,6.98,8.05,15.12,17.45,19.18,22.24,13.49,15.87,59.98,61.11,60.44,61.57l35.31,34.34h-42.02c2.07,6.22,3.78,12.16,5.4,17.81,6.39,22.27,11.91,41.5,36,65.16l53.3,52.35-100.31-25.85,9.37,39.87-47.44-18.29c-6.36,23.03-3.01,65.91,2.32,93.53l7.4,38.32-35.8-16.35c-6.69-3.06-12.85-4.46-19.37-5.94-4.05-.92-8.39-1.91-12.88-3.36-6.84,25.44-21.1,41.94-26.98,47.93l-50.22,81.61-9.14-28.75c-11.31,22.24-27.14,47.66-47.91,68.33l-23.13,23.03-10.44-30.71c-9.33,9.67-19.37,17.79-29.75,26.19-18.99,15.36-40.51,32.77-64.27,65.3l-16.43,22.49-16.43-22.49Z"/>
      <path class="cls-1" d="M475,168.74c-21.07,0-72.1-17.88-72.1-17.88-37.83-40.44-162.94-68.74-191.07-113.52-10.35,15.72-15.52,62.76-16.56,77.01-3.5-2.36-7.8-5.53-11.57-9.09,0,0-2.43,59.65-2.43,79.54v-.02c-3.08,31.28,9.75,66.62,25.57,100.94-15.62.37-27.85-1.8-27.85-1.8,0,0,2.8,24.5,13.24,37.73-6.6,7.56-22.2,25.54-28.26,32.68-14.27,16.78-61.75,62.96-61.75,62.96h23c-22.79,41.84-13.5,73.91-57.62,117.24l60.05-15.47-8.26,35.15,30.69-11.83c.28,1.56.55,3.13.81,4.69,21.83,32.31,5.09,118.63,5.09,118.63,24.17-11.04,41.01-4.84,57.46-26.77-3.14,45.3,26.28,71.05,26.28,71.05l28.28,45.96,12.55-39.48s20.64,69.15,64.81,113.11c4.7-13.82,17.79-27.64,17.79-27.64,26.15,40.91,64.66,49.22,111.86,113.83,47.19-64.6,85.71-72.91,111.86-113.83,0,0,13.09,13.82,17.79,27.64,44.17-43.96,64.81-113.11,64.81-113.11l12.55,39.48,28.28-45.96s29.42-25.75,26.28-71.05c16.45,21.93,33.29,15.72,57.46,26.77,0,0-16.75-86.32,5.09-118.63.26-1.56.53-3.12.81-4.69l30.69,11.83-8.26-35.15,60.05,15.47c-44.12-43.33-34.83-75.41-57.62-117.24h23s-47.48-46.17-61.75-62.96c-6.06-7.13-21.66-25.11-28.26-32.68,10.44-13.23,13.24-37.73,13.24-37.73,0,0-12.23,2.17-27.85,1.8,15.82-34.32,28.64-69.66,25.56-100.94v.02c0-19.89-2.43-79.54-2.43-79.54-3.76,3.56-8.06,6.73-11.57,9.09-1.05-14.24-6.22-61.29-16.56-77.01-28.13,44.78-153.24,73.08-191.07,113.52,0,0-51.03,17.88-72.1,17.88Z"/>
      <polygon class="cls-5" points="475 854.75 475 854.75 475 854.75 475 854.75"/>
      <g>
        <path class="cls-4" d="M475.13,571.23c-54.12,0-54.12,11.64-54.12,11.64l-3.61,16.39,1.14,2.45c.11.29.25.58.41.88l.23.48s0-.04.01-.06c.56.92,1.32,1.85,2.28,2.72,3.06,2.78,6.85,3.84,8.48,2.36,1.62-1.48.46-4.94-2.59-7.72-1.39-1.27-2.93-2.17-4.36-2.65,5.59-2.61,15.23,2.28,21.89,11.24,6.43,8.63,16.07,18.91,12.74,22.78l-23.09,3.83c-8.19,1.26-16.32-2.53-20.55-9.57,0,0-30.48-55.08-29.67-61.67,5.06-6.14,5.38-15.17,4.44-22.62l.28.15c0-14.15-13.22-48-19.38-63-1.97-4.79-5.21-8.96-9.37-12.09l-38.26-28.71,31.67,30.25c3.93,3.76,6.72,8.53,8.04,13.78,2.15,8.58,5.47,22.5,7.57,34.23-35.27-27.23-70.82-60.52-70.82-60.52l8.96-12.93-37.91,7.23,7.14-13.78-19.93-.58,12.89-8.12,13.8-43.75-11.19-10.09.83.16c16.09-7.89,66.52-34.24,80.54-42.87,17.95,5.27,42.69,39.81,29.32,33.35-53.37-12.07-75.3,14.55-75.3,14.55,0,0,13-4.73,21.75,2.48,8.35,6.87,16.71,14.78,22.11,18,9.04,5.39,45.12,20.61,45.12,20.61,0,0,4.96,10.45,14.1,21.74l23.65,29.69s-18.25-49.84-14.99-82.45c66.56-19.77-10.13-101.7-10.13-101.7,0,0,49.54,73.94,10.13,84.31-18.82-45.62-66.25-65.01-66.25-65.01l-102,57.35-8.15,4.22,24.5,22.12-12.72,22.8-3.28-8.12-24.62,50.78,27.9-5.7-12.38,17.8,40.03-8.63-4.72,51.2,25.93,5.28-1.29,70.8,20.51-30.29,17.88,47.47,28.79,44.08c10.04,15.37,16.9,32.56,20.18,50.58l9.46,51.93s-49.23-79.34-87.88-109.61c-1.48,18.29-11.41,31.16-11.41,31.16,0,0-21.13-48.08-28.17-108.53-14.06,18.84-44.64,46.21-44.64,46.21,0,0,13.29-60.41,23.96-98.43-35.23,23.15-60.37,58.59-60.37,58.59,0,0,2.52-36.22,7.25-70.66-17.1,3.11-36.83,15.13-36.83,15.13,0,0,32.96-66.82,63.79-101.14-11.06.37-42.83,24.56-42.83,24.56l45.86-57.3-21.51-2.29,66.39-55.08-31.78,10,64.24-53.67,6.55-28.53,7.73,18.72v-33.33s27.25,16.31,27.25,16.31l15.25-10.28,23.12,15.1,3.21-27.8c13.98,24.45,47.32,39.67,67.28,78.88,0-38.35-50.73-63.75-50.07-101.82l17.82,12.53,51.68,5.73s51.68-5.73,51.68-5.73l17.82-12.53c.66,38.06-50.07,63.47-50.07,101.82,19.96-39.21,53.3-54.43,67.28-78.88l3.21,27.8,23.12-15.1,15.25,10.28,27.25-16.31v33.33l7.73-18.72,6.55,28.53,64.24,53.67-31.78-10,66.39,55.08-21.51,2.29,45.86,57.3s-31.77-24.18-42.83-24.56c30.83,34.32,63.79,101.14,63.79,101.14,0,0-19.74-12.02-36.83-15.13,4.73,34.45,7.25,70.66,7.25,70.66,0,0-25.14-35.44-60.37-58.59,10.67,38.03,23.96,98.43,23.96,98.43,0,0-30.58-27.37-44.64-46.21-7.04,60.45-28.17,108.53-28.17,108.53,0,0-9.93-12.86-11.41-31.16-38.65,30.27-87.88,109.61-87.88,109.61l9.46-51.93c3.28-18.01,10.14-35.2,20.18-50.58l28.79-44.08,17.88-47.47,20.51,30.29-1.29-70.8,25.93-5.28-4.72-51.2,40.03,8.63-12.38-17.8,27.9,5.7-24.62-50.78-3.28,8.12-12.72-22.8,24.5-22.12-8.15-4.22-102-57.35s-47.43,19.4-66.25,65.01c-39.41-10.37,10.13-84.31,10.13-84.31,0,0-76.7,81.93-10.13,101.7,3.26,32.61-14.99,82.45-14.99,82.45l23.65-29.69c9.14-11.3,14.1-21.74,14.1-21.74,0,0,36.08-15.22,45.12-20.61,5.4-3.22,13.77-11.13,22.11-18,8.75-7.21,21.75-2.48,21.75-2.48,0,0-21.93-26.62-75.3-14.55-13.37,6.47,11.37-28.07,29.32-33.35,14.02,8.64,64.45,34.98,80.54,42.87l.83-.16-11.19,10.09,13.8,43.75,12.89,8.12-19.93.58,7.14,13.78-37.91-7.23,8.96,12.93s-35.55,33.29-70.82,60.52c2.1-11.74,5.43-25.65,7.57-34.23,1.31-5.25,4.1-10.03,8.04-13.78l31.67-30.25-38.26,28.71c-4.16,3.12-7.4,7.3-9.37,12.09-6.16,15-19.38,48.85-19.38,63l.28-.15c-.94,7.46-.62,16.48,4.44,22.62.81,6.59-29.67,61.67-29.67,61.67-4.23,7.05-12.37,10.84-20.55,9.57l-23.09-3.83c-3.33-3.87,6.31-14.15,12.74-22.78,6.66-8.95,16.3-13.84,21.89-11.24-1.42.48-2.97,1.38-4.36,2.65-3.06,2.78-4.22,6.24-2.59,7.72,1.62,1.48,5.42.42,8.48-2.36.95-.87,1.72-1.8,2.28-2.72,0,.02,0,.04.01.06l.23-.48c.16-.3.3-.59.41-.88l1.14-2.45-3.61-16.39s0-11.64-54.12-11.64h.26Z"/>
        <path class="cls-2" d="M375.25,674.13c-5.66-16.69-30.57-52.12-39.86-67.71-1.15-3.29-13.4-36.97-13.7-37.96l-3.04,3.57s-19.18,23.96-19.44,24.24l.44-74.07.02-3.37c-.58-.12-17.52-3.84-25.64-5.61.73-6.77,2.12-19.63,2.12-19.63,1.09-10.15,2.09-20.6,3.08-30.8,0,0-7.06,1.53-7.06,1.53-11.48,2.44-25.45,5.57-36.89,8.18,0,0-.46.11-.5.12,1.82-2.72,3.64-5.45,5.43-8.2,0,0,5.95-9.12,5.95-9.12-8.86,2.11-18.29,4.22-27.36,6.34,7.96-17.97,16.54-37.89,23.65-55.51,0,0-.91-.43-.91-.43-2.1,3.64-6.3,11.13-8.33,14.8-8.68,15.7-19.17,35.36-27.48,51.23,6.94-1.13,14-2.37,21-3.62-2.22,3.07-4.43,6.14-6.66,9.21l-7.06,9.74,12.06-2.38c11.49-2.23,25.64-5.13,37.03-7.54,0,0,2.71-.58,5.32-1.14-1.1,12.91-2.27,28.71-3.17,40.43l-.32,4.2c1.44.27,19.42,3.66,27.2,5.13l1.47,71.56s3.05,10.65,4,13.8l3.81-4.76s15.11-21.88,19.5-27.37c3.58,9.11,11.58,29.31,11.53,29.32.1.16,29.39,43.55,29.5,43.72,9.82,14.36,16.77,30.6,20.19,47.64l1-.18c-1.43-8.65-3.73-17.17-6.89-25.39Z"/>
        <path class="cls-2" d="M574.75,674.13c5.66-16.69,30.57-52.12,39.86-67.71,1.15-3.29,13.4-36.97,13.7-37.96l3.04,3.57s19.18,23.96,19.44,24.24l-.44-74.07-.02-3.37c.58-.12,17.52-3.84,25.64-5.61-.73-6.77-2.12-19.63-2.12-19.63-1.09-10.15-2.09-20.6-3.08-30.8,0,0,7.06,1.53,7.06,1.53,11.48,2.44,25.45,5.57,36.89,8.18,0,0,.46.11.5.12-1.82-2.72-3.64-5.45-5.43-8.2,0,0-5.95-9.12-5.95-9.12,8.86,2.11,18.29,4.22,27.36,6.34-7.96-17.97-16.54-37.89-23.65-55.51,0,0,.91-.43.91-.43,2.1,3.64,6.3,11.13,8.33,14.8,8.68,15.7,19.17,35.36,27.48,51.23-6.94-1.13-14-2.37-21-3.62,2.22,3.07,4.43,6.14,6.66,9.21l7.06,9.74-12.06-2.38c-11.49-2.23-25.64-5.13-37.03-7.54,0,0-2.71-.58-5.32-1.14,1.1,12.91,2.27,28.71,3.17,40.43l.32,4.2c-1.44.27-19.42,3.66-27.2,5.13l-1.59,72.43c-.95,3.18-2.93,9.78-3.87,12.93l-3.81-4.76s-15.11-21.88-19.5-27.37c-3.58,9.11-11.58,29.31-11.53,29.32-.1.16-29.39,43.55-29.5,43.72-9.82,14.36-16.77,30.6-20.19,47.64l-1-.18c1.43-8.65,3.73-17.17,6.89-25.39Z"/>
      </g>
      <g class="cls-6">
        <g>
          <path class="cls-2" d="M542.26,571.63l-3.66-40.42s-19.62,15.05-20.22,10.02c-2.09-17.55,2.05-30.14,11.5-69.76-11.21,10.6-14.35,35.36-20.56,39.32-3.81-12.46-1.17-49.35-1.17-49.35,0,0-11.43,33.41-13.96,61.83-8.61,0-9.72-81.7-19.19-111.9-9.47,30.2-10.58,111.9-19.19,111.9-2.53-28.42-13.96-61.83-13.96-61.83,0,0,2.64,36.88-1.17,49.35-6.21-3.96-9.35-28.72-20.56-39.32,9.45,39.61,13.59,52.21,11.5,69.76-.6,5.03-20.22-10.02-20.22-10.02l-3.66,40.42-11.48,5.66,17.72,48.71,9.76,20.05,51.27-13.39,51.27,13.39,9.76-20.05,17.72-48.71-11.48-5.66Z"/>
          <path class="cls-2" d="M676.96,373.94c-16.06-18.15-48.35-23.26-48.35-23.26h15.73l-47.92-19.61-24.7,10.74-22.12,33.46-10.36,59.39v6.89l-.19.24s-7.2,5.02-9.05,13.98c-1.98,9.59,22.76,6.02,26.78-3.08l4.71-8.71c1.31,1.84,2.51,3.95,3.26,6.3,4.25-7.92,3.64-14.82,3.21-17.34l1.08-.53c2.43.97,7.93,3.45,13.39,7.89.3-7.42-1.91-13.5-1.91-13.5l-.63.24,1.1-.55c3.35,2.64,9.14,7.77,11.95,13.62,4.14-7.95.8-16.47-.54-19.27l.74-.37c2.4,1.11,8.02,3.48,14.28,4.54-3.19-4.34-2.74-10.26-2.74-10.26h0l7.53-3.73h15.73l-8.21-8.2,13-13.77s20.99-14.7,44.25-15.09Z"/>
          <path class="cls-2" d="M272.43,373.94c16.06-18.15,48.35-23.26,48.35-23.26h-15.73s47.92-19.61,47.92-19.61l24.7,10.74,22.12,33.46,10.36,59.39v6.89s.19.24.19.24c0,0,7.2,5.02,9.05,13.98,1.98,9.59-22.76,6.02-26.78-3.08l-4.71-8.71c-1.31,1.84-2.51,3.95-3.26,6.3-4.25-7.92-3.64-14.82-3.21-17.34l-1.08-.53c-2.43.97-7.93,3.45-13.39,7.89-.3-7.42,1.91-13.5,1.91-13.5l.63.24-1.1-.55c-3.35,2.64-9.14,7.77-11.95,13.62-4.14-7.95-.8-16.47.54-19.27l-.74-.37c-2.4,1.11-8.02,3.48-14.28,4.54,3.19-4.34,2.74-10.26,2.74-10.26h0l-7.53-3.73h-15.73s8.21-8.2,8.21-8.2l-13-13.77s-20.99-14.7-44.25-15.09Z"/>
          <polygon class="cls-2" points="544.5 203.46 526.68 215.99 475 221.72 423.32 215.99 405.5 203.46 403.57 211.98 419.74 226.57 435.76 230.44 444.34 239.07 453.67 231.68 475 254.62 496.33 231.68 505.66 239.07 514.24 230.44 530.26 226.57 546.43 211.98 544.5 203.46"/>
        </g>
      </g>
      <path class="cls-4" d="M474.87,684.24c-41.57,0-51.98-13.01-51.98-29.46,13.74,0,26.03-7.62,51.98-7.62,25.95,0,38.24,7.62,51.98,7.62,0,16.45-10.41,29.46-51.98,29.46Z"/>
      <path class="cls-4" d="M711.73,213.74s8.57-25,7.25-48.17c1.04-18.22.19-38.74-4.29-60.31-27.48,21.95-87.59,21.72-148.76,86.56l16.95,5.17-24.22,17.23,21.8-.86s.91,8.4-6.05,23.25c35.47-22.03,76.87-51.8,86.71-58.93-2.1,2.86-5.93,10.54-12.35,30.9,21.61-31.2,27.85-43.95,27.85-43.95,0,0,5.67,42.13-16.73,78.09.75,5.77,7.04,11.51,7.04,11.51l2.42,20.67,42.38,29.28-15.74-22.39,21.8,6.89-41.17-43.06,31.48,18.09-4.84-24.12,14.53,10.34-9.45-24.66c1.02-3.31,2.12-7.14,3.21-11.43l.19-.09Z"/>
      <path class="cls-2" d="M647.8,156.69c18.58-11.71,40.81-17.86,57.31-32.83l-.7-.86c-9.18,6.09-19.29,10.02-29.74,13.55-11.83,4.05-23.84,8.48-34.96,14.32-1.26.64-4.47,2.27-5.7,2.89-2.85,1.66-6.49,3.55-9.21,5.38-10.56,7.12-19.6,16.43-26.68,26.93-1.55,2.36-3.06,4.74-4.4,7.26l.82.75c2.53-1.39,4.89-2.92,7.2-4.47,5.09-3.5,10.17-7.05,15.21-10.64l32.47-10.74-11.92-4.47c3.33-2.5,6.71-4.93,10.31-7.07Z"/>
      <path class="cls-4" d="M369.54,213.35l21.8.86-24.22-17.23,16.95-5.17s-1.59-1.47-4.43-3.95c-59.84-60.87-118.03-61.11-144.94-82.6-5.06,24.34-5.48,47.35-3.8,67.23.26,12.97,3.02,25.68,5.09,33.49,1.76,8,3.67,14.81,5.34,20.17l-9.11,23.77,14.53-10.34-4.84,24.12,31.48-18.09-41.17,43.06,21.8-6.89-15.74,22.39,42.38-29.28,2.42-20.67s8.32-5.74,9.07-11.51c-22.4-35.96-18.75-78.09-18.75-78.09,0,0,6.24,12.75,27.85,43.95-6.42-20.36-10.25-28.04-12.35-30.9,9.84,7.13,51.25,36.9,86.71,58.93-6.96-14.86-6.05-23.25-6.05-23.25Z"/>
      <path class="cls-4" d="M527.52,790.54l-9.42-23.18-12.28,13.79-31.13-37.71-31.13,37.71-12.28-13.79-9.4,23.15-23.92-3.7,19.47,13.14.85-.59-.24.59c18.59,8.79,34.64,25.82,46.4,37.18,2.51,2.42,10.55,11.2,10.55,11.2,3.66-4.41,7.43-8.78,9.94-11.2,11.76-11.36,27.81-28.4,46.4-37.18l19.47-13.14-23.29,3.73Z"/>
      <polygon class="cls-2" points="519.18 795.89 507.75 802.09 496.47 787.31 492.8 795.89 474.38 769.05 455.97 795.89 452.3 787.31 441.02 802.09 429.59 795.89 445.25 818.84 473.78 847.12 473.77 848.33 474.38 847.72 475 848.33 474.99 847.12 503.52 818.84 519.18 795.89"/>
      <path class="cls-2" d="M353.94,377.34c10.53-1.1,24.27,3.22,24.27,3.22,0,0,11.52,7.67,14.24,22.54-6.18-5.1-31.81-3.12-38.51-25.76Z"/>
      <path class="cls-2" d="M594.8,377.34c-10.53-1.1-24.27,3.22-24.27,3.22,0,0-11.52,7.67-14.24,22.54,6.18-5.1,31.81-3.12,38.51-25.76Z"/>
      <g>
        <path class="cls-2" d="M533.52,342.96c10.78-12.63,27.37-29.35,45.92-38.38,4.52-2.2,8.12-5.89,10.23-10.42,4.16-8.99,9.12-21.61,9.12-21.61l-19.75,15.65-3.52-15.65-6.14,16.52-5.29-12.17s-22.57,28.46-28.13,39.13c-2.46,4.72-5.91,14.35-8.9,23.34-1.3,3.9,3.78,6.73,6.47,3.59Z"/>
        <path class="cls-2" d="M416.48,342.96c-10.78-12.63-27.37-29.35-45.92-38.38-4.52-2.2-8.12-5.89-10.23-10.42-4.16-8.99-9.12-21.61-9.12-21.61l19.75,15.65,3.52-15.65,6.14,16.52,5.29-12.17s22.57,28.46,28.13,39.13c2.46,4.72,5.91,14.35,8.9,23.34,1.3,3.9-3.78,6.73-6.47,3.59Z"/>
      </g>
      <path class="cls-2" d="M302.21,156.69c-18.58-11.71-40.81-17.86-57.31-32.83l.7-.86c9.18,6.09,19.29,10.02,29.74,13.55,11.83,4.05,23.84,8.48,34.96,14.32,1.26.64,4.47,2.27,5.7,2.89,2.85,1.66,6.49,3.55,9.21,5.38,10.56,7.12,19.6,16.43,26.68,26.93,1.55,2.36,3.06,4.74,4.4,7.26l-.82.75c-2.53-1.39-4.89-2.92-7.2-4.47-5.09-3.5-10.17-7.05-15.21-10.64l-32.47-10.74,11.92-4.47c-3.33-2.5-6.71-4.93-10.31-7.07Z"/>
    </g>
  </g>
</svg>